<svg width="48" height="48" viewBox="0 0 48 48" fill="none" xmlns="http://www.w3.org/2000/svg">
<circle cx="24" cy="24" r="24" fill="#F6F6F6"/>
<mask id="mask0_795_1737" style="mask-type:alpha" maskUnits="userSpaceOnUse" x="7" y="7" width="34" height="35">
<path d="M41 24.0003C41 33.3892 33.3888 41.0004 24 41.0004C14.6112 41.0004 7 33.3892 7 24.0003C7 14.6114 14.6112 7.00024 24 7.00024C33.3888 7.00024 41 14.6114 41 24.0003Z" fill="#FFE048"/>
</mask>
<g mask="url(#mask0_795_1737)">
<path d="M41 24.0003C41 33.3892 33.3888 41.0004 24 41.0004C14.6112 41.0004 7 33.3892 7 24.0003C7 14.6114 14.6112 7.00024 24 7.00024C33.3888 7.00024 41 14.6114 41 24.0003Z" fill="#FFE048"/>
<path d="M30.8599 20.5155C30.8599 24.7888 27.55 28.2529 23.4671 28.2529C19.3841 28.2529 16.0742 24.7888 16.0742 20.5155C16.0742 16.2422 19.3841 12.7781 23.4671 12.7781C27.55 12.7781 30.8599 16.2422 30.8599 20.5155Z" fill="#FFF278"/>
<path d="M31.3927 36.7878C32.7178 38.6752 36.5935 38.2384 40.0493 35.8121C43.5051 33.3858 45.2323 29.8888 43.9072 28.0014C42.582 26.114 38.7063 26.5509 35.2506 28.9772C31.7948 31.4035 30.0675 34.9004 31.3927 36.7878Z" fill="#FF5050"/>
<path d="M14.646 36.0621C13.5173 37.6697 10.0983 37.2149 7.00945 35.0462C3.92059 32.8775 2.33156 29.8163 3.46024 28.2087C4.58893 26.6011 8.00792 27.0559 11.0968 29.2246C14.1856 31.3933 15.7747 34.4545 14.646 36.0621Z" fill="#FF5050"/>
<path fill-rule="evenodd" clip-rule="evenodd" d="M32.9466 12.1448C32.345 11.9059 31.7213 11.7162 31.0828 11.5972C30.7257 11.5307 30.4182 11.8171 30.4262 12.1658L30.4274 12.2204C30.4332 12.4742 30.6229 12.6784 30.8648 12.7187L30.8955 12.5341L30.865 12.7187C31.6291 12.845 32.3762 13.0784 33.0942 13.386C33.847 13.7084 34.5089 13.9277 35.1833 14.4078C36.2111 15.1391 37.3415 16.2494 38.0688 17.3705C38.1735 17.532 38.4211 17.7089 38.5249 17.6689C38.6891 17.6055 38.6542 17.2328 38.5857 17.1031C38.1756 16.3267 37.6687 15.5945 37.1016 14.9649C36.5299 14.3302 35.8737 13.7904 35.1833 13.3261C34.4792 12.8527 33.7284 12.4553 32.9466 12.1448ZM30.9261 12.3499C30.8528 12.3377 30.8027 12.2776 30.8012 12.2118L30.7999 12.1572C30.797 12.0314 30.9047 11.9443 31.0143 11.9647C31.6257 12.0787 32.2261 12.2609 32.8086 12.4922C33.5651 12.7927 34.2922 13.1775 34.9747 13.6363C35.6451 14.0872 36.2766 14.6076 36.8238 15.2151C37.1714 15.601 37.4962 16.0279 37.7888 16.4811C37.1085 15.625 36.2888 14.8783 35.4605 14.289C34.7642 13.7933 34.0188 13.3753 33.2414 13.0424C32.5004 12.7249 31.7244 12.4819 30.9261 12.3499Z" fill="black"/>
<path fill-rule="evenodd" clip-rule="evenodd" d="M38.4211 17.1914C38.4258 17.2003 38.4293 17.2097 38.4315 17.2195C38.461 17.3512 38.2389 17.4362 38.1654 17.3229C37.4231 16.1787 36.3961 15.1845 35.3528 14.4422C34.6674 13.9543 33.9336 13.5428 33.1685 13.2152C32.439 12.9026 31.6774 12.6644 30.8962 12.5353C30.7386 12.509 30.6187 12.3768 30.615 12.2171L30.6138 12.1625C30.6083 11.9252 30.8159 11.7384 31.0492 11.7819C31.6742 11.8984 32.2862 12.0843 32.8783 12.3194C33.6475 12.625 34.3864 13.016 35.0797 13.4821C35.7601 13.9398 36.4039 14.4699 36.9634 15.091C37.5197 15.7085 38.0178 16.4279 38.4211 17.1914Z" fill="black"/>
<path fill-rule="evenodd" clip-rule="evenodd" d="M14.6257 12.5082C15.1599 12.2796 15.7152 12.0946 16.2857 11.9725C16.6167 11.9017 16.9096 12.1611 16.9107 12.4852L16.9109 12.5341C16.9117 12.7713 16.7396 12.9664 16.5153 13.0099L16.4797 12.8264L16.515 13.01C15.8354 13.1408 15.1733 13.367 14.5387 13.659C13.8734 13.965 13.2373 14.344 12.6457 14.7892C11.7441 15.4673 10.7578 16.4545 10.1345 17.4734C10.0377 17.6316 9.85791 17.6269 9.75958 17.5919C9.60218 17.5359 9.62118 17.2162 9.68273 17.0918C10.0324 16.3854 10.4699 15.7162 10.964 15.1376C11.4623 14.5542 12.0385 14.0541 12.6468 13.6212C13.2674 13.1798 13.9316 12.8054 14.6257 12.5082ZM16.4442 12.6429C16.5008 12.6319 16.5372 12.5846 16.5371 12.5355L16.5369 12.4865C16.5365 12.3853 16.4488 12.32 16.3639 12.3381C15.8203 12.4544 15.2882 12.6313 14.7729 12.8519M16.4442 12.6429C15.7306 12.7803 15.0398 13.0169 14.3825 13.3193L16.4442 12.6429ZM12.8636 13.9258C13.4629 13.4995 14.1037 13.1384 14.7729 12.8519L12.8636 13.9258ZM12.8636 13.9258C12.2748 14.3448 11.7228 14.8248 11.2483 15.3804C11.0291 15.637 10.8212 15.9128 10.6276 16.2025C11.1666 15.5459 11.7896 14.9653 12.421 14.4904M14.3825 13.3193C13.6929 13.6365 13.0339 14.0293 12.421 14.4904L14.3825 13.3193Z" fill="black"/>
<path fill-rule="evenodd" clip-rule="evenodd" d="M9.8468 17.1753C9.84282 17.1834 9.83993 17.1919 9.8382 17.2007C9.81485 17.3193 10.0159 17.3902 10.079 17.2871C10.7167 16.2446 11.613 15.33 12.5299 14.6404C13.1322 14.1872 13.7796 13.8013 14.4572 13.4898C15.1032 13.1925 15.7796 12.9611 16.4762 12.827C16.6168 12.7998 16.721 12.6785 16.7205 12.5354L16.7204 12.4864C16.7196 12.2738 16.5293 12.1114 16.3213 12.1559C15.7643 12.2751 15.2206 12.456 14.6958 12.6806C14.0142 12.9725 13.3617 13.3402 12.7517 13.7741C12.1532 14.2 11.5891 14.6901 11.1027 15.2596C10.6191 15.8258 10.19 16.482 9.8468 17.1753Z" fill="black"/>
<path d="M26.6272 25.5583C25.3212 30.2597 26.9484 34.4768 30.4738 35.3485C33.9993 36.2203 37.9159 33.1157 39.2219 28.4142C40.528 23.7128 38.9008 19.4958 35.3754 18.624C31.8499 17.7523 27.9332 20.8569 26.6272 25.5583Z" fill="url(#paint0_linear_795_1737)"/>
<path fill-rule="evenodd" clip-rule="evenodd" d="M27.32 31.84C26.6378 30.1268 26.5135 27.9373 27.1393 25.6842C27.7652 23.4311 29.0118 21.5806 30.497 20.4034C31.9821 19.2262 33.6741 18.7415 35.2393 19.1286C36.8046 19.5156 38.0271 20.7209 38.7093 22.434C39.3916 24.1472 39.5159 26.3367 38.89 28.5898C38.2641 30.8428 37.0175 32.6934 35.5324 33.8706C34.0472 35.0478 32.3553 35.5325 30.79 35.1454C29.2247 34.7584 28.0022 33.5531 27.32 31.84ZM30.5208 35.5241C26.9954 34.6524 25.3253 30.26 26.6313 25.5586C27.9373 20.8571 31.854 17.7526 35.3794 18.6243C38.9049 19.496 40.575 23.8884 39.269 28.5898C37.963 33.2913 34.0463 36.3958 30.5208 35.5241Z" fill="black"/>
<path d="M19.8832 25.7434C21.0227 29.8453 19.4534 33.6623 16.3411 34.4319C13.2288 35.2015 9.93596 32.5826 8.79649 28.4806C7.65701 24.3787 9.07227 20.4793 12.1846 19.7097C15.297 18.9401 18.7437 21.6415 19.8832 25.7434Z" fill="url(#paint1_linear_795_1737)"/>
<path fill-rule="evenodd" clip-rule="evenodd" d="M19.2071 31.2004C19.8076 29.7175 19.7266 27.6715 19.1843 25.7196C18.6421 23.7676 17.611 22.3682 16.3167 21.3538C15.0226 20.3396 13.6916 19.8774 12.3303 20.214C10.969 20.5506 9.90029 21.5908 9.29984 23.0734C8.69928 24.5564 8.72504 26.5605 9.26726 28.5125C9.80949 30.4644 10.896 32.0637 12.1903 33.0781C13.4843 34.0923 14.8153 34.3964 16.1766 34.0598C17.5379 33.7232 18.6066 32.6831 19.2071 31.2004ZM16.4216 34.5367C19.5339 33.7671 21.0283 29.8454 19.8889 25.7434C18.7494 21.6415 15.3026 18.9401 12.1903 19.7097C9.07791 20.4793 7.58351 24.4011 8.72298 28.503C9.86246 32.6049 13.3092 35.3063 16.4216 34.5367Z" fill="black"/>
<path fill-rule="evenodd" clip-rule="evenodd" d="M37.7988 27.975L37.8357 28.1891C37.9174 28.6505 37.9694 29.3711 37.7464 30.101C37.5219 30.8354 37.0453 31.4933 36.1763 31.9191L35.9009 32.054C35.0145 32.4883 34.3711 32.3097 33.9168 31.8051C33.4711 31.31 33.2538 30.5516 33.152 29.9768L33.1284 29.8434C33.0271 29.2712 32.9664 28.448 33.1824 27.6405C33.4022 26.819 33.8846 26.1005 34.7641 25.6695L35.0058 25.5511C35.8974 25.1142 36.5199 25.2256 36.9493 25.6235C37.3781 26.0209 37.5645 26.6578 37.6417 27.0935L37.6889 27.3604L35.9021 28.2291L35.8517 28.0316L35.8517 28.0315C35.8515 28.0306 35.8497 28.0242 35.8458 28.0139C35.8415 28.0022 35.8353 27.9873 35.8269 27.9709C35.8102 27.9383 35.7858 27.9011 35.7513 27.8702C35.6881 27.8136 35.5585 27.7491 35.3182 27.8669L35.2676 27.8917C35.0391 28.0036 34.9551 28.1807 34.9204 28.3343C34.8804 28.5112 34.8858 28.7464 34.9327 29.0111L34.9344 29.0206C34.98 29.2784 35.0582 29.4996 35.1599 29.6283C35.2499 29.7422 35.384 29.8177 35.602 29.7109L35.6526 29.6861C35.8934 29.5681 35.9743 29.3914 36.0049 29.2854C36.0222 29.2257 36.0292 29.1687 36.0313 29.1223C36.0332 29.0795 36.0307 29.0516 36.0303 29.0472L36.0053 28.874L37.7988 27.975Z" fill="black"/>
<path fill-rule="evenodd" clip-rule="evenodd" d="M13.4456 29.6199L13.4365 29.6719C13.3938 29.9153 13.2932 30.2494 12.9988 30.4908C12.7064 30.7307 12.2558 30.815 11.5643 30.5149L11.38 30.4349C10.703 30.1411 10.3168 29.5006 10.1243 28.9269C9.93234 28.3549 9.9437 27.735 10.0215 27.2247L10.0377 27.1185C10.1148 26.6129 10.2794 26.0607 10.6019 25.7111C10.9262 25.3596 11.3917 25.2327 12.0453 25.5163L12.2431 25.6022C12.9393 25.9044 13.325 26.3987 13.5048 27.0054C13.6831 27.607 13.6462 28.2784 13.5534 28.887L13.5061 29.1969L11.2187 28.2041C11.1599 28.5749 11.3692 29.0625 11.7067 29.2089C11.9198 29.3015 12.1713 29.3279 12.2962 29.1112L13.4456 29.6199ZM12.3912 27.4941C12.3896 27.4179 12.3777 27.3443 12.3505 27.2751C12.3023 27.1521 12.1935 27.0098 11.9533 26.9056C11.7596 26.8215 11.6321 26.8354 11.5448 26.8959C11.4924 26.9322 11.4488 26.9894 11.4113 27.0688L12.3912 27.4941Z" fill="black"/>
<path fill-rule="evenodd" clip-rule="evenodd" d="M27.0237 39.5399C27.3922 39.513 28.2534 39.2916 28.2213 38.9831C28.1891 38.6745 27.8643 38.6706 27.4958 38.6975C27.4788 38.6987 27.4281 38.7024 27.3954 38.7047C27.3301 38.7093 27.2351 38.7159 27.1173 38.7238C26.8816 38.7396 26.5548 38.7607 26.1905 38.7819C25.4558 38.8244 24.5901 38.8657 24.0081 38.8657C23.426 38.8657 22.5561 38.8244 21.8171 38.7818C21.4508 38.7607 20.8911 38.7138 20.6538 38.6979C20.5352 38.69 20.4396 38.6834 20.3738 38.6788C20.3409 38.6765 20.2898 38.6728 20.2726 38.6716C19.9041 38.6449 19.5795 38.649 19.5476 38.9576C19.5156 39.2661 20.5867 39.4984 20.9532 39.5399C23.2336 39.7985 24.7999 39.7899 27.0237 39.5399Z" fill="black"/>
<path d="M40.4461 24.0003C40.4461 14.9173 33.0829 7.5541 24 7.5541C14.9171 7.5541 7.55387 14.9173 7.55386 24.0003C7.55386 33.0833 14.9171 40.4465 24 40.4465V41.0004L23.8901 41C14.5518 40.9409 7 33.3525 7 24.0003C7.00001 14.6114 14.6112 7.00024 24 7.00024C33.3888 7.00024 41 14.6114 41 24.0003C41 33.3892 33.3888 41.0004 24 41.0004V40.4465C33.0829 40.4465 40.4461 33.0833 40.4461 24.0003Z" fill="black"/>
</g>
<defs>
<linearGradient id="paint0_linear_795_1737" x1="31.66" y1="23.6997" x2="36.5047" y2="39.2035" gradientUnits="userSpaceOnUse">
<stop offset="0.265" stop-color="white"/>
<stop offset="1" stop-color="#F0F0F0"/>
</linearGradient>
<linearGradient id="paint1_linear_795_1737" x1="15.4485" y1="24.1327" x2="11.2771" y2="37.7256" gradientUnits="userSpaceOnUse">
<stop offset="0.265" stop-color="white"/>
<stop offset="1" stop-color="#F0F0F0"/>
</linearGradient>
</defs>
</svg>
