<svg width="25" height="25" viewBox="0 0 25 25" fill="none" xmlns="http://www.w3.org/2000/svg">
<path fill-rule="evenodd" clip-rule="evenodd" d="M9.43951 12.569L1.98057 10.8753L2.326 9.35402L9.78866 11.0486L4.1744 5.85094L5.23419 4.7062L10.8436 9.89933L8.58204 2.59649L10.0722 2.13501L12.3349 9.44149L14.0286 1.98255L15.5499 2.32798L13.8556 9.78944L19.0547 4.17361L20.1994 5.23341L15.0034 10.846L22.3074 8.58403L22.7689 10.0742L15.4624 12.3369L22.9214 14.0306L22.5759 15.5519L15.1207 13.859L20.732 19.0539L19.6722 20.1986L14.0561 14.9993L16.3199 22.3094L14.8297 22.7709L12.567 15.4644L10.8733 22.9233L9.35204 22.5779L11.0452 15.1215L5.85172 20.7312L4.70698 19.6714L9.90345 14.0584L2.59451 16.3219L2.13303 14.8317L9.43951 12.569Z" fill="white"/>
</svg>
