<svg width="197" height="53" viewBox="0 0 197 53" fill="none" xmlns="http://www.w3.org/2000/svg">
<path d="M121.578 8.83451H137.774V17.4935C139.144 14.1715 140.98 11.8025 143.282 10.3866C145.584 8.91619 148.352 8.20822 151.586 8.26268V18.357V23.2934C150.839 23.2481 150.122 23.227 149.434 23.2298C145.983 23.2442 143.274 23.8644 141.309 25.0905C138.952 26.5065 137.774 28.7665 137.774 31.8707V51.5576H121.578V8.83451Z" fill="white"/>
<path fill-rule="evenodd" clip-rule="evenodd" d="M169.237 52.4621L194.995 38.4514L195.304 38.288C196.156 35.8931 196.582 33.2406 196.582 30.3304V29.6769C196.582 26.2459 195.952 23.169 194.691 20.4461C193.486 17.7231 191.814 15.4358 189.676 13.5842C187.539 11.6781 185.018 10.235 182.113 9.25472C179.208 8.22 176.084 7.70264 172.741 7.70264C169.342 7.70264 166.164 8.22 163.204 9.25472C160.299 10.2894 157.778 11.7871 155.64 13.7476C153.503 15.6537 151.804 17.9954 150.543 20.7728C149.337 23.4958 148.734 26.5999 148.734 30.0853V30.7388C148.734 34.2787 149.337 37.41 150.543 40.133C151.804 42.8015 153.503 45.0888 155.64 46.9948C157.833 48.8465 160.381 50.2624 163.286 51.2426C165.177 51.8452 167.16 52.2517 169.237 52.4621ZM172.741 40.7865C177.673 40.7865 180.14 37.3284 180.14 30.4121V29.8402C180.14 26.4638 179.537 23.9042 178.331 22.1615C177.125 20.4188 175.262 19.5475 172.741 19.5475C170.274 19.5475 168.383 20.3916 167.068 22.0798C165.752 23.7136 165.095 26.2187 165.095 29.5952V30.2487C165.095 37.2739 167.643 40.7865 172.741 40.7865Z" fill="white"/>
<path d="M62.6647 8.83993H46.4688V51.563H62.6647V27.9551C62.6647 25.3955 63.2128 23.5166 64.309 22.3185C65.4599 21.1204 67.0494 20.5214 69.0773 20.5214C70.9956 20.5214 72.3658 21.066 73.188 22.1552C74.0649 23.2443 74.5034 24.8781 74.5034 27.0565V51.4653L90.6993 42.6561V23.4622C90.6993 20.7937 90.3431 18.4792 89.6306 16.5187C88.9729 14.5581 88.0411 12.9244 86.8353 11.6173C85.6295 10.3103 84.1771 9.33006 82.478 8.67655C80.779 8.02304 78.9155 7.69629 76.8876 7.69629C73.2702 7.69629 70.2831 8.45872 67.9263 9.98357C65.6244 11.5084 63.8705 13.4145 62.6647 15.7018V8.83993Z" fill="white"/>
<path fill-rule="evenodd" clip-rule="evenodd" d="M18.6772 19.8923C19.4285 19.1672 20.6055 18.8046 22.2083 18.8046C23.3045 18.8046 24.1814 18.968 24.8391 19.2947C25.4968 19.567 25.9901 20.0027 26.319 20.6018C26.7026 21.1464 26.9493 21.7999 27.0589 22.5623C27.1685 23.3247 27.2233 24.1416 27.2233 25.0129V25.7481H23.5237C16.0697 25.7481 10.3422 26.8373 6.34121 29.0157C2.39499 31.1396 0.421875 34.7067 0.421875 39.7169C0.421875 42.0042 0.805536 43.9647 1.57286 45.5985C2.39499 47.2322 3.46376 48.5665 4.77916 49.6012C6.14938 50.6359 7.71143 51.3984 9.4653 51.8885C11.274 52.3786 13.1375 52.6237 15.0558 52.6237C16.8097 52.6237 18.3443 52.4331 19.6597 52.0519C21.0299 51.7251 22.2357 51.2894 23.2771 50.7448C24.3184 50.2003 25.1954 49.574 25.9079 48.866C26.6204 48.158 27.1959 47.4228 27.6344 46.6604V51.5617H43.2548V23.951C43.2548 18.3417 41.4736 14.2301 37.911 11.616C34.3484 8.94753 29.4431 7.61328 23.1949 7.61328C20.1256 7.61328 17.3029 7.94004 14.7269 8.59355C13.9594 8.79248 13.2224 9.02423 12.5159 9.28877L18.6772 19.8923ZM25.4146 40.4521C24.2636 41.3779 22.7564 41.8408 20.8929 41.8408C19.4131 41.8408 18.2895 41.5413 17.5222 40.9422C16.7549 40.3432 16.3712 39.5263 16.3712 38.4916C16.3712 36.9667 16.9193 35.9048 18.0155 35.3057C19.1116 34.7067 21.0299 34.4071 23.7704 34.4071H27.2233V36.6127C27.2233 38.192 26.6204 39.4718 25.4146 40.4521Z" fill="white"/>
<path d="M109.793 52.6247C104.696 52.6247 100.777 51.4266 98.0364 49.0304C95.296 46.6342 93.9258 42.7404 93.9258 37.349V0.180664H110.122V8.92134H118.343V23.5566H110.122V35.7969C110.122 37.2673 110.478 38.3292 111.191 38.9827C111.958 39.6362 112.999 39.963 114.315 39.963C115.74 39.963 117.082 39.7452 118.343 39.3095V51.3994C117.356 51.6717 116.123 51.944 114.643 52.2163C113.164 52.4886 111.547 52.6247 109.793 52.6247Z" fill="white"/>
</svg>
