<svg width="20" height="20" viewBox="0 0 20 20" fill="none" xmlns="http://www.w3.org/2000/svg">
<rect width="20" height="20" rx="10" fill="#C9C8CE"/>
<path fill-rule="evenodd" clip-rule="evenodd" d="M6.63371 6.63371C6.81199 6.45543 7.10105 6.45543 7.27933 6.63371L10 9.35438L12.7207 6.63371C12.899 6.45543 13.188 6.45543 13.3663 6.63371C13.5446 6.81199 13.5446 7.10105 13.3663 7.27933L10.6456 10L13.3663 12.7207C13.5446 12.899 13.5446 13.188 13.3663 13.3663C13.188 13.5446 12.899 13.5446 12.7207 13.3663L10 10.6456L7.27933 13.3663C7.10105 13.5446 6.81199 13.5446 6.63371 13.3663C6.45543 13.188 6.45543 12.899 6.63371 12.7207L9.35438 10L6.63371 7.27933C6.45543 7.10105 6.45543 6.81199 6.63371 6.63371Z" fill="white" stroke="white" stroke-width="0.4" stroke-linecap="round" stroke-linejoin="round"/>
</svg>
