<svg width="48" height="48" viewBox="0 0 48 48" fill="none" xmlns="http://www.w3.org/2000/svg">
<circle cx="24" cy="24" r="24" fill="#350027" fill-opacity="0.3"/>
<path fill-rule="evenodd" clip-rule="evenodd" d="M15.7856 23.846C20.1588 21.9468 23.0701 20.6848 24.532 20.0726C28.6927 18.3358 29.5674 18.0359 30.1296 18.0234C30.2546 18.0234 30.5295 18.0484 30.7169 18.1984C30.8668 18.3233 30.9043 18.4857 30.9293 18.6107C30.9543 18.7356 30.9793 18.998 30.9543 19.1979C30.7294 21.572 29.7548 27.3321 29.255 29.9809C29.0426 31.1055 28.6302 31.4803 28.2304 31.5178C27.3558 31.5928 26.6936 30.943 25.8564 30.3933C24.532 29.5311 23.7948 28.9939 22.5078 28.1442C21.0209 27.1696 21.983 26.6323 22.8327 25.7577C23.0576 25.5328 26.8935 22.0343 26.9684 21.7219C26.9809 21.6844 26.9809 21.5345 26.8935 21.4595C26.806 21.3845 26.6811 21.4095 26.5811 21.4345C26.4437 21.4595 24.3445 22.8589 20.2587 25.6203C19.659 26.0326 19.1217 26.2325 18.6344 26.22C18.0971 26.2075 17.0726 25.9201 16.2979 25.6702C15.3608 25.3704 14.6111 25.2079 14.6736 24.6832C14.711 24.4083 15.0859 24.1334 15.7856 23.846Z" fill="white"/>
</svg>
