<svg width="20" height="20" viewBox="0 0 20 20" fill="none" xmlns="http://www.w3.org/2000/svg">
<path fill-rule="evenodd" clip-rule="evenodd" d="M7.48886 10.0003L1.33203 8.35055L1.6685 7.09484L7.82839 8.74538L3.3201 4.23709L4.23933 3.31785L8.74374 7.82225L7.09484 1.6685L8.35055 1.33203L10.0003 7.48886L11.65 1.33203L12.9057 1.6685L11.2554 7.8274L15.765 3.31785L16.6842 4.23709L12.1773 8.744L18.332 7.09484L18.6685 8.35055L12.5117 10.0003L18.6685 11.65L18.332 12.9057L12.1783 11.2568L16.6842 15.7627L15.765 16.6819L11.2551 12.1721L12.9057 18.332L11.65 18.6685L10.0003 12.5117L8.35055 18.6685L7.09484 18.332L8.744 12.1773L4.23933 16.6819L3.3201 15.7627L7.8274 11.2554L1.6685 12.9057L1.33203 11.65L7.48886 10.0003Z" fill="white"/>
</svg>
