<svg width="42" height="42" viewBox="0 0 42 42" fill="none" xmlns="http://www.w3.org/2000/svg">
<rect width="42" height="42" rx="21" fill="#1B3C3C"/>
<path fill-rule="evenodd" clip-rule="evenodd" d="M15.4697 26.5304C15.1768 26.2375 15.1768 25.7627 15.4697 25.4698L19.9393 21.0001L15.4697 16.5304C15.1768 16.2375 15.1768 15.7627 15.4697 15.4698C15.7626 15.1769 16.2374 15.1769 16.5303 15.4698L21 19.9394L25.4697 15.4698C25.7626 15.1769 26.2374 15.1769 26.5303 15.4698C26.8232 15.7627 26.8232 16.2375 26.5303 16.5304L22.0607 21.0001L26.5303 25.4698C26.8232 25.7627 26.8232 26.2375 26.5303 26.5304C26.2374 26.8233 25.7626 26.8233 25.4697 26.5304L21 22.0608L16.5303 26.5304C16.2374 26.8233 15.7626 26.8233 15.4697 26.5304Z" fill="white"/>
</svg>
