<svg width="20" height="20" viewBox="0 0 20 20" fill="none" xmlns="http://www.w3.org/2000/svg">
<path d="M9.66278 2.28513C9.72854 1.90496 10.2715 1.90496 10.3372 2.28513L10.7814 4.85304C10.8342 5.15869 11.2308 5.24343 11.4028 4.98582L12.8476 2.82153C13.0615 2.5011 13.5574 2.72309 13.4637 3.09729L12.8304 5.62479C12.7551 5.92563 13.0831 6.16521 13.3444 6.00018L15.54 4.61373C15.865 4.40846 16.2283 4.81405 15.9913 5.11756L14.3901 7.16763C14.1995 7.41165 14.4023 7.76463 14.7078 7.72072L17.2745 7.35184C17.6545 7.29722 17.8222 7.81628 17.4829 7.99663L15.1907 9.21479C14.9178 9.35979 14.9602 9.76515 15.2571 9.84995L17.7511 10.5624C18.1204 10.6679 18.0636 11.2107 17.6806 11.2367L15.0937 11.4123C14.7858 11.4332 14.6605 11.8209 14.8974 12.0197L16.8876 13.6903C17.1822 13.9377 16.9108 14.4103 16.5504 14.2775L14.116 13.3802C13.8263 13.2734 13.555 13.5763 13.6909 13.8548L14.8331 16.1947C15.0022 16.5411 14.563 16.8619 14.2875 16.5932L12.4266 14.7782C12.2052 14.5622 11.8347 14.7279 11.8463 15.038L11.9429 17.6426C11.9572 18.0282 11.4262 18.1417 11.2832 17.7835L10.3177 15.3646C10.2027 15.0767 9.79727 15.0767 9.68234 15.3646L8.71679 17.7835C8.57384 18.1417 8.04278 18.0282 8.05709 17.6426L8.15375 15.038C8.16525 14.7279 7.79484 14.5622 7.57336 14.7782L5.71254 16.5932C5.43705 16.8619 4.99782 16.5411 5.16691 16.1947L6.30907 13.8548C6.44502 13.5763 6.17371 13.2734 5.88396 13.3802L3.44964 14.2775C3.08923 14.4103 2.81777 13.9377 3.11242 13.6903L5.10259 12.0197C5.33947 11.8209 5.21418 11.4332 4.90626 11.4123L2.31935 11.2367C1.93636 11.2107 1.87961 10.6679 2.24885 10.5624L4.74291 9.84995C5.03977 9.76515 5.08215 9.35979 4.80932 9.21479L2.51712 7.99663C2.17776 7.81628 2.34553 7.29722 2.72553 7.35184L5.29223 7.72072C5.59774 7.76463 5.80047 7.41165 5.60989 7.16763L4.00874 5.11756C3.77169 4.81405 4.13498 4.40846 4.46003 4.61372L6.65557 6.00018C6.9169 6.16521 7.24493 5.92563 7.16955 5.62479L6.53631 3.09729C6.44256 2.72309 6.93854 2.50111 7.15244 2.82153L8.59719 4.98582C8.76916 5.24343 9.16576 5.15869 9.21863 4.85304L9.66278 2.28513Z" fill="white"/>
</svg>
