<svg width="20" height="20" viewBox="0 0 20 20" fill="none" xmlns="http://www.w3.org/2000/svg">
<path fill-rule="evenodd" clip-rule="evenodd" d="M10.0965 2.00645C7.87162 2.00645 6.06797 3.8101 6.06797 6.03502V6.97142V7.31836H5.33333C3.49238 7.31836 2 8.81075 2 10.6517V16.9374C2 17.3056 2.29848 17.6041 2.66667 17.6041H17.3333C17.7015 17.6041 18 17.3056 18 16.9374V7.98503C18 7.61684 17.7015 7.31836 17.3333 7.31836H14.1251V6.97142V6.03502C14.1251 3.8101 12.3215 2.00645 10.0965 2.00645ZM12.9251 7.31836V6.97142V6.03502C12.9251 4.47284 11.6587 3.20645 10.0965 3.20645C8.53436 3.20645 7.26797 4.47284 7.26797 6.03502V6.97142V7.31836H12.9251Z" fill="white"/>
</svg>
