<svg width="20" height="20" viewBox="0 0 20 20" fill="none" xmlns="http://www.w3.org/2000/svg">
<path fill-rule="evenodd" clip-rule="evenodd" d="M2.43597 4.18404C2 5.03969 2 6.15979 2 8.4V11.6C2 13.8402 2 14.9603 2.43597 15.816C2.81947 16.5686 3.43139 17.1805 4.18404 17.564C5.03969 18 6.15979 18 8.4 18H11.6C13.8402 18 14.9603 18 15.816 17.564C16.5686 17.1805 17.1805 16.5686 17.564 15.816C18 14.9603 18 13.8402 18 11.6V8.4C18 6.15979 18 5.03969 17.564 4.18404C17.1805 3.43139 16.5686 2.81947 15.816 2.43597C14.9603 2 13.8402 2 11.6 2H8.4C6.15979 2 5.03969 2 4.18404 2.43597C3.43139 2.81947 2.81947 3.43139 2.43597 4.18404ZM11 7C11 6.44772 10.5523 6 10 6C9.44772 6 9 6.44772 9 7V13C9 13.5523 9.44772 14 10 14C10.5523 14 11 13.5523 11 13V7Z" fill="white"/>
</svg>
