<svg width="20" height="20" viewBox="0 0 20 20" fill="none" xmlns="http://www.w3.org/2000/svg">
<path d="M15.9244 7.43985C14.5105 7.43985 12.0844 8.586 12.0844 9.99985C12.0844 11.4137 14.5105 12.5598 15.9244 12.5598C17.3382 12.5598 18.4844 11.4137 18.4844 9.99985C18.4844 8.586 17.3382 7.43985 15.9244 7.43985Z" fill="white"/>
<path d="M12.5591 15.9257C12.5591 14.5118 11.4129 12.0857 9.99909 12.0857C8.58524 12.0857 7.43909 14.5118 7.43909 15.9257C7.43909 17.3395 8.58524 18.4857 9.99909 18.4857C11.4129 18.4857 12.5591 17.3395 12.5591 15.9257Z" fill="white"/>
<path d="M4.07312 7.43968C5.48697 7.43968 7.91312 8.58583 7.91312 9.99968C7.91312 11.4135 5.48697 12.5597 4.07312 12.5597C2.65927 12.5597 1.51312 11.4135 1.51312 9.99968C1.51312 8.58584 2.65927 7.43968 4.07312 7.43968Z" fill="white"/>
<path d="M12.5587 4.07414C12.5587 5.48799 11.4125 7.91414 9.99867 7.91414C8.58482 7.91414 7.43867 5.48799 7.43867 4.07414C7.43867 2.66029 8.58482 1.51414 9.99867 1.51414C11.4125 1.51414 12.5587 2.66029 12.5587 4.07414Z" fill="white"/>
</svg>
