<svg width="20" height="20" viewBox="0 0 20 20" fill="none" xmlns="http://www.w3.org/2000/svg">
<path d="M7.97308 16.2782C7.25288 17.6369 6.30962 18.4167 5.38461 18.4167C4.45962 18.4167 3.51635 17.6369 2.79615 16.2782C2.33056 15.3695 1.99873 14.3947 1.81154 13.3856C2.28018 13.6036 2.79443 13.6972 3.30729 13.6579C3.82015 13.6186 4.31525 13.4476 4.74735 13.1606C5.17945 12.8736 5.53475 12.4797 5.78077 12.0149C6.0268 11.5501 6.1557 11.0293 6.1557 10.5C6.1557 9.97072 6.0268 9.44988 5.78077 8.9851C5.53475 8.52031 5.17945 8.1264 4.74735 7.83938C4.31525 7.55236 3.82015 7.38138 3.30729 7.34208C2.79443 7.30277 2.28018 7.39639 1.81154 7.61437C1.99873 6.60532 2.33056 5.6305 2.79615 4.72182C3.51635 3.36313 4.45962 2.58333 5.38461 2.58333C6.30962 2.58333 7.25288 3.36313 7.97308 4.72182C8.78365 6.25172 9.23077 8.30411 9.23077 10.5C9.23077 12.6959 8.78365 14.7483 7.97308 16.2782Z" fill="white"/>
<path d="M17.2038 16.2782C16.4837 17.6369 15.5404 18.4167 14.6154 18.4167C13.6904 18.4167 12.7471 17.6369 12.0269 16.2782C11.5613 15.3695 11.2295 14.3947 11.0423 13.3856C11.5109 13.6036 12.0252 13.6972 12.5381 13.6579C13.0509 13.6186 13.546 13.4476 13.9781 13.1606C14.4102 12.8736 14.7655 12.4797 15.0115 12.0149C15.2576 11.5501 15.3865 11.0293 15.3865 10.5C15.3865 9.97072 15.2576 9.44988 15.0115 8.9851C14.7655 8.52031 14.4102 8.1264 13.9781 7.83938C13.546 7.55236 13.0509 7.38138 12.5381 7.34208C12.0252 7.30277 11.5109 7.39639 11.0423 7.61437C11.2295 6.60532 11.5613 5.6305 12.0269 4.72182C12.7471 3.36313 13.6904 2.58333 14.6154 2.58333C15.5404 2.58333 16.4837 3.36313 17.2038 4.72182C18.0144 6.25172 18.4615 8.30411 18.4615 10.5C18.4615 12.6959 18.0144 14.7483 17.2038 16.2782Z" fill="white"/>
</svg>
