<svg width="20" height="20" viewBox="0 0 20 20" fill="none" xmlns="http://www.w3.org/2000/svg">
<path fill-rule="evenodd" clip-rule="evenodd" d="M11.8057 0.747625C10.7985 -0.226788 9.19992 -0.226788 8.19267 0.747625C7.61669 1.30484 6.81579 1.56507 6.02228 1.45283C4.63465 1.25656 3.34141 2.19615 3.09928 3.57651C2.96082 4.36587 2.46583 5.04715 1.7579 5.42276C0.519923 6.0796 0.0259494 7.5999 0.641414 8.85896C0.993365 9.57894 0.993364 10.4211 0.641414 11.141C0.0259492 12.4001 0.519924 13.9204 1.7579 14.5772C2.46583 14.9528 2.96082 15.6341 3.09928 16.4235C3.34141 17.8038 4.63465 18.7434 6.02228 18.5472C6.81579 18.4349 7.61669 18.6952 8.19267 19.2524C9.19992 20.2268 10.7985 20.2268 11.8057 19.2524C12.3817 18.6952 13.1826 18.4349 13.9761 18.5472C15.3637 18.7434 16.657 17.8038 16.8991 16.4235C17.0376 15.6341 17.5325 14.9528 18.2405 14.5772C19.4785 13.9204 19.9724 12.4001 19.357 11.141C19.005 10.4211 19.005 9.57894 19.357 8.85896C19.9724 7.5999 19.4785 6.0796 18.2405 5.42276C17.5325 5.04715 17.0376 4.36587 16.8991 3.57651C16.657 2.19615 15.3637 1.25656 13.9761 1.45283C13.1826 1.56507 12.3817 1.30484 11.8057 0.747625ZM3.74919 10C3.74919 6.54822 6.54741 3.75 9.99919 3.75C13.451 3.75 16.2492 6.54822 16.2492 10C16.2492 13.4518 13.451 16.25 9.99919 16.25C6.54741 16.25 3.74919 13.4518 3.74919 10ZM9.99919 2.25C5.71898 2.25 2.24919 5.71979 2.24919 10C2.24919 14.2802 5.71898 17.75 9.99919 17.75C14.2794 17.75 17.7492 14.2802 17.7492 10C17.7492 5.71979 14.2794 2.25 9.99919 2.25Z" fill="white"/>
</svg>
