<svg width="770" height="660" viewBox="0 0 770 660" fill="none" xmlns="http://www.w3.org/2000/svg">
<path d="M0 80C0 51.9974 0 37.9961 5.44967 27.3005C10.2433 17.8924 17.8924 10.2433 27.3005 5.44967C37.9961 0 51.9974 0 80 0H690C718.003 0 732.004 0 742.7 5.44967C752.108 10.2433 759.757 17.8924 764.55 27.3005C770 37.9961 770 51.9974 770 80V580C770 608.003 770 622.004 764.55 632.7C759.757 642.108 752.108 649.757 742.7 654.55C732.004 660 718.003 660 690 660H80C51.9974 660 37.9961 660 27.3005 654.55C17.8924 649.757 10.2433 642.108 5.44967 632.7C0 622.004 0 608.003 0 580V80Z" fill="black"/>
</svg>
