<svg width="600" height="430" viewBox="0 0 600 430" fill="none" xmlns="http://www.w3.org/2000/svg">
<path d="M0 60.8C0 39.518 0 28.877 4.77894 20.7484C8.98262 13.5982 15.6902 7.78494 23.9404 4.14175C33.3196 0 45.5977 0 70.1538 0H529.846C554.402 0 566.68 0 576.06 4.14175C584.31 7.78494 591.017 13.5982 595.221 20.7484C600 28.877 600 39.518 600 60.8V369.2C600 390.482 600 401.123 595.221 409.252C591.017 416.402 584.31 422.215 576.06 425.858C566.68 430 554.402 430 529.846 430H70.1538C45.5977 430 33.3196 430 23.9404 425.858C15.6902 422.215 8.98262 416.402 4.77894 409.252C0 401.123 0 390.482 0 369.2V60.8Z" fill="black"/>
</svg>
