<svg width="745" height="533" viewBox="0 0 745 533" fill="none" xmlns="http://www.w3.org/2000/svg">
<path d="M0 80C0 51.9974 0 37.9961 5.44967 27.3005C10.2433 17.8924 17.8924 10.2433 27.3005 5.44967C37.9961 0 51.9974 0 80 0H665C693.003 0 707.004 0 717.7 5.44967C727.108 10.2433 734.757 17.8924 739.55 27.3005C745 37.9961 745 51.9974 745 80V453C745 481.003 745 495.004 739.55 505.7C734.757 515.108 727.108 522.757 717.7 527.55C707.004 533 693.003 533 665 533H80C51.9974 533 37.9961 533 27.3005 527.55C17.8924 522.757 10.2433 515.108 5.44967 505.7C0 495.004 0 481.003 0 453V80Z" fill="black"/>
</svg>
