<svg width="581" height="463" viewBox="0 0 581 463" fill="none" xmlns="http://www.w3.org/2000/svg">
<path d="M0 60.8C0 39.518 0 28.877 4.75565 20.7484C8.93883 13.5982 15.6137 7.78494 23.8237 4.14175C33.1572 0 45.3754 0 69.8119 0H511.188C535.625 0 547.843 0 557.176 4.14175C565.386 7.78494 572.061 13.5982 576.244 20.7484C581 28.877 581 39.518 581 60.8V402.2C581 423.482 581 434.123 576.244 442.252C572.061 449.402 565.386 455.215 557.176 458.858C547.843 463 535.625 463 511.188 463H69.8118C45.3754 463 33.1572 463 23.8237 458.858C15.6137 455.215 8.93883 449.402 4.75565 442.252C0 434.123 0 423.482 0 402.2V60.8Z" fill="black"/>
</svg>
