<svg width="343" height="458" viewBox="0 0 343 458" fill="none" xmlns="http://www.w3.org/2000/svg">
<path d="M0 48C0 31.1984 0 22.7976 3.2698 16.3803C6.14601 10.7354 10.7354 6.14601 16.3803 3.2698C22.7976 0 31.1984 0 48 0H295C311.802 0 320.202 0 326.62 3.2698C332.265 6.14601 336.854 10.7354 339.73 16.3803C343 22.7976 343 31.1984 343 48V410C343 426.802 343 435.202 339.73 441.62C336.854 447.265 332.265 451.854 326.62 454.73C320.202 458 311.802 458 295 458H48C31.1984 458 22.7976 458 16.3803 454.73C10.7354 451.854 6.14601 447.265 3.2698 441.62C0 435.202 0 426.802 0 410V48Z" fill="black"/>
</svg>
