<svg width="1740" height="1360" fill="none" xmlns="http://www.w3.org/2000/svg">
<path d="M0 96C0 62.3968 0 45.5953 6.53961 32.7606C12.292 21.4708 21.4708 12.292 32.7606 6.53961C45.5953 0 62.3969 0 96 0H1644C1677.6 0 1694.4 0 1707.24 6.53961C1718.53 12.292 1727.71 21.4708 1733.46 32.7606C1740 45.5953 1740 62.3969 1740 96V1264C1740 1297.6 1740 1314.4 1733.46 1327.24C1727.71 1338.53 1718.53 1347.71 1707.24 1353.46C1694.4 1360 1677.6 1360 1644 1360H96.0001C62.3969 1360 45.5953 1360 32.7606 1353.46C21.4708 1347.71 12.292 1338.53 6.53961 1327.24C0 1314.4 0 1297.6 0 1264V96Z" fill="black"/>
</svg>
