<svg width="1248" height="1000" viewBox="0 0 1248 1000" fill="none" xmlns="http://www.w3.org/2000/svg">
<path d="M0 70.4C0 45.7577 0 33.4365 4.79571 24.0244C9.01414 15.7453 15.7453 9.01414 24.0244 4.79571C33.4365 0 45.7577 0 70.4 0H1177.6C1202.24 0 1214.56 0 1223.98 4.79571C1232.25 9.01414 1238.99 15.7453 1243.2 24.0244C1248 33.4365 1248 45.7577 1248 70.4V929.6C1248 954.242 1248 966.563 1243.2 975.976C1238.99 984.255 1232.25 990.986 1223.98 995.204C1214.56 1000 1202.24 1000 1177.6 1000H70.4C45.7577 1000 33.4365 1000 24.0244 995.204C15.7453 990.986 9.01414 984.255 4.79571 975.976C0 966.563 0 954.242 0 929.6V70.4Z" fill="black"/>
</svg>
