<svg width="375" height="1382" viewBox="0 0 375 1382" fill="none" xmlns="http://www.w3.org/2000/svg">
<path d="M0 64C0 41.5979 0 30.3968 4.35974 21.8404C8.19467 14.3139 14.3139 8.19467 21.8404 4.35974C30.3968 0 41.5979 0 64 0H311C333.402 0 344.603 0 353.16 4.35974C360.686 8.19467 366.805 14.3139 370.64 21.8404C375 30.3968 375 41.5979 375 64V1318C375 1340.4 375 1351.6 370.64 1360.16C366.805 1367.69 360.686 1373.81 353.16 1377.64C344.603 1382 333.402 1382 311 1382H64C41.5979 1382 30.3968 1382 21.8404 1377.64C14.3139 1373.81 8.19467 1367.69 4.35974 1360.16C0 1351.6 0 1340.4 0 1318V64Z" fill="black"/>
</svg>
