<svg width="1408" height="873" viewBox="0 0 1408 873" fill="none" xmlns="http://www.w3.org/2000/svg">
<path d="M0 70.4C0 45.7577 0 33.4365 4.79571 24.0244C9.01414 15.7453 15.7453 9.01414 24.0244 4.79571C33.4365 0 45.7577 0 70.4 0H1337.6C1362.24 0 1374.56 0 1383.98 4.79571C1392.25 9.01414 1398.99 15.7453 1403.2 24.0244C1408 33.4365 1408 45.7577 1408 70.4V802.6C1408 827.242 1408 839.563 1403.2 848.976C1398.99 857.255 1392.25 863.986 1383.98 868.204C1374.56 873 1362.24 873 1337.6 873H70.4C45.7577 873 33.4365 873 24.0244 868.204C15.7453 863.986 9.01414 857.255 4.79571 848.976C0 839.563 0 827.242 0 802.6V70.4Z" fill="black"/>
</svg>
