<svg width="1408" height="1272" viewBox="0 0 1408 1272" fill="none" xmlns="http://www.w3.org/2000/svg">
<path d="M0 70.4001C0 45.7577 0 33.4365 4.79571 24.0244C9.01414 15.7453 15.7453 9.01414 24.0244 4.79571C33.4365 0 45.7577 0 70.4 0H1337.6C1362.24 0 1374.56 0 1383.98 4.79571C1392.25 9.01414 1398.99 15.7453 1403.2 24.0244C1408 33.4365 1408 45.7577 1408 70.4V1201.6C1408 1226.24 1408 1238.56 1403.2 1247.98C1398.99 1256.25 1392.25 1262.99 1383.98 1267.2C1374.56 1272 1362.24 1272 1337.6 1272H70.4C45.7577 1272 33.4365 1272 24.0244 1267.2C15.7453 1262.99 9.01414 1256.25 4.79571 1247.98C0 1238.56 0 1226.24 0 1201.6V70.4001Z" fill="black"/>
</svg>
