<svg width="1408" height="1217" viewBox="0 0 1408 1217" fill="none" xmlns="http://www.w3.org/2000/svg">
<path d="M0 70.4C0 45.7577 0 33.4365 4.79571 24.0244C9.01414 15.7453 15.7453 9.01414 24.0244 4.79571C33.4365 0 45.7577 0 70.4 0H1337.6C1362.24 0 1374.56 0 1383.98 4.79571C1392.25 9.01414 1398.99 15.7453 1403.2 24.0244C1408 33.4365 1408 45.7577 1408 70.4V1146.6C1408 1171.24 1408 1183.56 1403.2 1192.98C1398.99 1201.25 1392.25 1207.99 1383.98 1212.2C1374.56 1217 1362.24 1217 1337.6 1217H70.4C45.7577 1217 33.4365 1217 24.0244 1212.2C15.7453 1207.99 9.01414 1201.25 4.79571 1192.98C0 1183.56 0 1171.24 0 1146.6V70.4Z" fill="black"/>
</svg>
