<svg width="1740" height="1690" viewBox="0 0 1740 1690" fill="none" xmlns="http://www.w3.org/2000/svg">
<path d="M0 96C0 62.3968 0 45.5953 6.53961 32.7606C12.292 21.4708 21.4708 12.292 32.7606 6.53961C45.5953 0 62.3969 0 96 0H1644C1677.6 0 1694.4 0 1707.24 6.53961C1718.53 12.292 1727.71 21.4708 1733.46 32.7606C1740 45.5953 1740 62.3969 1740 96V1594C1740 1627.6 1740 1644.4 1733.46 1657.24C1727.71 1668.53 1718.53 1677.71 1707.24 1683.46C1694.4 1690 1677.6 1690 1644 1690H96.0001C62.3969 1690 45.5953 1690 32.7606 1683.46C21.4708 1677.71 12.292 1668.53 6.53961 1657.24C0 1644.4 0 1627.6 0 1594V96Z" fill="black"/>
</svg>
