<svg width="375" height="1817" viewBox="0 0 375 1817" fill="none" xmlns="http://www.w3.org/2000/svg">
<path d="M0 64C0 41.5979 0 30.3968 4.35974 21.8404C8.19467 14.3139 14.3139 8.19467 21.8404 4.35974C30.3968 0 41.5979 0 64 0H311C333.402 0 344.603 0 353.16 4.35974C360.686 8.19467 366.805 14.3139 370.64 21.8404C375 30.3968 375 41.5979 375 64V1753C375 1775.4 375 1786.6 370.64 1795.16C366.805 1802.69 360.686 1808.81 353.16 1812.64C344.603 1817 333.402 1817 311 1817H64C41.5979 1817 30.3968 1817 21.8404 1812.64C14.3139 1808.81 8.19467 1802.69 4.35974 1795.16C0 1786.6 0 1775.4 0 1753V64Z" fill="black"/>
</svg>
