<svg width="1408" height="1243" viewBox="0 0 1408 1243" fill="none" xmlns="http://www.w3.org/2000/svg">
<path d="M0 71.904C0 46.7353 0 34.1508 4.79571 24.5377C9.01414 16.0817 15.7453 9.20672 24.0244 4.89817C33.4365 0 45.7577 0 70.4 0H1337.6C1362.24 0 1374.56 0 1383.98 4.89817C1392.25 9.20672 1398.99 16.0817 1403.2 24.5377C1408 34.1508 1408 46.7353 1408 71.904V1171.1C1408 1196.26 1408 1208.85 1403.2 1218.47C1398.99 1226.91 1392.25 1233.8 1383.98 1238.1C1374.56 1243 1362.24 1243 1337.6 1243H70.4C45.7577 1243 33.4365 1243 24.0244 1238.1C15.7453 1233.8 9.01414 1226.91 4.79571 1218.47C0 1208.85 0 1196.26 0 1171.1V71.904Z" fill="black"/>
</svg>
