<svg width="375" height="829" viewBox="0 0 375 829" fill="none" xmlns="http://www.w3.org/2000/svg">
<path d="M0 64C0 41.5979 0 30.3968 4.35974 21.8404C8.19467 14.3139 14.3139 8.19467 21.8404 4.35974C30.3968 0 41.5979 0 64 0H311C333.402 0 344.603 0 353.16 4.35974C360.686 8.19467 366.805 14.3139 370.64 21.8404C375 30.3968 375 41.5979 375 64V765C375 787.402 375 798.603 370.64 807.16C366.805 814.686 360.686 820.805 353.16 824.64C344.603 829 333.402 829 311 829H64C41.5979 829 30.3968 829 21.8404 824.64C14.3139 820.805 8.19467 814.686 4.35974 807.16C0 798.603 0 787.402 0 765V64Z" fill="black"/>
</svg>
