<svg width="375" height="1517" viewBox="0 0 375 1517" fill="none" xmlns="http://www.w3.org/2000/svg">
<path d="M0 64C0 41.5979 0 30.3968 4.35974 21.8404C8.19467 14.3139 14.3139 8.19467 21.8404 4.35974C30.3968 0 41.5979 0 64 0H311C333.402 0 344.603 0 353.16 4.35974C360.686 8.19467 366.805 14.3139 370.64 21.8404C375 30.3968 375 41.5979 375 64V1453C375 1475.4 375 1486.6 370.64 1495.16C366.805 1502.69 360.686 1508.81 353.16 1512.64C344.603 1517 333.402 1517 311 1517H64C41.5979 1517 30.3968 1517 21.8404 1512.64C14.3139 1508.81 8.19467 1502.69 4.35974 1495.16C0 1486.6 0 1475.4 0 1453V64Z" fill="black"/>
</svg>
