<svg width="550" height="350" viewBox="0 0 550 350" fill="none" xmlns="http://www.w3.org/2000/svg">
<path d="M0 60.8C0 39.518 0 28.877 4.14175 20.7484C7.78494 13.5982 13.5982 7.78494 20.7484 4.14175C28.877 0 39.518 0 60.8 0H489.2C510.482 0 521.123 0 529.252 4.14175C536.402 7.78494 542.215 13.5982 545.858 20.7484C550 28.877 550 39.518 550 60.8V289.2C550 310.482 550 321.123 545.858 329.252C542.215 336.402 536.402 342.215 529.252 345.858C521.123 350 510.482 350 489.2 350H60.8C39.518 350 28.877 350 20.7484 345.858C13.5982 342.215 7.78494 336.402 4.14175 329.252C0 321.123 0 310.482 0 289.2V60.8Z" fill="black"/>
</svg>
