<svg width="600" height="330" viewBox="0 0 600 330" fill="none" xmlns="http://www.w3.org/2000/svg">
<path d="M0 60.8C0 39.518 0 28.877 4.14175 20.7484C7.78494 13.5982 13.5982 7.78494 20.7484 4.14175C28.877 0 39.518 0 60.8 0H539.2C560.482 0 571.123 0 579.252 4.14175C586.402 7.78494 592.215 13.5982 595.858 20.7484C600 28.877 600 39.518 600 60.8V269.2C600 290.482 600 301.123 595.858 309.252C592.215 316.402 586.402 322.215 579.252 325.858C571.123 330 560.482 330 539.2 330H60.8C39.518 330 28.877 330 20.7484 325.858C13.5982 322.215 7.78494 316.402 4.14175 309.252C0 301.123 0 290.482 0 269.2V60.8Z" fill="black"/>
</svg>
