<svg width="343" height="230" viewBox="0 0 343 230" fill="none" xmlns="http://www.w3.org/2000/svg">
<path d="M0 48C0 31.1984 0 22.7976 3.2698 16.3803C6.14601 10.7354 10.7354 6.14601 16.3803 3.2698C22.7976 0 31.1984 0 48 0H295C311.802 0 320.202 0 326.62 3.2698C332.265 6.14601 336.854 10.7354 339.73 16.3803C343 22.7976 343 31.1984 343 48V182C343 198.802 343 207.202 339.73 213.62C336.854 219.265 332.265 223.854 326.62 226.73C320.202 230 311.802 230 295 230H48C31.1984 230 22.7976 230 16.3803 226.73C10.7354 223.854 6.14601 219.265 3.2698 213.62C0 207.202 0 198.802 0 182V48Z" fill="black"/>
</svg>
