<svg width="1408" height="600" viewBox="0 0 1408 600" fill="none" xmlns="http://www.w3.org/2000/svg">
<path d="M0 60.8C0 39.518 0 28.877 4.14175 20.7484C7.78494 13.5982 13.5982 7.78494 20.7484 4.14175C28.877 0 39.518 0 60.8 0H1347.2C1368.48 0 1379.12 0 1387.25 4.14175C1394.4 7.78494 1400.22 13.5982 1403.86 20.7484C1408 28.877 1408 39.518 1408 60.8V539.2C1408 560.482 1408 571.123 1403.86 579.252C1400.22 586.402 1394.4 592.215 1387.25 595.858C1379.12 600 1368.48 600 1347.2 600H60.8C39.518 600 28.877 600 20.7484 595.858C13.5982 592.215 7.78494 586.402 4.14175 579.252C0 571.123 0 560.482 0 539.2V60.8Z" fill="black"/>
</svg>
