<svg width="718" height="500" viewBox="0 0 718 500" fill="none" xmlns="http://www.w3.org/2000/svg">
<path d="M0 80C0 51.9974 0 37.9961 5.44967 27.3005C10.2433 17.8924 17.8924 10.2433 27.3005 5.44967C37.9961 0 51.9974 0 80 0H638C666.003 0 680.004 0 690.7 5.44967C700.108 10.2433 707.757 17.8924 712.55 27.3005C718 37.9961 718 51.9974 718 80V420C718 448.003 718 462.004 712.55 472.7C707.757 482.108 700.108 489.757 690.7 494.55C680.004 500 666.003 500 638 500H80C51.9974 500 37.9961 500 27.3005 494.55C17.8924 489.757 10.2433 482.108 5.44967 472.7C0 462.004 0 448.003 0 420V80Z" fill="black"/>
</svg>
