<svg width="1740" height="800" viewBox="0 0 1740 800" fill="none" xmlns="http://www.w3.org/2000/svg">
<path d="M0 80C0 51.9974 0 37.9961 5.44967 27.3005C10.2433 17.8924 17.8924 10.2433 27.3005 5.44967C37.9961 0 51.9974 0 80 0H1660C1688 0 1702 0 1712.7 5.44967C1722.11 10.2433 1729.76 17.8924 1734.55 27.3005C1740 37.9961 1740 51.9974 1740 80V720C1740 748.003 1740 762.004 1734.55 772.7C1729.76 782.108 1722.11 789.757 1712.7 794.55C1702 800 1688 800 1660 800H80C51.9974 800 37.9961 800 27.3005 794.55C17.8924 789.757 10.2433 782.108 5.44967 772.7C0 762.004 0 748.003 0 720V80Z" fill="black"/>
</svg>
