<svg width="770" height="500" viewBox="0 0 770 500" fill="none" xmlns="http://www.w3.org/2000/svg">
<path d="M0 80C0 51.9974 0 37.9961 5.44967 27.3005C10.2433 17.8924 17.8924 10.2433 27.3005 5.44967C37.9961 0 51.9974 0 80 0H690C718.003 0 732.004 0 742.7 5.44967C752.108 10.2433 759.757 17.8924 764.55 27.3005C770 37.9961 770 51.9974 770 80V420C770 448.003 770 462.004 764.55 472.7C759.757 482.108 752.108 489.757 742.7 494.55C732.004 500 718.003 500 690 500H80C51.9974 500 37.9961 500 27.3005 494.55C17.8924 489.757 10.2433 482.108 5.44967 472.7C0 462.004 0 448.003 0 420V80Z" fill="black"/>
</svg>
