<svg width="600" height="430" viewBox="0 0 600 430" fill="none" xmlns="http://www.w3.org/2000/svg">
<path d="M0 60.8C0 39.518 0 28.877 4.14175 20.7484C7.78494 13.5982 13.5982 7.78494 20.7484 4.14175C28.877 0 39.518 0 60.8 0H539.2C560.482 0 571.123 0 579.252 4.14175C586.402 7.78494 592.215 13.5982 595.858 20.7484C600 28.877 600 39.518 600 60.8V369.2C600 390.482 600 401.123 595.858 409.252C592.215 416.402 586.402 422.215 579.252 425.858C571.123 430 560.482 430 539.2 430H60.8C39.518 430 28.877 430 20.7484 425.858C13.5982 422.215 7.78494 416.402 4.14175 409.252C0 401.123 0 390.482 0 369.2V60.8Z" fill="black"/>
</svg>
