<svg width="550" height="430" viewBox="0 0 550 430" fill="none" xmlns="http://www.w3.org/2000/svg">
<path d="M0 60.8C0 39.518 0 28.877 4.14175 20.7484C7.78494 13.5982 13.5982 7.78494 20.7484 4.14175C28.877 0 39.518 0 60.8 0H489.2C510.482 0 521.123 0 529.252 4.14175C536.402 7.78494 542.215 13.5982 545.858 20.7484C550 28.877 550 39.518 550 60.8V369.2C550 390.482 550 401.123 545.858 409.252C542.215 416.402 536.402 422.215 529.252 425.858C521.123 430 510.482 430 489.2 430H60.8C39.518 430 28.877 430 20.7484 425.858C13.5982 422.215 7.78494 416.402 4.14175 409.252C0 401.123 0 390.482 0 369.2V60.8Z" fill="black"/>
</svg>
