<svg width="718" height="660" viewBox="0 0 718 660" fill="none" xmlns="http://www.w3.org/2000/svg">
<path d="M0 80C0 51.9974 0 37.9961 5.44967 27.3005C10.2433 17.8924 17.8924 10.2433 27.3005 5.44967C37.9961 0 51.9974 0 80 0H638C666.003 0 680.004 0 690.7 5.44967C700.108 10.2433 707.757 17.8924 712.55 27.3005C718 37.9961 718 51.9974 718 80V580C718 608.003 718 622.004 712.55 632.7C707.757 642.108 700.108 649.757 690.7 654.55C680.004 660 666.003 660 638 660H80C51.9974 660 37.9961 660 27.3005 654.55C17.8924 649.757 10.2433 642.108 5.44967 632.7C0 622.004 0 608.003 0 580V80Z" fill="black"/>
</svg>
