<svg width="343" height="280" viewBox="0 0 343 280" fill="none" xmlns="http://www.w3.org/2000/svg">
<path d="M0 48C0 31.1984 0 22.7976 3.2698 16.3803C6.14601 10.7354 10.7354 6.14601 16.3803 3.2698C22.7976 0 31.1984 0 48 0H295C311.802 0 320.202 0 326.62 3.2698C332.265 6.14601 336.854 10.7354 339.73 16.3803C343 22.7976 343 31.1984 343 48V232C343 248.802 343 257.202 339.73 263.62C336.854 269.265 332.265 273.854 326.62 276.73C320.202 280 311.802 280 295 280H48C31.1984 280 22.7976 280 16.3803 276.73C10.7354 273.854 6.14601 269.265 3.2698 263.62C0 257.202 0 248.802 0 232V48Z" fill="black"/>
</svg>
