<svg width="26" height="26" viewBox="0 0 26 26" fill="none" xmlns="http://www.w3.org/2000/svg">
<path d="M22.4563 3.54443H3.54723C2.24723 3.54443 1.19541 4.60807 1.19541 5.90807L1.18359 20.0899C1.18359 21.3899 2.24723 22.4535 3.54723 22.4535H22.4563C23.7563 22.4535 24.82 21.3899 24.82 20.0899V5.90807C24.82 4.60807 23.7563 3.54443 22.4563 3.54443ZM21.9836 8.56716L13.6281 13.7908C13.25 14.0272 12.7536 14.0272 12.3754 13.7908L4.01996 8.56716C3.90145 8.50064 3.79768 8.41076 3.71492 8.30297C3.63215 8.19518 3.57212 8.07172 3.53846 7.94005C3.50479 7.80839 3.49819 7.67127 3.51905 7.53698C3.53992 7.40269 3.58781 7.27403 3.65984 7.15879C3.73186 7.04355 3.82652 6.94412 3.93809 6.86652C4.04965 6.78892 4.17581 6.73477 4.30891 6.70733C4.44201 6.6799 4.57929 6.67976 4.71245 6.70692C4.84561 6.73408 4.97187 6.78797 5.08359 6.86534L13.0018 11.8172L20.92 6.86534C21.0317 6.78797 21.1579 6.73408 21.2911 6.70692C21.4243 6.67976 21.5615 6.6799 21.6946 6.70733C21.8277 6.73477 21.9539 6.78892 22.0655 6.86652C22.177 6.94412 22.2717 7.04355 22.3437 7.15879C22.4157 7.27403 22.4636 7.40269 22.4845 7.53698C22.5054 7.67127 22.4988 7.80839 22.4651 7.94005C22.4314 8.07172 22.3714 8.19518 22.2886 8.30297C22.2059 8.41076 22.1021 8.50064 21.9836 8.56716Z" fill="white"/>
</svg>
