<svg width="170" height="24" viewBox="0 0 170 24" fill="none" xmlns="http://www.w3.org/2000/svg">
<path d="M20.9451 9.71068L22.7972 6.52288L29.0869 6.1244L29.3069 5.73499L23.494 5.33651L24.8601 3.00906H35.6425C38.9615 3.00906 41.4095 4.18637 40.456 7.61868C40.1718 8.66921 38.824 11.2955 34.8631 12.3913C35.7066 12.4909 37.7971 13.4056 37.4304 15.7784C36.7886 19.9895 31.2782 21.9909 28.2067 21.9909L15.4714 22L14.8388 19.5639L21.5136 19.102L21.7428 18.7126L14.4996 18.2779L13.7202 15.3889L24.0166 14.7912L24.2458 14.4109L5.75266 13.2698L6.64202 11.7483L26.5563 10.4714L26.7856 10.091L20.9451 9.71068ZM29.2794 10.3446L31.1132 10.3356C32.3418 10.3265 33.6162 9.77407 34.0838 8.66015C34.5147 7.61868 33.9371 6.73117 33.1669 6.74023H31.3882L29.2794 10.3446ZM27.1615 13.9581L24.9518 17.7526H27.0606C28.0417 17.7526 29.7929 17.2726 30.3338 15.8961C30.8381 14.6101 29.9121 13.9581 29.2703 13.9581H27.1615ZM11.098 19.8174L9.81438 21.9819L0.664062 22L1.55342 20.4786L11.098 19.8174ZM11.7398 3L19.1022 3.00906L19.6615 5.06482L10.8688 4.52145L11.7398 3ZM20.0741 6.69495L20.8809 9.71068L8.31072 8.89561L9.19091 7.38322L20.0741 6.69495ZM13.6744 15.3889L12.079 18.1239L3.21295 17.6258L4.10231 16.1044L13.6744 15.3889Z" fill="#F3B2E7"/>
</svg>
