<svg width="133" height="30" viewBox="0 0 133 30" fill="none" xmlns="http://www.w3.org/2000/svg">
<path d="M38.4812 8.01758V9.94582L33.9665 22.5086H31.0724L35.5293 10.5886H30.6094V8.01758H38.4812Z" fill="#0A0620"/>
<path d="M44.5006 22.5086V19.0611H39.4648V17.016L44.269 8.01758H47.1052V16.7238H48.4944V19.0611H47.1052V22.5086H44.5006ZM44.5006 16.7238V13.7439C44.5006 12.9259 44.5585 12.1078 44.6163 11.3482H44.5585C44.2111 12.1662 43.9217 12.809 43.5166 13.627L42.0117 16.6655V16.7238H44.5006Z" fill="#0A0620"/>
<path d="M56.2495 11.582V15.9644H56.539L58.4491 11.582H61.5168L58.6806 16.2566C59.7803 16.6656 60.3013 18.0095 60.5907 19.4119C60.8222 20.2299 61.2274 21.7491 61.5747 22.5087H58.6806C58.3333 21.8659 58.1017 20.9311 57.8703 19.8209C57.6387 18.7691 57.1756 18.0095 56.4232 18.0095H56.2495V22.5087H53.3555V11.582H56.2495Z" fill="#0A0620"/>
<path d="M70.4869 17.0156C70.4869 21.5733 67.9398 22.6835 66.2612 22.6835C63.6566 22.6835 62.0938 20.6384 62.0938 17.0741C62.0938 13.1592 64.1775 11.4062 66.3191 11.4062C68.9238 11.4062 70.4869 13.5682 70.4869 17.0156ZM64.9878 17.0156C64.9878 18.8855 65.2772 20.4631 66.3191 20.4631C67.3031 20.4631 67.5346 18.5933 67.5346 17.0156C67.5346 15.4964 67.3031 13.6266 66.3191 13.6266C65.2194 13.6266 64.9878 15.4964 64.9878 17.0156Z" fill="#0A0620"/>
<path d="M79.8647 11.582V22.5087H76.9128V13.9777H75.2923V16.315C75.2923 19.1782 75.0025 21.4569 73.0348 22.3919C72.5665 22.6245 72.0513 22.7445 71.5298 22.7424L71.0664 20.4052C71.6453 20.2884 71.877 19.9962 72.0506 19.5872C72.4559 18.9444 72.5714 17.6005 72.5714 16.3734V11.582H79.8647Z" fill="#0A0620"/>
<path d="M84.3794 18.0674C84.3794 19.7619 85.421 20.4047 86.6943 20.4047C87.4027 20.3984 88.1062 20.2801 88.7782 20.054L89.1254 22.1576C88.431 22.4498 87.2732 22.6251 86.1735 22.6251C83.1635 22.6251 81.543 20.6384 81.543 17.2494C81.543 13.5682 83.4533 11.4062 85.9418 11.4062C88.2574 11.4062 89.6462 13.2176 89.6462 16.5482C89.6462 17.3663 89.5888 17.7753 89.5307 18.0674H84.3794ZM86.9841 16.0223C86.9841 14.6199 86.6369 13.5098 85.7682 13.5098C84.784 13.5098 84.3794 14.9121 84.3794 16.0223H86.9841Z" fill="#0A0620"/>
<path d="M97.3472 22.333C97.0574 22.4499 96.3049 22.6252 95.495 22.6252C92.7167 22.6252 90.9219 20.697 90.9219 17.1911C90.9219 13.8021 92.8903 11.4648 95.9577 11.4648C96.4918 11.4716 97.0203 11.5704 97.5208 11.757L97.1736 14.0358C96.9419 13.9774 96.5366 13.8605 96.0739 13.8605C94.6263 13.8605 93.8164 15.2045 93.8164 17.0742C93.8164 19.0609 94.6263 20.2295 96.0158 20.2295C96.4211 20.2295 96.8264 20.1711 97.1155 19.9958L97.3472 22.333Z" fill="#0A0620"/>
<path d="M106.261 19.9957C106.257 20.8364 106.315 21.6762 106.435 22.5082H103.83L103.656 21.398H103.598C103.019 22.2745 102.151 22.6835 101.167 22.6835C99.4886 22.6835 98.2734 21.2812 98.2734 19.3529C98.2734 16.4898 100.82 15.3211 103.309 15.3211V15.0874C103.309 14.2109 102.788 13.5682 101.746 13.5682C100.878 13.5682 100.183 13.8019 99.4886 14.2109L98.9678 12.2243C99.6048 11.9321 100.878 11.4062 102.383 11.4062C105.74 11.4062 106.261 13.7435 106.261 15.9639V19.9957ZM103.367 17.1909C102.441 17.1909 101.052 17.5415 101.052 19.0608C101.052 20.1125 101.631 20.5215 102.093 20.5215C102.614 20.5215 103.136 20.2294 103.309 19.5867C103.367 19.4113 103.367 19.2945 103.367 19.0608V17.1909Z" fill="#0A0620"/>
<path d="M108.344 20.7562C108.344 19.5876 109.154 18.7695 110.08 18.7695C111.007 18.7695 111.817 19.5292 111.817 20.7562C111.817 21.9249 111.123 22.6845 110.022 22.6845C109.154 22.6845 108.344 21.9249 108.344 20.7562Z" fill="#0A0620"/>
<path d="M113.785 7.66732C114.711 7.49202 115.869 7.43359 117.027 7.43359C118.647 7.43359 120.094 7.66732 121.02 8.54379C121.946 9.36183 122.236 10.3552 122.236 11.6407C122.236 13.2183 121.426 14.6791 119.921 15.3803V15.4387C120.962 15.8477 121.484 16.7826 121.773 18.4187C122.063 20.1132 122.467 21.9246 122.699 22.5089H119.632C119.458 22.0415 119.11 20.5807 118.879 18.8861C118.647 17.0164 118.127 16.4905 117.2 16.4905H116.737V22.5089H113.785V7.66732ZM116.737 14.2701H117.258C118.532 14.2701 119.284 13.2183 119.284 11.9328C119.284 10.5889 118.763 9.71242 117.432 9.65399C117.196 9.65952 116.962 9.69886 116.737 9.77085V14.2701Z" fill="#0A0620"/>
<path d="M127.156 7.49219V17.2502C127.156 19.4122 127.793 20.1134 128.602 20.1134C129.471 20.1134 130.049 19.5291 130.049 17.2502V7.49219H133.002V16.7243C133.002 20.5808 131.497 22.6843 128.602 22.6843C125.477 22.6843 124.262 20.5224 124.262 16.7243V7.49219H127.156Z" fill="#0A0620"/>
<path fill-rule="evenodd" clip-rule="evenodd" d="M23.7197 19.3262C21.4044 25.6368 14.4008 28.909 8.03376 26.5717C1.7247 24.2929 -1.57456 17.3396 0.740707 11.029C3.05597 4.71837 10.0596 1.44622 16.4266 3.72504C22.7357 6.00387 26.035 13.0157 23.7197 19.3262ZM15.8478 5.30269C10.4069 3.37445 4.32936 6.17916 2.36139 11.5548C0.393418 16.989 3.17174 23.0074 8.67048 24.9941C14.1114 26.9807 20.131 24.1761 22.099 18.742C24.1249 13.3078 21.2887 7.28936 15.8478 5.30269ZM9.01775 23.9423C4.15572 22.1894 1.66681 16.8137 3.40326 11.9639C5.19759 7.11407 10.5806 4.60151 15.4426 6.41288C20.3047 8.16583 22.7936 13.4831 21.0571 18.3329C19.2628 23.1827 13.8798 25.6953 9.01775 23.9423ZM14.5165 19.7352L15.0375 22.8906C16.8601 22.2335 18.3965 20.9514 19.3786 19.2678L16.3687 18.1576C16.1381 18.065 15.8867 18.0378 15.6419 18.0791C15.3971 18.1202 15.168 18.2282 14.9796 18.3913C14.5744 18.742 14.4008 19.2678 14.5165 19.7352ZM13.9956 16.1125C14.285 16.2294 14.6323 16.0541 14.748 15.7619C14.8638 15.4697 14.6901 15.1776 14.4008 15.0607C14.1114 14.9439 13.764 15.0607 13.6483 15.3529C13.5904 15.7035 13.7062 15.9956 13.9956 16.1125ZM13.5325 14.1259C13.8219 14.2427 14.1693 14.0674 14.2271 13.7752C14.3429 13.4831 14.2271 13.191 13.9377 13.074C13.6483 12.9572 13.301 13.1325 13.1853 13.4247C13.0695 13.7168 13.2432 14.009 13.5325 14.1259ZM12.3749 17.3396C12.6643 17.398 12.9537 17.2811 13.0695 16.989C13.1005 16.9165 13.116 16.8382 13.1151 16.7593C13.1142 16.6804 13.0967 16.6025 13.064 16.5309C13.0312 16.4592 12.9838 16.3953 12.9249 16.3433C12.866 16.2914 12.797 16.2525 12.7222 16.2294C12.4328 16.1709 12.1434 16.2878 12.0276 16.5799C11.9118 16.8721 12.0855 17.2227 12.3749 17.3396ZM9.42291 22.8906C10.3491 23.1827 11.333 23.358 12.2592 23.358L11.6803 20.2027C11.6225 19.7353 11.2752 19.3262 10.8121 19.151C10.57 19.0702 10.3122 19.0493 10.0604 19.09C9.80861 19.1307 9.57019 19.2317 9.36509 19.3847L6.93403 21.4297C7.6286 22.0725 8.49681 22.5399 9.42291 22.8906ZM5.08183 19.2678L7.51282 17.2811C7.91805 16.989 8.14954 16.4631 8.03376 15.8788C7.91805 15.3529 7.57071 14.9439 7.04977 14.827V14.7686L4.15572 13.7168C3.80843 15.7035 4.15572 17.6318 5.08183 19.2678ZM9.94385 10.5031L9.42291 7.46466C7.6286 8.1074 6.06581 9.33446 5.08183 11.0874L8.03376 12.1392C8.49681 12.3145 9.07564 12.256 9.4808 11.9055C9.94385 11.5548 10.0596 11.029 9.94385 10.5031ZM10.6385 13.7168C10.3491 13.6 10.0596 13.7168 9.94385 14.009C9.82814 14.3012 10.0017 14.6517 10.2912 14.7686C10.5806 14.8854 10.87 14.7102 10.9857 14.418C11.1015 14.1259 10.9278 13.7752 10.6385 13.7168ZM11.1594 15.6451C10.87 15.5866 10.5227 15.7035 10.4069 15.9956C10.2912 16.2878 10.4648 16.6384 10.7542 16.7553C11.0436 16.8137 11.3909 16.6968 11.5067 16.4046C11.5646 16.1125 11.4488 15.7619 11.1594 15.6451ZM11.5646 12.8403C11.4488 13.1325 11.6225 13.4247 11.9118 13.5415C12.2013 13.6584 12.5486 13.4831 12.6643 13.191C12.78 12.8988 12.6064 12.6066 12.317 12.4898C12.0276 12.3729 11.6803 12.5482 11.5646 12.8403ZM15.0375 7.46466C14.1318 7.11606 13.1705 6.93783 12.2013 6.93877L12.78 10.0356C12.8379 10.5031 13.1853 10.9705 13.7062 11.2043C14.2271 11.3796 14.748 11.2043 15.1532 10.8536L17.5264 8.86701C16.8318 8.2827 15.9636 7.81524 15.0375 7.46466ZM19.3786 11.029L16.8897 13.1325C16.5424 13.4247 16.3108 13.8921 16.4266 14.418C16.4845 14.9439 16.8897 15.3529 17.3527 15.5282L20.3626 16.5799C20.7099 14.6517 20.3047 12.7235 19.3786 11.029Z" fill="#0A0620"/>
</svg>
