<svg width="732" height="375" viewBox="0 0 732 375" fill="none" xmlns="http://www.w3.org/2000/svg">
<path d="M0.347012 371.229C-0.354769 372.418 0.040252 373.951 1.22931 374.653C2.41838 375.355 3.95121 374.96 4.65299 373.771L2.5 372.5L0.347012 371.229ZM732 0L705.351 11.0982L728.287 28.6277L732 0ZM2.5 372.5L4.65299 373.771C76.9653 251.248 217.227 207.092 359.254 171.455C430.102 153.677 501.396 138.008 564.32 115.698C627.265 93.3808 682.197 64.304 720.255 19.4789L718.349 17.8609L716.443 16.2428C679.22 60.0845 625.258 88.7874 562.649 110.986C500.021 133.191 429.104 148.773 358.037 166.605C216.235 202.186 73.8536 246.683 0.347012 371.229L2.5 372.5Z" fill="#6DC256"/>
</svg>
