<svg width="112" height="49" viewBox="0 0 112 49" fill="none" xmlns="http://www.w3.org/2000/svg">
<path d="M4.98327 2.21125C4.8238 0.839777 3.58272 -0.142742 2.21125 0.0167315C0.839777 0.176205 -0.142742 1.41728 0.0167315 2.78875L2.5 2.5L4.98327 2.21125ZM112 27L83.6617 21.4979L93.0659 48.7906L112 27ZM2.5 2.5L0.0167315 2.78875C1.14884 12.5249 4.58073 20.4426 9.92659 26.5827C15.2639 32.7131 22.3905 36.9361 30.707 39.4895C47.2702 44.5746 68.7817 43.1168 91.4048 36.7364L90.7262 34.3303L90.0476 31.9241C67.8861 38.1743 47.447 39.3986 32.1745 34.7097C24.5731 32.3759 18.3105 28.5978 13.6976 23.2995C9.09318 18.011 6.01363 11.0724 4.98327 2.21125L2.5 2.5Z" fill="#6DC256"/>
</svg>
