<svg width="21" height="63" viewBox="0 0 21 63" fill="none" xmlns="http://www.w3.org/2000/svg">
<path d="M14.2076 2.66417C14.8506 2.14177 14.9483 1.19706 14.4259 0.554111C13.9035 -0.0888432 12.9588 -0.186571 12.3158 0.335829L13.2617 1.5L14.2076 2.66417ZM20.7617 62.4995L19.0669 45.2621L4.98628 55.3486L20.7617 62.4995ZM13.2617 1.5L12.3158 0.335829C2.23519 8.52635 -0.842681 17.4854 0.189528 26.5532C1.20302 35.4566 6.16106 44.2733 11.6579 52.3657L12.8987 51.5228L14.1395 50.68C8.67577 42.6363 4.09519 34.3392 3.17028 26.2139C2.26408 18.2531 4.84801 10.2688 14.2076 2.66417L13.2617 1.5Z" fill="#6DC256"/>
</svg>
