<svg width="183" height="169" viewBox="0 0 183 169" fill="none" xmlns="http://www.w3.org/2000/svg">
<path d="M6.51245 2.73707C6.64338 1.36258 5.63527 0.142195 4.26078 0.0112658C2.88629 -0.119664 1.66591 0.888441 1.53498 2.26293L4.02371 2.5L6.51245 2.73707ZM182.018 153.5L156.596 139.823L157.462 168.678L182.018 153.5ZM4.02371 2.5L1.53498 2.26293C-3.22539 52.237 2.5188 91.3799 26.8027 117.809C51.0764 144.227 93.2466 157.259 159.562 156.675L159.54 154.175L159.517 151.675C93.617 152.256 53.2864 139.242 30.4845 114.426C7.69302 89.6212 1.78706 52.3438 6.51245 2.73707L4.02371 2.5Z" fill="#6DC256"/>
</svg>
