<svg width="100" height="359" viewBox="0 0 100 359" fill="none" xmlns="http://www.w3.org/2000/svg">
<path d="M65.7963 2.39392C65.3026 1.72868 65.4417 0.78917 66.1069 0.295467C66.7722 -0.198236 67.7117 -0.0591745 68.2054 0.606069L67.0008 1.5L65.7963 2.39392ZM0 358.5L5.70479 342.146L17.0154 355.263L0 358.5ZM67.0008 1.5L68.2054 0.606069C97.0136 39.424 105.535 105.833 95.5823 172.894C85.6223 240.004 57.0974 308.234 11.2571 350.773L10.2367 349.673L9.21641 348.574C54.3992 306.645 82.7179 239.139 92.6148 172.454C102.519 105.721 93.911 40.2772 65.7963 2.39392L67.0008 1.5Z" fill="#6DC256"/>
</svg>
