<svg width="123" height="307" viewBox="0 0 123 307" fill="none" xmlns="http://www.w3.org/2000/svg">
<path d="M121.165 2.92837C121.954 2.67541 122.388 1.83086 122.135 1.04199C121.882 0.253127 121.038 -0.181317 120.249 0.0716344L120.707 1.5L121.165 2.92837ZM35.707 306.5L36.4719 289.196L21.1041 297.186L35.707 306.5ZM120.707 1.5L120.249 0.0716344C77.8524 13.6662 49.2052 35.4223 30.5437 61.3544C11.8928 87.2719 3.28829 117.26 0.79799 147.22C-4.17859 207.092 15.2384 267.109 28.121 295.156L29.4841 294.53L30.8471 293.904C18.0912 266.132 -1.1314 206.649 3.78768 147.469C6.24519 117.903 14.7223 88.476 32.9788 63.1067C51.2247 37.752 79.3107 16.3491 121.165 2.92837L120.707 1.5Z" fill="#6DC256"/>
</svg>
