<svg width="446" height="100" viewBox="0 0 446 100" fill="none" xmlns="http://www.w3.org/2000/svg">
<path d="M4.61856 1.17271C3.88552 0.00266027 2.34276 -0.351603 1.17271 0.381439C0.00266027 1.11448 -0.351603 2.65724 0.381439 3.82729L2.5 2.5L4.61856 1.17271ZM446 38.5L417.197 40.4338L433.273 64.4107L446 38.5ZM2.5 2.5L0.381439 3.82729C37.8496 63.6323 116.725 92.6722 199.835 98.5162C283.028 104.366 371.355 87.0555 428.593 53.1762L427.32 51.0248L426.046 48.8734C369.891 82.1116 282.639 99.3264 200.186 93.5286C117.65 87.7249 40.8124 58.9436 4.61856 1.17271L2.5 2.5Z" fill="#6DC256"/>
</svg>
