<svg width="136" height="30" viewBox="0 0 136 30" fill="none" xmlns="http://www.w3.org/2000/svg">
<path d="M73.27 16.6733C73.27 17.616 72.4543 18.3821 71.4527 18.3821C70.4512 18.3821 69.6364 17.616 69.6364 16.6733V10.2646H66.1406V16.6733C66.1406 19.5434 68.5238 21.877 71.4527 21.877C72.7658 21.8808 74.0344 21.4019 75.0174 20.5315C76.0001 21.4019 77.2685 21.8808 78.5813 21.877C81.5102 21.877 83.8934 19.5434 83.8934 16.6733V10.2646H80.3985V16.6733C80.3985 17.616 79.5836 18.3821 78.5813 18.3821C77.5789 18.3821 76.7649 17.616 76.7649 16.6733V10.2646H73.27V16.6733Z" fill="#0A0620"/>
<path d="M3.6 10.2615H9.13833C12.021 10.2615 14.3655 12.8767 14.3655 16.0916C14.3655 19.3064 12.0193 21.9217 9.13833 21.9217H0V18.4268H9.13833C10.0776 18.4268 10.8706 17.3572 10.8706 16.0916C10.8706 14.826 10.0776 13.7563 9.13833 13.7563H0V2.05151H3.6V10.2615Z" fill="#0A0620"/>
<path d="M21.1491 13.7595C20.2106 13.7595 19.4176 14.8292 19.4176 16.0948C19.4176 17.3604 20.2106 18.43 21.1491 18.43H26.8127C27.7512 18.43 28.5442 17.3604 28.5442 16.0948C28.5442 14.8292 27.7512 13.7595 26.8127 13.7595H21.1491ZM26.8127 21.9249H21.1491C18.2672 21.9249 15.9219 19.3096 15.9219 16.0948C15.9219 12.8799 18.2672 10.2646 21.1491 10.2646H26.8127C29.6945 10.2646 32.0399 12.8799 32.0399 16.0948C32.0399 19.3096 29.6945 21.9249 26.8127 21.9249Z" fill="#0A0620"/>
<path d="M38.8248 13.7595C37.8855 13.7595 37.0925 14.8292 37.0925 16.0948C37.0925 17.3604 37.8855 18.43 38.8248 18.43H44.4885C45.4269 18.43 46.2199 17.3604 46.2199 16.0948C46.2199 14.8292 45.4269 13.7595 44.4885 13.7595H38.8248ZM44.4859 21.9249H38.8248C35.9422 21.9249 33.5977 19.3096 33.5977 16.0948C33.5977 12.8799 35.9422 10.2646 38.8248 10.2646H44.4885C47.3703 10.2646 49.7148 12.8799 49.7148 16.0948C49.7148 19.3096 47.3678 21.9249 44.4859 21.9249Z" fill="#0A0620"/>
<path d="M90.6764 13.7595C89.7379 13.7595 88.945 14.8292 88.945 16.0948C88.945 17.3604 89.7379 18.43 90.6764 18.43H96.3401C97.2785 18.43 98.0723 17.3604 98.0723 16.0948C98.0723 14.8292 97.2785 13.7595 96.3401 13.7595H90.6764ZM96.3401 21.9249H90.6764C87.7946 21.9249 85.4492 19.3096 85.4492 16.0948C85.4492 12.8799 87.7946 10.2646 90.6764 10.2646H96.3401C99.2219 10.2646 101.567 12.8799 101.567 16.0948C101.567 19.3096 99.2244 21.9249 96.3401 21.9249Z" fill="#0A0620"/>
<path d="M108.352 13.7595C107.414 13.7595 106.62 14.8292 106.62 16.0948C106.62 17.3604 107.414 18.43 108.352 18.43H114.016C114.954 18.43 115.747 17.3604 115.747 16.0948C115.747 14.8292 114.954 13.7595 114.016 13.7595H108.352ZM114.016 21.9249H108.352C105.47 21.9249 103.125 19.3096 103.125 16.0948C103.125 12.8799 105.47 10.2646 108.352 10.2646H114.016C116.898 10.2646 119.243 12.8799 119.243 16.0948C119.243 19.3096 116.898 21.9249 114.016 21.9249Z" fill="#0A0620"/>
<path d="M131.566 2H135.166V13.704H126.028C125.089 13.704 124.296 14.7736 124.296 16.0392C124.296 17.3048 125.089 18.3745 126.028 18.3745H135.165V21.8694H126.028C123.145 21.8694 120.801 19.2541 120.801 16.0392C120.801 12.8244 123.145 10.2091 126.028 10.2091H131.565L131.566 2Z" fill="#0A0620"/>
<path d="M59.9807 13.4997H64.5923V10.2646H51.2695V13.4997H56.1301V21.9249H59.9807V13.4997Z" fill="#0A0620"/>
</svg>
