<svg width="34" height="34" viewBox="0 0 34 34" fill="none" xmlns="http://www.w3.org/2000/svg">
<g clip-path="url(#clip0_742_11902)">
<path d="M4.25 0C3.07461 0 2.125 0.949609 2.125 2.125V6.375C2.125 7.55039 3.07461 8.5 4.25 8.5H9.5625V10.625H5.77734C3.67891 10.625 1.89258 12.159 1.57383 14.2375L0.0730469 24.1785C0.0265625 24.4906 0 24.8094 0 25.1281V29.75C0 32.0941 1.90586 34 4.25 34H29.75C32.0941 34 34 32.0941 34 29.75V25.1281C34 24.8094 33.9734 24.4906 33.927 24.1719L32.4195 14.2375C32.1074 12.159 30.3211 10.625 28.2227 10.625H13.8125V8.5H19.125C20.3004 8.5 21.25 7.55039 21.25 6.375V2.125C21.25 0.949609 20.3004 0 19.125 0H4.25ZM6.375 3.1875H17C17.5844 3.1875 18.0625 3.66563 18.0625 4.25C18.0625 4.83437 17.5844 5.3125 17 5.3125H6.375C5.79063 5.3125 5.3125 4.83437 5.3125 4.25C5.3125 3.66563 5.79063 3.1875 6.375 3.1875ZM4.25 28.6875C4.25 28.1031 4.72813 27.625 5.3125 27.625H28.6875C29.2719 27.625 29.75 28.1031 29.75 28.6875C29.75 29.2719 29.2719 29.75 28.6875 29.75H5.3125C4.72813 29.75 4.25 29.2719 4.25 28.6875ZM7.4375 17.5312C7.01481 17.5312 6.60943 17.3633 6.31055 17.0645C6.01166 16.7656 5.84375 16.3602 5.84375 15.9375C5.84375 15.5148 6.01166 15.1094 6.31055 14.8105C6.60943 14.5117 7.01481 14.3438 7.4375 14.3438C7.86019 14.3438 8.26557 14.5117 8.56445 14.8105C8.86334 15.1094 9.03125 15.5148 9.03125 15.9375C9.03125 16.3602 8.86334 16.7656 8.56445 17.0645C8.26557 17.3633 7.86019 17.5312 7.4375 17.5312ZM15.4062 15.9375C15.4062 16.3602 15.2383 16.7656 14.9395 17.0645C14.6406 17.3633 14.2352 17.5312 13.8125 17.5312C13.3898 17.5312 12.9844 17.3633 12.6855 17.0645C12.3867 16.7656 12.2188 16.3602 12.2188 15.9375C12.2188 15.5148 12.3867 15.1094 12.6855 14.8105C12.9844 14.5117 13.3898 14.3438 13.8125 14.3438C14.2352 14.3438 14.6406 14.5117 14.9395 14.8105C15.2383 15.1094 15.4062 15.5148 15.4062 15.9375ZM10.625 22.8438C10.2023 22.8438 9.79693 22.6758 9.49805 22.377C9.19916 22.0781 9.03125 21.6727 9.03125 21.25C9.03125 20.8273 9.19916 20.4219 9.49805 20.123C9.79693 19.8242 10.2023 19.6562 10.625 19.6562C11.0477 19.6562 11.4531 19.8242 11.752 20.123C12.0508 20.4219 12.2188 20.8273 12.2188 21.25C12.2188 21.6727 12.0508 22.0781 11.752 22.377C11.4531 22.6758 11.0477 22.8438 10.625 22.8438ZM21.7812 15.9375C21.7812 16.3602 21.6133 16.7656 21.3145 17.0645C21.0156 17.3633 20.6102 17.5312 20.1875 17.5312C19.7648 17.5312 19.3594 17.3633 19.0605 17.0645C18.7617 16.7656 18.5938 16.3602 18.5938 15.9375C18.5938 15.5148 18.7617 15.1094 19.0605 14.8105C19.3594 14.5117 19.7648 14.3438 20.1875 14.3438C20.6102 14.3438 21.0156 14.5117 21.3145 14.8105C21.6133 15.1094 21.7812 15.5148 21.7812 15.9375ZM17 22.8438C16.5773 22.8438 16.1719 22.6758 15.873 22.377C15.5742 22.0781 15.4062 21.6727 15.4062 21.25C15.4062 20.8273 15.5742 20.4219 15.873 20.123C16.1719 19.8242 16.5773 19.6562 17 19.6562C17.4227 19.6562 17.8281 19.8242 18.127 20.123C18.4258 20.4219 18.5938 20.8273 18.5938 21.25C18.5938 21.6727 18.4258 22.0781 18.127 22.377C17.8281 22.6758 17.4227 22.8438 17 22.8438ZM28.1562 15.9375C28.1562 16.1468 28.115 16.354 28.0349 16.5474C27.9548 16.7408 27.8374 16.9165 27.6895 17.0645C27.5415 17.2124 27.3658 17.3298 27.1724 17.4099C26.979 17.49 26.7718 17.5312 26.5625 17.5312C26.3532 17.5312 26.146 17.49 25.9526 17.4099C25.7592 17.3298 25.5835 17.2124 25.4355 17.0645C25.2876 16.9165 25.1702 16.7408 25.0901 16.5474C25.01 16.354 24.9688 16.1468 24.9688 15.9375C24.9688 15.7282 25.01 15.521 25.0901 15.3276C25.1702 15.1342 25.2876 14.9585 25.4355 14.8105C25.5835 14.6626 25.7592 14.5452 25.9526 14.4651C26.146 14.385 26.3532 14.3438 26.5625 14.3438C26.7718 14.3438 26.979 14.385 27.1724 14.4651C27.3658 14.5452 27.5415 14.6626 27.6895 14.8105C27.8374 14.9585 27.9548 15.1342 28.0349 15.3276C28.115 15.521 28.1562 15.7282 28.1562 15.9375ZM23.375 22.8438C22.9523 22.8438 22.5469 22.6758 22.248 22.377C21.9492 22.0781 21.7812 21.6727 21.7812 21.25C21.7812 20.8273 21.9492 20.4219 22.248 20.123C22.5469 19.8242 22.9523 19.6562 23.375 19.6562C23.7977 19.6562 24.2031 19.8242 24.502 20.123C24.8008 20.4219 24.9688 20.8273 24.9688 21.25C24.9688 21.6727 24.8008 22.0781 24.502 22.377C24.2031 22.6758 23.7977 22.8438 23.375 22.8438Z" fill="white"/>
</g>
<defs>
<clipPath id="clip0_742_11902">
<rect width="34" height="34" fill="white"/>
</clipPath>
</defs>
</svg>
