<svg width="134" height="30" viewBox="0 0 134 30" fill="none" xmlns="http://www.w3.org/2000/svg">
<path d="M17.4768 7V23.032H14.5547V7H17.4768Z" fill="#0A0620"/>
<path d="M80.4846 7V20.414H87.5896V23.032H77.5625V7H80.4846Z" fill="#0A0620"/>
<path d="M133.6 7V9.60947H125.903V13.481H132.941V16.0905H125.903V20.414H133.6V23.032H122.98V7H133.6Z" fill="#0A0620"/>
<path d="M104.719 23.032L99.0914 7H95.3845L89.7656 23.032H92.7212C93.1553 21.7273 93.4976 20.7296 93.7815 19.8939H100.686C100.962 20.6955 101.296 21.6932 101.746 23.032H104.719ZM94.6915 17.2844C95.2843 15.5788 95.8604 13.8904 97.238 9.58389C98.8243 14.4958 99.2751 15.8432 99.7844 17.2844H94.6915Z" fill="#0A0620"/>
<path d="M10.8704 7V9.60947H2.92214V13.8221H10.2776V16.4316H2.92214V23.032H0V7H10.8704Z" fill="#0A0620"/>
<path d="M74.3235 7V9.60947H66.3753V13.8221H73.7307V16.4316H66.3753V23.032H63.4531V7H74.3235Z" fill="#0A0620"/>
<path d="M25.4201 7L32.7588 18.393V7H35.681V23.032H32.6086L25.2698 11.6391V23.032H22.3477V7H25.4201Z" fill="#0A0620"/>
<path d="M43.6427 7L50.9815 18.393V7H53.9036V23.032H50.8312L43.4925 11.6391V23.032H40.5703V7H43.6427Z" fill="#0A0620"/>
<path d="M116.545 23.032H119.718L115.518 16.6107C116.061 16.4828 116.587 16.2952 117.088 16.0223C117.405 15.8517 117.689 15.6471 117.939 15.4254C118.19 15.2036 118.415 14.9563 118.607 14.692C118.799 14.4276 118.958 14.1377 119.092 13.8221C119.35 13.1911 119.492 12.6794 119.492 11.8864C119.492 11.0933 119.359 10.6413 119.092 10.0103C118.958 9.70328 118.799 9.41333 118.607 9.14045C118.415 8.87609 118.198 8.62879 117.939 8.40707C117.689 8.18535 117.405 7.98068 117.088 7.81013C115.977 7.19614 114.708 7 113.464 7H107.453V23.032H110.375V16.8324H112.496L116.545 23.032ZM110.375 9.60947H113.757C114.884 9.60947 116.036 10.0359 116.47 11.17C116.662 11.6732 116.654 12.1763 116.462 12.6794C116.028 13.8051 114.884 14.2229 113.757 14.2229H110.375V9.60947Z" fill="#0A0620"/>
</svg>
