<svg width="102" height="30" viewBox="0 0 102 30" fill="none" xmlns="http://www.w3.org/2000/svg">
<path d="M29.2741 19.5576C29.8113 19.5576 30.0799 19.1512 30.0799 18.6094C30.0799 18.2031 29.8113 17.7967 29.2741 17.7967C28.4683 17.7967 27.7968 17.9322 27.1253 18.2031C26.5881 18.474 26.1852 18.8803 25.7823 19.2867C25.2451 19.8285 24.9765 20.6412 24.8422 21.4539C24.305 21.0475 23.7678 20.6412 23.0963 20.3703L25.3794 9.80508C25.3794 9.53415 25.2451 9.12782 24.9765 8.99236C24.7079 8.72143 24.305 8.85689 24.0363 8.99236L18.6643 13.3268C18.3957 13.5977 17.9928 13.5977 17.7242 13.3268L12.3522 8.99236C12.0835 8.85689 11.6806 8.72143 11.4121 8.99236C11.1434 9.12782 11.0091 9.53415 11.0091 9.80508L13.2922 20.3703C12.6208 20.6412 12.0835 21.0475 11.5463 21.4539C11.4121 20.6412 11.1434 19.8285 10.6062 19.2867C10.3376 18.8803 9.80042 18.474 9.26322 18.2031C8.59171 17.9322 7.92025 17.7967 7.11442 17.7967C6.57722 17.7967 6.30859 18.2031 6.30859 18.6094C6.30859 19.1512 6.57722 19.5576 7.11442 19.5576C8.18882 19.5576 8.86034 19.8285 9.39753 20.3703C10.2034 21.3184 9.80042 23.0793 9.80042 23.0793C9.80042 23.4857 9.93473 23.7565 10.2034 24.0275C10.3376 24.0275 10.4719 24.0275 10.6062 24.0275C10.8749 24.0275 11.0091 24.0275 11.2778 23.892C13.0237 21.8602 15.5754 20.9121 18.2614 20.9121C20.8132 20.9121 23.3649 21.8602 25.1108 23.7565C25.3794 24.0275 25.648 24.1629 25.9166 24.0275C26.1852 24.0275 26.4538 23.892 26.5881 23.4857C26.5881 23.3502 26.5881 23.2147 26.5881 23.0793C26.5881 22.9439 26.3195 21.3184 26.991 20.3703C27.5282 19.8285 28.1997 19.5576 29.2741 19.5576ZM18.2614 19.1512C17.0527 19.1512 15.844 19.4221 14.7696 19.693L13.158 11.7014L16.7841 14.6813C17.187 14.9522 17.7242 15.2231 18.2614 15.2231C18.6643 15.2231 19.2016 14.9522 19.6044 14.6813L23.2306 11.7014L21.6189 19.693C20.5445 19.4221 19.3358 19.1512 18.2614 19.1512Z" fill="#0A0620"/>
<path d="M36.9332 9.93992C37.3362 9.93992 37.7391 9.66905 37.7391 9.39812V4.11553H39.7535V9.39812C39.7535 9.66905 40.1565 9.93992 40.4251 9.93992C40.828 9.93992 41.0966 9.66905 41.0966 9.39812V3.57374C41.0966 3.16735 40.828 2.89648 40.4251 2.89648H36.9332C36.6647 2.89648 36.2617 3.16735 36.2617 3.57374V9.39812C36.2617 9.66905 36.6647 9.93992 36.9332 9.93992Z" fill="#0A0620"/>
<path d="M43.5105 9.93992H46.0621C46.4651 9.93992 46.7337 9.66905 46.7337 9.26266C46.7337 8.85633 46.4651 8.5854 46.0621 8.5854H43.9133V7.09549H45.7936C46.1965 7.09549 46.4651 6.6891 46.4651 6.41817C46.4651 6.01184 46.1965 5.74091 45.7936 5.74091H43.9133V4.11553H46.0621C46.3308 4.11553 46.7337 3.98007 46.7337 3.57374C46.7337 3.16735 46.3308 2.89648 46.0621 2.89648H43.3761C42.9732 2.89648 42.5703 3.30281 42.5703 3.57374V9.26266C42.5703 9.66905 42.9732 9.93992 43.5105 9.93992Z" fill="#0A0620"/>
<path d="M48.6168 9.93992C49.0197 9.93992 49.2883 9.66905 49.2883 9.39812V7.50182H50.2284C51.7058 7.50182 52.6459 6.6891 52.6459 5.19912C52.6459 3.98007 51.9743 2.89648 50.2284 2.89648H48.7511C48.3483 2.89648 47.9453 3.30281 47.9453 3.57374V9.39812C47.9453 9.66905 48.3483 9.93992 48.6168 9.93992ZM49.2883 4.11553H50.2284C51.0343 4.11553 51.3029 4.65733 51.3029 5.19912C51.3029 5.87638 50.8999 6.28277 50.2284 6.28277H49.2883V4.11553Z" fill="#0A0620"/>
<path d="M56.2727 9.93992C57.7501 9.93992 58.69 8.99179 58.69 7.77274C58.69 6.96002 58.0191 6.55363 57.4817 6.28277C58.0191 6.01184 58.4216 5.60551 58.4216 4.92825C58.4216 3.84461 57.7501 2.89648 56.2727 2.89648H54.6612C54.2584 2.89648 53.8555 3.16735 53.8555 3.57374V9.12726C53.8555 9.53359 54.124 9.93992 54.6612 9.93992H56.2727ZM55.1984 4.11553H56.4069C56.9443 4.11553 57.0785 4.52186 57.0785 4.92825C57.0785 5.47005 56.6759 5.60551 56.4069 5.60551H55.1984V4.11553ZM55.1984 6.96002H56.4069C56.9443 6.96002 57.3475 7.23089 57.3475 7.77274C57.3475 8.31454 56.9443 8.5854 56.2727 8.5854H55.1984V6.96002Z" fill="#0A0620"/>
<path d="M65.6716 9.93992C65.94 9.93992 66.3431 9.66905 66.3431 9.39812V3.43828C66.3431 3.16735 65.94 2.89648 65.6716 2.89648C65.2684 2.89648 65 3.16735 65 3.43828V9.39812C65 9.66905 65.2684 9.93992 65.6716 9.93992Z" fill="#0A0620"/>
<path d="M60.57 9.93992H61.9132C63.7931 9.93992 64.4647 8.85633 64.4647 7.63728C64.4647 6.1473 63.5247 5.33458 61.9132 5.33458H61.2416V3.43828C61.2416 3.16735 60.9732 2.89648 60.57 2.89648C60.1668 2.89648 59.8984 3.16735 59.8984 3.43828V9.12726C59.8984 9.53359 60.1668 9.93992 60.57 9.93992ZM61.2416 6.55363H61.9132C62.7189 6.55363 63.1215 6.82456 63.1215 7.63728C63.1215 8.04361 62.8531 8.5854 61.9132 8.5854H61.2416V6.55363Z" fill="#0A0620"/>
<path d="M70.2396 2.48999C70.777 2.48999 71.5827 2.0836 71.7169 1.54181C71.8511 1.13545 71.5827 1 71.3138 1C71.0454 1 70.9112 1.13545 70.777 1.27088C70.6422 1.40634 70.3738 1.54181 70.2396 1.54181C70.1054 1.54181 69.8364 1.40634 69.7022 1.27088C69.568 1.13545 69.4338 1 69.1648 1C68.8965 1 68.6281 1.13545 68.7623 1.54181C68.8965 2.0836 69.7022 2.48999 70.2396 2.48999Z" fill="#0A0620"/>
<path d="M72.1175 2.89648C71.8492 2.89648 71.5802 3.03189 71.446 3.16735C70.506 4.79279 70.1034 5.60551 69.1629 7.23089V3.43828C69.1629 3.16735 68.7603 2.89648 68.4913 2.89648C68.0887 2.89648 67.8203 3.16735 67.8203 3.43828V9.26266C67.8203 9.66905 68.0887 9.93992 68.4913 9.93992C68.7603 9.93992 69.0287 9.80451 69.1629 9.66905L71.446 5.60551V9.39812C71.446 9.66905 71.715 9.93992 72.1175 9.93992C72.5207 9.93992 72.7891 9.66905 72.7891 9.39812V3.57374C72.7891 3.16735 72.5207 2.89648 72.1175 2.89648Z" fill="#0A0620"/>
<path d="M36.9332 19.8286C37.3362 19.8286 37.7391 19.5577 37.7391 19.2868V14.0042H39.7535C40.1565 14.0042 40.4251 13.7333 40.4251 13.4624C40.4251 13.056 40.1565 12.7852 39.7535 12.7852H37.0675C36.6647 12.7852 36.2617 13.1915 36.2617 13.4624V19.2868C36.2617 19.5577 36.6647 19.8286 36.9332 19.8286Z" fill="#0A0620"/>
<path d="M45.2565 19.2868C45.2565 19.5577 45.5251 19.8286 45.928 19.8286C46.3309 19.8286 46.5995 19.5577 46.5995 19.2868V13.3269C46.5995 13.056 46.3309 12.7852 45.928 12.7852C45.6594 12.7852 45.3908 12.9206 45.2565 13.056C44.3164 14.546 43.7792 15.4942 42.9734 17.1196V13.3269C42.9734 13.056 42.5705 12.7852 42.3019 12.7852C41.899 12.7852 41.4961 13.056 41.4961 13.3269V19.1513C41.4961 19.5577 41.899 19.8286 42.3019 19.8286C42.5705 19.8286 42.8391 19.6932 42.9734 19.5577L45.2565 15.4942V19.2868Z" fill="#0A0620"/>
<path d="M49.4212 14.0042H51.57V19.2868C51.57 19.5577 51.8386 19.8286 52.2415 19.8286C52.51 19.8286 52.913 19.5577 52.913 19.2868V13.4624C52.913 13.056 52.51 12.7852 52.2415 12.7852H48.7496C48.3467 12.7852 48.0781 13.056 48.0781 13.4624V19.2868C48.0781 19.5577 48.3467 19.8286 48.7496 19.8286C49.1525 19.8286 49.4212 19.5577 49.4212 19.2868V14.0042Z" fill="#0A0620"/>
<path d="M57.8827 19.8286C58.2853 19.8286 58.5537 19.5577 58.5537 19.1513C58.5537 18.745 58.1511 18.4741 57.8827 18.4741H55.7338V16.8487H57.6137C57.8827 16.8487 58.2853 16.5778 58.2853 16.3069C58.2853 15.9005 57.8827 15.6296 57.6137 15.6296H55.7338V14.0042H57.7479C58.1511 14.0042 58.4195 13.8687 58.4195 13.4624C58.4195 13.056 58.1511 12.7852 57.7479 12.7852H55.0621C54.6592 12.7852 54.3906 13.1915 54.3906 13.4624V19.0159C54.3906 19.5577 54.7935 19.8286 55.1964 19.8286H57.8827Z" fill="#0A0620"/>
<path d="M61.1088 19.2868V17.3905H61.9145C63.3919 17.3905 64.466 16.5778 64.466 15.0878C64.466 13.8687 63.7945 12.7852 61.9145 12.7852H60.4372C60.034 12.7852 59.7656 13.1915 59.7656 13.4624V19.2868C59.7656 19.5577 60.034 19.8286 60.4372 19.8286C60.7056 19.8286 61.1088 19.5577 61.1088 19.2868ZM61.1088 14.0042H61.9145C62.8545 14.0042 62.9887 14.546 62.9887 15.0878C62.9887 15.7651 62.5861 16.1714 61.9145 16.1714H61.1088V14.0042Z" fill="#0A0620"/>
<path d="M68.7621 18.4741C69.0305 18.4741 69.1647 18.3387 69.2995 18.0677L70.5079 15.9005V19.2868C70.5079 19.5577 70.7769 19.8286 71.1794 19.8286C71.5826 19.8286 71.851 19.5577 71.851 19.2868V13.3269C71.851 13.056 71.5826 12.7852 71.1794 12.7852C70.9111 12.7852 70.6421 12.7852 70.5079 13.056L68.7621 16.5778L67.0164 13.056C66.8816 12.7852 66.6132 12.7852 66.3448 12.7852C65.9416 12.7852 65.5391 13.056 65.5391 13.3269V19.2868C65.5391 19.5577 65.8075 19.8286 66.2106 19.8286C66.6132 19.8286 67.0164 19.5577 67.0164 19.2868V15.9005L68.0906 18.0677C68.2248 18.3387 68.4937 18.4741 68.7621 18.4741Z" fill="#0A0620"/>
<path d="M76.552 13.3269C76.4178 13.056 76.1495 12.7852 75.7463 12.7852C75.2089 12.7852 75.0747 13.056 74.9405 13.3269L73.0606 19.0159C72.9258 19.0159 72.9258 19.1513 72.9258 19.2868C72.9258 19.5577 73.329 19.8286 73.7315 19.8286C73.8663 19.8286 74.2689 19.6932 74.2689 19.4223L74.6721 18.4741H76.6862L77.0894 19.4223C77.2236 19.6932 77.492 19.8286 77.761 19.8286C78.1636 19.8286 78.4326 19.5577 78.4326 19.2868C78.4326 19.1513 78.4326 19.0159 78.4326 19.0159L76.552 13.3269ZM75.0747 17.255L75.4779 15.6296C75.6121 15.3587 75.6121 14.9524 75.7463 14.6815C75.7463 14.9524 75.7463 15.3587 75.8805 15.6296L76.4178 17.255H75.0747Z" fill="#0A0620"/>
<path d="M81.7895 12.7852H80.3122C79.9096 12.7852 79.6406 13.1915 79.6406 13.4624V19.2868C79.6406 19.5577 79.9096 19.8286 80.3122 19.8286C80.7154 19.8286 80.9838 19.5577 80.9838 19.2868V17.3905H81.7895C83.2669 17.3905 84.341 16.5778 84.341 15.0878C84.341 13.8687 83.6701 12.7852 81.7895 12.7852ZM81.7895 16.1714H80.9838V14.0042H81.7895C82.7295 14.0042 82.9985 14.546 82.9985 15.0878C82.9985 15.7651 82.5953 16.1714 81.7895 16.1714Z" fill="#0A0620"/>
<path d="M90.117 13.3269C90.117 13.056 89.9828 12.7852 89.5796 12.7852C89.3112 12.7852 89.0428 12.7852 88.9087 13.056L87.0281 15.6296H86.8939V13.3269C86.8939 13.056 86.4907 12.7852 86.2224 12.7852C85.8192 12.7852 85.5508 13.056 85.5508 13.3269V19.2868C85.5508 19.5577 85.8192 19.8286 86.2224 19.8286C86.4907 19.8286 86.8939 19.5577 86.8939 19.2868V16.9842H87.0281L88.9087 19.5577C89.0428 19.8286 89.3112 19.8286 89.5796 19.8286C89.9828 19.8286 90.117 19.5577 90.117 19.1513C90.117 19.1513 90.117 19.0159 90.117 18.8805L88.1029 16.3069L90.117 13.7333C90.117 13.5979 90.117 13.4624 90.117 13.3269Z" fill="#0A0620"/>
<path d="M94.8157 18.4741H92.6668V16.8487H94.5473C94.9499 16.8487 95.2189 16.5778 95.2189 16.3069C95.2189 15.9005 94.8157 15.6296 94.5473 15.6296H92.6668V14.0042H94.6815C95.0847 14.0042 95.3531 13.8687 95.3531 13.4624C95.3531 13.056 95.0847 12.7852 94.6815 12.7852H92.13C91.5926 12.7852 91.3242 13.1915 91.3242 13.4624V19.0159C91.3242 19.5577 91.7268 19.8286 92.2642 19.8286H94.8157C95.2189 19.8286 95.4873 19.5577 95.4873 19.1513C95.4873 18.745 95.2189 18.4741 94.8157 18.4741Z" fill="#0A0620"/>
<path d="M100.589 12.7852H97.0974C96.6948 12.7852 96.4258 13.1915 96.4258 13.4624C96.4258 13.7333 96.6948 14.0042 97.0974 14.0042H98.1721V19.2868C98.1721 19.5577 98.4405 19.8286 98.8437 19.8286C99.2463 19.8286 99.5153 19.5577 99.5153 19.2868V14.0042H100.589C100.858 14.0042 101.261 13.7333 101.261 13.4624C101.261 13.056 100.858 12.7852 100.589 12.7852Z" fill="#0A0620"/>
<path d="M41.7677 22.5363C41.4991 22.5363 41.2305 22.6718 41.0962 22.9426L39.3503 26.4644L37.6044 22.9426C37.47 22.6718 37.3358 22.5363 36.9328 22.5363C36.53 22.5363 36.2613 22.9426 36.2613 23.2136V28.3607H3.35755C2.82035 28.3607 2.28315 28.2253 1.8802 27.8189C1.61163 27.4126 1.343 26.8708 1.343 26.3289V6.553C1.343 5.33395 2.28315 4.38576 3.35755 4.38576H31.9637C32.3666 4.38576 32.6352 4.1149 32.6352 3.70851C32.6352 3.30218 32.3666 3.03125 31.9637 3.03125H3.35755C1.47732 3.03125 0 4.65669 0 6.553V26.3289C0 27.2771 0.268599 28.0898 0.94012 28.7671C1.61163 29.4443 2.55172 29.8507 3.35755 29.8507H36.9328C36.9328 29.8507 37.0672 29.7153 37.2015 29.7153C37.47 29.5798 37.6044 29.4443 37.6044 29.1734V25.7871L38.8131 27.9543C38.9474 28.2253 39.0817 28.3607 39.3503 28.3607C39.6189 28.3607 39.8875 28.2253 40.0218 27.9543L41.2305 25.7871V29.1734C41.2305 29.4443 41.4991 29.7153 41.902 29.7153C42.1706 29.7153 42.5735 29.4443 42.5735 29.1734V23.2136C42.5735 22.9426 42.1706 22.5363 41.7677 22.5363Z" fill="#0A0620"/>
<path d="M47.5402 28.3608H45.3914V26.7354H47.2716C47.5402 26.7354 47.9431 26.4645 47.9431 26.1936C47.9431 25.7872 47.5402 25.5163 47.2716 25.5163H45.3914V23.8909H47.406C47.8088 23.8909 48.0774 23.7555 48.0774 23.3491C48.0774 22.9427 47.8088 22.6719 47.406 22.6719H44.7199C44.317 22.6719 43.9141 23.0782 43.9141 23.3491V28.9026C43.9141 29.4444 44.4513 29.7153 44.8542 29.7153H47.5402C47.8088 29.7153 48.2117 29.4444 48.2117 29.0381C48.2117 28.6317 47.8088 28.3608 47.5402 28.3608Z" fill="#0A0620"/>
<path d="M51.5722 25.2454H50.7664V23.8909H52.9152C53.3181 23.8909 53.5867 23.62 53.5867 23.3491C53.5867 22.9427 53.3181 22.6719 52.9152 22.6719H50.0949C49.6919 22.6719 49.2891 23.0782 49.2891 23.3491V28.9026C49.2891 29.309 49.6919 29.7153 50.0949 29.7153H51.5722C53.4524 29.7153 54.1239 28.6317 54.1239 27.4127C54.1239 26.0582 53.0495 25.2454 51.5722 25.2454ZM51.5722 28.3608H50.7664V26.4645H51.5722C52.2437 26.4645 52.6466 26.7354 52.6466 27.4127C52.6466 27.9545 52.5123 28.3608 51.5722 28.3608Z" fill="#0A0620"/>
<path d="M58.8255 28.3608H56.6766V26.7354H58.4223C58.8255 26.7354 59.0939 26.4645 59.0939 26.1936C59.0939 25.7872 58.8255 25.5163 58.4223 25.5163H56.6766V23.8909H58.6913C59.0939 23.8909 59.3623 23.7555 59.3623 23.3491C59.3623 22.9427 59.0939 22.6719 58.6913 22.6719H56.005C55.6024 22.6719 55.1992 23.0782 55.1992 23.3491V28.9026C55.1992 29.4444 55.7366 29.7153 56.1392 29.7153H58.8255C59.0939 29.7153 59.4971 29.4444 59.4971 29.0381C59.4971 28.6317 59.0939 28.3608 58.8255 28.3608Z" fill="#0A0620"/>
<path d="M65.4024 22.6719H62.7167C62.3135 22.6719 61.9109 23.0782 61.9109 23.3491L61.6419 27.819C61.5078 28.2253 61.5078 28.4963 61.3736 28.4963H61.2394H61.1052C60.702 28.4963 60.4336 28.6317 60.4336 29.0381C60.4336 29.7153 60.9704 29.7153 61.3736 29.7153C62.4477 29.7153 62.8509 28.9026 62.9851 27.819L63.2541 23.8909H64.7308V29.1735C64.7308 29.4444 65.134 29.7153 65.4024 29.7153C65.8056 29.7153 66.074 29.4444 66.2082 29.1735V23.3491C66.2082 23.0782 65.8056 22.6719 65.4024 22.6719Z" fill="#0A0620"/>
<path d="M71.9867 22.5371C71.7183 22.5371 71.4493 22.808 71.3151 22.9434C70.3752 24.4334 69.8378 25.3816 69.032 27.007V23.2144C69.032 22.9434 68.6294 22.5371 68.2263 22.5371C67.9579 22.5371 67.5547 22.9434 67.5547 23.2144V29.0388C67.5547 29.4451 67.9579 29.7161 68.3605 29.7161C68.6294 29.7161 68.8978 29.5806 69.032 29.4451L71.3151 25.3816V29.1742C71.3151 29.4451 71.5835 29.7161 71.9867 29.7161C72.3899 29.7161 72.6583 29.4451 72.6583 29.1742V23.2144C72.6583 22.9434 72.3899 22.5371 71.9867 22.5371Z" fill="#0A0620"/>
</svg>
