<svg width="97" height="80" viewBox="0 0 97 80" fill="none" xmlns="http://www.w3.org/2000/svg">
<path d="M33.9977 79.0106C33.1631 80.1105 31.5949 80.3255 30.495 79.4909C29.3951 78.6562 29.1801 77.088 30.0147 75.9881L32.0062 77.4994L33.9977 79.0106ZM-0.00156825 -6.00711e-05L26.6959 10.9808L3.83741 28.611L-0.00156825 -6.00711e-05ZM32.0062 77.4994L30.0147 75.9881C41.56 60.7739 51.5069 50.1625 59.9071 43.0495C68.2762 35.9627 75.2575 32.2226 80.8753 30.9913C86.5654 29.7441 91.1393 31.0537 93.8808 34.4236C96.5167 37.6639 96.9439 42.2005 95.7984 46.3942C93.4611 54.951 84.4123 63.1983 69.8144 61.4821C55.4559 59.7939 36.0151 48.5363 11.8179 19.4152L13.7407 17.8175L15.6635 16.2198C39.5893 45.0142 57.9668 55.0547 70.3982 56.5163C82.5903 57.9497 89.303 51.1982 90.9751 45.0767C91.8343 41.9313 91.3281 39.2089 90.0021 37.5789C88.7816 36.0786 86.3651 34.9067 81.9458 35.8753C77.4541 36.8598 71.207 40.0328 63.1382 46.8653C55.1004 53.6714 45.3998 63.9851 33.9977 79.0106L32.0062 77.4994Z" fill="#6DC256"/>
</svg>
