<svg width="71" height="30" viewBox="0 0 71 30" fill="none" xmlns="http://www.w3.org/2000/svg">
<path fill-rule="evenodd" clip-rule="evenodd" d="M0.015625 13.7739V21.8515H4.9379H9.86018V20.379V18.9065H6.53659H3.213V12.3014V5.69629H1.61431H0.015625V13.7739ZM13.0576 8.86598C12.562 8.90141 11.3731 9.059 11.1854 9.11412C11.0522 9.15333 11.0382 9.30234 11.0382 10.677V12.1967L11.3922 12.1401C12.3958 11.9796 13.5044 11.9267 14.2483 12.0039C15.565 12.1404 16.1762 12.4307 16.9993 13.3108C17.4673 13.8111 17.6458 14.1242 18.7839 16.4422C19.4793 17.8588 20.2499 19.324 20.4962 19.6984C21.5697 21.3299 22.5967 21.9206 24.2012 21.8294C24.6205 21.8056 25.0299 21.7589 25.1108 21.7256C25.2431 21.6713 25.2581 21.5167 25.2581 20.2087V18.7522L24.8241 18.6591C24.2702 18.5403 23.6307 18.1925 23.324 17.8432C22.9337 17.3986 22.5078 16.6115 21.6686 14.7836C21.2331 13.8349 20.7258 12.8046 20.5414 12.4942C19.7242 11.1182 18.7672 10.1928 17.5591 9.6103C16.674 9.18362 16.0049 9.00633 14.8568 8.89476C14.0402 8.81533 13.8163 8.81171 13.0576 8.86598ZM30.5305 8.89686C28.2469 9.09754 26.732 9.88687 26.1312 11.1889C25.906 11.6769 25.8896 11.7838 25.8894 12.7657C25.8891 13.7868 25.8975 13.8361 26.1661 14.3819C26.5856 15.2345 27.2282 15.7204 28.4554 16.1133C28.7562 16.2095 29.8875 16.5199 30.9694 16.803C33.2295 17.3945 33.529 17.5007 33.7579 17.7917C34.1177 18.249 33.899 18.7221 33.2349 18.9231C32.5543 19.1291 28.5739 19.0359 26.6254 18.7683L26.2678 18.7191V20.192C26.2678 21.889 26.1283 21.6755 27.3616 21.8668C27.8407 21.9411 28.9519 21.9777 30.7273 21.9777C33.1918 21.9777 33.4292 21.9645 34.1126 21.7903C35.5339 21.4278 36.4123 20.8158 36.8825 19.8606C37.1118 19.3949 37.1534 19.2071 37.1885 18.4791C37.2392 17.4249 37.0707 16.723 36.624 16.1286C35.8865 15.1471 35.1597 14.804 32.0904 13.9887C30.7874 13.6426 29.6074 13.3005 29.4682 13.2285C29.1923 13.0858 29.0797 12.8021 29.1647 12.4635C29.2029 12.311 29.3361 12.1929 29.6155 12.0639C29.9922 11.8899 30.1214 11.8811 32.1997 11.8884C33.7767 11.8941 34.644 11.9351 35.3066 12.0357C35.8121 12.1124 36.2768 12.1752 36.3393 12.1752C36.4311 12.1752 36.4485 11.8976 36.4299 10.726L36.4068 9.27685L36.0282 9.21096C34.359 8.92084 31.8734 8.77881 30.5305 8.89686ZM43.0961 8.90073C40.2706 9.14003 38.7792 10.0933 38.3946 11.9058C38.1292 13.1567 38.4226 14.3795 39.1677 15.1284C39.7392 15.7028 40.6173 16.0577 43.0091 16.6812C46.1249 17.4933 46.3776 17.609 46.3776 18.2236C46.3776 18.5939 46.2374 18.748 45.7465 18.9169C45.1224 19.1317 41.2768 19.0452 39.1204 18.7679L38.7207 18.7165V20.1889V21.6613L39.2045 21.7528C40.3747 21.974 41.4791 22.0345 43.6989 21.9992C45.7163 21.9671 46.08 21.9405 46.6588 21.7823C48.509 21.2767 49.4313 20.3666 49.6715 18.8099C49.8498 17.6536 49.4921 16.4011 48.7906 15.7252C48.4426 15.39 47.6423 14.9122 47.0699 14.6981C46.8202 14.6047 45.6063 14.2616 44.3722 13.9356C43.1381 13.6095 42.0415 13.2864 41.9353 13.2174C41.5283 12.9529 41.5313 12.4064 41.9413 12.1377C42.296 11.9053 43.4444 11.8115 45.2417 11.8683C46.1672 11.8975 47.1895 11.9588 47.5135 12.0044C47.8374 12.05 48.3012 12.1122 48.5442 12.1428L48.986 12.1983V10.762C48.986 9.46759 48.9714 9.32119 48.8387 9.28013C48.4904 9.17234 46.9114 8.97722 45.7456 8.89787C44.3534 8.80321 44.2466 8.8033 43.0961 8.90073ZM62.6739 8.90141C61.7869 8.99506 60.8549 9.25892 60.0926 9.63209C59.1485 10.0944 58.1251 11.1337 57.6715 12.091C57.2066 13.072 57.0597 13.714 57.0071 14.9939C56.9701 15.8946 56.9925 16.2343 57.1343 16.9178C57.7026 19.6576 59.6203 21.3355 62.8172 21.8901C64.1611 22.1232 67.1091 22.057 68.5699 21.7608L69.0116 21.6712V20.2047C69.0116 19.3981 69.0021 18.7382 68.9906 18.7382C68.979 18.7382 68.7044 18.7938 68.3806 18.8617C67.3374 19.0805 65.5256 19.1806 64.4393 19.0796C62.3416 18.8844 61.0894 18.1858 60.3959 16.824L60.2566 16.5505H65.0931H69.9295L69.986 16.2496C70.017 16.0841 70.025 15.4309 70.0036 14.7981C69.9697 13.7929 69.9324 13.5546 69.7082 12.9105C69.371 11.9414 69.0052 11.3399 68.3385 10.6584C67.3808 9.67946 66.1101 9.08307 64.5942 8.90099C63.7584 8.80052 63.6286 8.80061 62.6739 8.90141ZM51.7626 15.5006V21.8552L53.3403 21.8323L54.9179 21.8094L54.9395 15.4777L54.9611 9.14609H53.3618H51.7626V15.5006ZM62.2803 11.997C61.6388 12.204 61.363 12.3611 60.9986 12.7266C60.703 13.0232 60.4311 13.4915 60.3051 13.9211L60.2495 14.1104H63.5748H66.9L66.7803 13.7126C66.533 12.8907 65.8408 12.2304 64.9492 11.9656C64.3442 11.7859 62.881 11.8031 62.2803 11.997ZM13.352 15.3177C11.7492 15.8477 10.86 17.2042 10.9785 18.9389C11.0631 20.179 11.7751 21.2293 12.8893 21.7581C13.3114 21.9584 13.4444 21.9777 14.4038 21.9777C15.3632 21.9777 15.4962 21.9584 15.9184 21.7581C17.286 21.109 18.0342 19.6275 17.7903 18.0515C17.6088 16.8799 16.9647 15.9993 15.9353 15.5157C15.4379 15.282 15.2722 15.2481 14.53 15.2286C13.9997 15.2146 13.5642 15.2475 13.352 15.3177Z" fill="#0A0620"/>
</svg>
