<svg width="62" height="30" viewBox="0 0 62 30" fill="none" xmlns="http://www.w3.org/2000/svg">
<path d="M52.662 25.9999C56.1945 25.9999 58.3551 22.7275 58.3551 17.5287C58.3551 12.2418 56.1945 9.05957 52.662 9.05957C49.1584 9.05957 46.9688 12.2418 46.9688 17.5287C46.9688 22.7275 49.1584 25.9999 52.662 25.9999ZM52.662 25.2949C51.0853 25.2949 50.0343 22.9625 50.0343 17.5287C50.0343 12.0362 51.0853 9.76446 52.662 9.76446C54.2677 9.76446 55.3188 12.0362 55.3188 17.5287C55.3188 22.9625 54.2677 25.2949 52.662 25.2949Z" fill="#0A0620"/>
<path d="M40.7807 11.487V24.2118L40.7807 24.4569C40.7807 25.0078 40.5864 25.481 40.0508 25.481V25.6469H40.7807H43.7586H44.4885V25.481C43.9529 25.481 43.7586 25.0079 43.7586 24.4569V24.2118V23.2325V11.826V11.487V9.41162H40.0508V9.57411C40.5864 9.57411 40.7808 10.0507 40.7808 10.6017L40.7807 11.487Z" fill="#0A0620"/>
<path d="M32.6603 26C36.2513 26 37.7404 24.2377 37.7404 21.5942C37.7404 16.6304 31.1714 15.6682 31.1714 11.9087C31.1714 10.3814 32.3975 9.76453 33.4779 9.76453C35.6645 9.76453 36.9177 11.3414 36.9177 13.2304H37.098V9.82327C37.098 9.82327 35.8428 9.05957 33.5654 9.05957C30.3247 9.05957 28.7773 11.2625 28.7773 13.0247C28.7773 17.8124 35.1419 18.7158 35.1419 22.769C35.1419 24.5608 33.9158 25.2949 32.6604 25.2949C30.3398 25.2949 29.2473 23.2973 29.2473 21.5354H29.0985V25.2656C29.0985 25.2656 30.4706 26 32.6603 26Z" fill="#0A0620"/>
<path d="M22.9728 11.0678V22.651C22.9728 22.651 22.3597 24.5307 20.5495 24.5307C18.6518 24.5307 18.3015 22.886 18.3015 20.4481V9.41162H14.5938V9.57411C15.1293 9.57411 15.3236 10.0507 15.3236 10.6017V20.4482C15.3236 23.7379 15.8784 25.9995 19.3526 25.9995C21.9509 25.9995 22.7977 23.7085 22.9729 23.1798V25.6469H26.6478V25.4707C26.1521 25.4707 25.9508 24.9136 25.9508 24.4454V11.826V11.0679V9.41162H22.2431V9.57411C22.7787 9.57411 22.973 10.0507 22.973 10.6017L22.9728 11.0678Z" fill="#0A0620"/>
<path d="M6.7079 24.8834V5.2276C6.7079 4.72012 7.11684 4.11753 7.43781 4.11753V4H3V4.11753C3.3718 4.11753 3.72992 4.73163 3.72992 5.2276V24.5604C3.72992 25.0629 3.42153 25.4679 3 25.5296V25.6471H12.8682V21.0652H12.6728C12.6728 22.3431 11.5953 24.8988 10.1821 24.8835L6.7079 24.8834Z" fill="#0A0620"/>
<path d="M42.2396 7.65758C43.0774 7.65758 43.7565 6.96565 43.7565 6.11212C43.7565 5.25858 43.0774 4.56665 42.2396 4.56665C41.4018 4.56665 40.7227 5.25858 40.7227 6.11212C40.7227 6.96565 41.4018 7.65758 42.2396 7.65758Z" fill="#0A0620"/>
</svg>
