<svg width="94" height="30" viewBox="0 0 94 30" fill="none" xmlns="http://www.w3.org/2000/svg">
<path d="M9.71925 14.2L11.1535 16.4235L14.046 11.9331V21.8764H16.5342V7.4139H13.993L9.71925 14.2ZM2.73585 7.4139H0.21875V21.8764H2.7166V11.9331L8.38129 20.7598L9.82513 18.5074L2.73585 7.4139ZM31.4972 17.3909L33.8026 21.8764H36.801L29.2737 7.4139H26.5689L26.5641 7.41872L30.3374 15.0855H25.3272L26.6315 12.5877L25.2695 9.86844L18.9262 21.8764H21.732L24.1048 17.3957L31.4972 17.3909ZM53.4196 7.4139H50.9218V14.4358L53.4196 16.8807V7.4139ZM41.3731 7.4139H38.8368V21.8764H41.3346V11.0668L51.5619 21.8764H53.4196V20.1197L41.3731 7.4139ZM70.8565 11.4278C69.6677 10.2246 67.834 9.45454 65.7789 9.45454C62.4966 9.45454 59.787 11.4182 59.3538 13.9641H56.6057C56.9667 10.008 61.1153 7.09626 65.8126 7.09626C68.6041 7.09626 71.1164 8.11176 72.8056 9.74331L70.8565 11.4278ZM65.5479 19.855C62.8094 19.855 60.4752 18.4064 59.6089 16.385H56.8078C57.7367 19.8743 61.38 22.1989 65.7067 22.1989C66.7126 22.1989 67.8677 22.1026 68.8255 21.8716C70.9912 21.347 73.3591 19.9754 73.3591 17.8096V13.9641H65.5239L65.519 16.385H70.8565V17.4823C70.8565 18.6951 68.9939 19.3978 67.8581 19.6433C67.2468 19.778 66.4576 19.855 65.8271 19.855H65.5479ZM93.9917 14.6572C93.9917 10.3449 89.973 7 85.0398 7C80.2607 7 76.0639 10.1909 76.0639 14.4262C76.0639 18.4208 79.3607 21.6213 83.7981 22.1267V19.7106C80.8912 19.2438 78.6965 17.131 78.6965 14.585C78.6965 11.6973 81.5217 9.35828 85.0013 9.35828C88.4858 9.35828 91.3061 11.7021 91.3061 14.585C91.3061 17.1117 89.1452 19.2101 86.2719 19.701V22.1219C90.5409 21.6165 93.9917 18.5363 93.9917 14.6572Z" fill="#0A0620"/>
</svg>
