<svg width="54" height="30" viewBox="0 0 54 30" fill="none" xmlns="http://www.w3.org/2000/svg">
<path d="M27.3513 11.4766L29.6664 7.44995L37.5285 6.94662L37.8036 6.45472L30.5374 5.95138L32.2451 3.01144H45.723C49.8718 3.01144 52.9319 4.49857 51.7399 8.83413C51.3847 10.1611 49.6999 13.4785 44.7488 14.8627C45.8032 14.9886 48.4163 16.1439 47.9579 19.1411C47.1556 24.4604 40.2677 26.9886 36.4283 26.9886L20.5092 27L19.7184 23.9228L28.0619 23.3394L28.3484 22.8475L19.2944 22.2984L18.3202 18.6492L31.1907 17.8942L31.4772 17.4137L8.36075 15.9724L9.47245 14.0505L34.3653 12.4376L34.6519 11.9571L27.3513 11.4766ZM37.7692 12.2774L40.0614 12.266C41.5971 12.2545 43.1902 11.5567 43.7747 10.1497C44.3133 8.83413 43.5913 7.71306 42.6286 7.7245H40.4052L37.7692 12.2774ZM35.1218 16.8418L32.3597 21.6349H34.9957C36.222 21.6349 38.411 21.0286 39.0872 19.2898C39.7175 17.6654 38.56 16.8418 37.7577 16.8418H35.1218ZM15.0424 24.2431L13.4379 26.9771L2 27L3.1117 25.0782L15.0424 24.2431ZM15.8447 3L25.0477 3.01144L25.7468 5.6082L14.7559 4.92183L15.8447 3ZM26.2625 7.6673L27.2711 11.4766L11.5583 10.4471L12.6586 8.5367L26.2625 7.6673ZM18.2629 18.6492L16.2687 22.1039L5.18611 21.4747L6.29781 19.5529L18.2629 18.6492Z" fill="#0A0620"/>
</svg>
