<svg width="145" height="30" viewBox="0 0 145 30" fill="none" xmlns="http://www.w3.org/2000/svg">
<path fill-rule="evenodd" clip-rule="evenodd" d="M141.098 10.8056C141.098 8.13762 138.881 5.41235 135.371 5.41235C131.861 5.41235 129.645 8.13835 129.645 10.8056C129.645 13.4722 131.861 16.1982 135.371 16.1982C138.881 16.1982 141.098 13.4722 141.098 10.8056ZM138.744 10.8056C138.744 12.9429 137.802 15.3746 135.371 15.3746C132.939 15.3746 131.998 12.9429 131.998 10.8056C131.998 8.64803 132.939 6.23595 135.371 6.23595C137.802 6.23595 138.744 8.64803 138.744 10.8056ZM121.918 16.0024H128.017V15.1781C126.409 15.1781 126.115 14.8845 126.115 13.6687V1L121.859 1.29435V2.11795C123.683 2.21583 123.958 2.37243 123.958 3.52953V13.6687C123.958 14.8845 123.663 15.1781 121.918 15.1781V16.0024ZM120.369 10.8056C120.369 8.13762 118.153 5.41235 114.643 5.41235C111.133 5.41235 108.916 8.13835 108.916 10.8056C108.916 13.4722 111.133 16.1982 114.643 16.1982C118.153 16.1982 120.369 13.4722 120.369 10.8056ZM118.016 10.8056C118.016 12.9429 117.075 15.3746 114.643 15.3746C112.211 15.3746 111.27 12.9429 111.27 10.8056C111.27 8.64803 112.211 6.23595 114.643 6.23595C117.075 6.23595 118.016 8.64803 118.016 10.8056ZM108.387 5.21588C108.387 2.17668 105.367 1.29362 101.896 1.29362H92.9336V2.11795C95.3457 2.11795 95.4638 2.52975 95.4638 4.2944V12.6877C95.4638 14.7663 95.2086 15.1781 92.8944 15.1781V16.0024H100.503V15.1781C98.0129 15.1781 97.8165 15.0802 97.8165 12.9821V9.25558H101.896C105.367 9.25558 108.387 8.2558 108.387 5.21588ZM105.641 5.23618C105.641 7.25603 104.151 8.4327 101.19 8.4327H97.8165V3.3925C97.8165 2.43187 98.4052 2.11795 99.8175 2.11795H101.327C104.289 2.11795 105.641 3.21633 105.641 5.23545L105.641 5.23618ZM91.2066 29.9253H92.2369V24.5263H91.2066V26.6795H89.7508V24.5263H88.7213V29.9246H89.7508V27.593H91.2066V29.9253ZM90.6397 2.76465C90.6397 1.68658 90.0118 1 89.1679 1C88.3052 1 87.7955 1.60828 87.7955 2.21583C87.7955 3.27433 88.6981 3.56868 89.247 3.78473C89.1295 4.49088 88.6387 5.17672 87.7759 5.98147L88.3255 6.51073C89.3448 5.58853 90.6397 4.45173 90.6397 2.76465ZM87.644 29.9253L86.1063 26.7252L87.5171 24.527H86.3752L84.8817 26.8673H84.8745V24.527H83.8443V29.9253H84.8738V28.3847L85.4045 27.5626L86.4941 29.9253H87.644ZM85.8743 8.64803C85.8743 5.09842 82.9917 1 77.6767 1C72.3624 1 69.4798 5.09843 69.4798 8.64875C69.4798 12.2172 72.3624 16.2961 77.6767 16.2961C82.9909 16.2961 85.8743 12.2172 85.8743 8.64803ZM83.1287 8.64803C83.1287 11.9229 81.5206 15.4732 77.6767 15.4732C73.8335 15.4732 72.2247 11.9229 72.2247 8.64803C72.2247 5.39278 73.8335 1.8236 77.6767 1.8236C81.5206 1.8236 83.1287 5.39278 83.1287 8.64803ZM66.7604 25.8211C66.7604 25.4847 67.0141 25.3049 67.365 25.3049C67.7456 25.3049 67.9994 25.5891 68.0668 25.9552L69.0376 25.6863C68.8585 25.0135 68.343 24.4523 67.3578 24.4523C66.2681 24.4523 65.7301 25.0809 65.7301 25.8436C65.7301 26.628 66.2304 27.0246 66.7981 27.361L67.2157 27.6075C67.6637 27.8692 68.0298 28.1005 68.0298 28.5043C68.0298 28.9386 67.7688 29.1474 67.3578 29.1474C66.8945 29.1474 66.5893 28.8712 66.4769 28.2731L65.5213 28.4978C65.6779 29.3874 66.2376 30 67.3578 30C68.4105 30 69.0601 29.3722 69.0601 28.4521C69.0601 27.7054 68.649 27.2704 68.0146 26.897L67.597 26.6505C67.1562 26.3895 66.7604 26.217 66.7604 25.8211ZM62.7337 13.7861L62.1457 13.2569C61.2634 14.2762 60.0469 14.9243 58.6744 14.9243C55.8506 14.9243 54.4578 13.0611 54.4578 10.6287C54.4578 8.31453 55.7918 6.33455 58.3605 6.33455C59.6546 6.33455 60.5573 6.80508 60.7922 7.17773L60.7726 7.21688C60.0476 7.21688 59.3806 7.64825 59.3806 8.5893C59.3806 9.37375 59.9686 9.88343 60.7922 9.88343C61.6353 9.88343 62.1457 9.178 62.1457 8.39355C62.1457 6.56945 60.3804 5.41235 58.106 5.41235C54.2229 5.41235 52.1045 8.1775 52.1045 10.8252C52.1045 13.8456 54.439 16.1982 57.8313 16.1982C59.9881 16.1982 61.5962 15.2767 62.7337 13.7861ZM50.3377 29.9246H51.3976V28.8639H50.3377V29.9246ZM50.6342 7.49093C50.6342 6.21638 49.7511 5.41235 48.2997 5.41235C46.4176 5.41235 44.8683 6.90295 44.0838 9.1577H44.0258V5.31448L39.7701 5.60883V6.43243C41.5934 6.5303 41.8682 6.6869 41.8682 7.844V13.9819C41.8682 15.0607 41.6725 15.218 39.9462 15.218V16.0024H46.1827V15.2173C43.9859 15.2173 44.0251 15.0991 44.0251 13.5302C44.0251 9.92185 46.0058 6.33383 48.2221 6.33383C48.3983 6.33383 48.5752 6.3534 48.6535 6.37225V6.41213C48.32 6.5883 47.8487 7.01967 47.8487 7.68668C47.8495 8.04536 47.9924 8.38913 48.2461 8.64269C48.4998 8.89626 48.8436 9.03895 49.2023 9.03953C50.0854 9.03953 50.6342 8.35295 50.6342 7.4902V7.49093ZM38.5738 15.2376L38.0446 14.6684C37.8677 14.8258 37.5733 15.0411 37.1224 15.0411C36.3966 15.0411 36.2988 14.4923 36.2988 13.6099V9.21642C36.2988 6.21638 34.0237 5.41235 31.5138 5.41235C29.9057 5.41235 28.4738 5.82415 27.6111 6.58903C27.1398 7.0204 26.8462 7.49092 26.8462 8.1775C26.8462 8.9228 27.4153 9.53035 28.1606 9.53035C28.9248 9.53035 29.5331 8.96195 29.5331 8.1775C29.5331 7.53008 29.1017 7.0987 28.5913 6.92252V6.88338C29.18 6.58903 30.1015 6.33455 31.2593 6.33455C33.2784 6.33455 34.1419 7.31475 34.1419 9.43248V9.70725L31.9451 10.0995C29.0038 10.6287 26.3554 11.1391 26.3554 13.4925C26.3554 15.139 27.9054 16.1982 29.8078 16.1982C32.0626 16.1982 33.3966 15.218 34.102 13.9819H34.1607C34.2789 15.4536 35.0634 16.1982 36.4162 16.1982C37.6125 16.1982 38.2795 15.5906 38.5738 15.2376ZM34.1419 11.4531C34.1419 13.3163 32.8478 14.9236 30.6314 14.9236C29.5722 14.9236 28.7102 14.4139 28.7102 13.3156C28.7102 11.9236 30.0036 11.374 32.122 10.9426L34.1419 10.5309V11.4523V11.4531ZM17.0022 16.0024H24.4349V15.1781C22.1207 15.1781 21.8655 14.7663 21.8655 12.6877V4.2944C21.8655 2.52975 21.9829 2.11795 24.3957 2.11795V1.29435H18.2376L14.2566 11.8446H14.1783L10.3938 1.29435H4V2.11795C6.5491 2.11795 6.62813 2.334 6.62813 3.50995V12.1193C6.62813 14.6887 5.92198 15.1788 4 15.1788V16.0024H10.1973V15.1781C8.17673 15.1781 7.8048 14.5706 7.8048 12.6094V2.11795H8.17673L13.3148 16.4142H13.7658L19.1598 2.11723H19.5121V12.9821C19.5121 14.9831 19.3744 15.1788 17.0022 15.1788V16.0024ZM40.7691 24.5263H37.9474V29.9246H40.8438V29.0126H38.9776V27.5916H40.3435V26.6795H38.9776V25.4398H40.7684L40.7691 24.5263ZM42.7505 28.2723L41.7943 28.4971C41.9516 29.3867 42.512 29.9993 43.6314 29.9993C44.6841 29.9993 45.333 29.3714 45.333 28.4514C45.333 27.7046 44.9226 27.2697 44.2883 26.8963L43.8699 26.6498C43.4299 26.3888 43.034 26.2162 43.034 25.8204C43.034 25.484 43.2878 25.3042 43.6387 25.3042C44.0193 25.3042 44.273 25.5884 44.3405 25.9545L45.3105 25.6855C45.1314 25.0127 44.6167 24.4516 43.6314 24.4516C42.541 24.4516 42.0038 25.0802 42.0038 25.8428C42.0038 26.6273 42.504 27.0239 43.071 27.3603L43.4893 27.6068C43.9374 27.8685 44.3035 28.0998 44.3035 28.5036C44.3035 28.9379 44.0425 29.1467 43.6314 29.1467C43.1681 29.1467 42.8629 28.8705 42.7505 28.2723ZM49.6221 24.5263H46.1885V25.439H47.3898V29.9246H48.42V25.4398H49.6221V24.5263ZM55.3394 29.9246H56.3689V24.5263H55.3394V29.9246ZM59.0413 24.5263H57.9139V29.9246H58.855V26.4403H58.8695L60.4449 29.9246H61.4309V24.5263H60.4898V27.7264H60.4746L59.0413 24.5263ZM73.2585 24.5263H69.8249V25.439H71.027V29.9246H72.0565V25.4398H73.2593L73.2585 24.5263ZM74.2532 26.2612V28.1897C74.2532 29.5208 74.955 29.9993 75.9555 29.9993C76.956 29.9993 77.6578 29.5208 77.6578 28.1897V26.2612C77.6578 24.9301 76.956 24.4516 75.9555 24.4516C74.955 24.4516 74.2532 24.9301 74.2532 26.2612ZM75.2835 26.1263C75.2835 25.5282 75.5445 25.3643 75.9555 25.3643C76.3659 25.3643 76.6276 25.5282 76.6276 26.1263V28.3245C76.6276 28.9226 76.3666 29.0872 75.9555 29.0872C75.5452 29.0872 75.2835 28.9226 75.2835 28.3245V26.1263ZM79.0419 26.2612V28.1897C79.0419 29.5208 79.7437 29.9993 80.7442 29.9993C81.7447 29.9993 82.4457 29.5208 82.4457 28.1897V27.9657H81.4162V28.3245C81.4162 28.9226 81.1545 29.0872 80.7442 29.0872C80.3331 29.0872 80.0721 28.9226 80.0721 28.3245V26.1263C80.0721 25.5282 80.3331 25.3643 80.7442 25.3643C81.1545 25.3643 81.4155 25.5282 81.4155 26.1263V26.2764H82.4457V26.2612C82.4457 24.9301 81.7447 24.4516 80.7442 24.4516C79.7437 24.4516 79.0419 24.9301 79.0419 26.2612ZM93.7238 26.2612V28.1897C93.7238 29.5208 94.4256 29.9993 95.4261 29.9993C96.4266 29.9993 97.1284 29.5208 97.1284 28.1897V26.2612C97.1284 24.9301 96.4266 24.4516 95.4261 24.4516C94.4256 24.4516 93.7238 24.9301 93.7238 26.2612ZM94.7541 26.1263C94.7541 25.5282 95.0151 25.3643 95.4261 25.3643C95.8365 25.3643 96.0975 25.5282 96.0975 26.1263V28.3245C96.0975 28.9226 95.8365 29.0872 95.4261 29.0872C95.0151 29.0872 94.7541 28.9226 94.7541 28.3245V26.1263ZM99.6174 24.5263H98.5864V29.9246H101.275V29.0126H99.6174V24.5263ZM103.828 24.5263H102.388V29.9246H103.268V25.679H103.283L104.381 29.9253H105.156L106.255 25.679H106.269V29.9253H107.15V24.5263H105.71L104.776 28.0701H104.762L103.828 24.5263Z" fill="#0A0620"/>
</svg>
