<svg width="131" height="30" viewBox="0 0 131 30" fill="none" xmlns="http://www.w3.org/2000/svg">
<path d="M12.3115 14.9487C11.5502 14.6277 10.4707 14.2772 9.08858 13.8973C8.09848 13.6215 7.33619 13.3825 6.83389 13.1889C6.34612 13.0026 5.9842 12.7711 5.7398 12.51C5.511 12.2637 5.39973 11.9437 5.39973 11.548C5.39973 10.9291 5.62852 10.4523 6.109 10.086C6.59675 9.71343 7.34348 9.52713 8.31899 9.52713C10.4187 9.52713 11.4899 10.4513 11.623 12.3532V12.5248H14.5506V12.3311C14.484 10.9217 13.9745 9.66922 13.0426 8.61037C12.0973 7.54416 10.5154 7 8.3429 7C6.44284 7 4.97125 7.43259 3.95934 8.29041C2.93911 9.15454 2.4212 10.3028 2.4212 11.7048C2.4212 12.7184 2.68743 13.5394 3.21991 14.1509C3.73782 14.7551 4.38054 15.2171 5.13453 15.5308C5.87396 15.836 6.8713 16.1644 8.10577 16.5002C9.15512 16.7759 9.93929 17.0148 10.4343 17.2085C10.9075 17.3948 11.284 17.6411 11.5575 17.9242C11.8165 18.1926 11.9423 18.5652 11.9423 19.0431C11.9423 19.7662 11.6688 20.2956 11.1145 20.6608C10.5383 21.0408 9.73233 21.2355 8.70482 21.2355C7.41835 21.2355 6.4574 20.945 5.83652 20.3703C5.22293 19.8041 4.92029 18.9978 4.94213 17.9842V17.7979H2V17.9842C2 19.5799 2.50232 20.9745 3.50071 22.1081C4.50638 23.249 6.23588 23.83 8.63823 23.83L8.66011 23.8153C10.6194 23.8153 12.1638 23.3827 13.2579 22.5407C14.3665 21.6828 14.9281 20.4524 14.9281 18.8799C14.9281 17.8505 14.6837 17.0159 14.2033 16.3823C13.73 15.756 13.0873 15.2792 12.3104 14.9508L12.3115 14.9487Z" fill="#0A0620"/>
<path d="M17.6641 23.4237H29.573V20.8356H20.7029V16.5633H28.7306V14.0435H20.7029V10.0166H29.573V7.42944H17.6641V23.4237Z" fill="#0A0620"/>
<path d="M35.9206 7.42944H32.8828V23.4237H44.1334V20.8356H35.9206V7.42944Z" fill="#0A0620"/>
<path d="M46.6875 23.4237H49.7178V16.8465H57.7167V14.2888H49.7178V10.0166H58.5591V7.42944H46.6875V23.4237Z" fill="#0A0620"/>
<path d="M80.0058 7.41699H75.179L72.5033 14.8437C72.0229 16.1035 71.4309 18.0128 70.7434 20.5179L70.6394 20.8831L70.5354 20.5252C69.8483 18.0202 69.2563 16.1109 68.7759 14.851L66.1002 7.42436H61.2734V23.4186H64.304V16.2751C64.304 14.5826 64.2663 12.4576 64.1854 9.95149C64.9021 12.166 65.6489 14.3132 66.4253 16.3414L69.0723 23.4176H72.2139L74.8609 16.3414C75.6369 14.2985 76.3908 12.1586 77.1009 9.95149C77.0199 12.4418 76.9823 14.5668 76.9823 16.2751V23.4186H80.0128L80.0058 23.4113V7.41699Z" fill="#0A0620"/>
<path d="M88.3519 7.42944L82.4979 23.1701L82.4023 23.4237H85.463L86.8451 19.6283H93.8303L95.2129 23.4237H98.2434L92.3363 7.42944H88.3519ZM92.9052 17.1086H87.7674L88.3001 15.6845C89.1278 13.3657 89.7933 11.4343 90.333 9.80817C90.8728 11.4406 91.5603 13.4173 92.3734 15.6845L92.9061 17.1086H92.9052Z" fill="#0A0620"/>
<path d="M106.795 7.42635H100.652V23.4206H106.795V23.428C109.449 23.428 111.504 22.6902 112.916 21.2503C114.32 19.8115 115.037 17.8506 115.037 15.4266C115.037 13.0026 114.328 11.0418 112.916 9.60298C111.503 8.1568 109.448 7.42529 106.795 7.42529V7.42635ZM111.911 15.4277C111.911 17.0381 111.468 18.358 110.596 19.3494C109.73 20.3335 108.422 20.8335 106.707 20.8335H103.691V10.0208H106.707C108.415 10.0208 109.723 10.5208 110.596 11.5049C111.468 12.4964 111.911 13.8163 111.911 15.4266V15.4277Z" fill="#0A0620"/>
<path d="M129.526 10.0166V7.42944H117.617V23.4237H129.526V20.8356H120.655V16.5633H128.683V14.0435H120.655V10.0166H129.526Z" fill="#0A0620"/>
</svg>
