<svg width="190" height="30" viewBox="0 0 190 30" fill="none" xmlns="http://www.w3.org/2000/svg">
<path d="M4.56151 4.19647C2.95035 4.70526 1.8819 5.67196 1.32223 7.11352C1.01696 7.87671 1 8.48725 1 15.1524C1 22.1567 1.01696 22.3772 1.35615 23.1403C1.8819 24.2597 2.81468 25.2264 3.84921 25.6843L4.73111 26.0913H12.0237H19.3164L20.2831 25.6164C21.3854 25.0737 22.2843 24.0901 22.7422 22.9368C23.0136 22.2584 23.0475 21.4783 23.0475 15.0676C23.0475 8.65685 23.0136 7.87671 22.7422 7.19832C22.2843 6.04507 21.3854 5.06141 20.2831 4.51871L19.3164 4.04384L12.2781 4.00992C6.9189 3.976 5.0703 4.02688 4.56151 4.19647ZM16.0432 8.47029C17.0099 8.79252 18.0783 9.69138 18.638 10.6581C19.1298 11.4891 19.469 13.1851 19.2316 13.609C19.1468 13.7617 19.062 13.7956 19.062 13.6938C19.062 13.3377 17.7222 12.1166 16.8233 11.6417C15.9414 11.1838 15.8566 11.1669 12.5834 11.116C9.80203 11.0651 9.17452 11.099 8.73357 11.3195C7.6312 11.8961 7.34289 13.5582 8.17391 14.474C8.78445 15.1693 9.49676 15.305 12.4986 15.322C14.7542 15.322 15.0256 15.3559 15.3309 15.6612C15.8057 16.136 15.9075 16.7296 15.6022 17.3402C15.1952 18.1033 14.3981 18.256 11.2436 18.1712C8.76749 18.1033 8.5131 18.0694 7.64816 17.6285C5.83348 16.7466 4.81591 15.0845 4.81591 13.0155C4.81591 11.099 6.32531 8.97908 8.10607 8.40245C8.39438 8.31766 10.1243 8.23286 11.9559 8.2159C14.5507 8.19894 15.4326 8.24982 16.0432 8.47029ZM16.7046 12.3032C18.3666 13.2868 19.2655 14.8132 19.2655 16.6787C19.2655 18.5443 18.3666 20.0707 16.7046 21.0543C15.9414 21.5122 15.8736 21.5122 12.3968 21.5631C8.13999 21.6309 7.59728 21.5122 6.25747 20.1724C5.27382 19.1888 4.81591 18.1203 4.81591 16.7805V15.9325L5.2399 16.5261C5.78261 17.2384 6.18964 17.5776 7.27505 18.1712C8.10607 18.6291 8.19087 18.6291 11.6506 18.68L15.1782 18.7308L15.7548 18.1542C16.2806 17.6285 16.3484 17.4589 16.3484 16.6787C16.3484 15.8986 16.2806 15.729 15.7718 15.2202L15.1952 14.6436H12.3799C8.80141 14.6436 8.37742 14.474 8.37742 13.0663C8.37742 12.7611 8.53006 12.388 8.75053 12.1336C9.1406 11.7435 9.1406 11.7435 12.5325 11.7944C15.8736 11.8453 15.9414 11.8453 16.7046 12.3032Z" fill="#0A0620"/>
<path d="M39.5821 7.74107C37.5978 8.21594 36.5463 8.96216 35.9188 10.3189C35.0708 12.1336 35.5457 14.067 37.089 15.1015C37.9031 15.6442 38.6832 15.9156 41.6172 16.6957C43.7541 17.2554 44.4495 18.0864 43.6524 19.104C42.7705 20.2064 39.8365 20.1725 37.4112 19.0192C36.8177 18.7478 36.3089 18.5443 36.2749 18.5782C36.258 18.5952 36.0036 19.1379 35.7153 19.7654C35.1556 21.0204 35.1387 20.9865 36.2919 21.5631C37.5639 22.2076 39.0563 22.5129 41.0236 22.5129C43.9068 22.5298 45.5688 21.8514 46.6542 20.2233C47.3156 19.2397 47.4174 17.5268 46.8917 16.4413C46.2302 15.1015 45.2805 14.5927 41.8038 13.7108C40.8371 13.4734 39.8195 13.1512 39.5482 13.0155C38.8867 12.6763 38.6663 12.0658 38.9715 11.3535C39.4464 10.2002 41.719 9.87798 43.9068 10.6751C44.5682 10.8956 45.2127 11.133 45.3653 11.1839C45.5688 11.2517 45.7384 11.0143 46.0946 10.1663C46.332 9.53879 46.5355 8.97912 46.5355 8.91128C46.5355 8.70777 45.4162 8.19898 44.4156 7.92762C43.1605 7.57147 40.6844 7.48668 39.5821 7.74107Z" fill="#0A0620"/>
<path d="M138.715 7.69034C136.086 8.23304 134.204 9.65765 133.135 11.9133C132.643 12.9817 132.609 13.1344 132.609 15.0678C132.609 17.0012 132.643 17.1538 133.152 18.2392C134.254 20.5796 136.324 22.0721 139.02 22.4791C141.157 22.8013 144.006 22.2417 145.617 21.1732L146.262 20.7492V17.7813V14.8134H144.735H143.209V17.0181V19.2059L142.327 19.4773C138.562 20.5966 135.408 18.0357 135.916 14.2707C136.069 13.1683 136.391 12.4899 137.121 11.7776C137.901 10.9805 138.901 10.5395 140.106 10.4378C141.428 10.336 142.48 10.6243 143.582 11.3706L144.413 11.9472L145.414 11.0653C145.974 10.5735 146.431 10.1325 146.431 10.0647C146.431 9.81029 145.227 8.87751 144.362 8.43656C142.819 7.65642 140.445 7.33419 138.715 7.69034Z" fill="#0A0620"/>
<path d="M55.6953 12.3033C55.6953 18.3578 56.0006 19.6637 57.7644 21.1562C58.9346 22.1737 60.0539 22.5129 62.2248 22.5129C64.9892 22.5129 66.6173 21.8006 67.7197 20.1216C68.7203 18.6292 68.8051 18.0865 68.8899 12.7273L68.9577 7.85985H67.2448H65.5319V12.3881C65.5319 14.9998 65.4471 17.2046 65.3623 17.5607C64.9722 18.9345 63.8529 19.7316 62.3096 19.7316C60.7662 19.7316 59.6469 18.9345 59.2568 17.5607C59.172 17.2046 59.0872 14.9998 59.0872 12.3881V7.85985H57.3913H55.6953V12.3033Z" fill="#0A0620"/>
<path d="M78.7617 15.0678V22.2756H80.0337H81.3057L81.3396 17.4082L81.3905 12.5239L85.359 17.4082L89.3106 22.2756H90.4808H91.651V15.0678V7.85998H90.2942H88.9375L88.9036 12.7274L88.8527 17.5948L84.9011 12.7274L80.9495 7.85998H79.8471H78.7617V15.0678Z" fill="#0A0620"/>
<path d="M101.488 15.0678V22.2756H106.831H112.173V20.9189V19.5621H108.527H104.88V13.711V7.85998H103.184H101.488V15.0678Z" fill="#0A0620"/>
<path d="M120.312 15.0678V22.2756H122.008H123.704V15.0678V7.85998H122.008H120.312V15.0678Z" fill="#0A0620"/>
<path d="M155.586 15.0678V22.2756H157.282H158.978V19.3077V16.3398H162.285H165.592V19.3077V22.2756H167.288H168.984V15.0678V7.85998H167.288H165.592V10.7431V13.6262H162.285H158.978V10.7431V7.85998H157.282H155.586V15.0678Z" fill="#0A0620"/>
<path d="M176.957 9.21675V10.5735H179.331H181.706V16.4246V22.2756H183.317H184.928V16.4246V10.5735H187.302H189.677V9.21675V7.85998H183.317H176.957V9.21675Z" fill="#0A0620"/>
</svg>
