<svg width="111" height="30" viewBox="0 0 111 30" fill="none" xmlns="http://www.w3.org/2000/svg">
<path fill-rule="evenodd" clip-rule="evenodd" d="M104.761 20.9755C103.178 20.9602 98.8715 20.5892 96.5136 20.5654C95.2126 20.5523 93.9121 20.6257 92.6213 20.7851C92.8142 21.0361 93.0177 21.278 93.2337 21.5088C93.9969 21.5161 96.15 21.6043 100.149 22.2667C103.474 22.8164 105.325 22.904 106.221 22.8954C107.129 22.2689 107.921 21.4979 108.566 20.6149C107.659 20.7735 105.972 20.9878 104.761 20.9755ZM100.04 22.5158C96.4766 21.8975 94.3812 21.7457 93.4284 21.7126C94.3471 22.6452 95.4499 23.3869 96.6704 23.8931C97.8909 24.3993 99.2039 24.6594 100.53 24.658C102.456 24.658 104.252 24.1198 105.771 23.1887C104.779 23.1648 102.989 23.0276 100.04 22.5158Z" fill="#0A0620"/>
<path fill-rule="evenodd" clip-rule="evenodd" d="M58.0774 22.5513C57.6283 22.2881 57.5379 21.982 57.5379 21.6759V6.75765C57.5379 5.96974 57.1799 5.7071 56.955 5.7071C56.4155 5.7071 53.9012 6.75765 53.3171 7.06375C52.7336 7.36985 53.182 7.76412 53.4515 7.89513C53.721 8.02614 53.9458 8.15776 53.9458 8.85813V12.1953C53.7109 11.8788 53.3127 11.6743 52.6859 11.6743C50.5623 11.6743 50.9058 13.173 49.7282 13.4956V12.6587C49.7282 11.8708 49.3689 11.6082 49.144 11.6082C48.6058 11.6082 46.0909 12.6587 45.5067 12.9648C44.9226 13.2709 45.3723 13.6652 45.6411 13.7962C45.9106 13.9278 46.1355 14.0588 46.1355 14.7592V21.6747C46.1355 21.9808 46.0456 22.2869 45.5965 22.5501C45.1475 22.8134 45.5513 23.4599 46.0456 23.4599H49.8173C50.311 23.4599 50.7155 22.8128 50.2664 22.5501C49.8173 22.2875 49.7275 21.9808 49.7275 21.6747V17.1799C50.007 16.294 50.6979 14.5186 51.7425 14.5186C52.1915 14.5186 52.0565 15.7008 53.0897 15.7008C53.3278 15.7008 53.6939 15.1987 53.9458 14.5498V21.6747C53.9458 21.9808 53.856 22.2869 53.4069 22.5501C52.9578 22.8134 53.3617 23.4599 53.856 23.4599H57.6283C58.1214 23.4617 58.5265 22.8146 58.0774 22.5513Z" fill="#0A0620"/>
<path fill-rule="evenodd" clip-rule="evenodd" d="M44.1538 19.9685C44.1538 20.8477 43.7432 20.8459 43.3146 20.8441C43.295 20.844 43.2753 20.8439 43.2556 20.8439L43.2412 20.8439L43.2224 20.844C42.8543 20.8459 41.8731 20.851 41.1779 19.1879C41.1572 18.981 41.1697 18.4465 41.8186 18.3057C41.8186 18.3057 44.917 17.1241 45.2762 16.9497C45.6355 16.774 45.6801 16.1617 45.6801 15.6799C45.6801 15.1994 44.917 11.5218 41.9982 11.5218C39.0794 11.5218 37.957 14.5859 37.957 17.912C37.957 21.2388 39.5737 23.777 42.4919 23.777C45.4106 23.777 45.8597 21.982 45.8597 20.8439C45.8603 19.5313 44.1538 19.2252 44.1538 19.9685ZM13.9343 22.5513C13.4852 22.2881 13.3954 21.982 13.3954 21.6759V12.6593C13.3954 11.8714 13.0361 11.6088 12.8119 11.6088C12.273 11.6088 9.75875 12.6593 9.17462 12.9654C8.59112 13.2715 9.0402 13.6658 9.30903 13.7968C9.57848 13.9284 9.80334 14.0594 9.80334 14.7598V21.6753C9.80334 21.9814 9.71352 22.2875 9.26444 22.5507C9.18127 22.5959 9.11835 22.6697 9.08794 22.7577C9.049 22.6609 8.96421 22.5618 8.82665 22.4638C8.22844 22.0357 8.23261 21.815 8.24099 21.3722C8.24204 21.3166 8.24315 21.2575 8.24315 21.1941V8.76446C8.24315 8.69669 8.24267 8.63031 8.2422 8.56577V8.56564C8.23813 8.00522 8.23506 7.5829 8.5572 7.5829C9.30727 7.5829 9.77525 8.74251 10.1971 9.78776C10.2804 9.99415 10.3619 10.1961 10.4434 10.3837C10.937 11.5212 12.5538 10.909 12.3741 10.1211C12.2847 9.72873 12.1507 8.97819 12.0164 8.22622C11.8811 7.4682 11.7455 6.70872 11.655 6.31319C11.4753 5.52528 11.1613 5 10.8466 5C10.5319 5 9.99365 5.4812 9.99365 5.4812L6.19368 5.5467L2.39371 5.4812C2.39371 5.4812 1.85481 5 1.54076 5C1.22671 5 0.912037 5.52528 0.732402 6.31319C0.642584 6.70714 0.507858 7.46214 0.373132 8.21715C0.238405 8.97215 0.103679 9.72716 0.0138618 10.1211C-0.165773 10.909 1.45094 11.5218 1.94462 10.3837C2.02613 10.1961 2.10762 9.99415 2.19091 9.78777C2.61274 8.74251 3.08072 7.5829 3.83079 7.5829C4.15293 7.5829 4.14987 8.00472 4.14579 8.56546C4.14532 8.63009 4.14484 8.69657 4.14484 8.76446V21.1941C4.14484 21.2575 4.14595 21.3165 4.147 21.3721C4.15537 21.8149 4.15954 22.0357 3.56071 22.4638C2.88739 22.9444 3.47089 23.4611 4.5487 23.4611H7.83803C8.50507 23.4611 8.98179 23.264 9.08982 22.9995C9.16268 23.2376 9.42209 23.4611 9.71289 23.4611H13.4846C13.9789 23.4617 14.3834 22.8146 13.9343 22.5513ZM76.6703 21.6759C76.6703 21.982 76.7594 22.2881 77.2085 22.5513C77.6576 22.8146 77.2538 23.4617 76.7613 23.4599H73.3671C72.8728 23.4599 72.4696 22.8134 72.918 22.5501C73.3665 22.2869 73.4563 21.9808 73.4563 21.6747C73.4563 20.7123 73.1385 14.1904 72.1951 14.1904C71.795 14.1904 71.4395 14.5927 71.4395 14.8626V21.6747C71.4395 21.9808 71.5299 22.2875 71.979 22.5501C72.4281 22.8128 72.023 23.4599 71.5299 23.4599H67.7576C67.5667 23.4599 67.3895 23.3631 67.2696 23.2291C67.137 23.368 66.8525 23.4599 66.2477 23.4599H64.2723C64.131 23.4599 64.0266 23.3544 63.9272 23.2539C63.8365 23.1623 63.7499 23.0748 63.643 23.0748C63.5626 23.0748 63.4707 23.1242 63.3528 23.1877C63.1417 23.3013 62.847 23.4599 62.3855 23.4599H59.2425C58.8833 23.4599 57.8061 22.5501 57.8061 20.7551C57.8061 18.9614 58.7212 17.5086 60.5898 16.5976C60.7445 16.522 60.9735 16.4645 61.2214 16.4023C61.8358 16.2482 62.5658 16.0651 62.5658 15.5036C62.5658 14.5406 62.1613 13.4466 61.4434 13.4466C60.7242 13.4466 60.4102 13.5342 60.4102 13.5342C60.4102 13.5342 61.0383 13.8409 61.0383 14.8033C61.0383 15.7669 60.4541 15.9414 59.691 15.9414C58.9279 15.9414 57.9405 15.8097 57.9405 14.3221C57.9405 12.8332 59.6464 11.9143 61.6217 11.9143C61.6578 11.9143 61.6938 11.9142 61.7297 11.9142L61.7909 11.914C63.7048 11.9104 65.4942 11.907 65.8432 16.1158C66.2024 20.449 66.2024 20.6235 66.2024 21.0184C66.2024 21.412 66.2923 21.7194 66.6515 21.7194C66.9756 21.7194 67.2978 22.1467 67.3581 22.5195C67.7626 22.2636 67.8462 21.9691 67.8462 21.6753V14.7598C67.8462 14.0594 67.6219 13.9284 67.3531 13.7968C67.083 13.6658 66.6339 13.2715 67.2181 12.9654C67.8022 12.6593 70.3158 11.6088 70.8554 11.6088C71.0802 11.6088 71.4382 11.8714 71.4382 12.6593V12.7769C71.6194 12.6756 71.7621 12.5328 71.9093 12.3854C72.2213 12.0731 72.5536 11.7404 73.3162 11.7404C76.7426 11.7404 76.6792 20.4338 76.6708 21.5827V21.5833C76.6705 21.6239 76.6703 21.655 76.6703 21.6759ZM33.2786 11.7409C33.4735 11.5815 33.6533 11.4343 34.2299 11.4343C35.2185 11.4343 37.8672 12.7475 37.8653 17.4719C37.8653 23.4684 36.0244 23.7305 34.3179 23.7305C32.8099 23.7305 32.4592 23.3205 32.1192 22.923C32.0746 22.8708 32.0301 22.8189 31.9832 22.7681C31.5794 22.3303 31.2653 22.1993 31.1303 22.4179C30.4696 23.4916 30.1979 23.4762 29.9538 23.4623C29.9267 23.4608 29.8998 23.4593 29.8728 23.4593C29.8552 23.4593 29.8365 23.4599 29.8171 23.4605C29.6192 23.4669 29.3414 23.4758 29.2001 22.877C29.1939 23.1544 28.8968 23.4593 28.557 23.4593H25.1628C24.6691 23.4593 24.2652 22.8128 24.7137 22.5495C25.1621 22.2863 25.2526 21.9802 25.2526 21.6741C25.2526 20.7117 24.9335 14.1898 23.9907 14.1898C23.6918 14.1898 23.3488 14.4035 23.3488 14.6367L23.3495 21.6741C23.3495 21.9802 23.4393 22.2869 23.8884 22.5495C24.3374 22.8122 23.9329 23.4593 23.4393 23.4593H20.045C19.5507 23.4593 19.1469 22.8128 19.596 22.5495C20.045 22.2863 20.1349 21.9802 20.1349 21.6741V15.0653C20.1349 14.2774 19.8145 14.0147 19.4107 14.0147C19.0187 14.0147 18.5156 14.4525 18.5156 15.1326V21.6747C18.5156 21.9808 18.6055 22.2875 19.0545 22.5501C19.5036 22.8128 19.0991 23.4599 18.6055 23.4599H14.8337C14.3401 23.4599 13.9356 22.8134 14.3847 22.5501C14.8337 22.2869 14.9236 21.9808 14.9236 21.6747V14.7592C14.9236 14.0588 14.6987 13.9278 14.4293 13.7962C14.1598 13.6652 13.7107 13.2709 14.2948 12.9648C14.879 12.6587 17.3932 11.6082 17.9321 11.6082C18.157 11.6082 18.5163 11.8708 18.5163 12.6587V12.8313C18.8614 12.7434 19.0401 12.541 19.2302 12.3256C19.5325 11.9833 19.8637 11.6082 20.9382 11.6082C21.994 11.6082 22.6102 12.1836 22.955 12.8858C23.2856 12.8059 23.4913 12.6001 23.7068 12.3847C24.0191 12.0724 24.3518 11.7398 25.1144 11.7398C28.5404 11.7398 28.4773 20.4346 28.4689 21.5824C28.4686 21.6231 28.4684 21.6543 28.4684 21.6753C28.4684 21.9814 28.5576 22.2875 29.0067 22.5507C29.0784 22.5899 29.1355 22.6501 29.17 22.7228C29.1336 22.5024 29.111 22.2195 29.111 21.8498V8.76385L29.111 8.7039C29.1112 8.0564 29.1112 7.92864 28.8497 7.80146C28.5808 7.66984 28.1318 7.05702 28.7153 6.75091C29.2988 6.44481 31.5806 5.39427 32.1195 5.39427C32.3438 5.39427 32.703 5.6569 32.703 6.44481V12.0483C32.9975 11.971 33.1417 11.853 33.2786 11.7409ZM96.5111 20.3633C97.8072 20.3633 99.6931 20.4623 101.392 20.5514C102.784 20.6244 104.05 20.6909 104.762 20.6909C106.103 20.6909 108.022 20.4086 108.824 20.2427C109.847 18.6946 110.39 16.8914 110.387 15.05C110.387 14.1892 110.27 13.3548 110.052 12.5608L104.771 13.8745L105.339 12.8283C106.588 12.6373 108.18 12.2479 109.675 11.4612C109.561 11.1852 109.434 10.9143 109.294 10.6494C108.012 11.2702 106.872 11.5555 105.966 11.6737L106.79 10.1542L108.921 10.0091C108.734 9.71522 108.533 9.43176 108.316 9.15994H105.854L106.823 7.65637C106.622 7.49413 106.415 7.33924 106.201 7.19231L104.222 9.87929L103.645 8.76568L103.74 8.37204L105.617 6.8207C105.412 6.7001 105.203 6.58684 104.989 6.48032L103.001 7.52107L101.979 5.5467C101.683 5.50424 101.385 5.47482 101.087 5.45854L102.173 8.17919L101.855 8.45897L100.248 5.44753C100.153 5.44997 100.06 5.45426 99.9656 5.45977L98.734 7.98818L97.4558 5.92137C97.0412 6.05422 96.6374 6.21217 96.2486 6.39522L96.1895 8.06165L94.3693 7.55229C93.9925 7.84615 93.6395 8.16695 93.3104 8.51101L95.5099 11.141L94.8963 11.1845L92.9209 8.94322C92.6816 9.22668 92.4587 9.5236 92.2527 9.83276L93.4793 11.2843L91.3978 11.4318C90.9176 12.581 90.6714 13.8103 90.673 15.0512C90.6697 17.0554 91.3126 19.01 92.5108 20.6388C92.9756 20.569 94.5433 20.3633 96.5111 20.3633ZM91.8092 15.0053L92.279 15.023H92.6056L93.5848 13.839L94.716 14.3668L94.1765 15.0959L95.4471 15.1437L97.859 13.1846L98.4689 13.8476L96.0401 15.1663L98.0631 15.2428L99.3193 14.772L99.7854 15.2796L99.6667 18.9908C97.2441 18.643 94.8285 18.3143 92.4335 18.2457C92.0194 17.2376 91.807 16.1616 91.808 15.0757C91.8072 15.0622 91.8078 15.0482 91.8084 15.0341C91.8086 15.0297 91.8088 15.0254 91.8089 15.021C91.809 15.0187 91.8091 15.0164 91.8091 15.014C91.8092 15.0111 91.8092 15.0082 91.8092 15.0053ZM104.766 14.8106L101.541 15.5924C101.541 15.5924 101.329 17.4578 101.772 19.2914C103.879 19.5846 105.987 19.8356 108.089 19.887C109.02 18.5065 109.561 16.8523 109.561 15.0769C109.561 14.6 109.521 14.1317 109.447 13.675L108.365 13.937C108.55 14.5345 109.174 15.2863 109.174 15.2863L108.501 15.5924C107.904 15.2838 107.333 14.5467 107.113 14.2406L105.853 14.5468L106.076 15.4179L105.223 15.4608L104.766 14.8106ZM103.979 12.9789L103.181 14.2694L102.438 14.4543L103.371 13.0077C103.524 13.004 103.729 12.996 103.979 12.9789ZM103.332 11.0853L103.048 10.3739L101.654 11.3198L101.72 13.2727L103.332 11.0853ZM100.573 11.8947L100.591 12.8167L100.148 12.7916L99.9939 12.1481L100.573 11.8947ZM100.647 10.516L99.8162 11.1049L99.3401 9.28239L100.194 7.36434L100.939 8.89486L100.647 10.516ZM105.14 10.2656L105.676 10.2289L104.74 11.7453C104.562 11.7425 104.383 11.7323 104.205 11.7147L105.14 10.2656ZM98.1404 11.9792L98.5964 10.9537L98.847 12.6599L98.1404 11.9792ZM98.0826 9.63991L97.2347 9.37483L97.3195 10.9096L98.0826 9.63991ZM97.1405 7.67044L97.604 8.4657L97.1813 8.41428L97.1405 7.67044ZM96.0564 9.00689L94.5804 8.5459L96.1311 10.0409L96.0564 9.00689ZM96.4659 12.0312L95.0401 12.0771L94.2393 13.0456L95.5677 13.5354L96.9602 12.4414L96.4659 12.0312ZM93.4762 12.1273L93.0974 12.625L91.8865 12.1787L93.4762 12.1273ZM92.5428 13.3529L92.0397 13.1185C91.9499 13.4931 91.8852 13.8764 91.8475 14.267L92.5428 13.3529ZM86.2788 22.5513C85.8298 22.2881 85.7406 21.982 85.7406 21.6759V7.1519C85.7406 6.364 85.3813 6.10136 85.1564 6.10136C84.9246 6.10136 84.3689 6.37719 83.7486 6.68507C83.3672 6.87439 82.9613 7.07584 82.5913 7.23272C82.3453 7.33713 82.0869 7.36523 81.8778 7.38797C81.7228 7.40483 81.5948 7.41874 81.5191 7.45862C80.935 7.76472 81.3841 8.15898 81.6542 8.29C81.9243 8.42101 82.1485 8.55263 82.1485 9.253V12.7071C81.9004 12.4842 81.3056 12.0471 80.4357 12.0471C79.2681 12.0471 76.8882 14.1917 76.8882 18.7C76.8882 20.5819 77.4723 21.9391 77.8316 22.7699C78.144 23.4922 78.4901 23.481 78.9591 23.4657C79.0295 23.4635 79.1026 23.4611 79.1789 23.4611H85.8304C86.3241 23.4617 86.7279 22.8146 86.2788 22.5513ZM80.9746 14.0607C81.4689 14.0607 82.3219 15.4608 82.3219 17.9561C82.3219 20.4503 81.6937 21.5443 81.2886 21.5443C80.8848 21.5443 79.9872 20.5372 79.9872 17.999C79.9872 15.4608 80.6605 14.0607 80.9746 14.0607ZM34.9491 17.2117C34.9491 15.8985 34.5898 13.2727 33.7815 13.2727C32.9731 13.2727 32.6591 16.2934 32.6591 17.2117C32.6591 18.1312 32.7935 20.8011 33.6917 20.8011C34.5898 20.8011 34.9491 18.5249 34.9491 17.2117ZM41.3249 13.1417C41.7294 13.1417 42.6269 14.3674 42.6269 15.5483C42.6269 16.7311 41.5943 17.0813 41.1 17.0813C40.8972 17.0813 40.6321 17.0574 40.6057 16.8615C40.1573 13.5133 40.921 13.1417 41.3249 13.1417ZM62.7435 21.0631V17.5619C61.8014 17.5619 61.037 18.2635 61.037 20.0138C61.037 21.7641 61.5759 21.9398 62.1154 21.9398C62.6537 21.9398 62.7435 21.4579 62.7435 21.0631Z" fill="#0A0620"/>
<path fill-rule="evenodd" clip-rule="evenodd" d="M77.3951 7.86452C77.3951 7.35149 77.8222 6.97376 78.3259 6.97376C78.8252 6.97376 79.2524 7.35149 79.2524 7.86452C79.2524 8.38183 78.8252 8.76017 78.3259 8.76017C77.8216 8.76017 77.3951 8.38244 77.3951 7.86452ZM78.3259 8.61141C78.7405 8.61141 79.0671 8.29428 79.0671 7.86451C79.0671 7.44148 78.7405 7.12252 78.3259 7.12252C77.9063 7.12252 77.5791 7.44148 77.5791 7.86451C77.5791 8.29489 77.9063 8.61141 78.3259 8.61141ZM78.7467 7.64534C78.7467 7.44209 78.6236 7.3521 78.3736 7.3521H77.971V8.38244H78.1312V7.93676H78.3165L78.5947 8.38305H78.7737L78.4729 7.92941C78.6287 7.91043 78.7467 7.83023 78.7467 7.64534ZM78.5797 7.63555C78.5797 7.7935 78.4584 7.8033 78.3234 7.8033H78.1306V7.48434H78.3492C78.461 7.48434 78.5797 7.50821 78.5797 7.63555Z" fill="#0A0620"/>
</svg>
