<svg width="97" height="785" viewBox="0 0 97 785" fill="none" xmlns="http://www.w3.org/2000/svg">
<path d="M35.6094 785L43.9557 769.823L52.9261 784.64L35.6094 785ZM23.5502 323L22.1302 323.483L23.5502 323ZM72.0835 221.5L70.5937 221.675L72.0835 221.5ZM29.103 2.99982C28.2745 2.99982 27.603 2.32825 27.603 1.49982C27.603 0.671388 28.2745 -0.000182309 29.103 -0.000182319L29.103 1.49982L29.103 2.99982ZM1.5835 482.5L3.07332 482.674L1.5835 482.5ZM18.5835 643.5L17.0982 643.29L18.5835 643.5ZM92.0835 395L90.5835 395C90.5836 386.747 87.0425 379.759 81.4337 373.475C75.8029 367.166 68.1641 361.652 60.1337 356.38C52.1701 351.152 43.755 346.123 36.8841 340.908C30.0216 335.699 24.376 330.079 22.1302 323.483L23.5502 323L24.9701 322.516C26.9108 328.216 31.9253 333.378 38.6978 338.518C45.4619 343.652 53.6569 348.539 61.7801 353.872C69.8365 359.161 77.7611 364.854 83.6719 371.477C89.6048 378.124 93.5836 385.793 93.5835 395L92.0835 395ZM23.5502 323L22.1302 323.483C19.1308 314.675 21.1744 305.838 25.5976 297.193C30.0109 288.567 36.9018 279.922 43.9049 271.402C50.953 262.828 58.1153 254.38 63.2947 245.993C68.4771 237.601 71.5154 229.513 70.5937 221.675L72.0835 221.5L73.5732 221.325C74.6129 230.166 71.1572 238.971 65.8472 247.569C60.5343 256.172 53.2061 264.811 46.2224 273.307C39.1938 281.858 32.5119 290.265 28.2683 298.559C24.0346 306.834 22.3373 314.784 24.9701 322.516L23.5502 323ZM72.0835 221.5L70.5937 221.675C69.7637 214.616 66.4133 208.23 61.6545 202.106C56.8863 195.97 50.7897 190.2 44.5655 184.336C38.378 178.506 32.0626 172.581 27.0427 166.237C22.0138 159.881 18.1967 152.998 17.0982 145.209L18.5835 145L20.0688 144.79C21.0652 151.855 24.5462 158.246 29.3953 164.375C34.2533 170.515 40.3959 176.286 46.6227 182.152C52.813 187.985 59.0873 193.913 64.0234 200.265C68.9687 206.629 72.6559 213.523 73.5732 221.325L72.0835 221.5ZM18.5835 145L17.0982 145.209C15.9626 137.158 19.4402 130.381 25.1831 124.419C30.8973 118.486 39.0155 113.186 47.555 108.014C56.1594 102.804 65.1965 97.7209 73.0353 92.1395C80.8755 86.557 87.3039 80.6166 90.7624 73.8196L92.0993 74.4998L93.4362 75.1801C89.6439 82.6331 82.7336 88.9168 74.7753 94.5833C66.8156 100.251 57.5946 105.442 49.109 110.58C40.5586 115.758 32.755 120.882 27.3438 126.5C21.9612 132.088 19.1095 137.989 20.0688 144.79L18.5835 145ZM92.0993 74.4998L90.7624 73.8196C97.58 60.4212 91.3557 42.8547 78.4208 28.3091C65.5435 13.8282 46.5463 2.99982 29.103 2.99982L29.103 1.49982L29.103 -0.000182319C47.6659 -0.00018254 67.4179 11.4214 80.6626 26.3156C93.8498 41.1449 101.121 60.0784 93.4362 75.1801L92.0993 74.4998ZM92.0835 395L93.5835 395C93.5833 404.41 87.7959 412.064 79.5678 418.797C71.3342 425.535 60.3367 431.607 49.369 437.774C38.3346 443.978 27.3015 450.293 18.7207 457.581C10.1464 464.864 4.21061 472.961 3.07332 482.674L1.5835 482.5L0.0936777 482.325C1.3571 471.534 7.93414 462.807 16.7786 455.295C25.6166 447.788 36.9083 441.338 47.8987 435.159C58.9557 428.942 69.6829 423.01 77.6679 416.476C85.6584 409.937 90.5834 403.05 90.5835 395L92.0835 395ZM1.5835 482.5L3.07332 482.674C2.41268 488.317 6.41945 493.768 13.7441 499.653C20.9916 505.476 30.8663 511.252 40.898 517.693C50.8491 524.082 60.8899 531.09 68.1229 539.259C75.3834 547.459 79.9213 556.954 78.5992 568.246L77.1094 568.072L75.6196 567.897C76.8104 557.725 72.7829 549.047 65.8769 541.248C58.9435 533.417 49.2169 526.599 39.2771 520.217C29.4179 513.887 19.2781 507.948 11.8651 501.991C4.52932 496.097 -0.770488 489.706 0.0936777 482.325L1.5835 482.5ZM77.1094 568.072L78.5992 568.246C76.0054 590.4 61.9983 601.599 48.5182 611.124C41.7295 615.92 35.1689 620.232 29.9752 625.337C24.83 630.396 21.1372 636.137 20.0688 643.709L18.5835 643.5L17.0982 643.29C18.2843 634.883 22.4062 628.571 27.872 623.198C33.2893 617.872 40.136 613.373 46.787 608.674C60.1861 599.206 73.1874 588.671 75.6196 567.897L77.1094 568.072ZM18.5835 643.5L20.0688 643.709C19.5415 647.447 20.1075 650.408 21.4343 652.866C22.7733 655.346 24.9527 657.435 27.8473 659.297C33.7058 663.066 42.0497 665.651 51.1284 668.743C68.9732 674.822 89.4023 682.773 93.5605 706.238L92.0835 706.5L90.6065 706.762C86.7905 685.227 68.2051 677.729 50.1612 671.583C41.2956 668.563 32.4765 665.842 26.2243 661.82C23.0635 659.787 20.4507 657.359 18.7943 654.291C17.1257 651.199 16.4932 647.578 17.0982 643.29L18.5835 643.5ZM92.0835 706.5L93.5605 706.238C96.5675 723.208 89.6077 738.491 79.7835 750.936C69.9563 763.385 57.1278 773.174 47.9922 779.255L47.1611 778.006L46.3299 776.758C55.3463 770.756 67.8814 761.171 77.4288 749.077C86.979 736.979 93.4045 722.551 90.6065 706.762L92.0835 706.5Z" fill="#6DC256"/>
</svg>
