<svg width="1082" height="154" viewBox="0 0 1082 154" fill="none" xmlns="http://www.w3.org/2000/svg">
<path d="M1081.5 64.5024L1056.34 50.3462L1056.66 79.2119L1081.5 64.5024ZM765.5 4.373L764.832 6.78212L765.5 4.373ZM576 151.031L576.239 148.542L576 151.031ZM410.5 4.37297L410.786 1.8893L410.5 4.37297ZM177 151.03L176.86 148.534L177 151.03ZM4.91405 3.72231C4.5548 2.38918 3.18273 1.59975 1.8496 1.95908C0.516466 2.31839 -0.272962 3.69042 0.086413 5.02355L2.50023 4.37293L4.91405 3.72231ZM897.5 151.031L897.524 153.531C939.525 153.134 963.681 133.088 985.503 112.555C1007.4 91.9517 1026.64 71.2899 1059.3 67.2324L1058.99 64.7515L1058.68 62.2706C1024.08 66.5698 1003.6 88.6604 982.077 108.914C960.476 129.238 937.515 148.153 897.476 148.531L897.5 151.031ZM897.5 151.031L897.476 148.531C875.578 148.738 860.326 140.984 848.737 129.015C837.042 116.937 828.994 100.481 821.812 83.1414C814.702 65.9751 808.39 47.7732 800.251 33.0352C792.074 18.2287 781.735 6.27966 766.168 1.96388L765.5 4.373L764.832 6.78212C778.486 10.5676 787.952 21.1081 795.874 35.4523C803.833 49.865 809.912 67.4751 817.193 85.0547C824.402 102.461 832.744 119.685 845.145 132.493C857.653 145.411 874.205 153.751 897.524 153.531L897.5 151.031ZM765.5 4.373L766.168 1.96388C745.421 -3.78818 727.861 3.62814 712.228 17.2767C696.689 30.8438 682.716 50.8505 668.937 70.9614C655.067 91.206 641.377 111.582 626.248 126.471C611.151 141.329 595.002 150.339 576.239 148.542L576 151.031L575.762 153.519C596.641 155.518 614.174 145.369 629.755 130.034C645.307 114.73 659.295 93.8807 673.062 73.7874C686.92 53.5603 700.542 34.1169 715.516 21.0432C730.397 8.05089 746.269 1.6355 764.832 6.78212L765.5 4.373ZM576 151.031L576.239 148.542C559.387 146.929 545.139 137.857 532.045 124.643C518.925 111.403 507.193 94.2458 495.303 76.7983C483.475 59.443 471.49 41.7989 457.998 28.0093C444.484 14.1959 429.231 4.00747 410.786 1.8893L410.5 4.37297L410.215 6.85664C427.071 8.79228 441.326 18.1176 454.424 31.506C467.546 44.9182 479.279 62.1638 491.171 79.6141C503.001 96.9723 514.991 114.536 528.493 128.162C542.021 141.814 557.295 151.751 575.762 153.519L576 151.031ZM410.5 4.37297L410.786 1.8893C389.631 -0.539979 369.361 7.52374 349.788 20.6314C330.223 33.7344 311.043 52.0929 292.039 70.7007C272.965 89.3784 254.068 108.307 234.867 122.881C215.658 137.462 196.46 147.432 176.86 148.534L177 151.03L177.141 153.526C198.216 152.341 218.387 141.668 237.89 126.864C257.402 112.053 276.562 92.8541 295.538 74.2732C314.585 55.6224 333.449 37.5914 352.57 24.7858C371.685 11.9848 390.746 4.62085 410.215 6.85664L410.5 4.37297ZM177 151.03L176.86 148.534C133.203 150.989 98.2757 144.033 70.3076 122.11C42.2884 100.147 20.8507 62.8486 4.91405 3.72231L2.50023 4.37293L0.086413 5.02355C16.1498 64.6202 37.9822 103.124 67.223 126.045C96.515 149.006 132.837 156.018 177.141 153.526L177 151.03Z" fill="#6DC256"/>
</svg>
