<svg width="88" height="30" viewBox="0 0 88 30" fill="none" xmlns="http://www.w3.org/2000/svg">
<path d="M15.0266 24.7965C15.2547 24.7965 15.4395 24.9833 15.4395 25.2142V28.0664C15.4395 28.2973 15.2547 28.4841 15.0266 28.4841H8.83466C8.60652 28.4841 8.42188 28.2973 8.42188 28.0664V2.41768C8.42188 2.18686 8.60652 2 8.83466 2H15.0212C15.2494 2 15.434 2.18686 15.434 2.41768V5.32494C15.434 5.55576 15.2494 5.74262 15.0212 5.74262H12.3869C12.1588 5.74262 11.9741 5.92947 11.9741 6.1603V24.3788C11.9741 24.6096 12.1588 24.7965 12.3869 24.7965H15.0266Z" fill="#0A0620"/>
<path d="M86.887 28.4841C87.1154 28.4841 87.3001 28.2973 87.3001 28.0664V2.41768C87.3001 2.18686 87.1154 2 86.887 2H83.0686C82.841 2 82.6562 2.18686 82.6562 2.41768V28.0664C82.6562 28.2973 82.841 28.4841 83.0686 28.4841H86.887Z" fill="#0A0620"/>
<path d="M14.7239 9.31574C14.6586 9.09591 14.789 8.91455 15.0117 8.92004H16.9616C17.1897 8.92004 17.4233 9.10141 17.4885 9.32124L19.7372 17.2627C19.7969 17.4825 19.9055 17.4825 19.9707 17.2627L22.3281 9.33223C22.3932 9.1124 22.6322 8.93103 22.8603 8.93103H24.5387C24.7668 8.93103 25.0058 9.1124 25.071 9.33223L27.45 17.2901C27.5152 17.51 27.6238 17.51 27.6835 17.2901L29.9213 9.32673C29.9811 9.1069 30.2201 8.92554 30.4428 8.92554H32.2026C32.4307 8.92554 32.5611 9.1069 32.4959 9.32673L28.9491 21.2086C28.8839 21.4284 28.6449 21.6098 28.4168 21.6098L26.7222 21.6043C26.494 21.6043 26.2551 21.4229 26.1899 21.2031L23.8271 13.2672C23.762 13.0473 23.6533 13.0473 23.5882 13.2672L21.2091 21.1976C21.1439 21.4174 20.905 21.5988 20.6768 21.5988H18.8844C18.6563 21.5988 18.4173 21.4174 18.3521 21.1976L14.7239 9.31574Z" fill="#0A0620"/>
<path d="M42.5577 21.5976C42.7858 21.5976 42.9705 21.4107 42.9705 21.1799V9.32002C42.9705 9.0892 42.7858 8.90234 42.5577 8.90234H40.9011C40.6729 8.90234 40.4883 9.0892 40.4883 9.32002V21.1799C40.4883 21.4107 40.6729 21.5976 40.9011 21.5976H42.5577Z" fill="#0A0620"/>
<path d="M60.8241 14.3265C60.8241 14.3265 61.4596 12.8481 63.2684 12.6997C63.5834 12.6997 63.5617 12.9306 63.5617 12.9306V14.8211C63.5617 14.8211 63.5508 15.0684 63.2792 15.0684C62.5839 15.052 60.8241 15.2388 60.8241 17.558V17.9867L60.8187 21.1797C60.8187 21.4105 60.634 21.5974 60.4059 21.5974L58.8308 21.6029C58.6026 21.6029 58.418 21.416 58.418 21.1852V13.0954C58.418 12.8646 58.6026 12.6777 58.8308 12.6777H60.4114C60.6395 12.6777 60.8241 12.8646 60.8241 13.0954V14.3265Z" fill="#0A0620"/>
<path d="M67.5332 19.9488C66.2513 19.9488 65.6104 18.7013 65.6104 17.1625C65.6104 15.6237 66.2513 14.3761 67.5332 14.3761C68.815 14.3761 69.4559 15.6237 69.4559 17.1625C69.4559 18.7013 68.815 19.9488 67.5332 19.9488ZM71.6015 8.90234H69.9448C69.7167 8.90234 69.532 9.0892 69.532 9.32002V13.5902C69.255 13.0132 68.7227 12.6395 67.6907 12.535C64.7087 12.2218 63.3672 14.6674 63.3672 17.168C63.3672 19.6741 64.7034 22.0647 67.6907 21.8009C68.7227 21.7075 69.255 21.3283 69.532 20.7073V21.1854C69.532 21.4162 69.7167 21.6031 69.9448 21.6031H71.6015C71.8295 21.6031 72.0143 21.4162 72.0143 21.1854V9.32002C72.0143 9.0892 71.8295 8.90234 71.6015 8.90234Z" fill="#0A0620"/>
<path d="M35.4437 14.3885C33.9772 14.3885 33.3145 15.636 33.3145 17.1748C33.3145 18.7136 33.9772 19.9612 35.4437 19.9612C36.845 19.9612 37.5729 18.7136 37.5729 17.1748C37.5729 15.636 36.845 14.3885 35.4437 14.3885ZM31.1094 17.1583C31.1094 14.6028 32.7116 12.5254 35.4383 12.5254C38.1595 12.5254 39.7618 14.5973 39.7618 17.1583C39.7618 19.7138 38.1541 21.7913 35.4383 21.7913C32.7171 21.7913 31.1094 19.7194 31.1094 17.1583Z" fill="#0A0620"/>
<path d="M53.4954 20.0306C52.0288 20.0306 51.3662 18.783 51.3662 17.2442C51.3662 15.7053 52.0288 14.4579 53.4954 14.4579C54.8967 14.4579 55.6246 15.7053 55.6246 17.2442C55.6246 18.783 54.8967 20.0306 53.4954 20.0306ZM53.4899 12.6003C53.1803 12.6003 52.8816 12.6332 52.5991 12.6827H47.4501C47.3088 10.6878 48.3408 10.8801 48.3408 10.8801C48.3408 10.8801 48.6776 10.8746 48.759 10.8746H48.8242C49.0523 10.8746 49.2371 10.7152 49.2371 10.4844V9.32479C49.2371 9.09397 49.0523 8.90711 48.8242 8.90711L48.4494 8.89062H47.4338C44.5821 8.89062 45.0004 12.6882 45.0004 12.6882V12.6992L44.5931 12.7102H44.1042C43.8761 12.7102 43.6914 12.8971 43.6914 13.1278V14.2875C43.6914 14.5183 43.8761 14.7052 44.1042 14.7052H44.6365L45.0384 14.7162L45.0493 15.1228V21.1792C45.0493 21.41 45.234 21.5968 45.4621 21.5968H47.0481C47.2762 21.5968 47.4609 21.41 47.4609 21.1792L47.4555 15.0954L47.4446 14.6777H47.8628L49.7856 14.6887C49.3783 15.4196 49.161 16.288 49.161 17.2277C49.161 19.7832 50.7633 21.8607 53.4899 21.8607C56.2112 21.8607 57.8134 19.7887 57.8134 17.2277C57.8134 14.6722 56.2112 12.6003 53.4899 12.6003Z" fill="#0A0620"/>
<path d="M72.2136 24.7965C71.9854 24.7965 71.8008 24.9833 71.8008 25.2142V28.0664C71.8008 28.2973 71.9854 28.4841 72.2136 28.4841H78.4001C78.6284 28.4841 78.8132 28.2973 78.8132 28.0664V2.41768C78.8132 2.18686 78.6284 2 78.4001 2H72.2136C71.9854 2 71.8008 2.18686 71.8008 2.41768V5.32494C71.8008 5.55576 71.9854 5.74262 72.2136 5.74262H74.8479C75.076 5.74262 75.2607 5.92947 75.2607 6.1603V24.3788C75.2607 24.6096 75.076 24.7965 74.8479 24.7965H72.2136Z" fill="#0A0620"/>
<path d="M27.5915 5.69865C27.8197 5.69865 28.0043 5.5118 28.0043 5.28098V2.41768C28.0043 2.18686 27.8197 2 27.5915 2H21.405C21.1768 2 20.9922 2.18686 20.9922 2.41768V5.28098C20.9922 5.5118 21.1768 5.69865 21.405 5.69865H27.5915Z" fill="#0A0620"/>
<path d="M40.2908 5.69865C40.5188 5.69865 40.7035 5.5118 40.7035 5.28098V2.41768C40.7035 2.18686 40.5188 2 40.2908 2H34.1042C33.8761 2 33.6914 2.18686 33.6914 2.41768V5.28098C33.6914 5.5118 33.8761 5.69865 34.1042 5.69865H40.2908Z" fill="#0A0620"/>
<path d="M53.0853 5.69865C53.3133 5.69865 53.4981 5.5118 53.4981 5.28098V2.41768C53.4981 2.18686 53.3133 2 53.0853 2H46.8933C46.6651 2 46.4805 2.18686 46.4805 2.41768V5.28098C46.4805 5.5118 46.6651 5.69865 46.8933 5.69865H53.0853Z" fill="#0A0620"/>
<path d="M65.8259 5.69865C66.0541 5.69865 66.2387 5.5118 66.2387 5.28098V2.41768C66.2387 2.18686 66.0541 2 65.8259 2H59.6394C59.4112 2 59.2266 2.18686 59.2266 2.41768V5.28098C59.2266 5.5118 59.4112 5.69865 59.6394 5.69865H65.8259Z" fill="#0A0620"/>
<path d="M27.5915 28.4994C27.8197 28.4994 28.0043 28.3126 28.0043 28.0817V25.2184C28.0043 24.9876 27.8197 24.8008 27.5915 24.8008H21.405C21.1768 24.8008 20.9922 24.9876 20.9922 25.2184V28.0817C20.9922 28.3126 21.1768 28.4994 21.405 28.4994H27.5915Z" fill="#0A0620"/>
<path d="M40.2908 28.4994C40.5188 28.4994 40.7035 28.3126 40.7035 28.0817V25.2184C40.7035 24.9876 40.5188 24.8008 40.2908 24.8008H34.1042C33.8761 24.8008 33.6914 24.9876 33.6914 25.2184V28.0817C33.6914 28.3126 33.8761 28.4994 34.1042 28.4994H40.2908Z" fill="#0A0620"/>
<path d="M53.0853 28.4994C53.3133 28.4994 53.4981 28.3126 53.4981 28.0817V25.2184C53.4981 24.9876 53.3133 24.8008 53.0853 24.8008H46.8933C46.6651 24.8008 46.4805 24.9876 46.4805 25.2184V28.0817C46.4805 28.3126 46.6651 28.4994 46.8933 28.4994H53.0853Z" fill="#0A0620"/>
<path d="M65.8259 28.4994C66.0541 28.4994 66.2387 28.3126 66.2387 28.0817V25.2184C66.2387 24.9876 66.0541 24.8008 65.8259 24.8008H59.6394C59.4112 24.8008 59.2266 24.9876 59.2266 25.2184V28.0817C59.2266 28.3126 59.4112 28.4994 59.6394 28.4994H65.8259Z" fill="#0A0620"/>
<path d="M0.412799 28.4841C0.184673 28.4841 0 28.2973 0 28.0664V2.41768C0 2.18686 0.184673 2 0.412799 2H4.23119C4.45389 2 4.64399 2.18686 4.64399 2.41768V28.0664C4.64399 28.2973 4.45931 28.4841 4.23119 28.4841H0.412799Z" fill="#0A0620"/>
</svg>
