<svg width="99" height="30" viewBox="0 0 99 30" fill="none" xmlns="http://www.w3.org/2000/svg">
<g clip-path="url(#clip0_742_10033)">
<path d="M0.764805 6.19166H18.9901C12.9189 14.8474 9.73203 19.6238 9.43208 20.5226H18.9918V25H0L9.56051 10.6699H0.764805V6.19249V6.19166ZM27.1486 21.2892C27.1055 21.6246 25.8585 24.9174 25.7458 25H19.8833V24.7439L28.1678 6.19249H34.413L42.6975 25H36.8351C36.7539 24.6522 35.5532 21.3776 35.4322 21.2892H27.1486ZM34.0311 17.9634V17.7073C33.1496 15.5276 32.2574 13.3522 31.3546 11.1812H31.227L28.6774 17.9634H34.0311ZM44.9927 6.19166H50.2188L55.9544 13.2291L61.6893 6.19166H66.9145V25H61.1788V14.2526L56.0804 20.5226L50.6 14.2526V25H44.9919L44.9927 6.19249V6.19166ZM76.857 6.19166L82.5926 13.2291L88.1999 6.19166H93.4259V25H87.6894V14.2526L82.5918 20.5226L77.1114 14.2526V25H71.5033V6.19249H76.857V6.19166ZM96.3128 10.6063C96.0111 10.6059 95.7125 10.546 95.4342 10.43C95.1559 10.314 94.9034 10.1443 94.6912 9.93053C94.4255 9.66186 94.2297 9.33251 94.1208 8.97116C94.012 8.6098 93.9934 8.2274 94.0667 7.85725C94.14 7.4871 94.3029 7.14041 94.5413 6.84738C94.7797 6.55435 95.0863 6.32386 95.4345 6.17597C95.8536 6.0011 96.3157 5.95525 96.7612 6.04431C97.2067 6.13338 97.6153 6.35328 97.9344 6.67575C98.3649 7.10851 98.6059 7.69365 98.6047 8.30314C98.6053 8.75718 98.4714 9.20128 98.2198 9.57972C97.9681 9.95816 97.61 10.2541 97.1903 10.4303C96.9127 10.546 96.6144 10.6063 96.3128 10.6063ZM96.3128 10.0941C96.5474 10.094 96.7796 10.0475 96.9961 9.95728C97.2126 9.8671 97.409 9.73503 97.5739 9.5687C97.9093 9.23247 98.097 8.77729 98.0959 8.30314C98.0958 7.82939 97.9086 7.37476 97.5748 7.03757C97.2406 6.70251 96.7867 6.51326 96.3128 6.51136C96.0782 6.51187 95.8459 6.55862 95.6295 6.64893C95.4131 6.73924 95.2167 6.87132 95.0516 7.03757C94.7177 7.37379 94.5296 7.82897 94.5304 8.30314C94.5304 8.77731 94.7177 9.23249 95.0516 9.56788C95.3856 9.90409 95.8396 10.0933 96.3128 10.0941ZM96.2863 8.5237H95.9913V9.32666H95.4452V7.05244H96.336C96.6045 7.05244 96.8141 7.11192 96.9657 7.23171C97.1165 7.35149 97.1919 7.52084 97.1919 7.73975C97.1971 7.87696 97.1644 8.01295 97.0975 8.13297C97.0247 8.2451 96.9204 8.33332 96.7975 8.38657L97.2698 9.30353V9.32666H96.6857L96.2863 8.5237ZM95.9913 8.10075H96.336C96.4396 8.10075 96.5174 8.07349 96.5696 8.01814C96.6252 7.95522 96.6535 7.87296 96.6484 7.78931C96.6533 7.70544 96.6251 7.62297 96.5696 7.55966C96.5158 7.50349 96.4387 7.47623 96.336 7.47623H95.9913V8.10075Z" fill="#0A0620"/>
</g>
<defs>
<clipPath id="clip0_742_10033">
<rect width="99" height="30" fill="white"/>
</clipPath>
</defs>
</svg>
