<svg width="30" height="30" viewBox="0 0 30 30" fill="none" xmlns="http://www.w3.org/2000/svg">
<rect width="30" height="30" rx="15" fill="#615E71"/>
<path fill-rule="evenodd" clip-rule="evenodd" d="M10.191 10.191C10.4457 9.93633 10.8586 9.93633 11.1133 10.191L15 14.0777L18.8867 10.191C19.1414 9.93633 19.5543 9.93633 19.809 10.191C20.0637 10.4457 20.0637 10.8586 19.809 11.1133L15.9223 15L19.809 18.8867C20.0637 19.1414 20.0637 19.5543 19.809 19.809C19.5543 20.0637 19.1414 20.0637 18.8867 19.809L15 15.9223L11.1133 19.809C10.8586 20.0637 10.4457 20.0637 10.191 19.809C9.93633 19.5543 9.93633 19.1414 10.191 18.8867L14.0777 15L10.191 11.1133C9.93633 10.8586 9.93633 10.4457 10.191 10.191Z" fill="white" stroke="white" stroke-width="0.3" stroke-linecap="round" stroke-linejoin="round"/>
</svg>
