<svg width="48" height="48" viewBox="0 0 48 48" fill="none" xmlns="http://www.w3.org/2000/svg">
<circle cx="24" cy="24" r="24" fill="#F6F6F6"/>
<mask id="mask0_10620_5933" style="mask-type:alpha" maskUnits="userSpaceOnUse" x="7" y="7" width="34" height="34">
<path d="M41 24.0001C41 33.389 33.3888 41.0001 24 41.0001C14.6112 41.0001 7 33.389 7 24.0001C7 14.6112 14.6112 7 24 7C33.3888 7 41 14.6112 41 24.0001Z" fill="#FFE048"/>
</mask>
<g mask="url(#mask0_10620_5933)">
<path d="M41 24.0001C41 33.389 33.3888 41.0001 24 41.0001C14.6112 41.0001 7 33.389 7 24.0001C7 14.6112 14.6112 7 24 7C33.3888 7 41 14.6112 41 24.0001Z" fill="#FFE048"/>
<path d="M30.8619 20.5148C30.8619 24.788 27.552 28.2522 23.469 28.2522C19.3861 28.2522 16.0762 24.788 16.0762 20.5148C16.0762 16.2415 19.3861 12.7773 23.469 12.7773C27.552 12.7773 30.8619 16.2415 30.8619 20.5148Z" fill="#FFF278"/>
<path d="M31.3927 36.7859C32.7178 38.6733 36.5935 38.2364 40.0493 35.8101C43.5051 33.3838 45.2323 29.8869 43.9072 27.9995C42.582 26.1121 38.7063 26.5489 35.2506 28.9752C31.7948 31.4015 30.0675 34.8985 31.3927 36.7859Z" fill="#FF5050"/>
<path d="M14.646 36.0611C13.5173 37.6687 10.0983 37.2139 7.00945 35.0452C3.92059 32.8765 2.33156 29.8153 3.46024 28.2077C4.58893 26.6001 8.00792 27.0549 11.0968 29.2236C14.1856 31.3923 15.7747 34.4535 14.646 36.0611Z" fill="#FF5050"/>
<path fill-rule="evenodd" clip-rule="evenodd" d="M32.9446 12.143C32.343 11.9042 31.7193 11.7145 31.0808 11.5955C30.7238 11.529 30.4163 11.8154 30.4242 12.1641L30.4255 12.2187C30.4313 12.4725 30.6209 12.6767 30.8628 12.717L30.8936 12.5324L30.8631 12.717C31.6271 12.8433 32.3742 13.0767 33.0922 13.3843C33.8451 13.7067 34.5069 13.926 35.1814 14.4061C36.2091 15.1374 37.3395 16.2477 38.0668 17.3688C38.1716 17.5303 38.4192 17.7072 38.5229 17.6672C38.6871 17.6038 38.6522 17.231 38.5838 17.1014C38.1736 16.325 37.6668 15.5928 37.0997 14.9632C36.5279 14.3285 35.8717 13.7887 35.1814 13.3244C34.4772 12.851 33.7265 12.4536 32.9446 12.143ZM30.9242 12.3482C30.8509 12.336 30.8007 12.2758 30.7992 12.2101L30.798 12.1555C30.7951 12.0297 30.9027 11.9426 31.0123 11.963C31.6238 12.077 32.2241 12.2592 32.8067 12.4905C33.5632 12.791 34.2903 13.1758 34.9728 13.6346C35.6432 14.0855 36.2747 14.6059 36.8219 15.2134C37.1695 15.5993 37.4943 16.0262 37.7868 16.4794C37.1066 15.6233 36.2868 14.8766 35.4585 14.2872C34.7623 13.7916 34.0168 13.3736 33.2394 13.0407C32.4984 12.7232 31.7224 12.4802 30.9242 12.3482Z" fill="black"/>
<path fill-rule="evenodd" clip-rule="evenodd" d="M38.4192 17.1914C38.4239 17.2003 38.4274 17.2097 38.4295 17.2195C38.4591 17.3512 38.2369 17.4362 38.1635 17.3229C37.4211 16.1787 36.3941 15.1845 35.3508 14.4422C34.6655 13.9543 33.9317 13.5428 33.1665 13.2152C32.437 12.9026 31.6754 12.6644 30.8942 12.5353C30.7366 12.509 30.6167 12.3768 30.613 12.2171L30.6118 12.1625C30.6064 11.9252 30.8139 11.7384 31.0473 11.7819C31.6723 11.8984 32.2843 12.0843 32.8764 12.3194C33.6456 12.625 34.3844 13.016 35.0778 13.4821C35.7581 13.9398 36.402 14.4699 36.9615 15.091C37.5177 15.7085 38.0159 16.4279 38.4192 17.1914Z" fill="black"/>
<path fill-rule="evenodd" clip-rule="evenodd" d="M14.6277 12.5065C15.1619 12.2779 15.7172 12.0929 16.2876 11.9708C16.6186 11.9 16.9115 12.1594 16.9127 12.4835L16.9128 12.5324C16.9137 12.7696 16.7416 12.9647 16.5172 13.0082L16.4816 12.8247L16.517 13.0083C15.8374 13.1391 15.1753 13.3653 14.5407 13.6573C13.8753 13.9633 13.2393 14.3423 12.6477 14.7874C11.7461 15.4655 10.7598 16.4528 10.1364 17.4717C10.0396 17.6299 9.85986 17.6252 9.76153 17.5902C9.60413 17.5342 9.62313 17.2145 9.68469 17.0901C10.0343 16.3837 10.4718 15.7145 10.9659 15.1359C11.4642 14.5525 12.0404 14.0524 12.6488 13.6195C13.2693 13.1781 13.9335 12.8037 14.6277 12.5065ZM16.4461 12.6412C16.5028 12.6302 16.5392 12.5828 16.539 12.5337L16.5388 12.4848C16.5385 12.3836 16.4507 12.3182 16.3658 12.3364C15.8223 12.4527 15.2901 12.6296 14.7748 12.8501M16.4461 12.6412C15.7326 12.7786 15.0418 13.0152 14.3845 13.3176L16.4461 12.6412ZM12.8655 13.9241C13.4648 13.4978 14.1057 13.1367 14.7748 12.8501L12.8655 13.9241ZM12.8655 13.9241C12.2768 14.3431 11.7247 14.8231 11.2502 15.3787C11.0311 15.6353 10.8231 15.9111 10.6296 16.2008C11.1685 15.5442 11.7915 14.9636 12.4229 14.4887M14.3845 13.3176C13.6949 13.6348 13.0358 14.0276 12.4229 14.4887L14.3845 13.3176Z" fill="black"/>
<path fill-rule="evenodd" clip-rule="evenodd" d="M9.8468 17.1763C9.84282 17.1843 9.83993 17.1929 9.8382 17.2017C9.81485 17.3203 10.0159 17.3912 10.079 17.288C10.7167 16.2456 11.613 15.3309 12.5299 14.6414C13.1322 14.1882 13.7796 13.8023 14.4572 13.4907C15.1032 13.1935 15.7796 12.9621 16.4762 12.828C16.6168 12.8007 16.721 12.6795 16.7205 12.5364L16.7204 12.4874C16.7196 12.2748 16.5293 12.1124 16.3213 12.1569C15.7643 12.276 15.2206 12.457 14.6958 12.6816C14.0142 12.9735 13.3617 13.3412 12.7517 13.7751C12.1532 14.201 11.5891 14.691 11.1027 15.2606C10.6191 15.8268 10.19 16.4829 9.8468 17.1763Z" fill="black"/>
<path d="M26.6292 25.5595C25.3232 30.261 26.9503 34.478 30.4758 35.3497C34.0012 36.2215 37.9179 33.1169 39.2239 28.4155C40.5299 23.714 38.9028 19.497 35.3773 18.6253C31.8519 17.7535 27.9352 20.8581 26.6292 25.5595Z" fill="url(#paint0_linear_10620_5933)"/>
<path fill-rule="evenodd" clip-rule="evenodd" d="M27.32 31.8392C26.6378 30.1261 26.5135 27.9365 27.1393 25.6835C27.7652 23.4304 29.0118 21.5798 30.497 20.4026C31.9821 19.2254 33.6741 18.7408 35.2393 19.1278C36.8046 19.5149 38.0271 20.7202 38.7093 22.4333C39.3916 24.1464 39.5159 26.336 38.89 28.5891C38.2641 30.8421 37.0175 32.6927 35.5324 33.8699C34.0472 35.0471 32.3553 35.5317 30.79 35.1447C29.2247 34.7576 28.0022 33.5524 27.32 31.8392ZM30.5208 35.5234C26.9954 34.6516 25.3253 30.2593 26.6313 25.5578C27.9373 20.8564 31.854 17.7518 35.3794 18.6236C38.9049 19.4953 40.575 23.8877 39.269 28.5891C37.963 33.2905 34.0463 36.3951 30.5208 35.5234Z" fill="black"/>
<path d="M19.8852 25.7446C21.0246 29.8466 19.4554 33.6635 16.3431 34.4331C13.2307 35.2027 9.93791 32.5838 8.79844 28.4819C7.65896 24.3799 9.07422 20.4805 12.1866 19.7109C15.2989 18.9413 18.7457 21.6427 19.8852 25.7446Z" fill="url(#paint1_linear_10620_5933)"/>
<path fill-rule="evenodd" clip-rule="evenodd" d="M19.2071 31.2014C19.8076 29.7184 19.7266 27.6725 19.1843 25.7205C18.6421 23.7686 17.611 22.3692 16.3167 21.3548C15.0226 20.3406 13.6916 19.8784 12.3303 20.215C10.969 20.5516 9.90029 21.5917 9.29984 23.0744C8.69928 24.5573 8.72504 26.5615 9.26726 28.5134C9.80949 30.4654 10.896 32.0646 12.1903 33.079C13.4843 34.0932 14.8153 34.3974 16.1766 34.0608C17.5379 33.7242 18.6066 32.684 19.2071 31.2014ZM16.4216 34.5377C19.5339 33.7681 21.0283 29.8463 19.8889 25.7444C18.7494 21.6425 15.3026 18.9411 12.1903 19.7107C9.07791 20.4803 7.58351 24.402 8.72298 28.504C9.86246 32.6059 13.3092 35.3073 16.4216 34.5377Z" fill="black"/>
<path fill-rule="evenodd" clip-rule="evenodd" d="M37.8027 27.9723L37.8396 28.1864C37.9213 28.6478 37.9733 29.3685 37.7503 30.0983C37.5258 30.8327 37.0492 31.4906 36.1802 31.9164L35.9048 32.0513C35.0185 32.4856 34.375 32.307 33.9207 31.8024C33.475 31.3073 33.2577 30.5489 33.1559 29.9741L33.1323 29.8407C33.031 29.2685 32.9703 28.4453 33.1863 27.6378C33.4061 26.8163 33.8885 26.0978 34.768 25.6668L35.0097 25.5484C35.9013 25.1115 36.5238 25.2229 36.9532 25.6208C37.382 26.0182 37.5684 26.6551 37.6456 27.0909L37.6928 27.3577L35.906 28.2264L35.8556 28.0289L35.8556 28.0288C35.8554 28.0279 35.8536 28.0215 35.8497 28.0112C35.8454 27.9996 35.8392 27.9846 35.8308 27.9682C35.8141 27.9356 35.7897 27.8985 35.7552 27.8675C35.692 27.811 35.5624 27.7464 35.3221 27.8642L35.2715 27.889C35.043 28.0009 34.959 28.178 34.9243 28.3316C34.8843 28.5085 34.8897 28.7437 34.9366 29.0084L34.9383 29.0179C34.9839 29.2757 35.0621 29.4969 35.1638 29.6256C35.2538 29.7395 35.3879 29.815 35.6059 29.7082L35.6565 29.6834C35.8973 29.5654 35.9782 29.3887 36.0088 29.2828C36.0261 29.223 36.0331 29.1661 36.0352 29.1196C36.0371 29.0768 36.0346 29.0489 36.0342 29.0445L36.0092 28.8713L37.8027 27.9723Z" fill="black"/>
<path fill-rule="evenodd" clip-rule="evenodd" d="M13.4495 29.6187L13.4404 29.6707C13.3977 29.9141 13.2971 30.2482 13.0027 30.4896C12.7103 30.7295 12.2597 30.8138 11.5683 30.5137L11.3839 30.4337C10.7069 30.1398 10.3207 29.4994 10.1282 28.9257C9.93625 28.3537 9.94761 27.7338 10.0254 27.2234L10.0416 27.1172C10.1187 26.6117 10.2833 26.0595 10.6058 25.7099C10.9301 25.3584 11.3957 25.2314 12.0492 25.5151L12.247 25.6009C12.9432 25.9031 13.3289 26.3975 13.5087 27.0042C13.687 27.6058 13.6501 28.2771 13.5573 28.8857L13.51 29.1957L11.2226 28.2029C11.1638 28.5737 11.3731 29.0612 11.7106 29.2077C11.9237 29.3002 12.1752 29.3267 12.3001 29.1099L13.4495 29.6187ZM12.3951 27.4929C12.3935 27.4167 12.3816 27.3431 12.3544 27.2738C12.3062 27.1509 12.1974 27.0086 11.9572 26.9043C11.7635 26.8203 11.636 26.8342 11.5488 26.8947C11.4963 26.931 11.4527 26.9882 11.4152 27.0676L12.3951 27.4929Z" fill="black"/>
<path fill-rule="evenodd" clip-rule="evenodd" d="M27.0237 39.5387C27.3922 39.5118 28.2534 39.2904 28.2213 38.9818C28.1891 38.6733 27.8643 38.6693 27.4958 38.6963C27.4788 38.6975 27.4281 38.7011 27.3954 38.7034C27.3301 38.708 27.2351 38.7146 27.1173 38.7226C26.8816 38.7384 26.5548 38.7595 26.1905 38.7806C25.4558 38.8232 24.5901 38.8644 24.0081 38.8644C23.426 38.8644 22.5561 38.8232 21.8171 38.7806C21.4508 38.7595 20.8911 38.7125 20.6538 38.6967C20.5352 38.6888 20.4396 38.6822 20.3738 38.6776C20.3409 38.6753 20.2898 38.6716 20.2726 38.6704C19.9041 38.6437 19.5795 38.6478 19.5476 38.9564C19.5156 39.2649 20.5867 39.4971 20.9532 39.5387C23.2336 39.7973 24.7999 39.7887 27.0237 39.5387Z" fill="black"/>
<path d="M40.4461 24C40.4461 14.9171 33.0829 7.55386 24 7.55386C14.9171 7.55386 7.55387 14.9171 7.55386 24C7.55386 33.083 14.9171 40.4463 24 40.4463V41.0001L23.8901 40.9998C14.5518 40.9406 7 33.3522 7 24C7.00001 14.6112 14.6112 7 24 7C33.3888 7 41 14.6112 41 24C41 33.3889 33.3888 41.0001 24 41.0001V40.4463C33.0829 40.4463 40.4461 33.083 40.4461 24Z" fill="black"/>
</g>
<defs>
<linearGradient id="paint0_linear_10620_5933" x1="31.6619" y1="23.7009" x2="36.5067" y2="39.2047" gradientUnits="userSpaceOnUse">
<stop offset="0.265" stop-color="white"/>
<stop offset="1" stop-color="#F0F0F0"/>
</linearGradient>
<linearGradient id="paint1_linear_10620_5933" x1="15.4504" y1="24.1339" x2="11.2791" y2="37.7269" gradientUnits="userSpaceOnUse">
<stop offset="0.265" stop-color="white"/>
<stop offset="1" stop-color="#F0F0F0"/>
</linearGradient>
</defs>
</svg>
