<svg width="187" height="30" viewBox="0 0 187 30" fill="none" xmlns="http://www.w3.org/2000/svg">
<path d="M5.44827 4.47536C3.88834 4.96265 2.85386 5.88851 2.31199 7.26919C2.01642 8.00013 2 8.58488 2 14.9685C2 21.6769 2.01642 21.8881 2.34483 22.619C2.85386 23.691 3.75697 24.6169 4.75861 25.0555L5.61247 25.4453H12.6732H19.7339L20.6699 24.9905C21.7372 24.4707 22.6075 23.5286 23.0508 22.4241C23.3136 21.7744 23.3464 21.0272 23.3464 14.8872C23.3464 8.74732 23.3136 8.00013 23.0508 7.3504C22.6075 6.24586 21.7372 5.30376 20.6699 4.78398L19.7339 4.32917L12.9195 4.29668C7.73069 4.2642 5.94088 4.31293 5.44827 4.47536ZM16.5648 8.56864C17.5008 8.87726 18.5353 9.73815 19.0771 10.664C19.5533 11.4599 19.8817 13.0842 19.6518 13.4903C19.5697 13.6365 19.4876 13.669 19.4876 13.5715C19.4876 13.2304 18.1904 12.0609 17.3202 11.6061C16.4663 11.1676 16.3842 11.1513 13.2151 11.1026C10.5221 11.0538 9.91459 11.0863 9.48767 11.2975C8.42034 11.8498 8.1412 13.4416 8.9458 14.3187C9.53693 14.9847 10.2266 15.1146 13.133 15.1309C15.3169 15.1309 15.5796 15.1634 15.8752 15.4558C16.3349 15.9106 16.4335 16.4791 16.1379 17.0638C15.7438 17.7948 14.9721 17.941 11.9179 17.8597C9.52051 17.7948 9.2742 17.7623 8.43677 17.34C6.67979 16.4953 5.69457 14.9035 5.69457 12.9218C5.69457 11.0863 7.15598 9.05594 8.88011 8.50367C9.15926 8.42245 10.8341 8.34124 12.6075 8.32499C15.1198 8.30875 15.9737 8.35748 16.5648 8.56864ZM17.2052 12.2396C18.8144 13.1817 19.6847 14.6436 19.6847 16.4303C19.6847 18.2171 18.8144 19.679 17.2052 20.6211C16.4663 21.0597 16.4006 21.0597 13.0345 21.1084C8.91295 21.1734 8.3875 21.0597 7.0903 19.7764C6.13792 18.8343 5.69457 17.811 5.69457 16.5278V15.7156L6.10508 16.2842C6.63053 16.9664 7.02462 17.2912 8.07552 17.8597C8.88011 18.2983 8.96222 18.2983 12.312 18.347L15.7274 18.3958L16.2857 17.8435C16.7947 17.34 16.8604 17.1775 16.8604 16.4303C16.8604 15.6832 16.7947 15.5207 16.3021 15.0334L15.7438 14.4812H13.018C9.55335 14.4812 9.14284 14.3187 9.14284 12.9705C9.14284 12.6782 9.29062 12.3208 9.50409 12.0772C9.88175 11.7036 9.88175 11.7036 13.1658 11.7523C16.4006 11.801 16.4663 11.801 17.2052 12.2396Z" fill="#0A0620"/>
<path d="M39.3555 7.86751C37.4343 8.32232 36.4163 9.03702 35.8087 10.3365C34.9877 12.0745 35.4475 13.9262 36.9417 14.9171C37.7299 15.4368 38.4852 15.6967 41.3259 16.4439C43.3949 16.9799 44.0681 17.7759 43.2964 18.7504C42.4425 19.8063 39.6018 19.7738 37.2537 18.6692C36.679 18.4093 36.1864 18.2144 36.1535 18.2469C36.1371 18.2632 35.8908 18.7829 35.6117 19.3839C35.0698 20.5859 35.0534 20.5534 36.17 21.1057C37.4015 21.723 38.8465 22.0153 40.7512 22.0153C43.5427 22.0316 45.1519 21.3818 46.2028 19.8225C46.8432 18.8804 46.9417 17.2398 46.4327 16.2003C45.7923 14.9171 44.8727 14.4298 41.5066 13.5851C40.5706 13.3577 39.5854 13.0491 39.3227 12.9191C38.6823 12.5943 38.4688 12.0095 38.7644 11.3273C39.2241 10.2228 41.4245 9.91415 43.5427 10.6776C44.1831 10.8887 44.8071 11.1161 44.9548 11.1649C45.1519 11.2299 45.3161 11.0024 45.6609 10.1903C45.8908 9.58929 46.0878 9.05326 46.0878 8.98829C46.0878 8.79337 45.0041 8.30608 44.0353 8.04619C42.8202 7.70508 40.4228 7.62386 39.3555 7.86751Z" fill="#0A0620"/>
<path d="M135.333 7.81936C132.788 8.33915 130.965 9.70357 129.931 11.8639C129.455 12.8872 129.422 13.0334 129.422 14.8852C129.422 16.7369 129.455 16.8831 129.947 17.9226C131.015 20.1642 133.018 21.5936 135.629 21.9834C137.698 22.292 140.456 21.756 142.016 20.7327L142.64 20.3266V17.4841V14.6415H141.162H139.685V16.7531V18.8485L138.831 19.1084C135.185 20.1804 132.131 17.7277 132.624 14.1217C132.772 13.0659 133.084 12.4162 133.79 11.734C134.545 10.9705 135.514 10.5482 136.68 10.4508C137.96 10.3533 138.979 10.6294 140.046 11.3441L140.85 11.8964L141.819 11.0518C142.361 10.5807 142.804 10.1584 142.804 10.0934C142.804 9.84976 141.639 8.95639 140.801 8.53407C139.307 7.78688 137.008 7.47826 135.333 7.81936Z" fill="#0A0620"/>
<path d="M54.9551 12.2372C54.9551 18.036 55.2506 19.2868 56.9584 20.7162C58.0914 21.6908 59.1751 22.0156 61.2769 22.0156C63.9534 22.0156 65.5298 21.3334 66.5971 19.7253C67.5659 18.2959 67.648 17.7762 67.7301 12.6433L67.7958 7.98151H66.1373H64.4789V12.3184C64.4789 14.8199 64.3968 16.9315 64.3147 17.2726C63.937 18.5883 62.8533 19.3517 61.359 19.3517C59.8648 19.3517 58.781 18.5883 58.4033 17.2726C58.3212 16.9315 58.2391 14.8199 58.2391 12.3184V7.98151H56.5971H54.9551V12.2372Z" fill="#0A0620"/>
<path d="M77.2891 14.8857V21.7891H78.5206H79.7521L79.785 17.1273L79.8342 12.4492L83.6766 17.1273L87.5025 21.7891H88.6355H89.7685V14.8857V7.98235H88.4549H87.1413L87.1084 12.6441L87.0592 17.3059L83.2332 12.6441L79.4073 7.98235H78.34H77.2891V14.8857Z" fill="#0A0620"/>
<path d="M99.291 14.8857V21.7891H104.463H109.636V20.4896V19.1902H106.105H102.575V13.5863V7.98235H100.933H99.291V14.8857Z" fill="#0A0620"/>
<path d="M117.518 14.8857V21.7891H119.16H120.802V14.8857V7.98235H119.16H117.518V14.8857Z" fill="#0A0620"/>
<path d="M151.67 14.8857V21.7891H153.312H154.954V18.9465V16.1039H158.156H161.358V18.9465V21.7891H163H164.642V14.8857V7.98235H163H161.358V10.7437V13.505H158.156H154.954V10.7437V7.98235H153.312H151.67V14.8857Z" fill="#0A0620"/>
<path d="M172.359 9.28181V10.5813H174.658H176.957V16.1852V21.7891H178.517H180.077V16.1852V10.5813H182.376H184.675V9.28181V7.98235H178.517H172.359V9.28181Z" fill="#0A0620"/>
</svg>
