<svg width="375" height="400" viewBox="0 0 375 400" fill="none" xmlns="http://www.w3.org/2000/svg">
<path d="M22 -2.62268e-07C25.3137 -1.17421e-07 28 2.68629 28 6L28 104C28 107.314 25.3137 110 22 110C18.6863 110 16 107.314 16 104L16 6C16 2.68629 18.6863 -4.07115e-07 22 -2.62268e-07Z" fill="#534C72"/>
<path d="M37 30C40.3137 30 43 32.6863 43 36L43 104C43 107.314 40.3137 110 37 110C33.6863 110 31 107.314 31 104L31 36C31 32.6863 33.6863 30 37 30Z" fill="#534C72"/>
<path d="M22 115C25.3137 115 28 117.686 28 121L28 189C28 192.314 25.3137 195 22 195C18.6863 195 16 192.314 16 189L16 121C16 117.686 18.6863 115 22 115Z" fill="#534C72"/>
<path d="M37 115C40.3137 115 43 117.686 43 121L43 279C43 282.314 40.3137 285 37 285C33.6863 285 31 282.314 31 279L31 121C31 117.686 33.6863 115 37 115Z" fill="#534C72"/>
<path d="M52 205C55.3137 205 58 207.686 58 211L58 279C58 282.314 55.3137 285 52 285C48.6863 285 46 282.314 46 279L46 211C46 207.686 48.6863 205 52 205Z" fill="#534C72"/>
<path d="M22 290C25.3137 290 28 292.686 28 296L28 364C28 367.314 25.3137 370 22 370C18.6863 370 16 367.314 16 364L16 296C16 292.686 18.6863 290 22 290Z" fill="#FC63D5"/>
<path d="M37 290C40.3137 290 43 292.686 43 296L43 394C43 397.314 40.3137 400 37 400C33.6863 400 31 397.314 31 394L31 296C31 292.686 33.6863 290 37 290Z" fill="#FC63D5"/>
<path d="M136.562 53.838L134.448 55.28V53.642L136.772 51.99H138.438V62H136.562V53.838ZM140.284 57.394H143.644V58.794H140.284V57.394ZM144.089 61.664L147.869 57.674C148.886 56.6007 149.395 55.6533 149.395 54.832C149.395 54.356 149.264 53.9827 149.003 53.712C148.741 53.4413 148.373 53.306 147.897 53.306C146.861 53.306 146.263 53.9687 146.105 55.294H144.397C144.462 54.1927 144.803 53.3433 145.419 52.746C146.044 52.1487 146.889 51.85 147.953 51.85C148.979 51.85 149.787 52.1207 150.375 52.662C150.963 53.2033 151.257 53.9173 151.257 54.804C151.257 55.42 151.089 56.0173 150.753 56.596C150.426 57.1653 149.941 57.7627 149.297 58.388L147.071 60.558H151.327V62H144.089V61.664ZM157.546 58.892C157.443 59.7507 157.298 60.3667 157.112 60.74H159.954V55.924H157.728C157.653 57.4453 157.592 58.4347 157.546 58.892ZM156.202 63.778H154.76V60.74H155.222C155.464 60.656 155.642 60.46 155.754 60.152C155.866 59.8347 155.959 59.3773 156.034 58.78C156.183 57.576 156.258 56.2087 156.258 54.678H161.634V60.74H162.698V63.778H161.256L161.2 62H156.258L156.202 63.778ZM168.238 58.892H165.2V62H163.506V54.678H165.2V57.632H168.238V54.678H169.932V62H168.238V58.892ZM174.335 55.91C173.43 55.91 172.977 56.2787 172.977 57.016V57.058C172.977 57.4313 173.085 57.7067 173.299 57.884C173.514 58.0613 173.859 58.15 174.335 58.15H175.371V55.91H174.335ZM172.627 62H170.765L172.767 58.99C171.769 58.682 171.269 58.0333 171.269 57.044V57.002C171.269 56.2553 171.521 55.6813 172.025 55.28C172.529 54.8787 173.225 54.678 174.111 54.678H177.051V62H175.371V59.312H174.363L172.627 62Z" fill="#76718F"/>
<path d="M135.719 85V73.56H137.863V82.136L143.175 73.56H145.319V85H143.175V76.376L137.863 85H135.719ZM152.69 81.448H149.218V85H147.282V76.632H149.218V80.008H152.69V76.632H154.626V85H152.69V81.448ZM162.698 78.072H160.138V85H158.202V78.072H155.642V76.632H162.698V78.072ZM167.174 85.16C165.915 85.16 164.891 84.776 164.102 84.008C163.323 83.24 162.934 82.2053 162.934 80.904V80.776C162.934 79.496 163.323 78.456 164.102 77.656C164.891 76.856 165.888 76.456 167.094 76.456C168.224 76.456 169.163 76.808 169.91 77.512C170.667 78.216 171.046 79.272 171.046 80.68V81.24H164.918C164.95 82.04 165.158 82.6533 165.542 83.08C165.936 83.5067 166.496 83.72 167.222 83.72C168.352 83.72 168.992 83.2933 169.142 82.44H171.014C170.875 83.3253 170.47 84.0027 169.798 84.472C169.136 84.9307 168.262 85.16 167.174 85.16ZM169.126 79.944C169.019 78.5573 168.342 77.864 167.094 77.864C166.518 77.864 166.038 78.0507 165.654 78.424C165.28 78.7867 165.046 79.2933 164.95 79.944H169.126ZM172.295 76.632H174.231V77.976C174.476 77.5493 174.844 77.192 175.335 76.904C175.836 76.6053 176.38 76.456 176.967 76.456C178.044 76.456 178.929 76.84 179.623 77.608C180.327 78.3653 180.679 79.4 180.679 80.712V80.84C180.679 82.1627 180.332 83.2133 179.639 83.992C178.956 84.7707 178.065 85.16 176.967 85.16C176.327 85.16 175.767 85.0267 175.287 84.76C174.817 84.4827 174.465 84.1253 174.231 83.688V87.864H172.295V76.632ZM176.487 83.624C177.201 83.624 177.745 83.3893 178.119 82.92C178.503 82.4507 178.695 81.768 178.695 80.872V80.744C178.695 79.848 178.487 79.1653 178.071 78.696C177.665 78.216 177.132 77.976 176.471 77.976C175.767 77.976 175.207 78.2107 174.791 78.68C174.375 79.1493 174.167 79.8373 174.167 80.744V80.872C174.167 81.7787 174.369 82.4667 174.775 82.936C175.191 83.3947 175.761 83.624 176.487 83.624ZM181.94 76.632H185.316C187.353 76.632 188.372 77.3307 188.372 78.728V78.76C188.372 79.752 187.876 80.3653 186.884 80.6C188.121 80.856 188.74 81.4853 188.74 82.488V82.536C188.74 83.336 188.468 83.9493 187.924 84.376C187.39 84.792 186.622 85 185.62 85H181.94V76.632ZM183.876 77.928V80.056H185.044C185.513 80.056 185.854 79.9707 186.068 79.8C186.281 79.6187 186.388 79.336 186.388 78.952V78.92C186.388 78.5467 186.27 78.2907 186.036 78.152C185.812 78.0027 185.46 77.928 184.98 77.928H183.876ZM183.876 81.352V83.704H185.252C186.254 83.704 186.756 83.32 186.756 82.552V82.52C186.756 81.7413 186.276 81.352 185.316 81.352H183.876ZM190.038 76.632H191.974V79.384H193.478C194.449 79.384 195.227 79.6293 195.814 80.12C196.401 80.6107 196.694 81.3093 196.694 82.216V82.264C196.694 83.1813 196.406 83.8693 195.83 84.328C195.254 84.776 194.454 85 193.43 85H190.038V76.632ZM193.19 83.608C194.225 83.608 194.742 83.1547 194.742 82.248V82.2C194.742 81.2613 194.225 80.792 193.19 80.792H191.974V83.608H193.19ZM204.848 85.16C203.77 85.16 202.869 84.8507 202.144 84.232C201.429 83.6027 200.997 82.76 200.848 81.704L200.8 81.448H199.76V85H197.824V76.632H199.76V80.008H200.832C200.981 78.92 201.418 78.056 202.144 77.416C202.869 76.776 203.776 76.456 204.864 76.456C206.09 76.456 207.088 76.8507 207.856 77.64C208.624 78.4187 209.008 79.448 209.008 80.728V80.856C209.008 82.1467 208.618 83.1867 207.84 83.976C207.061 84.7653 206.064 85.16 204.848 85.16ZM203.264 82.92C203.637 83.4107 204.17 83.656 204.864 83.656C205.557 83.656 206.09 83.4107 206.464 82.92C206.837 82.4187 207.024 81.736 207.024 80.872V80.76C207.024 79.8853 206.837 79.2027 206.464 78.712C206.09 78.2107 205.557 77.96 204.864 77.96C204.181 77.96 203.653 78.2053 203.28 78.696C202.906 79.1867 202.72 79.864 202.72 80.728V80.856C202.72 81.7307 202.901 82.4187 203.264 82.92Z" fill="#F6F6F6"/>
<path d="M96.98 50.02L87.92 56.2V49.18L97.88 42.1H105.02V85H96.98V50.02Z" fill="white"/>
<path d="M139.39 143.97H134.434V143.312L138.858 135.99H141.196V142.584H142.54V143.97H141.196V146H139.39V143.97ZM139.418 142.584V137.404L136.422 142.584H139.418ZM148.542 142.892C148.439 143.751 148.295 144.367 148.108 144.74H150.95V139.924H148.724C148.649 141.445 148.589 142.435 148.542 142.892ZM147.198 147.778H145.756V144.74H146.218C146.461 144.656 146.638 144.46 146.75 144.152C146.862 143.835 146.955 143.377 147.03 142.78C147.179 141.576 147.254 140.209 147.254 138.678H152.63V144.74H153.694V147.778H152.252L152.196 146H147.254L147.198 147.778ZM159.234 142.892H156.196V146H154.502V138.678H156.196V141.632H159.234V138.678H160.928V146H159.234V142.892ZM165.331 139.91C164.426 139.91 163.973 140.279 163.973 141.016V141.058C163.973 141.431 164.081 141.707 164.295 141.884C164.51 142.061 164.855 142.15 165.331 142.15H166.367V139.91H165.331ZM163.623 146H161.761L163.763 142.99C162.765 142.682 162.265 142.033 162.265 141.044V141.002C162.265 140.255 162.517 139.681 163.021 139.28C163.525 138.879 164.221 138.678 165.107 138.678H168.047V146H166.367V143.312H165.359L163.623 146Z" fill="#76718F"/>
<path d="M138.256 157.56H141.04L144.816 169H142.608L141.696 166.168H137.328L136.432 169H134.432L138.256 157.56ZM137.824 164.616H141.2L139.52 159.304L137.824 164.616ZM151.33 165.448H147.858V169H145.922V160.632H147.858V164.008H151.33V160.632H153.266V169H151.33V165.448ZM157.275 169.16C156.453 169.16 155.781 168.957 155.259 168.552C154.736 168.136 154.475 167.512 154.475 166.68C154.475 165.763 154.864 165.091 155.643 164.664C156.432 164.237 157.472 164.024 158.763 164.024H159.803V163.592C159.803 163.005 159.691 162.579 159.467 162.312C159.243 162.045 158.848 161.912 158.283 161.912C157.333 161.912 156.8 162.349 156.683 163.224H154.811C154.896 162.296 155.264 161.603 155.915 161.144C156.565 160.685 157.392 160.456 158.395 160.456C160.624 160.456 161.739 161.475 161.739 163.512V169H159.835V167.976C159.216 168.765 158.363 169.16 157.275 169.16ZM157.739 167.768C158.357 167.768 158.853 167.619 159.227 167.32C159.611 167.021 159.803 166.605 159.803 166.072V165.24H158.811C157.2 165.24 156.395 165.693 156.395 166.6C156.395 167.379 156.843 167.768 157.739 167.768ZM165.75 165.64C165.643 166.835 165.408 167.715 165.046 168.28C164.694 168.845 164.139 169.128 163.382 169.128C163.126 169.128 162.944 169.112 162.838 169.08C162.816 169.069 162.784 169.053 162.742 169.032C162.71 169.021 162.688 169.016 162.678 169.016V167.4L162.774 167.432C162.88 167.453 162.976 167.464 163.062 167.464C163.36 167.464 163.579 167.288 163.718 166.936C163.867 166.573 163.979 166.035 164.054 165.32C164.075 165.117 164.091 164.856 164.102 164.536C164.112 164.216 164.123 163.853 164.134 163.448C164.155 163.032 164.171 162.701 164.182 162.456L164.23 160.632H170.326V169H168.406V162.072H165.926C165.84 164.003 165.782 165.192 165.75 165.64ZM172.154 169V160.632H174.09V166.552L177.706 160.632H179.626V169H177.706V163.08L174.09 169H172.154ZM187.473 162.76C187.473 163.229 187.345 163.629 187.089 163.96C186.833 164.291 186.454 164.504 185.953 164.6C187.19 164.803 187.809 165.427 187.809 166.472V166.52C187.809 167.288 187.494 167.923 186.865 168.424C186.246 168.915 185.414 169.16 184.369 169.16C183.26 169.16 182.401 168.909 181.793 168.408C181.185 167.907 180.838 167.187 180.753 166.248H182.529C182.71 167.208 183.318 167.688 184.353 167.688C185.324 167.688 185.809 167.293 185.809 166.504V166.456C185.809 165.72 185.334 165.352 184.385 165.352H183.233V164.056H184.225C185.057 164.056 185.473 163.709 185.473 163.016V162.968C185.473 162.307 185.062 161.976 184.241 161.976C183.43 161.976 182.929 162.365 182.737 163.144H180.977C181.073 162.237 181.43 161.565 182.049 161.128C182.668 160.68 183.425 160.456 184.321 160.456C185.238 160.456 185.99 160.659 186.577 161.064C187.174 161.469 187.473 162.019 187.473 162.712V162.76ZM192.495 160.632H195.871C197.908 160.632 198.927 161.331 198.927 162.728V162.76C198.927 163.752 198.431 164.365 197.439 164.6C198.676 164.856 199.295 165.485 199.295 166.488V166.536C199.295 167.336 199.023 167.949 198.479 168.376C197.946 168.792 197.178 169 196.175 169H192.495V160.632ZM194.431 161.928V164.056H195.599C196.068 164.056 196.41 163.971 196.623 163.8C196.836 163.619 196.943 163.336 196.943 162.952V162.92C196.943 162.547 196.826 162.291 196.591 162.152C196.367 162.003 196.015 161.928 195.535 161.928H194.431ZM194.431 165.352V167.704H195.807C196.81 167.704 197.311 167.32 197.311 166.552V166.52C197.311 165.741 196.831 165.352 195.871 165.352H194.431ZM204.273 169.16C203.015 169.16 201.991 168.776 201.201 168.008C200.423 167.24 200.033 166.205 200.033 164.904V164.776C200.033 163.496 200.423 162.456 201.201 161.656C201.991 160.856 202.988 160.456 204.193 160.456C205.324 160.456 206.263 160.808 207.009 161.512C207.767 162.216 208.145 163.272 208.145 164.68V165.24H202.017C202.049 166.04 202.257 166.653 202.641 167.08C203.036 167.507 203.596 167.72 204.321 167.72C205.452 167.72 206.092 167.293 206.241 166.44H208.113C207.975 167.325 207.569 168.003 206.897 168.472C206.236 168.931 205.361 169.16 204.273 169.16ZM206.225 163.944C206.119 162.557 205.441 161.864 204.193 161.864C203.617 161.864 203.137 162.051 202.753 162.424C202.38 162.787 202.145 163.293 202.049 163.944H206.225ZM213.203 169.16C211.869 169.16 210.819 168.739 210.051 167.896C209.293 167.043 208.915 165.763 208.915 164.056V163.464C208.915 159.197 210.531 156.984 213.763 156.824L214.275 156.808C215.544 156.744 216.371 156.643 216.755 156.504V158.024C216.253 158.237 215.416 158.376 214.243 158.44L213.827 158.472C212.707 158.536 211.88 158.899 211.347 159.56C210.824 160.221 210.509 161.176 210.403 162.424H210.483C211.112 161.197 212.163 160.584 213.635 160.584C214.787 160.584 215.72 160.979 216.435 161.768C217.149 162.547 217.507 163.544 217.507 164.76V164.856C217.507 166.168 217.101 167.213 216.291 167.992C215.48 168.771 214.451 169.16 213.203 169.16ZM211.507 166.936C211.923 167.416 212.493 167.656 213.219 167.656C213.944 167.656 214.509 167.416 214.915 166.936C215.32 166.445 215.523 165.757 215.523 164.872V164.808C215.523 163.944 215.331 163.277 214.947 162.808C214.573 162.339 214.024 162.104 213.299 162.104C212.552 162.104 211.965 162.349 211.539 162.84C211.112 163.32 210.899 163.992 210.899 164.856V164.936C210.899 165.779 211.101 166.445 211.507 166.936ZM218.518 163.736H222.358V165.336H218.518V163.736ZM226.205 169.16C225.383 169.16 224.711 168.957 224.189 168.552C223.666 168.136 223.405 167.512 223.405 166.68C223.405 165.763 223.794 165.091 224.573 164.664C225.362 164.237 226.402 164.024 227.693 164.024H228.733V163.592C228.733 163.005 228.621 162.579 228.397 162.312C228.173 162.045 227.778 161.912 227.213 161.912C226.263 161.912 225.73 162.349 225.613 163.224H223.741C223.826 162.296 224.194 161.603 224.845 161.144C225.495 160.685 226.322 160.456 227.325 160.456C229.554 160.456 230.669 161.475 230.669 163.512V169H228.765V167.976C228.146 168.765 227.293 169.16 226.205 169.16ZM226.669 167.768C227.287 167.768 227.783 167.619 228.157 167.32C228.541 167.021 228.733 166.605 228.733 166.072V165.24H227.741C226.13 165.24 225.325 165.693 225.325 166.6C225.325 167.379 225.773 167.768 226.669 167.768ZM237.816 165.448H234.344V169H232.408V160.632H234.344V164.008H237.816V160.632H239.752V169H237.816V165.448ZM243.76 169.16C242.939 169.16 242.267 168.957 241.744 168.552C241.222 168.136 240.96 167.512 240.96 166.68C240.96 165.763 241.35 165.091 242.128 164.664C242.918 164.237 243.958 164.024 245.248 164.024H246.288V163.592C246.288 163.005 246.176 162.579 245.952 162.312C245.728 162.045 245.334 161.912 244.768 161.912C243.819 161.912 243.286 162.349 243.168 163.224H241.296C241.382 162.296 241.75 161.603 242.4 161.144C243.051 160.685 243.878 160.456 244.88 160.456C247.11 160.456 248.224 161.475 248.224 163.512V169H246.32V167.976C245.702 168.765 244.848 169.16 243.76 169.16ZM244.224 167.768C244.843 167.768 245.339 167.619 245.712 167.32C246.096 167.021 246.288 166.605 246.288 166.072V165.24H245.296C243.686 165.24 242.88 165.693 242.88 166.6C242.88 167.379 243.328 167.768 244.224 167.768ZM252.235 165.64C252.129 166.835 251.894 167.715 251.531 168.28C251.179 168.845 250.625 169.128 249.867 169.128C249.611 169.128 249.43 169.112 249.323 169.08C249.302 169.069 249.27 169.053 249.227 169.032C249.195 169.021 249.174 169.016 249.163 169.016V167.4L249.259 167.432C249.366 167.453 249.462 167.464 249.547 167.464C249.846 167.464 250.065 167.288 250.203 166.936C250.353 166.573 250.465 166.035 250.539 165.32C250.561 165.117 250.577 164.856 250.587 164.536C250.598 164.216 250.609 163.853 250.619 163.448C250.641 163.032 250.657 162.701 250.667 162.456L250.715 160.632H256.811V169H254.891V162.072H252.411C252.326 164.003 252.267 165.192 252.235 165.64ZM258.64 169V160.632H260.576V166.552L264.192 160.632H266.112V169H264.192V163.08L260.576 169H258.64ZM274.119 162.072H271.559V169H269.623V162.072H267.063V160.632H274.119V162.072ZM275.148 169V160.632H277.084V166.552L280.7 160.632H282.62V169H280.7V163.08L277.084 169H275.148ZM286.307 164.904V169H284.371V160.632H286.307V164.344L289.299 160.632H291.411L288.163 164.504L291.683 169H289.443L286.307 164.904ZM292.532 169V160.632H294.468V166.552L298.084 160.632H300.004V169H298.084V163.08L294.468 169H292.532Z" fill="#F6F6F6"/>
<path d="M86.9 167.56L103.1 150.46C107.46 145.86 109.64 141.8 109.64 138.28C109.64 136.24 109.08 134.64 107.96 133.48C106.84 132.32 105.26 131.74 103.22 131.74C98.78 131.74 96.22 134.58 95.54 140.26H88.22C88.5 135.54 89.96 131.9 92.6 129.34C95.28 126.78 98.9 125.5 103.46 125.5C107.86 125.5 111.32 126.66 113.84 128.98C116.36 131.3 117.62 134.36 117.62 138.16C117.62 140.8 116.9 143.36 115.46 145.84C114.06 148.28 111.98 150.84 109.22 153.52L99.68 162.82H117.92V169H86.9V167.56Z" fill="white"/>
<path d="M139.39 234.97H134.434V234.312L138.858 226.99H141.196V233.584H142.54V234.97H141.196V237H139.39V234.97ZM139.418 233.584V228.404L136.422 233.584H139.418ZM143.387 232.394H146.747V233.794H143.387V232.394ZM151.261 237.14C150.132 237.14 149.269 236.865 148.671 236.314C148.074 235.763 147.747 235.035 147.691 234.13H149.427C149.511 234.653 149.684 235.045 149.945 235.306C150.216 235.567 150.65 235.698 151.247 235.698C151.817 235.698 152.26 235.516 152.577 235.152C152.895 234.788 153.053 234.293 153.053 233.668C153.053 233.061 152.89 232.581 152.563 232.226C152.246 231.871 151.807 231.694 151.247 231.694C150.361 231.694 149.665 231.983 149.161 232.562H148.209L148.293 226.99H154.369V228.46H149.721L149.707 231.176C150.193 230.616 150.911 230.336 151.863 230.336C152.778 230.336 153.52 230.639 154.089 231.246C154.659 231.853 154.943 232.669 154.943 233.696C154.943 234.751 154.603 235.591 153.921 236.216C153.24 236.832 152.353 237.14 151.261 237.14ZM161.224 233.892C161.121 234.751 160.976 235.367 160.79 235.74H163.632V230.924H161.406C161.331 232.445 161.27 233.435 161.224 233.892ZM159.88 238.778H158.438V235.74H158.9C159.142 235.656 159.32 235.46 159.432 235.152C159.544 234.835 159.637 234.377 159.712 233.78C159.861 232.576 159.936 231.209 159.936 229.678H165.312V235.74H166.376V238.778H164.934L164.878 237H159.936L159.88 238.778ZM171.915 233.892H168.877V237H167.183V229.678H168.877V232.632H171.915V229.678H173.609V237H171.915V233.892ZM178.419 237.14C177.318 237.14 176.422 236.804 175.731 236.132C175.05 235.46 174.709 234.555 174.709 233.416V233.304C174.709 232.184 175.05 231.274 175.731 230.574C176.422 229.874 177.294 229.524 178.349 229.524C179.338 229.524 180.16 229.832 180.813 230.448C181.476 231.064 181.807 231.988 181.807 233.22V233.71H176.445C176.473 234.41 176.655 234.947 176.991 235.32C177.336 235.693 177.826 235.88 178.461 235.88C179.45 235.88 180.01 235.507 180.141 234.76H181.779C181.658 235.535 181.303 236.127 180.715 236.538C180.136 236.939 179.371 237.14 178.419 237.14ZM180.127 232.576C180.034 231.363 179.441 230.756 178.349 230.756C177.845 230.756 177.425 230.919 177.089 231.246C176.762 231.563 176.557 232.007 176.473 232.576H180.127ZM187.576 227.97C187.203 228.325 186.722 228.502 186.134 228.502C185.546 228.502 185.07 228.325 184.706 227.97C184.342 227.606 184.141 227.13 184.104 226.542H185.378C185.434 227.149 185.686 227.452 186.134 227.452C186.61 227.452 186.881 227.149 186.946 226.542H188.206C188.169 227.13 187.959 227.606 187.576 227.97ZM182.9 237V229.678H184.594V234.858L187.758 229.678H189.438V237H187.758V231.82L184.594 237H182.9Z" fill="#76718F"/>
<path d="M138.256 248.56H141.04L144.816 260H142.608L141.696 257.168H137.328L136.432 260H134.432L138.256 248.56ZM137.824 255.616H141.2L139.52 250.304L137.824 255.616ZM147.573 259.152L144.261 251.632H146.357L148.581 257.024L150.629 251.632H152.517L147.957 262.864H146.053L147.573 259.152ZM155.245 256.448C155.127 257.429 154.962 258.133 154.749 258.56H157.997V253.056H155.453C155.367 254.795 155.298 255.925 155.245 256.448ZM153.709 262.032H152.061V258.56H152.589C152.866 258.464 153.069 258.24 153.197 257.888C153.325 257.525 153.431 257.003 153.517 256.32C153.687 254.944 153.773 253.381 153.773 251.632H159.917V258.56H161.133V262.032H159.485L159.421 260H153.773L153.709 262.032ZM162.056 260V251.632H163.992V257.552L167.608 251.632H169.528V260H167.608V254.08L163.992 260H162.056ZM177.535 253.072H174.975V260H173.039V253.072H170.479V251.632H177.535V253.072ZM181.959 260V251.632H183.895V257.552L187.511 251.632H189.431V260H187.511V254.08L183.895 260H181.959ZM196.591 256.448H193.119V260H191.183V251.632H193.119V255.008H196.591V251.632H198.527V260H196.591V256.448ZM206.599 253.072H204.039V260H202.103V253.072H199.543V251.632H206.599V253.072ZM211.075 260.16C209.816 260.16 208.792 259.776 208.003 259.008C207.224 258.24 206.835 257.205 206.835 255.904V255.776C206.835 254.496 207.224 253.456 208.003 252.656C208.792 251.856 209.789 251.456 210.995 251.456C212.125 251.456 213.064 251.808 213.811 252.512C214.568 253.216 214.947 254.272 214.947 255.68V256.24H208.819C208.851 257.04 209.059 257.653 209.443 258.08C209.837 258.507 210.397 258.72 211.123 258.72C212.253 258.72 212.893 258.293 213.043 257.44H214.915C214.776 258.325 214.371 259.003 213.699 259.472C213.037 259.931 212.163 260.16 211.075 260.16ZM213.027 254.944C212.92 253.557 212.243 252.864 210.995 252.864C210.419 252.864 209.939 253.051 209.555 253.424C209.181 253.787 208.947 254.293 208.851 254.944H213.027ZM216.196 251.632H218.132V252.976C218.377 252.549 218.745 252.192 219.236 251.904C219.737 251.605 220.281 251.456 220.868 251.456C221.945 251.456 222.83 251.84 223.524 252.608C224.228 253.365 224.58 254.4 224.58 255.712V255.84C224.58 257.163 224.233 258.213 223.54 258.992C222.857 259.771 221.966 260.16 220.868 260.16C220.228 260.16 219.668 260.027 219.188 259.76C218.718 259.483 218.366 259.125 218.132 258.688V262.864H216.196V251.632ZM220.388 258.624C221.102 258.624 221.646 258.389 222.02 257.92C222.404 257.451 222.596 256.768 222.596 255.872V255.744C222.596 254.848 222.388 254.165 221.972 253.696C221.566 253.216 221.033 252.976 220.372 252.976C219.668 252.976 219.108 253.211 218.692 253.68C218.276 254.149 218.068 254.837 218.068 255.744V255.872C218.068 256.779 218.27 257.467 218.676 257.936C219.092 258.395 219.662 258.624 220.388 258.624ZM231.665 251.472C232.955 251.536 234.011 251.936 234.833 252.672C235.654 253.408 236.065 254.421 236.065 255.712V255.84C236.065 257.141 235.649 258.176 234.817 258.944C233.995 259.701 232.945 260.101 231.665 260.144V262.864H229.761V260.144C228.459 260.08 227.398 259.685 226.577 258.96C225.755 258.224 225.345 257.205 225.345 255.904V255.776C225.345 254.475 225.755 253.451 226.577 252.704C227.398 251.947 228.459 251.536 229.761 251.472V247.76H231.665V251.472ZM231.665 258.736C232.401 258.693 232.987 258.421 233.425 257.92C233.873 257.419 234.097 256.741 234.097 255.888V255.776C234.097 254.891 233.878 254.203 233.441 253.712C233.003 253.211 232.411 252.939 231.665 252.896V258.736ZM229.761 252.896C229.014 252.928 228.417 253.195 227.969 253.696C227.531 254.187 227.313 254.864 227.313 255.728V255.856C227.313 256.741 227.531 257.429 227.969 257.92C228.406 258.411 229.003 258.677 229.761 258.72V252.896ZM241.072 260.16C239.813 260.16 238.789 259.776 238 259.008C237.221 258.24 236.832 257.205 236.832 255.904V255.776C236.832 254.496 237.221 253.456 238 252.656C238.789 251.856 239.787 251.456 240.992 251.456C242.123 251.456 243.061 251.808 243.808 252.512C244.565 253.216 244.944 254.272 244.944 255.68V256.24H238.816C238.848 257.04 239.056 257.653 239.44 258.08C239.835 258.507 240.395 258.72 241.12 258.72C242.251 258.72 242.891 258.293 243.04 257.44H244.912C244.773 258.325 244.368 259.003 243.696 259.472C243.035 259.931 242.16 260.16 241.072 260.16ZM243.024 254.944C242.917 253.557 242.24 252.864 240.992 252.864C240.416 252.864 239.936 253.051 239.552 253.424C239.179 253.787 238.944 254.293 238.848 254.944H243.024ZM251.537 249.68C251.111 250.085 250.561 250.288 249.889 250.288C249.217 250.288 248.673 250.085 248.257 249.68C247.841 249.264 247.612 248.72 247.569 248.048H249.025C249.089 248.741 249.377 249.088 249.889 249.088C250.433 249.088 250.743 248.741 250.817 248.048H252.257C252.215 248.72 251.975 249.264 251.537 249.68ZM246.193 260V251.632H248.129V257.552L251.745 251.632H253.665V260H251.745V254.08L248.129 260H246.193ZM259.08 260.16C257.854 260.16 256.84 259.781 256.04 259.024C255.251 258.256 254.856 257.221 254.856 255.92V255.792C254.856 254.501 255.256 253.456 256.056 252.656C256.867 251.856 257.875 251.456 259.08 251.456C260.104 251.456 260.974 251.712 261.688 252.224C262.403 252.725 262.808 253.515 262.904 254.592H261.032C260.872 253.536 260.232 253.008 259.112 253.008C258.44 253.008 257.891 253.253 257.464 253.744C257.048 254.235 256.84 254.907 256.84 255.76V255.888C256.84 256.795 257.043 257.488 257.448 257.968C257.864 258.437 258.435 258.672 259.16 258.672C259.694 258.672 260.147 258.517 260.52 258.208C260.894 257.899 261.112 257.456 261.176 256.88H262.952C262.888 257.851 262.504 258.64 261.8 259.248C261.096 259.856 260.19 260.16 259.08 260.16ZM266.332 260.16C265.51 260.16 264.838 259.957 264.316 259.552C263.793 259.136 263.532 258.512 263.532 257.68C263.532 256.763 263.921 256.091 264.7 255.664C265.489 255.237 266.529 255.024 267.82 255.024H268.86V254.592C268.86 254.005 268.748 253.579 268.524 253.312C268.3 253.045 267.905 252.912 267.34 252.912C266.39 252.912 265.857 253.349 265.74 254.224H263.868C263.953 253.296 264.321 252.603 264.972 252.144C265.622 251.685 266.449 251.456 267.452 251.456C269.681 251.456 270.796 252.475 270.796 254.512V260H268.892V258.976C268.273 259.765 267.42 260.16 266.332 260.16ZM266.796 258.768C267.414 258.768 267.91 258.619 268.284 258.32C268.668 258.021 268.86 257.605 268.86 257.072V256.24H267.868C266.257 256.24 265.452 256.693 265.452 257.6C265.452 258.379 265.9 258.768 266.796 258.768Z" fill="#F6F6F6"/>
<path d="M105.431 260.6C100.431 260.6 96.5314 259.34 93.7314 256.82C90.9314 254.3 89.4514 250.94 89.2914 246.74H96.5514C96.7914 249.14 97.6114 251.06 99.0114 252.5C100.411 253.9 102.491 254.6 105.251 254.6C110.691 254.6 113.411 252.28 113.411 247.64C113.411 242.96 110.831 240.62 105.671 240.62H102.371V234.92H105.431C110.191 234.92 112.571 232.82 112.571 228.62C112.571 226.78 111.991 225.32 110.831 224.24C109.711 223.12 108.071 222.56 105.911 222.56C103.671 222.56 101.831 223.2 100.391 224.48C98.9914 225.72 98.1714 227.44 97.9314 229.64H90.8514C91.0914 225.8 92.5514 222.66 95.2314 220.22C97.9514 217.74 101.551 216.5 106.031 216.5C110.391 216.5 113.831 217.6 116.351 219.8C118.911 221.96 120.191 224.7 120.191 228.02C120.191 232.46 117.871 235.58 113.231 237.38C115.831 237.98 117.851 239.16 119.291 240.92C120.771 242.68 121.511 244.96 121.511 247.76C121.511 251.72 120.051 254.86 117.131 257.18C114.251 259.46 110.351 260.6 105.431 260.6Z" fill="white"/>
<path d="M136.39 319.97H131.434V319.312L135.858 311.99H138.196V318.584H139.54V319.97H138.196V322H136.39V319.97ZM136.418 318.584V313.404L133.422 318.584H136.418ZM140.387 317.394H143.747V318.794H140.387V317.394ZM148.261 322.14C147.132 322.14 146.269 321.865 145.671 321.314C145.074 320.763 144.747 320.035 144.691 319.13H146.427C146.511 319.653 146.684 320.045 146.945 320.306C147.216 320.567 147.65 320.698 148.247 320.698C148.817 320.698 149.26 320.516 149.577 320.152C149.895 319.788 150.053 319.293 150.053 318.668C150.053 318.061 149.89 317.581 149.563 317.226C149.246 316.871 148.807 316.694 148.247 316.694C147.361 316.694 146.665 316.983 146.161 317.562H145.209L145.293 311.99H151.369V313.46H146.721L146.707 316.176C147.193 315.616 147.911 315.336 148.863 315.336C149.778 315.336 150.52 315.639 151.089 316.246C151.659 316.853 151.943 317.669 151.943 318.696C151.943 319.751 151.603 320.591 150.921 321.216C150.24 321.832 149.353 322.14 148.261 322.14ZM158.224 318.892C158.121 319.751 157.976 320.367 157.79 320.74H160.632V315.924H158.406C158.331 317.445 158.27 318.435 158.224 318.892ZM156.88 323.778H155.438V320.74H155.9C156.142 320.656 156.32 320.46 156.432 320.152C156.544 319.835 156.637 319.377 156.712 318.78C156.861 317.576 156.936 316.209 156.936 314.678H162.312V320.74H163.376V323.778H161.934L161.878 322H156.936L156.88 323.778ZM168.915 318.892H165.877V322H164.183V314.678H165.877V317.632H168.915V314.678H170.609V322H168.915V318.892ZM175.419 322.14C174.318 322.14 173.422 321.804 172.731 321.132C172.05 320.46 171.709 319.555 171.709 318.416V318.304C171.709 317.184 172.05 316.274 172.731 315.574C173.422 314.874 174.294 314.524 175.349 314.524C176.338 314.524 177.16 314.832 177.813 315.448C178.476 316.064 178.807 316.988 178.807 318.22V318.71H173.445C173.473 319.41 173.655 319.947 173.991 320.32C174.336 320.693 174.826 320.88 175.461 320.88C176.45 320.88 177.01 320.507 177.141 319.76H178.779C178.658 320.535 178.303 321.127 177.715 321.538C177.136 321.939 176.371 322.14 175.419 322.14ZM177.127 317.576C177.034 316.363 176.441 315.756 175.349 315.756C174.845 315.756 174.425 315.919 174.089 316.246C173.762 316.563 173.557 317.007 173.473 317.576H177.127ZM184.576 312.97C184.203 313.325 183.722 313.502 183.134 313.502C182.546 313.502 182.07 313.325 181.706 312.97C181.342 312.606 181.141 312.13 181.104 311.542H182.378C182.434 312.149 182.686 312.452 183.134 312.452C183.61 312.452 183.881 312.149 183.946 311.542H185.206C185.169 312.13 184.959 312.606 184.576 312.97ZM179.9 322V314.678H181.594V319.858L184.758 314.678H186.438V322H184.758V316.82L181.594 322H179.9Z" fill="#76718F"/>
<path d="M137.56 343.448C138.637 343.448 139.491 343.075 140.12 342.328C140.76 341.571 141.08 340.568 141.08 339.32V339.192C141.08 337.987 140.76 337.005 140.12 336.248C139.491 335.48 138.627 335.096 137.528 335.096C136.419 335.096 135.544 335.469 134.904 336.216C134.275 336.963 133.96 337.96 133.96 339.208V339.336C133.96 340.573 134.296 341.571 134.968 342.328C135.64 343.075 136.504 343.448 137.56 343.448ZM137.528 345.16C135.8 345.16 134.403 344.611 133.336 343.512C132.269 342.413 131.736 341.027 131.736 339.352V339.224C131.736 337.539 132.275 336.147 133.352 335.048C134.44 333.949 135.832 333.4 137.528 333.4C139.224 333.4 140.605 333.944 141.672 335.032C142.749 336.109 143.288 337.491 143.288 339.176V339.304C143.288 340.989 142.755 342.387 141.688 343.496C140.632 344.605 139.245 345.16 137.528 345.16ZM151.037 338.072H148.477V345H146.541V338.072H143.981V336.632H151.037V338.072ZM156.963 345V341.288C156.398 341.917 155.587 342.232 154.531 342.232C153.71 342.232 153.048 341.971 152.547 341.448C152.046 340.915 151.795 340.115 151.795 339.048V336.632H153.715V338.84C153.715 339.48 153.838 339.949 154.083 340.248C154.328 340.536 154.712 340.68 155.235 340.68C156.014 340.68 156.59 340.413 156.963 339.88V336.632H158.899V345H156.963ZM164.408 345.16C163.149 345.16 162.125 344.776 161.336 344.008C160.557 343.24 160.168 342.205 160.168 340.904V340.776C160.168 339.496 160.557 338.456 161.336 337.656C162.125 336.856 163.122 336.456 164.328 336.456C165.458 336.456 166.397 336.808 167.144 337.512C167.901 338.216 168.28 339.272 168.28 340.68V341.24H162.152C162.184 342.04 162.392 342.653 162.776 343.08C163.17 343.507 163.73 343.72 164.456 343.72C165.586 343.72 166.226 343.293 166.376 342.44H168.248C168.109 343.325 167.704 344.003 167.032 344.472C166.37 344.931 165.496 345.16 164.408 345.16ZM166.36 339.944C166.253 338.557 165.576 337.864 164.328 337.864C163.752 337.864 163.272 338.051 162.888 338.424C162.514 338.787 162.28 339.293 162.184 339.944H166.36ZM175.707 338.072H173.147V345H171.211V338.072H168.651V336.632H175.707V338.072ZM183.795 345.16C182.569 345.16 181.555 344.781 180.755 344.024C179.966 343.256 179.571 342.221 179.571 340.92V340.792C179.571 339.501 179.971 338.456 180.771 337.656C181.582 336.856 182.59 336.456 183.795 336.456C184.819 336.456 185.689 336.712 186.403 337.224C187.118 337.725 187.523 338.515 187.619 339.592H185.747C185.587 338.536 184.947 338.008 183.827 338.008C183.155 338.008 182.606 338.253 182.179 338.744C181.763 339.235 181.555 339.907 181.555 340.76V340.888C181.555 341.795 181.758 342.488 182.163 342.968C182.579 343.437 183.15 343.672 183.875 343.672C184.409 343.672 184.862 343.517 185.235 343.208C185.609 342.899 185.827 342.456 185.891 341.88H187.667C187.603 342.851 187.219 343.64 186.515 344.248C185.811 344.856 184.905 345.16 183.795 345.16ZM192.249 336.632H194.185V337.976C194.431 337.549 194.799 337.192 195.29 336.904C195.791 336.605 196.335 336.456 196.922 336.456C197.999 336.456 198.884 336.84 199.578 337.608C200.282 338.365 200.634 339.4 200.634 340.712V340.84C200.634 342.163 200.287 343.213 199.594 343.992C198.911 344.771 198.02 345.16 196.922 345.16C196.282 345.16 195.722 345.027 195.241 344.76C194.772 344.483 194.42 344.125 194.185 343.688V347.864H192.249V336.632ZM196.442 343.624C197.156 343.624 197.7 343.389 198.074 342.92C198.458 342.451 198.65 341.768 198.65 340.872V340.744C198.65 339.848 198.442 339.165 198.026 338.696C197.62 338.216 197.087 337.976 196.425 337.976C195.722 337.976 195.162 338.211 194.746 338.68C194.33 339.149 194.122 339.837 194.122 340.744V340.872C194.122 341.779 194.324 342.467 194.73 342.936C195.145 343.395 195.716 343.624 196.442 343.624ZM205.575 345.16C204.316 345.16 203.292 344.776 202.503 344.008C201.724 343.24 201.335 342.205 201.335 340.904V340.776C201.335 339.496 201.724 338.456 202.503 337.656C203.292 336.856 204.289 336.456 205.495 336.456C206.625 336.456 207.564 336.808 208.311 337.512C209.068 338.216 209.447 339.272 209.447 340.68V341.24H203.319C203.351 342.04 203.559 342.653 203.943 343.08C204.337 343.507 204.897 343.72 205.623 343.72C206.753 343.72 207.393 343.293 207.543 342.44H209.415C209.276 343.325 208.871 344.003 208.199 344.472C207.537 344.931 206.663 345.16 205.575 345.16ZM207.527 339.944C207.42 338.557 206.743 337.864 205.495 337.864C204.919 337.864 204.439 338.051 204.055 338.424C203.681 338.787 203.447 339.293 203.351 339.944H207.527ZM212.632 340.904V345H210.696V336.632H212.632V340.344L215.624 336.632H217.736L214.488 340.504L218.008 345H215.768L212.632 340.904ZM222.194 343.656C222.919 343.656 223.485 343.411 223.89 342.92C224.295 342.419 224.498 341.736 224.498 340.872V340.76C224.498 339.896 224.295 339.219 223.89 338.728C223.485 338.227 222.919 337.976 222.194 337.976C221.469 337.976 220.898 338.221 220.482 338.712C220.077 339.203 219.874 339.88 219.874 340.744V340.872C219.874 341.736 220.077 342.419 220.482 342.92C220.887 343.411 221.458 343.656 222.194 343.656ZM225.266 343.976C224.455 344.765 223.426 345.16 222.178 345.16C220.93 345.16 219.901 344.771 219.09 343.992C218.29 343.203 217.89 342.173 217.89 340.904V340.776C217.89 339.496 218.295 338.456 219.106 337.656C219.917 336.856 220.946 336.456 222.194 336.456C223.431 336.456 224.455 336.851 225.266 337.64C226.077 338.429 226.482 339.459 226.482 340.728V340.856C226.482 342.147 226.077 343.187 225.266 343.976ZM229.415 338.68V345H227.751V336.632H230.423L232.519 341.848L234.631 336.632H237.143V345H235.239V338.68L232.599 345H231.959L229.415 338.68ZM242.655 345.16C241.396 345.16 240.372 344.776 239.583 344.008C238.804 343.24 238.415 342.205 238.415 340.904V340.776C238.415 339.496 238.804 338.456 239.583 337.656C240.372 336.856 241.369 336.456 242.575 336.456C243.705 336.456 244.644 336.808 245.391 337.512C246.148 338.216 246.527 339.272 246.527 340.68V341.24H240.399C240.431 342.04 240.639 342.653 241.023 343.08C241.417 343.507 241.977 343.72 242.703 343.72C243.833 343.72 244.473 343.293 244.623 342.44H246.495C246.356 343.325 245.951 344.003 245.279 344.472C244.617 344.931 243.743 345.16 242.655 345.16ZM244.607 339.944C244.5 338.557 243.823 337.864 242.575 337.864C241.999 337.864 241.519 338.051 241.135 338.424C240.761 338.787 240.527 339.293 240.431 339.944H244.607ZM253.184 341.448H249.712V345H247.776V336.632H249.712V340.008H253.184V336.632H255.12V345H253.184V341.448ZM259.176 341.448C259.059 342.429 258.894 343.133 258.68 343.56H261.928V338.056H259.384C259.299 339.795 259.23 340.925 259.176 341.448ZM257.64 347.032H255.992V343.56H256.52C256.798 343.464 257 343.24 257.128 342.888C257.256 342.525 257.363 342.003 257.448 341.32C257.619 339.944 257.704 338.381 257.704 336.632H263.848V343.56H265.064V347.032H263.416L263.352 345H257.704L257.64 347.032ZM268.18 345.16C267.358 345.16 266.686 344.957 266.164 344.552C265.641 344.136 265.38 343.512 265.38 342.68C265.38 341.763 265.769 341.091 266.548 340.664C267.337 340.237 268.377 340.024 269.668 340.024H270.708V339.592C270.708 339.005 270.596 338.579 270.372 338.312C270.148 338.045 269.753 337.912 269.188 337.912C268.238 337.912 267.705 338.349 267.588 339.224H265.716C265.801 338.296 266.169 337.603 266.82 337.144C267.47 336.685 268.297 336.456 269.3 336.456C271.529 336.456 272.644 337.475 272.644 339.512V345H270.74V343.976C270.121 344.765 269.268 345.16 268.18 345.16ZM268.644 343.768C269.262 343.768 269.758 343.619 270.132 343.32C270.516 343.021 270.708 342.605 270.708 342.072V341.24H269.716C268.105 341.24 267.3 341.693 267.3 342.6C267.3 343.379 267.748 343.768 268.644 343.768ZM281.167 347.032L281.071 345H274.383V336.632H276.319V343.56H279.631V336.632H281.567V343.56H282.783V347.032H281.167ZM283.715 345V336.632H285.651V342.552L289.267 336.632H291.187V345H289.267V339.08L285.651 345H283.715ZM296.154 338.04C295.12 338.04 294.602 338.461 294.602 339.304V339.352C294.602 339.779 294.725 340.093 294.97 340.296C295.216 340.499 295.61 340.6 296.154 340.6H297.338V338.04H296.154ZM294.202 345H292.074L294.362 341.56C293.221 341.208 292.65 340.467 292.65 339.336V339.288C292.65 338.435 292.938 337.779 293.514 337.32C294.09 336.861 294.885 336.632 295.898 336.632H299.258V345H297.338V341.928H296.186L294.202 345ZM302.669 338.68V345H301.005V336.632H303.677L305.773 341.848L307.885 336.632H310.397V345H308.493V338.68L305.853 345H305.213L302.669 338.68ZM312.228 345V336.632H314.164V342.552L317.78 336.632H319.7V345H317.78V339.08L314.164 345H312.228Z" fill="#FC63D5"/>
<path d="M106.1 336.3H84.86V333.48L103.82 302.1H113.84V330.36H119.6V336.3H113.84V345H106.1V336.3ZM106.22 330.36V308.16L93.38 330.36H106.22Z" fill="#FC63D5"/>
</svg>
