<svg width="1740" height="251" viewBox="0 0 1740 251" fill="none" xmlns="http://www.w3.org/2000/svg">
<path d="M271.928 181.672L269.512 183.32V181.448L272.168 179.56H274.072V191H271.928V181.672ZM276.182 185.736H280.022V187.336H276.182V185.736ZM280.53 190.616L284.85 186.056C286.013 184.829 286.594 183.747 286.594 182.808C286.594 182.264 286.445 181.837 286.146 181.528C285.847 181.219 285.426 181.064 284.882 181.064C283.698 181.064 283.015 181.821 282.834 183.336H280.882C280.957 182.077 281.346 181.107 282.05 180.424C282.765 179.741 283.73 179.4 284.946 179.4C286.119 179.4 287.042 179.709 287.714 180.328C288.386 180.947 288.722 181.763 288.722 182.776C288.722 183.48 288.53 184.163 288.146 184.824C287.773 185.475 287.218 186.157 286.482 186.872L283.938 189.352H288.802V191H280.53V190.616ZM295.91 187.448C295.792 188.429 295.627 189.133 295.414 189.56H298.661V184.056H296.118C296.032 185.795 295.963 186.925 295.91 187.448ZM294.373 193.032H292.725V189.56H293.253C293.531 189.464 293.734 189.24 293.862 188.888C293.989 188.525 294.096 188.003 294.181 187.32C294.352 185.944 294.438 184.381 294.438 182.632H300.582V189.56H301.798V193.032H300.15L300.086 191H294.438L294.373 193.032ZM308.129 187.448H304.657V191H302.721V182.632H304.657V186.008H308.129V182.632H310.065V191H308.129V187.448ZM315.097 184.04C314.063 184.04 313.545 184.461 313.545 185.304V185.352C313.545 185.779 313.668 186.093 313.913 186.296C314.159 186.499 314.553 186.6 315.097 186.6H316.281V184.04H315.097ZM313.145 191H311.017L313.305 187.56C312.164 187.208 311.593 186.467 311.593 185.336V185.288C311.593 184.435 311.881 183.779 312.457 183.32C313.033 182.861 313.828 182.632 314.841 182.632H318.201V191H316.281V187.928H315.129L313.145 191Z" fill="#76718F"/>
<path d="M525.16 114.68H519.496V113.928L524.552 105.56H527.224V113.096H528.76V114.68H527.224V117H525.16V114.68ZM525.192 113.096V107.176L521.768 113.096H525.192ZM535.62 113.448C535.502 114.429 535.337 115.133 535.124 115.56H538.372V110.056H535.828C535.742 111.795 535.673 112.925 535.62 113.448ZM534.084 119.032H532.435V115.56H532.964C533.241 115.464 533.444 115.24 533.572 114.888C533.7 114.525 533.806 114.003 533.891 113.32C534.062 111.944 534.148 110.381 534.148 108.632H540.292V115.56H541.508V119.032H539.86L539.796 117H534.148L534.084 119.032ZM547.839 113.448H544.367V117H542.431V108.632H544.367V112.008H547.839V108.632H549.775V117H547.839V113.448ZM554.807 110.04C553.773 110.04 553.255 110.461 553.255 111.304V111.352C553.255 111.779 553.378 112.093 553.623 112.296C553.869 112.499 554.263 112.6 554.807 112.6H555.991V110.04H554.807ZM552.855 117H550.727L553.015 113.56C551.874 113.208 551.303 112.467 551.303 111.336V111.288C551.303 110.435 551.591 109.779 552.167 109.32C552.743 108.861 553.538 108.632 554.551 108.632H557.911V117H555.991V113.928H554.839L552.855 117Z" fill="#76718F"/>
<path d="M528.64 219V204.7H531.32V215.42L537.96 204.7H540.64V219H537.96V208.22L531.32 219H528.64ZM549.854 214.56H545.514V219H543.094V208.54H545.514V212.76H549.854V208.54H552.274V219H549.854V214.56ZM562.365 210.34H559.165V219H556.745V210.34H553.545V208.54H562.365V210.34ZM567.959 219.2C566.385 219.2 565.105 218.72 564.119 217.76C563.145 216.8 562.659 215.507 562.659 213.88V213.72C562.659 212.12 563.145 210.82 564.119 209.82C565.105 208.82 566.352 208.32 567.859 208.32C569.272 208.32 570.445 208.76 571.379 209.64C572.325 210.52 572.799 211.84 572.799 213.6V214.3H565.139C565.179 215.3 565.439 216.067 565.919 216.6C566.412 217.133 567.112 217.4 568.019 217.4C569.432 217.4 570.232 216.867 570.419 215.8H572.759C572.585 216.907 572.079 217.753 571.239 218.34C570.412 218.913 569.319 219.2 567.959 219.2ZM570.399 212.68C570.265 210.947 569.419 210.08 567.859 210.08C567.139 210.08 566.539 210.313 566.059 210.78C565.592 211.233 565.299 211.867 565.179 212.68H570.399ZM574.36 208.54H576.78V210.22C577.087 209.687 577.547 209.24 578.16 208.88C578.787 208.507 579.467 208.32 580.2 208.32C581.547 208.32 582.654 208.8 583.52 209.76C584.4 210.707 584.84 212 584.84 213.64V213.8C584.84 215.453 584.407 216.767 583.54 217.74C582.687 218.713 581.574 219.2 580.2 219.2C579.4 219.2 578.7 219.033 578.1 218.7C577.514 218.353 577.074 217.907 576.78 217.36V222.58H574.36V208.54ZM579.6 217.28C580.494 217.28 581.174 216.987 581.64 216.4C582.12 215.813 582.36 214.96 582.36 213.84V213.68C582.36 212.56 582.1 211.707 581.58 211.12C581.074 210.52 580.407 210.22 579.58 210.22C578.7 210.22 578 210.513 577.48 211.1C576.96 211.687 576.7 212.547 576.7 213.68V213.84C576.7 214.973 576.954 215.833 577.46 216.42C577.98 216.993 578.694 217.28 579.6 217.28ZM586.417 208.54H590.637C593.183 208.54 594.457 209.413 594.457 211.16V211.2C594.457 212.44 593.837 213.207 592.597 213.5C594.143 213.82 594.917 214.607 594.917 215.86V215.92C594.917 216.92 594.577 217.687 593.897 218.22C593.23 218.74 592.27 219 591.017 219H586.417V208.54ZM588.837 210.16V212.82H590.297C590.883 212.82 591.31 212.713 591.577 212.5C591.843 212.273 591.977 211.92 591.977 211.44V211.4C591.977 210.933 591.83 210.613 591.537 210.44C591.257 210.253 590.817 210.16 590.217 210.16H588.837ZM588.837 214.44V217.38H590.557C591.81 217.38 592.437 216.9 592.437 215.94V215.9C592.437 214.927 591.837 214.44 590.637 214.44H588.837ZM596.539 208.54H598.959V211.98H600.839C602.053 211.98 603.026 212.287 603.759 212.9C604.493 213.513 604.859 214.387 604.859 215.52V215.58C604.859 216.727 604.499 217.587 603.779 218.16C603.059 218.72 602.059 219 600.779 219H596.539V208.54ZM600.479 217.26C601.773 217.26 602.419 216.693 602.419 215.56V215.5C602.419 214.327 601.773 213.74 600.479 213.74H598.959V217.26H600.479ZM615.051 219.2C613.705 219.2 612.578 218.813 611.671 218.04C610.778 217.253 610.238 216.2 610.051 214.88L609.991 214.56H608.691V219H606.271V208.54H608.691V212.76H610.031C610.218 211.4 610.765 210.32 611.671 209.52C612.578 208.72 613.711 208.32 615.071 208.32C616.605 208.32 617.851 208.813 618.811 209.8C619.771 210.773 620.251 212.06 620.251 213.66V213.82C620.251 215.433 619.765 216.733 618.791 217.72C617.818 218.707 616.571 219.2 615.051 219.2ZM613.071 216.4C613.538 217.013 614.205 217.32 615.071 217.32C615.938 217.32 616.605 217.013 617.071 216.4C617.538 215.773 617.771 214.92 617.771 213.84V213.7C617.771 212.607 617.538 211.753 617.071 211.14C616.605 210.513 615.938 210.2 615.071 210.2C614.218 210.2 613.558 210.507 613.091 211.12C612.625 211.733 612.391 212.58 612.391 213.66V213.82C612.391 214.913 612.618 215.773 613.071 216.4Z" fill="#F6F6F6"/>
<path d="M786.564 158.7H790.044L794.764 173H792.004L790.864 169.46H785.404L784.284 173H781.784L786.564 158.7ZM786.024 167.52H790.244L788.144 160.88L786.024 167.52ZM802.906 168.56H798.566V173H796.146V162.54H798.566V166.76H802.906V162.54H805.326V173H802.906V168.56ZM810.337 173.2C809.31 173.2 808.47 172.947 807.817 172.44C807.164 171.92 806.837 171.14 806.837 170.1C806.837 168.953 807.324 168.113 808.297 167.58C809.284 167.047 810.584 166.78 812.197 166.78H813.497V166.24C813.497 165.507 813.357 164.973 813.077 164.64C812.797 164.307 812.304 164.14 811.597 164.14C810.41 164.14 809.744 164.687 809.597 165.78H807.257C807.364 164.62 807.824 163.753 808.637 163.18C809.45 162.607 810.484 162.32 811.737 162.32C814.524 162.32 815.917 163.593 815.917 166.14V173H813.537V171.72C812.764 172.707 811.697 173.2 810.337 173.2ZM810.917 171.46C811.69 171.46 812.31 171.273 812.777 170.9C813.257 170.527 813.497 170.007 813.497 169.34V168.3H812.257C810.244 168.3 809.237 168.867 809.237 170C809.237 170.973 809.797 171.46 810.917 171.46ZM820.931 168.8C820.797 170.293 820.504 171.393 820.051 172.1C819.611 172.807 818.917 173.16 817.971 173.16C817.651 173.16 817.424 173.14 817.291 173.1C817.264 173.087 817.224 173.067 817.171 173.04C817.131 173.027 817.104 173.02 817.091 173.02V171L817.211 171.04C817.344 171.067 817.464 171.08 817.571 171.08C817.944 171.08 818.217 170.86 818.391 170.42C818.577 169.967 818.717 169.293 818.811 168.4C818.837 168.147 818.857 167.82 818.871 167.42C818.884 167.02 818.897 166.567 818.911 166.06C818.937 165.54 818.957 165.127 818.971 164.82L819.031 162.54H826.651V173H824.251V164.34H821.151C821.044 166.753 820.971 168.24 820.931 168.8ZM828.936 173V162.54H831.356V169.94L835.876 162.54H838.276V173H835.876V165.6L831.356 173H828.936ZM848.085 165.2C848.085 165.787 847.925 166.287 847.605 166.7C847.285 167.113 846.812 167.38 846.185 167.5C847.732 167.753 848.505 168.533 848.505 169.84V169.9C848.505 170.86 848.112 171.653 847.325 172.28C846.552 172.893 845.512 173.2 844.205 173.2C842.818 173.2 841.745 172.887 840.985 172.26C840.225 171.633 839.792 170.733 839.685 169.56H841.905C842.132 170.76 842.892 171.36 844.185 171.36C845.398 171.36 846.005 170.867 846.005 169.88V169.82C846.005 168.9 845.412 168.44 844.225 168.44H842.785V166.82H844.025C845.065 166.82 845.585 166.387 845.585 165.52V165.46C845.585 164.633 845.072 164.22 844.045 164.22C843.032 164.22 842.405 164.707 842.165 165.68H839.965C840.085 164.547 840.532 163.707 841.305 163.16C842.078 162.6 843.025 162.32 844.145 162.32C845.292 162.32 846.232 162.573 846.965 163.08C847.712 163.587 848.085 164.273 848.085 165.14V165.2ZM854.363 162.54H858.583C861.129 162.54 862.403 163.413 862.403 165.16V165.2C862.403 166.44 861.783 167.207 860.543 167.5C862.089 167.82 862.863 168.607 862.863 169.86V169.92C862.863 170.92 862.523 171.687 861.843 172.22C861.176 172.74 860.216 173 858.963 173H854.363V162.54ZM856.783 164.16V166.82H858.243C858.829 166.82 859.256 166.713 859.523 166.5C859.789 166.273 859.923 165.92 859.923 165.44V165.4C859.923 164.933 859.776 164.613 859.483 164.44C859.203 164.253 858.763 164.16 858.163 164.16H856.783ZM856.783 168.44V171.38H858.503C859.756 171.38 860.383 170.9 860.383 169.94V169.9C860.383 168.927 859.783 168.44 858.583 168.44H856.783ZM869.085 173.2C867.512 173.2 866.232 172.72 865.245 171.76C864.272 170.8 863.785 169.507 863.785 167.88V167.72C863.785 166.12 864.272 164.82 865.245 163.82C866.232 162.82 867.479 162.32 868.985 162.32C870.399 162.32 871.572 162.76 872.505 163.64C873.452 164.52 873.925 165.84 873.925 167.6V168.3H866.265C866.305 169.3 866.565 170.067 867.045 170.6C867.539 171.133 868.239 171.4 869.145 171.4C870.559 171.4 871.359 170.867 871.545 169.8H873.885C873.712 170.907 873.205 171.753 872.365 172.34C871.539 172.913 870.445 173.2 869.085 173.2ZM871.525 166.68C871.392 164.947 870.545 164.08 868.985 164.08C868.265 164.08 867.665 164.313 867.185 164.78C866.719 165.233 866.425 165.867 866.305 166.68H871.525ZM880.247 173.2C878.58 173.2 877.267 172.673 876.307 171.62C875.36 170.553 874.887 168.953 874.887 166.82V166.08C874.887 160.747 876.907 157.98 880.947 157.78L881.587 157.76C883.174 157.68 884.207 157.553 884.687 157.38V159.28C884.06 159.547 883.014 159.72 881.547 159.8L881.027 159.84C879.627 159.92 878.594 160.373 877.927 161.2C877.274 162.027 876.88 163.22 876.747 164.78H876.847C877.634 163.247 878.947 162.48 880.787 162.48C882.227 162.48 883.394 162.973 884.287 163.96C885.18 164.933 885.627 166.18 885.627 167.7V167.82C885.627 169.46 885.12 170.767 884.107 171.74C883.094 172.713 881.807 173.2 880.247 173.2ZM878.127 170.42C878.647 171.02 879.36 171.32 880.267 171.32C881.174 171.32 881.88 171.02 882.387 170.42C882.894 169.807 883.147 168.947 883.147 167.84V167.76C883.147 166.68 882.907 165.847 882.427 165.26C881.96 164.673 881.274 164.38 880.367 164.38C879.434 164.38 878.7 164.687 878.167 165.3C877.634 165.9 877.367 166.74 877.367 167.82V167.92C877.367 168.973 877.62 169.807 878.127 170.42ZM886.891 166.42H891.691V168.42H886.891V166.42ZM896.5 173.2C895.473 173.2 894.633 172.947 893.98 172.44C893.326 171.92 893 171.14 893 170.1C893 168.953 893.486 168.113 894.46 167.58C895.446 167.047 896.746 166.78 898.36 166.78H899.66V166.24C899.66 165.507 899.52 164.973 899.24 164.64C898.96 164.307 898.466 164.14 897.76 164.14C896.573 164.14 895.906 164.687 895.76 165.78H893.42C893.526 164.62 893.986 163.753 894.8 163.18C895.613 162.607 896.646 162.32 897.9 162.32C900.686 162.32 902.08 163.593 902.08 166.14V173H899.7V171.72C898.926 172.707 897.86 173.2 896.5 173.2ZM897.08 171.46C897.853 171.46 898.473 171.273 898.94 170.9C899.42 170.527 899.66 170.007 899.66 169.34V168.3H898.42C896.406 168.3 895.4 168.867 895.4 170C895.4 170.973 895.96 171.46 897.08 171.46ZM911.013 168.56H906.673V173H904.253V162.54H906.673V166.76H911.013V162.54H913.433V173H911.013V168.56ZM918.444 173.2C917.417 173.2 916.577 172.947 915.924 172.44C915.271 171.92 914.944 171.14 914.944 170.1C914.944 168.953 915.431 168.113 916.404 167.58C917.391 167.047 918.691 166.78 920.304 166.78H921.604V166.24C921.604 165.507 921.464 164.973 921.184 164.64C920.904 164.307 920.411 164.14 919.704 164.14C918.517 164.14 917.851 164.687 917.704 165.78H915.364C915.471 164.62 915.931 163.753 916.744 163.18C917.557 162.607 918.591 162.32 919.844 162.32C922.631 162.32 924.024 163.593 924.024 166.14V173H921.644V171.72C920.871 172.707 919.804 173.2 918.444 173.2ZM919.024 171.46C919.797 171.46 920.417 171.273 920.884 170.9C921.364 170.527 921.604 170.007 921.604 169.34V168.3H920.364C918.351 168.3 917.344 168.867 917.344 170C917.344 170.973 917.904 171.46 919.024 171.46ZM929.038 168.8C928.904 170.293 928.611 171.393 928.158 172.1C927.718 172.807 927.024 173.16 926.078 173.16C925.758 173.16 925.531 173.14 925.398 173.1C925.371 173.087 925.331 173.067 925.278 173.04C925.238 173.027 925.211 173.02 925.198 173.02V171L925.318 171.04C925.451 171.067 925.571 171.08 925.678 171.08C926.051 171.08 926.324 170.86 926.498 170.42C926.684 169.967 926.824 169.293 926.918 168.4C926.944 168.147 926.964 167.82 926.978 167.42C926.991 167.02 927.004 166.567 927.018 166.06C927.044 165.54 927.064 165.127 927.078 164.82L927.138 162.54H934.758V173H932.358V164.34H929.258C929.151 166.753 929.078 168.24 929.038 168.8ZM937.043 173V162.54H939.463V169.94L943.983 162.54H946.383V173H943.983V165.6L939.463 173H937.043ZM956.392 164.34H953.192V173H950.772V164.34H947.572V162.54H956.392V164.34ZM957.679 173V162.54H960.099V169.94L964.619 162.54H967.019V173H964.619V165.6L960.099 173H957.679ZM971.628 167.88V173H969.208V162.54H971.628V167.18L975.368 162.54H978.008L973.948 167.38L978.348 173H975.548L971.628 167.88ZM979.409 173V162.54H981.829V169.94L986.349 162.54H988.749V173H986.349V165.6L981.829 173H979.409Z" fill="#F6F6F6"/>
<path d="M230.01 178.19L219.44 185.4V177.21L231.06 168.95H239.39V219H230.01V178.19Z" fill="white"/>
<path d="M457.179 171.32L476.079 151.37C481.166 146.003 483.709 141.267 483.709 137.16C483.709 134.78 483.056 132.913 481.749 131.56C480.442 130.207 478.599 129.53 476.219 129.53C471.039 129.53 468.052 132.843 467.259 139.47H458.719C459.046 133.963 460.749 129.717 463.829 126.73C466.956 123.743 471.179 122.25 476.499 122.25C481.632 122.25 485.669 123.603 488.609 126.31C491.549 129.017 493.019 132.587 493.019 137.02C493.019 140.1 492.179 143.087 490.499 145.98C488.866 148.827 486.439 151.813 483.219 154.94L472.089 165.79H493.369V173H457.179V171.32Z" fill="white"/>
<path d="M265 213C265 207.477 269.477 203 275 203H505C510.523 203 515 207.477 515 213C515 218.523 510.523 223 505 223H275C269.477 223 265 218.523 265 213Z" fill="#534C72"/>
<path d="M515 167C515 161.477 519.477 157 525 157H755C760.523 157 765 161.477 765 167C765 172.523 760.523 177 755 177H525C519.477 177 515 172.523 515 167Z" fill="#534C72"/>
<path d="M765 111C765 105.477 769.477 101 775 101H1005C1010.52 101 1015 105.477 1015 111C1015 116.523 1010.52 121 1005 121H775C769.477 121 765 116.523 765 111Z" fill="#534C72"/>
<path d="M1015 65C1015 59.4772 1019.48 55 1025 55H1255C1260.52 55 1265 59.4772 1265 65C1265 70.5228 1260.52 75 1255 75H1025C1019.48 75 1015 70.5228 1015 65Z" fill="#FD7ADC"/>
<path d="M1015 37C1015 31.4772 1019.48 27 1025 27H1740V47H1025C1019.48 47 1015 42.5228 1015 37Z" fill="#FD7ADC"/>
<path d="M515 139C515 133.477 519.477 129 525 129H1005C1010.52 129 1015 133.477 1015 139C1015 144.523 1010.52 149 1005 149H525C519.477 149 515 144.523 515 139Z" fill="#534C72"/>
<path d="M775.16 86.68H769.496V85.928L774.552 77.56H777.224V85.096H778.76V86.68H777.224V89H775.16V86.68ZM775.192 85.096V79.176L771.768 85.096H775.192ZM779.729 83.736H783.569V85.336H779.729V83.736ZM788.727 89.16C787.437 89.16 786.45 88.8453 785.767 88.216C785.085 87.5867 784.711 86.7547 784.647 85.72H786.631C786.727 86.3173 786.925 86.7653 787.223 87.064C787.533 87.3627 788.029 87.512 788.711 87.512C789.362 87.512 789.869 87.304 790.231 86.888C790.594 86.472 790.775 85.9067 790.775 85.192C790.775 84.4987 790.589 83.9493 790.215 83.544C789.853 83.1387 789.351 82.936 788.711 82.936C787.698 82.936 786.903 83.2667 786.327 83.928H785.239L785.335 77.56H792.279V79.24H786.967L786.951 82.344C787.506 81.704 788.327 81.384 789.415 81.384C790.461 81.384 791.309 81.7307 791.959 82.424C792.61 83.1173 792.935 84.0507 792.935 85.224C792.935 86.4293 792.546 87.3893 791.767 88.104C790.989 88.808 789.975 89.16 788.727 89.16ZM800.113 85.448C799.995 86.4293 799.83 87.1333 799.617 87.56H802.865V82.056H800.321C800.235 83.7947 800.166 84.9253 800.113 85.448ZM798.577 91.032H796.929V87.56H797.457C797.734 87.464 797.937 87.24 798.065 86.888C798.193 86.5253 798.299 86.0027 798.385 85.32C798.555 83.944 798.641 82.3813 798.641 80.632H804.785V87.56H806.001V91.032H804.353L804.289 89H798.641L798.577 91.032ZM812.332 85.448H808.86V89H806.924V80.632H808.86V84.008H812.332V80.632H814.268V89H812.332V85.448ZM819.764 89.16C818.506 89.16 817.482 88.776 816.692 88.008C815.914 87.24 815.524 86.2053 815.524 84.904V84.776C815.524 83.496 815.914 82.456 816.692 81.656C817.482 80.856 818.479 80.456 819.684 80.456C820.815 80.456 821.754 80.808 822.5 81.512C823.258 82.216 823.636 83.272 823.636 84.68V85.24H817.508C817.54 86.04 817.748 86.6533 818.132 87.08C818.527 87.5067 819.087 87.72 819.812 87.72C820.943 87.72 821.583 87.2933 821.732 86.44H823.604C823.466 87.3253 823.06 88.0027 822.388 88.472C821.727 88.9307 820.852 89.16 819.764 89.16ZM821.716 83.944C821.61 82.5573 820.932 81.864 819.684 81.864C819.108 81.864 818.628 82.0507 818.244 82.424C817.871 82.7867 817.636 83.2933 817.54 83.944H821.716ZM830.23 78.68C829.803 79.0853 829.254 79.288 828.582 79.288C827.91 79.288 827.366 79.0853 826.95 78.68C826.534 78.264 826.304 77.72 826.262 77.048H827.718C827.782 77.7413 828.07 78.088 828.582 78.088C829.126 78.088 829.435 77.7413 829.51 77.048H830.95C830.907 77.72 830.667 78.264 830.23 78.68ZM824.886 89V80.632H826.822V86.552L830.438 80.632H832.358V89H830.438V83.08L826.822 89H824.886Z" fill="#76718F"/>
<path d="M1025.16 12.68H1019.5V11.928L1024.55 3.56H1027.22V11.096H1028.76V12.68H1027.22V15H1025.16V12.68ZM1025.19 11.096V5.176L1021.77 11.096H1025.19ZM1029.73 9.736H1033.57V11.336H1029.73V9.736ZM1038.73 15.16C1037.44 15.16 1036.45 14.8453 1035.77 14.216C1035.08 13.5867 1034.71 12.7547 1034.65 11.72H1036.63C1036.73 12.3173 1036.92 12.7653 1037.22 13.064C1037.53 13.3627 1038.03 13.512 1038.71 13.512C1039.36 13.512 1039.87 13.304 1040.23 12.888C1040.59 12.472 1040.78 11.9067 1040.78 11.192C1040.78 10.4987 1040.59 9.94933 1040.22 9.544C1039.85 9.13867 1039.35 8.936 1038.71 8.936C1037.7 8.936 1036.9 9.26667 1036.33 9.928H1035.24L1035.34 3.56H1042.28V5.24H1036.97L1036.95 8.344C1037.51 7.704 1038.33 7.384 1039.42 7.384C1040.46 7.384 1041.31 7.73067 1041.96 8.424C1042.61 9.11733 1042.94 10.0507 1042.94 11.224C1042.94 12.4293 1042.55 13.3893 1041.77 14.104C1040.99 14.808 1039.98 15.16 1038.73 15.16ZM1050.11 11.448C1050 12.4293 1049.83 13.1333 1049.62 13.56H1052.86V8.056H1050.32C1050.24 9.79467 1050.17 10.9253 1050.11 11.448ZM1048.58 17.032H1046.93V13.56H1047.46C1047.73 13.464 1047.94 13.24 1048.06 12.888C1048.19 12.5253 1048.3 12.0027 1048.38 11.32C1048.56 9.944 1048.64 8.38133 1048.64 6.632H1054.78V13.56H1056V17.032H1054.35L1054.29 15H1048.64L1048.58 17.032ZM1062.33 11.448H1058.86V15H1056.92V6.632H1058.86V10.008H1062.33V6.632H1064.27V15H1062.33V11.448ZM1069.76 15.16C1068.51 15.16 1067.48 14.776 1066.69 14.008C1065.91 13.24 1065.52 12.2053 1065.52 10.904V10.776C1065.52 9.496 1065.91 8.456 1066.69 7.656C1067.48 6.856 1068.48 6.456 1069.68 6.456C1070.82 6.456 1071.75 6.808 1072.5 7.512C1073.26 8.216 1073.64 9.272 1073.64 10.68V11.24H1067.51C1067.54 12.04 1067.75 12.6533 1068.13 13.08C1068.53 13.5067 1069.09 13.72 1069.81 13.72C1070.94 13.72 1071.58 13.2933 1071.73 12.44H1073.6C1073.47 13.3253 1073.06 14.0027 1072.39 14.472C1071.73 14.9307 1070.85 15.16 1069.76 15.16ZM1071.72 9.944C1071.61 8.55733 1070.93 7.864 1069.68 7.864C1069.11 7.864 1068.63 8.05067 1068.24 8.424C1067.87 8.78667 1067.64 9.29333 1067.54 9.944H1071.72ZM1080.23 4.68C1079.8 5.08533 1079.25 5.288 1078.58 5.288C1077.91 5.288 1077.37 5.08533 1076.95 4.68C1076.53 4.264 1076.3 3.72 1076.26 3.048H1077.72C1077.78 3.74133 1078.07 4.088 1078.58 4.088C1079.13 4.088 1079.44 3.74133 1079.51 3.048H1080.95C1080.91 3.72 1080.67 4.264 1080.23 4.68ZM1074.89 15V6.632H1076.82V12.552L1080.44 6.632H1082.36V15H1080.44V9.08L1076.82 15H1074.89Z" fill="#76718F"/>
<path d="M1032.32 102.7H1035.8L1040.52 117H1037.76L1036.62 113.46H1031.16L1030.04 117H1027.54L1032.32 102.7ZM1031.78 111.52H1036L1033.9 104.88L1031.78 111.52ZM1043.97 115.94L1039.83 106.54H1042.45L1045.23 113.28L1047.79 106.54H1050.15L1044.45 120.58H1042.07L1043.97 115.94ZM1053.56 112.56C1053.41 113.787 1053.2 114.667 1052.94 115.2H1057V108.32H1053.82C1053.71 110.493 1053.62 111.907 1053.56 112.56ZM1051.64 119.54H1049.58V115.2H1050.24C1050.58 115.08 1050.84 114.8 1051 114.36C1051.16 113.907 1051.29 113.253 1051.4 112.4C1051.61 110.68 1051.72 108.727 1051.72 106.54H1059.4V115.2H1060.92V119.54H1058.86L1058.78 117H1051.72L1051.64 119.54ZM1062.07 117V106.54H1064.49V113.94L1069.01 106.54H1071.41V117H1069.01V109.6L1064.49 117H1062.07ZM1081.42 108.34H1078.22V117H1075.8V108.34H1072.6V106.54H1081.42V108.34ZM1086.95 117V106.54H1089.37V113.94L1093.89 106.54H1096.29V117H1093.89V109.6L1089.37 117H1086.95ZM1105.24 112.56H1100.9V117H1098.48V106.54H1100.9V110.76H1105.24V106.54H1107.66V117H1105.24V112.56ZM1117.75 108.34H1114.55V117H1112.13V108.34H1108.93V106.54H1117.75V108.34ZM1123.34 117.2C1121.77 117.2 1120.49 116.72 1119.5 115.76C1118.53 114.8 1118.04 113.507 1118.04 111.88V111.72C1118.04 110.12 1118.53 108.82 1119.5 107.82C1120.49 106.82 1121.74 106.32 1123.24 106.32C1124.66 106.32 1125.83 106.76 1126.76 107.64C1127.71 108.52 1128.18 109.84 1128.18 111.6V112.3H1120.52C1120.56 113.3 1120.82 114.067 1121.3 114.6C1121.8 115.133 1122.5 115.4 1123.4 115.4C1124.82 115.4 1125.62 114.867 1125.8 113.8H1128.14C1127.97 114.907 1127.46 115.753 1126.62 116.34C1125.8 116.913 1124.7 117.2 1123.34 117.2ZM1125.78 110.68C1125.65 108.947 1124.8 108.08 1123.24 108.08C1122.52 108.08 1121.92 108.313 1121.44 108.78C1120.98 109.233 1120.68 109.867 1120.56 110.68H1125.78ZM1129.74 106.54H1132.16V108.22C1132.47 107.687 1132.93 107.24 1133.54 106.88C1134.17 106.507 1134.85 106.32 1135.58 106.32C1136.93 106.32 1138.04 106.8 1138.9 107.76C1139.78 108.707 1140.22 110 1140.22 111.64V111.8C1140.22 113.453 1139.79 114.767 1138.92 115.74C1138.07 116.713 1136.96 117.2 1135.58 117.2C1134.78 117.2 1134.08 117.033 1133.48 116.7C1132.9 116.353 1132.46 115.907 1132.16 115.36V120.58H1129.74V106.54ZM1134.98 115.28C1135.88 115.28 1136.56 114.987 1137.02 114.4C1137.5 113.813 1137.74 112.96 1137.74 111.84V111.68C1137.74 110.56 1137.48 109.707 1136.96 109.12C1136.46 108.52 1135.79 108.22 1134.96 108.22C1134.08 108.22 1133.38 108.513 1132.86 109.1C1132.34 109.687 1132.08 110.547 1132.08 111.68V111.84C1132.08 112.973 1132.34 113.833 1132.84 114.42C1133.36 114.993 1134.08 115.28 1134.98 115.28ZM1149.08 106.34C1150.69 106.42 1152.01 106.92 1153.04 107.84C1154.07 108.76 1154.58 110.027 1154.58 111.64V111.8C1154.58 113.427 1154.06 114.72 1153.02 115.68C1151.99 116.627 1150.68 117.127 1149.08 117.18V120.58H1146.7V117.18C1145.07 117.1 1143.75 116.607 1142.72 115.7C1141.69 114.78 1141.18 113.507 1141.18 111.88V111.72C1141.18 110.093 1141.69 108.813 1142.72 107.88C1143.75 106.933 1145.07 106.42 1146.7 106.34V101.7H1149.08V106.34ZM1149.08 115.42C1150 115.367 1150.73 115.027 1151.28 114.4C1151.84 113.773 1152.12 112.927 1152.12 111.86V111.72C1152.12 110.613 1151.85 109.753 1151.3 109.14C1150.75 108.513 1150.01 108.173 1149.08 108.12V115.42ZM1146.7 108.12C1145.77 108.16 1145.02 108.493 1144.46 109.12C1143.91 109.733 1143.64 110.58 1143.64 111.66V111.82C1143.64 112.927 1143.91 113.787 1144.46 114.4C1145.01 115.013 1145.75 115.347 1146.7 115.4V108.12ZM1160.84 117.2C1159.27 117.2 1157.99 116.72 1157 115.76C1156.03 114.8 1155.54 113.507 1155.54 111.88V111.72C1155.54 110.12 1156.03 108.82 1157 107.82C1157.99 106.82 1159.23 106.32 1160.74 106.32C1162.15 106.32 1163.33 106.76 1164.26 107.64C1165.21 108.52 1165.68 109.84 1165.68 111.6V112.3H1158.02C1158.06 113.3 1158.32 114.067 1158.8 114.6C1159.29 115.133 1159.99 115.4 1160.9 115.4C1162.31 115.4 1163.11 114.867 1163.3 113.8H1165.64C1165.47 114.907 1164.96 115.753 1164.12 116.34C1163.29 116.913 1162.2 117.2 1160.84 117.2ZM1163.28 110.68C1163.15 108.947 1162.3 108.08 1160.74 108.08C1160.02 108.08 1159.42 108.313 1158.94 108.78C1158.47 109.233 1158.18 109.867 1158.06 110.68H1163.28ZM1173.92 104.1C1173.39 104.607 1172.7 104.86 1171.86 104.86C1171.02 104.86 1170.34 104.607 1169.82 104.1C1169.3 103.58 1169.01 102.9 1168.96 102.06H1170.78C1170.86 102.927 1171.22 103.36 1171.86 103.36C1172.54 103.36 1172.93 102.927 1173.02 102.06H1174.82C1174.77 102.9 1174.47 103.58 1173.92 104.1ZM1167.24 117V106.54H1169.66V113.94L1174.18 106.54H1176.58V117H1174.18V109.6L1169.66 117H1167.24ZM1183.35 117.2C1181.82 117.2 1180.55 116.727 1179.55 115.78C1178.56 114.82 1178.07 113.527 1178.07 111.9V111.74C1178.07 110.127 1178.57 108.82 1179.57 107.82C1180.58 106.82 1181.84 106.32 1183.35 106.32C1184.63 106.32 1185.72 106.64 1186.61 107.28C1187.5 107.907 1188.01 108.893 1188.13 110.24H1185.79C1185.59 108.92 1184.79 108.26 1183.39 108.26C1182.55 108.26 1181.86 108.567 1181.33 109.18C1180.81 109.793 1180.55 110.633 1180.55 111.7V111.86C1180.55 112.993 1180.8 113.86 1181.31 114.46C1181.83 115.047 1182.54 115.34 1183.45 115.34C1184.12 115.34 1184.68 115.147 1185.15 114.76C1185.62 114.373 1185.89 113.82 1185.97 113.1H1188.19C1188.11 114.313 1187.63 115.3 1186.75 116.06C1185.87 116.82 1184.74 117.2 1183.35 117.2ZM1192.41 117.2C1191.39 117.2 1190.55 116.947 1189.89 116.44C1189.24 115.92 1188.91 115.14 1188.91 114.1C1188.91 112.953 1189.4 112.113 1190.37 111.58C1191.36 111.047 1192.66 110.78 1194.27 110.78H1195.57V110.24C1195.57 109.507 1195.43 108.973 1195.15 108.64C1194.87 108.307 1194.38 108.14 1193.67 108.14C1192.49 108.14 1191.82 108.687 1191.67 109.78H1189.33C1189.44 108.62 1189.9 107.753 1190.71 107.18C1191.53 106.607 1192.56 106.32 1193.81 106.32C1196.6 106.32 1197.99 107.593 1197.99 110.14V117H1195.61V115.72C1194.84 116.707 1193.77 117.2 1192.41 117.2ZM1192.99 115.46C1193.77 115.46 1194.39 115.273 1194.85 114.9C1195.33 114.527 1195.57 114.007 1195.57 113.34V112.3H1194.33C1192.32 112.3 1191.31 112.867 1191.31 114C1191.31 114.973 1191.87 115.46 1192.99 115.46Z" fill="#F6F6F6"/>
<path d="M1285.2 69.06C1286.55 69.06 1287.61 68.5933 1288.4 67.66C1289.2 66.7133 1289.6 65.46 1289.6 63.9V63.74C1289.6 62.2333 1289.2 61.0067 1288.4 60.06C1287.61 59.1 1286.53 58.62 1285.16 58.62C1283.77 58.62 1282.68 59.0867 1281.88 60.02C1281.09 60.9533 1280.7 62.2 1280.7 63.76V63.92C1280.7 65.4667 1281.12 66.7133 1281.96 67.66C1282.8 68.5933 1283.88 69.06 1285.2 69.06ZM1285.16 71.2C1283 71.2 1281.25 70.5133 1279.92 69.14C1278.59 67.7667 1277.92 66.0333 1277.92 63.94V63.78C1277.92 61.6733 1278.59 59.9333 1279.94 58.56C1281.3 57.1867 1283.04 56.5 1285.16 56.5C1287.28 56.5 1289.01 57.18 1290.34 58.54C1291.69 59.8867 1292.36 61.6133 1292.36 63.72V63.88C1292.36 65.9867 1291.69 67.7333 1290.36 69.12C1289.04 70.5067 1287.31 71.2 1285.16 71.2ZM1302.05 62.34H1298.85V71H1296.43V62.34H1293.23V60.54H1302.05V62.34ZM1309.45 71V66.36C1308.75 67.1467 1307.73 67.54 1306.41 67.54C1305.39 67.54 1304.56 67.2133 1303.93 66.56C1303.31 65.8933 1302.99 64.8933 1302.99 63.56V60.54H1305.39V63.3C1305.39 64.1 1305.55 64.6867 1305.85 65.06C1306.16 65.42 1306.64 65.6 1307.29 65.6C1308.27 65.6 1308.99 65.2667 1309.45 64.6V60.54H1311.87V71H1309.45ZM1318.76 71.2C1317.19 71.2 1315.91 70.72 1314.92 69.76C1313.95 68.8 1313.46 67.5067 1313.46 65.88V65.72C1313.46 64.12 1313.95 62.82 1314.92 61.82C1315.91 60.82 1317.15 60.32 1318.66 60.32C1320.07 60.32 1321.25 60.76 1322.18 61.64C1323.13 62.52 1323.6 63.84 1323.6 65.6V66.3H1315.94C1315.98 67.3 1316.24 68.0667 1316.72 68.6C1317.21 69.1333 1317.91 69.4 1318.82 69.4C1320.23 69.4 1321.03 68.8667 1321.22 67.8H1323.56C1323.39 68.9067 1322.88 69.7533 1322.04 70.34C1321.21 70.9133 1320.12 71.2 1318.76 71.2ZM1321.2 64.68C1321.07 62.9467 1320.22 62.08 1318.66 62.08C1317.94 62.08 1317.34 62.3133 1316.86 62.78C1316.39 63.2333 1316.1 63.8667 1315.98 64.68H1321.2ZM1332.88 62.34H1329.68V71H1327.26V62.34H1324.06V60.54H1332.88V62.34ZM1342.99 71.2C1341.46 71.2 1340.19 70.7267 1339.19 69.78C1338.21 68.82 1337.71 67.5267 1337.71 65.9V65.74C1337.71 64.1267 1338.21 62.82 1339.21 61.82C1340.23 60.82 1341.49 60.32 1342.99 60.32C1344.27 60.32 1345.36 60.64 1346.25 61.28C1347.15 61.9067 1347.65 62.8933 1347.77 64.24H1345.43C1345.23 62.92 1344.43 62.26 1343.03 62.26C1342.19 62.26 1341.51 62.5667 1340.97 63.18C1340.45 63.7933 1340.19 64.6333 1340.19 65.7V65.86C1340.19 66.9933 1340.45 67.86 1340.95 68.46C1341.47 69.0467 1342.19 69.34 1343.09 69.34C1343.76 69.34 1344.33 69.1467 1344.79 68.76C1345.26 68.3733 1345.53 67.82 1345.61 67.1H1347.83C1347.75 68.3133 1347.27 69.3 1346.39 70.06C1345.51 70.82 1344.38 71.2 1342.99 71.2ZM1353.56 60.54H1355.98V62.22C1356.29 61.6867 1356.75 61.24 1357.36 60.88C1357.99 60.5067 1358.67 60.32 1359.4 60.32C1360.75 60.32 1361.86 60.8 1362.72 61.76C1363.6 62.7067 1364.04 64 1364.04 65.64V65.8C1364.04 67.4533 1363.61 68.7667 1362.74 69.74C1361.89 70.7133 1360.78 71.2 1359.4 71.2C1358.6 71.2 1357.9 71.0333 1357.3 70.7C1356.72 70.3533 1356.28 69.9067 1355.98 69.36V74.58H1353.56V60.54ZM1358.8 69.28C1359.7 69.28 1360.38 68.9867 1360.84 68.4C1361.32 67.8133 1361.56 66.96 1361.56 65.84V65.68C1361.56 64.56 1361.3 63.7067 1360.78 63.12C1360.28 62.52 1359.61 62.22 1358.78 62.22C1357.9 62.22 1357.2 62.5133 1356.68 63.1C1356.16 63.6867 1355.9 64.5467 1355.9 65.68V65.84C1355.9 66.9733 1356.16 67.8333 1356.66 68.42C1357.18 68.9933 1357.9 69.28 1358.8 69.28ZM1370.22 71.2C1368.64 71.2 1367.36 70.72 1366.38 69.76C1365.4 68.8 1364.92 67.5067 1364.92 65.88V65.72C1364.92 64.12 1365.4 62.82 1366.38 61.82C1367.36 60.82 1368.61 60.32 1370.12 60.32C1371.53 60.32 1372.7 60.76 1373.64 61.64C1374.58 62.52 1375.06 63.84 1375.06 65.6V66.3H1367.4C1367.44 67.3 1367.7 68.0667 1368.18 68.6C1368.67 69.1333 1369.37 69.4 1370.28 69.4C1371.69 69.4 1372.49 68.8667 1372.68 67.8H1375.02C1374.84 68.9067 1374.34 69.7533 1373.5 70.34C1372.67 70.9133 1371.58 71.2 1370.22 71.2ZM1372.66 64.68C1372.52 62.9467 1371.68 62.08 1370.12 62.08C1369.4 62.08 1368.8 62.3133 1368.32 62.78C1367.85 63.2333 1367.56 63.8667 1367.44 64.68H1372.66ZM1379.04 65.88V71H1376.62V60.54H1379.04V65.18L1382.78 60.54H1385.42L1381.36 65.38L1385.76 71H1382.96L1379.04 65.88ZM1390.99 69.32C1391.9 69.32 1392.61 69.0133 1393.11 68.4C1393.62 67.7733 1393.87 66.92 1393.87 65.84V65.7C1393.87 64.62 1393.62 63.7733 1393.11 63.16C1392.61 62.5333 1391.9 62.22 1390.99 62.22C1390.09 62.22 1389.37 62.5267 1388.85 63.14C1388.35 63.7533 1388.09 64.6 1388.09 65.68V65.84C1388.09 66.92 1388.35 67.7733 1388.85 68.4C1389.36 69.0133 1390.07 69.32 1390.99 69.32ZM1394.83 69.72C1393.82 70.7067 1392.53 71.2 1390.97 71.2C1389.41 71.2 1388.13 70.7133 1387.11 69.74C1386.11 68.7533 1385.61 67.4667 1385.61 65.88V65.72C1385.61 64.12 1386.12 62.82 1387.13 61.82C1388.15 60.82 1389.43 60.32 1390.99 60.32C1392.54 60.32 1393.82 60.8133 1394.83 61.8C1395.85 62.7867 1396.35 64.0733 1396.35 65.66V65.82C1396.35 67.4333 1395.85 68.7333 1394.83 69.72ZM1400.02 63.1V71H1397.94V60.54H1401.28L1403.9 67.06L1406.54 60.54H1409.68V71H1407.3V63.1L1404 71H1403.2L1400.02 63.1ZM1416.57 71.2C1414.99 71.2 1413.71 70.72 1412.73 69.76C1411.75 68.8 1411.27 67.5067 1411.27 65.88V65.72C1411.27 64.12 1411.75 62.82 1412.73 61.82C1413.71 60.82 1414.96 60.32 1416.47 60.32C1417.88 60.32 1419.05 60.76 1419.99 61.64C1420.93 62.52 1421.41 63.84 1421.41 65.6V66.3H1413.75C1413.79 67.3 1414.05 68.0667 1414.53 68.6C1415.02 69.1333 1415.72 69.4 1416.63 69.4C1418.04 69.4 1418.84 68.8667 1419.03 67.8H1421.37C1421.19 68.9067 1420.69 69.7533 1419.85 70.34C1419.02 70.9133 1417.93 71.2 1416.57 71.2ZM1419.01 64.68C1418.87 62.9467 1418.03 62.08 1416.47 62.08C1415.75 62.08 1415.15 62.3133 1414.67 62.78C1414.2 63.2333 1413.91 63.8667 1413.79 64.68H1419.01ZM1429.73 66.56H1425.39V71H1422.97V60.54H1425.39V64.76H1429.73V60.54H1432.15V71H1429.73V66.56ZM1437.22 66.56C1437.07 67.7867 1436.87 68.6667 1436.6 69.2H1440.66V62.32H1437.48C1437.37 64.4933 1437.29 65.9067 1437.22 66.56ZM1435.3 73.54H1433.24V69.2H1433.9C1434.25 69.08 1434.5 68.8 1434.66 68.36C1434.82 67.9067 1434.95 67.2533 1435.06 66.4C1435.27 64.68 1435.38 62.7267 1435.38 60.54H1443.06V69.2H1444.58V73.54H1442.52L1442.44 71H1435.38L1435.3 73.54ZM1448.47 71.2C1447.45 71.2 1446.61 70.9467 1445.95 70.44C1445.3 69.92 1444.97 69.14 1444.97 68.1C1444.97 66.9533 1445.46 66.1133 1446.43 65.58C1447.42 65.0467 1448.72 64.78 1450.33 64.78H1451.63V64.24C1451.63 63.5067 1451.49 62.9733 1451.21 62.64C1450.93 62.3067 1450.44 62.14 1449.73 62.14C1448.55 62.14 1447.88 62.6867 1447.73 63.78H1445.39C1445.5 62.62 1445.96 61.7533 1446.77 61.18C1447.59 60.6067 1448.62 60.32 1449.87 60.32C1452.66 60.32 1454.05 61.5933 1454.05 64.14V71H1451.67V69.72C1450.9 70.7067 1449.83 71.2 1448.47 71.2ZM1449.05 69.46C1449.83 69.46 1450.45 69.2733 1450.91 68.9C1451.39 68.5267 1451.63 68.0067 1451.63 67.34V66.3H1450.39C1448.38 66.3 1447.37 66.8667 1447.37 68C1447.37 68.9733 1447.93 69.46 1449.05 69.46ZM1464.71 73.54L1464.59 71H1456.23V60.54H1458.65V69.2H1462.79V60.54H1465.21V69.2H1466.73V73.54H1464.71ZM1467.89 71V60.54H1470.31V67.94L1474.83 60.54H1477.23V71H1474.83V63.6L1470.31 71H1467.89ZM1483.44 62.3C1482.15 62.3 1481.5 62.8267 1481.5 63.88V63.94C1481.5 64.4733 1481.66 64.8667 1481.96 65.12C1482.27 65.3733 1482.76 65.5 1483.44 65.5H1484.92V62.3H1483.44ZM1481 71H1478.34L1481.2 66.7C1479.78 66.26 1479.06 65.3333 1479.06 63.92V63.86C1479.06 62.7933 1479.42 61.9733 1480.14 61.4C1480.86 60.8267 1481.86 60.54 1483.12 60.54H1487.32V71H1484.92V67.16H1483.48L1481 71ZM1491.59 63.1V71H1489.51V60.54H1492.85L1495.47 67.06L1498.11 60.54H1501.25V71H1498.87V63.1L1495.57 71H1494.77L1491.59 63.1ZM1503.54 71V60.54H1505.96V67.94L1510.48 60.54H1512.88V71H1510.48V63.6L1505.96 71H1503.54Z" fill="#FD7ADC"/>
<path d="M724.337 117.7C718.503 117.7 713.953 116.23 710.687 113.29C707.42 110.35 705.693 106.43 705.507 101.53H713.977C714.257 104.33 715.213 106.57 716.847 108.25C718.48 109.883 720.907 110.7 724.127 110.7C730.473 110.7 733.647 107.993 733.647 102.58C733.647 97.12 730.637 94.39 724.617 94.39H720.767V87.74H724.337C729.89 87.74 732.667 85.29 732.667 80.39C732.667 78.2433 731.99 76.54 730.637 75.28C729.33 73.9733 727.417 73.32 724.897 73.32C722.283 73.32 720.137 74.0667 718.457 75.56C716.823 77.0067 715.867 79.0133 715.587 81.58H707.327C707.607 77.1 709.31 73.4367 712.437 70.59C715.61 67.6967 719.81 66.25 725.037 66.25C730.123 66.25 734.137 67.5333 737.077 70.1C740.063 72.62 741.557 75.8167 741.557 79.69C741.557 84.87 738.85 88.51 733.437 90.61C736.47 91.31 738.827 92.6867 740.507 94.74C742.233 96.7933 743.097 99.4533 743.097 102.72C743.097 107.34 741.393 111.003 737.987 113.71C734.627 116.37 730.077 117.7 724.337 117.7Z" fill="white"/>
<path d="M978.391 60.85H953.611V57.56L975.731 20.95H987.421V53.92H994.141V60.85H987.421V71H978.391V60.85ZM978.531 53.92V28.02L963.551 53.92H978.531Z" fill="#FD7ADC"/>
<path d="M0 231H505C510.523 231 515 235.477 515 241C515 246.523 510.523 251 505 251H0V231Z" fill="#534C72"/>
</svg>
