<svg width="121" height="37" viewBox="0 0 121 37" fill="none" xmlns="http://www.w3.org/2000/svg">
<path d="M74.5312 5.78038H84.379V11.0638C85.2122 9.03684 86.3286 7.59137 87.7283 6.72741C89.128 5.83022 90.8109 5.39824 92.7772 5.43147V11.5907V14.6027C92.3232 14.5751 91.8871 14.5622 91.469 14.564C89.3703 14.5727 87.7235 14.9512 86.5286 15.6993C85.0955 16.5633 84.379 17.9423 84.379 19.8363V31.8487H74.5312V5.78038Z" fill="#0A0620"/>
<path fill-rule="evenodd" clip-rule="evenodd" d="M103.509 32.4007L119.171 23.8518L119.359 23.7521C119.877 22.2908 120.136 20.6723 120.136 18.8966V18.4978C120.136 16.4044 119.753 14.5269 118.987 12.8655C118.254 11.204 117.237 9.8084 115.937 8.6786C114.638 7.51558 113.105 6.635 111.338 6.03688C109.572 5.40552 107.673 5.08984 105.64 5.08984C103.573 5.08984 101.641 5.40552 99.841 6.03688C98.0747 6.66823 96.5417 7.58204 95.242 8.77829C93.9423 9.94131 92.9092 11.3702 92.1427 13.0649C91.4095 14.7263 91.043 16.6204 91.043 18.7471V19.1458C91.043 21.3057 91.4095 23.2164 92.1427 24.8779C92.9092 26.5061 93.9423 27.9017 95.242 29.0647C96.5751 30.1945 98.1247 31.0585 99.891 31.6566C101.041 32.0243 102.247 32.2723 103.509 32.4007ZM105.64 25.2766C108.639 25.2766 110.139 23.1666 110.139 18.9464V18.5975C110.139 16.5373 109.772 14.9755 109.039 13.9122C108.306 12.8489 107.173 12.3172 105.64 12.3172C104.14 12.3172 102.99 12.8323 102.19 13.8624C101.391 14.8592 100.991 16.3878 100.991 18.448V18.8468C100.991 23.1333 102.54 25.2766 105.64 25.2766Z" fill="#0A0620"/>
<path d="M38.7111 5.78375H28.8633V31.8521H38.7111V17.4472C38.7111 15.8854 39.0443 14.739 39.7108 14.008C40.4107 13.2769 41.3771 12.9114 42.6102 12.9114C43.7766 12.9114 44.6098 13.2437 45.1096 13.9083C45.6429 14.5729 45.9095 15.5698 45.9095 16.8989V31.7925L55.7573 26.4173V14.7058C55.7573 13.0776 55.5406 11.6653 55.1074 10.4691C54.7075 9.27282 54.1409 8.27594 53.4078 7.47844C52.6746 6.68094 51.7915 6.08281 50.7584 5.68406C49.7253 5.28531 48.5922 5.08594 47.3591 5.08594C45.1596 5.08594 43.3434 5.55115 41.9104 6.48157C40.5107 7.41198 39.4442 8.57501 38.7111 9.97064V5.78375Z" fill="#0A0620"/>
<path fill-rule="evenodd" clip-rule="evenodd" d="M11.9632 12.5275C12.4201 12.085 13.1358 11.8638 14.1103 11.8638C14.7768 11.8638 15.31 11.9635 15.71 12.1628C16.1099 12.329 16.4098 12.5948 16.6098 12.9603C16.843 13.2926 16.993 13.6914 17.0597 14.1566C17.1263 14.6218 17.1596 15.1202 17.1596 15.6519V16.1005H14.9101C10.3778 16.1005 6.89526 16.7651 4.46247 18.0942C2.06301 19.3902 0.863281 21.5667 0.863281 24.6238C0.863281 26.0194 1.09656 27.2157 1.56312 28.2126C2.06301 29.2094 2.71287 30.0236 3.51269 30.6549C4.34583 31.2863 5.29562 31.7515 6.36205 32.0505C7.4618 32.3496 8.59488 32.4991 9.76129 32.4991C10.8277 32.4991 11.7608 32.3828 12.5607 32.1502C13.3938 31.9508 14.127 31.685 14.7602 31.3527C15.3934 31.0204 15.9266 30.6383 16.3598 30.2063C16.793 29.7743 17.143 29.3257 17.4096 28.8605V31.8512H26.9074V15.0039C26.9074 11.5813 25.8244 9.07251 23.6582 7.47751C21.492 5.84927 18.5093 5.03516 14.7102 5.03516C12.8439 5.03516 11.1276 5.23453 9.56133 5.63328C9.09467 5.75467 8.64653 5.89607 8.21693 6.05749L11.9632 12.5275ZM16.0599 25.0724C15.36 25.6373 14.4436 25.9197 13.3105 25.9197C12.4107 25.9197 11.7275 25.737 11.261 25.3715C10.7944 25.0059 10.5611 24.5075 10.5611 23.8761C10.5611 22.9457 10.8944 22.2978 11.5609 21.9322C12.2274 21.5667 13.3938 21.3839 15.0601 21.3839H17.1596V22.7297C17.1596 23.6934 16.793 24.4743 16.0599 25.0724Z" fill="#0A0620"/>
<path d="M67.3646 32.4998C64.2653 32.4998 61.8825 31.7687 60.2162 30.3066C58.5499 28.8446 57.7168 26.4687 57.7168 23.179V0.5H67.5646V5.8333H72.5635V14.7633H67.5646V22.2319C67.5646 23.1291 67.7812 23.7771 68.2144 24.1758C68.681 24.5746 69.3142 24.774 70.114 24.774C70.9805 24.774 71.797 24.6411 72.5635 24.3752V31.7521C71.9636 31.9183 71.2138 32.0844 70.314 32.2506C69.4142 32.4167 68.4311 32.4998 67.3646 32.4998Z" fill="#0A0620"/>
</svg>
