<svg width="30" height="20" viewBox="0 0 30 20" fill="none" xmlns="http://www.w3.org/2000/svg">
<g clip-path="url(#clip0_790_3431)">
<path d="M18.5312 7.52375H21.0082V8.85267C21.2178 8.34283 21.4986 7.97926 21.8506 7.76196C22.2027 7.53629 22.626 7.42764 23.1205 7.43599V8.9852V9.74279C23.0064 9.73585 22.8967 9.7326 22.7915 9.73304C22.2636 9.73524 21.8494 9.83043 21.5489 10.0186C21.1884 10.2359 21.0082 10.5828 21.0082 11.0592V14.0806H18.5312V7.52375Z" fill="white"/>
<path fill-rule="evenodd" clip-rule="evenodd" d="M25.8191 14.2189L29.7586 12.0687L29.8058 12.0436C29.9362 11.6761 30.0013 11.269 30.0013 10.8223V10.722C30.0013 10.1955 29.9049 9.72327 29.7121 9.30537C29.5277 8.88747 29.2721 8.53644 28.9451 8.25227C28.6182 7.95974 28.2327 7.73825 27.7884 7.58781C27.3441 7.42901 26.8663 7.34961 26.355 7.34961C25.8353 7.34961 25.3492 7.42901 24.8965 7.58781C24.4523 7.74661 24.0667 7.97646 23.7398 8.27734C23.4129 8.56987 23.153 8.92926 22.9602 9.35552C22.7758 9.77342 22.6836 10.2498 22.6836 10.7847V10.885C22.6836 11.4283 22.7758 11.9089 22.9602 12.3268C23.153 12.7363 23.4129 13.0874 23.7398 13.3799C24.075 13.6641 24.4648 13.8814 24.9091 14.0318C25.1982 14.1243 25.5016 14.1867 25.8191 14.2189ZM26.355 12.4271C27.1094 12.4271 27.4866 11.8963 27.4866 10.8349V10.7471C27.4866 10.2289 27.3944 9.8361 27.21 9.56865C27.0256 9.30119 26.7406 9.16747 26.355 9.16747C25.9778 9.16747 25.6886 9.29701 25.4875 9.55611C25.2863 9.80685 25.1857 10.1913 25.1857 10.7095V10.8098C25.1857 11.888 25.5755 12.4271 26.355 12.4271Z" fill="white"/>
<path d="M9.51993 7.52317H7.04297V14.08H9.51993V10.4568C9.51993 10.064 9.60375 9.77564 9.7714 9.59177C9.94742 9.40789 10.1905 9.31596 10.5007 9.31596C10.794 9.31596 11.0036 9.39954 11.1293 9.56669C11.2634 9.73385 11.3305 9.98459 11.3305 10.3189V14.065L13.8075 12.713V9.76729C13.8075 9.35775 13.753 9.00253 13.644 8.70165C13.5434 8.40076 13.4009 8.15002 13.2165 7.94943C13.0321 7.74884 12.81 7.59839 12.5501 7.4981C12.2903 7.3978 12.0053 7.34766 11.6951 7.34766C11.1419 7.34766 10.6851 7.46467 10.3246 7.69869C9.97257 7.93271 9.70434 8.22524 9.51993 8.57628V7.52317Z" fill="white"/>
<path fill-rule="evenodd" clip-rule="evenodd" d="M2.79191 9.21848C2.90681 9.10719 3.08683 9.05155 3.33195 9.05155C3.4996 9.05155 3.63371 9.07662 3.7343 9.12677C3.83489 9.16856 3.91033 9.23542 3.96062 9.32736C4.0193 9.41094 4.05702 9.51123 4.07378 9.62824C4.09055 9.74526 4.09893 9.87063 4.09893 10.0044V10.1172H3.53312C2.39314 10.1172 1.51719 10.2843 0.905285 10.6187C0.301762 10.9446 0 11.4921 0 12.261C0 12.612 0.0586759 12.9129 0.176028 13.1637C0.301762 13.4144 0.465216 13.6192 0.66639 13.778C0.875947 13.9368 1.11484 14.0538 1.38307 14.129C1.65969 14.2042 1.94469 14.2418 2.23807 14.2418C2.5063 14.2418 2.741 14.2126 2.94217 14.1541C3.15173 14.1039 3.33614 14.0371 3.4954 13.9535C3.65467 13.8699 3.78878 13.7738 3.89775 13.6651C4.00672 13.5565 4.09474 13.4437 4.16179 13.3266V14.0789H6.55074V9.84137C6.55074 8.9805 6.27832 8.34948 5.73347 7.94829C5.18862 7.53875 4.43841 7.33398 3.48283 7.33398C3.01342 7.33398 2.58174 7.38413 2.18777 7.48443C2.07039 7.51496 1.95768 7.55053 1.84962 7.59113L2.79191 9.21848ZM3.82231 12.3738C3.64629 12.5159 3.41577 12.587 3.13078 12.587C2.90445 12.587 2.73262 12.541 2.61527 12.4491C2.49792 12.3571 2.43924 12.2317 2.43924 12.0729C2.43924 11.8389 2.52306 11.6759 2.69071 11.584C2.85835 11.4921 3.15173 11.4461 3.57084 11.4461H4.09893V11.7846C4.09893 12.027 4.00672 12.2234 3.82231 12.3738Z" fill="white"/>
<path d="M16.7274 14.244C15.9479 14.244 15.3486 14.0602 14.9295 13.6924C14.5103 13.3247 14.3008 12.7271 14.3008 11.8996V6.19531H16.7777V7.53677H18.0351V9.78287H16.7777V11.6614C16.7777 11.8871 16.8322 12.0501 16.9412 12.1504C17.0585 12.2507 17.2178 12.3008 17.419 12.3008C17.6369 12.3008 17.8423 12.2674 18.0351 12.2005V14.056C17.8842 14.0978 17.6956 14.1396 17.4693 14.1813C17.243 14.2231 16.9957 14.244 16.7274 14.244Z" fill="white"/>
</g>
<defs>
<clipPath id="clip0_790_3431">
<rect width="30" height="20" fill="white"/>
</clipPath>
</defs>
</svg>
