<svg width="68" height="68" viewBox="0 0 68 68" fill="none" xmlns="http://www.w3.org/2000/svg">
<rect width="68" height="68" rx="22" fill="white"/>
<path d="M36.1103 38.3676C36.4037 38.7295 36.7776 39.268 37.2536 40.103L37.972 42.0523C38.0419 42.2372 38.1388 42.6401 38.1928 42.9397C38.2561 43.2405 38.367 44.2337 38.4052 44.7161C38.4052 44.7161 38.4717 45.964 37.8131 46.0079C37.0058 46.0617 36.7979 45.6077 36.7851 45.1483C36.7629 44.6876 36.7043 44.0076 36.6435 43.6195C36.592 43.2326 36.4251 42.5767 36.2921 42.1591C36.1497 41.7402 35.9308 41.1841 35.7953 40.922C35.6692 40.6611 35.3153 40.1156 35.0192 39.7047C34.723 39.2937 34.1337 38.6573 33.7186 38.2786C33.3022 37.9094 32.7855 37.5069 32.2127 37.1649L31.9868 37.3497C31.7104 37.5549 31.287 37.7884 31.0558 37.8733C30.8153 37.9569 30.3342 38.0559 29.976 38.094C29.5215 38.1383 29.115 38.1113 28.671 38.011C28.3192 37.9332 27.7788 37.7708 27.4818 37.6421C27.1835 37.523 26.513 37.1285 25.9816 36.7629C25.4329 36.3852 24.837 35.8647 24.5825 35.5666C24.336 35.2794 23.9393 34.6987 23.6993 34.2956C23.4687 33.8937 23.093 33.092 22.8755 32.5264C22.6579 31.9608 22.3554 30.9745 22.214 30.3416C22.0632 29.7073 21.9149 28.9857 21.8824 28.7378C21.8593 28.4912 21.8734 28.1816 21.9307 28.0435C21.9932 27.8671 22.1334 27.7502 22.3419 27.6914C22.5209 27.6382 23.1479 27.5886 23.7227 27.5707C24.3925 27.5561 25.3097 27.6148 26.2271 27.7416C27.0696 27.8581 27.9709 28.0314 28.3629 28.1634C28.7361 28.2929 29.3315 28.5408 29.67 28.7141C30.0085 28.8875 30.4823 29.1867 30.7233 29.3758C30.9562 29.554 31.4209 29.9883 31.7383 30.3145C32.0544 30.6503 32.4979 31.2374 32.7231 31.6094C32.939 31.98 33.2587 32.4112 33.3418 32.9996C33.4534 33.7898 33.5072 34.2204 33.2825 35.9125L33.7483 36.2008C34.0119 36.3638 34.5287 36.7663 34.9022 37.1003C35.2758 37.4343 35.8182 37.9962 36.1103 38.3676Z" fill="#FC63D5"/>
<path d="M37.8892 25.8453C38.1349 25.6159 38.7107 25.166 39.1803 24.8605C39.7999 24.4454 40.3432 24.1734 41.1948 23.8341C41.8295 23.5889 42.8093 23.2931 42.8093 23.2931L44.0052 23.0585C44.0052 23.0585 44.9052 22.897 45.0882 22.8986C45.308 22.9171 45.4678 22.9898 45.5657 23.1381C45.6565 23.2684 45.7445 23.6274 45.7834 23.9639C45.8099 24.2949 45.8273 25.074 45.8278 25.7045C45.8194 26.3385 45.7535 27.2429 45.686 27.7239C45.6186 28.2049 45.4743 28.9327 45.3702 29.3451C45.2662 29.7576 45.0166 30.4227 44.8228 30.8388C44.6255 31.2459 44.253 31.8551 43.9892 32.1948C43.7219 32.5255 43.1843 33.0745 42.7885 33.4135C42.3927 33.7525 41.7995 34.1575 41.4696 34.3263C41.1309 34.4985 40.6127 34.678 40.2623 34.741C39.9241 34.8096 39.6501 34.8465 39.2097 34.7961C38.724 34.7405 38.7233 34.717 37.9434 34.429L37.6403 34.8769C37.4614 35.1218 37.1149 35.8244 36.8479 36.4445C36.5898 37.0612 36.2757 37.9788 36.1642 38.4768C36.0527 38.9748 35.7867 39.4613 35.7361 40.0908L34.5195 39.1894C34.5835 38.6994 34.4618 38.5019 34.5499 38.1267C34.6291 37.7549 34.8402 37.0426 35.0062 36.5545C35.1722 36.0664 35.5155 35.3031 35.7622 34.8665C36.0177 34.4266 36.298 33.9461 36.392 33.796C36.541 33.5523 36.5413 33.5005 36.3419 33.2467C36.2318 33.0928 36.0139 32.66 35.8714 32.2911C35.7273 31.8918 35.6082 31.4001 35.5956 31.1052C35.5776 30.8226 35.6188 30.3 35.6751 29.9474C35.7313 29.5948 35.9227 28.9625 36.0954 28.5442C36.2681 28.126 36.6427 27.4436 36.9263 27.0238C37.2133 26.6131 37.6435 26.0746 37.8892 25.8453Z" fill="#FC63D5"/>
</svg>
