<svg width="58" height="58" viewBox="0 0 58 58" fill="none" xmlns="http://www.w3.org/2000/svg">
<rect width="58" height="58" rx="20" fill="#350027" fill-opacity="0.3"/>
<path fill-rule="evenodd" clip-rule="evenodd" d="M25.9858 28.9995L18.5977 27.0199L19.0014 25.513L26.3933 27.4937L20.9833 22.0837L22.0864 20.9806L27.4917 26.3859L25.513 19.0014L27.0199 18.5977L28.9995 25.9858L30.9792 18.5977L32.486 19.0014L30.5057 26.3921L35.9172 20.9806L37.0203 22.0837L31.612 27.492L38.9977 25.513L39.4014 27.0199L32.0132 28.9995L39.4014 30.9792L38.9977 32.486L31.6132 30.5074L37.0203 35.9145L35.9172 37.0176L30.5054 31.6058L32.486 38.9977L30.9792 39.4014L28.9995 32.0132L27.0199 39.4014L25.513 38.9977L27.492 31.612L22.0864 37.0176L20.9833 35.9145L26.3921 30.5057L19.0014 32.486L18.5977 30.9792L25.9858 28.9995Z" fill="white"/>
</svg>
