<svg width="42" height="42" viewBox="0 0 42 42" fill="none" xmlns="http://www.w3.org/2000/svg">
<circle cx="21" cy="21" r="21" fill="#C9C8CE"/>
<g clip-path="url(#clip0_7890_11648)">
<path fill-rule="evenodd" clip-rule="evenodd" d="M13.8122 20.8653C17.6387 19.2035 20.1861 18.0992 21.4652 17.5635C25.1059 16.0438 25.8712 15.7814 26.3632 15.7705C26.4725 15.7705 26.713 15.7924 26.877 15.9236C27.0082 16.0329 27.041 16.175 27.0629 16.2844C27.0847 16.3937 27.1066 16.6233 27.0847 16.7982C26.888 18.8755 26.0352 23.9155 25.5979 26.2333C25.412 27.2173 25.0512 27.5453 24.7014 27.5781C23.9361 27.6437 23.3566 27.0752 22.6241 26.5941C21.4652 25.8397 20.8202 25.3696 19.6941 24.6262C18.3931 23.7734 19.2349 23.3033 19.9783 22.538C20.1751 22.3412 23.5315 19.28 23.5971 19.0067C23.6081 18.9739 23.6081 18.8427 23.5315 18.7771C23.455 18.7115 23.3457 18.7333 23.2582 18.7552C23.138 18.7771 21.3012 20.0016 17.7261 22.4177C17.2014 22.7785 16.7313 22.9534 16.3049 22.9425C15.8347 22.9316 14.9382 22.6801 14.2604 22.4615C13.4404 22.1991 12.7845 22.0569 12.8391 21.5978C12.8719 21.3572 13.1999 21.1167 13.8122 20.8653Z" fill="white"/>
</g>
<defs>
<clipPath id="clip0_7890_11648">
<rect width="17.5" height="17.5" fill="white" transform="translate(12.25 12.25)"/>
</clipPath>
</defs>
</svg>
