<svg width="16" height="16" viewBox="0 0 16 16" fill="none" xmlns="http://www.w3.org/2000/svg">
<g clip-path="url(#clip0_8414_12286)">
<path d="M8 16C12.4183 16 16 12.4183 16 8C16 3.58172 12.4183 0 8 0C3.58172 0 0 3.58172 0 8C0 12.4183 3.58172 16 8 16Z" fill="#D5A150"/>
<path d="M12.9744 1.73633C14.061 3.10227 14.7105 4.83142 14.7105 6.71245C14.7105 11.1307 11.1288 14.7125 6.71053 14.7125C4.8295 14.7125 3.10031 14.0629 1.73438 12.9763C3.2 14.8187 5.461 16.0002 7.99825 16.0002C12.4165 16.0002 15.9983 12.4185 15.9983 8.00017C15.9983 5.46295 14.8168 3.20192 12.9744 1.73633Z" fill="#AD712C"/>
<path d="M4.35976 4.54035C4.19498 4.54035 4.0302 4.47748 3.90448 4.35176C3.21413 3.66141 3.21413 2.5381 3.90448 1.8477C4.23891 1.51326 4.68351 1.3291 5.15651 1.3291C5.62948 1.3291 6.0741 1.51329 6.40854 1.8477C6.65998 2.09916 6.65998 2.50682 6.40854 2.75829C6.15704 3.0097 5.74938 3.00973 5.49795 2.75829C5.40673 2.66707 5.28548 2.61682 5.15651 2.61682C5.02754 2.61682 4.90626 2.66707 4.81507 2.75829C4.62676 2.9466 4.62676 3.25295 4.81507 3.4412C5.06654 3.69266 5.06654 4.10032 4.81507 4.35176C4.68932 4.47751 4.52454 4.54035 4.35976 4.54035Z" fill="#C98A2E"/>
<path d="M5.158 4.22616C5.78029 4.22616 6.28475 3.72169 6.28475 3.09941C6.28475 2.47712 5.78029 1.97266 5.158 1.97266C4.53571 1.97266 4.03125 2.47712 4.03125 3.09941C4.03125 3.72169 4.53571 4.22616 5.158 4.22616Z" fill="#674230"/>
<path d="M4.03453 2.9913C4.03413 2.99564 4.03375 2.99995 4.03338 3.0043C4.00266 3.37708 4.30891 3.69133 4.68272 3.67777C4.70747 3.67686 4.73244 3.67517 4.7575 3.67264C5.28791 3.61914 5.71319 3.1903 5.76288 2.65952C5.76328 2.65517 5.76366 2.65086 5.764 2.64655C5.79472 2.2738 5.48847 1.95952 5.11466 1.97308C5.08991 1.97399 5.06494 1.97567 5.03988 1.9782C4.5095 2.03167 4.08422 2.46052 4.03453 2.9913Z" fill="#7A5436"/>
<path d="M1.78554 9.69071C1.62076 9.69071 1.45598 9.62784 1.33026 9.50212C0.639914 8.81177 0.639914 7.68846 1.33026 6.99805C1.6647 6.66365 2.10932 6.47949 2.58229 6.47949C3.05526 6.47949 3.49988 6.66368 3.83432 6.99809C4.08576 7.24955 4.08576 7.65721 3.83432 7.90868C3.58282 8.16009 3.17516 8.16012 2.92373 7.90868C2.83251 7.81746 2.71126 7.76721 2.58229 7.76721C2.45332 7.76721 2.33204 7.81746 2.24085 7.90868C2.05254 8.09699 2.05254 8.40334 2.24085 8.59159C2.49232 8.84306 2.49232 9.25071 2.24085 9.50215C2.1151 9.62787 1.95029 9.69071 1.78554 9.69071Z" fill="#C98A2E"/>
<path d="M2.58378 9.37655C3.20607 9.37655 3.71053 8.87208 3.71053 8.2498C3.71053 7.62751 3.20607 7.12305 2.58378 7.12305C1.96149 7.12305 1.45703 7.62751 1.45703 8.2498C1.45703 8.87208 1.96149 9.37655 2.58378 9.37655Z" fill="#674230"/>
<path d="M1.46031 8.14267C1.45991 8.14701 1.45953 8.15132 1.45916 8.15567C1.42844 8.52848 1.73469 8.8427 2.1085 8.82913C2.13325 8.82823 2.15822 8.82654 2.18328 8.82401C2.71369 8.77051 3.13897 8.34167 3.18866 7.81088C3.18906 7.80654 3.18944 7.80223 3.18978 7.79792C3.2205 7.42517 2.91425 7.11088 2.54044 7.12445C2.51569 7.12535 2.49072 7.12704 2.46566 7.12957C1.93531 7.18304 1.51003 7.61188 1.46031 8.14267Z" fill="#7A5436"/>
<path d="M4.03945 12.9105C3.87466 12.9105 3.70988 12.8476 3.58416 12.7219C2.89382 12.0315 2.89382 10.9082 3.58416 10.2178C3.9186 9.88338 4.3632 9.69922 4.8362 9.69922C5.3092 9.69922 5.75379 9.88341 6.08823 10.2178C6.33966 10.4693 6.33966 10.8769 6.08823 11.1284C5.83673 11.3798 5.42907 11.3798 5.17763 11.1284C5.08645 11.0372 4.96516 10.9869 4.8362 10.9869C4.70723 10.9869 4.58595 11.0372 4.49476 11.1284C4.30645 11.3167 4.30645 11.6231 4.49476 11.8113C4.74623 12.0628 4.74623 12.4704 4.49476 12.7219C4.36901 12.8476 4.2042 12.9105 4.03945 12.9105Z" fill="#C98A2E"/>
<path d="M4.83769 12.5963C5.45997 12.5963 5.96444 12.0918 5.96444 11.4695C5.96444 10.8472 5.45997 10.3428 4.83769 10.3428C4.2154 10.3428 3.71094 10.8472 3.71094 11.4695C3.71094 12.0918 4.2154 12.5963 4.83769 12.5963Z" fill="#674230"/>
<path d="M3.71422 11.3614C3.71381 11.3658 3.71344 11.3701 3.71306 11.3744C3.68235 11.7472 3.9886 12.0614 4.36241 12.0479C4.38716 12.047 4.41213 12.0453 4.43719 12.0428C4.9676 11.9893 5.39288 11.5604 5.44256 11.0296C5.44297 11.0253 5.44335 11.021 5.44369 11.0167C5.47441 10.6439 5.16816 10.3297 4.79435 10.3432C4.7696 10.3441 4.74463 10.3458 4.71956 10.3483C4.18919 10.4018 3.76394 10.8306 3.71422 11.3614Z" fill="#7A5436"/>
<path d="M7.58241 15.1634C7.41763 15.1634 7.25285 15.1005 7.12713 14.9748C6.43679 14.2845 6.43679 13.1611 7.12713 12.4707C7.46157 12.1363 7.90616 11.9521 8.37916 11.9521C8.85213 11.9521 9.29676 12.1363 9.6312 12.4707C9.88263 12.7222 9.88263 13.1299 9.6312 13.3813C9.3797 13.6327 8.97204 13.6328 8.7206 13.3813C8.62938 13.2901 8.50813 13.2399 8.37916 13.2399C8.2502 13.2399 8.12891 13.2901 8.03773 13.3813C7.84941 13.5696 7.84941 13.876 8.03773 14.0642C8.2892 14.3157 8.2892 14.7234 8.03773 14.9748C7.91198 15.1006 7.74716 15.1634 7.58241 15.1634Z" fill="#C98A2E"/>
<path d="M8.37675 14.8502C8.99904 14.8502 9.5035 14.3457 9.5035 13.7234C9.5035 13.1011 8.99904 12.5967 8.37675 12.5967C7.75446 12.5967 7.25 13.1011 7.25 13.7234C7.25 14.3457 7.75446 14.8502 8.37675 14.8502Z" fill="#674230"/>
<path d="M7.25719 13.6153C7.25678 13.6197 7.25641 13.624 7.25603 13.6283C7.22531 14.0011 7.53156 14.3154 7.90538 14.3018C7.93013 14.3009 7.9551 14.2992 7.98016 14.2967C8.51056 14.2432 8.93585 13.8143 8.98553 13.2835C8.98594 13.2792 8.98631 13.2749 8.98666 13.2706C9.01738 12.8978 8.71113 12.5836 8.33731 12.5971C8.31256 12.598 8.2876 12.5997 8.26253 12.6022C7.73216 12.6557 7.30688 13.0846 7.25719 13.6153Z" fill="#7A5436"/>
<path d="M8.22304 6.15461C8.05826 6.15461 7.89348 6.09173 7.76776 5.96602C7.07741 5.27567 7.07741 4.15236 7.76776 3.46195C8.1022 3.12752 8.54679 2.94336 9.01979 2.94336C9.49279 2.94336 9.93738 3.12755 10.2718 3.46195C10.5233 3.71342 10.5233 4.12108 10.2718 4.37255C10.0203 4.62395 9.61266 4.62398 9.36123 4.37255C9.27001 4.28133 9.14876 4.23108 9.01979 4.23108C8.89082 4.23108 8.76954 4.28133 8.67835 4.37255C8.49004 4.56086 8.49004 4.8672 8.67835 5.05545C8.92982 5.30692 8.92982 5.71458 8.67835 5.96602C8.5526 6.09177 8.38782 6.15461 8.22304 6.15461Z" fill="#C98A2E"/>
<path d="M9.02128 5.84041C9.64357 5.84041 10.148 5.33595 10.148 4.71366C10.148 4.09138 9.64357 3.58691 9.02128 3.58691C8.39899 3.58691 7.89453 4.09138 7.89453 4.71366C7.89453 5.33595 8.39899 5.84041 9.02128 5.84041Z" fill="#674230"/>
<path d="M7.90172 4.60556C7.90131 4.6099 7.90094 4.61421 7.90056 4.61856C7.86985 4.99134 8.1761 5.30559 8.54991 5.29202C8.57466 5.29112 8.59963 5.28943 8.62469 5.2869C9.1551 5.2334 9.58038 4.80456 9.63006 4.27377C9.63047 4.26943 9.63085 4.26512 9.63119 4.26081C9.66191 3.88806 9.35566 3.57377 8.98185 3.58734C8.9571 3.58824 8.93213 3.58993 8.90706 3.59246C8.37669 3.64593 7.95141 4.07477 7.90172 4.60556Z" fill="#7A5436"/>
<path d="M12.0902 11.9437C11.9254 11.9437 11.7607 11.8808 11.6349 11.7551C10.9446 11.0647 10.9446 9.94142 11.6349 9.25102C11.9694 8.91658 12.414 8.73242 12.887 8.73242C13.36 8.73242 13.8046 8.91661 14.139 9.25102C14.3904 9.50248 14.3904 9.91014 14.139 10.1616C13.8875 10.413 13.4799 10.413 13.2284 10.1616C13.1372 10.0704 13.0159 10.0201 12.887 10.0201C12.758 10.0201 12.6367 10.0704 12.5455 10.1616C12.3572 10.3499 12.3572 10.6563 12.5455 10.8445C12.797 11.096 12.797 11.5036 12.5455 11.7551C12.4198 11.8808 12.255 11.9437 12.0902 11.9437Z" fill="#C98A2E"/>
<path d="M12.8846 11.6305C13.5068 11.6305 14.0113 11.126 14.0113 10.5037C14.0113 9.88142 13.5068 9.37695 12.8846 9.37695C12.2623 9.37695 11.7578 9.88142 11.7578 10.5037C11.7578 11.126 12.2623 11.6305 12.8846 11.6305Z" fill="#674230"/>
<path d="M11.7611 10.3956C11.7607 10.3999 11.7603 10.4042 11.7599 10.4086C11.7292 10.7814 12.0355 11.0956 12.4093 11.0821C12.434 11.0812 12.459 11.0795 12.4841 11.0769C13.0145 11.0234 13.4398 10.5946 13.4894 10.0638C13.4898 10.0595 13.4902 10.0552 13.4906 10.0508C13.5213 9.67809 13.215 9.36384 12.8412 9.37737C12.8165 9.37828 12.7915 9.37997 12.7664 9.3825C12.2361 9.436 11.8108 9.86484 11.7611 10.3956Z" fill="#7A5436"/>
<path d="M11.7621 5.82746C11.5973 5.82746 11.4325 5.76459 11.3068 5.63887C10.6165 4.94852 10.6165 3.82521 11.3068 3.1348C11.6413 2.80037 12.0859 2.61621 12.5589 2.61621C13.0319 2.61621 13.4764 2.8004 13.8109 3.1348C14.0623 3.38627 14.0623 3.79393 13.8109 4.0454C13.5594 4.2968 13.1517 4.29684 12.9003 4.0454C12.8091 3.95421 12.6878 3.90393 12.5589 3.90393C12.4299 3.90393 12.3086 3.95418 12.2174 4.0454C12.0291 4.23371 12.0291 4.54005 12.2174 4.7283C12.4689 4.97977 12.4689 5.38743 12.2174 5.63887C12.0917 5.76462 11.9269 5.82746 11.7621 5.82746Z" fill="#C98A2E"/>
<path d="M12.5603 5.51327C13.1826 5.51327 13.6871 5.0088 13.6871 4.38652C13.6871 3.76423 13.1826 3.25977 12.5603 3.25977C11.9381 3.25977 11.4336 3.76423 11.4336 4.38652C11.4336 5.0088 11.9381 5.51327 12.5603 5.51327Z" fill="#674230"/>
<path d="M11.4408 4.27938C11.4403 4.28373 11.44 4.28804 11.4396 4.29238C11.4089 4.6652 11.7152 4.97942 12.089 4.96585C12.1137 4.96495 12.1387 4.96326 12.1638 4.96073C12.6942 4.90723 13.1194 4.47838 13.1691 3.9476C13.1695 3.94326 13.1699 3.93895 13.1703 3.93463C13.201 3.56188 12.8947 3.2476 12.5209 3.26117C12.4962 3.26207 12.4712 3.26376 12.4461 3.26629C11.9158 3.31976 11.4905 3.7486 11.4408 4.27938Z" fill="#7A5436"/>
<path d="M6.93398 9.69074C6.7692 9.69074 6.60441 9.62787 6.4787 9.50215C5.78835 8.8118 5.78835 7.68849 6.4787 6.99809C6.81313 6.66365 7.25773 6.47949 7.73073 6.47949C8.20373 6.47949 8.64832 6.66368 8.98276 6.99809C9.2342 7.24955 9.2342 7.65721 8.98276 7.90868C8.73126 8.16009 8.3236 8.16012 8.07216 7.90868C7.98098 7.81746 7.8597 7.76721 7.73073 7.76721C7.60176 7.76721 7.48048 7.81746 7.38929 7.90868C7.20098 8.09699 7.20098 8.40334 7.38929 8.59159C7.64076 8.84305 7.64076 9.25071 7.38929 9.50215C7.26354 9.6279 7.09873 9.69074 6.93398 9.69074Z" fill="#C98A2E"/>
<path d="M7.73222 9.37655C8.35451 9.37655 8.85897 8.87208 8.85897 8.2498C8.85897 7.62751 8.35451 7.12305 7.73222 7.12305C7.10993 7.12305 6.60547 7.62751 6.60547 8.2498C6.60547 8.87208 7.10993 9.37655 7.73222 9.37655Z" fill="#674230"/>
<path d="M6.61266 8.14267C6.61225 8.14701 6.61188 8.15132 6.6115 8.15567C6.58078 8.52848 6.88703 8.8427 7.26085 8.82913C7.28559 8.82823 7.31056 8.82654 7.33563 8.82401C7.86603 8.77051 8.29131 8.34167 8.341 7.81088C8.34141 7.80654 8.34178 7.80223 8.34213 7.79792C8.37285 7.42517 8.0666 7.11088 7.69278 7.12445C7.66803 7.12535 7.64306 7.12704 7.618 7.12957C7.08766 7.18304 6.66238 7.61188 6.61266 8.14267Z" fill="#7A5436"/>
<path d="M4.05784 9.4487C4.19119 9.4487 4.29928 9.3406 4.29928 9.20726C4.29928 9.07392 4.19119 8.96582 4.05784 8.96582C3.9245 8.96582 3.81641 9.07392 3.81641 9.20726C3.81641 9.3406 3.9245 9.4487 4.05784 9.4487Z" fill="#AD712C"/>
<path d="M5.66722 9.4487C5.80056 9.4487 5.90866 9.3406 5.90866 9.20726C5.90866 9.07392 5.80056 8.96582 5.66722 8.96582C5.53388 8.96582 5.42578 9.07392 5.42578 9.20726C5.42578 9.3406 5.53388 9.4487 5.66722 9.4487Z" fill="#AD712C"/>
<path d="M4.85863 7.99948C4.99197 7.99948 5.10006 7.89138 5.10006 7.75804C5.10006 7.6247 4.99197 7.5166 4.85863 7.5166C4.72528 7.5166 4.61719 7.6247 4.61719 7.75804C4.61719 7.89138 4.72528 7.99948 4.85863 7.99948Z" fill="#AD712C"/>
<path d="M1.96409 10.8969C2.09744 10.8969 2.20553 10.7888 2.20553 10.6555C2.20553 10.5222 2.09744 10.4141 1.96409 10.4141C1.83075 10.4141 1.72266 10.5222 1.72266 10.6555C1.72266 10.7888 1.83075 10.8969 1.96409 10.8969Z" fill="#AD712C"/>
<path d="M5.18284 14.438C5.31619 14.438 5.42428 14.3299 5.42428 14.1965C5.42428 14.0632 5.31619 13.9551 5.18284 13.9551C5.0495 13.9551 4.94141 14.0632 4.94141 14.1965C4.94141 14.3299 5.0495 14.438 5.18284 14.438Z" fill="#AD712C"/>
<path d="M6.14769 13.1508C6.28103 13.1508 6.38912 13.0427 6.38912 12.9094C6.38912 12.7761 6.28103 12.668 6.14769 12.668C6.01435 12.668 5.90625 12.7761 5.90625 12.9094C5.90625 13.0427 6.01435 13.1508 6.14769 13.1508Z" fill="#AD712C"/>
<path d="M7.75706 11.2192C7.8904 11.2192 7.9985 11.1111 7.9985 10.9778C7.9985 10.8444 7.8904 10.7363 7.75706 10.7363C7.62372 10.7363 7.51562 10.8444 7.51562 10.9778C7.51562 11.1111 7.62372 11.2192 7.75706 11.2192Z" fill="#AD712C"/>
<path d="M10.3352 10.2534C10.4685 10.2534 10.5766 10.1453 10.5766 10.0119C10.5766 9.8786 10.4685 9.77051 10.3352 9.77051C10.2018 9.77051 10.0938 9.8786 10.0938 10.0119C10.0938 10.1453 10.2018 10.2534 10.3352 10.2534Z" fill="#AD712C"/>
<path d="M9.68675 10.8969C9.82009 10.8969 9.92819 10.7888 9.92819 10.6555C9.92819 10.5222 9.82009 10.4141 9.68675 10.4141C9.55341 10.4141 9.44531 10.5222 9.44531 10.6555C9.44531 10.7888 9.55341 10.8969 9.68675 10.8969Z" fill="#AD712C"/>
<path d="M10.6555 11.8628C10.7888 11.8628 10.8969 11.7547 10.8969 11.6213C10.8969 11.488 10.7888 11.3799 10.6555 11.3799C10.5222 11.3799 10.4141 11.488 10.4141 11.6213C10.4141 11.7547 10.5222 11.8628 10.6555 11.8628Z" fill="#AD712C"/>
<path d="M10.6555 13.7944C10.7888 13.7944 10.8969 13.6863 10.8969 13.553C10.8969 13.4196 10.7888 13.3115 10.6555 13.3115C10.5222 13.3115 10.4141 13.4196 10.4141 13.553C10.4141 13.6863 10.5222 13.7944 10.6555 13.7944Z" fill="#AD712C"/>
<path d="M14.1985 7.03366C14.3318 7.03366 14.4399 6.92556 14.4399 6.79222C14.4399 6.65888 14.3318 6.55078 14.1985 6.55078C14.0651 6.55078 13.957 6.65888 13.957 6.79222C13.957 6.92556 14.0651 7.03366 14.1985 7.03366Z" fill="#AD712C"/>
<path d="M13.2336 13.4731C13.367 13.4731 13.4751 13.365 13.4751 13.2317C13.4751 13.0983 13.367 12.9902 13.2336 12.9902C13.1003 12.9902 12.9922 13.0983 12.9922 13.2317C12.9922 13.365 13.1003 13.4731 13.2336 13.4731Z" fill="#AD712C"/>
<path d="M8.4055 1.23873C8.53884 1.23873 8.64694 1.13064 8.64694 0.997297C8.64694 0.863955 8.53884 0.755859 8.4055 0.755859C8.27216 0.755859 8.16406 0.863955 8.16406 0.997297C8.16406 1.13064 8.27216 1.23873 8.4055 1.23873Z" fill="#AD712C"/>
<path d="M2.60862 4.13717C2.74197 4.13717 2.85006 4.02908 2.85006 3.89573C2.85006 3.76239 2.74197 3.6543 2.60862 3.6543C2.47528 3.6543 2.36719 3.76239 2.36719 3.89573C2.36719 4.02908 2.47528 4.13717 2.60862 4.13717Z" fill="#AD712C"/>
<path d="M1.31956 6.06784C1.4529 6.06784 1.561 5.95974 1.561 5.8264C1.561 5.69306 1.4529 5.58496 1.31956 5.58496C1.18622 5.58496 1.07812 5.69306 1.07812 5.8264C1.07812 5.95974 1.18622 6.06784 1.31956 6.06784Z" fill="#AD712C"/>
<path d="M5.02269 6.55123C5.15603 6.55123 5.26413 6.44314 5.26413 6.3098C5.26413 6.17645 5.15603 6.06836 5.02269 6.06836C4.88935 6.06836 4.78125 6.17645 4.78125 6.3098C4.78125 6.44314 4.88935 6.55123 5.02269 6.55123Z" fill="#AD712C"/>
<path d="M5.98753 6.06784C6.12087 6.06784 6.22897 5.95974 6.22897 5.8264C6.22897 5.69306 6.12087 5.58496 5.98753 5.58496C5.85419 5.58496 5.74609 5.69306 5.74609 5.8264C5.74609 5.95974 5.85419 6.06784 5.98753 6.06784Z" fill="#AD712C"/>
<path d="M5.02269 5.58541C5.15603 5.58541 5.26413 5.47732 5.26413 5.34398C5.26413 5.21063 5.15603 5.10254 5.02269 5.10254C4.88935 5.10254 4.78125 5.21063 4.78125 5.34398C4.78125 5.47732 4.88935 5.58541 5.02269 5.58541Z" fill="#AD712C"/>
<path d="M9.5305 7.99948C9.66384 7.99948 9.77194 7.89138 9.77194 7.75804C9.77194 7.6247 9.66384 7.5166 9.5305 7.5166C9.39716 7.5166 9.28906 7.6247 9.28906 7.75804C9.28906 7.89138 9.39716 7.99948 9.5305 7.99948Z" fill="#AD712C"/>
<path d="M7.43675 3.17038C7.57009 3.17038 7.67819 3.06228 7.67819 2.92894C7.67819 2.7956 7.57009 2.6875 7.43675 2.6875C7.30341 2.6875 7.19531 2.7956 7.19531 2.92894C7.19531 3.06228 7.30341 3.17038 7.43675 3.17038Z" fill="#AD712C"/>
<path d="M10.4953 6.06784C10.6287 6.06784 10.7368 5.95974 10.7368 5.8264C10.7368 5.69306 10.6287 5.58496 10.4953 5.58496C10.362 5.58496 10.2539 5.69306 10.2539 5.8264C10.2539 5.95974 10.362 6.06784 10.4953 6.06784Z" fill="#AD712C"/>
<path d="M10.9758 7.51608C11.1092 7.51608 11.2172 7.40798 11.2172 7.27464C11.2172 7.1413 11.1092 7.0332 10.9758 7.0332C10.8425 7.0332 10.7344 7.1413 10.7344 7.27464C10.7344 7.40798 10.8425 7.51608 10.9758 7.51608Z" fill="#AD712C"/>
<path d="M11.9446 7.51608C12.0779 7.51608 12.186 7.40798 12.186 7.27464C12.186 7.1413 12.0779 7.0332 11.9446 7.0332C11.8112 7.0332 11.7031 7.1413 11.7031 7.27464C11.7031 7.40798 11.8112 7.51608 11.9446 7.51608Z" fill="#AD712C"/>
<path d="M11.9446 8.48287C12.0779 8.48287 12.186 8.37478 12.186 8.24144C12.186 8.1081 12.0779 8 11.9446 8C11.8112 8 11.7031 8.1081 11.7031 8.24144C11.7031 8.37478 11.8112 8.48287 11.9446 8.48287Z" fill="#AD712C"/>
<path d="M10.1711 2.68795C10.3045 2.68795 10.4126 2.57986 10.4126 2.44652C10.4126 2.31317 10.3045 2.20508 10.1711 2.20508C10.0378 2.20508 9.92969 2.31317 9.92969 2.44652C9.92969 2.57986 10.0378 2.68795 10.1711 2.68795Z" fill="#AD712C"/>
<path d="M11.1399 2.20455C11.2732 2.20455 11.3813 2.09646 11.3813 1.96312C11.3813 1.82977 11.2732 1.72168 11.1399 1.72168C11.0065 1.72168 10.8984 1.82977 10.8984 1.96312C10.8984 2.09646 11.0065 2.20455 11.1399 2.20455Z" fill="#AD712C"/>
</g>
<defs>
<clipPath id="clip0_8414_12286">
<rect width="16" height="16" fill="white"/>
</clipPath>
</defs>
</svg>
