<svg width="20" height="20" viewBox="0 0 20 20" fill="none" xmlns="http://www.w3.org/2000/svg">
<path d="M6.16614 4.84346C6.16614 3.84782 6.16614 3.34999 6.3599 2.96971C6.53035 2.6352 6.80231 2.36323 7.13682 2.19279C7.51711 1.99902 8.01493 1.99902 9.01058 1.99902H13.9884C14.984 1.99902 15.4818 1.99902 15.8621 2.19279C16.1966 2.36323 16.4686 2.6352 16.639 2.96971C16.8328 3.34999 16.8328 3.84782 16.8328 4.84347V12.4879C16.8328 13.4836 16.8328 13.9814 16.639 14.3617C16.4686 14.6962 16.1966 14.9681 15.8621 15.1386C15.4818 15.3324 14.984 15.3324 13.9884 15.3324H9.01058C8.01493 15.3324 7.51711 15.3324 7.13682 15.1386C6.80231 14.9681 6.53035 14.6962 6.3599 14.3617C6.16614 13.9814 6.16614 13.4836 6.16614 12.4879V4.84346Z" fill="#0A0620"/>
<path fill-rule="evenodd" clip-rule="evenodd" d="M4.6641 4.78131C4.83096 4.72799 4.91439 4.70132 5.01432 4.7275C5.09244 4.74797 5.18243 4.81403 5.22536 4.88242C5.28029 4.96992 5.2797 5.08713 5.27853 5.32156C5.2779 5.44864 5.2779 5.58543 5.2779 5.73319V13.3776C5.2779 14.3733 5.2779 14.8711 5.47167 15.2514C5.64211 15.5859 5.91407 15.8579 6.24858 16.0283C6.62887 16.2221 7.1267 16.2221 8.12234 16.2221H13.1001C13.2479 16.2221 13.3847 16.2221 13.5117 16.2214C13.7462 16.2203 13.8634 16.2197 13.9509 16.2746C14.0193 16.3175 14.0853 16.4075 14.1058 16.4857C14.132 16.5856 14.1053 16.669 14.052 16.8359C14.0301 16.9044 14.004 16.9683 13.973 17.0292C13.8026 17.3637 13.5306 17.6356 13.1961 17.8061C12.8158 17.9999 12.318 17.9999 11.3223 17.9999H8.4779C6.73551 17.9999 5.86432 17.9999 5.19882 17.6608C4.61343 17.3625 4.13749 16.8865 3.83921 16.3012C3.50012 15.6357 3.50012 14.7645 3.50012 13.0221V7.51096C3.50012 6.51531 3.50012 6.01749 3.69389 5.6372C3.86433 5.30269 4.1363 5.03073 4.47081 4.86029C4.5317 4.82926 4.59561 4.8032 4.6641 4.78131Z" fill="#0A0620"/>
</svg>
