<svg width="24" height="24" viewBox="0 0 24 24" fill="none" xmlns="http://www.w3.org/2000/svg">
<path d="M4.80078 19.8V4.62397C4.80078 3.62986 5.60667 2.82397 6.60078 2.82397H11.5903C11.9216 2.82397 12.1903 3.0926 12.1903 3.42397V9.19997C12.1903 9.86271 12.7275 10.4 13.3903 10.4H19.0439C19.3752 10.4 19.6439 10.6686 19.6439 11V19.8C19.6439 20.7941 18.838 21.6 17.8439 21.6H6.60078C5.60667 21.6 4.80078 20.7941 4.80078 19.8Z" fill="black"/>
<path d="M13.0113 8.39997V3.82231C13.0113 3.29151 13.6499 3.02215 14.03 3.39257L19.3439 8.57023C19.7295 8.9459 19.4635 9.59997 18.9252 9.59997H14.2113C13.5486 9.59997 13.0113 9.06271 13.0113 8.39997Z" fill="black"/>
</svg>
