<svg width="24" height="24" viewBox="0 0 24 24" fill="none" xmlns="http://www.w3.org/2000/svg">
<path d="M4.80078 19.8V4.624C4.80078 3.62989 5.60667 2.824 6.60078 2.824H11.5903C11.9216 2.824 12.1903 3.09263 12.1903 3.424V9.2C12.1903 9.86274 12.7275 10.4 13.3903 10.4H19.0439C19.3752 10.4 19.6439 10.6686 19.6439 11V19.8C19.6439 20.7941 18.838 21.6 17.8439 21.6H6.60078C5.60667 21.6 4.80078 20.7941 4.80078 19.8Z" fill="white"/>
<path d="M13.0113 8.4V3.82233C13.0113 3.29154 13.6499 3.02218 14.03 3.3926L19.3439 8.57026C19.7295 8.94593 19.4635 9.6 18.9252 9.6H14.2113C13.5486 9.6 13.0113 9.06274 13.0113 8.4Z" fill="white"/>
</svg>
