<svg width="20" height="20" viewBox="0 0 20 20" fill="none" xmlns="http://www.w3.org/2000/svg">
<path d="M4 16.4999V3.85327C4 3.02484 4.67157 2.35327 5.5 2.35327H9.6579C9.93404 2.35327 10.1579 2.57713 10.1579 2.85327V7.6666C10.1579 8.21889 10.6056 8.6666 11.1579 8.6666H15.8692C16.1454 8.6666 16.3692 8.89046 16.3692 9.1666V16.4999C16.3692 17.3284 15.6977 17.9999 14.8692 17.9999H5.5C4.67157 17.9999 4 17.3284 4 16.4999Z" fill="#0A0620"/>
<path d="M10.8421 6.99994V3.18522C10.8421 2.74289 11.3742 2.51842 11.691 2.8271L16.1193 7.14182C16.4406 7.45488 16.219 7.99994 15.7704 7.99994H11.8421C11.2898 7.99994 10.8421 7.55222 10.8421 6.99994Z" fill="#0A0620"/>
</svg>
