<svg width="20" height="20" viewBox="0 0 20 20" fill="none" xmlns="http://www.w3.org/2000/svg">
<path fill-rule="evenodd" clip-rule="evenodd" d="M7.1579 18C4.80342 18 2.89474 16.1486 2.89474 13.8649C2.89474 13.1514 3.08103 12.4801 3.40902 11.8943C2.0321 11.1704 1 9.85453 1 8.35135C1 6.06758 2.90868 4.21622 5.26316 4.21622C5.45675 4.21622 5.64732 4.22873 5.83406 4.25297C6.25074 2.39304 7.95765 1 10 1C12.0423 1 13.7493 2.39304 14.1659 4.25297C14.3527 4.22873 14.5433 4.21622 14.7368 4.21622C17.0913 4.21622 19 6.06758 19 8.35135C19 9.96082 18.052 11.3555 16.6681 12.0388C16.948 12.5895 17.1053 13.2094 17.1053 13.8649C17.1053 16.1486 15.1966 18 12.8421 18C11.7502 18 10.7542 17.6019 10 16.9471C9.24577 17.6019 8.24977 18 7.1579 18ZM9.99985 5.68613C10.4707 5.68613 10.8525 6.0564 10.8525 6.51315V8.93461L12.9798 8.05029C13.4126 7.87037 13.9138 8.06485 14.0993 8.48467C14.2848 8.90449 14.0843 9.39069 13.6515 9.57061L11.3873 10.5119L13.0233 12.4161C13.3247 12.767 13.2759 13.2885 12.9141 13.5809C12.5524 13.8733 12.0147 13.8259 11.7133 13.475L9.99985 11.4807L8.28644 13.475C7.98498 13.8259 7.44734 13.8733 7.08559 13.5809C6.72383 13.2885 6.67496 12.767 6.97642 12.4161L8.61244 10.5119L6.34819 9.57061C5.91537 9.39069 5.71487 8.90449 5.90037 8.48467C6.08586 8.06485 6.58711 7.87037 7.01993 8.05029L9.14722 8.93461V6.51315C9.14722 6.0564 9.52895 5.68613 9.99985 5.68613Z" fill="white"/>
</svg>
