<svg width="20" height="20" viewBox="0 0 20 20" fill="none" xmlns="http://www.w3.org/2000/svg">
<path fill-rule="evenodd" clip-rule="evenodd" d="M13.5968 3.01746C13.1332 3.09929 12.6641 2.90499 12.3941 2.51925L10.9923 0.516644C10.5101 -0.172215 9.48991 -0.172214 9.00772 0.516645L7.60595 2.51925C7.33594 2.90499 6.86684 3.09929 6.40316 3.01746L3.9959 2.59261C3.16785 2.44647 2.44647 3.16785 2.59261 3.9959L3.01746 6.40316C3.09929 6.86685 2.90499 7.33594 2.51925 7.60595L0.516644 9.00772C-0.172215 9.48991 -0.172214 10.5101 0.516645 10.9923L2.51925 12.3941C2.90499 12.6641 3.09929 13.1332 3.01746 13.5968L2.59261 16.0041C2.44647 16.8322 3.16785 17.5535 3.9959 17.4074L6.40316 16.9825C6.86685 16.9007 7.33594 17.095 7.60595 17.4808L9.00772 19.4834C9.48991 20.1722 10.5101 20.1722 10.9923 19.4834L12.3941 17.4808C12.6641 17.095 13.1332 16.9007 13.5968 16.9825L16.0041 17.4074C16.8322 17.5535 17.5535 16.8322 17.4074 16.0041L16.9825 13.5968C16.9007 13.1332 17.095 12.6641 17.4808 12.3941L19.4834 10.9923C20.1722 10.5101 20.1722 9.48991 19.4834 9.00772L17.4808 7.60595C17.095 7.33594 16.9007 6.86684 16.9825 6.40316L17.4074 3.9959C17.5535 3.16785 16.8322 2.44647 16.0041 2.59261L13.5968 3.01746ZM10 14.8449C12.6757 14.8449 14.8449 12.6757 14.8449 10C14.8449 7.32426 12.6757 5.15514 10 5.15514C7.32426 5.15514 5.15514 7.32426 5.15514 10C5.15514 12.6757 7.32426 14.8449 10 14.8449Z" fill="white"/>
</svg>
