<svg width="21" height="20" viewBox="0 0 21 20" fill="none" xmlns="http://www.w3.org/2000/svg">
<path fill-rule="evenodd" clip-rule="evenodd" d="M1 10V18H2.3724H3.7448L3.76025 14.5281C3.77521 11.1778 3.77883 11.0426 3.86372 10.6678C4.04682 9.85951 4.40849 9.32036 4.95842 9.036C5.92396 8.53667 7.03525 8.82805 7.38396 9.67191C7.57906 10.144 7.58985 10.3641 7.61092 14.3034L7.63075 18H8.98299H10.3352L10.3176 13.8764C10.3027 10.3883 10.29 9.69569 10.2351 9.38207C10.0176 8.13942 9.51151 7.38751 8.55989 6.89312C7.63775 6.41407 6.42213 6.36508 5.45396 6.76791C5.02602 6.94598 4.45181 7.36247 4.06644 7.77429L3.74905 8.11344V5.05672V2H2.37452H1V10ZM11.663 10V18H13.0167H14.3704L14.3716 15.0899C14.3732 11.3129 14.413 10.7416 14.726 10.01C15.1023 9.13011 16.0457 8.6373 16.9857 8.82966C17.482 8.93124 17.9159 9.29721 18.0713 9.7453C18.2248 10.188 18.244 10.7102 18.244 14.4252V18H19.622H21L20.981 13.9888C20.9683 11.2813 20.9464 9.86067 20.9137 9.61798C20.7305 8.25757 20.2043 7.4089 19.2278 6.89888C18.6387 6.59124 18.331 6.52373 17.5151 6.52324C16.8614 6.52288 16.7783 6.53231 16.4322 6.64607C15.7842 6.85915 15.249 7.2142 14.6724 7.81362L14.3704 8.12755V5.06378V2H13.0167H11.663V10Z" fill="#0A0620"/>
</svg>
