<svg width="20" height="20" viewBox="0 0 20 20" fill="none" xmlns="http://www.w3.org/2000/svg">
<path fill-rule="evenodd" clip-rule="evenodd" d="M5.73242 4.87549C5.73242 4.35772 6.15215 3.93799 6.66992 3.93799H18.125C18.6428 3.93799 19.0625 4.35772 19.0625 4.87549C19.0625 5.39326 18.6428 5.81299 18.125 5.81299H6.66992C6.15215 5.81299 5.73242 5.39326 5.73242 4.87549ZM5.73242 9.87549C5.73242 9.35772 6.15215 8.93799 6.66992 8.93799H18.125C18.6428 8.93799 19.0625 9.35772 19.0625 9.87549C19.0625 10.3933 18.6428 10.813 18.125 10.813H6.66992C6.15215 10.813 5.73242 10.3933 5.73242 9.87549Z" fill="#0A0620"/>
<path d="M5.73242 14.8755C5.73242 14.3577 6.15215 13.938 6.66992 13.938H18.125C18.6428 13.938 19.0625 14.3577 19.0625 14.8755C19.0625 15.3933 18.6428 15.813 18.125 15.813H6.66992C6.15215 15.813 5.73242 15.3933 5.73242 14.8755Z" fill="#0A0620"/>
<path d="M3.5 14.8755C3.5 15.4968 2.99632 16.0005 2.375 16.0005C1.75368 16.0005 1.25 15.4968 1.25 14.8755C1.25 14.2542 1.75368 13.7505 2.375 13.7505C2.99632 13.7505 3.5 14.2542 3.5 14.8755Z" fill="#0A0620"/>
<path d="M3.5 9.875C3.5 10.4963 2.99632 11 2.375 11C1.75368 11 1.25 10.4963 1.25 9.875C1.25 9.25368 1.75368 8.75 2.375 8.75C2.99632 8.75 3.5 9.25368 3.5 9.875Z" fill="#0A0620"/>
<path d="M3.5 4.875C3.5 5.49632 2.99632 6 2.375 6C1.75368 6 1.25 5.49632 1.25 4.875C1.25 4.25368 1.75368 3.75 2.375 3.75C2.99632 3.75 3.5 4.25368 3.5 4.875Z" fill="#0A0620"/>
</svg>
