<svg width="20" height="20" viewBox="0 0 20 20" fill="none" xmlns="http://www.w3.org/2000/svg">
<path d="M13.8128 12.3247L13.3891 12.7466C13.3891 12.7466 12.3804 13.7488 9.62812 11.0124C6.87587 8.27594 7.88457 7.27377 7.88457 7.27377L8.15094 7.00739C8.80943 6.35356 8.87184 5.30295 8.29717 4.53549L7.12362 2.96797C6.41204 2.01795 5.03825 1.89221 4.22329 2.70252L2.76101 4.15548C2.35772 4.55784 2.08762 5.07756 2.12021 5.65502C2.20404 7.13313 2.87277 10.312 6.60205 14.0207C10.5576 17.953 14.2692 18.1095 15.7865 17.9679C16.267 17.9232 16.6843 17.6792 17.0205 17.3439L18.3431 16.0288C19.2372 15.1412 18.9858 13.6184 17.842 12.9971L16.0631 12.0294C15.3124 11.6224 14.3996 11.7416 13.8128 12.3247Z" fill="#0A0620"/>
</svg>
