<svg width="20" height="20" viewBox="0 0 20 20" fill="none" xmlns="http://www.w3.org/2000/svg">
<path d="M15.9254 7.43979C14.5115 7.43979 12.0854 8.58594 12.0854 9.99979C12.0854 11.4136 14.5115 12.5598 15.9254 12.5598C17.3392 12.5598 18.4854 11.4136 18.4854 9.99979C18.4854 8.58594 17.3392 7.43979 15.9254 7.43979Z" fill="white"/>
<path d="M12.5601 15.9256C12.5601 14.5117 11.4139 12.0856 10.0001 12.0856C8.58622 12.0856 7.44007 14.5117 7.44007 15.9256C7.44007 17.3394 8.58622 18.4856 10.0001 18.4856C11.4139 18.4856 12.5601 17.3394 12.5601 15.9256Z" fill="white"/>
<path d="M4.07409 7.43962C5.48794 7.43962 7.91409 8.58577 7.91409 9.99962C7.91409 11.4135 5.48794 12.5596 4.07409 12.5596C2.66025 12.5596 1.5141 11.4135 1.5141 9.99962C1.5141 8.58577 2.66025 7.43962 4.07409 7.43962Z" fill="white"/>
<path d="M12.5596 4.07408C12.5596 5.48793 11.4135 7.91408 9.99964 7.91408C8.58579 7.91408 7.43964 5.48793 7.43964 4.07408C7.43964 2.66023 8.58579 1.51408 9.99964 1.51408C11.4135 1.51408 12.5596 2.66023 12.5596 4.07408Z" fill="white"/>
</svg>
