<svg width="10" height="10" viewBox="0 0 10 10" fill="none" xmlns="http://www.w3.org/2000/svg">
<path d="M4.83139 1.14257C4.86427 0.952478 5.13573 0.952478 5.16861 1.14257L5.39069 2.42652C5.41712 2.57935 5.61542 2.62172 5.7014 2.49291L6.42378 1.41076C6.53073 1.25055 6.77872 1.36155 6.73184 1.54864L6.41522 2.81239C6.37754 2.96282 6.54155 3.0826 6.67221 3.00009L7.76999 2.30686C7.93251 2.20423 8.11415 2.40702 7.99563 2.55878L7.19505 3.58382C7.09976 3.70582 7.20113 3.88232 7.35388 3.86036L8.63724 3.67592C8.82724 3.64861 8.91112 3.90814 8.74144 3.99832L7.59534 4.6074C7.45892 4.67989 7.48011 4.88257 7.62854 4.92498L8.87557 5.28121C9.0602 5.33395 9.03182 5.60534 8.84032 5.61834L7.54687 5.70615C7.39291 5.7166 7.33026 5.91043 7.44871 6.00985L8.44379 6.84516C8.59111 6.96883 8.45538 7.20516 8.27518 7.13874L7.05802 6.6901C6.91314 6.6367 6.77749 6.78814 6.84547 6.9274L7.41654 8.09736C7.50109 8.27057 7.28148 8.43097 7.14373 8.29661L6.21332 7.3891C6.10258 7.28108 5.91737 7.36397 5.92313 7.51898L5.97145 8.82129C5.97861 9.0141 5.71308 9.07083 5.64161 8.89177L5.15883 7.68229C5.10137 7.53833 4.89863 7.53833 4.84117 7.68229L4.35839 8.89177C4.28692 9.07083 4.02139 9.0141 4.02854 8.82129L4.07687 7.51898C4.08263 7.36397 3.89742 7.28108 3.78668 7.3891L2.85627 8.29661C2.71852 8.43097 2.49891 8.27057 2.58346 8.09736L3.15453 6.9274C3.22251 6.78815 3.08686 6.6367 2.94198 6.6901L1.72482 7.13874C1.54462 7.20516 1.40889 6.96883 1.55621 6.84516L2.55129 6.00985C2.66974 5.91043 2.60709 5.7166 2.45313 5.70615L1.15967 5.61834C0.968178 5.60534 0.939803 5.33395 1.12443 5.28121L2.37146 4.92498C2.51989 4.88257 2.54108 4.67989 2.40466 4.6074L1.25856 3.99832C1.08888 3.90814 1.17276 3.64861 1.36276 3.67592L2.64612 3.86036C2.79887 3.88232 2.90024 3.70582 2.80495 3.58382L2.00437 2.55878C1.88585 2.40702 2.06749 2.20423 2.23001 2.30686L3.32779 3.00009C3.45845 3.0826 3.62246 2.96282 3.58478 2.81239L3.26816 1.54864C3.22128 1.36155 3.46927 1.25055 3.57622 1.41077L4.2986 2.49291C4.38458 2.62172 4.58288 2.57935 4.60931 2.42652L4.83139 1.14257Z" fill="#0A0620"/>
</svg>
