<svg width="10" height="10" viewBox="0 0 10 10" fill="none" xmlns="http://www.w3.org/2000/svg">
<path d="M4.82994 1.11369C4.87773 0.941229 5.12227 0.941229 5.17006 1.11369L5.72055 3.10019C5.75292 3.217 5.89071 3.26715 5.99059 3.19848L7.68919 2.03058C7.83666 1.92918 8.02399 2.08637 7.94974 2.2492L7.09454 4.1248C7.04425 4.23509 7.11757 4.36208 7.23823 4.37367L9.29014 4.57085C9.46828 4.58796 9.51075 4.82879 9.34921 4.9058L7.48847 5.79288C7.37906 5.84504 7.35359 5.98945 7.43857 6.07589L8.88369 7.54588C9.00915 7.6735 8.88688 7.88527 8.71363 7.84043L6.71802 7.32392C6.60067 7.29355 6.48835 7.3878 6.49788 7.50864L6.66001 9.56362C6.67409 9.74202 6.44429 9.82566 6.3404 9.67995L5.14369 8.00153C5.07332 7.90283 4.92668 7.90283 4.85631 8.00153L3.6596 9.67995C3.55571 9.82566 3.32591 9.74202 3.33999 9.56362L3.50212 7.50864C3.51166 7.3878 3.39933 7.29355 3.28198 7.32392L1.28637 7.84043C1.11312 7.88527 0.990853 7.6735 1.11631 7.54588L2.56143 6.07589C2.64641 5.98945 2.62094 5.84504 2.51153 5.79288L0.650795 4.9058C0.489255 4.82879 0.531719 4.58796 0.709857 4.57085L2.76177 4.37367C2.88243 4.36208 2.95575 4.23509 2.90546 4.1248L2.05026 2.2492C1.97601 2.08637 2.16334 1.92918 2.31081 2.03058L4.00941 3.19848C4.10929 3.26715 4.24708 3.217 4.27945 3.10019L4.82994 1.11369Z" fill="#fff"/>
</svg>
