<svg width="18" height="18" viewBox="0 0 18 18" fill="none" xmlns="http://www.w3.org/2000/svg">
<path fill-rule="evenodd" clip-rule="evenodd" d="M6.48886 9.00026L0.332031 7.35055L0.668496 6.09484L6.82839 7.74538L2.3201 3.23709L3.23933 2.31785L7.74374 6.82225L6.09484 0.668496L7.35055 0.332031L9.00026 6.48886L10.65 0.332031L11.9057 0.668496L10.2554 6.8274L14.765 2.31785L15.6842 3.23709L11.1773 7.744L17.332 6.09484L17.6685 7.35055L11.5117 9.00026L17.6685 10.65L17.332 11.9057L11.1783 10.2568L15.6842 14.7627L14.765 15.6819L10.2551 11.1721L11.9057 17.332L10.65 17.6685L9.00026 11.5117L7.35055 17.6685L6.09484 17.332L7.744 11.1773L3.23933 15.6819L2.3201 14.7627L6.8274 10.2554L0.668496 11.9057L0.332031 10.65L6.48886 9.00026Z" fill="white"/>
</svg>
