<svg width="35" height="34" viewBox="0 0 35 34" fill="none" xmlns="http://www.w3.org/2000/svg">
<path d="M16.4974 3.88463C16.6092 3.23833 17.5322 3.23833 17.644 3.88463L18.399 8.25007C18.4889 8.76968 19.1631 8.91374 19.4555 8.4758L21.9116 4.7965C22.2752 4.25178 23.1184 4.62916 22.959 5.26529L21.8825 9.56204C21.7543 10.0735 22.312 10.4808 22.7562 10.2002L26.4887 7.84324C27.0412 7.49428 27.6588 8.18378 27.2558 8.69976L24.5339 12.1849C24.2099 12.5997 24.5545 13.1998 25.0739 13.1251L29.4373 12.498C30.0833 12.4052 30.3685 13.2876 29.7916 13.5942L25.8949 15.6651C25.431 15.9115 25.5031 16.6007 26.0078 16.7448L30.2477 17.956C30.8754 18.1353 30.7789 19.0581 30.1278 19.1023L25.7301 19.4008C25.2066 19.4364 24.9936 20.0954 25.3963 20.4334L28.7796 23.2735C29.2805 23.6939 28.819 24.4974 28.2063 24.2716L24.068 22.7462C23.5754 22.5647 23.1142 23.0796 23.3453 23.5531L25.287 27.5309C25.5744 28.1199 24.8277 28.6652 24.3594 28.2084L21.196 25.1228C20.8195 24.7556 20.1898 25.0374 20.2093 25.5644L20.3736 29.9923C20.398 30.6478 19.4952 30.8407 19.2522 30.2319L17.6107 26.1197C17.4153 25.6302 16.7261 25.6302 16.5307 26.1197L14.8892 30.2319C14.6462 30.8407 13.7434 30.6478 13.7678 29.9923L13.9321 25.5644C13.9516 25.0374 13.3219 24.7556 12.9454 25.1228L9.78202 28.2084C9.31368 28.6652 8.56699 28.1199 8.85445 27.5309L10.7961 23.5531C11.0272 23.0796 10.566 22.5647 10.0734 22.7462L5.93509 24.2716C5.3224 24.4974 4.86092 23.6939 5.36182 23.2735L8.7451 20.4334C9.1478 20.0954 8.9348 19.4364 8.41135 19.4008L4.0136 19.1023C3.36251 19.0581 3.26603 18.1353 3.89375 17.956L8.13365 16.7448C8.63832 16.6007 8.71037 15.9115 8.24655 15.6651L4.3498 13.5942C3.77289 13.2876 4.0581 12.4052 4.7041 12.498L9.0675 13.1251C9.58687 13.1998 9.93151 12.5997 9.60752 12.1849L6.88557 8.69976C6.48258 8.18378 7.10016 7.49428 7.65275 7.84323L11.3852 10.2002C11.8294 10.4808 12.3871 10.0735 12.2589 9.56204L11.1824 5.26529C11.0231 4.62916 11.8662 4.25178 12.2298 4.7965L14.6859 8.4758C14.9783 8.91374 15.6525 8.76968 15.7424 8.25007L16.4974 3.88463Z" fill="white"/>
</svg>
