<svg width="14" height="15" viewBox="0 0 14 15" fill="none" xmlns="http://www.w3.org/2000/svg">
<path fill-rule="evenodd" clip-rule="evenodd" d="M1.24972 7.14025C4.31095 5.81081 6.34885 4.92743 7.37217 4.49885C10.2847 3.28311 10.897 3.0732 11.2905 3.06445C11.378 3.06445 11.5704 3.08195 11.7016 3.1869C11.8066 3.27437 11.8328 3.38807 11.8503 3.47553C11.8678 3.563 11.8853 3.74667 11.8678 3.88661C11.7104 5.54842 11.0282 9.58048 10.6783 11.4347C10.5296 12.2219 10.241 12.4843 9.96109 12.5105C9.34885 12.563 8.88529 12.1082 8.29929 11.7233C7.37217 11.1198 6.85614 10.7437 5.95526 10.149C4.91445 9.46678 5.58792 9.09069 6.18267 8.47844C6.3401 8.32101 9.02523 5.87203 9.07771 5.65337C9.08646 5.62713 9.08646 5.52218 9.02523 5.4697C8.96401 5.41722 8.87655 5.43471 8.80657 5.45221C8.71037 5.4697 7.24098 6.44929 4.38092 8.38223C3.96109 8.67086 3.585 8.81081 3.24389 8.80206C2.8678 8.79331 2.1506 8.59215 1.60832 8.41722C0.952348 8.20731 0.427567 8.0936 0.471298 7.72626C0.497538 7.53384 0.759928 7.34142 1.24972 7.14025Z" fill="#2780E5"/>
</svg>
