<svg width="20" height="20" viewBox="0 0 20 20" fill="none" xmlns="http://www.w3.org/2000/svg">
<path fill-rule="evenodd" clip-rule="evenodd" d="M1.5 10.5667C1.5 13.3833 3.78335 15.6667 6.6 15.6667C6.62834 15.6667 6.65663 15.6664 6.68487 15.666L8.05868 15.6667V17.8481C8.05868 18.2081 8.35054 18.5 8.71056 18.5C9.07059 18.5 9.36245 18.2081 9.36245 17.8481V15.6667V12.0212L6.37031 9.0291C6.199 8.85778 6.16662 8.59171 6.29186 8.3843C6.46869 8.09145 6.87341 8.0422 7.11531 8.28411L9.36245 10.5312V6.05151C9.36245 5.72875 9.6241 5.46711 9.94685 5.46711C10.2696 5.46711 10.5312 5.72875 10.5312 6.05151V12.2246L12.7761 9.97976C13.019 9.73688 13.4254 9.78674 13.6024 10.0811C13.7274 10.289 13.6947 10.5553 13.5232 10.7268L10.5312 13.7188V15.6667H13.4C16.2167 15.6667 18.5 13.3833 18.5 10.5667C18.5 8.31867 17.0456 6.41037 15.0263 5.73147C14.6141 3.32854 12.5206 1.5 10 1.5C7.47943 1.5 5.38594 3.32854 4.97366 5.73147C2.95445 6.41037 1.5 8.31867 1.5 10.5667Z" fill="#0A0620"/>
</svg>
