<svg width="22" height="22" viewBox="0 0 22 22" fill="none" xmlns="http://www.w3.org/2000/svg">
<path fill-rule="evenodd" clip-rule="evenodd" d="M11.0376 18.339H11.0346C9.69798 18.3385 8.38694 17.9811 7.24328 17.3056L6.97122 17.145L4.15186 17.881L4.90439 15.1453L4.72727 14.8647C3.98164 13.6844 3.58775 12.3202 3.58835 10.9193C3.58999 6.83186 6.93164 3.50644 11.0407 3.50644C13.0302 3.50712 14.9006 4.27922 16.307 5.68062C17.7134 7.08193 18.4874 8.9445 18.4867 10.9254C18.485 15.0132 15.1434 18.339 11.0376 18.339ZM13.5935 12.0615C13.7988 12.1359 14.8997 12.6751 15.1236 12.7865C15.3476 12.8982 15.4968 12.954 15.5528 13.0468C15.6088 13.1398 15.6088 13.586 15.4222 14.1067C15.2356 14.6272 14.3409 15.1024 13.9106 15.1664C13.5248 15.2238 13.0367 15.2478 12.5002 15.0781C12.1749 14.9753 11.7577 14.8383 11.2235 14.6086C8.97718 13.6432 7.50999 11.3921 7.39806 11.2434L7.39616 11.2409C7.2773 11.083 6.48368 10.0289 6.48368 8.9379C6.48368 7.8409 7.06219 7.30171 7.26742 7.07858C7.47273 6.85546 7.7153 6.79967 7.86456 6.79967C8.01391 6.79967 8.16335 6.80113 8.29381 6.80757C8.43126 6.81443 8.61588 6.75565 8.79765 7.19014C8.98425 7.63639 9.43213 8.73339 9.48809 8.84504C9.54414 8.95652 9.58148 9.0867 9.5068 9.23543C9.43213 9.38415 9.39488 9.47717 9.28287 9.60727C9.17085 9.73737 9.04763 9.89785 8.94692 9.99774C8.83473 10.1089 8.71806 10.2294 8.8487 10.4526C8.97934 10.6758 9.42877 11.4056 10.0945 11.9965C10.9499 12.7558 11.6713 12.9912 11.8954 13.1027C12.1192 13.2143 12.2499 13.1956 12.3805 13.047C12.5111 12.8982 12.9404 12.3962 13.0896 12.1731C13.2389 11.95 13.3883 11.9872 13.5935 12.0615Z" fill="#0A0620"/>
<path fill-rule="evenodd" clip-rule="evenodd" d="M11.0376 2C13.435 2.00103 15.6852 2.92992 17.3773 4.61588C19.0694 6.30176 20.0009 8.54271 20 10.9259C19.9979 15.8438 15.977 19.8454 11.0376 19.8454H11.0339C9.66673 19.8449 8.32124 19.5336 7.10246 18.9404C6.87417 18.8293 6.61439 18.7954 6.36873 18.8595L3.17341 19.6937C2.65196 19.8298 2.17872 19.3503 2.32166 18.8307L3.16027 15.7822C3.23139 15.5237 3.19322 15.2486 3.06981 15.0106C2.41656 13.7503 2.07456 12.3502 2.07511 10.9189C2.07709 6.00106 6.09763 2 11.0376 2ZM11.0346 18.339H11.0376C15.1434 18.339 18.485 15.0132 18.4867 10.9254C18.4874 8.9445 17.7134 7.08193 16.307 5.68062C14.9006 4.27922 13.0302 3.50712 11.0407 3.50644C6.93164 3.50644 3.58999 6.83186 3.58835 10.9193C3.58775 12.3202 3.98164 13.6844 4.72727 14.8647L4.90439 15.1453L4.15186 17.881L6.97122 17.145L7.24328 17.3056C8.38694 17.9811 9.69798 18.3385 11.0346 18.339Z" fill="#0A0620"/>
</svg>
