<svg width="20" height="20" viewBox="0 0 20 20" fill="none" xmlns="http://www.w3.org/2000/svg">
<path d="M10 1C8.21997 1 6.47991 1.52784 4.99987 2.51677C3.51983 3.50571 2.36628 4.91131 1.68509 6.55585C1.0039 8.20038 0.82567 10.01 1.17294 11.7558C1.5202 13.5016 2.37737 15.1053 3.63604 16.364C4.89471 17.6226 6.49836 18.4798 8.24419 18.8271C9.99002 19.1743 11.7996 18.9961 13.4442 18.3149C15.0887 17.6337 16.4943 16.4802 17.4832 15.0001C18.4722 13.5201 19 11.78 19 10C19 7.61305 18.0518 5.32387 16.364 3.63604C14.6761 1.94821 12.3869 1 10 1ZM17.025 13.5012C16.9347 13.6721 16.7548 13.7744 16.5616 13.7744H14.8375C14.4677 14.9322 13.9279 16.0283 13.236 17.0269C13.1802 17.1073 13.1026 17.1705 13.012 17.2078C12.5336 17.4049 12.1778 16.8283 12.4706 16.4016C13.0302 15.5864 13.4823 14.6996 13.8138 13.7631H10.4838V17.3097C10.4838 17.5722 10.2709 17.785 10.0084 17.785C9.74593 17.785 9.53313 17.5722 9.53313 17.3097V13.7744H6.18625C6.52127 14.7234 6.98007 15.6214 7.54907 16.4459C7.83643 16.8623 7.48823 17.4263 7.01999 17.2347C6.93061 17.1982 6.85401 17.1359 6.79918 17.0564C6.10418 16.0488 5.5638 14.9425 5.19625 13.7744H3.45253C3.25134 13.7744 3.06472 13.6653 2.97546 13.485C2.80485 13.1404 3.06958 12.7562 3.45411 12.7562H4.90938C4.69855 11.8525 4.58912 10.928 4.58313 10C4.58393 9.13981 4.67442 8.28205 4.85313 7.44062H3.31953C2.94311 7.44062 2.67896 7.07048 2.83408 6.72752C2.91953 6.53858 3.11076 6.4225 3.31812 6.4225H5.12313C5.51168 5.12984 6.10623 3.90868 6.88357 2.80598C6.9384 2.72821 7.01466 2.66783 7.10326 2.63314C7.5621 2.45346 7.89628 3.00641 7.61228 3.40911C6.96618 4.32528 6.45826 5.33483 6.1075 6.40562H9.53313V2.60031C9.53313 2.3378 9.74593 2.125 10.0084 2.125C10.2709 2.125 10.4838 2.3378 10.4838 2.60031V6.4225H13.9094C13.5583 5.35044 13.0496 4.33974 12.4025 3.42266C12.1163 3.01714 12.4486 2.45846 12.9133 2.63295C13.0057 2.66767 13.0853 2.72983 13.1423 2.81052C13.9133 3.9038 14.5047 5.11367 14.8938 6.39437H16.6763C16.8836 6.39437 17.0748 6.51046 17.1603 6.69939C17.3154 7.04236 17.0513 7.4125 16.6749 7.4125H15.1581C15.3407 8.26292 15.4331 9.13021 15.4338 10C15.4309 10.9335 15.3233 11.8636 15.1131 12.7731H16.5599C16.944 12.7731 17.2043 13.1616 17.025 13.5012Z" fill="#0A0620"/>
<path d="M10.4783 7.44084V12.7733H14.1233C14.3611 11.8677 14.4876 10.9365 14.5002 10.0002C14.4981 9.13887 14.4 8.28045 14.2077 7.44084H10.4783Z" fill="#0A0620"/>
<path d="M5.52856 10.0002C5.53194 10.9353 5.64905 11.8665 5.87731 12.7733H9.52231V7.44084H5.82669C5.63247 8.28023 5.53248 9.13866 5.52856 10.0002Z" fill="#0A0620"/>
</svg>
