<svg width="20" height="20" viewBox="0 0 20 20" fill="none" xmlns="http://www.w3.org/2000/svg">
<path fill-rule="evenodd" clip-rule="evenodd" d="M17.8136 3.42313C18.6746 3.65636 19.3513 4.34104 19.5818 5.21229C19.9983 6.78988 20 10.0833 20 10.0833C20 10.0833 20 13.3768 19.5818 14.9544C19.3513 15.8257 18.6746 16.5103 17.8136 16.7435C16.2545 17.1667 9.99996 17.1667 9.99996 17.1667C9.99996 17.1667 3.74547 17.1667 2.18636 16.7435C1.32532 16.5103 0.648666 15.8257 0.418176 14.9544C1.19209e-07 13.3768 0 10.0833 0 10.0833C0 10.0833 1.19209e-07 6.78988 0.418176 5.21229C0.648666 4.34104 1.32532 3.65636 2.18636 3.42313C3.74547 3 9.99996 3 9.99996 3C9.99996 3 16.2545 3 17.8136 3.42313ZM13.194 10.0821L7.99805 13.1173V7.04688L13.194 10.0821Z" fill="white"/>
</svg>
