<svg width="245" height="76" viewBox="0 0 245 76" fill="none" xmlns="http://www.w3.org/2000/svg">
<g filter="url(#filter0_b_2161_8610)">
<g clip-path="url(#clip0_2161_8610)">
<path fill-rule="evenodd" clip-rule="evenodd" d="M220.326 32.8109C219.182 31.4728 217.769 30.8734 216.236 30.8734C215.894 30.8734 215.671 30.861 215.215 30.9909C213.854 31.4052 212.973 32.0636 212.118 33.2133C211.211 34.4404 210.901 35.9038 210.84 37.1371C210.769 38.5344 210.79 39.9228 211.251 41.1668C211.744 42.576 212.586 43.7053 213.545 44.3733C214.214 44.8406 215.588 45.0979 216.415 45.0979C217.046 45.0979 218.059 45.0979 218.87 44.6888C219.477 44.3829 220.075 43.8182 220.516 43.2289C220.875 42.698 221.492 41.6036 221.542 40.23C221.552 39.994 221.473 39.8097 221.304 39.6496C221.634 39.2901 221.797 38.8592 221.797 38.3622C221.797 38.1009 221.736 37.7221 221.618 37.2176L221.614 37.2002C221.512 36.7089 221.437 36.3447 221.437 36.1124C221.437 35.8963 221.584 35.7125 221.542 35.5495C221.272 34.4797 220.798 33.3623 220.326 32.8109ZM219.363 41.3903C219.879 40.4965 219.984 38.8703 219.984 37.8555C219.984 36.8387 219.809 36.0174 219.333 35.9356C219.497 35.8436 219.633 35.6579 219.651 35.5095C219.664 35.3726 219.681 35.154 219.622 34.9407C219.511 34.5383 219.433 34.4516 219.079 34.1287C218.667 33.7543 218.401 33.8025 218.126 33.2627C218.126 33.2627 217.658 32.421 216.177 32.5898C213.873 32.9695 212.654 35.3013 212.969 38.4953C213.281 38.6278 213.344 38.8402 213.344 39.1003C213.344 39.2015 213.286 39.4082 213.196 39.6488C213.105 39.8895 213.127 40.2352 213.137 40.3496C213.204 40.584 213.238 40.9498 213.541 41.0912C214.084 41.3446 214.408 41.8667 214.467 42.1307C214.542 42.4668 214.944 42.9017 215.277 43.0054C215.418 43.0676 215.928 43.051 216.483 43.0586C216.939 43.0913 217.189 43.0866 217.416 43.4421C217.495 43.0968 218.529 42.834 219.363 41.3903Z" fill="#0A0620"/>
<path d="M191.076 40.6386C191.135 42.8872 189.601 43.9988 188.916 44.3584C188.23 44.7181 187.471 45.0581 186.672 45.0581C186.078 45.0581 185.359 44.9486 184.707 44.6821C181.896 43.5351 181.407 40.147 181.368 39.7597C181.334 39.4076 181.192 38.2592 181.192 37.9264C181.192 37.2328 181.325 35.3727 181.961 34.0319C182.597 32.691 184.497 31.0333 185.92 30.9251C187.342 30.8169 187.374 30.9468 187.646 31.2323C188.111 30.8872 188.985 31.6326 189.322 31.6326C189.666 31.6326 189.996 31.5559 190.318 31.3888C190.826 32.3513 191.076 33.3134 191.076 34.6566C191.076 35.4137 190.988 36.2804 190.826 36.8955C190.411 36.9017 189.71 36.8088 189.426 36.3783C189.054 35.8368 189.198 35.4665 188.94 35.3528C189.264 35.1807 189.205 34.7788 189.205 34.5676C189.205 34.4483 189.221 34.3523 188.955 34.025C188.684 33.6926 188.991 33.4216 189.018 33.2142C188.46 33.174 188.329 32.7873 187.642 32.8932C186.953 32.9991 186.827 32.6588 186.455 32.5437C186.101 32.9738 186.043 32.5874 185.174 33.1532C184.305 33.7191 183.66 34.6908 183.558 35.4018C183.406 36.4574 183.108 36.9023 183.108 36.9023C183.108 36.9023 183.326 37.1728 183.255 37.772C183.17 38.4992 183.238 39.102 183.598 39.3067C183.419 39.3702 183.406 39.9085 183.439 40.1418C183.49 40.4946 183.585 40.6993 183.846 41.2613L183.873 41.3201C184.085 41.8641 184.697 42.5597 185.332 42.8438C185.923 43.1078 186.993 43.3264 188.328 42.429C188.669 42.1997 189.075 41.7181 189.097 41.3545C189.117 41.056 189.357 41.2013 189.256 41.0391C189.142 40.8802 189.295 40.4164 189.511 40.1944C189.762 39.9354 190.078 39.7729 190.476 39.91C190.876 40.047 191.076 40.3572 191.076 40.6386Z" fill="#0A0620"/>
<path d="M161.639 43.5905C161.639 44.4477 161.185 45.0348 159.038 44.9646C155.881 44.8614 152.838 44.3614 152.393 44.9839C151.833 44.6052 151.198 44.9622 150.936 45.0572C150.479 44.9937 150.132 44.9809 150.132 44.5456C150.132 44.2836 150.202 44.009 150.336 43.7099C150.475 43.448 150.986 43.1759 151.803 42.9139C152.529 42.6626 152.831 42.5261 152.867 41.6646C152.889 41.1691 152.882 33.702 152.867 33.2133C152.854 32.7245 152.479 32.5213 152.123 32.5466C151.454 32.9683 150.384 32.7257 150.406 31.9074C150.365 31.3239 150.732 30.9908 151.397 30.8733L155.932 30.873C157.243 30.873 157.817 31.327 157.817 31.327C157.817 31.327 157.212 32.2394 156.219 32.4819C155.47 32.6647 154.78 33.335 154.78 33.8126C154.78 34.079 154.732 35.1694 154.748 35.1555C154.976 35.3798 155.154 35.8137 154.957 36.1996C154.622 37.1139 154.618 38.1461 154.957 38.5969C155.229 39.1213 154.76 39.7345 154.76 39.7345C154.771 39.7886 155.118 40.7483 154.859 41.3598C154.683 41.7749 154.967 42.3921 155.371 42.7616C155.724 43.1147 158.263 43.0418 158.781 43.0053C159.364 42.9299 159.491 42.5501 159.611 42.1148C159.342 41.964 159.471 41.2531 159.471 41.0144C159.471 40.8887 159.619 40.4654 159.619 40.3145C159.619 40.133 159.614 39.7744 159.472 39.6417C159.394 39.5689 159.405 39.4325 159.486 39.3621C159.988 38.9226 161.018 38.8797 161.306 39.2292C161.639 39.6329 161.502 40.6894 161.386 41.1522C161.211 41.8526 161.738 41.8677 161.246 42.599C161.376 42.8856 161.639 42.7334 161.639 43.5905Z" fill="#0A0620"/>
<path d="M129.259 44.5907C129.259 44.5907 128.816 44.1882 128.352 44.4689C127.878 44.7547 127.367 44.6577 127.09 44.347C126.932 44.9654 121.709 44.6965 121.196 44.6965C120.501 44.6965 120.155 44.1499 120.374 43.3511C120.481 42.9604 120.813 42.6358 121.204 42.6098C121.886 42.5643 122.13 42.7649 122.205 42.9074C122.429 42.8013 122.438 42.6811 122.933 42.619C123.3 42.573 123.857 42.6404 124.133 42.3763C124.409 42.1122 124.36 41.0687 124.36 40.2475C124.221 39.8979 124.104 39.4865 124.323 38.5571C124.148 38.3285 124.177 38.0847 124.305 37.8665C124.548 37.4538 124.315 37.1564 124.309 36.8812C124.307 36.7524 123.955 33.9657 124.528 33.2953C124.074 32.8077 123.796 32.8657 123.108 32.7671C122.527 32.7049 121.951 32.7273 121.386 32.6595C120.777 32.5469 120.92 31.5076 120.92 31.5076C120.92 31.5076 122.707 31.0366 124.325 31.0366L124.924 31.0366L129.156 31.0366C129.653 31.0365 129.935 31.2548 129.931 31.6554C129.929 32.0561 129.588 32.4766 128.89 32.6073C128.279 32.6513 127.642 32.7015 127.004 32.7373C126.32 32.8397 126.183 33.4687 126.183 33.8438C126.183 34.1422 126.242 34.5143 126.512 34.6856C126.223 34.9206 126.278 35.8252 126.278 36.4862C126.278 36.7409 126.201 38.3512 126.292 39.3798C126.662 41.0253 126.479 41.8888 126.282 42.3561C126.518 42.6201 128.709 42.683 129.348 42.7377C130.004 42.7992 130.225 43.0941 130.225 43.4063C130.225 43.6828 129.259 44.5907 129.259 44.5907Z" fill="#0A0620"/>
<path d="M96.1681 45.3225C97.2002 44.6969 99.7693 45.0362 99.9497 44.9349C100.313 44.7302 100.531 43.5448 99.7083 43.336C99.7083 43.336 97.9591 43.4571 97.8702 42.8274C97.8629 42.7159 97.8622 41.2309 97.8629 40.0028C97.8642 38.982 97.963 36.8847 97.9624 36.3866C97.9604 35.7053 97.7063 35.3099 97.9425 34.7614C97.7455 34.6395 97.9929 33.0188 98.1275 32.7464C98.359 32.2783 98.8977 32.2712 99.2705 32.1173C99.6399 31.9483 100.027 31.6076 99.6207 31.2737C99.2187 30.9438 98.9746 31.4266 98.4831 31.057C98.1892 31.0747 97.3979 31.2844 96.2934 31.1828C95.4888 31.1088 95.4132 31.8003 95.2062 32.1458C94.9814 32.482 94.8739 33.0795 94.8739 33.2347C94.8739 33.3635 94.9124 33.4904 94.9535 33.6613C94.653 33.9135 94.5449 34.3792 94.322 34.7787C94.0354 35.2919 93.7038 35.8533 93.4749 36.3024C93.3071 36.6301 93.2607 36.8269 93.0802 36.8153C92.9383 36.8062 92.5648 36.3941 92.2723 35.7132C91.9134 34.8784 90.9715 32.2392 90.9715 32.2392C90.9715 32.2392 90.7559 31.4365 90.2617 31.2844C89.7583 31.1286 88.8031 30.7562 87.1471 31.3454C86.6222 31.5321 85.6628 31.3327 85.6469 31.7313C85.6262 32.2552 86.8119 32.6659 87.1471 32.5033C87.2455 33.2754 87.722 33.1907 87.7877 33.5597C87.8534 33.9288 87.8211 34.0139 87.6724 34.191C87.9003 34.558 87.6479 37.8551 87.6679 38.1448C87.6891 38.466 87.9068 38.6881 87.9068 38.6881C87.9068 38.8684 87.8211 38.9632 87.6724 39.0996C87.8211 39.322 87.7902 42.2557 87.6396 42.7018C87.5392 43.0535 87.3685 43.4289 87.121 43.4331C86.2206 43.4483 85.1888 43.6465 85.1945 44.1848C85.1724 44.4984 85.4875 45.3128 85.4912 45.3225L88.0665 45.0713C88.0665 45.0713 89.4021 45.0718 90.1821 45.0713C90.9635 45.0708 91.3755 43.9764 91.3755 43.9764C91.3755 43.9764 89.7795 43.7548 89.6137 43.3113C89.4365 42.8695 89.6952 42.5189 89.3623 42.0999C89.5248 41.7647 89.5772 41.5698 89.5546 41.14C89.5321 40.7102 89.4166 40.4015 89.3457 40.172C89.6727 39.3192 89.4797 37.9731 89.4074 37.0973C89.3682 36.624 89.4803 34.6269 90.005 34.4943C90.0296 34.7858 90.4044 36.7028 90.8209 37.1552C91.2229 37.6062 91.0697 38.5269 91.4027 38.8766C91.5028 38.9786 91.8239 39.1669 91.8239 39.3954C91.8239 39.7167 92.1774 40.2265 92.7698 40.2639C93.0438 40.2811 93.1983 40.3705 93.5386 39.4259C93.8252 38.6292 94.5588 38.1049 94.5588 37.6431C94.5588 37.1099 95.1744 36.2335 95.3999 35.822C95.6254 35.4104 95.784 35.3577 95.904 35.3577C96.2934 35.3577 95.6971 37.4298 96.174 37.7231C95.8749 38.7944 95.9193 41.1628 96.1866 41.6328C96.2802 41.8591 96.1787 42.1807 95.9843 42.2649C96.1787 42.5118 96.1866 42.6003 96.1866 42.7549C96.1866 43.0137 95.8735 43.2285 95.2374 43.395C94.5953 43.5647 94.194 43.8083 94.194 44.1746C94.194 44.3203 94.0958 44.7231 94.4215 44.9349C94.586 45.0419 95.4656 44.6969 96.1681 45.3225Z" fill="#0A0620"/>
<path fill-rule="evenodd" clip-rule="evenodd" d="M65.9752 43.6464C65.916 43.2349 65.6195 43.4245 65.2285 43.2095C64.6372 42.8845 64.4375 43.0826 64.2823 42.9606C64.1272 42.8387 64.0297 42.3818 63.9054 42.2293C63.781 42.0768 63.6023 42.0414 63.4898 41.6714C63.29 41.0137 62.2505 37.1215 62.1731 36.607V36.3531C62.1731 36.0717 62.1585 35.4603 61.8775 34.9614C61.6111 34.4645 61.6246 33.9453 61.6246 33.7448C61.6246 33.4999 61.6261 33.3235 61.7 33.194C61.3526 33.0644 61.2123 32.284 61.1875 32.1578C61.0619 31.4875 61.0151 31.0363 61.0151 31.0363C61.0151 31.0363 60.4931 30.8687 59.877 30.8687C59.8138 30.8687 59.7498 30.8704 59.6852 30.8743C58.9897 30.9161 58.6555 31.5551 58.6792 31.9141C58.6945 32.1472 58.7818 32.4394 58.9142 32.5499C58.6191 32.6442 58.5006 32.8917 58.4537 33.2189C58.4427 33.4835 58.4232 33.7599 58.3928 34.0445C58.3379 34.3103 56.2035 41.4374 55.9 42.1114C55.5967 42.7855 55.3058 42.7849 54.7096 42.9325C54.0249 43.0984 53.8693 43.0663 53.7191 43.3035C53.3865 43.8292 53.6574 44.5788 54.0802 44.4131C54.2923 44.3299 54.7174 44.4129 54.8386 44.5785C54.9214 44.6916 55.06 44.7339 55.1967 44.7189C55.8617 44.6456 57.018 44.7057 58.694 44.4539C58.9818 44.4105 58.9438 43.778 58.8966 43.532C58.8494 43.286 58.6359 43.1192 58.3244 43.0673C57.8152 42.981 57.4448 42.9454 57.3708 42.7702C57.2968 42.595 57.7696 41.996 57.415 41.6288C57.5901 41.5665 57.8883 40.5609 57.8883 40.5609C57.8883 40.5609 59.8883 40.6165 60.0024 40.6142C60.7564 40.5989 60.8593 40.5301 60.9412 40.3654C61.2818 40.4367 61.3215 40.4592 61.503 40.6497C61.6525 40.8068 61.838 41.0764 61.9736 41.7341C62.0886 42.2926 62.2079 42.9376 62.2323 43.1892C62.2089 42.9483 61.4959 42.795 61.1348 42.8031C60.5257 42.817 60.345 43.441 60.345 43.441C60.345 43.441 60.6928 44.7512 61.838 44.5503C63.691 44.2253 64.4278 44.5947 65.2733 44.393C65.9754 44.2253 65.9873 43.7309 65.9752 43.6464ZM60.2166 39.0452C60.8455 39.0498 61.0027 39.0947 61.1284 38.9027C61.1866 38.7646 60.8347 37.3075 60.5371 36.0178C60.307 35.0209 59.9276 33.3222 59.9276 33.3222C59.6355 33.4277 59.5908 33.6912 59.5908 34.1894C59.5908 34.3 59.4529 35.1231 59.4529 35.2255C59.4529 35.5723 59.1973 35.8068 58.9585 35.9381C59.1973 36.1655 58.8935 38.0011 58.5831 38.5039C58.3606 38.8642 58.3244 39.0203 58.3244 39.0203C58.3244 39.0203 59.3092 39.0384 60.2166 39.0452Z" fill="#0A0620"/>
<path d="M33.9019 32.031C33.9638 31.7141 33.8159 31.4195 33.5885 31.2697C33.416 31.1561 33.3083 31.1031 32.7373 31.1031C32.4707 31.1031 32.2975 31.1798 32.1917 31.3576C31.8541 31.1798 31.4633 31.1031 31.0182 31.1031C30.8448 31.1031 27.4853 31.0645 26.8477 31.1031C26.3451 31.1336 25.9656 31.6303 26.212 31.9745C27.4194 33.6607 26.7826 32.6214 27.4854 32.6147C28.1881 32.6079 28.6603 32.7239 28.9273 32.8314C29.1944 32.9389 29.5766 33.3158 29.5766 33.6168C29.5766 33.6168 29.4922 33.9001 29.3107 34.5114C29.2087 34.872 29.2934 35.1723 29.5766 35.4004C29.3107 35.5637 29.2526 35.8346 29.4142 36.2052C29.5766 36.5721 29.5336 36.8315 29.3107 36.9873C29.4922 37.2104 29.5766 37.458 29.5766 37.7369C29.5766 37.8116 29.504 38.2112 29.3556 38.9437C29.2526 39.4062 29.3536 39.8795 29.4209 40.3399C29.4423 40.469 29.3625 40.7115 29.2427 40.827C29.453 41.0682 29.1621 41.9481 28.7896 42.2314C28.3916 42.5607 28.1516 42.8603 28.0843 43.0978C27.9715 42.932 27.8495 42.8437 27.6887 42.8333C27.5278 42.823 27.4546 42.92 27.0507 43.0582C26.626 43.1811 25.6992 42.6147 25.4271 42.2088C25.7907 42.2233 26.1282 41.8146 26.2071 41.6484C26.2859 41.4821 26.3413 41.2401 26.2348 40.784C25.9631 40.1018 25.5024 39.5776 24.6073 39.5825C23.78 39.5776 23.2365 40.058 23.0433 40.5412C22.8651 40.9292 22.7998 41.2848 22.7998 41.6014C22.7998 42.213 23.0436 42.6789 23.1883 42.9514C23.2981 43.1582 23.7156 43.7628 24.364 44.2284C25.0124 44.694 25.9142 45.0362 26.5487 45.0822C27.1832 45.128 27.9023 45.1223 28.9893 44.7168C30.4435 44.0731 31.3633 42.0795 31.3633 39.8736C31.3633 39.3892 31.313 38.6108 31.2203 37.5434C31.1261 36.4803 31.0787 35.6756 31.0787 35.1391C31.0787 34.4989 31.1384 33.9158 31.2203 33.3888C31.3737 32.9037 31.7035 32.6675 32.2499 32.6675C32.3222 32.6675 32.4301 32.6769 32.5929 32.6895C32.7373 32.7045 32.8757 32.7127 32.9662 32.7127C33.3987 32.7127 33.8455 32.5775 33.9019 32.031Z" fill="#0A0620"/>
</g>
</g>
<defs>
<filter id="filter0_b_2161_8610" x="-4" y="-4" width="252.6" height="84" filterUnits="userSpaceOnUse" color-interpolation-filters="sRGB">
<feFlood flood-opacity="0" result="BackgroundImageFix"/>
<feGaussianBlur in="BackgroundImageFix" stdDeviation="2"/>
<feComposite in2="SourceAlpha" operator="in" result="effect1_backgroundBlur_2161_8610"/>
<feBlend mode="normal" in="SourceGraphic" in2="effect1_backgroundBlur_2161_8610" result="shape"/>
</filter>
<clipPath id="clip0_2161_8610">
<rect width="199" height="15" fill="white" transform="translate(22.7998 30.5)"/>
</clipPath>
</defs>
</svg>
