<svg width="142" height="76" viewBox="0 0 142 76" fill="none" xmlns="http://www.w3.org/2000/svg">
<g filter="url(#filter0_b_2161_8627)">
<path d="M33.52 37.4148L34.9543 39.6383L37.8468 35.148V45.0913H40.335V30.6287H37.7938L33.52 37.4148ZM26.5366 30.6287H24.0195V45.0913H26.5174V35.148L32.1821 43.9747L33.6259 41.7223L26.5366 30.6287ZM55.298 40.6057L57.6034 45.0913H60.6018L53.0745 30.6287H50.3697L50.3649 30.6336L54.1381 38.3004H49.128L50.4323 35.8025L49.0702 33.0833L42.727 45.0913H45.5328L47.9055 40.6105L55.298 40.6057ZM77.2204 30.6287H74.7226V37.6506L77.2204 40.0956V30.6287ZM65.1739 30.6287H62.6376V45.0913H65.1354V34.2817L75.3627 45.0913H77.2204V43.3346L65.1739 30.6287ZM94.6572 34.6426C93.4685 33.4394 91.6348 32.6694 89.5797 32.6694C86.2974 32.6694 83.5878 34.633 83.1546 37.179H80.4065C80.7675 33.2229 84.9161 30.3111 89.6134 30.3111C92.4048 30.3111 94.9171 31.3266 96.6064 32.9581L94.6572 34.6426ZM89.3487 43.0699C86.6102 43.0699 84.276 41.6212 83.4097 39.5998H80.6086C81.5375 43.0891 85.1808 45.4137 89.5075 45.4137C90.5134 45.4137 91.6685 45.3175 92.6262 45.0864C94.792 44.5619 97.1599 43.1902 97.1599 41.0244V37.179H89.3246L89.3198 39.5998H94.6572V40.6972C94.6572 41.91 92.7947 42.6127 91.6589 42.8581C91.0476 42.9929 90.2583 43.0699 89.6278 43.0699H89.3487ZM117.792 37.872C117.792 33.5598 113.774 30.2148 108.841 30.2148C104.061 30.2148 99.8647 33.4057 99.8647 37.641C99.8647 41.6357 103.161 44.8362 107.599 45.3415V42.9255C104.692 42.4587 102.497 40.3458 102.497 37.7998C102.497 34.9122 105.322 32.5731 108.802 32.5731C112.287 32.5731 115.107 34.917 115.107 37.7998C115.107 40.3266 112.946 42.425 110.073 42.9159V45.3367C114.342 44.8314 117.792 41.7512 117.792 37.872Z" fill="#0A0620"/>
</g>
<defs>
<filter id="filter0_b_2161_8627" x="-4" y="-4" width="149.6" height="84" filterUnits="userSpaceOnUse" color-interpolation-filters="sRGB">
<feFlood flood-opacity="0" result="BackgroundImageFix"/>
<feGaussianBlur in="BackgroundImageFix" stdDeviation="2"/>
<feComposite in2="SourceAlpha" operator="in" result="effect1_backgroundBlur_2161_8627"/>
<feBlend mode="normal" in="SourceGraphic" in2="effect1_backgroundBlur_2161_8627" result="shape"/>
</filter>
</defs>
</svg>
