<svg width="48" height="48" viewBox="0 0 48 48" fill="none" xmlns="http://www.w3.org/2000/svg">
<circle cx="24" cy="24" r="24" fill="#A68FA0"/>
<path d="M21.9731 30.2782C21.2529 31.6369 20.3096 32.4167 19.3846 32.4167C18.4596 32.4167 17.5163 31.6369 16.7962 30.2782C16.3306 29.3695 15.9987 28.3947 15.8115 27.3856C16.2802 27.6036 16.7944 27.6972 17.3073 27.6579C17.8201 27.6186 18.3153 27.4476 18.7473 27.1606C19.1794 26.8736 19.5347 26.4797 19.7808 26.0149C20.0268 25.5501 20.1557 25.0293 20.1557 24.5C20.1557 23.9707 20.0268 23.4499 19.7808 22.9851C19.5347 22.5203 19.1794 22.1264 18.7473 21.8394C18.3153 21.5524 17.8201 21.3814 17.3073 21.3421C16.7944 21.3028 16.2802 21.3964 15.8115 21.6144C15.9987 20.6053 16.3306 19.6305 16.7962 18.7218C17.5163 17.3631 18.4596 16.5833 19.3846 16.5833C20.3096 16.5833 21.2529 17.3631 21.9731 18.7218C22.7837 20.2517 23.2308 22.3041 23.2308 24.5C23.2308 26.6959 22.7837 28.7483 21.9731 30.2782Z" fill="white"/>
<path d="M31.2038 30.2782C30.4837 31.6369 29.5404 32.4167 28.6154 32.4167C27.6904 32.4167 26.7471 31.6369 26.0269 30.2782C25.5613 29.3695 25.2295 28.3947 25.0423 27.3856C25.5109 27.6036 26.0252 27.6972 26.5381 27.6579C27.0509 27.6186 27.546 27.4476 27.9781 27.1606C28.4102 26.8736 28.7655 26.4797 29.0115 26.0149C29.2576 25.5501 29.3865 25.0293 29.3865 24.5C29.3865 23.9707 29.2576 23.4499 29.0115 22.9851C28.7655 22.5203 28.4102 22.1264 27.9781 21.8394C27.546 21.5524 27.0509 21.3814 26.5381 21.3421C26.0252 21.3028 25.5109 21.3964 25.0423 21.6144C25.2295 20.6053 25.5613 19.6305 26.0269 18.7218C26.7471 17.3631 27.6904 16.5833 28.6154 16.5833C29.5404 16.5833 30.4837 17.3631 31.2038 18.7218C32.0144 20.2517 32.4615 22.3041 32.4615 24.5C32.4615 26.6959 32.0144 28.7483 31.2038 30.2782Z" fill="white"/>
</svg>
