<svg width="48" height="48" viewBox="0 0 48 48" fill="none" xmlns="http://www.w3.org/2000/svg">
<circle cx="24" cy="24" r="24" fill="#A68FA0"/>
<path fill-rule="evenodd" clip-rule="evenodd" d="M21.4889 24.0003L15.332 22.3505L15.6685 21.0948L21.8284 22.7454L17.3201 18.2371L18.2393 17.3178L22.7437 21.8222L21.0948 15.6685L22.3505 15.332L24.0003 21.4889L25.65 15.332L26.9057 15.6685L25.2554 21.8274L29.765 17.3178L30.6842 18.2371L26.1773 22.744L32.332 21.0948L32.6685 22.3505L26.5117 24.0003L32.6685 25.65L32.332 26.9057L26.1783 25.2568L30.6842 29.7627L29.765 30.6819L25.2551 26.1721L26.9057 32.332L25.65 32.6685L24.0003 26.5117L22.3505 32.6685L21.0948 32.332L22.744 26.1773L18.2393 30.6819L17.3201 29.7627L21.8274 25.2554L15.6685 26.9057L15.332 25.65L21.4889 24.0003Z" fill="white"/>
</svg>
