<svg width="153" height="43" viewBox="0 0 153 43" fill="none" xmlns="http://www.w3.org/2000/svg">
<path d="M83.0552 16.8722C83.0552 17.9343 82.1363 18.7973 81.008 18.7973C79.8797 18.7973 78.9617 17.9343 78.9617 16.8722V9.65234H75.0234V16.8722C75.0234 20.1056 77.7083 22.7346 81.008 22.7346C82.4872 22.7388 83.9164 22.1994 85.0239 21.2188C86.131 22.1994 87.5599 22.7388 89.0388 22.7346C92.3385 22.7346 95.0234 20.1056 95.0234 16.8722V9.65234H91.0861V16.8722C91.0861 17.9343 90.1681 18.7973 89.0388 18.7973C87.9096 18.7973 86.9925 17.9343 86.9925 16.8722V9.65234H83.0552V16.8722Z" fill="white"/>
<path d="M4.5635 9.64956H10.8029C14.0505 9.64956 16.6917 12.5959 16.6917 16.2177C16.6917 19.8395 14.0486 22.7858 10.8029 22.7858H0.507812V18.8485H10.8029C11.8611 18.8485 12.7545 17.6435 12.7545 16.2177C12.7545 14.7919 11.8611 13.5868 10.8029 13.5868H0.507812V0.400391H4.5635V9.64956Z" fill="white"/>
<path d="M24.3342 13.5896C23.2769 13.5896 22.3835 14.7947 22.3835 16.2205C22.3835 17.6463 23.2769 18.8513 24.3342 18.8513H30.7147C31.772 18.8513 32.6653 17.6463 32.6653 16.2205C32.6653 14.7947 31.772 13.5896 30.7147 13.5896H24.3342ZM30.7147 22.7886H24.3342C21.0875 22.7886 18.4453 19.8423 18.4453 16.2205C18.4453 12.5987 21.0875 9.65234 24.3342 9.65234H30.7147C33.9613 9.65234 36.6035 12.5987 36.6035 16.2205C36.6035 19.8423 33.9613 22.7886 30.7147 22.7886Z" fill="white"/>
<path d="M44.2482 13.5896C43.19 13.5896 42.2966 14.7947 42.2966 16.2205C42.2966 17.6463 43.19 18.8513 44.2482 18.8513H50.6288C51.686 18.8513 52.5794 17.6463 52.5794 16.2205C52.5794 14.7947 51.686 13.5896 50.6288 13.5896H44.2482ZM50.6259 22.7886H44.2482C41.0006 22.7886 38.3594 19.8423 38.3594 16.2205C38.3594 12.5987 41.0006 9.65234 44.2482 9.65234H50.6288C53.8754 9.65234 56.5167 12.5987 56.5167 16.2205C56.5167 19.8423 53.8726 22.7886 50.6259 22.7886Z" fill="white"/>
<path d="M102.662 13.5896C101.605 13.5896 100.712 14.7947 100.712 16.2205C100.712 17.6463 101.605 18.8513 102.662 18.8513H109.043C110.1 18.8513 110.994 17.6463 110.994 16.2205C110.994 14.7947 110.1 13.5896 109.043 13.5896H102.662ZM109.043 22.7886H102.662C99.4157 22.7886 96.7734 19.8423 96.7734 16.2205C96.7734 12.5987 99.4157 9.65234 102.662 9.65234H109.043C112.289 9.65234 114.932 12.5987 114.932 16.2205C114.932 19.8423 112.292 22.7886 109.043 22.7886Z" fill="white"/>
<path d="M122.576 13.5896C121.519 13.5896 120.625 14.7947 120.625 16.2205C120.625 17.6463 121.519 18.8513 122.576 18.8513H128.957C130.014 18.8513 130.908 17.6463 130.908 16.2205C130.908 14.7947 130.014 13.5896 128.957 13.5896H122.576ZM128.957 22.7886H122.576C119.33 22.7886 116.688 19.8423 116.688 16.2205C116.688 12.5987 119.33 9.65234 122.576 9.65234H128.957C132.204 9.65234 134.846 12.5987 134.846 16.2205C134.846 19.8423 132.204 22.7886 128.957 22.7886Z" fill="white"/>
<path d="M148.73 0.34375H152.785V13.5292H142.49C141.432 13.5292 140.539 14.7343 140.539 16.1601C140.539 17.5859 141.432 18.7909 142.49 18.7909H152.784V22.7282H142.49C139.243 22.7282 136.602 19.7819 136.602 16.1601C136.602 12.5383 139.243 9.59197 142.49 9.59197H148.728L148.73 0.34375Z" fill="white"/>
<path d="M68.0794 13.2969H73.2748V9.65234H58.2656V13.2969H63.7414V22.7886H68.0794V13.2969Z" fill="white"/>
<path d="M116.728 42.1438C115.843 42.1438 115.134 41.8825 114.6 41.3598C114.078 40.8372 113.816 40.0265 113.816 38.9278V33.6318H115.144V38.8638C115.144 39.5998 115.299 40.1385 115.608 40.4798C115.928 40.8212 116.419 40.9918 117.08 40.9918C117.72 40.9918 118.264 40.7892 118.712 40.3838C119.16 39.9785 119.384 39.4185 119.384 38.7038V33.6318H120.712V41.9998H119.384V40.6718C119.182 41.0985 118.846 41.4505 118.376 41.7278C117.918 42.0052 117.368 42.1438 116.728 42.1438Z" fill="white"/>
<path d="M108.174 33.6318H109.502V35.1358C109.779 34.6238 110.131 34.2291 110.558 33.9518C110.984 33.6638 111.55 33.5091 112.254 33.4878V34.7358C111.336 34.7785 110.648 34.9918 110.19 35.3758C109.731 35.7598 109.502 36.4371 109.502 37.4078V41.9998H108.174V33.6318Z" fill="white"/>
<path d="M105.584 41.7917C105.381 41.9837 105.141 42.0797 104.864 42.0797C104.587 42.0797 104.347 41.9837 104.144 41.7917C103.941 41.5891 103.84 41.3437 103.84 41.0557C103.84 40.7677 103.941 40.5277 104.144 40.3357C104.347 40.1331 104.587 40.0317 104.864 40.0317C105.141 40.0317 105.381 40.1331 105.584 40.3357C105.787 40.5277 105.888 40.7677 105.888 41.0557C105.888 41.3437 105.787 41.5891 105.584 41.7917Z" fill="white"/>
<path d="M97.3639 42.1438C96.2439 42.1438 95.3319 41.7758 94.6279 41.0398C93.9346 40.2932 93.5879 39.2745 93.5879 37.9838V37.8558C93.5879 36.5758 93.9506 35.5305 94.6759 34.7198C95.4012 33.8985 96.3399 33.4878 97.4919 33.4878C98.7079 33.4878 99.6199 33.9838 100.228 34.9758V29.6318H101.556V41.9998H100.228V40.5598C99.9826 40.9865 99.5879 41.3598 99.0439 41.6798C98.4999 41.9892 97.9399 42.1438 97.3639 42.1438ZM97.5079 41.0398C98.3292 41.0398 98.9959 40.7732 99.5079 40.2398C100.02 39.6958 100.276 38.9065 100.276 37.8718V37.7438C100.276 36.6878 100.041 35.8985 99.5719 35.3758C99.1132 34.8532 98.4626 34.5918 97.6199 34.5918C96.7879 34.5918 96.1372 34.8692 95.6679 35.4238C95.1986 35.9785 94.9639 36.7678 94.9639 37.7918V37.9198C94.9639 38.9332 95.1986 39.7065 95.6679 40.2398C96.1479 40.7732 96.7612 41.0398 97.5079 41.0398Z" fill="white"/>
<path d="M84.9258 33.6318H86.2538V34.9598C86.4671 34.5331 86.8031 34.1811 87.2618 33.9038C87.7204 33.6265 88.2804 33.4878 88.9418 33.4878C89.8591 33.4878 90.5791 33.7598 91.1018 34.3038C91.6244 34.8478 91.8858 35.7011 91.8858 36.8638V41.9998H90.5578V36.7678C90.5578 36.0318 90.3978 35.4931 90.0778 35.1518C89.7578 34.8105 89.2618 34.6398 88.5898 34.6398C87.9391 34.6398 87.3844 34.8425 86.9258 35.2478C86.4778 35.6531 86.2538 36.2131 86.2538 36.9278V41.9998H84.9258V33.6318Z" fill="white"/>
<path d="M78.6746 42.1438C77.8533 42.1438 77.1813 41.9411 76.6586 41.5358C76.1466 41.1198 75.8906 40.5011 75.8906 39.6798C75.8906 39.2211 76.0026 38.8211 76.2266 38.4798C76.4613 38.1278 76.7813 37.8558 77.1866 37.6638C77.592 37.4611 78.0346 37.3171 78.5146 37.2318C78.9946 37.1358 79.5173 37.0878 80.0826 37.0878H81.2826V36.4798C81.2826 35.8078 81.144 35.3278 80.8666 35.0398C80.5893 34.7411 80.1306 34.5918 79.4906 34.5918C78.3386 34.5918 77.6986 35.0931 77.5706 36.0958H76.2426C76.328 35.1998 76.6746 34.5438 77.2826 34.1278C77.9013 33.7011 78.6586 33.4878 79.5546 33.4878C81.592 33.4878 82.6106 34.4851 82.6106 36.4798V41.9998H81.2826V40.9438C80.6426 41.7438 79.7733 42.1438 78.6746 42.1438ZM78.8026 41.0878C79.528 41.0878 80.12 40.9118 80.5786 40.5598C81.048 40.1971 81.2826 39.7011 81.2826 39.0718V38.0318H80.1306C78.1893 38.0318 77.2186 38.5811 77.2186 39.6798C77.2186 40.6185 77.7466 41.0878 78.8026 41.0878Z" fill="white"/>
<path d="M72.8086 29.6318H74.1526V41.9998H72.8086V29.6318Z" fill="white"/>
<path d="M67.0527 33.6318H68.3807V35.1358C68.6581 34.6238 69.0101 34.2291 69.4367 33.9518C69.8634 33.6638 70.4287 33.5091 71.1327 33.4878V34.7358C70.2154 34.7785 69.5274 34.9918 69.0687 35.3758C68.6101 35.7598 68.3807 36.4371 68.3807 37.4078V41.9998H67.0527V33.6318Z" fill="white"/>
<path d="M61.6769 42.1438C60.4822 42.1438 59.5062 41.7545 58.7489 40.9758C58.0022 40.1971 57.6289 39.1731 57.6289 37.9038V37.7758C57.6289 36.5171 57.9916 35.4878 58.7169 34.6878C59.4529 33.8878 60.3969 33.4878 61.5489 33.4878C62.6156 33.4878 63.5062 33.8345 64.2209 34.5278C64.9462 35.2105 65.3089 36.2505 65.3089 37.6478V38.0798H59.0049C59.0689 40.0531 59.9649 41.0398 61.6929 41.0398C63.0049 41.0398 63.7462 40.5545 63.9169 39.5838H65.2449C65.0956 40.4158 64.7062 41.0505 64.0769 41.4878C63.4476 41.9251 62.6476 42.1438 61.6769 42.1438ZM63.9489 37.0078C63.8316 35.3971 63.0316 34.5918 61.5489 34.5918C60.8769 34.5918 60.3222 34.8051 59.8849 35.2318C59.4476 35.6585 59.1702 36.2505 59.0529 37.0078H63.9489Z" fill="white"/>
<path d="M52.6737 42.1438C52.0337 42.1438 51.4683 42.0052 50.9777 41.7278C50.487 41.4398 50.1083 41.0718 49.8417 40.6238V41.9998H48.5137V29.6318H49.8417V35.0398C50.087 34.6132 50.471 34.2505 50.9937 33.9518C51.5163 33.6425 52.0763 33.4878 52.6737 33.4878C53.7937 33.4878 54.7057 33.8665 55.4097 34.6238C56.1243 35.3812 56.4817 36.4052 56.4817 37.6958V37.8238C56.4817 39.1145 56.1297 40.1598 55.4257 40.9598C54.7323 41.7492 53.815 42.1438 52.6737 42.1438ZM52.5457 41.0398C53.3777 41.0398 54.0123 40.7732 54.4497 40.2398C54.887 39.6958 55.1057 38.9118 55.1057 37.8878V37.7598C55.1057 36.7465 54.8603 35.9678 54.3697 35.4238C53.8897 34.8692 53.2763 34.5918 52.5297 34.5918C51.719 34.5918 51.0577 34.8638 50.5457 35.4078C50.0443 35.9412 49.7937 36.7252 49.7937 37.7598V37.8878C49.7937 38.9225 50.039 39.7065 50.5297 40.2398C51.031 40.7732 51.703 41.0398 52.5457 41.0398Z" fill="white"/>
<path d="M34.2422 33.6318H35.5702V34.9118C35.7729 34.4958 36.0929 34.1545 36.5302 33.8878C36.9675 33.6211 37.4795 33.4878 38.0662 33.4878C39.3035 33.4878 40.1195 34.0105 40.5142 35.0558C40.7809 34.5545 41.1862 34.1705 41.7302 33.9038C42.2742 33.6265 42.8235 33.4878 43.3782 33.4878C44.1995 33.4878 44.8715 33.7598 45.3942 34.3038C45.9275 34.8371 46.1942 35.6745 46.1942 36.8158V41.9998H44.8662V36.7198C44.8662 35.3331 44.2742 34.6398 43.0902 34.6398C42.4929 34.6398 41.9755 34.8371 41.5382 35.2318C41.1009 35.6265 40.8822 36.1758 40.8822 36.8798V41.9998H39.5542V36.7198C39.5542 35.3331 38.9622 34.6398 37.7782 34.6398C37.1809 34.6398 36.6635 34.8371 36.2262 35.2318C35.7889 35.6265 35.5702 36.1758 35.5702 36.8798V41.9998H34.2422V33.6318Z" fill="white"/>
<path d="M30.49 33.6319H31.818V41.9999H30.49V33.6319ZM31.754 31.6319C31.5833 31.8026 31.3753 31.8879 31.13 31.8879C30.8847 31.8879 30.6767 31.8026 30.506 31.6319C30.3353 31.4613 30.25 31.2533 30.25 31.0079C30.25 30.7626 30.3353 30.5546 30.506 30.3839C30.6767 30.2133 30.8847 30.1279 31.13 30.1279C31.3753 30.1279 31.5833 30.2133 31.754 30.3839C31.9247 30.5546 32.01 30.7626 32.01 31.0079C32.01 31.2533 31.9247 31.4613 31.754 31.6319Z" fill="white"/>
<path d="M24.371 31.6961H21.043V30.5601H29.091V31.6961H25.763V42.0001H24.371V31.6961Z" fill="white"/>
<path d="M12.1033 37.6958L9.30333 33.6318H10.8553L12.9033 36.6718L14.9353 33.6318H16.3753L13.6073 37.5998L16.6633 41.9998H15.0953L12.8393 38.6238L10.5353 41.9998H9.11133L12.1033 37.6958Z" fill="white"/>
<path d="M4.86441 42.1438C3.66974 42.1438 2.69374 41.7545 1.93641 40.9758C1.18974 40.1971 0.816406 39.1731 0.816406 37.9038V37.7758C0.816406 36.5171 1.17907 35.4878 1.90441 34.6878C2.64041 33.8878 3.58441 33.4878 4.73641 33.4878C5.80307 33.4878 6.69374 33.8345 7.40841 34.5278C8.13374 35.2105 8.49641 36.2505 8.49641 37.6478V38.0798H2.19241C2.25641 40.0531 3.15241 41.0398 4.88041 41.0398C6.19241 41.0398 6.93374 40.5545 7.10441 39.5838H8.43241C8.28307 40.4158 7.89374 41.0505 7.26441 41.4878C6.63507 41.9251 5.83507 42.1438 4.86441 42.1438ZM7.13641 37.0078C7.01907 35.3971 6.21907 34.5918 4.73641 34.5918C4.06441 34.5918 3.50974 34.8051 3.07241 35.2318C2.63507 35.6585 2.35774 36.2505 2.24041 37.0078H7.13641Z" fill="white"/>
</svg>
