<svg width="166" height="40" viewBox="0 0 166 40" fill="none" xmlns="http://www.w3.org/2000/svg">
<path fill-rule="evenodd" clip-rule="evenodd" d="M152.511 6.15964C152.456 6.24748 152.338 6.55115 152.249 6.8346C152.102 7.30501 152.097 7.35979 152.199 7.46238C152.334 7.59882 157.506 9.27747 157.702 9.24866C157.86 9.22553 158.12 8.61677 158.057 8.41761C158.033 8.34055 157.09 7.89242 155.388 7.14927C153.941 6.51717 152.724 6 152.684 6C152.644 6 152.566 6.0718 152.511 6.15964ZM154.26 10.8667C153.352 10.9973 152.604 11.1612 151.975 11.3676C148.365 12.5518 145.841 15.4779 145.07 19.3742C144.847 20.4995 144.849 22.443 145.073 23.5786C145.384 25.1513 145.86 26.3222 146.707 27.6005C148.134 29.7543 150.369 31.2309 153.13 31.8443C153.749 31.9816 154.042 32.0012 155.455 31.9999C156.857 31.9987 157.166 31.9777 157.785 31.8416C159.936 31.3687 161.5 30.5217 162.981 29.0279C164.186 27.8121 164.944 26.5786 165.437 25.0309C165.625 24.4405 165.876 23.3182 165.909 22.922C165.919 22.8049 165.943 24.7206 165.964 27.1791C165.986 29.8834 166 27.5853 166 21.361C166 15.7026 165.989 13.1324 165.976 15.6494L165.952 20.2258L165.821 19.4771C165.448 17.3358 164.522 15.483 163.073 13.9796C161.597 12.4485 159.866 11.5002 157.704 11.0378C157.18 10.9257 156.679 10.8809 155.736 10.8619C155.04 10.8478 154.376 10.85 154.26 10.8667ZM49.5259 11.0534C49.4281 11.1943 49.4165 12.2909 49.4165 21.3769C49.4165 31.448 49.4178 31.5439 49.5571 31.6845C49.7533 31.8825 50.6019 31.8912 50.7761 31.697C50.8825 31.5783 50.8936 30.8247 50.91 22.6559L50.9278 13.7443L57.8869 22.6953C61.7144 27.6184 64.9157 31.7188 65.001 31.8074C65.1239 31.9351 65.2335 31.9683 65.5317 31.9683C65.7384 31.9683 65.9454 31.93 65.9918 31.8832C66.1144 31.7594 66.1144 11.3174 65.9918 11.1937C65.8706 11.0714 64.8515 11.08 64.7494 11.2042C64.6926 11.2733 64.6658 13.7769 64.653 20.2427L64.6351 29.1855L57.6409 20.175C53.794 15.2192 50.5712 11.104 50.479 11.03C50.2299 10.8303 49.6712 10.8439 49.5259 11.0534ZM0 21.4244C0 30.7657 0.0104738 31.7443 0.111205 31.7833C0.314143 31.8619 12.5104 31.8324 12.6575 31.753C12.7728 31.6907 12.7935 31.6011 12.7935 31.1641C12.7935 30.8578 12.7592 30.614 12.7091 30.5635C12.6449 30.4987 11.2767 30.4783 6.98017 30.4783H1.33558V26.2212V21.9641H6.20532C10.4991 21.9641 11.0936 21.9511 11.2313 21.8536C11.3671 21.7577 11.3876 21.6791 11.3876 21.2546C11.3876 20.8301 11.3671 20.7515 11.2313 20.6556C11.0936 20.5581 10.4991 20.5451 6.20532 20.5451H1.33558V16.4658V12.3865L7.04695 12.3683L12.7583 12.3502L12.7796 11.8912C12.7914 11.6387 12.7828 11.3593 12.7607 11.2704L12.7205 11.1085H6.36025H0V21.4244ZM16.8846 11.1937C16.8197 11.2591 16.8002 13.6317 16.8002 21.4411C16.8002 30.585 16.8112 31.6146 16.9106 31.7149C17.0094 31.8145 17.6799 31.8264 23.2371 31.8264C29.3594 31.8264 29.4552 31.8243 29.5937 31.6845C29.7708 31.5057 29.7896 30.8734 29.6248 30.636L29.5154 30.4783H23.8607H18.2061V20.8786C18.2061 13.5067 18.1865 11.2591 18.1217 11.1937C18.009 11.0799 16.9972 11.0799 16.8846 11.1937ZM32.6304 11.1937C32.5655 11.2591 32.546 13.6319 32.546 21.4421V31.6055L32.7023 31.7159C32.8407 31.8139 33.5602 31.8264 39.0529 31.8264C46.1566 31.8264 45.48 31.8993 45.48 31.1341C45.48 30.8353 45.4459 30.6668 45.3696 30.5898C45.271 30.4903 44.6514 30.4783 39.6055 30.4783H33.9519V26.2226V21.9669L38.9041 21.9478C42.8539 21.9325 43.8748 21.91 43.9476 21.8364C44.0053 21.7782 44.039 21.56 44.039 21.2453C44.039 20.8334 44.0153 20.7289 43.9026 20.6458C43.7878 20.5611 42.9861 20.5451 38.859 20.5451H33.9519V16.4654V12.3856H39.6316C43.9554 12.3856 45.3314 12.3654 45.3957 12.3005C45.4991 12.1961 45.5075 11.4347 45.4073 11.2457C45.3362 11.1116 45.1911 11.1085 39.0246 11.1085C34.2106 11.1085 32.6947 11.1287 32.6304 11.1937ZM77.551 11.1972C77.4388 11.3383 69.0285 31.4381 69.0285 31.5651C69.0285 31.7431 69.2597 31.8264 69.7541 31.8264C70.0818 31.8264 70.2499 31.7919 70.359 31.7022C70.4515 31.6263 70.8867 30.6686 71.4795 29.2367L72.4489 26.8953H78.1652H83.8813L84.8598 29.2367C85.398 30.5244 85.9029 31.634 85.9818 31.7022C86.0881 31.7941 86.2497 31.8264 86.6039 31.8264C87.195 31.8264 87.3048 31.7862 87.3048 31.5702C87.3048 31.401 79.0272 11.573 78.8294 11.2682C78.7364 11.125 78.6686 11.1085 78.1736 11.1085C77.8164 11.1085 77.5966 11.1398 77.551 11.1972ZM96.3121 11.2682C96.2808 11.3559 96.0527 15.9725 95.8052 21.5271C95.3623 31.4709 95.3575 31.6279 95.4909 31.7264C95.6971 31.8786 96.5305 31.8614 96.6734 31.7019C96.7696 31.5946 96.834 30.3923 97.1416 22.9572C97.3377 18.216 97.5059 14.2863 97.5154 14.2246C97.5248 14.1629 99.1601 17.2215 101.149 21.0216C103.139 24.8216 104.808 27.9659 104.86 28.009C104.992 28.1195 105.581 28.163 105.798 28.0782C105.947 28.0203 106.673 26.7337 109.728 21.1175C111.789 17.3281 113.491 14.2437 113.51 14.2632C113.529 14.2826 113.695 18.2 113.878 22.9684C114.257 32.8623 114.133 31.8264 114.942 31.8264C115.361 31.8264 115.431 31.807 115.517 31.6668C115.601 31.529 115.558 30.1207 115.199 21.4002C114.922 14.6576 114.758 11.2615 114.705 11.1979C114.651 11.1314 114.487 11.1088 114.164 11.1233L113.7 11.144L111.236 15.6139C109.881 18.0724 108.013 21.4615 107.085 23.1453L105.397 26.2067L104.334 24.2096C103.749 23.1111 101.955 19.7397 100.348 16.7174C98.7406 13.6951 97.3864 11.1972 97.3385 11.1666C97.2906 11.1358 97.0529 11.1102 96.8103 11.1096C96.4162 11.1087 96.3632 11.1255 96.3121 11.2682ZM121.048 11.2457C120.999 11.3385 120.976 14.6502 120.976 21.4628C120.976 31.448 120.977 31.5439 121.116 31.6845C121.228 31.7973 121.35 31.8264 121.714 31.8264C122.077 31.8264 122.199 31.7973 122.311 31.6845C122.45 31.5439 122.452 31.448 122.452 21.4628C122.452 14.6502 122.428 11.3385 122.379 11.2457C122.316 11.1268 122.228 11.1085 121.714 11.1085C121.2 11.1085 121.111 11.1268 121.048 11.2457ZM127.952 11.1533C127.882 11.1834 127.864 13.3077 127.864 21.4354C127.864 31.4908 127.867 31.6809 128 31.753C128.22 31.8718 129.031 31.8452 129.16 31.7149C129.257 31.6166 129.27 31.1947 129.27 28.1483V24.6931L132.1 24.6814C133.656 24.675 135.125 24.6412 135.364 24.6064L135.8 24.5429L138.162 28.1168C139.857 30.6814 140.574 31.7097 140.701 31.7584C140.937 31.8492 141.897 31.8453 142.068 31.753C142.143 31.7125 142.204 31.6382 142.204 31.5879C142.204 31.5374 141.113 29.8544 139.78 27.8476C137.476 24.3811 137.363 24.1958 137.513 24.1335C139.156 23.4486 140.116 22.71 140.87 21.5508C141.559 20.4926 141.862 19.3717 141.863 17.8844C141.864 16.7593 141.777 16.178 141.474 15.2801C141.158 14.3453 140.87 13.8785 140.166 13.1589C139.238 12.211 138.204 11.6755 136.599 11.3105C135.943 11.1614 135.738 11.1536 131.976 11.1349C129.811 11.1241 128.001 11.1324 127.952 11.1533ZM154.435 12.2161C149.709 12.8058 146.349 16.6694 146.352 21.512C146.354 25.3382 148.495 28.6497 151.85 30.0152C153.125 30.534 154.275 30.7257 155.796 30.6725C157.359 30.6178 158.434 30.3458 159.739 29.6751C162.723 28.1407 164.486 25.0934 164.487 21.4675C164.487 16.9864 161.6 13.3075 157.353 12.3783C156.736 12.2433 154.993 12.1465 154.435 12.2161ZM129.27 17.8844V23.3832H131.768C134.472 23.3832 135.286 23.3258 136.268 23.0659C138.383 22.5058 139.788 21.1485 140.243 19.2228C140.37 18.6852 140.387 18.4497 140.356 17.6006C140.316 16.4759 140.194 15.9594 139.782 15.168C138.969 13.6057 137.348 12.6739 135.069 12.4587C134.644 12.4186 133.165 12.3857 131.783 12.3857L129.27 12.3856V17.8844ZM78.1108 13.308C78.0709 13.4056 76.9134 16.1816 75.5388 19.477C74.1641 22.7724 73.0492 25.4785 73.0611 25.4906C73.0732 25.5028 75.3798 25.5045 78.1869 25.4945L83.2908 25.4762L80.7704 19.3941C79.3842 16.049 78.235 13.2712 78.2167 13.2213C78.1964 13.1663 78.1549 13.2003 78.1108 13.308Z" fill="#0A0620"/>
</svg>
