<svg width="177" height="40" viewBox="0 0 177 40" fill="none" xmlns="http://www.w3.org/2000/svg">
<path d="M23.6441 9.24023V30.4015H19.7871V9.24023H23.6441Z" fill="#0A0620"/>
<path d="M106.812 9.24023V26.9459H116.19V30.4015H102.955V9.24023H106.812Z" fill="#0A0620"/>
<path d="M176.92 9.24023V12.6846H166.759V17.7948H176.049V21.2391H166.759V26.9459H176.92V30.4015H162.902V9.24023H176.92Z" fill="#0A0620"/>
<path d="M138.798 30.4015L131.37 9.24023H126.477L119.061 30.4015H122.962C123.535 28.6793 123.987 27.3624 124.361 26.2593H133.475C133.839 27.3173 134.279 28.6343 134.874 30.4015H138.798ZM125.562 22.8149C126.345 20.5637 127.105 18.3351 128.924 12.6508C131.017 19.1342 131.612 20.9127 132.285 22.8149H125.562Z" fill="#0A0620"/>
<path d="M14.9243 9.24023V12.6846H4.43321V18.245H14.1419V21.6893H4.43321V30.4015H0.576172V9.24023H14.9243Z" fill="#0A0620"/>
<path d="M98.6782 9.24023V12.6846H88.1871V18.245H97.8958V21.6893H88.1871V30.4015H84.3301V9.24023H98.6782Z" fill="#0A0620"/>
<path d="M34.1296 9.24023L43.8163 24.2782V9.24023H47.6733V30.4015H43.6179L33.9313 15.3635V30.4015H30.0742V9.24023H34.1296Z" fill="#0A0620"/>
<path d="M58.1804 9.24023L67.8671 24.2782V9.24023H71.7241V30.4015H67.6687L57.982 15.3635V30.4015H54.125V9.24023H58.1804Z" fill="#0A0620"/>
<path d="M154.409 30.4015H158.597L153.054 21.9257C153.77 21.7569 154.464 21.5092 155.125 21.1491C155.544 20.9239 155.919 20.6538 156.249 20.3611C156.58 20.0685 156.878 19.7421 157.131 19.3931C157.385 19.0442 157.594 18.6615 157.77 18.245C158.112 17.4121 158.299 16.7367 158.299 15.6899C158.299 14.6431 158.123 14.0465 157.77 13.2136C157.594 12.8084 157.385 12.4257 157.131 12.0655C156.878 11.7165 156.591 11.3901 156.249 11.0975C155.919 10.8048 155.544 10.5347 155.125 10.3096C153.66 9.49912 151.985 9.24023 150.343 9.24023H142.408V30.4015H146.265V22.2184H149.064L154.409 30.4015ZM146.265 12.6846H150.728C152.216 12.6846 153.737 13.2474 154.31 14.7444C154.563 15.4085 154.552 16.0726 154.299 16.7367C153.726 18.2225 152.216 18.774 150.728 18.774H146.265V12.6846Z" fill="#0A0620"/>
</svg>
