<svg width="191" height="40" viewBox="0 0 191 40" fill="none" xmlns="http://www.w3.org/2000/svg">
<path d="M6.71864 7.39177L9.93954 5L28.4116 15.4374C30.1255 16.4058 30.1237 18.8319 28.4083 19.7978L15.4579 27.09L15.0115 27.3396V26.8383L15.0136 26.8404L15.0201 23.0099V22.8428L15.1689 22.7582L24.5427 17.4978L6.71864 7.39177Z" fill="#0A0620"/>
<path d="M2.08398 30.6618L2.10241 12.4303C2.10436 10.4957 4.23972 9.28746 5.94859 10.254L18.8378 17.5443L19.2735 17.7918L15.5356 19.9937L15.3846 20.0804L5.85978 14.6867L5.82616 33.5151L2.08398 30.6618Z" fill="#0A0620"/>
<path d="M29.8438 21.9455L12.3477 31.7814V21.0872L12.1924 21.0047L8.39844 18.9636V19.4543L8.37358 33.9034C8.37025 35.8401 10.5066 37.0537 12.2181 36.0873L29.869 26.1207L29.8438 21.9455Z" fill="#0A0620"/>
<path d="M72.7582 18.8296L67.0114 11.7598L61.9202 11.7598L70.7937 22.5612V29.6673L74.7206 29.6855V22.5612L83.598 11.7598L78.476 11.7598L72.7582 18.8296Z" fill="#0A0620"/>
<path d="M131.893 23.7919L137.005 29.6847H141.019H142.182L141.019 28.366L137.053 23.7919H131.893Z" fill="#0A0620"/>
<path fill-rule="evenodd" clip-rule="evenodd" d="M167.045 26.6988V14.7409C167.045 14.4796 167.144 14.2527 167.34 14.0603C167.536 13.8678 167.768 13.7706 168.034 13.7706H183.236V11.759H168.034C167.183 11.759 166.462 12.0487 165.871 12.626C165.281 13.2034 164.985 13.9083 164.985 14.7429V26.7008C164.985 27.5334 165.281 28.2404 165.871 28.8177C166.462 29.395 167.183 29.6847 168.034 29.6847H183.236V27.6691H168.034C167.768 27.6691 167.536 27.5719 167.34 27.3794C167.144 27.187 167.045 26.9601 167.045 26.6988ZM144.88 11.7428H160.131C160.982 11.7428 161.703 12.0345 162.294 12.6179C162.884 13.2013 163.18 13.9043 163.18 14.7247V20.0362C163.18 20.8566 162.884 21.5575 162.294 22.1429C161.703 22.7284 160.982 23.0201 160.131 23.0201H147.929C147.7 23.0201 147.369 22.9876 146.937 22.9208V29.6847H144.88V21.0166L160.131 20.9822C160.397 20.9822 160.631 20.891 160.827 20.7067C161.023 20.5223 161.122 20.2995 161.122 20.0382V14.7915C161.122 14.5302 161.023 14.3033 160.827 14.1109C160.631 13.9185 160.397 13.8212 160.131 13.8212L144.88 13.8476V11.7428ZM123.882 11.7428H138.396C139.439 11.7428 140.329 12.1034 141.071 12.8266C141.812 13.5498 142.182 14.4148 142.182 15.4215V20.1131C142.182 21.1199 141.812 21.9849 141.071 22.7081C140.331 23.4313 139.379 23.7919 138.218 23.7919H133.058H127.821V29.6847H123.882V19.9511H138.277L138.256 15.5972H123.882V11.7428ZM121.393 29.6847H104.489V29.6827V11.7388H121.393V15.5924H108.374V18.8184H118.877V22.6477H108.411V25.8311H121.393V29.6847ZM84.3304 11.7428H98.846C99.8892 11.7428 100.779 12.1034 101.521 12.8266C102.263 13.5498 102.632 14.4148 102.632 15.4215V20.1131C102.632 21.1199 102.263 21.9849 101.521 22.7081C100.779 23.4313 99.8892 23.7919 98.846 23.7919L88.2717 23.8182V29.6847H84.3304V19.9815H98.7002V15.6626L84.3304 15.6464V11.7428ZM188.311 16.3129C189.598 16.3129 190.643 15.2899 190.643 14.0258C190.643 12.7638 189.598 11.7388 188.311 11.7388C187.024 11.7388 185.979 12.7638 185.979 14.0258C185.979 15.2878 187.024 16.3129 188.311 16.3129ZM188.311 12.1986C189.338 12.1986 190.174 13.019 190.174 14.0258C190.174 15.0326 189.338 15.853 188.311 15.853C187.284 15.853 186.448 15.0326 186.448 14.0258C186.448 13.019 187.284 12.1986 188.311 12.1986ZM189.001 15.0407H189.379H189.381L188.635 14.1656H188.974C189.071 14.1656 189.152 14.1332 189.216 14.0663C189.278 14.0015 189.311 13.9225 189.311 13.8354V13.3452C189.311 13.256 189.278 13.1791 189.216 13.1122C189.154 13.0474 189.073 13.013 188.974 13.013H187.243V15.0407H187.541V14.1534H187.553C187.59 14.1615 187.621 14.1656 187.648 14.1656H188.243L189.001 15.0407ZM188.993 13.8476C188.97 13.8638 188.945 13.8739 188.918 13.8739H187.646C187.619 13.8739 187.594 13.8638 187.572 13.8476C187.549 13.8313 187.538 13.805 187.538 13.7686V13.41C187.538 13.3756 187.549 13.3492 187.572 13.331C187.594 13.3128 187.619 13.3047 187.646 13.3047H188.918C188.945 13.3047 188.97 13.3128 188.993 13.331C189.013 13.3472 189.026 13.3735 189.026 13.41V13.7686C189.026 13.803 189.013 13.8293 188.993 13.8476Z" fill="#0A0620"/>
<path d="M57.1843 18.7944H46.3808V11.759H42.4395V29.6827H46.3808V22.6716H57.1843V29.6847H61.1257V11.759H57.1843V18.7944Z" fill="#0A0620"/>
</svg>
