<svg width="88" height="42" viewBox="0 0 88 42" fill="none" xmlns="http://www.w3.org/2000/svg">
<path fill-rule="evenodd" clip-rule="evenodd" d="M4.84767 4.0692C3.17094 3.70627 1.3906 4.79511 0.670321 6.7678C-0.0515276 8.73897 0.724471 10.6319 2.4011 10.9948C4.07773 11.3593 6.02199 10.0546 6.74228 8.0819C7.46412 6.11079 6.5243 4.43218 4.84767 4.0692Z" fill="white"/>
<path fill-rule="evenodd" clip-rule="evenodd" d="M59.6644 4.0692C61.3412 3.70627 63.1214 4.79511 63.8418 6.7678C64.5636 8.73897 63.7876 10.6319 62.111 10.9948C60.4344 11.3593 58.4901 10.0546 57.7682 8.0819C57.0479 6.11079 57.9877 4.43218 59.6644 4.0692Z" fill="white"/>
<path fill-rule="evenodd" clip-rule="evenodd" d="M0.574219 14.2585V36.2369C0.574499 36.4744 0.665416 36.7021 0.826986 36.8699C0.988555 37.0376 1.20755 37.1318 1.43585 37.1317H5.77858C5.89154 37.1317 6.00339 37.1086 6.10776 37.0637C6.21212 37.0187 6.30693 36.9528 6.38681 36.8697C6.46668 36.7866 6.53003 36.6879 6.57324 36.5794C6.61646 36.4707 6.63868 36.3543 6.63865 36.2369V14.2585C6.63867 14.1411 6.61645 14.0247 6.57323 13.9161C6.53002 13.8075 6.46667 13.7089 6.3868 13.6258C6.30693 13.5427 6.21211 13.4767 6.10775 13.4318C6.00339 13.3869 5.89154 13.3637 5.77858 13.3638H1.43585C1.20756 13.3636 0.988561 13.4578 0.826994 13.6256C0.665426 13.7934 0.574507 14.021 0.574219 14.2585Z" fill="white"/>
<path fill-rule="evenodd" clip-rule="evenodd" d="M57.5234 14.2585V36.2369C57.5237 36.4742 57.6143 36.7016 57.7756 36.8694C57.9368 37.0371 58.1555 37.1315 58.3835 37.1317H62.7263C62.8393 37.1319 62.9513 37.1089 63.0558 37.064C63.1604 37.0191 63.2554 36.9532 63.3354 36.8701C63.4154 36.787 63.4789 36.6883 63.5222 36.5796C63.5656 36.471 63.5879 36.3545 63.5879 36.2369V14.2585C63.5879 14.1409 63.5656 14.0244 63.5222 13.9158C63.4789 13.8071 63.4154 13.7084 63.3354 13.6253C63.2554 13.5422 63.1604 13.4763 63.0558 13.4314C62.9513 13.3865 62.8393 13.3635 62.7263 13.3638H58.3835C58.1555 13.3639 57.9368 13.4583 57.7756 13.6261C57.6144 13.7938 57.5237 14.0213 57.5234 14.2585Z" fill="white"/>
<path fill-rule="evenodd" clip-rule="evenodd" d="M76.4317 22.6181C74.0738 21.462 72.2183 20.6375 72.2183 18.5084C72.2183 15.1809 74.9099 14.9228 75.7129 14.9228C76.4727 14.9438 77.2198 15.1311 77.9054 15.4727C78.591 15.8142 79.1997 16.3022 79.6917 16.9049C80.0858 17.4149 80.6195 17.5244 81.0541 17.1802C81.4616 16.8579 81.4164 16.2462 81.1128 15.863C80.6593 15.2857 80.1078 14.8 79.4857 14.43C78.1611 13.6299 76.6519 13.2205 75.1205 13.2457C71.8408 13.2457 67.2154 14.4988 67.2154 19.9022C67.2154 22.6838 68.5327 24.439 73.2258 26.842C77.8888 29.2292 78.0467 30.6482 78.0467 32.0467C78.0467 34.021 76.7354 35.6214 74.0393 35.6214C71.3492 35.6214 69.6288 34.0069 68.5913 33.1465C68.2424 32.8571 67.7823 32.6083 67.3582 32.9713C67.2665 33.0573 67.1928 33.1621 67.1419 33.2792C67.091 33.3962 67.064 33.523 67.0626 33.6515C67.0612 33.78 67.0854 33.9074 67.1337 34.0256C67.182 34.1439 67.2534 34.2505 67.3433 34.3386C68.2835 35.3178 69.4031 36.0908 70.6356 36.6118C71.8682 37.1328 73.1886 37.3913 74.519 37.3719C77.6828 37.3719 83.3473 36.2863 83.3473 30.2524C83.3473 27.6367 81.5308 25.1196 76.4317 22.6181Z" fill="white"/>
<path fill-rule="evenodd" clip-rule="evenodd" d="M34.332 14.4116V36.1662C34.3322 36.4345 34.4348 36.6916 34.6173 36.8811C34.7997 37.0706 35.047 37.177 35.3049 37.1768H43.7182C47.6534 37.1768 54.0683 35.3542 54.0683 24.8743C54.0683 14.5853 46.467 13.3994 42.604 13.3994H35.3049C35.0469 13.3996 34.7996 13.5063 34.6171 13.6961C34.4347 13.8859 34.3322 14.1433 34.332 14.4116ZM40.3935 15.0154H42.3903C44.9196 15.0154 46.0669 15.416 47.279 17.6624C48.2263 19.3708 48.7 22.4808 48.7 25.0964C48.7 27.7904 48.2563 30.8832 47.3376 32.6682C46.1407 35.0383 44.9933 35.531 42.3903 35.531H40.3935V15.0154Z" fill="white"/>
<path fill-rule="evenodd" clip-rule="evenodd" d="M11.0195 14.219V36.0706C11.0196 36.1971 11.0436 36.3223 11.0903 36.4391C11.1369 36.5559 11.2052 36.6619 11.2912 36.7513C11.3772 36.8406 11.4793 36.9115 11.5916 36.9598C11.704 37.0081 11.8244 37.0329 11.9459 37.0327H20.4148C24.35 37.0327 30.7634 35.2102 30.7634 24.7302C30.7634 14.4411 23.1636 13.2554 19.3021 13.2554H11.9459C11.8242 13.2553 11.7037 13.2802 11.5914 13.3285C11.4789 13.3769 11.3768 13.4479 11.2908 13.5374C11.2047 13.6269 11.1365 13.7332 11.0899 13.8501C11.0434 13.9671 11.0194 14.0924 11.0195 14.219ZM17.0901 14.8714H19.0856C21.6163 14.8714 22.7621 15.2718 23.9757 17.5183C24.923 19.2267 25.3967 22.3352 25.3967 24.9524C25.3967 27.6463 24.953 30.7391 24.0343 32.5241C22.8373 34.8942 21.69 35.387 19.0856 35.387H17.0901V14.8714Z" fill="white"/>
<path d="M85.4777 10.2877C84.9797 10.2876 84.4924 10.1337 84.0786 9.84565C83.6641 9.55759 83.3413 9.14821 83.1507 8.66929C82.96 8.19038 82.9102 7.66342 83.0074 7.15503C83.1047 6.64665 83.3446 6.17967 83.6969 5.81314C84.0494 5.44661 84.4983 5.19698 84.9863 5.09582C85.4752 4.99465 85.9816 5.04649 86.4422 5.24477C86.9027 5.44306 87.2965 5.7789 87.5726 6.20982C87.8496 6.64075 87.9981 7.14742 87.9981 7.66576C87.9973 8.3609 87.7311 9.02733 87.2589 9.51887C86.7867 10.0104 86.146 10.2869 85.4777 10.2877ZM85.4777 5.66176C85.0965 5.66158 84.7235 5.77903 84.4065 5.99925C84.0895 6.21947 83.8425 6.53256 83.6967 6.89892C83.5508 7.26528 83.5125 7.66845 83.5868 8.05742C83.6612 8.44639 83.845 8.80369 84.1145 9.08413C84.384 9.36456 84.7269 9.55553 85.1015 9.63286C85.4752 9.7102 85.8623 9.67044 86.2144 9.51861C86.5665 9.36678 86.8677 9.10969 87.0796 8.77988C87.2915 8.45007 87.4041 8.06235 87.4041 7.66577C87.4033 7.13453 87.1997 6.62526 86.8393 6.2496C86.478 5.87395 85.9883 5.66255 85.4777 5.66176Z" fill="white"/>
<path d="M84.4961 6.40652H85.0526V8.83133H84.4961V6.40652ZM85.6491 7.95058H84.9625V7.5H85.5573C85.6065 7.5008 85.6549 7.49394 85.7016 7.47966C85.7417 7.46768 85.7784 7.44687 85.8101 7.41864C85.8393 7.3913 85.8627 7.35695 85.876 7.31853C85.8935 7.27481 85.901 7.22799 85.9002 7.18089C85.9019 7.13224 85.8935 7.08381 85.876 7.03852C85.8618 7.00127 85.8393 6.96766 85.8118 6.93993C85.7809 6.91236 85.745 6.89114 85.7066 6.87739C85.6583 6.86234 85.6082 6.85494 85.5573 6.85547H84.9625V6.40651H85.6566C85.77 6.40389 85.8827 6.42133 85.9903 6.45812C86.0829 6.48903 86.1672 6.54085 86.2372 6.60984C86.3065 6.67728 86.3599 6.7602 86.3933 6.85232C86.4325 6.95701 86.4517 7.06863 86.4492 7.18087C86.4533 7.3173 86.4191 7.45204 86.3515 7.56883C86.2881 7.6787 86.193 7.76556 86.0804 7.81757C85.9477 7.88021 85.8026 7.91019 85.6566 7.90517L85.6491 7.95058ZM85.7609 7.72839L86.5426 8.82975H85.9035L85.2344 7.85667L85.7609 7.72839Z" fill="white"/>
</svg>
