<svg width="93" height="40" viewBox="0 0 93 40" fill="none" xmlns="http://www.w3.org/2000/svg">
<path fill-rule="evenodd" clip-rule="evenodd" d="M-0.00390625 19.6619V30.3237H6.49317H12.9902V28.3802V26.4366H8.60333H4.21642V17.7183V9H2.10626H-0.00390625V19.6619ZM17.2106 13.1838C16.5564 13.2305 14.9872 13.4386 14.7395 13.5113C14.5636 13.5631 14.5451 13.7597 14.5451 15.5743V17.5801L15.0124 17.5054C16.3371 17.2936 17.8004 17.2237 18.7823 17.3256C20.5202 17.5058 21.3269 17.889 22.4134 19.0506C23.0312 19.711 23.2667 20.1242 24.7689 23.1838C25.6869 25.0537 26.704 26.9877 27.029 27.4818C28.4461 29.6354 29.8016 30.415 31.9195 30.2946C32.4729 30.2632 33.0132 30.2016 33.1201 30.1576C33.2947 30.086 33.3144 29.8818 33.3144 28.1554V26.2329L32.7417 26.1101C32.0105 25.9533 31.1664 25.4941 30.7616 25.0331C30.2464 24.4463 29.6843 23.4074 28.5766 20.9946C28.0017 19.7424 27.3321 18.3826 27.0888 17.9727C26.0102 16.1566 24.747 14.9351 23.1523 14.1662C21.9841 13.603 21.1008 13.369 19.5855 13.2218C18.5077 13.1169 18.2121 13.1121 17.2106 13.1838ZM40.2736 13.2245C37.2596 13.4894 35.2599 14.5313 34.4669 16.2498C34.1697 16.894 34.1481 17.0352 34.1477 18.3311C34.1474 19.679 34.1585 19.7439 34.513 20.4644C35.0668 21.5898 35.9148 22.2312 37.5348 22.7497C37.9318 22.8768 39.425 23.2865 40.853 23.6602C43.8362 24.4408 44.2315 24.581 44.5337 24.9652C45.0085 25.5688 44.7199 26.1932 43.8434 26.4585C42.945 26.7305 37.6911 26.6074 35.1192 26.2541L34.6472 26.1893V28.1334C34.6472 30.3733 34.4631 30.0915 36.091 30.344C36.7233 30.442 38.19 30.4903 40.5334 30.4903C43.7865 30.4903 44.0998 30.473 45.0018 30.243C46.8779 29.7645 48.0372 28.9568 48.658 27.6959C48.9606 27.0812 49.0155 26.8333 49.0618 25.8724C49.1288 24.481 48.9063 23.5546 48.3167 22.7699C47.3432 21.4744 46.384 21.0216 42.3327 19.9454C40.6128 19.4886 39.0553 19.037 38.8715 18.9421C38.5073 18.7537 38.3587 18.3792 38.4709 17.9323C38.5214 17.731 38.6972 17.5751 39.066 17.4048C39.5632 17.1751 39.7337 17.1636 42.477 17.1732C44.5585 17.1807 45.7033 17.2349 46.5778 17.3676C47.2451 17.4689 47.8584 17.5517 47.941 17.5517C48.0621 17.5517 48.085 17.1853 48.0605 15.6389L48.03 13.7261L47.5303 13.6391C45.327 13.2562 42.0462 13.0687 40.2736 13.2245ZM56.8594 13.2297C53.13 13.5455 51.1614 14.8037 50.6537 17.1962C50.3035 18.8472 50.6907 20.4613 51.6743 21.4497C52.4286 22.2079 53.5876 22.6764 56.7447 23.4994C60.8573 24.5713 61.1908 24.724 61.1908 25.5352C61.1908 26.024 61.0057 26.2274 60.3578 26.4504C59.5341 26.7338 54.4581 26.6196 51.6118 26.2537L51.0842 26.1858V28.1293V30.0727L51.7228 30.1935C53.2674 30.4854 54.7251 30.5654 57.6551 30.5188C60.3179 30.4763 60.7981 30.4412 61.5619 30.2324C64.0041 29.5651 65.2215 28.3638 65.5385 26.3091C65.7739 24.7829 65.3018 23.1296 64.3758 22.2375C63.9165 21.795 62.8601 21.1644 62.1046 20.8818C61.7751 20.7585 60.1728 20.3056 58.5439 19.8753C56.9149 19.445 55.4675 19.0184 55.3273 18.9273C54.7901 18.5782 54.794 17.8569 55.3352 17.5023C55.8034 17.1954 57.3192 17.0717 59.6914 17.1467C60.9131 17.1852 62.2625 17.2661 62.6901 17.3263C63.1177 17.3864 63.7299 17.4686 64.0506 17.5089L64.6337 17.5823V15.6864C64.6337 13.9779 64.6145 13.7846 64.4393 13.7304C63.9795 13.5882 61.8953 13.3306 60.3566 13.2259C58.519 13.1009 58.378 13.101 56.8594 13.2297ZM82.7009 13.2305C81.5301 13.3542 80.2998 13.7024 79.2937 14.195C78.0475 14.8052 76.6967 16.177 76.098 17.4406C75.4843 18.7355 75.2904 19.5829 75.221 21.2723C75.1721 22.4611 75.2018 22.9095 75.3889 23.8117C76.139 27.428 78.6704 29.6427 82.89 30.3747C84.6639 30.6825 88.555 30.5951 90.4831 30.2041L91.0662 30.0858V28.1502C91.0662 27.0855 91.0537 26.2145 91.0385 26.2145C91.0231 26.2145 90.6607 26.2879 90.2333 26.3775C88.8563 26.6663 86.465 26.7984 85.031 26.6651C82.2622 26.4074 80.6094 25.4854 79.694 23.6878L79.5102 23.3269H85.894H92.2778L92.3523 22.9296C92.3933 22.7112 92.4038 21.849 92.3755 21.0138C92.3308 19.687 92.2816 19.3724 91.9857 18.5223C91.5406 17.2431 91.0578 16.4492 90.1777 15.5496C88.9136 14.2575 87.2364 13.4703 85.2355 13.23C84.1323 13.0974 83.961 13.0975 82.7009 13.2305ZM68.2987 21.9411V30.3286L70.3811 30.2984L72.4635 30.2682L72.4919 21.9109L72.5205 13.5535H70.4095H68.2987V21.9411ZM82.1813 17.3165C81.3346 17.5898 80.9705 17.797 80.4895 18.2796C80.0994 18.6711 79.7405 19.2891 79.5742 19.8562L79.5009 20.1061H83.89H88.279L88.121 19.581C87.7946 18.4962 86.881 17.6246 85.7041 17.2751C84.9055 17.0379 82.9742 17.0606 82.1813 17.3165ZM17.5993 21.6996C15.4836 22.3992 14.31 24.1896 14.4664 26.4794C14.5781 28.1162 15.5178 29.5026 16.9884 30.2005C17.5456 30.4649 17.7212 30.4903 18.9875 30.4903C20.2539 30.4903 20.4295 30.4649 20.9866 30.2005C22.7918 29.3437 23.7794 27.3883 23.4574 25.308C23.218 23.7616 22.3678 22.5993 21.009 21.9609C20.3525 21.6525 20.1338 21.6078 19.1541 21.582C18.4541 21.5636 17.8793 21.607 17.5993 21.6996Z" fill="#0A0620"/>
</svg>
