<svg width="96" height="40" viewBox="0 0 96 40" fill="none" xmlns="http://www.w3.org/2000/svg">
<path d="M6.44469 29.4164C5.90026 28.8606 5.77995 26.935 5.77995 22.5069L5.76791 17.1445C5.76791 12.44 5.76791 11.6019 5.82807 10.6375C5.88823 9.58308 6.12886 9.07237 7.00416 8.92217C7.3335 8.86881 7.66619 8.83869 7.99977 8.83205C8.12009 8.83205 8.2404 8.77197 8.2404 8.6518C8.2404 8.46855 8.09001 8.40846 7.75914 8.40846C7.11767 8.40846 5.82541 8.45373 5.07308 8.48009L5.06805 8.48027L5.06379 8.48042C4.7592 8.49108 4.54499 8.4986 4.50159 8.4986C4.46423 8.4986 4.3188 8.49305 4.1005 8.48465L4.09697 8.48454C3.43525 8.45916 2.11101 8.40846 1.09365 8.40846C0.762778 8.40846 0.609375 8.46855 0.609375 8.6518C0.609375 8.77197 0.732698 8.83205 0.853014 8.83205C1.19694 8.83102 1.54024 8.86118 1.87871 8.92217C2.87432 9.13547 3.11495 9.61313 3.17511 10.6375C3.23527 11.6019 3.23527 12.446 3.23527 17.1445V22.4558C3.23527 25.3458 3.23527 27.725 3.08487 28.9898C2.96455 29.864 2.81115 30.5279 2.20957 30.6481C1.91342 30.7174 1.61119 30.7576 1.3072 30.7682C1.12673 30.7682 1.06657 30.8584 1.06657 30.9485C1.06657 31.1287 1.21697 31.1888 1.54783 31.1888C2.13001 31.1888 2.65487 31.1643 3.15661 31.1408L3.15956 31.1408C3.61849 31.1193 4.05812 31.0987 4.5046 31.0987C6.01031 31.0987 7.4211 31.1465 8.78953 31.1929C10.0782 31.2366 11.3293 31.2789 12.5868 31.2789C14.187 31.2789 14.2773 31.1588 14.4878 30.4678C14.7169 29.4798 14.8678 28.4753 14.939 27.4637C14.939 27.1332 14.939 27.0131 14.7585 27.0131C14.578 27.0131 14.5179 27.1633 14.4878 27.4036C14.3723 28.058 14.1033 28.6757 13.7027 29.2061C12.9778 30.0773 11.6514 30.1073 10.0542 30.1073C7.71102 30.1073 6.92596 29.897 6.44469 29.4164Z" fill="#0A0620"/>
<path d="M21.794 21.3623C21.794 25.7003 22.7595 27.5658 24.0559 28.8005C25.5358 30.1884 26.8924 30.4588 28.6129 30.4588C29.5101 30.4538 30.3961 30.2587 31.2123 29.8864C32.0284 29.5141 32.7561 28.973 33.3473 28.2989C34.734 26.5805 35.0949 24.021 35.0949 20.9177V17.1445C35.0949 12.446 35.0949 11.6019 35.0347 10.6375C34.9746 9.61313 34.734 9.13547 33.7383 8.92217C33.3999 8.86105 33.0566 8.83089 32.7127 8.83205C32.5923 8.83205 32.472 8.77197 32.472 8.6518C32.472 8.46855 32.6224 8.40846 32.9533 8.40846C33.9429 8.40846 35.0856 8.45622 35.7072 8.48224C35.8114 8.4866 35.9016 8.49034 35.9733 8.49315C36.0612 8.49658 36.1223 8.4986 36.1507 8.4986C36.2101 8.4986 36.3924 8.48973 36.6426 8.47759L36.6462 8.47737L36.6507 8.47715C37.1992 8.45055 38.0674 8.40846 38.6833 8.40846C39.0172 8.40846 39.1676 8.46855 39.1676 8.6518C39.1676 8.77197 39.0473 8.83205 38.927 8.83205C38.6732 8.84061 38.4206 8.87075 38.172 8.92217C37.3568 9.10241 37.1162 9.58308 37.0561 10.6375C36.9959 11.6018 36.9959 12.4399 36.9959 17.1434V20.3679C36.9959 23.6214 36.6349 27.2354 34.2196 29.3803C32.0509 31.303 29.789 31.6034 28.0173 31.6034C26.9916 31.6034 23.9446 31.4832 21.803 29.4645C20.3261 28.0495 19.1801 25.9406 19.1801 21.5426V17.1445C19.1801 12.446 19.1801 11.6019 19.12 10.6375C19.0598 9.61313 18.8192 9.13547 17.8236 8.92217C17.4851 8.86105 17.1418 8.83089 16.7979 8.83205C16.6776 8.83205 16.5572 8.77197 16.5572 8.6518C16.5572 8.46855 16.7076 8.40846 17.0385 8.40846C17.9739 8.40846 19.1395 8.45135 19.8619 8.4779L19.866 8.47806L19.8687 8.47817C20.1905 8.49003 20.4232 8.4986 20.5066 8.4986C20.6023 8.4986 20.8905 8.48734 21.263 8.47278C21.9444 8.44614 22.9081 8.40846 23.4935 8.40846C23.8243 8.40846 23.9747 8.46855 23.9747 8.6518C23.9747 8.77197 23.8544 8.83205 23.7341 8.83205C23.4813 8.8408 23.2298 8.87096 22.9821 8.92217C22.167 9.04234 21.9263 9.58308 21.8662 10.6375C21.803 11.6019 21.803 12.44 21.803 17.1445L21.794 21.3623Z" fill="#0A0620"/>
<path d="M42.9366 29.6447C42.9366 30.4588 42.9696 30.579 43.3907 30.7893C44.6607 31.3686 46.0468 31.6492 47.4424 31.6094C49.0727 31.6094 50.6999 31.2459 51.9963 30.3447C52.7854 29.769 53.4285 29.0167 53.874 28.1481C54.3196 27.2795 54.5552 26.3187 54.5621 25.3428C54.5621 22.9334 53.7168 21.0649 50.1585 18.265L49.3133 17.6011C46.4197 15.342 45.6346 14.2575 45.6346 12.5422C45.6346 10.3431 47.2619 9.04834 49.3434 9.04834C52.1197 9.04834 52.9318 10.3131 53.1123 10.6435C53.3178 11.1218 53.4506 11.6281 53.5063 12.1456C53.5364 12.3859 53.5965 12.5362 53.7469 12.5362C53.8973 12.5362 53.9575 12.3259 53.9575 11.8422C53.9575 10.2361 54.0316 9.27992 54.0635 8.86895C54.0722 8.75649 54.0778 8.68471 54.0778 8.6518C54.0778 8.49858 54.0176 8.43852 53.777 8.43852C53.4207 8.42647 53.0667 8.3761 52.7212 8.28831C51.8023 8.07596 50.861 7.9751 49.9179 7.9879C46.0798 7.9879 43.6735 10.1869 43.6735 13.4104C43.6735 15.4592 44.3863 17.3247 47.5837 19.9444L48.9403 21.0589C51.5331 23.1978 52.4084 24.4025 52.4084 26.4813C52.4084 28.41 50.9917 30.4889 48.0951 30.4889C46.0738 30.4889 44.0856 29.6447 43.6314 27.4156C43.5622 27.0483 43.5319 26.6747 43.5411 26.3011C43.5411 26.0608 43.481 25.9706 43.3306 25.9706C43.1802 25.9706 43.12 26.1208 43.0899 26.4513C43.0837 26.5523 43.0736 26.6835 43.0613 26.8414C43.0143 27.4493 42.9366 28.4524 42.9366 29.6447Z" fill="#0A0620"/>
<path d="M62.0066 17.1445C62.0066 12.446 62.0066 11.6019 61.9464 10.6375C61.8862 9.61313 61.5825 9.10241 60.9207 8.95221C60.6148 8.87534 60.3007 8.83502 59.9853 8.83205C59.8649 8.83205 59.7446 8.77197 59.7446 8.6518C59.7446 8.46855 59.895 8.40846 60.2259 8.40846C60.9429 8.40846 62.1293 8.4552 62.7934 8.48136C63.0516 8.49154 63.2308 8.4986 63.2729 8.4986C63.3165 8.4986 63.5072 8.49103 63.7781 8.48027C64.4417 8.45394 65.5861 8.40846 66.2267 8.40846C66.5605 8.40846 66.7109 8.46855 66.7109 8.6518C66.7109 8.77197 66.5906 8.83205 66.4703 8.83205C66.2165 8.84061 65.9639 8.87075 65.7153 8.92217C64.9002 9.07237 64.6595 9.58308 64.5994 10.6375C64.5392 11.6017 64.5392 12.4398 64.5392 17.1423V22.4468C64.5392 25.3368 64.5392 27.716 64.6896 28.9808C64.7798 29.855 64.9603 30.5189 65.8657 30.6391C66.2868 30.6992 66.9215 30.7592 67.1019 30.7592C67.3727 30.7592 67.4629 30.8494 67.4629 30.9395C67.4629 31.0897 67.3426 31.1798 67.0117 31.1798C65.738 31.1798 64.3027 31.1266 63.6381 31.1019C63.438 31.0945 63.3077 31.0897 63.2729 31.0897C63.2293 31.0897 63.039 31.0972 62.7686 31.108C62.105 31.1343 60.9591 31.1798 60.3161 31.1798C59.9853 31.1798 59.8349 31.1197 59.8349 30.9395C59.8349 30.8494 59.895 30.7592 60.1657 30.7592C60.4297 30.7539 60.6925 30.7237 60.9508 30.6691C61.5524 30.549 61.7329 29.855 61.8532 28.9808C62.0066 27.716 62.0066 25.3368 62.0066 22.4468V17.1445Z" fill="#0A0620"/>
<path fill-rule="evenodd" clip-rule="evenodd" d="M83.2634 7.9879C74.9376 7.9879 71.3792 14.8854 71.3792 19.7641C71.3792 25.1866 74.8173 31.6034 83.083 31.6004C90.35 31.6004 95.1145 26.0307 95.1145 19.2834C95.1145 12.2658 90.0462 7.9879 83.2634 7.9879ZM83.0499 9.0123C87.8144 9.0123 92.2179 12.8966 92.2179 20.1276C92.2179 28.8997 86.6082 30.4588 83.8951 30.4618C78.4568 30.4618 74.2458 25.9436 74.2458 18.9259C74.2458 12.3168 78.0146 9.0123 83.0499 9.0123Z" fill="#0A0620"/>
</svg>
