<svg width="98" height="23" viewBox="0 0 98 23" fill="none" xmlns="http://www.w3.org/2000/svg">
<path d="M10.8949 10.7L12.3552 12.9235L15.3005 8.43314V18.3764H17.8341V3.9139H15.2466L10.8949 10.7ZM3.78418 3.9139H1.22119V18.3764H3.76458V8.43314L9.53252 17.2598L11.0027 15.0074L3.78418 3.9139ZM33.0699 13.8909L35.4172 18.3764H38.4703L30.8058 3.9139H28.0517L28.0468 3.91872L31.8888 11.5855H26.7874L28.1154 9.08768L26.7286 6.36844L20.2696 18.3764H23.1267L25.5426 13.8957L33.0699 13.8909ZM55.3919 3.9139H52.8485V10.9358L55.3919 13.3807V3.9139ZM43.1258 3.9139H40.5432V18.3764H43.0866V7.56683L53.5003 18.3764H55.3919V16.6197L43.1258 3.9139ZM73.1466 7.92779C71.9361 6.72459 70.069 5.95454 67.9765 5.95454C64.6343 5.95454 61.8753 7.91817 61.4343 10.4641H58.636C59.0036 6.50801 63.2279 3.59626 68.0108 3.59626C70.8531 3.59626 73.4112 4.61176 75.1313 6.24331L73.1466 7.92779ZM67.7413 16.355C64.9528 16.355 62.5761 14.9064 61.694 12.885H58.8419C59.7877 16.3743 63.4974 18.6989 67.903 18.6989C68.9272 18.6989 70.1033 18.6026 71.0785 18.3716C73.2838 17.847 75.6949 16.4754 75.6949 14.3096V10.4641H67.7168L67.7119 12.885H73.1466V13.9823C73.1466 15.1951 71.2501 15.8978 70.0935 16.1433C69.4712 16.278 68.6675 16.355 68.0255 16.355H67.7413ZM96.7035 11.1572C96.7035 6.84491 92.6116 3.5 87.5885 3.5C82.7222 3.5 78.449 6.6909 78.449 10.9262C78.449 14.9208 81.8058 18.1213 86.3241 18.6267V16.2106C83.3642 15.7438 81.1296 13.631 81.1296 11.085C81.1296 8.19731 84.0062 5.85828 87.5493 5.85828C91.0973 5.85828 93.969 8.20212 93.969 11.085C93.969 13.6117 91.7687 15.7101 88.843 16.201V18.6219C93.1898 18.1165 96.7035 15.0363 96.7035 11.1572Z" fill="#0A0620"/>
</svg>
