<svg width="177" height="42" viewBox="0 0 177 42" fill="none" xmlns="http://www.w3.org/2000/svg">
<path d="M169.233 32.7076C166.827 32.7076 164.869 31.9735 163.36 30.5051C161.871 29.0368 161.127 27.0586 161.127 24.5706V24.3258C161.127 21.8786 161.871 19.8902 163.36 18.3607C164.869 16.8312 166.776 16.0664 169.08 16.0664C171.242 16.0664 173.037 16.7394 174.464 18.0854C175.912 19.4314 176.636 21.4503 176.636 24.1423V25.213H164.92C164.981 26.7425 165.379 27.9151 166.113 28.7309C166.868 29.5466 167.938 29.9545 169.325 29.9545C171.487 29.9545 172.711 29.1387 172.996 27.5072H176.575C176.31 29.1999 175.535 30.4949 174.25 31.3922C172.986 32.2692 171.314 32.7076 169.233 32.7076ZM172.965 22.7351C172.762 20.084 171.467 18.7584 169.08 18.7584C167.979 18.7584 167.062 19.1153 166.327 19.829C165.614 20.5224 165.165 21.4911 164.981 22.7351H172.965Z" fill="white"/>
<path d="M152.408 32.7076C150.063 32.7076 148.125 31.9837 146.596 30.5357C145.087 29.0674 144.332 27.0892 144.332 24.6011V24.3564C144.332 21.8888 145.097 19.8902 146.626 18.3607C148.176 16.8312 150.103 16.0664 152.408 16.0664C154.366 16.0664 156.028 16.5559 157.394 17.5348C158.761 18.4933 159.535 20.0024 159.719 22.0621H156.14C155.834 20.0432 154.61 19.0337 152.469 19.0337C151.184 19.0337 150.134 19.5027 149.318 20.4408C148.523 21.379 148.125 22.6638 148.125 24.2952V24.54C148.125 26.2734 148.513 27.599 149.288 28.5167C150.083 29.4141 151.174 29.8627 152.561 29.8627C153.581 29.8627 154.447 29.567 155.161 28.9756C155.875 28.3842 156.293 27.5378 156.415 26.4366H159.811C159.688 28.2924 158.954 29.8015 157.608 30.964C156.262 32.1264 154.529 32.7076 152.408 32.7076Z" fill="white"/>
<path d="M127.592 16.4029H131.293V18.9419C131.701 18.1058 132.344 17.4226 133.22 16.8923C134.118 16.3417 135.199 16.0664 136.463 16.0664C138.156 16.0664 139.491 16.5864 140.47 17.6265C141.449 18.6462 141.939 20.2165 141.939 22.3375V32.4017H138.237V22.674C138.237 21.4503 137.982 20.5632 137.473 20.0126C136.963 19.4416 136.157 19.156 135.056 19.156C133.955 19.156 133.047 19.4925 132.333 20.1655C131.64 20.8181 131.293 21.7562 131.293 22.9799V32.4017H127.592V16.4029Z" fill="white"/>
<path d="M115.609 32.7076C114.039 32.7076 112.754 32.3201 111.755 31.5452C110.755 30.7498 110.256 29.5568 110.256 27.9661C110.256 26.2122 111 24.9274 112.489 24.1117C113.998 23.296 115.986 22.8881 118.454 22.8881H120.442V22.0621C120.442 20.9405 120.228 20.1247 119.8 19.6149C119.372 19.1051 118.617 18.8501 117.536 18.8501C115.721 18.8501 114.702 19.6863 114.477 21.3586H110.898C111.061 19.5843 111.765 18.2587 113.009 17.3818C114.253 16.5049 115.834 16.0664 117.751 16.0664C122.013 16.0664 124.144 18.014 124.144 21.9092V32.4017H120.504V30.4439C119.321 31.9531 117.689 32.7076 115.609 32.7076ZM116.496 30.0463C117.679 30.0463 118.627 29.7607 119.341 29.1897C120.075 28.6187 120.442 27.8233 120.442 26.8037V25.213H118.546C115.466 25.213 113.927 26.0797 113.927 27.8132C113.927 29.3019 114.783 30.0463 116.496 30.0463Z" fill="white"/>
<path d="M104.004 9H107.705V32.4017H104.004V9Z" fill="white"/>
<path d="M91.9315 32.7076C90.3611 32.7076 89.0763 32.3201 88.0771 31.5452C87.0778 30.7498 86.5781 29.5568 86.5781 27.9661C86.5781 26.2122 87.3225 24.9274 88.8112 24.1117C90.3204 23.296 92.3087 22.8881 94.7764 22.8881H96.7647V22.0621C96.7647 20.9405 96.5506 20.1247 96.1224 19.6149C95.6941 19.1051 94.9395 18.8501 93.8587 18.8501C92.0436 18.8501 91.0239 19.6863 90.7996 21.3586H87.2205C87.3837 19.5843 88.0872 18.2587 89.3313 17.3818C90.5753 16.5049 92.1558 16.0664 94.0728 16.0664C98.3351 16.0664 100.466 18.014 100.466 21.9092V32.4017H96.8259V30.4439C95.6431 31.9531 94.0116 32.7076 91.9315 32.7076ZM92.8186 30.0463C94.0014 30.0463 94.9497 29.7607 95.6635 29.1897C96.3977 28.6187 96.7647 27.8233 96.7647 26.8037V25.213H94.8681C91.7887 25.213 90.249 26.0797 90.249 27.8132C90.249 29.3019 91.1055 30.0463 92.8186 30.0463Z" fill="white"/>
<path d="M69.0996 10.5288H76.9308C81.7029 10.5288 84.0889 12.4254 84.0889 16.2186V16.341C84.0889 18.7271 82.9367 20.277 80.6322 20.9908C82.121 21.317 83.2222 21.8983 83.936 22.7344C84.6498 23.5502 85.0067 24.6922 85.0067 26.1605V26.2829C85.0067 28.3019 84.3643 29.8314 83.0795 30.8715C81.7947 31.8912 79.9388 32.401 77.512 32.401H69.0996V10.5288ZM77.0225 29.4949C79.6737 29.4949 80.9993 28.3325 80.9993 26.0076V25.8852C80.9993 24.7228 80.6628 23.8663 79.9898 23.3156C79.3168 22.765 78.236 22.4897 76.7472 22.4897H73.0764V29.4949H77.0225ZM76.4413 19.7365C77.7669 19.7365 78.7152 19.4816 79.2862 18.9718C79.8777 18.4619 80.1734 17.6462 80.1734 16.5245V16.4022C80.1734 15.3621 79.8675 14.6075 79.2556 14.1385C78.6438 13.6694 77.6853 13.4349 76.3801 13.4349H73.0764V19.7365H76.4413Z" fill="white"/>
<path d="M36.5977 16.4028H40.5438L43.7252 27.966L47.1208 16.4028H50.2104L53.3306 27.966L56.665 16.4028H60.2747L55.2578 32.4017H51.4952L48.5279 21.6338L45.2853 32.4017H41.4921L36.5977 16.4028Z" fill="white"/>
<path d="M28.5772 32.7076C26.1707 32.7076 24.2129 31.9735 22.7038 30.5051C21.2151 29.0368 20.4707 27.0586 20.4707 24.5706V24.3258C20.4707 21.8786 21.2151 19.8902 22.7038 18.3607C24.2129 16.8312 26.1197 16.0664 28.4242 16.0664C30.586 16.0664 32.3806 16.7394 33.8082 18.0854C35.2561 19.4314 35.9801 21.4503 35.9801 24.1423V25.213H24.2639C24.3251 26.7425 24.7228 27.9151 25.457 28.7309C26.2115 29.5466 27.2822 29.9545 28.669 29.9545C30.8307 29.9545 32.0543 29.1387 32.3398 27.5072H35.9189C35.6538 29.1999 34.8788 30.4949 33.594 31.3922C32.3296 32.2692 30.6573 32.7076 28.5772 32.7076ZM32.3092 22.7351C32.1053 20.084 30.8103 18.7584 28.4242 18.7584C27.323 18.7584 26.4053 19.1153 25.6711 19.829C24.9573 20.5224 24.5086 21.4911 24.3251 22.7351H32.3092Z" fill="white"/>
<path d="M0 10.5288H4.86389L14.0716 26.3441V10.5288H17.7731V32.401H13.5516L3.70145 15.6374V32.401H0V10.5288Z" fill="white"/>
</svg>
