<svg width="140" height="42" viewBox="0 0 140 42" fill="none" xmlns="http://www.w3.org/2000/svg">
<path fill-rule="evenodd" clip-rule="evenodd" d="M14.9456 32.9536L8.24185 18.1905C7.59141 16.77 6.17568 15.8535 4.60689 15.8535H0L8.96122 35.5351C9.67294 37.0778 11.433 37.9408 13.0401 37.3833C14.8844 36.7494 15.7415 34.6873 14.9456 32.9536Z" fill="white"/>
<path fill-rule="evenodd" clip-rule="evenodd" d="M14.9688 19.2369C14.9688 21.108 16.484 22.6202 18.3589 22.6202C20.2338 22.6202 21.749 21.108 21.749 19.2369V15.8535L18.3589 15.8612C16.484 15.8612 14.9688 17.3657 14.9688 19.2369Z" fill="white"/>
<path fill-rule="evenodd" clip-rule="evenodd" d="M30.1875 8.32226C30.1875 10.1934 31.7027 11.7056 33.5776 11.7056C35.4525 11.7056 36.9754 10.1934 36.9754 8.32226V5H33.5776C31.7027 5 30.1875 6.45874 30.1875 8.32226Z" fill="white"/>
<path fill-rule="evenodd" clip-rule="evenodd" d="M36.9682 15.8612L26.0938 15.8535V18.0225H30.4481V34.145C30.4481 36.0315 31.9786 37.559 33.8611 37.559H36.9605V15.8612H36.9682Z" fill="white"/>
<path fill-rule="evenodd" clip-rule="evenodd" d="M47.8506 18.0217V34.2283C47.8506 36.1147 49.3888 37.5581 51.279 37.5581H54.3707V18.0217H58.725V15.8527L54.3707 15.8603V8.41391C54.3707 6.52747 52.8401 5 50.9576 5H47.8582V15.8603H43.5039V18.0217H47.8506Z" fill="white"/>
<path fill-rule="evenodd" clip-rule="evenodd" d="M89.168 5V37.5581H92.2675C94.1494 37.5581 95.6877 36.046 95.6877 34.1824V8.36045C95.6877 6.47401 94.1575 5 92.2675 5H89.168Z" fill="white"/>
<path fill-rule="evenodd" clip-rule="evenodd" d="M106.561 18.0227V37.5591H109.676C111.512 37.5591 113.104 36.0698 113.104 34.2139L113.089 15.8613H102.214L102.207 18.0227H106.561Z" fill="white"/>
<path fill-rule="evenodd" clip-rule="evenodd" d="M106.309 8.38336C106.309 10.2545 107.823 11.7667 109.699 11.7667C111.573 11.7667 113.089 10.2545 113.089 8.38336V5H109.699C107.823 5 106.309 6.51984 106.309 8.38336Z" fill="white"/>
<path fill-rule="evenodd" clip-rule="evenodd" d="M67.6931 20.4514L74.3968 35.2145C75.0472 36.635 76.463 37.5591 78.0318 37.5591H82.646L73.6774 17.87C72.9657 16.3272 71.2056 15.4642 69.5985 16.0218C67.7466 16.6557 66.8972 18.7177 67.6931 20.4514Z" fill="white"/>
<path fill-rule="evenodd" clip-rule="evenodd" d="M67.6787 34.1685C67.6787 32.2974 66.1634 30.7852 64.2885 30.7852C62.4136 30.7852 60.8984 32.3051 60.8984 34.1762V37.5595H64.2962C66.1711 37.5595 67.6787 36.0397 67.6787 34.1685Z" fill="white"/>
<path fill-rule="evenodd" clip-rule="evenodd" d="M132.398 32.9536L125.695 18.1905C125.044 16.77 123.628 15.8535 122.06 15.8535H117.445L126.406 35.5351C127.118 37.0778 128.878 37.9408 130.485 37.3833C132.337 36.7494 133.186 34.6873 132.398 32.9536Z" fill="white"/>
<path fill-rule="evenodd" clip-rule="evenodd" d="M132.406 19.2369C132.406 21.108 133.921 22.6202 135.796 22.6202C137.671 22.6202 139.186 21.108 139.186 19.2369V15.8535L135.796 15.8612C133.921 15.8612 132.406 17.3657 132.406 19.2369Z" fill="white"/>
</svg>
