<svg width="378" height="77" viewBox="0 0 378 77" fill="none" xmlns="http://www.w3.org/2000/svg">
<path d="M107.525 19.4281H121.733V27.0504C122.935 24.1261 124.545 22.0408 126.565 20.7943C128.584 19.5 131.012 18.8767 133.849 18.9247V27.8106V32.156C133.194 32.1162 132.565 32.0975 131.961 32.1C128.934 32.1126 126.558 32.6586 124.834 33.738C122.766 34.9844 121.733 36.9739 121.733 39.7064V57.0365H107.525V19.4281Z" fill="white"/>
<path fill-rule="evenodd" clip-rule="evenodd" d="M149.331 57.8329L171.927 45.4996L172.198 45.3557C172.946 43.2475 173.319 40.9125 173.319 38.3507V37.7754C173.319 34.7553 172.767 32.0467 171.661 29.6497C170.603 27.2527 169.137 25.2393 167.262 23.6093C165.386 21.9315 163.175 20.6611 160.627 19.7982C158.079 18.8873 155.338 18.4319 152.405 18.4319C149.424 18.4319 146.636 18.8873 144.039 19.7982C141.491 20.709 139.28 22.0273 137.405 23.7532C135.53 25.431 134.039 27.4924 132.933 29.9373C131.876 32.3343 131.347 35.0669 131.347 38.135V38.7103C131.347 41.8263 131.876 44.5828 132.933 46.9798C134.039 49.3288 135.53 51.3423 137.405 53.0202C139.328 54.6501 141.563 55.8965 144.112 56.7595C145.77 57.2899 147.51 57.6477 149.331 57.8329ZM152.405 47.5551C156.732 47.5551 158.896 44.5109 158.896 38.4226V37.9193C158.896 34.947 158.367 32.6939 157.309 31.1598C156.252 29.6257 154.617 28.8587 152.405 28.8587C150.242 28.8587 148.583 29.6018 147.429 31.0879C146.275 32.5261 145.698 34.7313 145.698 37.7035V38.2788C145.698 44.463 147.934 47.5551 152.405 47.5551Z" fill="white"/>
<path d="M55.8479 19.433H41.6406V57.0415H55.8479V36.2597C55.8479 34.0066 56.3287 32.3527 57.2903 31.298C58.2999 30.2433 59.6942 29.716 61.4731 29.716C63.1559 29.716 64.3579 30.1954 65.079 31.1542C65.8483 32.113 66.2329 33.5512 66.2329 35.4687V56.9555L80.4402 49.2008V32.3047C80.4402 29.9557 80.1277 27.9183 79.5027 26.1925C78.9257 24.4666 78.1084 23.0285 77.0507 21.8779C75.9929 20.7274 74.7188 19.8645 73.2284 19.2892C71.738 18.7139 70.1033 18.4263 68.3244 18.4263C65.1512 18.4263 62.5309 19.0974 60.4635 20.4397C58.4442 21.782 56.9056 23.4599 55.8479 25.4734V19.433Z" fill="white"/>
<path fill-rule="evenodd" clip-rule="evenodd" d="M17.2589 29.1621C17.918 28.5238 18.9505 28.2046 20.3564 28.2046C21.318 28.2046 22.0873 28.3484 22.6642 28.636C23.2412 28.8757 23.6739 29.2592 23.9624 29.7866C24.2989 30.266 24.5153 30.8413 24.6114 31.5124C24.7076 32.1836 24.7557 32.9026 24.7557 33.6697V34.3169H21.5103C14.9716 34.3169 9.94738 35.2756 6.43763 37.1932C2.97595 39.0629 1.24512 42.2029 1.24512 46.6133C1.24512 48.6268 1.58167 50.3526 2.25477 51.7908C2.97595 53.229 3.91349 54.4035 5.06738 55.3143C6.26935 56.2252 7.6396 56.8963 9.17812 57.3278C10.7647 57.7592 12.3994 57.975 14.0822 57.975C15.6207 57.975 16.9669 57.8072 18.1208 57.4716C19.3228 57.184 20.3805 56.8005 21.294 56.3211C22.2075 55.8417 22.9767 55.2904 23.6018 54.6671C24.2268 54.0439 24.7316 53.3968 25.1163 52.7256V57.0401H38.8187V32.7349C38.8187 27.7971 37.2562 24.1777 34.131 21.8766C31.0059 19.5275 26.7029 18.353 21.2219 18.353C18.5295 18.353 16.0534 18.6407 13.7937 19.2159C13.1204 19.3911 12.4739 19.5951 11.8541 19.8279L17.2589 29.1621ZM23.1691 47.2605C22.1594 48.0755 20.8372 48.483 19.2026 48.483C17.9044 48.483 16.9188 48.2193 16.2457 47.692C15.5726 47.1646 15.2361 46.4455 15.2361 45.5347C15.2361 44.1924 15.7168 43.2576 16.6784 42.7302C17.64 42.2029 19.3228 41.9392 21.7267 41.9392H24.7557V43.8808C24.7557 45.271 24.2268 46.3976 23.1691 47.2605Z" fill="white"/>
<path d="M97.1864 57.9757C92.7151 57.9757 89.2774 56.9211 86.8735 54.8117C84.4695 52.7024 83.2676 49.2747 83.2676 44.5287V11.8101H97.4749V19.5043H104.687V32.3875H97.4749V43.1624C97.4749 44.4568 97.7874 45.3916 98.4124 45.9669C99.0855 46.5422 99.999 46.8298 101.153 46.8298C102.403 46.8298 103.581 46.6381 104.687 46.2545V56.8971C103.821 57.1368 102.74 57.3765 101.441 57.6162C100.143 57.8559 98.7249 57.9757 97.1864 57.9757Z" fill="white"/>
<path d="M196.565 31.2866L210.992 45.7135M210.992 31.2866L196.565 45.7135" stroke="white" stroke-width="1.44269"/>
<g clip-path="url(#clip0_1988_4914)">
<path d="M284.722 62.439L271.959 48.5472V57.3917H244.249C246.774 51.4462 252.902 47.8006 259.363 43.9573L260.182 43.4694C262.856 41.9013 265.643 40.2655 268.201 38.362H268.18C273.428 34.498 276.846 28.2567 276.846 21.2242C276.846 9.52189 267.389 0 255.766 0C244.142 0 234.685 9.52189 234.685 21.2242C234.685 29.7811 239.743 37.1655 247.005 40.521C239.631 45.7084 232.992 52.8043 232.992 65.6644V66.7925H271.958V77L284.721 62.439H284.722ZM255.766 9.52931C262.17 9.52931 267.382 14.776 267.382 21.225C267.382 27.6741 262.17 32.9199 255.766 32.9199C249.361 32.9199 244.149 27.6741 244.149 21.225C244.149 14.776 249.361 9.52931 255.766 9.52931Z" fill="white"/>
<path d="M302.908 41.2949C305.634 41.2949 306.126 42.8181 306.126 43.9535C306.126 45.163 305.426 45.7903 304.413 46.1337V46.1485C305.217 46.3132 306.633 46.9101 306.633 48.8219C306.633 51.3306 304.488 51.7488 302.64 51.7488H297.68V41.2949H302.909H302.908ZM300.137 45.4165H302.401C303.399 45.4165 303.623 44.7447 303.623 44.3413C303.623 43.9082 303.385 43.3261 302.297 43.3261H300.137V45.4165ZM300.137 49.7177H302.685C303.117 49.7177 304.041 49.4937 304.041 48.5378C304.041 47.5819 303.266 47.3432 302.373 47.3432H300.138V49.7177H300.137Z" fill="white"/>
<path d="M307.957 43.3239V41.2927H316.716V43.3239H313.573V51.7466H311.115V43.3239H307.957Z" fill="white"/>
<path d="M317.434 46.5203C317.434 44.0857 318.596 40.9949 322.707 40.9949C326.297 40.9949 327.981 43.3546 327.981 46.5203C327.981 49.686 326.297 52.0457 322.707 52.0457C318.596 52.0457 317.434 48.9541 317.434 46.5203ZM325.329 46.5203C325.329 45.5644 325.21 43.026 322.707 43.026C321.351 43.026 320.1 43.758 320.1 46.5203C320.1 49.2826 321.352 50.0145 322.707 50.0145C325.21 50.0145 325.329 47.4013 325.329 46.5203Z" fill="white"/>
<path d="M334.996 41.2935C337.097 41.2935 338.928 42.0848 338.928 44.6684C338.928 47.9535 336.202 48.1478 334.936 48.1478H332.597V51.7466H330.139V41.2927H334.995L334.996 41.2935ZM332.598 46.1175H334.52C335.697 46.1175 336.277 45.6992 336.277 44.6841C336.277 43.2654 335.071 43.3247 334.52 43.3247H332.598V46.1175Z" fill="white"/>
<path d="M340.346 46.5203C340.346 44.0857 341.508 40.9949 345.619 40.9949C349.209 40.9949 350.893 43.3546 350.893 46.5203C350.893 49.686 349.209 52.0457 345.619 52.0457C341.508 52.0457 340.346 48.9541 340.346 46.5203ZM348.241 46.5203C348.241 45.5644 348.122 43.026 345.619 43.026C344.263 43.026 343.013 43.758 343.013 46.5203C343.013 49.2826 344.264 50.0145 345.619 50.0145C348.122 50.0145 348.241 47.4013 348.241 46.5203Z" fill="white"/>
<path d="M360.606 45.4462V47.3728H355.511V49.7177H361.44V51.7488H353.053V41.2949H361.291V43.3261H355.51V45.447H360.605L360.606 45.4462Z" fill="white"/>
<path d="M308.196 64.651L308.077 69.0419H305.902V66.6822H298.856V69.0419H296.682L296.562 64.651H297.591C298.797 62.8438 299.17 60.8727 299.17 58.6472V56.2283H306.723V64.651H308.198H308.196ZM301.478 58.2594L301.463 59.4986C301.419 61.8278 301.136 63.337 300.257 64.651H304.264V58.2594H301.478Z" fill="white"/>
<path d="M312.351 60.0214H314.943C317.982 60.0214 318.682 61.8582 318.682 63.4415C318.682 65.7115 317.327 66.6822 314.928 66.6822H309.893V56.2283H312.351V60.0214ZM312.351 64.651H314.436C315.434 64.651 316.03 64.3077 316.03 63.3518C316.03 62.3366 315.375 62.0526 314.361 62.0526H312.35V64.651H312.351ZM321.93 56.2283V66.6822H319.472V56.2283H321.93Z" fill="white"/>
<path d="M326.577 66.6814H323.479L327.143 61.2457L323.806 56.2283H326.726L328.723 59.6632L330.734 56.2283H333.654L330.302 61.2457L333.981 66.6814H330.883L328.723 63.0826L326.577 66.6814Z" fill="white"/>
<path d="M341.24 56.2283L345.158 66.6822H342.551L341.881 64.7259H338.097L337.442 66.6822H334.85L338.752 56.2283H341.24ZM341.345 62.9483L340.003 58.9609L338.633 62.9483H341.344H341.345Z" fill="white"/>
<path d="M348.954 66.6822H346.496V56.2283H348.954V60.1556H352.738V56.2283H355.196V66.6822H352.738V62.1868H348.954V66.6822Z" fill="white"/>
<path d="M364.478 56.2283H366.936V66.6822H364.478V59.8575L360.321 66.6822H357.863V56.2283H360.321V62.978L364.478 56.2283Z" fill="white"/>
<path d="M377.154 60.3795V62.3061H372.06V64.651H377.989V66.6822H369.602V56.2283H377.839V58.2594H372.059V60.3804H377.154L377.154 60.3795Z" fill="white"/>
</g>
<defs>
<clipPath id="clip0_1988_4914">
<rect width="145" height="77" fill="white" transform="translate(232.992)"/>
</clipPath>
</defs>
</svg>
