<svg width="59" height="17" viewBox="0 0 59 17" fill="none" xmlns="http://www.w3.org/2000/svg">
<path d="M36.6602 3.57182H41.3645V6.09575C41.7625 5.12745 42.2958 4.43694 42.9644 4.02422C43.6331 3.59563 44.437 3.38927 45.3763 3.40515V6.34746V7.78631C45.1594 7.77312 44.9511 7.76695 44.7514 7.76778C43.7489 7.77196 42.9622 7.95275 42.3913 8.31014C41.7068 8.72286 41.3645 9.38162 41.3645 10.2864V16.0248H36.6602V3.57182Z" fill="#615E71"/>
<path fill-rule="evenodd" clip-rule="evenodd" d="M50.4981 16.2887L57.9801 12.2049L58.0698 12.1572C58.3173 11.4592 58.4411 10.686 58.4411 9.83774V9.64725C58.4411 8.6472 58.258 7.75034 57.8918 6.95665C57.5416 6.16296 57.056 5.49626 56.4352 4.95655C55.8143 4.40097 55.082 3.98032 54.2382 3.69459C53.3944 3.39299 52.487 3.24219 51.5159 3.24219C50.5289 3.24219 49.6055 3.39299 48.7458 3.69459C47.9021 3.99619 47.1698 4.43272 46.5489 5.00418C45.928 5.55976 45.4345 6.24233 45.0683 7.05189C44.7181 7.84558 44.543 8.75038 44.543 9.76631V9.95679C44.543 10.9886 44.7181 11.9013 45.0683 12.695C45.4345 13.4728 45.928 14.1395 46.5489 14.6951C47.1857 15.2348 47.926 15.6475 48.7697 15.9333C49.3189 16.1089 49.895 16.2274 50.4981 16.2887ZM51.5159 12.8855C52.9487 12.8855 53.6651 11.8775 53.6651 9.86155V9.69488C53.6651 8.7107 53.49 7.96463 53.1397 7.45667C52.7895 6.94871 52.2482 6.69473 51.5159 6.69473C50.7995 6.69473 50.2503 6.94078 49.8682 7.43286C49.4861 7.90908 49.2951 8.63927 49.2951 9.62344V9.81393C49.2951 11.8616 50.0353 12.8855 51.5159 12.8855Z" fill="#615E71"/>
<path d="M19.5481 3.57358H14.8438V16.0266H19.5481V9.14528C19.5481 8.39921 19.7073 7.85156 20.0257 7.50234C20.36 7.15312 20.8217 6.97851 21.4107 6.97851C21.9679 6.97851 22.3659 7.13724 22.6047 7.45472C22.8594 7.77219 22.9868 8.24841 22.9868 8.88336V15.9981L27.6911 13.4303V7.83569C27.6911 7.05788 27.5876 6.38324 27.3807 5.81178C27.1896 5.24033 26.919 4.76412 26.5688 4.38314C26.2185 4.00217 25.7967 3.71645 25.3031 3.52596C24.8096 3.33548 24.2683 3.24023 23.6793 3.24023C22.6286 3.24023 21.761 3.46247 21.0764 3.90693C20.4078 4.3514 19.8983 4.90698 19.5481 5.57368V3.57358Z" fill="#615E71"/>
<path fill-rule="evenodd" clip-rule="evenodd" d="M6.77125 6.79591C6.98948 6.58454 7.33137 6.47886 7.79692 6.47886C8.11532 6.47886 8.37004 6.52648 8.56108 6.62172C8.75212 6.70109 8.89539 6.82808 8.99091 7.00269C9.10235 7.16143 9.17399 7.35191 9.20583 7.57415C9.23767 7.79638 9.25359 8.03449 9.25359 8.28847V8.50276H8.179C6.01389 8.50276 4.35026 8.82024 3.1881 9.45519C2.04187 10.0743 1.46875 11.114 1.46875 12.5744C1.46875 13.2411 1.58019 13.8125 1.80307 14.2888C2.04187 14.765 2.35231 15.1539 2.73438 15.4555C3.13238 15.7571 3.5861 15.9793 4.09554 16.1222C4.62089 16.265 5.16217 16.3365 5.71937 16.3365C6.22881 16.3365 6.67456 16.2809 7.05664 16.1698C7.45464 16.0745 7.80488 15.9476 8.10736 15.7888C8.40984 15.6301 8.66455 15.4475 8.87151 15.2412C9.07847 15.0348 9.24563 14.8205 9.37299 14.5983V16.0269H13.9102V7.97893C13.9102 6.34393 13.3928 5.14546 12.358 4.38352C11.3232 3.6057 9.89835 3.2168 8.08348 3.2168C7.19196 3.2168 6.37209 3.31204 5.62385 3.50253C5.40092 3.56051 5.18685 3.62806 4.98162 3.70517L6.77125 6.79591ZM8.72823 12.7887C8.39392 13.0585 7.95612 13.1935 7.41484 13.1935C6.985 13.1935 6.65865 13.1062 6.43577 12.9315C6.21289 12.7569 6.10145 12.5188 6.10145 12.2172C6.10145 11.7728 6.26065 11.4632 6.57905 11.2886C6.89744 11.114 7.45464 11.0267 8.25064 11.0267H9.25359V11.6696C9.25359 12.1299 9.07847 12.503 8.72823 12.7887Z" fill="#615E71"/>
<path d="M33.2377 16.3353C31.7572 16.3353 30.6189 15.986 29.8229 15.2876C29.0269 14.5892 28.6289 13.4542 28.6289 11.8827V1.04883H33.3332V3.59657H35.7212V7.86247H33.3332V11.4303C33.3332 11.8589 33.4367 12.1684 33.6437 12.3589C33.8666 12.5494 34.169 12.6446 34.5511 12.6446C34.965 12.6446 35.3551 12.5811 35.7212 12.4541V15.9781C35.4347 16.0575 35.0765 16.1368 34.6466 16.2162C34.2168 16.2956 33.7472 16.3353 33.2377 16.3353Z" fill="#615E71"/>
</svg>
