<svg width="18" height="18" viewBox="0 0 18 18" fill="none" xmlns="http://www.w3.org/2000/svg">
<path d="M6.40788 0.472656C6.56724 0.472656 6.72007 0.535962 6.83276 0.648648C6.94545 0.761334 7.00875 0.91417 7.00875 1.07353V3.07645C7.00875 3.23581 6.94545 3.38865 6.83276 3.50133C6.72007 3.61402 6.56724 3.67732 6.40788 3.67732C6.24852 3.67732 6.09568 3.61402 5.983 3.50133C5.87031 3.38865 5.807 3.23581 5.807 3.07645V1.07353C5.807 0.91417 5.87031 0.761334 5.983 0.648648C6.09568 0.535962 6.24852 0.472656 6.40788 0.472656ZM2.5783 2.05096C2.69096 1.93843 2.84369 1.87523 3.00292 1.87523C3.16215 1.87523 3.31487 1.93843 3.42754 2.05096L4.82958 3.453C4.88861 3.50801 4.93597 3.57434 4.96881 3.64805C5.00165 3.72176 5.01931 3.80132 5.02073 3.882C5.02215 3.96268 5.00731 4.04282 4.97709 4.11764C4.94687 4.19246 4.90189 4.26043 4.84483 4.31749C4.78777 4.37455 4.71981 4.41953 4.64499 4.44975C4.57017 4.47997 4.49003 4.49481 4.40935 4.49339C4.32867 4.49196 4.2491 4.4743 4.1754 4.44146C4.10169 4.40862 4.03535 4.36127 3.98034 4.30224L2.5783 2.90019C2.46577 2.78753 2.40257 2.63481 2.40257 2.47557C2.40257 2.31634 2.46577 2.16362 2.5783 2.05096ZM10.2375 2.05096C10.35 2.16362 10.4132 2.31634 10.4132 2.47557C10.4132 2.63481 10.35 2.78753 10.2375 2.90019L8.83541 4.30224C8.7804 4.36127 8.71407 4.40862 8.64036 4.44146C8.56665 4.4743 8.48709 4.49196 8.40641 4.49339C8.32573 4.49481 8.24559 4.47997 8.17077 4.44975C8.09595 4.41953 8.02798 4.37455 7.97092 4.31749C7.91387 4.26043 7.86889 4.19246 7.83866 4.11764C7.80844 4.04282 7.7936 3.96268 7.79503 3.882C7.79645 3.80132 7.81411 3.72176 7.84695 3.64805C7.87979 3.57434 7.92714 3.50801 7.98618 3.453L9.38822 2.05096C9.50088 1.93843 9.65361 1.87523 9.81284 1.87523C9.97207 1.87523 10.1248 1.93843 10.2375 2.05096ZM1 5.88053C1 5.72117 1.06331 5.56834 1.17599 5.45565C1.28868 5.34297 1.44151 5.27966 1.60088 5.27966H3.60379C3.76316 5.27966 3.91599 5.34297 4.02868 5.45565C4.14136 5.56834 4.20467 5.72117 4.20467 5.88053C4.20467 6.0399 4.14136 6.19273 4.02868 6.30542C3.91599 6.4181 3.76316 6.48141 3.60379 6.48141H1.60088C1.44151 6.48141 1.28868 6.4181 1.17599 6.30542C1.06331 6.19273 1 6.0399 1 5.88053ZM5.807 6.47099C5.807 5.56808 6.86615 5.08097 7.55114 5.66903L14.3298 11.4791C15.0589 12.104 14.6439 13.2985 13.6849 13.3378L10.6084 13.4604C10.2775 13.4732 9.96666 13.6206 9.74554 13.8666L7.65129 16.2076C7.00475 16.931 5.807 16.4728 5.807 15.5026V6.47099Z" fill="#615E71"/>
</svg>
