<svg width="18" height="18" viewBox="0 0 18 18" fill="none" xmlns="http://www.w3.org/2000/svg">
<path fill-rule="evenodd" clip-rule="evenodd" d="M9 3.0006C5.6862 3.0006 3 5.68677 3 9.00052C2.99949 9.88454 3.19434 10.7577 3.5706 11.5577L3.0126 14.2799C2.99273 14.377 2.99728 14.4777 3.02583 14.5727C3.05437 14.6677 3.10603 14.7541 3.17618 14.8243C3.24633 14.8944 3.33278 14.9461 3.42779 14.9746C3.5228 15.0032 3.6234 15.0077 3.7206 14.9878L6.4428 14.4299C7.2192 14.7958 8.0868 14.9998 9 14.9998C12.3138 14.9998 15 12.3143 15 8.99992C15 5.68677 12.3138 3 9 3" fill="#615E71"/>
</svg>
