<svg width="18" height="18" viewBox="0 0 18 18" fill="none" xmlns="http://www.w3.org/2000/svg">
<path d="M13.2143 5.71429C13.2143 7.76563 11.5513 9.42857 9.5 9.42857C7.44866 9.42857 5.78571 7.76563 5.78571 5.71429C5.78571 3.66294 7.44866 2 9.5 2C11.5513 2 13.2143 3.66294 13.2143 5.71429Z" fill="#615E71"/>
<path d="M9.5 10C8.24245 10 6.60535 10.253 5.28874 10.5045C3.93659 10.7628 3 11.9657 3 13.3423V14C3 14.5523 3.44772 15 4 15H15C15.5523 15 16 14.5523 16 14V13.3423C16 11.9657 15.0634 10.7628 13.7113 10.5045C12.3947 10.253 10.7576 10 9.5 10Z" fill="#615E71"/>
</svg>
