<svg width="62" height="18" viewBox="0 0 62 18" fill="none" xmlns="http://www.w3.org/2000/svg">
<g clip-path="url(#clip0_1988_4896)">
<path fill-rule="evenodd" clip-rule="evenodd" d="M7.39627 2.03745C6.01346 1.89018 4.61949 2.17954 3.40595 2.86576C2.1924 3.55198 1.21887 4.60136 0.619147 5.86968C0.0194281 7.138 -0.177031 8.56298 0.0567724 9.94877C0.290576 11.3346 0.943166 12.6131 1.92484 13.6087C2.90652 14.6043 4.16909 15.268 5.53901 15.5087C6.90894 15.7494 8.31896 15.5552 9.57528 14.9527C10.8316 14.3503 11.8725 13.3693 12.555 12.1445C13.2375 10.9197 13.528 9.5112 13.3866 8.11269C13.231 6.55815 12.5504 5.10528 11.4593 3.99874C10.3682 2.89219 8.93334 2.19955 7.39627 2.03745ZM7.17818 12.4056C6.43446 12.5064 5.67818 12.3692 5.01563 12.013C4.35307 11.6569 3.81754 11.0998 3.4843 10.4201C3.15107 9.74033 3.03688 8.97211 3.15779 8.22336C3.2787 7.47462 3.62862 6.783 4.15839 6.24571C4.68815 5.70842 5.37112 5.35247 6.1113 5.22788C6.85149 5.1033 7.61168 5.21634 8.28504 5.55113C8.9584 5.88591 9.51108 6.42561 9.86539 7.09436C10.2197 7.76312 10.3579 8.52731 10.2604 9.27955C10.1581 10.0708 9.80075 10.8058 9.24356 11.371C8.68636 11.9361 7.96043 12.2997 7.17818 12.4056ZM16.9864 2.30664C16.7529 2.30721 16.5226 2.36038 16.312 2.46229C16.1015 2.5642 15.9161 2.71229 15.7692 2.89577C15.6224 3.07926 15.5179 3.29353 15.4633 3.52299C15.4087 3.75245 15.4054 3.99133 15.4536 4.22225C15.6013 4.97034 16.2924 5.4815 17.0453 5.4815H21.4145L14.6151 14.5789C14.5648 14.6461 14.534 14.7261 14.5262 14.81C14.5183 14.8938 14.5337 14.9782 14.5707 15.0537C14.6076 15.1292 14.6647 15.1928 14.7353 15.2374C14.806 15.282 14.8876 15.3058 14.9709 15.3061H25.6365C26.3889 15.3061 27.0805 14.7951 27.2282 14.0468C27.2764 13.816 27.2731 13.5771 27.2186 13.3477C27.164 13.1182 27.0596 12.904 26.9128 12.7205C26.7661 12.537 26.5807 12.3889 26.3703 12.2869C26.1598 12.1849 25.9295 12.1317 25.6961 12.131H20.3726L27.1668 3.04061C27.2176 2.97279 27.2487 2.89201 27.2566 2.80733C27.2645 2.72265 27.2489 2.63742 27.2115 2.5612C27.1742 2.48498 27.1166 2.42079 27.0452 2.37583C26.9738 2.33086 26.8914 2.3069 26.8073 2.30664H16.9864ZM59.6052 2.34326C59.2521 2.42816 58.9382 2.63234 58.7155 2.92206C58.4927 3.21178 58.3744 3.56969 58.3802 3.9366V9.22262L49.9084 2.40648C49.8419 2.35316 49.7619 2.31989 49.6776 2.31049C49.5933 2.30109 49.5081 2.31594 49.4318 2.35334C49.3554 2.39074 49.2911 2.44917 49.2462 2.5219C49.2012 2.59463 49.1775 2.67871 49.1777 2.76447V13.679C49.1719 14.0459 49.2902 14.4038 49.513 14.6935C49.7357 14.9832 50.0496 15.1874 50.4027 15.2723C50.632 15.3233 50.8697 15.3216 51.0983 15.2674C51.3269 15.2131 51.5405 15.1077 51.7233 14.9588C51.9062 14.81 52.0537 14.6215 52.155 14.4073C52.2562 14.1931 52.3086 13.9587 52.3082 13.7214V8.38959L60.7802 15.2059C60.8466 15.2591 60.9265 15.2924 61.0108 15.3018C61.0951 15.3112 61.1803 15.2963 61.2566 15.259C61.3329 15.2216 61.3972 15.1632 61.4421 15.0905C61.4871 15.0178 61.5108 14.9337 61.5106 14.848V3.89368C61.5108 3.65637 61.4584 3.42203 61.3571 3.20793C61.2559 2.99383 61.1084 2.80544 60.9255 2.65665C60.7427 2.50786 60.5291 2.40246 60.3006 2.34822C60.0721 2.29398 59.8345 2.29229 59.6052 2.34326ZM37.5469 5.1776C41.1303 5.1776 43.8077 7.09218 43.8077 8.80476C43.8077 10.5173 41.1303 12.4319 37.5469 12.4319C33.9635 12.4319 31.2861 10.5173 31.2861 8.80476C31.2861 7.09218 33.9635 5.1776 37.5469 5.1776ZM37.5469 2.00288C32.3602 2.00288 28.1556 5.04821 28.1556 8.80476C28.1556 12.5613 32.3602 15.6066 37.5469 15.6066C42.7336 15.6066 46.9381 12.5613 46.9381 8.80476C46.9381 5.04821 42.7335 2.00288 37.5469 2.00288Z" fill="#615E71"/>
</g>
<defs>
<clipPath id="clip0_1988_4896">
<rect width="62" height="18" fill="white"/>
</clipPath>
</defs>
</svg>
