<svg width="154" height="76" viewBox="0 0 154 76" fill="none" xmlns="http://www.w3.org/2000/svg">
<g filter="url(#filter0_b_909_3643)">
<path fill-rule="evenodd" clip-rule="evenodd" d="M126.562 43.9755C124.979 43.9602 120.672 43.5892 118.314 43.5654C117.013 43.5523 115.713 43.6257 114.422 43.7851C114.615 44.0361 114.818 44.278 115.035 44.5088C115.798 44.5161 117.951 44.6043 121.95 45.2667C125.274 45.8164 127.125 45.904 128.022 45.8954C128.929 45.2689 129.722 44.4979 130.366 43.6149C129.459 43.7735 127.773 43.9878 126.562 43.9755ZM121.841 45.5158C118.277 44.8975 116.182 44.7457 115.229 44.7126C116.148 45.6452 117.251 46.3869 118.471 46.8931C119.692 47.3993 121.005 47.6595 122.331 47.658C124.257 47.658 126.053 47.1198 127.572 46.1887C126.58 46.1648 124.789 46.0276 121.841 45.5158Z" fill="white"/>
<path fill-rule="evenodd" clip-rule="evenodd" d="M79.8782 45.5514C79.4291 45.2881 79.3387 44.982 79.3387 44.6759V29.7576C79.3387 28.9697 78.9806 28.7071 78.7558 28.7071C78.2162 28.7071 75.702 29.7576 75.1179 30.0638C74.5344 30.3699 74.9828 30.7641 75.2523 30.8951C75.5217 31.0261 75.7466 31.1578 75.7466 31.8581V35.1953C75.5117 34.8788 75.1135 34.6743 74.4866 34.6743C72.363 34.6743 72.7066 36.173 71.5289 36.4956V35.6587C71.5289 34.8708 71.1697 34.6082 70.9448 34.6082C70.4065 34.6082 67.8916 35.6587 67.3075 35.9648C66.7234 36.2709 67.1731 36.6652 67.4419 36.7962C67.7114 36.9278 67.9362 37.0588 67.9362 37.7592V44.6747C67.9362 44.9808 67.8464 45.2869 67.3973 45.5501C66.9482 45.8134 67.3521 46.4599 67.8464 46.4599H71.6181C72.1118 46.4599 72.5163 45.8128 72.0672 45.5501C71.6181 45.2875 71.5283 44.9808 71.5283 44.6747V40.1799C71.8078 39.294 72.4987 37.5186 73.5432 37.5186C73.9923 37.5186 73.8573 38.7008 74.8905 38.7008C75.1285 38.7008 75.4947 38.1987 75.7466 37.5498V44.6747C75.7466 44.9808 75.6568 45.2869 75.2077 45.5501C74.7586 45.8134 75.1625 46.4599 75.6568 46.4599H79.4291C79.9222 46.4617 80.3273 45.8146 79.8782 45.5514Z" fill="white"/>
<path fill-rule="evenodd" clip-rule="evenodd" d="M65.9546 42.9685C65.9546 43.8477 65.544 43.8459 65.1154 43.8441C65.0958 43.844 65.0761 43.8439 65.0564 43.8439L65.042 43.8439L65.0232 43.844C64.6551 43.8459 63.6738 43.851 62.9787 42.1879C62.958 41.981 62.9705 41.4465 63.6193 41.3057C63.6193 41.3057 66.7177 40.1241 67.077 39.9497C67.4363 39.774 67.4809 39.1617 67.4809 38.6799C67.4809 38.1994 66.7177 34.5218 63.799 34.5218C60.8802 34.5218 59.7578 37.5859 59.7578 40.9121C59.7578 44.2388 61.3745 46.777 64.2927 46.777C67.2114 46.777 67.6605 44.982 67.6605 43.8439C67.6611 42.5313 65.9546 42.2252 65.9546 42.9685ZM35.7351 45.5513C35.286 45.2881 35.1962 44.982 35.1962 44.6759V35.6593C35.1962 34.8714 34.8369 34.6088 34.6127 34.6088C34.0738 34.6088 31.5595 35.6593 30.9754 35.9654C30.3919 36.2715 30.841 36.6658 31.1098 36.7968C31.3793 36.9284 31.6041 37.0594 31.6041 37.7598V44.6753C31.6041 44.9814 31.5143 45.2875 31.0652 45.5507C30.982 45.5959 30.9191 45.6697 30.8887 45.7577C30.8498 45.6609 30.765 45.5618 30.6274 45.4638C30.0292 45.0357 30.0334 44.815 30.0418 44.3722C30.0428 44.3166 30.0439 44.2575 30.0439 44.1941V31.7645C30.0439 31.6967 30.0435 31.6303 30.043 31.5658V31.5656C30.0389 31.0052 30.0358 30.5829 30.358 30.5829C31.1081 30.5829 31.576 31.7425 31.9979 32.7878C32.0811 32.9942 32.1626 33.1961 32.2441 33.3837C32.7378 34.5212 34.3545 33.909 34.1749 33.1211C34.0855 32.7287 33.9514 31.9782 33.8172 31.2262C33.6818 30.4682 33.5462 29.7087 33.4557 29.3132C33.2761 28.5253 32.9621 28 32.6474 28C32.3327 28 31.7944 28.4812 31.7944 28.4812L27.9945 28.5467L24.1945 28.4812C24.1945 28.4812 23.6556 28 23.3415 28C23.0275 28 22.7128 28.5253 22.5332 29.3132C22.4434 29.7071 22.3086 30.4621 22.1739 31.2171C22.0392 31.9722 21.9045 32.7272 21.8146 33.1211C21.635 33.909 23.2517 34.5218 23.7454 33.3837C23.8269 33.1961 23.9084 32.9942 23.9917 32.7878C24.4135 31.7425 24.8815 30.5829 25.6316 30.5829C25.9537 30.5829 25.9506 31.0047 25.9466 31.5655C25.9461 31.6301 25.9456 31.6966 25.9456 31.7645V44.1941C25.9456 44.2575 25.9467 44.3165 25.9478 44.3721C25.9562 44.8149 25.9603 45.0357 25.3615 45.4638C24.6882 45.9444 25.2717 46.4611 26.3495 46.4611H29.6388C30.3058 46.4611 30.7826 46.264 30.8906 45.9995C30.9635 46.2376 31.2229 46.4611 31.5137 46.4611H35.2854C35.7797 46.4617 36.1842 45.8146 35.7351 45.5513ZM98.471 44.6759C98.471 44.982 98.5602 45.2881 99.0093 45.5514C99.4584 45.8146 99.0545 46.4617 98.5621 46.4599H95.1679C94.6736 46.4599 94.2703 45.8134 94.7188 45.5501C95.1673 45.2869 95.2571 44.9808 95.2571 44.6747C95.2571 43.7123 94.9393 37.1904 93.9959 37.1904C93.5958 37.1904 93.2403 37.5927 93.2403 37.8627V44.6747C93.2403 44.9808 93.3307 45.2875 93.7798 45.5501C94.2289 45.8128 93.8238 46.4599 93.3307 46.4599H89.5584C89.3674 46.4599 89.1903 46.3631 89.0703 46.2291C88.9378 46.368 88.6533 46.4599 88.0484 46.4599H86.0731C85.9318 46.4599 85.8274 46.3544 85.7279 46.2539C85.6373 46.1623 85.5506 46.0748 85.4437 46.0748C85.3634 46.0748 85.2715 46.1242 85.1536 46.1877C84.9424 46.3013 84.6478 46.4599 84.1863 46.4599H81.0433C80.684 46.4599 79.6068 45.5501 79.6068 43.7551C79.6068 41.9614 80.522 40.5086 82.3906 39.5976C82.5453 39.522 82.7743 39.4645 83.0222 39.4023C83.6366 39.2482 84.3665 39.0651 84.3665 38.5036C84.3665 37.5406 83.9621 36.4466 83.2441 36.4466C82.525 36.4466 82.2109 36.5342 82.2109 36.5342C82.2109 36.5342 82.839 36.8409 82.839 37.8033C82.839 38.7669 82.2549 38.9414 81.4918 38.9414C80.7286 38.9414 79.7413 38.8097 79.7413 37.3221C79.7413 35.8332 81.4472 34.9143 83.4225 34.9143C83.4586 34.9143 83.4946 34.9142 83.5305 34.9142L83.5917 34.914C85.5056 34.9104 87.2949 34.907 87.6439 39.1158C88.0032 43.449 88.0032 43.6235 88.0032 44.0184C88.0032 44.412 88.093 44.7194 88.4523 44.7194C88.7764 44.7194 89.0986 45.1467 89.1589 45.5195C89.5634 45.2636 89.6469 44.9691 89.6469 44.6753V37.7598C89.6469 37.0594 89.4227 36.9284 89.1539 36.7968C88.8838 36.6658 88.4347 36.2715 89.0188 35.9654C89.603 35.6593 92.1166 34.6088 92.6561 34.6088C92.881 34.6088 93.239 34.8714 93.239 35.6593V35.7769C93.4202 35.6756 93.5628 35.5328 93.71 35.3854C94.022 35.0731 94.3544 34.7404 95.117 34.7404C98.5434 34.7404 98.4799 43.4339 98.4716 44.5827V44.5833C98.4713 44.6239 98.471 44.655 98.471 44.6759ZM55.0794 34.7409C55.2742 34.5815 55.4541 34.4343 56.0307 34.4343C57.0193 34.4343 59.668 35.7475 59.6661 40.4719C59.6661 46.4684 57.8252 46.7305 56.1186 46.7305C54.6107 46.7305 54.26 46.3205 53.92 45.923C53.8753 45.8708 53.8309 45.8189 53.784 45.7681C53.3801 45.3303 53.0661 45.1993 52.9311 45.4179C52.2704 46.4916 51.9987 46.4762 51.7546 46.4623C51.7274 46.4608 51.7006 46.4593 51.6736 46.4593C51.6559 46.4593 51.6373 46.4599 51.6179 46.4605C51.42 46.4669 51.1422 46.4758 51.0009 45.877C50.9946 46.1544 50.6976 46.4593 50.3578 46.4593H46.9635C46.4699 46.4593 46.066 45.8128 46.5144 45.5495C46.9629 45.2863 47.0534 44.9802 47.0534 44.6741C47.0534 43.7117 46.7343 37.1898 45.7915 37.1898C45.4925 37.1898 45.1496 37.4035 45.1496 37.6367L45.1502 44.6741C45.1502 44.9802 45.24 45.2869 45.6891 45.5495C46.1382 45.8122 45.7337 46.4593 45.24 46.4593H41.8458C41.3515 46.4593 40.9477 45.8128 41.3967 45.5495C41.8458 45.2863 41.9356 44.9802 41.9356 44.6741V38.0653C41.9356 37.2774 41.6153 37.0147 41.2115 37.0147C40.8195 37.0147 40.3164 37.4525 40.3164 38.1326V44.6747C40.3164 44.9808 40.4062 45.2875 40.8553 45.5501C41.3044 45.8128 40.8999 46.4599 40.4062 46.4599H36.6345C36.1408 46.4599 35.7364 45.8134 36.1854 45.5501C36.6345 45.2869 36.7243 44.9808 36.7243 44.6747V37.7592C36.7243 37.0588 36.4995 36.9278 36.23 36.7962C35.9606 36.6652 35.5115 36.2709 36.0956 35.9648C36.6797 35.6587 39.194 34.6082 39.7329 34.6082C39.9578 34.6082 40.317 34.8708 40.317 35.6587V35.8313C40.6622 35.7434 40.8409 35.541 41.031 35.3256C41.3333 34.9833 41.6644 34.6082 42.739 34.6082C43.7948 34.6082 44.411 35.1836 44.7558 35.8858C45.0863 35.8059 45.2921 35.6001 45.5076 35.3847C45.8198 35.0724 46.1526 34.7398 46.9152 34.7398C50.3412 34.7398 50.2781 43.4346 50.2697 44.5824C50.2694 44.6231 50.2692 44.6543 50.2692 44.6753C50.2692 44.9814 50.3584 45.2875 50.8075 45.5507C50.8792 45.5899 50.9363 45.6501 50.9708 45.7228C50.9343 45.5024 50.9117 45.2195 50.9117 44.8498V31.7639L50.9118 31.7039C50.912 31.0564 50.912 30.9286 50.6505 30.8015C50.3816 30.6698 49.9325 30.057 50.516 29.7509C51.0995 29.4448 53.3814 28.3943 53.9203 28.3943C54.1445 28.3943 54.5038 28.6569 54.5038 29.4448V35.0483C54.7982 34.971 54.9425 34.853 55.0794 34.7409ZM118.312 43.3633C119.608 43.3633 121.494 43.4623 123.193 43.5514C124.584 43.6244 125.85 43.6909 126.563 43.6909C127.904 43.6909 129.822 43.4086 130.625 43.2427C131.648 41.6946 132.191 39.8914 132.188 38.05C132.188 37.1892 132.071 36.3548 131.853 35.5608L126.572 36.8745L127.14 35.8283C128.388 35.6373 129.981 35.2479 131.476 34.4612C131.362 34.1852 131.234 33.9143 131.095 33.6494C129.813 34.2702 128.672 34.5555 127.767 34.6737L128.591 33.1542L130.722 33.0091C130.535 32.7152 130.334 32.4318 130.117 32.1599H127.655L128.624 30.6564C128.423 30.4941 128.216 30.3392 128.002 30.1923L126.022 32.8793L125.446 31.7657L125.541 31.372L127.418 29.8207C127.213 29.7001 127.003 29.5868 126.79 29.4803L124.801 30.5211L123.779 28.5467C123.484 28.5042 123.186 28.4748 122.888 28.4585L123.974 31.1792L123.656 31.459L122.048 28.4475C121.954 28.45 121.861 28.4543 121.766 28.4598L120.535 30.9882L119.257 28.9214C118.842 29.0542 118.438 29.2122 118.049 29.3952L117.99 31.0616L116.17 30.5523C115.793 30.8461 115.44 31.1669 115.111 31.511L117.311 34.141L116.697 34.1845L114.722 31.9432C114.482 32.2267 114.259 32.5236 114.053 32.8328L115.28 34.2843L113.199 34.4318C112.718 35.581 112.472 36.8103 112.474 38.0512C112.47 40.0554 113.113 42.01 114.312 43.6388C114.776 43.569 116.344 43.3633 118.312 43.3633ZM113.61 38.0053L114.08 38.023H114.406L115.386 36.839L116.517 37.3668L115.977 38.0959L117.248 38.1437L119.66 36.1846L120.27 36.8476L117.841 38.1663L119.864 38.2428L121.12 37.772L121.586 38.2796L121.467 41.9908C119.045 41.643 116.629 41.3143 114.234 41.2457C113.82 40.2376 113.608 39.1616 113.609 38.0757C113.608 38.0622 113.609 38.0482 113.609 38.0341C113.609 38.0297 113.61 38.0254 113.61 38.021C113.61 38.0187 113.61 38.0164 113.61 38.014C113.61 38.0111 113.61 38.0082 113.61 38.0053ZM126.567 37.8106L123.342 38.5924C123.342 38.5924 123.129 40.4578 123.573 42.2914C125.679 42.5846 127.788 42.8356 129.89 42.887C130.821 41.5065 131.362 39.8523 131.362 38.0769C131.362 37.6 131.322 37.1317 131.248 36.675L130.165 36.937C130.351 37.5345 130.975 38.2863 130.975 38.2863L130.302 38.5924C129.704 38.2838 129.134 37.5468 128.914 37.2406L127.654 37.5468L127.877 38.4179L127.024 38.4608L126.567 37.8106ZM125.779 35.9789L124.982 37.2694L124.239 37.4543L125.171 36.0077C125.325 36.004 125.53 35.996 125.779 35.9789ZM125.133 34.0853L124.849 33.3739L123.455 34.3198L123.521 36.2727L125.133 34.0853ZM122.374 34.8947L122.392 35.8167L121.949 35.7916L121.795 35.1481L122.374 34.8947ZM122.447 33.516L121.617 34.1049L121.141 32.2824L121.994 30.3643L122.739 31.8949L122.447 33.516ZM126.941 33.2656L127.477 33.2289L126.541 34.7453C126.362 34.7425 126.184 34.7323 126.006 34.7147L126.941 33.2656ZM119.941 34.9792L120.397 33.9537L120.648 35.6599L119.941 34.9792ZM119.883 32.6399L119.035 32.3748L119.12 33.9096L119.883 32.6399ZM118.941 30.6704L119.405 31.4657L118.982 31.4143L118.941 30.6704ZM117.857 32.0069L116.381 31.5459L117.932 33.0409L117.857 32.0069ZM118.267 35.0312L116.841 35.0771L116.04 36.0456L117.369 36.5354L118.761 35.4414L118.267 35.0312ZM115.277 35.1273L114.898 35.625L113.687 35.1787L115.277 35.1273ZM114.344 36.3529L113.84 36.1185C113.751 36.4931 113.686 36.8764 113.648 37.267L114.344 36.3529ZM108.08 45.5513C107.631 45.2881 107.541 44.982 107.541 44.6759V30.1519C107.541 29.364 107.182 29.1014 106.957 29.1014C106.725 29.1014 106.17 29.3772 105.549 29.6851C105.168 29.8744 104.762 30.0758 104.392 30.2327C104.146 30.3371 103.888 30.3652 103.679 30.388C103.524 30.4048 103.396 30.4187 103.32 30.4586C102.736 30.7647 103.185 31.159 103.455 31.29C103.725 31.421 103.949 31.5526 103.949 32.253V35.7071C103.701 35.4842 103.106 35.0471 102.236 35.0471C101.069 35.0471 98.689 37.1917 98.689 41.7C98.689 43.5819 99.2731 44.9391 99.6324 45.7699C99.9448 46.4922 100.291 46.481 100.76 46.4658C100.83 46.4635 100.903 46.4611 100.98 46.4611H107.631C108.125 46.4617 108.529 45.8146 108.08 45.5513ZM102.775 37.0607C103.27 37.0607 104.123 38.4608 104.123 40.9561C104.123 43.4503 103.495 44.5443 103.089 44.5443C102.686 44.5443 101.788 43.5372 101.788 40.999C101.788 38.4608 102.461 37.0607 102.775 37.0607ZM56.7499 40.2117C56.7499 38.8985 56.3906 36.2727 55.5822 36.2727C54.7739 36.2727 54.4598 39.2934 54.4598 40.2117C54.4598 41.1312 54.5943 43.8011 55.4924 43.8011C56.3906 43.8011 56.7499 41.5249 56.7499 40.2117ZM63.1257 36.1417C63.5301 36.1417 64.4277 37.3674 64.4277 38.5483C64.4277 39.7311 63.3951 40.0813 62.9008 40.0813C62.6979 40.0813 62.4329 40.0574 62.4065 39.8615C61.958 36.5133 62.7218 36.1417 63.1257 36.1417ZM84.5443 44.0631V40.5619C83.6022 40.5619 82.8378 41.2635 82.8378 43.0138C82.8378 44.7641 83.3767 44.9398 83.9162 44.9398C84.4545 44.9398 84.5443 44.4579 84.5443 44.0631Z" fill="white"/>
<path fill-rule="evenodd" clip-rule="evenodd" d="M99.1959 30.8645C99.1959 30.3515 99.623 29.9738 100.127 29.9738C100.626 29.9738 101.053 30.3515 101.053 30.8645C101.053 31.3818 100.626 31.7602 100.127 31.7602C99.6223 31.7602 99.1959 31.3824 99.1959 30.8645ZM100.127 31.6114C100.541 31.6114 100.868 31.2943 100.868 30.8645C100.868 30.4415 100.541 30.1225 100.127 30.1225C99.7071 30.1225 99.3799 30.4415 99.3799 30.8645C99.3799 31.2949 99.7071 31.6114 100.127 31.6114ZM100.548 30.6453C100.548 30.4421 100.424 30.3521 100.174 30.3521H99.7718V31.3824H99.932V30.9368H100.117L100.396 31.3831H100.575L100.274 30.9294C100.429 30.9104 100.548 30.8302 100.548 30.6453ZM100.38 30.6356C100.38 30.7935 100.259 30.8033 100.124 30.8033H99.9313V30.4843H100.15C100.262 30.4843 100.38 30.5082 100.38 30.6356Z" fill="white"/>
</g>
<defs>
<filter id="filter0_b_909_3643" x="-4" y="-4" width="162" height="84" filterUnits="userSpaceOnUse" color-interpolation-filters="sRGB">
<feFlood flood-opacity="0" result="BackgroundImageFix"/>
<feGaussianBlur in="BackgroundImageFix" stdDeviation="2"/>
<feComposite in2="SourceAlpha" operator="in" result="effect1_backgroundBlur_909_3643"/>
<feBlend mode="normal" in="SourceGraphic" in2="effect1_backgroundBlur_909_3643" result="shape"/>
</filter>
</defs>
</svg>
