<svg width="186" height="76" viewBox="0 0 186 76" fill="none" xmlns="http://www.w3.org/2000/svg">
<g filter="url(#filter0_b_776_3302)">
<path d="M25.1441 27.812L27.5843 26L41.579 33.9075C42.8775 34.6412 42.8761 36.4793 41.5765 37.211L31.7651 42.7357L31.4268 42.9248V42.545L31.4285 42.5466L31.4334 39.6445V39.5179L31.5461 39.4538L38.6479 35.4685L25.1441 27.812Z" fill="white"/>
<path d="M21.6328 45.4417L21.6468 31.6293C21.6482 30.1636 23.266 29.2482 24.5607 29.9805L34.3257 35.5037L34.6558 35.6912L31.8239 37.3594L31.7095 37.4251L24.4934 33.3388L24.4679 47.6034L21.6328 45.4417Z" fill="white"/>
<path d="M42.664 38.8382L29.4087 46.29V38.1879L29.2911 38.1254L26.4167 36.579V36.9508L26.3979 47.8976C26.3954 49.3649 28.0139 50.2843 29.3106 49.5521L42.6832 42.0014L42.664 38.8382Z" fill="white"/>
<path d="M75.1759 36.4773L70.8221 31.1211L66.9648 31.1211L73.6875 39.3044V44.6881L76.6626 44.7018V39.3044L83.3882 31.1211L79.5078 31.1211L75.1759 36.4773Z" fill="white"/>
<path d="M119.978 40.2371L123.852 44.7016H126.892H127.773L126.892 43.7025L123.888 40.2371H119.978Z" fill="white"/>
<path fill-rule="evenodd" clip-rule="evenodd" d="M146.61 42.4394V33.3799C146.61 33.1819 146.685 33.0101 146.834 32.8643C146.982 32.7185 147.157 32.6448 147.359 32.6448H158.876V31.1208H147.359C146.715 31.1208 146.168 31.3403 145.721 31.7777C145.273 32.2151 145.049 32.7492 145.049 33.3815V42.4409C145.049 43.0717 145.273 43.6073 145.721 44.0447C146.168 44.4821 146.715 44.7016 147.359 44.7016H158.876V43.1745H147.359C147.157 43.1745 146.982 43.1008 146.834 42.955C146.685 42.8093 146.61 42.6374 146.61 42.4394ZM129.817 31.1085H141.372C142.016 31.1085 142.563 31.3295 143.01 31.7715C143.458 32.2135 143.682 32.7461 143.682 33.3676V37.3917C143.682 38.0132 143.458 38.5443 143.01 38.9878C142.563 39.4313 142.016 39.6523 141.372 39.6523H132.127C131.954 39.6523 131.703 39.6278 131.376 39.5771V44.7016H129.817V38.1345L141.372 38.1084C141.574 38.1084 141.75 38.0393 141.899 37.8997C142.048 37.76 142.123 37.5912 142.123 37.3932V33.4183C142.123 33.2203 142.048 33.0484 141.899 32.9026C141.75 32.7568 141.574 32.6832 141.372 32.6832L129.817 32.7031V31.1085ZM113.909 31.1085H124.905C125.695 31.1085 126.37 31.3817 126.931 31.9296C127.493 32.4775 127.773 33.1328 127.773 33.8956V37.45C127.773 38.2128 127.493 38.8681 126.931 39.416C126.371 39.9639 125.65 40.2371 124.77 40.2371H120.861H116.894V44.7016H113.909V37.3272H124.815L124.799 34.0287H113.909V31.1085ZM112.023 44.7016H99.217V44.7V31.1055H112.023V34.0251H102.16V36.4691H110.117V39.3702H102.188V41.782H112.023V44.7016ZM83.9442 31.1085H94.9414C95.7317 31.1085 96.4062 31.3817 96.9681 31.9296C97.5299 32.4775 97.81 33.1328 97.81 33.8956V37.45C97.81 38.2128 97.5299 38.8681 96.9681 39.416C96.4062 39.9639 95.7317 40.2371 94.9414 40.2371L86.9302 40.257V44.7016H83.9442V37.3502H94.831V34.0782L83.9442 34.0659V31.1085ZM162.721 34.5709C163.696 34.5709 164.488 33.7958 164.488 32.8382C164.488 31.882 163.696 31.1055 162.721 31.1055C161.746 31.1055 160.954 31.882 160.954 32.8382C160.954 33.7943 161.746 34.5709 162.721 34.5709ZM162.721 31.4539C163.499 31.4539 164.133 32.0754 164.133 32.8382C164.133 33.6009 163.499 34.2225 162.721 34.2225C161.944 34.2225 161.31 33.6009 161.31 32.8382C161.31 32.0754 161.944 31.4539 162.721 31.4539ZM163.244 33.6071H163.53H163.532L162.967 32.9441H163.224C163.297 32.9441 163.358 32.9195 163.407 32.8689C163.454 32.8198 163.479 32.7599 163.479 32.6939V32.3225C163.479 32.255 163.454 32.1967 163.407 32.146C163.36 32.0969 163.299 32.0708 163.224 32.0708H161.912V33.6071H162.138V32.9349H162.147C162.175 32.941 162.199 32.9441 162.219 32.9441H162.67L163.244 33.6071ZM163.238 32.7031C163.221 32.7154 163.202 32.7231 163.181 32.7231H162.217C162.197 32.7231 162.178 32.7154 162.161 32.7031C162.144 32.6908 162.136 32.6709 162.136 32.6433V32.3716C162.136 32.3455 162.144 32.3256 162.161 32.3118C162.178 32.2979 162.197 32.2918 162.217 32.2918H163.181C163.202 32.2918 163.221 32.2979 163.238 32.3118C163.253 32.324 163.263 32.344 163.263 32.3716V32.6433C163.263 32.6693 163.253 32.6893 163.238 32.7031Z" fill="white"/>
<path d="M63.378 36.4509H55.193V31.1208H52.207V44.7H55.193V39.3884H63.378V44.7016H66.364V31.1208H63.378V36.4509Z" fill="white"/>
</g>
<defs>
<filter id="filter0_b_776_3302" x="-4" y="-4" width="194" height="84" filterUnits="userSpaceOnUse" color-interpolation-filters="sRGB">
<feFlood flood-opacity="0" result="BackgroundImageFix"/>
<feGaussianBlur in="BackgroundImageFix" stdDeviation="2"/>
<feComposite in2="SourceAlpha" operator="in" result="effect1_backgroundBlur_776_3302"/>
<feBlend mode="normal" in="SourceGraphic" in2="effect1_backgroundBlur_776_3302" result="shape"/>
</filter>
</defs>
</svg>
