<svg width="136" height="76" viewBox="0 0 136 76" fill="none" xmlns="http://www.w3.org/2000/svg">
<g filter="url(#filter0_b_776_3303)">
<path d="M91.123 29.2441V46.9076" stroke="white" stroke-width="0.286422"/>
<path d="M85.6889 36.0991V33.4932C85.4696 33.448 85.3161 33.4257 85.0531 33.4257C83.9131 33.4257 82.6633 34.2121 82.1372 35.762H82.0495L81.9617 33.6728H79.6158C79.6816 34.6613 79.7036 35.7171 79.7036 37.1998V44.6134H82.4002V38.9522C82.4002 38.6376 82.444 38.3457 82.488 38.0986C82.729 36.8629 83.606 36.0093 84.8996 36.0093C85.2284 36.0093 85.4696 36.0542 85.6889 36.0991ZM78.1034 39.9182C78.1472 39.6711 78.191 39.2667 78.191 38.75C78.191 36.3462 77.0511 33.4257 73.5869 33.4257C70.167 33.4257 68.3691 36.2788 68.3691 39.3116C68.3691 42.6591 70.408 44.8381 73.872 44.8381C75.4068 44.8381 76.6784 44.5462 77.5992 44.1641L77.2044 42.2545C76.3933 42.5691 75.4943 42.7489 74.2447 42.7489C72.5346 42.7489 71.022 41.8951 70.9563 39.9182H78.1034V39.9182ZM75.6478 37.9862H70.9563C71.0658 36.8629 71.7673 35.3128 73.4337 35.3128C75.2313 35.3128 75.6698 36.9753 75.6478 37.9862ZM65.234 35.7397H67.7991V33.6728H65.234V30.5501L62.6031 31.2015V33.6728H61.0685V35.7397H62.6031V40.8842C62.6031 42.322 62.8663 43.3105 63.4363 43.9394C63.9406 44.501 64.7737 44.8381 65.7602 44.8381C66.6153 44.8381 67.3168 44.7258 67.7114 44.5685L67.6676 42.4567C67.4263 42.5242 67.0756 42.5916 66.6153 42.5916C65.5847 42.5916 65.234 41.8951 65.234 40.5696V35.7397ZM57.3415 44.6134H60.0381V38.1209C60.0381 34.6613 58.1088 33.4257 56.2452 33.4257C54.4693 33.4257 53.3075 34.4592 52.847 35.3128H52.7812L52.6497 33.6728H50.2818C50.3476 34.6164 50.3696 35.6722 50.3696 36.9302V44.6134H53.0882V38.1884C53.0882 37.8738 53.1102 37.5369 53.1978 37.2896C53.4828 36.4586 54.2283 35.6722 55.3026 35.6722C56.7715 35.6722 57.3415 36.8629 57.3415 38.4355V44.6134V44.6134ZM48.7694 39.9182C48.8132 39.6711 48.857 39.2667 48.857 38.75C48.857 36.3462 47.7169 33.4257 44.253 33.4257C40.833 33.4257 39.0351 36.2788 39.0351 39.3116C39.0351 42.6591 41.074 44.8381 44.538 44.8381C46.0728 44.8381 47.3444 44.5462 48.2652 44.1641L47.8704 42.2545C47.0594 42.5691 46.1605 42.7489 44.9107 42.7489C43.2006 42.7489 41.688 41.8951 41.6223 39.9182H48.7694V39.9182ZM46.3138 37.9862H41.6223C41.7318 36.8629 42.4333 35.3128 44.0997 35.3128C45.8973 35.3128 46.3358 36.9753 46.3138 37.9862ZM37.4531 32.6228L38.0208 30.5117C37.4952 30.2316 36.2758 29.8652 34.5728 29.8652C30.2417 29.8652 27.0039 32.7521 27.0039 37.5348C27.0039 41.9512 29.737 44.8381 34.2362 44.8381C35.9392 44.8381 37.2847 44.5149 37.8944 44.1919L37.474 42.102C36.8012 42.4252 35.7081 42.6406 34.6569 42.6406C31.5452 42.6406 29.7161 40.5941 29.7161 37.4055C29.7161 33.9155 31.7974 32.0627 34.6778 32.0627C35.8551 32.0627 36.7802 32.3213 37.4531 32.6228Z" fill="white"/>
<path d="M21.6845 44.837H24.5621V34.0127L21.6845 34.9042V44.837V44.837ZM24.5377 31.506C24.5168 30.6635 23.9748 30.0205 23.099 30.0205C22.244 30.0205 21.6602 30.6635 21.6602 31.506C21.6602 32.3263 22.2231 32.9692 23.0781 32.9692C23.9748 32.9692 24.5377 32.3263 24.5377 31.506Z" fill="white"/>
<path d="M114 43.0334V41.6049C114 41.2459 113.915 40.9739 113.748 40.7988C113.614 40.6524 113.441 40.5771 113.235 40.5771C113.053 40.5771 112.894 40.6279 112.754 40.7203C112.646 40.7986 112.554 40.8982 112.478 41.0273H112.472C112.361 40.7262 112.141 40.5771 111.822 40.5771C111.51 40.5771 111.269 40.7131 111.142 40.9839H111.126L111.099 40.6279H110.653C110.666 40.8739 110.669 41.1054 110.669 41.3166V43.0332H111.167V41.5976C111.167 41.4455 111.196 41.3108 111.286 41.1936C111.377 41.0737 111.493 41.0171 111.634 41.0171C111.773 41.0171 111.884 41.0706 111.954 41.1778C112.028 41.2878 112.069 41.431 112.069 41.6104V43.033H112.573V41.5642C112.573 41.4223 112.619 41.2891 112.706 41.1817C112.791 41.0706 112.903 41.0168 113.043 41.0168C113.345 41.0168 113.491 41.2353 113.491 41.6869V43.033H114V43.0334ZM111.139 46.1535C110.959 45.8932 110.703 45.7643 110.364 45.7643C110.019 45.7643 109.743 45.8932 109.541 46.1535C109.35 46.3939 109.256 46.6978 109.256 47.0627C109.256 47.4345 109.354 47.7269 109.564 47.9497C109.77 48.1697 110.061 48.2799 110.427 48.2799C110.729 48.2799 110.991 48.2291 111.191 48.1319L111.127 47.756C110.943 47.8326 110.729 47.8673 110.494 47.8673C110.286 47.8673 110.107 47.8122 109.979 47.6978C109.836 47.5792 109.759 47.3881 109.752 47.1492H111.296C111.307 47.0854 111.311 47.0061 111.311 46.9132C111.312 46.6112 111.239 46.3605 111.139 46.1535ZM110.846 46.7716H109.752C109.767 46.611 109.82 46.4722 109.908 46.3561C110.013 46.2171 110.158 46.142 110.326 46.142C110.516 46.142 110.653 46.2173 110.744 46.3605C110.812 46.4809 110.848 46.6112 110.846 46.7716ZM109.664 43.0334H110.128C110.119 42.8002 110.107 42.5688 110.107 42.346V40.6281H109.584V42.0969C109.584 42.1722 109.575 42.2401 109.553 42.2996C109.461 42.528 109.301 42.6423 109.07 42.6423C108.761 42.6423 108.605 42.4167 108.605 41.9522V40.6279H108.059V42.0475C108.059 42.4139 108.145 42.6887 108.306 42.8668C108.443 43.0189 108.646 43.0911 108.88 43.0911C109.212 43.0911 109.461 42.9553 109.628 42.6701H109.635L109.664 43.0334ZM108.34 31.257C108.326 29.8656 109.513 29.1619 109.563 29.1332C108.916 28.1412 107.861 28.0013 107.515 27.9876C106.625 27.8959 105.807 28.5176 105.399 28.5176C104.973 28.5176 104.292 28.0009 103.565 28.0247C102.612 28.0304 101.732 28.587 101.235 29.4612C100.256 31.1633 100.988 33.7352 101.947 35.1721C102.432 35.8893 102.987 36.6566 103.722 36.6249C104.431 36.5973 104.701 36.1741 105.5 36.1741C106.357 36.1741 106.602 36.6249 107.369 36.6173C108.116 36.5971 108.62 35.9138 109.1 35.1994C109.626 34.3745 109.847 33.5959 109.857 33.5532C109.842 33.5504 108.357 33.0026 108.34 31.257ZM106.935 27.042C107.334 26.5544 107.592 25.8639 107.522 25.1953C106.949 25.2155 106.258 25.5795 105.873 26.078C105.495 26.5129 105.242 27.1982 105.327 27.8523C105.903 27.9048 106.534 27.5327 106.935 27.042ZM100.847 40.9565C100.652 41.1997 100.556 41.5023 100.556 41.864C100.556 42.2375 100.658 42.5282 100.867 42.7527C101.078 42.974 101.364 43.0811 101.727 43.0811C102.029 43.0811 102.294 43.0321 102.511 42.9365L102.435 42.5616C102.241 42.6382 102.031 42.6733 101.798 42.6733C101.585 42.6733 101.414 42.6167 101.285 42.5054C101.137 42.3837 101.06 42.1985 101.053 41.9596H102.625C102.641 41.8958 102.647 41.8134 102.647 41.7164C102.647 41.4138 102.573 41.1635 102.44 40.9552C102.261 40.7021 102.006 40.5702 101.668 40.5702C101.325 40.5702 101.049 40.7019 100.847 40.9565ZM101.053 41.5759C101.068 41.4136 101.124 41.2689 101.207 41.1605C101.315 41.0173 101.452 40.9392 101.626 40.9392C101.816 40.9392 101.949 41.0188 102.044 41.1648C102.114 41.2791 102.153 41.4179 102.148 41.5759H101.053ZM101.374 45.7643C101.032 45.7643 100.755 45.8932 100.553 46.1535C100.357 46.3939 100.263 46.6978 100.263 47.0627C100.263 47.4345 100.365 47.7269 100.573 47.9497C100.781 48.1697 101.067 48.2799 101.43 48.2799C101.74 48.2799 102 48.2291 102.219 48.1319L102.142 47.7558C101.949 47.8323 101.74 47.867 101.501 47.867C101.289 47.867 101.124 47.8119 100.99 47.6976C100.843 47.579 100.767 47.3878 100.762 47.149H102.334C102.347 47.0852 102.357 47.0058 102.357 46.913C102.357 46.6108 102.278 46.36 102.147 46.1531C101.969 45.8932 101.712 45.7643 101.374 45.7643ZM101.33 46.142C101.518 46.142 101.66 46.2173 101.748 46.3605C101.823 46.4806 101.859 46.611 101.854 46.7716H100.762C100.777 46.611 100.83 46.4722 100.919 46.3561C101.02 46.2173 101.165 46.142 101.33 46.142ZM100.209 41.0839C100.25 41.0839 100.29 41.0854 100.341 41.0982V40.5904C100.302 40.58 100.262 40.5771 100.238 40.5771C100.102 40.5771 99.9779 40.6205 99.854 40.7088C99.7255 40.8014 99.6367 40.9318 99.5877 41.0852H99.5685L99.5502 40.6279H99.094C99.1052 40.855 99.1117 41.1082 99.1117 41.3817V43.0332H99.6364V41.7713C99.6364 41.5787 99.6839 41.4179 99.7699 41.298C99.8839 41.1548 100.025 41.0839 100.209 41.0839ZM98.488 41.4008C98.668 41.2199 98.7527 40.9722 98.7527 40.6641C98.7527 40.363 98.6559 40.117 98.4511 39.9389C98.2428 39.7567 97.935 39.6667 97.5202 39.6667C97.2004 39.6667 96.9115 39.6871 96.7266 39.7404V43.0334H97.197V41.7453C97.2688 41.7553 97.3641 41.764 97.4924 41.764C97.9322 41.764 98.2646 41.644 98.488 41.4008ZM98.2392 40.6975C98.2392 40.8984 98.1706 41.0578 98.0387 41.1735C97.9074 41.288 97.7273 41.3457 97.4962 41.3457C97.3684 41.3457 97.2711 41.3357 97.197 41.3166V40.1127C97.2852 40.0908 97.4018 40.0836 97.5434 40.0836C97.7668 40.0836 97.9352 40.1326 98.0544 40.24C98.1745 40.3474 98.2392 40.4962 98.2392 40.6975ZM98.7221 44.8686C98.3946 44.8686 98.1141 44.8888 97.8733 44.9335V48.2319H98.4037V46.8238H98.7221C98.8959 46.8238 99.0317 46.87 99.1212 46.9657C99.2137 47.051 99.2835 47.2117 99.326 47.4373C99.4155 47.8673 99.4883 48.1352 99.5362 48.2319H100.094C100.065 48.1742 100.026 48.0642 99.9846 47.8803C99.9516 47.7805 99.9105 47.5866 99.8363 47.3087C99.7434 46.9527 99.5892 46.7269 99.3648 46.6444V46.6299C99.5362 46.5661 99.6789 46.4694 99.7841 46.3334C99.9225 46.1798 99.9846 45.9904 99.9846 45.7891C99.9846 45.5097 99.8936 45.2899 99.6964 45.132C99.492 44.9524 99.1658 44.8686 98.7221 44.8686ZM98.4037 45.2984C98.4865 45.2752 98.6109 45.2622 98.7771 45.2622C99.2165 45.265 99.4409 45.4531 99.4409 45.8366C99.4409 46.0192 99.3795 46.1596 99.2553 46.2665C99.1341 46.375 98.9737 46.4331 98.7674 46.4331H98.4037V45.2984V45.2984ZM102.769 47.7184L102.658 48.1163C102.846 48.2263 103.071 48.2799 103.342 48.2799C103.622 48.2799 103.847 48.2117 104.009 48.0773C104.165 47.9384 104.248 47.7603 104.248 47.5419C104.248 47.2089 104.05 46.97 103.635 46.8121C103.484 46.7544 103.372 46.6978 103.319 46.6473C103.259 46.5965 103.221 46.5256 103.221 46.4446C103.221 46.3633 103.255 46.2956 103.313 46.242C103.372 46.19 103.462 46.1624 103.571 46.1624C103.74 46.1624 103.899 46.2086 104.05 46.2956L104.161 45.9164C103.997 45.8207 103.8 45.7732 103.568 45.7732C103.313 45.7732 103.106 45.8442 102.949 45.9772C102.8 46.1208 102.721 46.2926 102.721 46.4984C102.721 46.805 102.934 47.0282 103.351 47.19C103.499 47.2466 103.604 47.3002 103.663 47.3551C103.72 47.413 103.754 47.4954 103.754 47.584C103.754 47.7805 103.613 47.8777 103.351 47.8777C103.144 47.8775 102.949 47.8269 102.769 47.7184ZM104.037 41.0173C104.179 41.0173 104.289 41.0709 104.356 41.178C104.43 41.288 104.472 41.4312 104.472 41.6106V43.0332H104.976V41.5644C104.976 41.4225 105.021 41.2893 105.102 41.1819C105.19 41.0709 105.303 41.0171 105.41 41.0171C105.682 41.0171 105.828 41.2355 105.828 41.6872V43.0332H106.339V41.6047C106.339 41.2457 106.256 40.9737 106.09 40.7986C105.954 40.6522 105.781 40.5769 105.572 40.5769C105.416 40.5769 105.29 40.6277 105.158 40.7201C105.043 40.7984 104.953 40.898 104.877 41.027H104.872C104.761 40.7259 104.54 40.5769 104.223 40.5769C103.906 40.5769 103.672 40.7129 103.509 40.9837H103.497L103.466 40.6277H103.027C103.032 40.8737 103.043 41.1051 103.043 41.3164V43.033H103.547V41.5973C103.547 41.4453 103.595 41.3106 103.688 41.1934C103.775 41.0739 103.896 41.0173 104.037 41.0173ZM104.893 46.1535C104.699 46.3939 104.605 46.6978 104.605 47.0627C104.605 47.4345 104.707 47.7269 104.917 47.9497C105.124 48.1697 105.395 48.2799 105.714 48.2799C106.02 48.2799 106.282 48.2291 106.503 48.1319L106.422 47.756C106.236 47.8326 106.02 47.8673 105.783 47.8673C105.573 47.8673 105.423 47.8122 105.33 47.6978C105.188 47.5792 105.107 47.3881 105.102 47.1492H106.619C106.627 47.0854 106.637 47.0061 106.637 46.9132C106.637 46.611 106.568 46.3603 106.428 46.1533C106.255 45.893 105.994 45.7641 105.657 45.7641C105.374 45.7643 105.098 45.8932 104.893 46.1535ZM105.102 46.7716C105.12 46.611 105.173 46.4722 105.257 46.3561C105.37 46.2171 105.448 46.142 105.615 46.142C105.807 46.142 105.938 46.2173 106.032 46.3605C106.103 46.4806 106.139 46.611 106.139 46.7716H105.102ZM107.021 39.6684C106.959 39.7365 106.93 39.8072 106.93 39.8986C106.93 39.9882 106.959 40.0634 107.019 40.1257C107.075 40.1836 107.151 40.2214 107.235 40.2214C107.332 40.2214 107.414 40.1867 107.475 40.1257C107.535 40.0678 107.567 39.994 107.567 39.8986C107.567 39.8072 107.535 39.7363 107.475 39.6684C107.414 39.6118 107.338 39.5799 107.248 39.5799C107.153 39.5799 107.085 39.6118 107.021 39.6684ZM107.506 40.6281H106.984V43.0334H107.506V40.6281ZM107.645 44.7151H107.117V48.2319H107.645V44.7151ZM108.748 44.7151H108.199V48.2319H108.748V44.7151ZM112.239 45.8207H111.787C111.801 46.0509 111.802 46.3041 111.802 46.5763V48.2319H112.33V46.967C112.33 46.7716 112.378 46.6138 112.464 46.4937C112.559 46.3433 112.703 46.2752 112.883 46.2752C112.941 46.2752 112.992 46.2839 113.043 46.2913V45.7832C113.007 45.7761 112.968 45.7732 112.908 45.7732C112.777 45.7732 112.652 45.8179 112.534 45.9004C112.417 45.993 112.327 46.1249 112.272 46.278H112.263L112.239 45.8207Z" fill="white"/>
</g>
<defs>
<filter id="filter0_b_776_3303" x="-4" y="-4" width="144" height="84" filterUnits="userSpaceOnUse" color-interpolation-filters="sRGB">
<feFlood flood-opacity="0" result="BackgroundImageFix"/>
<feGaussianBlur in="BackgroundImageFix" stdDeviation="2"/>
<feComposite in2="SourceAlpha" operator="in" result="effect1_backgroundBlur_776_3303"/>
<feBlend mode="normal" in="SourceGraphic" in2="effect1_backgroundBlur_776_3303" result="shape"/>
</filter>
</defs>
</svg>
