<svg width="163" height="76" viewBox="0 0 163 76" fill="none" xmlns="http://www.w3.org/2000/svg">
<g filter="url(#filter0_b_776_3304)">
<path d="M23.6115 39.8728C23.6488 42.4165 25.9356 43.073 27.9904 43.073C30.1446 43.073 31.6691 42.2092 31.6691 40.6674C31.6691 39.3718 30.6997 38.8406 29.1379 38.5642L26.0474 38.0243C24.4276 37.7479 22.0041 37.0742 22.0041 34.3188C22.0041 31.7275 23.9719 30 27.4601 30C30.186 30 33.0611 31.0322 33.2599 34.4484H31.23C31.0601 33.3384 30.4511 31.8268 27.1908 31.8268C25.7036 31.8268 24.0299 32.4833 24.0299 34.1504C24.0299 35.0141 24.5809 35.7224 26.2587 36.0204L29.5936 36.6164C30.6624 36.8151 33.6908 37.3506 33.6908 40.2528C33.6908 43.8676 30.5837 44.8998 27.8371 44.8998C24.7715 44.8998 21.5898 43.7856 21.5898 39.8728H23.6115Z" fill="white"/>
<path d="M40.5088 33.7754C44.3947 33.7754 46.3086 36.3364 46.3086 39.338C46.3086 42.3396 44.3988 44.9006 40.5088 44.9006C36.6188 44.9006 34.709 42.3352 34.709 39.338C34.709 36.3408 36.6105 33.7754 40.5088 33.7754V33.7754ZM40.5088 35.4424C37.7456 35.4424 36.7348 37.4507 36.7348 39.3294C36.7348 41.208 37.7456 43.2163 40.5088 43.2163C43.272 43.2163 44.2828 41.208 44.2828 39.3294C44.2828 37.4507 43.272 35.4424 40.5088 35.4424" fill="white"/>
<path d="M47.4258 34.1339H49.3397V35.7016H49.377C50.2718 34.2505 51.8626 33.7754 53.2836 33.7754C55.6864 33.7754 57.476 34.8465 57.476 37.4507V44.5421H55.5538V37.848C55.5538 36.3192 54.6383 35.4424 52.6 35.4424C50.8725 35.4424 49.3397 36.479 49.3397 38.5433V44.5421H47.4341L47.4258 34.1339Z" fill="white"/>
<path d="M67.529 34.1328H69.6625L64.4385 46.3291C63.4899 48.536 62.7442 48.9203 60.9752 48.9203C60.4988 48.9203 60.0183 48.8815 59.5253 48.8426V47.1669C59.8691 47.1669 60.1715 47.2447 60.6314 47.2447C61.8121 47.2447 62.0979 46.9855 62.7027 45.6553L63.146 44.6836L58.5352 34.1328H60.7267L64.1568 42.3385L67.529 34.1328Z" fill="white"/>
<path d="M88.5873 35.4633C88.2807 33.4982 86.7977 31.8268 83.9392 31.8268C80.7203 31.8268 78.6779 33.753 78.6779 37.627C78.6779 40.309 80.0699 43.073 83.8232 43.073C86.2052 43.073 88.0156 41.881 88.5873 39.117H90.609C90.2858 42.2567 87.709 44.8998 83.8066 44.8998C80.3764 44.8998 76.6562 42.9348 76.6562 37.411C76.6562 33.278 79.1419 30 83.7859 30C86.5077 30 90.2651 31.2136 90.609 35.4633H88.5873Z" fill="white"/>
<path d="M93.8324 39.934C93.9857 42.0934 95.8127 43.2335 97.5112 43.2335C98.5966 43.2335 100.084 42.8535 100.73 41.3851H102.752C102.341 42.4487 101.628 43.3556 100.708 43.9841C99.7881 44.6126 98.7058 44.9324 97.6065 44.9006C93.7206 44.9006 91.8066 42.3352 91.8066 39.338C91.8066 36.3408 93.7123 33.7754 97.6065 33.7754C100.237 33.7754 103.021 35.3647 103.021 39.6749V39.934H93.8324ZM100.999 38.3835C100.714 36.4962 99.3008 35.4424 97.5112 35.4424C95.7215 35.4424 94.1763 36.5178 93.8904 38.3835H100.999Z" fill="white"/>
<path d="M104.204 34.1339H106.101V35.7016H106.138C107.033 34.2505 108.624 33.7754 110.045 33.7754C112.448 33.7754 114.237 34.8465 114.237 37.4507V44.5421H112.332V37.848C112.332 36.3192 111.416 35.4424 109.378 35.4424C107.642 35.4424 106.101 36.4962 106.101 38.5433V44.5421H104.195L104.204 34.1339Z" fill="white"/>
<path d="M117.405 30.9336H119.311V34.1338H122.169V35.6843H119.311V42.0933C119.311 42.9312 119.883 43.2292 120.852 43.2292C121.294 43.2224 121.735 43.1747 122.169 43.0867V44.758C121.462 44.8686 120.747 44.9149 120.032 44.8962C118.168 44.8962 117.405 43.9418 117.405 42.4302V35.6843H115.334V34.1338H117.405V30.9336Z" fill="white"/>
<path d="M123.242 34.1324H125.156V36.0456H125.189C126.088 34.4001 127.364 33.7826 128.624 33.7826C128.99 33.7589 129.357 33.7939 129.713 33.8862V36.0456C129.272 35.9196 128.816 35.8529 128.358 35.8469C126.474 35.8469 125.16 37.0001 125.16 39.2674V44.5407H123.255L123.242 34.1324Z" fill="white"/>
<path d="M131.811 39.934C131.964 42.0934 133.795 43.2335 135.49 43.2335C136.575 43.2335 138.062 42.8535 138.713 41.3851H140.73C140.32 42.4487 139.606 43.3556 138.686 43.9841C137.767 44.6126 136.684 44.9324 135.585 44.9006C131.699 44.9006 129.785 42.3352 129.785 39.338C129.785 36.3408 131.691 33.7754 135.585 33.7754C138.216 33.7754 141 35.3647 141 39.6749V39.934H131.811ZM138.978 38.3835C138.692 36.4962 137.284 35.4424 135.49 35.4424C133.696 35.4424 132.155 36.5178 131.869 38.3835H138.978Z" fill="white"/>
</g>
<defs>
<filter id="filter0_b_776_3304" x="-4" y="-4" width="171" height="84" filterUnits="userSpaceOnUse" color-interpolation-filters="sRGB">
<feFlood flood-opacity="0" result="BackgroundImageFix"/>
<feGaussianBlur in="BackgroundImageFix" stdDeviation="2"/>
<feComposite in2="SourceAlpha" operator="in" result="effect1_backgroundBlur_776_3304"/>
<feBlend mode="normal" in="SourceGraphic" in2="effect1_backgroundBlur_776_3304" result="shape"/>
</filter>
</defs>
</svg>
