<svg width="182" height="76" viewBox="0 0 182 76" fill="none" xmlns="http://www.w3.org/2000/svg">
<g filter="url(#filter0_b_776_3305)">
<path d="M102.887 26H104.059C106.204 26.1414 108.327 26.8424 110.066 28.1192C111.6 29.2119 112.855 30.6945 113.67 32.3932C114.567 34.2302 114.924 36.3183 114.745 38.3507C113.436 37.6204 111.906 37.5609 110.45 37.4129C109.875 37.4088 109.44 37.0248 109.044 36.6592C108.721 36.3512 108.356 36.0883 108.059 35.7542C107.697 35.272 107.566 34.6615 107.197 34.1842C106.872 33.7264 106.384 33.3342 105.808 33.282C105.172 33.2082 104.555 33.4198 103.945 33.563C102.87 33.8236 101.813 34.1676 100.719 34.3473C100.139 34.44 99.4771 34.453 99.0072 34.0433C98.3662 33.5255 98.2409 32.608 98.4524 31.8516C98.5377 31.3217 99.0335 30.8823 99.5795 30.9178C100.12 30.8634 100.69 31.016 101.218 30.8372C101.848 30.6018 101.976 29.835 101.817 29.2561C101.729 29.026 101.625 28.759 101.375 28.664C100.96 28.4763 100.501 28.3871 100.048 28.3637C99.799 28.4083 99.7028 28.75 99.8197 28.9535C100.036 29.134 100.372 29.1183 100.579 29.3218C100.685 29.4555 100.697 29.6721 100.602 29.8139C100.358 30.0543 99.994 29.949 99.7016 29.8792C99.2013 29.7378 98.6489 29.6478 98.1507 29.8391C97.6893 30.0057 97.3047 30.3514 97.0584 30.7724C96.5707 31.5175 96.3984 32.4207 96.3495 33.2964C96.2399 34.7038 96.6415 36.1702 97.5344 37.2728C97.8753 37.6902 98.3044 38.0445 98.8026 38.2593C99.2507 38.4488 99.7432 38.4488 100.218 38.5136C100.351 38.5303 100.48 38.624 100.505 38.7622C100.549 39.0274 100.471 39.334 100.263 39.5154C99.9398 39.8085 99.5552 40.0178 99.1755 40.2245C99.1726 40.2619 99.1666 40.3362 99.1641 40.3731C99.5596 40.6414 99.9956 40.8476 100.372 41.1448C100.736 41.4095 101.104 41.717 101.56 41.7976C102.047 41.9313 102.566 41.8273 103.051 41.9777C103.344 42.0691 103.604 42.3109 103.65 42.6256C103.733 43.5954 103.649 44.5688 103.642 45.5404C103.611 46.588 103.922 47.602 104.162 48.61C104.094 48.6226 104.026 48.6352 103.96 48.6465H102.936C101.766 48.5357 100.594 48.3457 99.4917 47.9252C97.3015 47.1085 95.3878 45.589 94.084 43.6499C92.9622 42.0061 92.3107 40.053 92.1765 38.0702C92.0863 36.3093 92.3564 34.5165 93.0516 32.8903C93.9372 30.7868 95.4873 28.9724 97.4191 27.7586C99.0456 26.7024 100.958 26.1324 102.887 26ZM26.3261 31.3123C26.7916 30.3722 27.8357 29.7216 28.8924 29.7824C29.6951 29.7581 30.4961 30.1079 31.0193 30.7171C31.5528 31.2812 31.7113 32.0632 31.9283 32.7827C32.8324 35.8573 33.7476 38.9292 34.6571 42.0025C34.9615 42.0191 35.2685 42.02 35.5706 42.0668C35.6958 42.0943 35.7692 42.2226 35.7755 42.3437C35.8061 42.7976 35.8151 43.2577 35.7467 43.7088C35.6891 43.9465 35.3833 43.9335 35.1974 43.9272C31.6703 43.9105 28.1428 43.9232 24.6152 43.9186C23.7454 43.9083 22.8656 43.9839 22.0039 43.8308V42.179C22.3281 41.9728 22.745 42.0515 23.1074 41.9939C24.0871 38.6573 25.0821 35.3251 26.0636 31.9889C26.1411 31.7598 26.2086 31.5252 26.3261 31.3123ZM28.3152 31.997C28.0388 32.241 27.9888 32.6314 27.8808 32.9623C26.9884 35.9843 26.0951 39.0062 25.1974 42.0268C27.6484 42.0281 30.0995 42.0317 32.5509 42.0245C31.682 39.0539 30.7937 36.0892 29.9185 33.1204C29.8118 32.7548 29.7312 32.3667 29.5043 32.0515C29.204 31.7336 28.6331 31.6751 28.3152 31.997ZM123.595 29.8058C125.398 29.546 127.298 30.4595 128.214 32.0326C128.353 32.242 128.555 32.5765 128.358 32.8079C128.023 33.0272 127.634 33.1402 127.268 33.2969C127.074 33.3504 126.801 33.4877 126.679 33.2532C126.402 32.875 126.172 32.4459 125.784 32.1672C125.105 31.6675 124.161 31.4644 123.364 31.7791C122.295 32.1312 121.536 33.2127 121.516 34.3306C121.489 36.0558 121.508 37.782 121.506 39.5077C121.488 40.7135 122.399 41.858 123.576 42.1132C124.411 42.3271 125.289 42.1168 126.052 41.7571C126.508 41.5545 126.868 41.2002 127.243 40.88C127.381 40.7251 127.651 40.718 127.79 40.8764C128.085 41.148 128.392 41.4167 128.64 41.735C128.799 41.9633 128.592 42.2231 128.425 42.3743C127.285 43.4481 125.733 44.0906 124.161 44.0577C121.829 44.1267 119.674 42.1447 119.529 39.8202C119.419 38.1426 119.502 36.4588 119.48 34.7785C119.455 33.3216 120.053 31.8408 121.171 30.8881C121.851 30.3042 122.702 29.9098 123.595 29.8058ZM40.7532 33.2685C42.5249 33.1685 44.292 34.1933 45.097 35.7722C45.7426 36.9473 45.662 38.3416 45.6269 39.6352C45.5518 41.0917 44.7562 42.5009 43.5257 43.2901C42.144 44.2297 40.2431 44.3148 38.7664 43.5436C37.9289 43.0821 37.1914 42.4023 36.7723 41.5324C36.2203 40.5532 36.2104 39.383 36.2266 38.2908C36.2153 37.298 36.4184 36.2728 36.9763 35.4368C37.7695 34.1397 39.2387 33.3157 40.7532 33.2685ZM40.5727 35.1612C39.6245 35.2859 38.7862 35.9689 38.4453 36.8577C38.1698 37.5083 38.2702 38.235 38.2518 38.9216C38.2509 39.542 38.2531 40.2124 38.5723 40.7675C39.1054 41.7954 40.3687 42.418 41.5042 42.124C42.6343 41.9138 43.5172 40.8638 43.6131 39.7329C43.6203 38.9738 43.6378 38.2129 43.5896 37.4552C43.4316 36.0387 41.9828 34.928 40.5727 35.1612ZM71.5941 33.2685C73.1927 33.1892 74.8074 34.0132 75.6708 35.3648C75.9729 35.8109 76.1917 36.3111 76.3207 36.8343C76.5035 37.6821 76.4226 38.5569 76.4392 39.4173C76.463 41.034 75.5382 42.6184 74.1394 43.4207C72.821 44.2045 71.1055 44.2824 69.7269 43.6062C68.1498 42.8791 67.0639 41.2033 67.0757 39.4627C67.0834 38.4587 66.9649 37.4155 67.309 36.4498C67.8946 34.639 69.6845 33.2973 71.5941 33.2685ZM71.4133 35.1626C70.1459 35.2977 69.0726 36.4678 69.0953 37.7496C69.0969 38.5056 69.0698 39.2637 69.126 40.0183C69.3181 41.021 70.1265 41.8836 71.1237 42.1155C72.2557 42.4221 73.5501 41.8471 74.0941 40.8103C74.46 40.2052 74.4734 39.4713 74.4617 38.7865C74.456 38.022 74.4948 37.1828 74.0835 36.5029C73.5752 35.57 72.4684 35.0082 71.4133 35.1626ZM80.0934 34.2792C81.277 33.133 83.1696 32.9943 84.6283 33.6575C86.1121 34.2739 87.2084 35.7249 87.3969 37.3201C87.4401 38.207 87.4426 39.0976 87.4005 39.9845C87.2161 41.6666 86.0057 43.1776 84.4241 43.7629C83.5429 44.0839 82.5643 44.1546 81.6519 43.9308C81.0643 43.78 80.5463 43.4427 80.0869 43.056C80.0703 44.3351 80.0978 45.6142 80.082 46.8928C80.0869 47.0973 79.9057 47.3134 79.6784 47.2467C79.2279 47.267 78.7762 47.2701 78.3269 47.2454C78.2008 47.2409 78.1049 47.1233 78.0811 47.0076C78.0273 46.4147 78.0616 45.8186 78.0568 45.2248C78.0572 41.4721 78.0592 37.7194 78.0548 33.9672C78.0038 33.7552 78.1122 33.485 78.3459 33.454C78.8264 33.4157 79.3185 33.3869 79.799 33.4481C80.156 33.5526 80.0647 33.9942 80.0934 34.2792ZM82.3989 35.1631C81.0845 35.3076 80.0076 36.5619 80.0804 37.8851C80.0796 38.5542 80.0614 39.2245 80.1083 39.8931C80.2211 40.8107 80.8662 41.6175 81.7098 41.979C82.7094 42.4369 83.9679 42.1416 84.706 41.3388C85.1981 40.8134 85.4553 40.0885 85.4444 39.3727C85.4246 38.5785 85.5261 37.7618 85.2984 36.9887C84.9179 35.8037 83.6424 34.9604 82.3989 35.1631ZM133.844 33.3428C134.911 33.06 136.126 33.535 136.718 34.467C137.048 34.9195 137.131 35.4814 137.297 36.0023C138.003 38.3871 138.712 40.7711 139.415 43.1569C139.455 43.3802 139.624 43.7521 139.349 43.8867C138.807 43.9528 138.255 43.9335 137.712 43.9155C137.478 43.8948 137.462 43.5904 137.387 43.4283C136.733 41.1916 136.064 38.9585 135.405 36.7226C135.278 36.3309 135.219 35.9104 134.998 35.5561C134.754 35.1815 134.147 35.2081 133.914 35.5732C133.725 35.959 133.635 36.3827 133.511 36.7911C132.907 38.8279 132.303 40.8643 131.7 42.9007C131.596 43.2478 131.53 43.6161 131.33 43.924C130.771 43.9128 130.213 43.9452 129.658 43.9101C129.383 43.8714 129.406 43.5364 129.464 43.3306C130.261 40.6572 131.046 37.9797 131.842 35.3062C132.086 34.3545 132.866 33.5337 133.844 33.3428ZM144.531 33.269C146.38 33.1694 148.224 34.2973 148.967 35.996C149.525 37.099 149.357 38.3633 149.372 39.5528C149.375 41.2794 148.248 42.907 146.7 43.6296C145.498 44.1699 144.061 44.2225 142.848 43.6886C141.632 43.1848 140.672 42.1308 140.251 40.8882C139.942 39.9647 140.01 38.9783 140.006 38.0206C139.959 36.3958 140.857 34.7907 142.246 33.9542C142.928 33.5255 143.728 33.3068 144.531 33.269ZM144.35 35.1631C143.019 35.3085 141.938 36.5925 142.03 37.9306C142.035 38.5992 142.007 39.27 142.062 39.9377C142.249 41.3474 143.734 42.4374 145.136 42.1546C146.113 42.0002 146.966 41.2636 147.252 40.315C147.487 39.5721 147.377 38.7847 147.391 38.0202C147.397 37.3214 147.197 36.6042 146.729 36.073C146.148 35.4093 145.234 35.0185 144.35 35.1631ZM47.6399 33.4526C48.0969 33.4054 48.5593 33.4081 49.0181 33.4333C49.2333 33.4481 49.4282 33.6485 49.3715 33.879C49.3949 35.2454 49.367 36.6123 49.3783 37.9792C50.0869 37.9414 50.9374 38.1094 51.5258 37.6024C51.9648 37.1463 52.2331 36.5605 52.5555 36.0225C52.953 35.313 53.383 34.6219 53.7725 33.9078C53.8733 33.7588 53.9449 33.571 54.1034 33.4733C54.3339 33.4022 54.586 33.4391 54.8251 33.4193C55.2551 33.4454 55.7544 33.309 56.1182 33.6089C56.1024 33.8128 56.0722 34.0222 55.9556 34.1969C55.1195 35.5921 54.351 37.0284 53.4848 38.406C54.1569 38.7667 54.6135 39.4087 54.9156 40.0921C55.3249 41.0088 55.6954 41.9421 56.1132 42.8552C56.2154 43.097 56.3446 43.3369 56.3545 43.6066C56.3703 43.7313 56.2947 43.8817 56.1587 43.8957C55.6103 43.9389 55.0579 43.9416 54.5095 43.9159C54.3267 43.9011 54.2794 43.6832 54.2011 43.5539C53.8202 42.6868 53.4713 41.8053 53.0742 40.9453C52.9004 40.5469 52.5884 40.1934 52.1665 40.0548C51.2643 39.7855 50.3057 39.8895 49.3783 39.867C49.3665 41.0674 49.3958 42.2685 49.3715 43.4689C49.3899 43.6282 49.3391 43.8277 49.1797 43.8975C48.6615 43.9429 48.1397 43.9376 47.621 43.9141C47.4904 43.9119 47.4004 43.7845 47.3806 43.6656C47.3414 43.3617 47.3495 43.0542 47.3473 42.7485C47.3599 39.8216 47.3454 36.8942 47.3526 33.9672C47.3121 33.7593 47.4188 33.5004 47.6399 33.4526ZM57.7277 33.6269C57.8412 33.3806 58.1644 33.4445 58.381 33.427C60.783 33.427 63.1849 33.4337 65.5875 33.4238C65.7727 33.4148 66.0715 33.4112 66.1395 33.6381C66.1969 34.1199 66.1937 34.6106 66.1678 35.0951C66.1464 35.2995 65.8989 35.3877 65.7209 35.3585C64.7908 35.3837 63.8599 35.3544 62.9297 35.3652C62.9269 38.067 62.933 40.7688 62.9293 43.4707C62.9419 43.6134 62.9302 43.8781 62.732 43.8961C62.2039 43.9416 61.6695 43.9452 61.1418 43.9006C60.8748 43.839 60.9788 43.4792 60.9468 43.2901C60.9487 40.6486 60.95 38.0071 60.9482 35.3652C59.9726 35.3521 58.9965 35.3864 58.0217 35.358C57.8308 35.3503 57.6494 35.1653 57.7097 34.96C57.6899 34.516 57.6836 34.0694 57.7277 33.6269ZM151.244 33.454C151.744 33.377 152.262 33.4067 152.765 33.4634C152.964 33.5071 153.001 33.752 152.977 33.9213C152.987 35.1973 152.965 36.4741 152.976 37.7505C154.476 37.7519 155.976 37.7528 157.477 37.75C157.503 36.3913 157.429 35.0302 157.505 33.6732C157.549 33.4062 157.908 33.4242 158.106 33.4162C158.546 33.4468 159.068 33.3243 159.459 33.5913V43.8318C158.874 43.9506 158.267 43.965 157.678 43.8934C157.493 43.8646 157.465 43.6138 157.481 43.4711C157.457 42.1951 157.49 40.9188 157.477 39.6424C155.976 39.641 154.476 39.6406 152.976 39.6424C152.967 40.8733 152.984 42.1047 152.979 43.336C152.935 43.508 153.049 43.8214 152.813 43.8889C152.346 43.9605 151.868 43.9371 151.399 43.9155C151.28 43.8885 151.133 43.9268 151.055 43.8142C150.968 43.6733 150.996 43.4896 150.987 43.3356C151.003 40.2578 150.99 37.1796 150.993 34.1019C151.002 33.883 150.946 33.5084 151.244 33.454Z" fill="white"/>
</g>
<defs>
<filter id="filter0_b_776_3305" x="-4" y="-4" width="190" height="84" filterUnits="userSpaceOnUse" color-interpolation-filters="sRGB">
<feFlood flood-opacity="0" result="BackgroundImageFix"/>
<feGaussianBlur in="BackgroundImageFix" stdDeviation="2"/>
<feComposite in2="SourceAlpha" operator="in" result="effect1_backgroundBlur_776_3305"/>
<feBlend mode="normal" in="SourceGraphic" in2="effect1_backgroundBlur_776_3305" result="shape"/>
</filter>
</defs>
</svg>
