<svg width="144" height="76" viewBox="0 0 144 76" fill="none" xmlns="http://www.w3.org/2000/svg">
<g filter="url(#filter0_b_776_3306)">
<path d="M21.8028 43.3573V33.0527C21.8044 32.7924 21.8883 32.539 22.043 32.327C22.1978 32.115 22.4159 31.9547 22.6675 31.868C22.9192 31.7813 23.1922 31.7724 23.4492 31.8426C23.7062 31.9128 23.9348 32.0585 24.1037 32.26L27.494 36.0093L30.9087 32.2322C31.0832 32.0417 31.3126 31.9072 31.567 31.8463C31.8214 31.7854 32.0887 31.801 32.3338 31.8911C32.5789 31.9812 32.7902 32.1414 32.9401 32.3509C33.0899 32.5605 33.1711 32.8092 33.173 33.0646V43.3691C33.1545 43.6917 33.0101 43.9951 32.7693 44.2171C32.5284 44.439 32.2097 44.5627 31.8783 44.5627C31.5469 44.5627 31.2282 44.439 30.9874 44.2171C30.7466 43.9951 30.6021 43.6917 30.5835 43.3691V36.4056L28.3477 38.8629C28.2202 38.9723 28.0718 39.0561 27.911 39.1095C27.7502 39.1629 27.5802 39.1849 27.4107 39.1742C27.2411 39.1636 27.0754 39.1205 26.9231 39.0472C26.7706 38.9741 26.6345 38.8724 26.5225 38.748L24.3923 36.4056V43.3573C24.4022 43.529 24.376 43.7009 24.3154 43.8624C24.2548 44.0239 24.161 44.1717 24.0398 44.2966C23.9186 44.4216 23.7726 44.5212 23.6105 44.5892C23.4485 44.6573 23.274 44.6924 23.0976 44.6924C22.9212 44.6924 22.7466 44.6573 22.5846 44.5892C22.4226 44.5212 22.2765 44.4216 22.1553 44.2966C22.0341 44.1717 21.9403 44.0239 21.8797 43.8624C21.8191 43.7009 21.7929 43.529 21.8028 43.3573ZM37.9333 43.3573C37.9148 43.6798 37.7703 43.9832 37.5295 44.2052C37.2887 44.4272 36.97 44.5508 36.6386 44.5508C36.3072 44.5508 35.9884 44.4272 35.7476 44.2052C35.5069 43.9832 35.3624 43.6798 35.3438 43.3573V33.0527C35.3339 32.8809 35.3602 32.7091 35.4208 32.5476C35.4813 32.3861 35.5751 32.2382 35.6963 32.1133C35.8175 31.9883 35.9636 31.8888 36.1257 31.8207C36.2876 31.7527 36.4622 31.7176 36.6386 31.7176C36.815 31.7176 36.9895 31.7527 37.1516 31.8207C37.3136 31.8888 37.4597 31.9883 37.5809 32.1133C37.702 32.2382 37.7958 32.3861 37.8565 32.5476C37.917 32.7091 37.9432 32.8809 37.9333 33.0527V36.9605H42.5839V33.0646C42.574 32.8928 42.6001 32.721 42.6608 32.5595C42.7214 32.398 42.8152 32.2501 42.9364 32.1252C43.0576 32.0002 43.2037 31.9007 43.3657 31.8326C43.5277 31.7646 43.7022 31.7295 43.8786 31.7295C44.0551 31.7295 44.2296 31.7646 44.3916 31.8326C44.5537 31.9007 44.6997 32.0002 44.821 32.1252C44.9421 32.2501 45.0359 32.398 45.0964 32.5595C45.1571 32.721 45.1833 32.8928 45.1734 33.0646V43.3691C45.1549 43.6917 45.0103 43.9951 44.7696 44.2171C44.5288 44.439 44.2101 44.5627 43.8786 44.5627C43.5473 44.5627 43.2285 44.439 42.9877 44.2171C42.7469 43.9951 42.6024 43.6917 42.5839 43.3691V39.501H37.9333V43.3573ZM57.7672 38.1614C57.7672 37.3673 57.5257 36.5911 57.0732 35.9309C56.6208 35.2706 55.9776 34.7561 55.2251 34.4522C54.4727 34.1483 53.6447 34.0688 52.8458 34.2237C52.047 34.3786 51.3133 34.761 50.7374 35.3224C50.1614 35.8839 49.7693 36.5993 49.6104 37.3781C49.4515 38.1569 49.533 38.9641 49.8447 39.6978C50.1564 40.4314 50.6842 41.0584 51.3614 41.4996C52.0386 41.9407 52.8347 42.1763 53.6492 42.1763C54.7408 42.1741 55.787 41.7505 56.5587 40.998C57.3306 40.2455 57.7651 39.2256 57.7672 38.1614ZM58.3892 33.5362C59.327 34.4509 59.9655 35.6161 60.224 36.8846C60.4826 38.153 60.3496 39.4677 59.8418 40.6624C59.334 41.8572 58.4743 42.8784 57.3714 43.5968C56.2684 44.3153 54.9717 44.6987 53.6452 44.6987C52.3187 44.6987 51.022 44.3153 49.919 43.5968C48.816 42.8784 47.9564 41.8572 47.4485 40.6624C46.9408 39.4677 46.8078 38.153 47.0664 36.8846C47.3249 35.6161 47.9634 34.4509 48.9011 33.5362C50.1612 32.313 51.867 31.6263 53.6452 31.6263C55.4234 31.6263 57.1291 32.313 58.3892 33.5362ZM80.0159 38.1971C80.0159 37.403 79.7743 36.6268 79.3218 35.9665C78.8693 35.3063 78.2262 34.7917 77.4738 34.4878C76.7213 34.1839 75.8933 34.1045 75.0945 34.2593C74.2957 34.4143 73.5619 34.7966 72.986 35.3581C72.4101 35.9197 72.0179 36.635 71.8589 37.4138C71.7001 38.1926 71.7816 38.9998 72.0934 39.7335C72.405 40.4671 72.9328 41.0941 73.61 41.5353C74.2872 41.9764 75.0834 42.2119 75.8979 42.2119C76.9893 42.2098 78.0355 41.7861 78.8074 41.0337C79.5791 40.2812 80.0137 39.2613 80.0159 38.1971ZM80.6419 33.5718C81.5797 34.4865 82.2182 35.6518 82.4767 36.9203C82.7353 38.1887 82.6022 39.5034 82.0945 40.6981C81.5867 41.8929 80.727 42.914 79.624 43.6324C78.521 44.3509 77.2243 44.7343 75.8979 44.7343C74.5714 44.7343 73.2747 44.3509 72.1716 43.6324C71.0687 42.914 70.2089 41.8929 69.7012 40.6981C69.1934 39.5034 69.0605 38.1887 69.3189 36.9203C69.5776 35.6518 70.2161 34.4865 71.1538 33.5718C72.4139 32.3487 74.1197 31.662 75.8979 31.662C77.676 31.662 79.3818 32.3487 80.6419 33.5718ZM64.7878 43.3573V34.3289H67.7391C68.0699 34.3108 68.3811 34.1699 68.6088 33.9351C68.8364 33.7005 68.9633 33.3896 68.9633 33.0665C68.9633 32.7435 68.8364 32.4327 68.6088 32.198C68.3811 31.9632 68.0699 31.8223 67.7391 31.8042H63.5072C63.1634 31.8042 62.8335 31.9374 62.5903 32.1745C62.3471 32.4116 62.2105 32.7332 62.2105 33.0686V43.3732C62.229 43.6957 62.3735 43.9991 62.6143 44.2211C62.8551 44.443 63.1738 44.5666 63.5053 44.5666C63.8366 44.5666 64.1553 44.443 64.3962 44.2211C64.637 43.9991 64.7814 43.6957 64.7999 43.3732L64.7878 43.3573ZM101.537 43.3573C101.519 43.6798 101.374 43.9832 101.133 44.2052C100.892 44.4272 100.573 44.5508 100.242 44.5508C99.9107 44.5508 99.5922 44.4272 99.3508 44.2052C99.1107 43.9832 98.9659 43.6798 98.9475 43.3573V33.0527C98.9659 32.7301 99.1107 32.4267 99.3508 32.2047C99.5922 31.9828 99.9107 31.8591 100.242 31.8591C100.573 31.8591 100.892 31.9828 101.133 32.2047C101.374 32.4267 101.519 32.7301 101.537 33.0527V36.9605H106.196V33.0646C106.214 32.742 106.359 32.4386 106.599 32.2166C106.84 31.9947 107.159 31.8711 107.49 31.8711C107.822 31.8711 108.141 31.9947 108.381 32.2166C108.623 32.4386 108.767 32.742 108.785 33.0646V43.3691C108.767 43.6917 108.623 43.9951 108.381 44.2171C108.141 44.439 107.822 44.5627 107.49 44.5627C107.159 44.5627 106.84 44.439 106.599 44.2171C106.359 43.9951 106.214 43.6917 106.196 43.3691V39.501H101.549V43.3573H101.537ZM112.871 43.8091C112.744 44.1192 112.497 44.3677 112.183 44.5C111.869 44.6323 111.513 44.6376 111.196 44.5146C110.877 44.3916 110.622 44.1505 110.487 43.8442C110.351 43.538 110.346 43.1918 110.472 42.8817L111.712 39.8299C111.742 39.6555 111.81 39.4893 111.911 39.3424L114.708 32.5018C114.803 32.272 114.967 32.0748 115.176 31.9349C115.386 31.7951 115.634 31.7186 115.888 31.7153C116.142 31.7118 116.392 31.7816 116.605 31.9159C116.82 32.0502 116.988 32.243 117.09 32.4701L121.696 42.8659C121.763 43.0181 121.798 43.1816 121.801 43.3473C121.803 43.513 121.771 43.6774 121.708 43.8313C121.646 43.9851 121.551 44.1253 121.433 44.2439C121.315 44.3625 121.173 44.4572 121.017 44.5225C120.861 44.5878 120.694 44.6225 120.523 44.6246C120.353 44.6267 120.185 44.5961 120.027 44.5347C119.869 44.4732 119.725 44.382 119.604 44.2664C119.482 44.1507 119.385 44.0129 119.318 43.8607L118.184 41.2964H113.903L112.883 43.7972L112.871 43.8091ZM115.94 36.2788L114.915 38.7955H117.053L115.94 36.2788ZM99.2521 26.854C95.3008 26.5568 91.1705 28.3799 88.9554 31.3484C88.4712 31.9945 88.2192 31.7051 88.0811 32.0024C88.0436 32.0853 88.0383 32.1788 88.0672 32.265C88.0955 32.3513 88.1554 32.4243 88.2357 32.4701L93.5936 34.848C93.6751 34.8618 93.7593 34.8491 93.8324 34.8119C93.9054 34.7747 93.9646 34.7149 94.0001 34.642C94.0607 34.103 93.6988 34.2892 93.9186 33.5838C94.4462 31.7778 95.4501 30.1381 96.8297 28.8278L96.2436 31.9469C96.1383 31.9603 96.0403 32.0085 95.9666 32.0837C95.8922 32.1589 95.8468 32.2564 95.8383 32.3602C95.8291 32.4639 95.8567 32.5676 95.9159 32.6539C95.9764 32.7402 96.0639 32.8039 96.1666 32.8346C96.2679 32.8652 96.3778 32.8608 96.4771 32.8222C96.5764 32.7836 96.6593 32.713 96.7113 32.6222C96.7639 32.5314 96.7824 32.4259 96.7646 32.3232C96.7468 32.2206 96.6942 32.127 96.6133 32.0579L99.0528 27.3019C99.1409 27.1809 99.2074 27.0471 99.2521 26.9056V26.854ZM87.8008 33.3816C86.9768 35.3532 86.7799 37.5209 87.2363 39.603C87.6922 41.685 88.7797 43.5852 90.358 45.0567C91.9363 46.5282 93.9317 47.503 96.0857 47.8544C98.2396 48.2058 100.451 47.9176 102.435 47.0274C96.3534 46.6825 91.9389 41.6174 92.9429 35.7121L87.7843 33.3816H87.8008ZM112.984 23.0374L113.082 24.7773C113.082 24.7868 113.086 24.7958 113.092 24.8035C113.097 24.8112 113.105 24.8172 113.114 24.8209L114.741 25.5065C114.751 25.5096 114.761 25.5161 114.768 25.525C114.775 25.534 114.778 25.5449 114.778 25.5561C114.778 25.5673 114.775 25.5782 114.768 25.5871C114.761 25.596 114.751 25.6025 114.741 25.6056L112.956 25.7007C112.946 25.7015 112.937 25.7048 112.929 25.7104C112.921 25.716 112.915 25.7236 112.911 25.7324L112.208 27.3178C112.204 27.3285 112.198 27.338 112.189 27.3447C112.18 27.3515 112.168 27.3551 112.157 27.3551C112.146 27.3551 112.134 27.3515 112.125 27.3447C112.116 27.338 112.109 27.3285 112.106 27.3178L112.009 25.5779C112.008 25.5684 112.004 25.5593 111.999 25.5516C111.993 25.5439 111.986 25.5379 111.976 25.5343L110.35 24.8486C110.339 24.8455 110.33 24.839 110.322 24.8301C110.315 24.8212 110.312 24.8103 110.312 24.7991C110.312 24.7879 110.315 24.777 110.322 24.768C110.33 24.7591 110.339 24.7526 110.35 24.7495L112.134 24.6544C112.144 24.6537 112.153 24.6503 112.161 24.6447C112.169 24.6391 112.176 24.6315 112.179 24.6227L112.883 23.0374C112.886 23.0266 112.893 23.0171 112.901 23.0104C112.911 23.0036 112.922 23 112.933 23C112.945 23 112.956 23.0036 112.965 23.0104C112.974 23.0171 112.981 23.0266 112.984 23.0374ZM107.293 26.751C107.055 27.1655 106.842 27.5929 106.655 28.0312L107.488 29.1329L107.435 29.1924C107.01 28.9609 106.572 28.7531 106.123 28.5702L104.992 29.3826L104.935 29.3311C105.172 28.9165 105.386 28.4891 105.574 28.051L104.732 26.9531L104.785 26.8937C105.21 27.1252 105.649 27.333 106.097 27.5159L107.228 26.7034L107.289 26.755L107.293 26.751ZM119.106 28.7089H119.038L118.932 29.8979L117.741 30.4013V30.4686L118.96 30.5716L119.48 31.7091H119.549L119.655 30.5201L120.838 30.0366V29.9692L119.619 29.8662L119.123 28.7128L119.106 28.7089ZM102.65 23.8181L103.273 24.2501C104.171 23.8023 104.086 23.7666 103.513 24.5395C103.492 24.5672 103.948 25.3321 103.809 25.2251L103.187 24.7971C102.297 25.237 102.374 25.2846 102.948 24.5078C102.968 24.48 102.513 23.7151 102.65 23.8221V23.8181ZM111.94 31.7447C111.744 31.6536 112.472 32.4661 112.451 32.5097C111.911 33.5797 111.826 33.5322 112.805 32.8109L113.651 33.2072C113.85 33.3024 113.119 32.4899 113.139 32.4463C113.667 31.392 113.769 31.4158 112.785 32.1451L111.94 31.7447Z" fill="white"/>
</g>
<defs>
<filter id="filter0_b_776_3306" x="-4" y="-4" width="152" height="84" filterUnits="userSpaceOnUse" color-interpolation-filters="sRGB">
<feFlood flood-opacity="0" result="BackgroundImageFix"/>
<feGaussianBlur in="BackgroundImageFix" stdDeviation="2"/>
<feComposite in2="SourceAlpha" operator="in" result="effect1_backgroundBlur_776_3306"/>
<feBlend mode="normal" in="SourceGraphic" in2="effect1_backgroundBlur_776_3306" result="shape"/>
</filter>
</defs>
</svg>
