<svg width="177" height="76" fill="none" xmlns="http://www.w3.org/2000/svg">
<g filter="url(#filter0_b_776_3307)">
<path d="M60.4812 31.0176V32.9458L55.9665 45.5086H53.0724L57.5293 33.5886H52.6094V31.0176H60.4812Z" fill="white"/>
<path d="M66.5006 45.5086V42.0611H61.4648V40.016L66.269 31.0176H69.1052V39.7238H70.4944V42.0611H69.1052V45.5086H66.5006ZM66.5006 39.7238V36.7439C66.5006 35.9259 66.5585 35.1078 66.6163 34.3482H66.5585C66.2111 35.1662 65.9217 35.809 65.5166 36.627L64.0117 39.6655V39.7238H66.5006Z" fill="white"/>
<path d="M78.2495 34.582V38.9644H78.539L80.4491 34.582H83.5168L80.6806 39.2566C81.7803 39.6656 82.3013 41.0095 82.5907 42.4119C82.8222 43.2299 83.2274 44.7491 83.5747 45.5087H80.6806C80.3333 44.8659 80.1017 43.9311 79.8703 42.8209C79.6387 41.7691 79.1756 41.0095 78.4232 41.0095H78.2495V45.5087H75.3555V34.582H78.2495Z" fill="white"/>
<path d="M92.4869 40.0156C92.4869 44.5733 89.9398 45.6835 88.2612 45.6835C85.6566 45.6835 84.0938 43.6384 84.0938 40.0741C84.0938 36.1592 86.1775 34.4062 88.3191 34.4062C90.9238 34.4062 92.4869 36.5682 92.4869 40.0156ZM86.9878 40.0156C86.9878 41.8855 87.2772 43.4631 88.3191 43.4631C89.3031 43.4631 89.5346 41.5933 89.5346 40.0156C89.5346 38.4964 89.3031 36.6266 88.3191 36.6266C87.2194 36.6266 86.9878 38.4964 86.9878 40.0156Z" fill="white"/>
<path d="M101.865 34.582V45.5087H98.9128V36.9777H97.2923V39.315C97.2923 42.1782 97.0025 44.4569 95.0348 45.3919C94.5665 45.6245 94.0513 45.7445 93.5298 45.7424L93.0664 43.4052C93.6453 43.2884 93.877 42.9962 94.0506 42.5872C94.4559 41.9444 94.5714 40.6005 94.5714 39.3734V34.582H101.865Z" fill="white"/>
<path d="M106.379 41.0674C106.379 42.7619 107.421 43.4047 108.694 43.4047C109.403 43.3984 110.106 43.2801 110.778 43.054L111.125 45.1576C110.431 45.4498 109.273 45.6251 108.173 45.6251C105.163 45.6251 103.543 43.6384 103.543 40.2494C103.543 36.5682 105.453 34.4062 107.942 34.4062C110.257 34.4062 111.646 36.2176 111.646 39.5482C111.646 40.3663 111.589 40.7753 111.531 41.0674H106.379ZM108.984 39.0223C108.984 37.6199 108.637 36.5098 107.768 36.5098C106.784 36.5098 106.379 37.9121 106.379 39.0223H108.984Z" fill="white"/>
<path d="M119.347 45.333C119.057 45.4499 118.305 45.6252 117.495 45.6252C114.717 45.6252 112.922 43.697 112.922 40.1911C112.922 36.8021 114.89 34.4648 117.958 34.4648C118.492 34.4716 119.02 34.5704 119.521 34.757L119.174 37.0358C118.942 36.9774 118.537 36.8605 118.074 36.8605C116.626 36.8605 115.816 38.2045 115.816 40.0742C115.816 42.0609 116.626 43.2295 118.016 43.2295C118.421 43.2295 118.826 43.1711 119.115 42.9958L119.347 45.333Z" fill="white"/>
<path d="M128.261 42.9957C128.257 43.8364 128.315 44.6762 128.435 45.5082H125.83L125.656 44.398H125.598C125.019 45.2744 124.151 45.6835 123.167 45.6835C121.489 45.6835 120.273 44.2812 120.273 42.3529C120.273 39.4898 122.82 38.3211 125.309 38.3211V38.0874C125.309 37.2109 124.788 36.5682 123.746 36.5682C122.878 36.5682 122.183 36.8019 121.489 37.2109L120.968 35.2243C121.605 34.9321 122.878 34.4062 124.383 34.4062C127.74 34.4062 128.261 36.7435 128.261 38.9639V42.9957ZM125.367 40.1909C124.441 40.1909 123.052 40.5415 123.052 42.0608C123.052 43.1125 123.631 43.5215 124.093 43.5215C124.614 43.5215 125.136 43.2294 125.309 42.5867C125.367 42.4113 125.367 42.2945 125.367 42.0608V40.1909Z" fill="white"/>
<path d="M130.344 43.7562C130.344 42.5876 131.154 41.7695 132.08 41.7695C133.007 41.7695 133.817 42.5292 133.817 43.7562C133.817 44.9249 133.123 45.6845 132.022 45.6845C131.154 45.6845 130.344 44.9249 130.344 43.7562Z" fill="white"/>
<path d="M135.785 30.6673C136.711 30.492 137.869 30.4336 139.027 30.4336C140.647 30.4336 142.094 30.6673 143.02 31.5438C143.946 32.3618 144.236 33.3552 144.236 34.6407C144.236 36.2183 143.426 37.6791 141.921 38.3803V38.4387C142.962 38.8477 143.484 39.7826 143.773 41.4187C144.063 43.1132 144.467 44.9246 144.699 45.5089H141.632C141.458 45.0415 141.11 43.5807 140.879 41.8861C140.647 40.0164 140.127 39.4905 139.2 39.4905H138.737V45.5089H135.785V30.6673ZM138.737 37.2701H139.258C140.532 37.2701 141.284 36.2183 141.284 34.9328C141.284 33.5889 140.763 32.7124 139.432 32.654C139.196 32.6595 138.962 32.6989 138.737 32.7709V37.2701Z" fill="white"/>
<path d="M149.156 30.4922V40.2502C149.156 42.4122 149.793 43.1134 150.602 43.1134C151.471 43.1134 152.049 42.5291 152.049 40.2502V30.4922H155.002V39.7243C155.002 43.5808 153.497 45.6843 150.602 45.6843C147.477 45.6843 146.262 43.5224 146.262 39.7243V30.4922H149.156Z" fill="white"/>
<path fill-rule="evenodd" clip-rule="evenodd" d="M45.7197 42.3262C43.4044 48.6368 36.4008 51.909 30.0338 49.5717C23.7247 47.2929 20.4254 40.3396 22.7407 34.029C25.056 27.7184 32.0596 24.4462 38.4266 26.725C44.7357 29.0039 48.035 36.0157 45.7197 42.3262ZM37.8478 28.3027C32.4069 26.3745 26.3294 29.1792 24.3614 34.5548C22.3934 39.989 25.1717 46.0074 30.6705 47.9941C36.1114 49.9807 42.131 47.1761 44.099 41.742C46.1249 36.3078 43.2887 30.2894 37.8478 28.3027ZM31.0178 46.9423C26.1557 45.1894 23.6668 39.8137 25.4033 34.9638C27.1976 30.1141 32.5806 27.6015 37.4426 29.4129C42.3047 31.1658 44.7936 36.4831 43.0571 41.3329C41.2628 46.1827 35.8798 48.6953 31.0178 46.9423ZM36.5165 42.7352L37.0375 45.8906C38.8601 45.2335 40.3965 43.9514 41.3786 42.2678L38.3687 41.1576C38.1381 41.065 37.8867 41.0378 37.6419 41.079C37.3971 41.1202 37.168 41.2282 36.9796 41.3913C36.5744 41.7419 36.4008 42.2678 36.5165 42.7352ZM35.9956 39.1125C36.285 39.2294 36.6323 39.0541 36.748 38.7619C36.8638 38.4697 36.6901 38.1776 36.4008 38.0607C36.1114 37.9439 35.764 38.0607 35.6483 38.3529C35.5904 38.7035 35.7062 38.9956 35.9956 39.1125ZM35.5325 37.1259C35.8219 37.2427 36.1693 37.0674 36.2271 36.7752C36.3429 36.4831 36.2271 36.191 35.9377 36.0741C35.6483 35.9572 35.301 36.1325 35.1853 36.4247C35.0695 36.7168 35.2432 37.009 35.5325 37.1259ZM34.3749 40.3396C34.6643 40.398 34.9537 40.2811 35.0695 39.989C35.1005 39.9165 35.116 39.8382 35.1151 39.7593C35.1142 39.6804 35.0967 39.6025 35.064 39.5309C35.0312 39.4592 34.9838 39.3953 34.9249 39.3433C34.866 39.2914 34.797 39.2525 34.7222 39.2294C34.4328 39.1709 34.1434 39.2878 34.0276 39.5799C33.9118 39.8721 34.0855 40.2227 34.3749 40.3396ZM31.4229 45.8906C32.3491 46.1827 33.333 46.358 34.2592 46.358L33.6803 43.2027C33.6225 42.7352 33.2752 42.3262 32.8121 42.151C32.57 42.0702 32.3122 42.0493 32.0604 42.09C31.8086 42.1307 31.5702 42.2317 31.3651 42.3847L28.934 44.4297C29.6286 45.0725 30.4968 45.5399 31.4229 45.8906ZM27.0818 42.2678L29.5128 40.2811C29.9181 39.989 30.1495 39.4631 30.0338 38.8788C29.9181 38.3529 29.5707 37.9439 29.0498 37.827V37.7686L26.1557 36.7168C25.8084 38.7035 26.1557 40.6317 27.0818 42.2678ZM31.9439 33.5031L31.4229 30.4647C29.6286 31.1074 28.0658 32.3345 27.0818 34.0874L30.0338 35.1392C30.4968 35.3145 31.0756 35.256 31.4808 34.9055C31.9439 34.5548 32.0596 34.029 31.9439 33.5031ZM32.6385 36.7168C32.3491 36.6 32.0596 36.7168 31.9439 37.009C31.8281 37.3012 32.0017 37.6517 32.2912 37.7686C32.5806 37.8854 32.87 37.7102 32.9857 37.418C33.1015 37.1259 32.9278 36.7752 32.6385 36.7168ZM33.1594 38.6451C32.87 38.5866 32.5227 38.7035 32.4069 38.9956C32.2912 39.2878 32.4648 39.6384 32.7542 39.7553C33.0436 39.8137 33.3909 39.6968 33.5067 39.4046C33.5646 39.1125 33.4488 38.7619 33.1594 38.6451ZM33.5646 35.8403C33.4488 36.1325 33.6225 36.4247 33.9118 36.5415C34.2013 36.6584 34.5486 36.4831 34.6643 36.191C34.78 35.8988 34.6064 35.6066 34.317 35.4898C34.0276 35.3729 33.6803 35.5482 33.5646 35.8403ZM37.0375 30.4647C36.1318 30.1161 35.1705 29.9378 34.2013 29.9388L34.78 33.0356C34.8379 33.5031 35.1853 33.9705 35.7062 34.2043C36.2271 34.3796 36.748 34.2043 37.1532 33.8536L39.5264 31.867C38.8318 31.2827 37.9636 30.8152 37.0375 30.4647ZM41.3786 34.029L38.8897 36.1325C38.5424 36.4247 38.3108 36.8921 38.4266 37.418C38.4845 37.9439 38.8897 38.3529 39.3527 38.5282L42.3626 39.5799C42.7099 37.6517 42.3047 35.7235 41.3786 34.029Z" fill="white"/>
</g>
<defs>
<filter id="filter0_b_776_3307" x="-4" y="-4" width="185" height="84" filterUnits="userSpaceOnUse" color-interpolation-filters="sRGB">
<feFlood flood-opacity="0" result="BackgroundImageFix"/>
<feGaussianBlur in="BackgroundImageFix" stdDeviation="2"/>
<feComposite in2="SourceAlpha" operator="in" result="effect1_backgroundBlur_776_3307"/>
<feBlend mode="normal" in="SourceGraphic" in2="effect1_backgroundBlur_776_3307" result="shape"/>
</filter>
</defs>
</svg>
