<svg width="145" height="76" viewBox="0 0 145 76" fill="none" xmlns="http://www.w3.org/2000/svg">
<g filter="url(#filter0_b_776_3308)">
<path d="M51.0163 42.5576C51.5535 42.5576 51.8221 42.1512 51.8221 41.6094C51.8221 41.2031 51.5535 40.7967 51.0163 40.7967C50.2105 40.7967 49.539 40.9322 48.8675 41.2031C48.3303 41.474 47.9274 41.8803 47.5244 42.2867C46.9872 42.8285 46.7187 43.6412 46.5844 44.4539C46.0472 44.0475 45.51 43.6412 44.8385 43.3703L47.1216 32.8051C47.1216 32.5342 46.9873 32.1278 46.7187 31.9924C46.4501 31.7214 46.0472 31.8569 45.7785 31.9924L40.4065 36.3268C40.1379 36.5977 39.735 36.5977 39.4664 36.3268L34.0943 31.9924C33.8257 31.8569 33.4228 31.7214 33.1543 31.9924C32.8856 32.1278 32.7513 32.5342 32.7513 32.8051L35.0344 43.3703C34.363 43.6412 33.8257 44.0475 33.2885 44.4539C33.1543 43.6412 32.8856 42.8285 32.3484 42.2867C32.0798 41.8803 31.5426 41.474 31.0054 41.2031C30.3339 40.9322 29.6624 40.7967 28.8566 40.7967C28.3194 40.7967 28.0508 41.2031 28.0508 41.6094C28.0508 42.1512 28.3194 42.5576 28.8566 42.5576C29.931 42.5576 30.6025 42.8285 31.1397 43.3703C31.9456 44.3184 31.5426 46.0793 31.5426 46.0793C31.5426 46.4857 31.6769 46.7565 31.9456 47.0275C32.0798 47.0275 32.2141 47.0275 32.3484 47.0275C32.6171 47.0275 32.7513 47.0275 33.0199 46.892C34.7659 44.8602 37.3176 43.9121 40.0036 43.9121C42.5553 43.9121 45.1071 44.8602 46.853 46.7565C47.1216 47.0275 47.3902 47.1629 47.6588 47.0275C47.9274 47.0275 48.196 46.892 48.3303 46.4857C48.3303 46.3502 48.3303 46.2147 48.3303 46.0793C48.3303 45.9439 48.0617 44.3184 48.7332 43.3703C49.2704 42.8285 49.9419 42.5576 51.0163 42.5576ZM40.0036 42.1512C38.7949 42.1512 37.5862 42.4221 36.5118 42.693L34.9002 34.7014L38.5263 37.6813C38.9292 37.9522 39.4664 38.2231 40.0036 38.2231C40.4065 38.2231 40.9437 37.9522 41.3466 37.6813L44.9728 34.7014L43.3611 42.693C42.2867 42.4221 41.078 42.1512 40.0036 42.1512Z" fill="white"/>
<path d="M58.6754 32.9399C59.0784 32.9399 59.4812 32.6691 59.4812 32.3981V27.1155H61.4957V32.3981C61.4957 32.6691 61.8987 32.9399 62.1672 32.9399C62.5702 32.9399 62.8388 32.6691 62.8388 32.3981V26.5737C62.8388 26.1674 62.5702 25.8965 62.1672 25.8965H58.6754C58.4069 25.8965 58.0039 26.1674 58.0039 26.5737V32.3981C58.0039 32.6691 58.4069 32.9399 58.6754 32.9399Z" fill="white"/>
<path d="M65.2526 32.9399H67.8043C68.2073 32.9399 68.4758 32.6691 68.4758 32.2627C68.4758 31.8563 68.2073 31.5854 67.8043 31.5854H65.6555V30.0955H67.5358C67.9386 30.0955 68.2073 29.6891 68.2073 29.4182C68.2073 29.0118 67.9386 28.7409 67.5358 28.7409H65.6555V27.1155H67.8043C68.073 27.1155 68.4758 26.9801 68.4758 26.5737C68.4758 26.1674 68.073 25.8965 67.8043 25.8965H65.1183C64.7154 25.8965 64.3125 26.3028 64.3125 26.5737V32.2627C64.3125 32.6691 64.7154 32.9399 65.2526 32.9399Z" fill="white"/>
<path d="M70.359 32.9399C70.7619 32.9399 71.0305 32.6691 71.0305 32.3981V30.5018H71.9706C73.448 30.5018 74.388 29.6891 74.388 28.1991C74.388 26.9801 73.7165 25.8965 71.9706 25.8965H70.4933C70.0904 25.8965 69.6875 26.3028 69.6875 26.5737V32.3981C69.6875 32.6691 70.0904 32.9399 70.359 32.9399ZM71.0305 27.1155H71.9706C72.7764 27.1155 73.0451 27.6573 73.0451 28.1991C73.0451 28.8764 72.6421 29.2828 71.9706 29.2828H71.0305V27.1155Z" fill="white"/>
<path d="M78.0149 32.9399C79.4922 32.9399 80.4322 31.9918 80.4322 30.7727C80.4322 29.96 79.7612 29.5536 79.2239 29.2828C79.7612 29.0118 80.1638 28.6055 80.1638 27.9283C80.1638 26.8446 79.4922 25.8965 78.0149 25.8965H76.4034C76.0005 25.8965 75.5977 26.1674 75.5977 26.5737V32.1273C75.5977 32.5336 75.8662 32.9399 76.4034 32.9399H78.0149ZM76.9406 27.1155H78.1491C78.6865 27.1155 78.8207 27.5219 78.8207 27.9283C78.8207 28.47 78.4181 28.6055 78.1491 28.6055H76.9406V27.1155ZM76.9406 29.96H78.1491C78.6865 29.96 79.0897 30.2309 79.0897 30.7727C79.0897 31.3145 78.6865 31.5854 78.0149 31.5854H76.9406V29.96Z" fill="white"/>
<path d="M87.4138 32.9399C87.6822 32.9399 88.0853 32.6691 88.0853 32.3981V26.4383C88.0853 26.1674 87.6822 25.8965 87.4138 25.8965C87.0106 25.8965 86.7422 26.1674 86.7422 26.4383V32.3981C86.7422 32.6691 87.0106 32.9399 87.4138 32.9399Z" fill="white"/>
<path d="M82.3122 32.9399H83.6553C85.5353 32.9399 86.2068 31.8563 86.2068 30.6373C86.2068 29.1473 85.2669 28.3346 83.6553 28.3346H82.9838V26.4383C82.9838 26.1674 82.7154 25.8965 82.3122 25.8965C81.909 25.8965 81.6406 26.1674 81.6406 26.4383V32.1273C81.6406 32.5336 81.909 32.9399 82.3122 32.9399ZM82.9838 29.5536H83.6553C84.4611 29.5536 84.8637 29.8246 84.8637 30.6373C84.8637 31.0436 84.5953 31.5854 83.6553 31.5854H82.9838V29.5536Z" fill="white"/>
<path d="M91.9818 25.49C92.5192 25.49 93.3249 25.0836 93.4591 24.5418C93.5933 24.1355 93.3249 24 93.0559 24C92.7876 24 92.6534 24.1355 92.5192 24.2709C92.3844 24.4063 92.116 24.5418 91.9818 24.5418C91.8476 24.5418 91.5786 24.4063 91.4444 24.2709C91.3102 24.1355 91.176 24 90.907 24C90.6386 24 90.3702 24.1355 90.5044 24.5418C90.6386 25.0836 91.4444 25.49 91.9818 25.49Z" fill="white"/>
<path d="M93.8597 25.8965C93.5913 25.8965 93.3224 26.0319 93.1882 26.1674C92.2482 27.7928 91.8456 28.6055 90.905 30.2309V26.4383C90.905 26.1674 90.5025 25.8965 90.2335 25.8965C89.8309 25.8965 89.5625 26.1674 89.5625 26.4383V32.2627C89.5625 32.6691 89.8309 32.9399 90.2335 32.9399C90.5025 32.9399 90.7709 32.8045 90.905 32.6691L93.1882 28.6055V32.3981C93.1882 32.6691 93.4572 32.9399 93.8597 32.9399C94.2629 32.9399 94.5313 32.6691 94.5313 32.3981V26.5737C94.5313 26.1674 94.2629 25.8965 93.8597 25.8965Z" fill="white"/>
<path d="M58.6754 42.8286C59.0784 42.8286 59.4812 42.5577 59.4812 42.2868V37.0042H61.4957C61.8987 37.0042 62.1672 36.7333 62.1672 36.4624C62.1672 36.056 61.8987 35.7852 61.4957 35.7852H58.8097C58.4069 35.7852 58.0039 36.1915 58.0039 36.4624V42.2868C58.0039 42.5577 58.4069 42.8286 58.6754 42.8286Z" fill="white"/>
<path d="M66.9987 42.2868C66.9987 42.5577 67.2673 42.8286 67.6702 42.8286C68.0731 42.8286 68.3417 42.5577 68.3417 42.2868V36.3269C68.3417 36.056 68.0731 35.7852 67.6702 35.7852C67.4016 35.7852 67.133 35.9206 66.9987 36.056C66.0586 37.546 65.5214 38.4942 64.7156 40.1196V36.3269C64.7156 36.056 64.3127 35.7852 64.044 35.7852C63.6412 35.7852 63.2383 36.056 63.2383 36.3269V42.1513C63.2383 42.5577 63.6412 42.8286 64.044 42.8286C64.3127 42.8286 64.5812 42.6932 64.7156 42.5577L66.9987 38.4942V42.2868Z" fill="white"/>
<path d="M71.1633 37.0042H73.3121V42.2868C73.3121 42.5577 73.5808 42.8286 73.9837 42.8286C74.2522 42.8286 74.6552 42.5577 74.6552 42.2868V36.4624C74.6552 36.056 74.2522 35.7852 73.9837 35.7852H70.4918C70.0889 35.7852 69.8203 36.056 69.8203 36.4624V42.2868C69.8203 42.5577 70.0889 42.8286 70.4918 42.8286C70.8947 42.8286 71.1633 42.5577 71.1633 42.2868V37.0042Z" fill="white"/>
<path d="M79.6249 42.8286C80.0275 42.8286 80.2958 42.5577 80.2958 42.1513C80.2958 41.745 79.8933 41.4741 79.6249 41.4741H77.476V39.8487H79.3559C79.6249 39.8487 80.0275 39.5778 80.0275 39.3069C80.0275 38.9005 79.6249 38.6296 79.3559 38.6296H77.476V37.0042H79.4901C79.8933 37.0042 80.1617 36.8687 80.1617 36.4624C80.1617 36.056 79.8933 35.7852 79.4901 35.7852H76.8043C76.4014 35.7852 76.1328 36.1915 76.1328 36.4624V42.0159C76.1328 42.5577 76.5357 42.8286 76.9386 42.8286H79.6249Z" fill="white"/>
<path d="M82.851 42.2868V40.3905H83.6567C85.1341 40.3905 86.2082 39.5778 86.2082 38.0878C86.2082 36.8687 85.5367 35.7852 83.6567 35.7852H82.1794C81.7762 35.7852 81.5078 36.1915 81.5078 36.4624V42.2868C81.5078 42.5577 81.7762 42.8286 82.1794 42.8286C82.4478 42.8286 82.851 42.5577 82.851 42.2868ZM82.851 37.0042H83.6567C84.5967 37.0042 84.7309 37.546 84.7309 38.0878C84.7309 38.7651 84.3283 39.1714 83.6567 39.1714H82.851V37.0042Z" fill="white"/>
<path d="M90.5043 41.4741C90.7727 41.4741 90.9069 41.3387 91.0417 41.0677L92.2501 38.9005V42.2868C92.2501 42.5577 92.519 42.8286 92.9216 42.8286C93.3248 42.8286 93.5932 42.5577 93.5932 42.2868V36.3269C93.5932 36.056 93.3248 35.7852 92.9216 35.7852C92.6532 35.7852 92.3843 35.7852 92.2501 36.056L90.5043 39.5778L88.7586 36.056C88.6238 35.7852 88.3554 35.7852 88.087 35.7852C87.6838 35.7852 87.2812 36.056 87.2812 36.3269V42.2868C87.2812 42.5577 87.5496 42.8286 87.9528 42.8286C88.3554 42.8286 88.7586 42.5577 88.7586 42.2868V38.9005L89.8328 41.0677C89.9669 41.3387 90.2359 41.4741 90.5043 41.4741Z" fill="white"/>
<path d="M98.2942 36.3269C98.16 36.056 97.8916 35.7852 97.4885 35.7852C96.9511 35.7852 96.8169 36.056 96.6827 36.3269L94.8028 42.0159C94.668 42.0159 94.668 42.1513 94.668 42.2868C94.668 42.5577 95.0712 42.8286 95.4737 42.8286C95.6085 42.8286 96.0111 42.6932 96.0111 42.4223L96.4143 41.4741H98.4284L98.8316 42.4223C98.9658 42.6932 99.2342 42.8286 99.5032 42.8286C99.9058 42.8286 100.175 42.5577 100.175 42.2868C100.175 42.1513 100.175 42.0159 100.175 42.0159L98.2942 36.3269ZM96.8169 40.255L97.2201 38.6296C97.3543 38.3587 97.3543 37.9524 97.4885 37.6815C97.4885 37.9524 97.4885 38.3587 97.6227 38.6296L98.16 40.255H96.8169Z" fill="white"/>
<path d="M103.532 35.7852H102.054C101.652 35.7852 101.383 36.1915 101.383 36.4624V42.2868C101.383 42.5577 101.652 42.8286 102.054 42.8286C102.458 42.8286 102.726 42.5577 102.726 42.2868V40.3905H103.532C105.009 40.3905 106.083 39.5778 106.083 38.0878C106.083 36.8687 105.412 35.7852 103.532 35.7852ZM103.532 39.1714H102.726V37.0042H103.532C104.472 37.0042 104.741 37.546 104.741 38.0878C104.741 38.7651 104.337 39.1714 103.532 39.1714Z" fill="white"/>
<path d="M111.859 36.3269C111.859 36.056 111.725 35.7852 111.322 35.7852C111.053 35.7852 110.785 35.7852 110.651 36.056L108.77 38.6296H108.636V36.3269C108.636 36.056 108.233 35.7852 107.965 35.7852C107.561 35.7852 107.293 36.056 107.293 36.3269V42.2868C107.293 42.5577 107.561 42.8286 107.965 42.8286C108.233 42.8286 108.636 42.5577 108.636 42.2868V39.9842H108.77L110.651 42.5577C110.785 42.8286 111.053 42.8286 111.322 42.8286C111.725 42.8286 111.859 42.5577 111.859 42.1513C111.859 42.1513 111.859 42.0159 111.859 41.8805L109.845 39.3069L111.859 36.7333C111.859 36.5979 111.859 36.4624 111.859 36.3269Z" fill="white"/>
<path d="M116.558 41.4741H114.409V39.8487H116.289C116.692 39.8487 116.961 39.5778 116.961 39.3069C116.961 38.9005 116.558 38.6296 116.289 38.6296H114.409V37.0042H116.424C116.827 37.0042 117.095 36.8687 117.095 36.4624C117.095 36.056 116.827 35.7852 116.424 35.7852H113.872C113.335 35.7852 113.066 36.1915 113.066 36.4624V42.0159C113.066 42.5577 113.469 42.8286 114.006 42.8286H116.558C116.961 42.8286 117.229 42.5577 117.229 42.1513C117.229 41.745 116.961 41.4741 116.558 41.4741Z" fill="white"/>
<path d="M122.332 35.7852H118.84C118.437 35.7852 118.168 36.1915 118.168 36.4624C118.168 36.7333 118.437 37.0042 118.84 37.0042H119.914V42.2868C119.914 42.5577 120.183 42.8286 120.586 42.8286C120.988 42.8286 121.257 42.5577 121.257 42.2868V37.0042H122.332C122.6 37.0042 123.003 36.7333 123.003 36.4624C123.003 36.056 122.6 35.7852 122.332 35.7852Z" fill="white"/>
<path d="M63.5099 45.5363C63.2412 45.5363 62.9727 45.6718 62.8384 45.9426L61.0924 49.4644L59.3465 45.9426C59.2122 45.6718 59.078 45.5363 58.675 45.5363C58.2721 45.5363 58.0035 45.9426 58.0035 46.2135V51.3607H25.0997C24.5625 51.3607 24.0253 51.2253 23.6224 50.8189C23.3538 50.4126 23.0852 49.8708 23.0852 49.3289V29.553C23.0852 28.3339 24.0253 27.3858 25.0997 27.3858H53.7059C54.1088 27.3858 54.3774 27.1149 54.3774 26.7085C54.3774 26.3022 54.1088 26.0312 53.7059 26.0312H25.0997C23.2195 26.0312 21.7422 27.6567 21.7422 29.553V49.3289C21.7422 50.2771 22.0108 51.0898 22.6823 51.7671C23.3538 52.4443 24.2939 52.8507 25.0997 52.8507H58.675C58.675 52.8507 58.8093 52.7152 58.9437 52.7152C59.2122 52.5798 59.3465 52.4443 59.3465 52.1734V48.7871L60.5552 50.9543C60.6896 51.2253 60.8239 51.3607 61.0924 51.3607C61.3611 51.3607 61.6296 51.2253 61.764 50.9543L62.9727 48.7871V52.1734C62.9727 52.4443 63.2412 52.7152 63.6442 52.7152C63.9128 52.7152 64.3157 52.4443 64.3157 52.1734V46.2135C64.3157 45.9426 63.9128 45.5363 63.5099 45.5363Z" fill="white"/>
<path d="M69.2824 51.3608H67.1336V49.7354H69.0138C69.2824 49.7354 69.6853 49.4645 69.6853 49.1936C69.6853 48.7872 69.2824 48.5163 69.0138 48.5163H67.1336V46.8909H69.1481C69.551 46.8909 69.8196 46.7555 69.8196 46.3491C69.8196 45.9427 69.551 45.6719 69.1481 45.6719H66.4621C66.0592 45.6719 65.6562 46.0782 65.6562 46.3491V51.9026C65.6562 52.4444 66.1934 52.7153 66.5964 52.7153H69.2824C69.551 52.7153 69.9539 52.4444 69.9539 52.0381C69.9539 51.6317 69.551 51.3608 69.2824 51.3608Z" fill="white"/>
<path d="M73.3144 48.2454H72.5086V46.8909H74.6574C75.0603 46.8909 75.3289 46.62 75.3289 46.3491C75.3289 45.9427 75.0603 45.6719 74.6574 45.6719H71.8371C71.4341 45.6719 71.0312 46.0782 71.0312 46.3491V51.9026C71.0312 52.309 71.4341 52.7153 71.8371 52.7153H73.3144C75.1946 52.7153 75.8661 51.6317 75.8661 50.4127C75.8661 49.0582 74.7917 48.2454 73.3144 48.2454ZM73.3144 51.3608H72.5086V49.4645H73.3144C73.9859 49.4645 74.3888 49.7354 74.3888 50.4127C74.3888 50.9545 74.2545 51.3608 73.3144 51.3608Z" fill="white"/>
<path d="M80.5677 51.3608H78.4187V49.7354H80.1645C80.5677 49.7354 80.8361 49.4645 80.8361 49.1936C80.8361 48.7872 80.5677 48.5163 80.1645 48.5163H78.4187V46.8909H80.4335C80.8361 46.8909 81.1044 46.7555 81.1044 46.3491C81.1044 45.9427 80.8361 45.6719 80.4335 45.6719H77.7472C77.3446 45.6719 76.9414 46.0782 76.9414 46.3491V51.9026C76.9414 52.4444 77.4788 52.7153 77.8814 52.7153H80.5677C80.8361 52.7153 81.2392 52.4444 81.2392 52.0381C81.2392 51.6317 80.8361 51.3608 80.5677 51.3608Z" fill="white"/>
<path d="M87.1446 45.6719H84.4589C84.0557 45.6719 83.6531 46.0782 83.6531 46.3491L83.3841 50.819C83.2499 51.2253 83.2499 51.4963 83.1157 51.4963H82.9816H82.8474C82.4442 51.4963 82.1758 51.6317 82.1758 52.0381C82.1758 52.7153 82.7126 52.7153 83.1157 52.7153C84.1899 52.7153 84.5931 51.9026 84.7273 50.819L84.9963 46.8909H86.473V52.1735C86.473 52.4444 86.8762 52.7153 87.1446 52.7153C87.5478 52.7153 87.8162 52.4444 87.9504 52.1735V46.3491C87.9504 46.0782 87.5478 45.6719 87.1446 45.6719Z" fill="white"/>
<path d="M93.7289 45.5371C93.4605 45.5371 93.1915 45.808 93.0573 45.9434C92.1174 47.4334 91.58 48.3816 90.7742 50.007V46.2144C90.7742 45.9434 90.3716 45.5371 89.9684 45.5371C89.7001 45.5371 89.2969 45.9434 89.2969 46.2144V52.0388C89.2969 52.4451 89.7001 52.7161 90.1026 52.7161C90.3716 52.7161 90.64 52.5806 90.7742 52.4451L93.0573 48.3816V52.1742C93.0573 52.4451 93.3257 52.7161 93.7289 52.7161C94.1321 52.7161 94.4005 52.4451 94.4005 52.1742V46.2144C94.4005 45.9434 94.1321 45.5371 93.7289 45.5371Z" fill="white"/>
</g>
<defs>
<filter id="filter0_b_776_3308" x="-4" y="-4" width="153" height="84" filterUnits="userSpaceOnUse" color-interpolation-filters="sRGB">
<feFlood flood-opacity="0" result="BackgroundImageFix"/>
<feGaussianBlur in="BackgroundImageFix" stdDeviation="2"/>
<feComposite in2="SourceAlpha" operator="in" result="effect1_backgroundBlur_776_3308"/>
<feBlend mode="normal" in="SourceGraphic" in2="effect1_backgroundBlur_776_3308" result="shape"/>
</filter>
</defs>
</svg>
