<svg width="107" height="76" viewBox="0 0 107 76" fill="none" xmlns="http://www.w3.org/2000/svg">
<g filter="url(#filter0_b_776_3309)">
<path fill-rule="evenodd" clip-rule="evenodd" d="M25.1984 26.0498C23.9925 25.7888 22.7121 26.5718 22.1941 27.9905C21.675 29.4082 22.2331 30.7695 23.4389 31.0305C24.6447 31.2927 26.0429 30.3544 26.5609 28.9356C27.0801 27.518 26.4042 26.3108 25.1984 26.0498Z" fill="white"/>
<path fill-rule="evenodd" clip-rule="evenodd" d="M64.6218 26.0498C65.8276 25.7888 67.108 26.5718 67.626 27.9905C68.1452 29.4082 67.5871 30.7695 66.3813 31.0305C65.1755 31.2927 63.7772 30.3544 63.2581 28.9356C62.7401 27.518 63.4159 26.3108 64.6218 26.0498Z" fill="white"/>
<path fill-rule="evenodd" clip-rule="evenodd" d="M22.125 33.3779V49.1842C22.1252 49.355 22.1906 49.5188 22.3068 49.6394C22.423 49.7601 22.5805 49.8278 22.7447 49.8277H25.8679C25.9491 49.8278 26.0295 49.8112 26.1046 49.7788C26.1797 49.7465 26.2478 49.6991 26.3053 49.6393C26.3627 49.5796 26.4083 49.5086 26.4394 49.4305C26.4704 49.3524 26.4864 49.2687 26.4864 49.1842V33.3779C26.4864 33.2934 26.4704 33.2097 26.4394 33.1316C26.4083 33.0535 26.3627 32.9826 26.3053 32.9228C26.2478 32.8631 26.1796 32.8156 26.1046 32.7833C26.0295 32.751 25.9491 32.7343 25.8679 32.7344H22.7447C22.5805 32.7343 22.423 32.802 22.3068 32.9227C22.1906 33.0434 22.1252 33.2071 22.125 33.3779Z" fill="white"/>
<path fill-rule="evenodd" clip-rule="evenodd" d="M63.082 33.3779V49.1842C63.0822 49.3549 63.1474 49.5184 63.2634 49.6391C63.3793 49.7597 63.5366 49.8276 63.7006 49.8277H66.8238C66.9051 49.8279 66.9856 49.8113 67.0608 49.7791C67.136 49.7468 67.2043 49.6994 67.2619 49.6396C67.3194 49.5799 67.3651 49.5089 67.3962 49.4307C67.4274 49.3526 67.4434 49.2688 67.4434 49.1842V33.3779C67.4434 33.2933 67.4274 33.2095 67.3962 33.1314C67.3651 33.0532 67.3194 32.9822 67.2619 32.9225C67.2043 32.8627 67.136 32.8153 67.0608 32.783C66.9856 32.7508 66.9051 32.7342 66.8238 32.7344H63.7006C63.5366 32.7345 63.3793 32.8024 63.2634 32.923C63.1474 33.0437 63.0822 33.2072 63.082 33.3779Z" fill="white"/>
<path fill-rule="evenodd" clip-rule="evenodd" d="M76.6796 39.3896C74.9838 38.5582 73.6493 37.9652 73.6493 36.434C73.6493 34.0409 75.5851 33.8554 76.1626 33.8554C76.709 33.8704 77.2463 34.0052 77.7393 34.2508C78.2324 34.4964 78.6702 34.8474 79.0241 35.2808C79.3074 35.6476 79.6913 35.7263 80.0039 35.4788C80.2969 35.2471 80.2644 34.8071 80.046 34.5315C79.7199 34.1164 79.3233 33.767 78.8759 33.5009C77.9233 32.9255 76.8379 32.6311 75.7365 32.6492C73.3779 32.6492 70.0514 33.5504 70.0514 37.4365C70.0514 39.4369 70.9987 40.6992 74.3739 42.4274C77.7275 44.1442 77.841 45.1647 77.841 46.1705C77.841 47.5904 76.898 48.7413 74.9589 48.7413C73.0243 48.7413 71.787 47.5802 71.0409 46.9615C70.79 46.7533 70.4591 46.5744 70.1541 46.8355C70.0881 46.8973 70.0351 46.9727 69.9985 47.0569C69.9619 47.141 69.9425 47.2322 69.9414 47.3246C69.9405 47.417 69.9579 47.5087 69.9926 47.5937C70.0274 47.6788 70.0787 47.7554 70.1433 47.8187C70.8195 48.523 71.6247 49.0789 72.5111 49.4536C73.3976 49.8283 74.3472 50.0142 75.3039 50.0003C77.5793 50.0003 81.6531 49.2195 81.6531 44.8801C81.6531 42.9989 80.3467 41.1887 76.6796 39.3896Z" fill="white"/>
<path fill-rule="evenodd" clip-rule="evenodd" d="M46.4023 33.4877V49.1332C46.4025 49.3261 46.4763 49.511 46.6075 49.6472C46.7387 49.7836 46.9165 49.8601 47.102 49.8599H53.1527C55.9828 49.8599 60.5962 48.5492 60.5962 41.0123C60.5962 33.6126 55.1295 32.7598 52.3513 32.7598H47.102C46.9165 32.7599 46.7386 32.8366 46.6074 32.9731C46.4762 33.1096 46.4025 33.2947 46.4023 33.4877ZM50.7616 33.922H52.1977C54.0167 33.922 54.8418 34.21 55.7135 35.8256C56.3948 37.0543 56.7355 39.2909 56.7355 41.172C56.7355 43.1095 56.4164 45.3337 55.7557 46.6175C54.8949 48.322 54.0697 48.6763 52.1977 48.6763H50.7616V33.922Z" fill="white"/>
<path fill-rule="evenodd" clip-rule="evenodd" d="M29.6367 33.3493V49.0645C29.6368 49.1554 29.6541 49.2455 29.6876 49.3295C29.7211 49.4135 29.7702 49.4897 29.8321 49.554C29.8939 49.6183 29.9674 49.6692 30.0481 49.7039C30.129 49.7387 30.2155 49.7565 30.303 49.7564H36.3936C39.2237 49.7564 43.8361 48.4457 43.8361 40.9087C43.8361 33.509 38.3704 32.6563 35.5933 32.6563H30.303C30.2154 32.6562 30.1288 32.6741 30.048 32.7089C29.9671 32.7437 29.8936 32.7947 29.8318 32.8591C29.7699 32.9234 29.7208 32.9999 29.6874 33.084C29.6539 33.1681 29.6367 33.2582 29.6367 33.3493ZM34.0026 33.8185H35.4376C37.2577 33.8185 38.0817 34.1065 38.9545 35.7221C39.6358 36.9507 39.9765 39.1862 39.9765 41.0685C39.9765 43.0059 39.6574 45.2302 38.9967 46.5139C38.1358 48.2184 37.3107 48.5728 35.4376 48.5728H34.0026V33.8185Z" fill="white"/>
<path d="M83.1864 30.5221C82.8282 30.522 82.4778 30.4114 82.1802 30.2042C81.8821 29.997 81.6499 29.7026 81.5128 29.3582C81.3757 29.0137 81.3399 28.6348 81.4098 28.2691C81.4798 27.9035 81.6523 27.5677 81.9057 27.3041C82.1592 27.0405 82.482 26.861 82.833 26.7882C83.1846 26.7154 83.5488 26.7527 83.88 26.8953C84.2112 27.0379 84.4944 27.2795 84.693 27.5894C84.8922 27.8993 84.999 28.2637 84.999 28.6365C84.9984 29.1364 84.807 29.6157 84.4674 29.9692C84.1278 30.3227 83.667 30.5215 83.1864 30.5221ZM83.1864 27.1952C82.9122 27.1951 82.644 27.2796 82.416 27.4379C82.188 27.5963 82.0104 27.8215 81.9055 28.085C81.8006 28.3484 81.7731 28.6384 81.8265 28.9181C81.88 29.1979 82.0122 29.4548 82.206 29.6565C82.3998 29.8582 82.6464 29.9955 82.9158 30.0511C83.1846 30.1068 83.463 30.0782 83.7162 29.969C83.9694 29.8598 84.186 29.6749 84.3384 29.4377C84.4908 29.2005 84.5718 28.9217 84.5718 28.6365C84.5712 28.2544 84.4248 27.8881 84.1656 27.618C83.9058 27.3478 83.5536 27.1958 83.1864 27.1952Z" fill="white"/>
<path d="M82.4805 27.7307H82.8807V29.4745H82.4805V27.7307ZM83.3097 28.8411H82.8159V28.5171H83.2437C83.2791 28.5176 83.3139 28.5127 83.3475 28.5024C83.3763 28.4938 83.4027 28.4789 83.4255 28.4586C83.4465 28.4389 83.4633 28.4142 83.4729 28.3866C83.4855 28.3551 83.4909 28.3214 83.4903 28.2876C83.4915 28.2526 83.4855 28.2178 83.4729 28.1852C83.4627 28.1584 83.4465 28.1342 83.4267 28.1143C83.4045 28.0945 83.3787 28.0792 83.3511 28.0693C83.3163 28.0585 83.2803 28.0532 83.2437 28.0535H82.8159V27.7307H83.3151C83.3967 27.7288 83.4777 27.7413 83.5551 27.7678C83.6217 27.79 83.6823 27.8273 83.7327 27.8769C83.7825 27.9254 83.8209 27.985 83.8449 28.0513C83.8731 28.1266 83.8869 28.2068 83.8851 28.2876C83.8881 28.3857 83.8635 28.4826 83.8149 28.5666C83.7693 28.6456 83.7009 28.7081 83.6199 28.7455C83.5245 28.7905 83.4201 28.8121 83.3151 28.8085L83.3097 28.8411ZM83.3901 28.6813L83.9523 29.4734H83.4927L83.0115 28.7736L83.3901 28.6813Z" fill="white"/>
</g>
<defs>
<filter id="filter0_b_776_3309" x="-4" y="-4" width="115" height="84" filterUnits="userSpaceOnUse" color-interpolation-filters="sRGB">
<feFlood flood-opacity="0" result="BackgroundImageFix"/>
<feGaussianBlur in="BackgroundImageFix" stdDeviation="2"/>
<feComposite in2="SourceAlpha" operator="in" result="effect1_backgroundBlur_776_3309"/>
<feBlend mode="normal" in="SourceGraphic" in2="effect1_backgroundBlur_776_3309" result="shape"/>
</filter>
</defs>
</svg>
