<svg width="160" height="76" viewBox="0 0 160 76" fill="none" xmlns="http://www.w3.org/2000/svg">
<g filter="url(#filter0_b_776_3310)">
<path d="M58.5571 44.1066H56.3833C56.2953 44.1064 56.2109 44.0707 56.1487 44.0073C56.0864 43.9439 56.0514 43.858 56.0512 43.7683V42.6534C56.051 42.5638 56.0161 42.478 55.954 42.4146C55.8919 42.3512 55.8077 42.3154 55.7198 42.315H48.845C48.7573 42.3147 48.6732 42.279 48.6111 42.2157C48.5491 42.1525 48.514 42.0669 48.5137 41.9774V40.6647C48.5137 40.5206 48.5428 40.3781 48.599 40.2459C48.6553 40.1137 48.7376 39.9946 48.8408 39.8961L55.7675 33.2797C55.9383 33.1162 56.1639 33.0252 56.3982 33.0254H58.5564C58.6 33.0251 58.6433 33.0337 58.6836 33.0508C58.7237 33.068 58.7604 33.0925 58.7917 33.1232C58.8218 33.1552 58.846 33.1925 58.8628 33.2333C58.8786 33.2747 58.8868 33.3186 58.887 33.363V43.7683C58.8871 43.8127 58.8786 43.8567 58.862 43.8977C58.8454 43.9387 58.821 43.976 58.7902 44.0075C58.7594 44.0389 58.7229 44.0638 58.6826 44.0808C58.6424 44.0978 58.5992 44.1066 58.5557 44.1066M55.6907 36.6853L52.4055 39.8005C52.3736 39.83 52.3513 39.8686 52.3415 39.9113C52.3326 39.9541 52.3371 39.9987 52.3543 40.0388C52.3698 40.0796 52.397 40.1147 52.4325 40.1395C52.4685 40.1639 52.5108 40.1767 52.5541 40.1765H55.8386C55.8952 40.1765 55.9494 40.1536 55.9894 40.1128C56.0294 40.072 56.0519 40.0168 56.0519 39.9591V36.844C56.0515 36.8018 56.0391 36.7606 56.0161 36.7255C55.9931 36.6903 55.9606 36.6628 55.9225 36.6462C55.8846 36.629 55.8425 36.6237 55.8016 36.631C55.761 36.638 55.7232 36.6569 55.6928 36.6853" fill="white"/>
<path d="M62.3097 43.6906C61.5243 43.1759 60.8951 42.4484 60.4929 41.5897C60.0409 40.6279 59.8156 39.5719 59.8352 38.5057C59.8166 37.5018 60.0349 36.508 60.4716 35.6079C60.8863 34.795 61.4983 34.1037 62.2493 33.5997C63.0329 33.076 63.9495 32.7968 64.8867 32.7963C65.569 32.787 66.2451 32.9294 66.8678 33.2136C67.2679 33.3974 67.6349 33.6481 67.9536 33.9554C67.9764 33.9775 68.0036 33.9941 68.0334 34.0042C68.0632 34.0143 68.0949 34.0175 68.126 34.0137C68.1572 34.0099 68.1872 33.9991 68.2138 33.9822C68.2404 33.9652 68.263 33.9425 68.28 33.9156C68.3034 33.8798 68.3156 33.8376 68.3149 33.7946V30.6411C68.3151 30.5514 68.3501 30.4654 68.4123 30.402C68.4746 30.3386 68.5589 30.3029 68.647 30.3027H70.7959C70.8838 30.3031 70.9679 30.3389 71.03 30.4023C71.0921 30.4657 71.127 30.5515 71.1272 30.6411V43.7703C71.127 43.86 71.092 43.9459 71.0298 44.0093C70.9675 44.0727 70.8832 44.1084 70.7952 44.1086H69.1596C69.0795 44.1091 69.0018 44.08 68.9411 44.0268C68.8803 43.9735 68.8405 43.8996 68.829 43.8188L68.7095 42.9125C68.7041 42.8683 68.6854 42.8268 68.656 42.7938C68.6266 42.7607 68.5879 42.7377 68.5453 42.7278C68.5029 42.7179 68.4585 42.7211 68.418 42.7372C68.3777 42.7541 68.3431 42.7825 68.3184 42.8191C68.038 43.243 67.6685 43.5981 67.2369 43.8587C66.5547 44.2607 65.7769 44.463 64.9891 44.4433C64.044 44.4567 63.1146 44.1956 62.3097 43.6906ZM67.5462 41.0913C68.0591 40.4219 68.3156 39.5506 68.3156 38.4774C68.3156 37.4632 68.0596 36.7547 67.5462 36.1136C67.3093 35.8052 67.0049 35.5576 66.6574 35.3906C66.3098 35.2235 65.9287 35.1416 65.5445 35.1515C65.1546 35.1412 64.7677 35.2238 64.4146 35.3927C64.0615 35.5616 63.752 35.8122 63.5108 36.1244C62.993 36.8087 62.7174 37.6512 62.7286 38.5151C62.7286 39.5723 62.9893 40.4335 63.5108 41.0985C63.7516 41.4093 64.0585 41.6603 64.4085 41.8325C64.7585 42.0048 65.1422 42.0938 65.5309 42.0928C65.9196 42.0918 66.3029 42.0009 66.652 41.8269C67.0011 41.6529 67.3069 41.4004 67.5462 41.0884" fill="white"/>
<path d="M74.8134 43.7023C73.959 43.2226 73.257 42.5039 72.7904 41.6311C72.302 40.7025 72.0552 39.662 72.0736 38.6087C72.052 37.5292 72.2949 36.4612 72.7804 35.5015C73.228 34.63 73.9084 33.9052 74.743 33.4107C75.6048 32.9085 76.5833 32.6517 77.576 32.6674C78.5386 32.6451 79.4892 32.8884 80.3272 33.3716C81.1292 33.855 81.7779 34.5632 82.1959 35.4117C82.6636 36.3779 82.9007 37.443 82.8878 38.5203V38.8535C82.8877 38.898 82.8793 38.942 82.8629 38.9832C82.8464 39.0244 82.822 39.0618 82.7911 39.0933C82.7602 39.1248 82.7235 39.1497 82.683 39.1665C82.6426 39.1832 82.5994 39.1918 82.5557 39.1918H75.073C75.0409 39.1917 75.0092 39.1989 74.9803 39.213C74.9514 39.227 74.9259 39.2475 74.9059 39.273C74.8855 39.2982 74.8707 39.3276 74.8625 39.3592C74.8554 39.3909 74.8554 39.4238 74.8625 39.4555C74.9743 40.1485 75.2978 40.7878 75.7869 41.2826C76.053 41.5458 76.3682 41.7519 76.7138 41.8888C77.0595 42.0256 77.4286 42.0905 77.7993 42.0795C78.3145 42.0961 78.8237 41.9624 79.267 41.6941C79.6137 41.4709 79.8877 41.148 80.0541 40.7661C80.0816 40.707 80.1247 40.6568 80.1786 40.6212C80.2323 40.586 80.2946 40.5664 80.3585 40.5647H82.4206C82.4728 40.5649 82.5242 40.5775 82.5707 40.6016C82.6169 40.6258 82.657 40.6607 82.6877 40.7035C82.7185 40.7462 82.739 40.7957 82.7477 40.8479C82.7567 40.9004 82.753 40.9544 82.7371 41.0051C82.4467 41.9689 81.8645 42.8143 81.0738 43.4205C80.185 44.0995 79.0901 44.4376 77.7893 44.4347C76.7516 44.4569 75.7261 44.2037 74.8134 43.7001M79.7413 37.2887C79.7749 37.2885 79.808 37.2803 79.838 37.2648C79.8683 37.2494 79.8947 37.2268 79.9148 37.1989C79.935 37.1711 79.9484 37.1388 79.9539 37.1047C79.9601 37.0709 79.9582 37.0361 79.9482 37.0033C79.8165 36.4805 79.5421 36.0065 79.1567 35.6362C78.7229 35.2419 78.1571 35.0321 77.576 35.0501C76.969 35.0368 76.3781 35.249 75.9135 35.6471C75.5017 36.005 75.1967 36.4733 75.0331 36.9989C75.0216 37.0324 75.0184 37.0682 75.0239 37.1032C75.0285 37.1382 75.0415 37.1716 75.0616 37.2003C75.0822 37.2286 75.1086 37.2518 75.1391 37.2684C75.1699 37.2845 75.204 37.293 75.2386 37.2931L79.7413 37.2887Z" fill="white"/>
<path d="M89.8711 44.1088H87.4178C87.3521 44.1107 87.2873 44.0928 87.2315 44.0574C87.1758 44.022 87.1315 43.9706 87.1042 43.9096L82.8441 33.5C82.823 33.4487 82.8147 33.3929 82.8199 33.3375C82.8251 33.2821 82.8437 33.2289 82.874 33.1827C82.9043 33.1362 82.9455 33.0981 82.9937 33.0717C83.0419 33.0453 83.0958 33.0314 83.1506 33.0312H85.4431C85.5102 33.0314 85.5757 33.0523 85.6309 33.0911C85.6861 33.1299 85.7285 33.1848 85.7525 33.2486L88.4247 40.2446C88.4408 40.2865 88.4688 40.3226 88.5051 40.3482C88.5409 40.3737 88.5836 40.3874 88.6274 40.3873C88.6716 40.3871 88.7148 40.3731 88.751 40.3472C88.7872 40.3213 88.8148 40.2848 88.83 40.2424L91.5009 33.2464C91.5256 33.1833 91.5682 33.1291 91.6232 33.0907C91.6785 33.0526 91.7435 33.0319 91.8102 33.0312H94.1255C94.1802 33.0313 94.2339 33.0452 94.282 33.0718C94.3304 33.0977 94.3716 33.1359 94.4014 33.1827C94.4317 33.2289 94.4503 33.2821 94.4555 33.3375C94.4607 33.3929 94.4524 33.4487 94.4313 33.5L90.1761 43.9096C90.1499 43.9695 90.1071 44.0203 90.0529 44.0557C89.9986 44.0911 89.9355 44.1096 89.8711 44.1088Z" fill="white"/>
<path d="M44.6267 30.0253L42.0333 27.3376C41.8521 27.1528 41.6146 27.0363 41.3598 27.0072C41.1049 26.9781 40.848 27.0381 40.6311 27.1775L39.3099 28.0259C37.6012 29.1211 35.6235 29.7022 33.6048 29.7022C31.5859 29.7022 29.608 29.1211 27.899 28.0259L26.6632 27.2333C26.4202 27.0773 26.1325 27.0099 25.8471 27.042C25.5617 27.0741 25.2954 27.2038 25.0917 27.4101L22.5396 30.0927C22.3407 30.2916 22.222 30.5591 22.2068 30.8425C22.1915 31.126 22.2808 31.4051 22.4571 31.6249C25.4337 35.2834 25.6364 40.4632 23.2208 44.4093L22.4343 45.6844C22.2811 45.9316 22.2147 46.2246 22.2461 46.5153C22.2775 46.806 22.4048 47.0773 22.6071 47.2847L25.1763 49.8992C25.3578 50.0836 25.5953 50.1998 25.85 50.2289C26.1047 50.258 26.3615 50.1982 26.5786 50.0593L27.9097 49.2066C29.6187 48.1119 31.5964 47.531 33.6151 47.531C35.6339 47.531 37.6116 48.1119 39.3205 49.2066L40.6538 50.0593C40.8709 50.1982 41.1277 50.258 41.3824 50.2289C41.6371 50.1998 41.8746 50.0836 42.0561 49.8992L44.6089 47.2955C44.8103 47.0889 44.9371 46.8189 44.9686 46.5295C45.0001 46.2401 44.9345 45.9483 44.7824 45.7017L43.9967 44.4289C42.9178 42.6941 42.3411 40.6845 42.3327 38.6308C42.3242 36.5772 42.8845 34.5628 43.949 32.8188L44.7874 31.4612C44.9233 31.2391 44.9813 30.9766 44.9522 30.7165C44.923 30.4565 44.8083 30.2141 44.6267 30.029M34.5833 43.4118H33.6859V43.4262C31.9019 43.4254 30.131 43.735 28.4494 44.342C28.3884 44.3625 28.3229 44.3656 28.2603 44.3506C28.1976 44.336 28.1403 44.3033 28.0953 44.2565C28.0495 44.2105 28.0175 44.1522 28.0029 44.0884C27.9883 44.0248 27.9912 43.9584 28.0114 43.8964C29.568 40.3843 29.568 36.6099 28.0114 33.2347C27.9868 33.1721 27.9804 33.1037 27.9929 33.0376C28.0063 32.9718 28.0382 32.9114 28.0846 32.8637C28.1314 32.816 28.1911 32.7835 28.256 32.7703C28.3209 32.7572 28.3881 32.7638 28.4494 32.7891C30.1272 33.3941 31.894 33.7033 33.6738 33.7034V33.7121H34.5712C35.1412 33.6889 35.7114 33.7541 36.2621 33.9055C38.2937 34.551 39.3589 36.423 39.3589 38.5608C39.371 41.2413 37.754 43.4147 34.5833 43.4147" fill="white"/>
<path d="M93.3882 43.8678C93.1511 43.6214 92.9907 43.3091 92.9271 42.9701C92.8635 42.6311 92.8995 42.2806 93.0307 41.9624C93.1619 41.6442 93.3824 41.3726 93.6645 41.1816C93.9467 40.9906 94.2779 40.8887 94.6166 40.8887C94.9554 40.8887 95.2866 40.9906 95.5687 41.1816C95.8508 41.3726 96.0713 41.6442 96.2025 41.9624C96.3337 42.2806 96.3697 42.6311 96.3061 42.9701C96.2426 43.3091 96.0821 43.6214 95.845 43.8678C95.5169 44.1952 95.0759 44.3786 94.6166 44.3786C94.1573 44.3786 93.7163 44.1952 93.3882 43.8678Z" fill="white"/>
<path d="M99.7016 43.6382C98.8532 43.1448 98.1654 42.4088 97.7233 41.5214C97.2663 40.6172 97.0376 39.595 97.0371 38.4548C97.0371 37.2869 97.2796 36.265 97.7646 35.3889C98.2288 34.5323 98.9252 33.8299 99.7705 33.3655C100.624 32.8922 101.596 32.6558 102.686 32.6563C103.696 32.6563 104.59 32.8509 105.368 33.2402C106.062 33.5746 106.66 34.0842 107.105 34.7205C107.551 35.3567 107.83 36.0986 107.915 36.8755C107.921 36.9268 107.916 36.979 107.901 37.0284C107.886 37.0778 107.861 37.1235 107.827 37.1623C107.794 37.2012 107.753 37.2324 107.706 37.2539C107.66 37.2753 107.61 37.2866 107.559 37.2869H105.525C105.444 37.2876 105.365 37.2603 105.302 37.2095C105.238 37.1587 105.194 37.0874 105.176 37.0073C105.063 36.4798 104.787 36.0034 104.388 35.649C103.924 35.2389 103.35 35.0339 102.668 35.0339C101.821 35.0339 101.139 35.3432 100.62 35.9619C100.102 36.5806 99.8424 37.4115 99.8424 38.4548C99.8424 39.539 100.109 40.4011 100.641 41.0411C101.173 41.681 101.869 42.0009 102.729 42.0009C103.398 42.0009 103.954 41.7957 104.398 41.3852C104.782 41.0311 105.04 40.5641 105.174 39.9841C105.193 39.9045 105.238 39.8338 105.301 39.7834C105.364 39.7331 105.442 39.706 105.523 39.7066H107.541C107.593 39.7066 107.645 39.7181 107.692 39.7403C107.74 39.7626 107.782 39.795 107.816 39.8355C107.849 39.8759 107.874 39.9234 107.888 39.9746C107.902 40.0257 107.905 40.0794 107.897 40.1319C107.702 41.3663 107.18 42.3649 106.332 43.1275C105.391 43.9756 104.19 44.3996 102.729 44.3996C101.569 44.3996 100.559 44.1458 99.6987 43.6382" fill="white"/>
<path d="M111.302 43.6382C110.461 43.1439 109.778 42.4123 109.337 41.5315C108.88 40.6346 108.651 39.6091 108.65 38.4548C108.65 37.2869 108.893 36.265 109.378 35.3889C109.844 34.5302 110.545 33.8274 111.394 33.3655C112.254 32.8922 113.23 32.6558 114.322 32.6563C115.468 32.6563 116.472 32.9064 117.332 33.4068C118.172 33.888 118.858 34.6066 119.306 35.4758C119.763 36.3514 119.992 37.3456 119.992 38.4584C119.992 39.6542 119.753 40.7042 119.275 41.6083C118.822 42.4866 118.124 43.2088 117.269 43.6839C116.409 44.1634 115.426 44.4032 114.321 44.4032C113.16 44.4032 112.153 44.1494 111.301 43.6418M116.409 41.0244C116.927 40.3709 117.187 39.5156 117.187 38.4584C117.187 37.4297 116.928 36.6023 116.409 35.9764C115.89 35.3505 115.194 35.0366 114.321 35.0346C113.447 35.0346 112.751 35.3486 112.232 35.9764C111.714 36.6043 111.454 37.4316 111.454 38.4584C111.454 39.5571 111.717 40.4229 112.243 41.0555C112.769 41.6882 113.461 42.0046 114.321 42.0046C115.194 42.0046 115.89 41.6778 116.409 41.0244Z" fill="white"/>
<path d="M120.912 43.6991V33.3742C120.912 33.326 120.921 33.2783 120.939 33.2338C120.957 33.1893 120.984 33.1488 121.017 33.1148C121.051 33.0807 121.09 33.0537 121.134 33.0353C121.178 33.0169 121.225 33.0075 121.272 33.0076H122.852C122.939 33.0076 123.022 33.0396 123.088 33.0975C123.153 33.1554 123.195 33.2354 123.208 33.3228L123.304 34.0175C123.309 34.0542 123.324 34.0886 123.348 34.1166C123.372 34.1445 123.403 34.1649 123.438 34.175C123.473 34.1852 123.51 34.1847 123.544 34.1737C123.579 34.1627 123.61 34.1417 123.633 34.1131C123.958 33.7214 124.355 33.3989 124.802 33.1641C125.46 32.8176 126.191 32.6434 126.931 32.657C127.696 32.657 128.358 32.8306 128.918 33.1779C129.389 33.4721 129.78 33.8824 130.055 34.371C130.071 34.399 130.094 34.4225 130.121 34.4391C130.148 34.4557 130.179 34.465 130.211 34.4661C130.243 34.4672 130.274 34.46 130.302 34.4453C130.331 34.4306 130.355 34.4088 130.372 34.3819C130.705 33.9008 131.142 33.5042 131.649 33.2228C132.297 32.8475 133.037 32.6599 133.87 32.6599C134.99 32.6599 135.887 33.0318 136.562 33.7755C137.238 34.5193 137.576 35.5094 137.576 36.7458V43.7005C137.576 43.7966 137.538 43.8887 137.472 43.9567C137.405 44.0246 137.314 44.0628 137.22 44.0628H135.154C135.06 44.0628 134.97 44.0246 134.903 43.9567C134.836 43.8887 134.799 43.7966 134.799 43.7005V36.869C134.799 36.3261 134.645 35.8914 134.338 35.5649C134.031 35.2385 133.618 35.0752 133.099 35.0752C132.376 35.0752 131.785 35.2906 131.328 35.7214C130.871 36.1522 130.643 36.7016 130.643 37.3695V43.6991C130.642 43.7955 130.603 43.8877 130.536 43.9555C130.468 44.0233 130.378 44.0613 130.283 44.0613H128.221C128.126 44.0613 128.036 44.0231 127.969 43.9552C127.903 43.8873 127.865 43.7951 127.865 43.6991V36.869C127.865 36.3261 127.712 35.8914 127.404 35.5649C127.097 35.2385 126.684 35.0752 126.166 35.0752C125.442 35.0752 124.855 35.2906 124.405 35.7214C123.955 36.1522 123.73 36.7016 123.729 37.3695V43.6991C123.728 43.7955 123.69 43.8877 123.623 43.9555C123.555 44.0233 123.464 44.0613 123.37 44.0613H121.284C121.189 44.0615 121.098 44.0235 121.031 43.9557C120.963 43.8878 120.925 43.7956 120.924 43.6991" fill="white"/>
</g>
<defs>
<filter id="filter0_b_776_3310" x="-4" y="-4" width="168" height="84" filterUnits="userSpaceOnUse" color-interpolation-filters="sRGB">
<feFlood flood-opacity="0" result="BackgroundImageFix"/>
<feGaussianBlur in="BackgroundImageFix" stdDeviation="2"/>
<feComposite in2="SourceAlpha" operator="in" result="effect1_backgroundBlur_776_3310"/>
<feBlend mode="normal" in="SourceGraphic" in2="effect1_backgroundBlur_776_3310" result="shape"/>
</filter>
</defs>
</svg>
