<svg width="161" height="76" viewBox="0 0 161 76" fill="none" xmlns="http://www.w3.org/2000/svg">
<g filter="url(#filter0_b_776_3311)">
<path d="M46.1367 34.2732H50.8208C51.486 34.2459 52.1523 34.2673 52.8145 34.3374C54.2872 34.5383 55.7791 35.1995 55.7791 37.0156C55.7791 38.536 54.8987 39.2474 53.8347 39.479V39.5711C55.3732 39.8501 56.2562 40.687 56.2562 42.3358C56.2562 45.0418 53.7168 45.7895 51.6572 45.89C51.1554 45.89 50.5109 45.89 50.0776 45.89H46.1367V34.2732ZM49.4276 43.6944H50.7631C51.8931 43.6944 53.0037 43.3485 53.0037 42.2437C53.0037 41.2059 52.1646 40.8488 50.6014 40.8488H49.4194L49.4276 43.6944ZM49.4961 38.7872H50.4889C51.8601 38.7872 52.6609 38.5082 52.6609 37.6126C52.6609 36.9013 52.1646 36.4968 50.8262 36.4968H49.4879L49.4961 38.7872Z" fill="white"/>
<path d="M29.8974 46.1322C24.9419 46.1322 22.2461 42.5055 22.2461 37.9302C22.2461 33.3243 25.4163 29.5469 30.6242 29.5469C31.9954 29.5469 33.2021 29.731 34.2469 30.2834V33.2545C33.1973 32.5914 31.9831 32.2477 30.7476 32.2641C27.2154 32.2641 25.8359 34.9116 25.8359 37.7015C25.8359 40.8093 27.5582 43.2811 30.4294 43.2811C31.6704 43.2827 32.8895 42.9485 33.9617 42.313L34.8229 44.662C33.3677 45.6452 31.6551 46.1595 29.9084 46.1378L29.8974 46.1322ZM85.8237 46.1322C82.157 46.1322 80.2785 43.3899 80.2785 40.1202C80.2785 36.4572 82.7686 34.0384 86.0979 34.0384C87.5678 34.0384 88.3412 34.337 88.9497 34.7052V37.3332C88.2761 36.7889 87.4353 36.5035 86.5751 36.5269C84.6965 36.5269 83.542 37.9219 83.542 39.9584C83.542 41.7774 84.4223 43.5517 86.5257 43.5517C87.3062 43.5009 88.0654 43.2721 88.747 42.8821L89.5148 45.0247C88.4007 45.7166 87.1285 46.1013 85.8237 46.1406V46.1322ZM95.9704 36.8952V45.9007H92.7102V36.8952H89.5393V34.27H99.5467L98.7238 36.8952H95.9704ZM111.649 35.6342C111.649 39.6878 111.49 41.8052 110.766 42.7733C110.391 43.2585 109.849 43.5799 109.249 43.6717L110.154 46.1378C111.159 46.0918 112.114 45.6822 112.847 44.9828C113.89 43.9478 114.233 42.6366 114.388 41.2529C114.534 39.9991 114.61 38.738 114.616 37.4755V36.8952H117.164V45.9007H120.425V34.27H111.649V35.6342ZM37.7106 40.9934C37.7792 42.5613 39.2299 43.5266 40.7464 43.5266C41.8434 43.5266 42.6909 43.3201 43.9853 42.6896L44.7093 44.7875C43.3649 45.6645 41.8005 46.1284 40.2034 46.1239C36.1255 46.1239 34.4444 43.175 34.4444 40.1118C34.4444 36.8422 36.3641 34.0301 39.7866 34.0301C42.913 34.0301 45.0877 36.3791 45.0877 39.9724V40.985L37.7106 40.9934ZM39.7044 36.4712C38.3907 36.4712 37.6421 37.668 37.6421 38.7281H41.7557C41.6871 37.6122 41.0756 36.4712 39.6961 36.4712H39.7044ZM60.1711 41.0074C60.2396 42.5752 61.6903 43.5405 63.2069 43.5405C64.3038 43.5405 65.1541 43.3341 66.4457 42.7036L67.1697 44.8015C65.8256 45.679 64.261 46.143 62.6639 46.1378C58.5886 46.1378 56.9049 43.189 56.9049 40.1258C56.9049 36.8562 58.8245 34.044 62.2471 34.044C65.3707 34.044 67.5454 36.3931 67.5454 39.9863V40.999L60.1711 41.0074ZM62.1648 36.4712C60.8511 36.4712 60.0915 37.654 60.0915 38.703H64.2051C64.1366 37.5871 63.5223 36.446 62.1428 36.446L62.1648 36.4712ZM105.797 44.8796C105.382 45.2945 104.89 45.6204 104.349 45.838C103.808 46.0556 103.23 46.1603 102.649 46.1461C100.476 46.1461 98.8444 44.6704 98.8444 42.366C98.8444 39.9026 100.795 38.6361 103.691 38.544L105.61 38.4743V38.2455C105.61 37.0235 104.639 36.5409 103.51 36.5409C102.488 36.536 101.485 36.8148 100.608 37.3471L99.6123 35.319C101.176 34.2839 102.668 34.0524 104.231 34.0524C107.248 34.0524 108.852 35.2716 108.852 38.3375V45.9007H106.315L105.797 44.8796ZM104.151 40.6949C102.747 40.7423 102.095 41.225 102.095 42.0898C102.095 42.9546 102.704 43.5405 103.811 43.5405C104.443 43.5707 105.065 43.3841 105.58 43.0105V40.6559L104.151 40.6949ZM71.8565 45.6468V50.554L68.593 51.5668V34.27H71.3354L71.6974 35.3274C72.5339 34.6606 73.5102 34.0384 74.7772 34.0384C77.4044 34.0384 79.464 36.0639 79.464 39.752C79.464 43.2057 77.4263 46.1322 74.0532 46.1322C73.2941 46.1528 72.5414 45.9862 71.8593 45.6468H71.8565ZM71.8565 37.7684V43.2755C72.266 43.5683 72.7545 43.7252 73.2551 43.7246C75.4738 43.7246 76.1978 41.6741 76.1978 39.6934C76.2033 37.3081 75.449 36.4712 74.119 36.4712C73.2606 36.4712 72.2432 37.1853 71.8565 37.7824V37.7684Z" fill="white"/>
<path d="M125.038 38.0547V33.7695L121.777 34.7962V45.9191H125.943C128.976 45.9191 131.807 45.0822 131.807 41.8878C131.807 39.1706 129.522 38.0658 126.714 38.0658L125.038 38.0547ZM125.038 43.6064V40.359H126.135C127.292 40.359 128.56 40.5432 128.56 41.9241C128.56 43.3051 127.462 43.598 126.182 43.598L125.038 43.6064Z" fill="white"/>
<path d="M136.747 26.6695C136.961 26.5947 137.162 26.4885 137.345 26.3542C137.668 25.5015 137.943 24.6306 138.168 23.7458C138.461 22.6128 138.666 21.4579 138.779 20.292C138.869 19.3643 138.869 18.4299 138.779 17.5022C138.692 16.643 138.472 15.7697 137.957 15.2704C137.441 14.771 136.602 14.545 135.779 14.4697C134.865 14.4055 133.947 14.427 133.037 14.5339C133.237 14.6261 133.422 14.7494 133.585 14.8993C134.09 15.368 134.323 16.1687 134.425 16.9526C134.505 17.5758 134.533 18.2049 134.509 18.8329C134.456 20.1189 134.264 21.3951 133.936 22.6382C133.689 23.6294 133.362 24.598 132.957 25.534C133.474 25.8605 134.015 26.1449 134.576 26.3849C135.302 26.6863 136.1 26.8787 136.747 26.6695Z" fill="white"/>
<path d="M124.856 24.2962C124.811 24.523 124.801 24.7554 124.826 24.9853C125.39 25.6869 125.992 26.3556 126.63 26.9884C127.453 27.8181 128.34 28.5793 129.282 29.2649C130.028 29.8016 130.82 30.2684 131.649 30.6597C132.419 31.0196 133.275 31.2512 133.955 31.0615C134.635 30.8718 135.244 30.2245 135.729 29.5076C136.249 28.7376 136.693 27.9171 137.054 27.0581C136.869 27.1983 136.664 27.3075 136.445 27.3817C135.798 27.5937 135 27.3985 134.282 27.1028C133.711 26.8593 133.161 26.5692 132.636 26.2351C131.571 25.5437 130.582 24.7364 129.688 23.8276C128.968 23.1142 128.306 22.3416 127.711 21.5176C127.176 21.8117 126.665 22.1485 126.183 22.5247C125.566 23.0129 125.001 23.6211 124.856 24.2962Z" fill="white"/>
<path d="M132.814 14.9921C132.65 14.8477 132.465 14.7292 132.265 14.6406C131.373 14.7812 130.489 14.9759 129.619 15.2237C128.51 15.5244 127.426 15.9134 126.378 16.387C125.546 16.7733 124.752 17.2405 124.008 17.7819C123.314 18.2897 122.67 18.9285 122.494 19.6288C122.319 20.329 122.573 21.1995 122.939 21.989C123.334 22.8248 123.808 23.6199 124.354 24.3631C124.327 24.1305 124.338 23.895 124.384 23.6656C124.529 22.9877 125.094 22.3795 125.709 21.8969C126.204 21.5151 126.729 21.1755 127.28 20.8814C128.401 20.2856 129.584 19.8178 130.807 19.4865C131.767 19.2086 132.748 19.0117 133.741 18.8979C133.763 18.2763 133.735 17.6539 133.656 17.0371C133.555 16.2531 133.313 15.4525 132.814 14.9921Z" fill="white"/>
</g>
<defs>
<filter id="filter0_b_776_3311" x="-4" y="-4" width="169" height="84" filterUnits="userSpaceOnUse" color-interpolation-filters="sRGB">
<feFlood flood-opacity="0" result="BackgroundImageFix"/>
<feGaussianBlur in="BackgroundImageFix" stdDeviation="2"/>
<feComposite in2="SourceAlpha" operator="in" result="effect1_backgroundBlur_776_3311"/>
<feBlend mode="normal" in="SourceGraphic" in2="effect1_backgroundBlur_776_3311" result="shape"/>
</filter>
</defs>
</svg>
