<svg width="171" height="76" viewBox="0 0 171 76" fill="none" xmlns="http://www.w3.org/2000/svg">
<g filter="url(#filter0_b_776_3294)">
<path d="M143.709 46.05C141.978 46.05 140.57 45.522 139.485 44.466C138.414 43.41 137.879 41.9874 137.879 40.198V40.022C137.879 38.262 138.414 36.832 139.485 35.732C140.57 34.632 141.942 34.082 143.599 34.082C145.154 34.082 146.444 34.566 147.471 35.534C148.512 36.502 149.033 37.954 149.033 39.89V40.66H140.607C140.651 41.76 140.937 42.6034 141.465 43.19C142.008 43.7767 142.778 44.07 143.775 44.07C145.33 44.07 146.21 43.4834 146.415 42.31H148.989C148.798 43.5274 148.241 44.4587 147.317 45.104C146.408 45.7347 145.205 46.05 143.709 46.05ZM146.393 38.878C146.246 36.9714 145.315 36.018 143.599 36.018C142.807 36.018 142.147 36.2747 141.619 36.788C141.106 37.2867 140.783 37.9834 140.651 38.878H146.393Z" fill="white"/>
<path d="M131.609 46.05C129.922 46.05 128.529 45.5294 127.429 44.488C126.343 43.432 125.801 42.0094 125.801 40.22V40.044C125.801 38.2694 126.351 36.832 127.451 35.732C128.565 34.632 129.951 34.082 131.609 34.082C133.017 34.082 134.212 34.434 135.195 35.138C136.177 35.8274 136.735 36.9127 136.867 38.394H134.293C134.073 36.942 133.193 36.216 131.653 36.216C130.729 36.216 129.973 36.5534 129.387 37.228C128.815 37.9027 128.529 38.8267 128.529 40V40.176C128.529 41.4227 128.807 42.376 129.365 43.036C129.937 43.6814 130.721 44.004 131.719 44.004C132.452 44.004 133.075 43.7914 133.589 43.366C134.102 42.9407 134.403 42.332 134.491 41.54H136.933C136.845 42.8747 136.317 43.96 135.349 44.796C134.381 45.632 133.134 46.05 131.609 46.05Z" fill="white"/>
<path d="M113.762 34.324H116.424V36.15C116.717 35.5487 117.179 35.0574 117.81 34.676C118.455 34.28 119.232 34.082 120.142 34.082C121.359 34.082 122.32 34.456 123.024 35.204C123.728 35.9374 124.08 37.0667 124.08 38.592V45.83H121.418V38.834C121.418 37.954 121.234 37.316 120.868 36.92C120.501 36.5094 119.922 36.304 119.13 36.304C118.338 36.304 117.685 36.546 117.172 37.03C116.673 37.4994 116.424 38.174 116.424 39.054V45.83H113.762V34.324Z" fill="white"/>
<path d="M105.143 46.05C104.014 46.05 103.09 45.7714 102.371 45.214C101.652 44.642 101.293 43.784 101.293 42.64C101.293 41.3787 101.828 40.4547 102.899 39.868C103.984 39.2814 105.414 38.988 107.189 38.988H108.619V38.394C108.619 37.5874 108.465 37.0007 108.157 36.634C107.849 36.2674 107.306 36.084 106.529 36.084C105.224 36.084 104.49 36.6854 104.329 37.888H101.755C101.872 36.612 102.378 35.6587 103.273 35.028C104.168 34.3974 105.304 34.082 106.683 34.082C109.748 34.082 111.281 35.4827 111.281 38.284V45.83H108.663V44.422C107.812 45.5074 106.639 46.05 105.143 46.05ZM105.781 44.136C106.632 44.136 107.314 43.9307 107.827 43.52C108.355 43.1094 108.619 42.5374 108.619 41.804V40.66H107.255C105.04 40.66 103.933 41.2834 103.933 42.53C103.933 43.6007 104.549 44.136 105.781 44.136Z" fill="white"/>
<path d="M96.7969 29H99.4589V45.83H96.7969V29Z" fill="white"/>
<path d="M88.1156 46.05C86.9863 46.05 86.0623 45.7714 85.3436 45.214C84.625 44.642 84.2656 43.784 84.2656 42.64C84.2656 41.3787 84.801 40.4547 85.8716 39.868C86.957 39.2814 88.387 38.988 90.1616 38.988H91.5916V38.394C91.5916 37.5874 91.4376 37.0007 91.1296 36.634C90.8216 36.2674 90.279 36.084 89.5016 36.084C88.1963 36.084 87.463 36.6854 87.3016 37.888H84.7276C84.845 36.612 85.351 35.6587 86.2456 35.028C87.1403 34.3974 88.277 34.082 89.6556 34.082C92.721 34.082 94.2536 35.4827 94.2536 38.284V45.83H91.6356V44.422C90.785 45.5074 89.6116 46.05 88.1156 46.05ZM88.7536 44.136C89.6043 44.136 90.2863 43.9307 90.7996 43.52C91.3276 43.1094 91.5916 42.5374 91.5916 41.804V40.66H90.2276C88.013 40.66 86.9056 41.2834 86.9056 42.53C86.9056 43.6007 87.5216 44.136 88.7536 44.136Z" fill="white"/>
<path d="M71.6953 30.0996H77.3273C80.7593 30.0996 82.4753 31.4636 82.4753 34.1916V34.2796C82.4753 35.9956 81.6466 37.1103 79.9893 37.6236C81.06 37.8583 81.852 38.2763 82.3653 38.8776C82.8786 39.4643 83.1353 40.2856 83.1353 41.3416V41.4296C83.1353 42.8816 82.6733 43.9816 81.7493 44.7296C80.8253 45.4629 79.4906 45.8296 77.7453 45.8296H71.6953V30.0996ZM77.3933 43.7396C79.3 43.7396 80.2533 42.9036 80.2533 41.2316V41.1436C80.2533 40.3076 80.0113 39.6916 79.5273 39.2956C79.0433 38.8996 78.266 38.7016 77.1953 38.7016H74.5553V43.7396H77.3933ZM76.9753 36.7216C77.9286 36.7216 78.6106 36.5383 79.0213 36.1716C79.4466 35.8049 79.6593 35.2183 79.6593 34.4116V34.3236C79.6593 33.5756 79.4393 33.0329 78.9993 32.6956C78.5593 32.3583 77.87 32.1896 76.9313 32.1896H74.5553V36.7216H76.9753Z" fill="white"/>
<path d="M48.3203 34.3242H51.1583L53.4463 42.6402L55.8883 34.3242H58.1103L60.3543 42.6402L62.7523 34.3242H65.3483L61.7403 45.8302H59.0343L56.9003 38.0862L54.5683 45.8302H51.8403L48.3203 34.3242Z" fill="white"/>
<path d="M42.5527 46.05C40.822 46.05 39.414 45.522 38.3287 44.466C37.258 43.41 36.7227 41.9874 36.7227 40.198V40.022C36.7227 38.262 37.258 36.832 38.3287 35.732C39.414 34.632 40.7853 34.082 42.4427 34.082C43.9973 34.082 45.288 34.566 46.3147 35.534C47.356 36.502 47.8767 37.954 47.8767 39.89V40.66H39.4507C39.4947 41.76 39.7807 42.6034 40.3087 43.19C40.8513 43.7767 41.6213 44.07 42.6187 44.07C44.1733 44.07 45.0533 43.4834 45.2587 42.31H47.8327C47.642 43.5274 47.0847 44.4587 46.1607 45.104C45.2513 45.7347 44.0487 46.05 42.5527 46.05ZM45.2367 38.878C45.09 36.9714 44.1587 36.018 42.4427 36.018C41.6507 36.018 40.9907 36.2747 40.4627 36.788C39.9493 37.2867 39.6267 37.9834 39.4947 38.878H45.2367Z" fill="white"/>
<path d="M22 30.0996H25.498L32.12 41.4736V30.0996H34.782V45.8296H31.746L24.662 33.7736V45.8296H22V30.0996Z" fill="white"/>
</g>
<defs>
<filter id="filter0_b_776_3294" x="-4" y="-4" width="179" height="84" filterUnits="userSpaceOnUse" color-interpolation-filters="sRGB">
<feFlood flood-opacity="0" result="BackgroundImageFix"/>
<feGaussianBlur in="BackgroundImageFix" stdDeviation="2"/>
<feComposite in2="SourceAlpha" operator="in" result="effect1_backgroundBlur_776_3294"/>
<feBlend mode="normal" in="SourceGraphic" in2="effect1_backgroundBlur_776_3294" result="shape"/>
</filter>
</defs>
</svg>
