<svg width="200" height="76" viewBox="0 0 200 76" fill="none" xmlns="http://www.w3.org/2000/svg">
<g filter="url(#filter0_b_776_3312)">
<path d="M31.4965 43.2041C34.2351 43.2041 36.446 41.0161 36.446 38.3061C36.446 35.5961 34.2351 33.408 31.4965 33.408C30.6274 33.408 29.8024 33.6258 29.0986 34.0175L30.1655 35.9224C30.5724 35.6991 31.0312 35.5831 31.4965 35.5848C33.0145 35.5848 34.2464 36.8041 34.2464 38.3061C34.2464 39.808 33.0145 41.0273 31.4965 41.0273C29.9786 41.0273 28.7467 39.808 28.7467 38.3061C28.7462 37.8104 28.8833 37.3243 29.1427 36.9019L27.2508 35.7809C26.7875 36.5414 26.5439 37.4155 26.547 38.3061C26.547 41.0161 28.7575 43.2041 31.4965 43.2041ZM31.4965 47.6121C36.6993 47.6121 40.9008 43.4542 40.9008 38.3061C40.9008 33.1579 36.6993 29 31.4965 29C29.9012 28.9975 28.331 29.398 26.9318 30.1643L28.0096 32.0693C29.0328 31.4923 30.2426 31.1768 31.4965 31.1768C35.489 31.1768 38.7011 34.3551 38.7011 38.3061C38.7011 42.257 35.4895 45.4349 31.4965 45.4349C27.5036 45.4349 24.2919 42.2574 24.2919 38.3061C24.2937 37.0097 24.6512 35.738 25.326 34.6269L23.4345 33.5171C22.5761 34.91 22.0918 36.5531 22.0918 38.3061C22.0918 43.4542 26.2938 47.6121 31.4965 47.6121Z" fill="white"/>
<path d="M167.891 43.0774V33.4991H170.586C173.544 33.4991 175.733 35.5781 175.733 38.2881C175.733 40.9985 173.544 43.0774 170.586 43.0774H167.891ZM165.691 45.091H170.586C174.755 45.091 177.933 42.1088 177.933 38.2881C177.933 34.457 174.755 31.4856 170.586 31.4856H165.691V45.091ZM155.792 43.3493C153.053 43.3493 150.842 41.0855 150.842 38.2881C150.842 35.4911 153.053 33.2269 155.792 33.2269C158.53 33.2269 160.741 35.4906 160.741 38.2881C160.741 41.0855 158.53 43.3493 155.792 43.3493ZM155.792 45.3628C159.741 45.3628 162.942 42.1958 162.942 38.2881C162.942 34.37 159.741 31.2133 155.792 31.2133C151.843 31.2133 148.642 34.3808 148.642 38.2881C148.642 42.1958 151.843 45.3628 155.792 45.3628ZM139.293 43.3493C136.554 43.3493 134.343 41.0855 134.343 38.2881C134.343 35.4911 136.554 33.2269 139.293 33.2269C142.032 33.2269 144.243 35.4906 144.243 38.2881C144.243 41.0855 142.032 43.3493 139.293 43.3493ZM139.293 45.3628C143.242 45.3628 146.443 42.1958 146.443 38.2881C146.443 34.37 143.242 31.2133 139.293 31.2133C135.345 31.2133 132.144 34.3808 132.144 38.2881C132.144 42.1958 135.345 45.3628 139.293 45.3628ZM97.549 43.0774V33.4991H100.243C103.202 33.4991 105.391 35.5781 105.391 38.2881C105.391 40.9985 103.202 43.0774 100.243 43.0774H97.549ZM95.3489 45.091H100.243C104.413 45.091 107.591 42.1088 107.591 38.2881C107.591 34.457 104.413 31.4856 100.243 31.4856H95.3489V45.091ZM52.4524 39.2892H57.3028C56.8517 41.6075 54.8499 43.3493 52.4524 43.3493C49.7134 43.3493 47.5024 41.0851 47.5024 38.2876C47.5024 35.4906 49.7134 33.2265 52.4524 33.2265C53.9483 33.2265 55.2788 33.9017 56.1921 34.9574L57.7538 33.5965C56.6648 32.2037 54.7733 31.2129 52.4524 31.2129C48.5036 31.2129 45.3027 34.3804 45.3027 38.2876C45.3027 42.1953 48.5036 45.3624 52.4524 45.3624C56.4007 45.3624 59.6016 42.1953 59.6016 38.2876C59.6016 37.9176 59.5687 37.5691 59.5137 37.2757H52.4524V39.2892ZM117.064 45.0906H119.033L122.167 35.2508L125.203 45.0906H127.172L131.022 31.4851H128.965L126.259 41.1937L123.256 31.4851H121.321L118.23 41.2154L115.546 31.4851H113.28L117.064 45.0906ZM85.4499 43.3488C82.7109 43.3488 80.4999 41.0851 80.4999 38.2876C80.4999 35.4906 82.7109 33.2265 85.4499 33.2265C88.1884 33.2265 90.3994 35.4902 90.3994 38.2876C90.3994 41.0851 88.1884 43.3488 85.4499 43.3488ZM85.4499 45.3624C89.3987 45.3624 92.5991 42.1953 92.5991 38.2876C92.5991 34.3696 89.3987 31.2129 85.4499 31.2129C81.5011 31.2129 78.3002 34.3804 78.3002 38.2876C78.3002 42.1953 81.5011 45.3624 85.4499 45.3624ZM68.9509 43.3488C66.2123 43.3488 64.0014 41.0851 64.0014 38.2876C64.0014 35.4906 66.2123 33.2265 68.9509 33.2265C71.6899 33.2265 73.9004 35.4902 73.9004 38.2876C73.9004 41.0851 71.6899 43.3488 68.9509 43.3488ZM68.9509 45.3624C72.8997 45.3624 76.1005 42.1953 76.1005 38.2876C76.1005 34.3696 72.8997 31.2129 68.9509 31.2129C65.0021 31.2129 61.8017 34.3804 61.8017 38.2876C61.8017 42.1953 65.0021 45.3624 68.9509 45.3624Z" fill="white"/>
</g>
<defs>
<filter id="filter0_b_776_3312" x="-4" y="-4" width="208" height="84" filterUnits="userSpaceOnUse" color-interpolation-filters="sRGB">
<feFlood flood-opacity="0" result="BackgroundImageFix"/>
<feGaussianBlur in="BackgroundImageFix" stdDeviation="2"/>
<feComposite in2="SourceAlpha" operator="in" result="effect1_backgroundBlur_776_3312"/>
<feBlend mode="normal" in="SourceGraphic" in2="effect1_backgroundBlur_776_3312" result="shape"/>
</filter>
</defs>
</svg>
