<svg width="189" height="76" viewBox="0 0 189 76" fill="none" xmlns="http://www.w3.org/2000/svg">
<g filter="url(#filter0_b_776_3313)">
<path fill-rule="evenodd" clip-rule="evenodd" d="M44.3045 29.2029C44.3253 29.201 44.3466 29.1981 44.3663 29.1962C44.18 28.8476 44.0228 28.4865 43.8819 28.2233C46.4656 27.9235 52.4479 28.2233 54.8358 29.7017C57.2243 31.1795 59.3932 31.6865 61.0263 31.3335C60.881 31.7396 60.2952 32.2224 60.2952 32.2224C59.7268 32.3402 59.1243 32.3759 58.4426 32.2769C57.7675 33.357 56.1062 33.2237 53.486 34.5017C50.6873 35.8671 46.5165 38.127 42.9166 40.6338C42.8104 41.8886 42.5845 44.3282 42.5533 44.7081L47.7473 42.8807L46.6989 42.0185L51.1321 41.0335C51.8503 39.9096 57.3438 34.76 58.2134 34.1348C58.5677 34.0657 58.8628 34.0083 59.0971 33.9904C60.2389 33.0084 61.5171 32.0858 62.8873 31.3973C62.911 31.322 62.9323 31.2481 62.9437 31.1786C63.0233 30.7175 62.9886 30.0488 62.3638 29.7321C51.7985 24.3826 32.2549 26.1096 21.7305 26.9357L31.6558 31.1588C36.4058 30.2159 40.7981 29.5771 44.3045 29.2029Z" fill="white"/>
<path fill-rule="evenodd" clip-rule="evenodd" d="M46.6995 42.0184L47.7489 42.8808L42.554 44.7081C42.554 44.7081 42.2757 47.966 42.2025 48.7337C42.1047 49.7751 43.0171 50.0967 43.8827 49.4062C45.8118 47.8637 50.3034 44.0828 54.4895 40.2891L46.6995 42.0184Z" fill="white"/>
<path fill-rule="evenodd" clip-rule="evenodd" d="M55.965 32.8903C53.9942 33.195 53.0447 31.8504 52.8702 30.4319C52.1624 30.318 51.4566 30.2518 50.8209 30.1973C50.7888 31.9759 52.0319 33.9144 55.0248 33.4769C56.1355 33.3157 56.6688 32.9497 56.912 32.5727C56.6856 32.7122 56.3831 32.8271 55.965 32.8903Z" fill="white"/>
<path fill-rule="evenodd" clip-rule="evenodd" d="M60.8818 34.1417C60.8818 34.1417 61.081 33.6145 61.8858 33.2563C63.0928 33.7719 63.6394 34.4801 63.6394 34.4801L60.8818 34.1417ZM62.8855 31.3975C58.7666 33.4658 55.4524 37.657 54.3047 39.1821C57.705 38.1137 64.7278 37.5324 65.8616 40.8647C67.7251 38.5116 69.6049 36.466 62.8855 31.3975Z" fill="white"/>
<path fill-rule="evenodd" clip-rule="evenodd" d="M38.3964 34.0214L47.0009 33.0934L42.3527 36.4108L42.4525 35.0575L38.3964 34.0214ZM51.4426 33.9363C50.0314 33.1687 49.5801 31.6677 49.7343 30.2637H49.7309C47.4764 30.4302 35.3481 31.3582 24.3828 34.1826C27.9239 34.7807 39.422 37.3783 39.422 37.3783C39.422 37.3783 38.1635 40.9992 37.515 43.3037C41.711 39.7285 44.4855 37.6235 51.4426 33.9363Z" fill="white"/>
<path fill-rule="evenodd" clip-rule="evenodd" d="M120.438 46.2099L122.25 37.0518H131.047L129.672 39.1094H124.62L123.508 44.7215C123.337 45.5857 122.563 46.2099 121.662 46.2099H120.438Z" fill="white"/>
<path fill-rule="evenodd" clip-rule="evenodd" d="M74.0334 42.8544L76.319 39.2614H76.6334L77.5587 42.8544H74.0334ZM78.7908 37.0508H72.893C72.8736 37.101 72.8543 37.1541 72.8371 37.2039C73.4317 37.423 74.2917 37.8802 73.844 38.6006L68.7617 46.2091H70.8535C71.504 46.2091 72.1081 45.8812 72.4521 45.3414L72.8465 44.7206H78.0395L78.4231 46.2091H81.3517L78.7908 37.0508Z" fill="white"/>
<path fill-rule="evenodd" clip-rule="evenodd" d="M99.1817 42.8544L101.468 39.2614H101.782L102.707 42.8544H99.1817ZM103.939 37.0508H98.0685C98.0497 37.101 98.0305 37.1541 98.0122 37.2039C98.5633 37.4066 99.3394 37.8141 99.0961 38.4456L93.9102 46.2091H96.0019C96.6524 46.2091 97.2565 45.8812 97.6 45.3414L97.995 44.7206H103.187L103.571 46.2091H106.5L103.939 37.0508Z" fill="white"/>
<path fill-rule="evenodd" clip-rule="evenodd" d="M133.397 42.8544L135.682 39.2614H135.997L136.922 42.8544H133.397ZM138.155 37.0508H132.261C132.244 37.101 132.224 37.1541 132.206 37.2039C132.789 37.4187 133.625 37.8633 133.234 38.5605L128.125 46.2091H130.216C130.867 46.2091 131.471 45.8812 131.815 45.341L132.209 44.7206H137.403L137.787 46.2091H140.715L138.155 37.0508Z" fill="white"/>
<mask id="mask0_776_3313" style="mask-type:alpha" maskUnits="userSpaceOnUse" x="151" y="37" width="16" height="11">
<path fill-rule="evenodd" clip-rule="evenodd" d="M151.723 37.0508H166.736V47.6976H151.723V37.0508Z" fill="white"/>
</mask>
<g mask="url(#mask0_776_3313)">
<path fill-rule="evenodd" clip-rule="evenodd" d="M162.065 44.3426H157.144L159.389 38.9174H163.137L162.065 44.3426ZM164.841 44.3426L166.285 37.0508H155.556C155.538 37.101 155.519 37.1541 155.501 37.2039C156.081 37.4173 156.773 37.8073 156.526 38.5456L154.128 44.3426H152.386L151.723 47.6976H152.947C153.847 47.6976 154.621 47.0733 154.794 46.2091H163.59L163.296 47.6976H166.072L166.736 44.3426H164.841Z" fill="white"/>
</g>
<path fill-rule="evenodd" clip-rule="evenodd" d="M90.9515 40.3615C90.7163 40.6266 90.3851 40.7608 89.9669 40.7608H86.2331L86.6093 38.8807H90.2753C90.9195 38.8807 91.2462 39.1294 91.2462 39.6194C91.2462 39.887 91.1413 40.1505 90.9515 40.3615ZM90.5757 43.9433C90.3054 44.2499 89.9337 44.3996 89.4394 44.3996H85.5153L85.9319 42.3066H89.7883C90.0528 42.3066 90.8565 42.3066 90.8565 43.1018C90.8565 43.4542 90.7651 43.7295 90.5757 43.9433ZM92.7308 41.3569L92.5524 41.3071L92.586 41.1792L92.7585 41.1377C93.193 41.0329 93.5627 40.7587 93.7529 40.5526C94.1499 40.1229 94.3827 39.6419 94.3827 38.9313C94.3827 37.3772 92.8717 37.0508 91.6028 37.0508H82.9346C82.9152 37.101 82.8959 37.1541 82.8782 37.2039C83.4713 37.4221 84.0427 37.7764 83.8865 38.5928L82.3789 46.2091H90.1664C91.549 46.2091 92.5355 45.8687 93.1836 45.1677C93.665 44.6496 93.9091 43.9515 93.9091 43.0916C93.9091 42.2327 93.5132 41.5881 92.7308 41.3569Z" fill="white"/>
<path fill-rule="evenodd" clip-rule="evenodd" d="M117.47 37.0508L116.78 40.5033H111.443L112.132 37.0508H108.094C108.075 37.101 108.056 37.1541 108.038 37.2039C108.633 37.423 109.207 37.7784 109.045 38.6006L107.531 46.2091H108.76C109.659 46.2091 110.433 45.5867 110.606 44.7244L111.037 42.5697L116.375 42.5567L115.647 46.2091H118.424L120.247 37.0508H117.47Z" fill="white"/>
<path fill-rule="evenodd" clip-rule="evenodd" d="M150.272 40.7769C150.082 41.0294 149.708 41.3301 149.008 41.3301H145.491L145.949 39.0474H149.397C150.17 39.0474 150.562 39.3352 150.562 39.903C150.562 40.0889 150.525 40.4499 150.272 40.7769ZM150.521 37.0518H142.302C142.283 37.1019 142.264 37.1551 142.246 37.2047C142.841 37.4234 143.416 37.7793 143.254 38.6015L141.748 46.2099H142.972C143.874 46.2099 144.649 45.5848 144.819 44.7195L145.129 43.1499H149.438C151.02 43.1499 152.139 42.7493 152.858 41.9246C153.414 41.2849 153.697 40.4198 153.697 39.3527C153.697 37.7827 152.688 37.0518 150.521 37.0518Z" fill="white"/>
<path fill-rule="evenodd" clip-rule="evenodd" d="M75.5529 31.8626L76.3398 30.9433H77.2186L75.9256 32.3975L76.7812 34.0019L75.9231 33.9995L75.369 32.9141L74.4393 33.9995H73.5723L75.0077 32.3908L74.246 30.9414L75.1021 30.9433L75.5529 31.8626Z" fill="white"/>
<path fill-rule="evenodd" clip-rule="evenodd" d="M78.0775 32.6241C78.0775 32.7443 78.0974 32.8549 78.1374 32.9558C78.1774 33.0567 78.2333 33.1446 78.3065 33.2199C78.3791 33.2947 78.4661 33.3531 78.5664 33.3951C78.6668 33.4371 78.777 33.4579 78.8967 33.4579C78.9989 33.4579 79.0993 33.4444 79.1981 33.4174C79.296 33.3903 79.3889 33.3522 79.4759 33.3029C79.5639 33.2537 79.644 33.1938 79.7177 33.1243C79.7918 33.0543 79.8555 32.9775 79.9084 32.8925C79.9623 32.8081 80.0038 32.7173 80.0339 32.6198C80.0641 32.5222 80.0794 32.4204 80.0794 32.3142C80.0794 32.1944 80.0587 32.0834 80.0182 31.9815C79.9771 31.8796 79.9207 31.7918 79.8486 31.7174C79.7769 31.6435 79.6904 31.5851 79.5891 31.5431C79.4878 31.5011 79.3765 31.4804 79.2555 31.4804C79.1033 31.4804 78.9569 31.5103 78.816 31.5687C78.6747 31.6281 78.5491 31.7092 78.4399 31.8116C78.3302 31.9144 78.2422 32.0356 78.1764 32.1746C78.1102 32.3142 78.0775 32.4638 78.0775 32.6241ZM77.3438 32.6873C77.3438 32.5222 77.3694 32.3624 77.4209 32.2084C77.4718 32.0539 77.544 31.9095 77.6359 31.7749C77.7279 31.6397 77.8375 31.517 77.9641 31.405C78.0902 31.2935 78.2285 31.1979 78.3778 31.1187C78.5271 31.0391 78.6858 30.9777 78.8528 30.9333C79.0204 30.8889 79.1914 30.8672 79.3659 30.8672C79.5774 30.8672 79.7722 30.9024 79.9491 30.9739C80.1266 31.0449 80.2788 31.1424 80.4069 31.266C80.5353 31.3891 80.6348 31.5349 80.7059 31.7029C80.7775 31.8705 80.8132 32.051 80.8132 32.2441C80.8132 32.4092 80.7869 32.5686 80.7351 32.7231C80.6832 32.8776 80.6105 33.0224 80.5185 33.1576C80.4266 33.2933 80.3169 33.4169 80.1904 33.5289C80.0643 33.6404 79.9259 33.736 79.7757 33.8161C79.6254 33.8968 79.4667 33.9586 79.2996 34.003C79.1321 34.0469 78.9616 34.0691 78.7886 34.0691C78.577 34.0691 78.3822 34.0334 78.2058 33.9624C78.0279 33.8915 77.8761 33.7934 77.749 33.6694C77.6215 33.5448 77.5222 33.3985 77.4505 33.2295C77.3793 33.061 77.3438 32.8805 77.3438 32.6873Z" fill="white"/>
<path fill-rule="evenodd" clip-rule="evenodd" d="M82.2593 32.4743L83.7451 30.9443H84.5918L83.2483 32.3058L84.0876 34.0005H83.2275L82.6803 32.8297L82.0863 33.4298L81.983 34.0005H81.2539L81.806 30.9443H82.5356L82.2593 32.4743Z" fill="white"/>
<path fill-rule="evenodd" clip-rule="evenodd" d="M85.6944 32.4743L87.1812 30.9443H88.028L86.684 32.3058L87.5237 34.0005H86.6632L86.116 32.8297L85.5218 33.4298L85.4185 34.0005H84.6895L85.2417 30.9443H85.9707L85.6944 32.4743Z" fill="white"/>
<path fill-rule="evenodd" clip-rule="evenodd" d="M88.6732 30.9434H90.8772L90.7665 31.557H89.2921L89.1774 32.1817H90.4428L90.3345 32.793H89.0672L88.9589 33.3883H90.4562L90.3459 33.9995H88.1211L88.6732 30.9434Z" fill="white"/>
<path fill-rule="evenodd" clip-rule="evenodd" d="M94.0678 29.9142C94.0427 30.0098 94.0056 30.0986 93.9546 30.1802C93.9048 30.2623 93.841 30.3323 93.7653 30.3917C93.6893 30.4506 93.6013 30.4969 93.5004 30.5298C93.3996 30.5626 93.2889 30.579 93.1663 30.579C93.0433 30.579 92.9374 30.5626 92.8495 30.5298C92.7615 30.4969 92.6902 30.4506 92.6359 30.3917C92.5811 30.3323 92.5435 30.2623 92.5212 30.1802C92.5 30.0986 92.4941 30.0098 92.5035 29.9142L92.9908 29.8828C92.9987 29.9171 93.0077 29.948 93.0185 29.9745C93.0289 30.0021 93.0437 30.0248 93.0625 30.0436C93.0808 30.0624 93.105 30.0759 93.1341 30.0856C93.1648 30.0957 93.2033 30.1006 93.2513 30.1006C93.2983 30.1006 93.3388 30.0957 93.3719 30.0856C93.4045 30.0759 93.4337 30.0624 93.4594 30.0436C93.4841 30.0248 93.5069 30.0021 93.5266 29.9745C93.5468 29.948 93.5676 29.9171 93.5889 29.8828L94.0678 29.9142ZM91.6751 30.9431H92.3997L92.0686 32.7705L93.8931 30.9431H94.5277L93.9756 33.9993H93.2465L93.5777 32.168L91.7528 33.9993H91.123L91.6751 30.9431Z" fill="white"/>
<path fill-rule="evenodd" clip-rule="evenodd" d="M95.4545 30.9434H96.1835L95.9587 32.1817H97.3224L97.5473 30.9434H98.2793L97.7271 33.9995H96.9957L97.2121 32.793H95.8474L95.6309 33.9995H94.9023L95.4545 30.9434Z" fill="white"/>
<path fill-rule="evenodd" clip-rule="evenodd" d="M101.407 33.9996H102.137L102.689 30.9435H101.959L101.407 33.9996ZM100.236 32.4919H99.6451L99.481 33.3885H100.075C100.14 33.3885 100.205 33.3745 100.268 33.346C100.331 33.3175 100.387 33.2793 100.435 33.2311C100.483 33.1833 100.522 33.1277 100.551 33.065C100.58 33.0022 100.595 32.9361 100.595 32.867C100.595 32.813 100.586 32.7632 100.568 32.7178C100.551 32.672 100.526 32.6324 100.494 32.5986C100.464 32.5648 100.426 32.5387 100.381 32.5204C100.337 32.5011 100.288 32.4919 100.236 32.4919ZM100.388 31.8805C100.532 31.8805 100.663 31.9022 100.779 31.9457C100.896 31.9891 100.995 32.0499 101.077 32.1277C101.159 32.2054 101.222 32.2991 101.267 32.4072C101.312 32.5163 101.334 32.6361 101.334 32.7684C101.334 32.9422 101.298 33.1044 101.228 33.2545C101.157 33.4052 101.062 33.5355 100.94 33.6456C100.819 33.7557 100.677 33.8421 100.514 33.9054C100.352 33.9681 100.179 33.9995 99.9949 33.9995H98.6445L99.1961 30.9434H99.9257L99.7556 31.8805H100.388Z" fill="white"/>
<path fill-rule="evenodd" clip-rule="evenodd" d="M106.048 29.9142C106.023 30.0098 105.986 30.0986 105.935 30.1802C105.885 30.2623 105.821 30.3323 105.746 30.3917C105.669 30.4506 105.582 30.4969 105.481 30.5298C105.38 30.5626 105.269 30.579 105.146 30.579C105.024 30.579 104.918 30.5626 104.829 30.5298C104.741 30.4969 104.67 30.4506 104.616 30.3917C104.562 30.3323 104.523 30.2623 104.502 30.1802C104.48 30.0986 104.474 30.0098 104.484 29.9142L104.971 29.8828C104.979 29.9171 104.988 29.948 104.999 29.9745C105.009 30.0021 105.024 30.0248 105.043 30.0436C105.061 30.0624 105.086 30.0759 105.115 30.0856C105.145 30.0957 105.184 30.1006 105.231 30.1006C105.279 30.1006 105.319 30.0957 105.352 30.0856C105.385 30.0759 105.414 30.0624 105.44 30.0436C105.465 30.0248 105.487 30.0021 105.507 29.9745C105.527 29.948 105.548 29.9171 105.569 29.8828L106.048 29.9142ZM103.656 30.9431H104.38L104.049 32.7705L105.873 30.9431H106.508L105.956 33.9993H105.227L105.558 32.168L103.734 33.9993H103.104L103.656 30.9431Z" fill="white"/>
<path fill-rule="evenodd" clip-rule="evenodd" d="M109.185 32.4743L110.671 30.9443H111.518L110.174 32.3058L111.014 34.0005H110.153L109.606 32.8297L109.012 33.4298L108.909 34.0005H108.18L108.732 30.9443H109.461L109.185 32.4743Z" fill="white"/>
<path fill-rule="evenodd" clip-rule="evenodd" d="M114.382 31.557H113.112L112.909 32.6877L112.898 32.7529L112.81 33.2265C112.783 33.3796 112.732 33.5095 112.657 33.6166C112.583 33.7238 112.496 33.8107 112.396 33.8783C112.296 33.9459 112.188 33.9947 112.071 34.0256C111.953 34.0565 111.838 34.0714 111.727 34.0714C111.668 34.0714 111.615 34.0685 111.567 34.0628C111.519 34.0565 111.477 34.0492 111.441 34.0405L111.672 33.4491C111.676 33.4491 111.685 33.4501 111.698 33.4515C111.711 33.453 111.725 33.4544 111.74 33.4563C111.756 33.4578 111.771 33.4588 111.785 33.4592C111.8 33.4602 111.809 33.4602 111.815 33.4602C111.886 33.4602 111.946 33.438 111.993 33.3931C112.04 33.3482 112.071 33.2806 112.088 33.1908L112.18 32.6853L112.495 30.9434H115.216L114.665 34H113.94L114.382 31.557Z" fill="white"/>
<path fill-rule="evenodd" clip-rule="evenodd" d="M115.898 33.4559C115.901 33.4559 115.909 33.4563 115.923 33.4578C115.935 33.4592 115.95 33.4602 115.965 33.4612C115.98 33.4621 115.995 33.4626 116.01 33.4636C116.024 33.4646 116.034 33.4646 116.039 33.4646C116.083 33.4646 116.126 33.4573 116.166 33.4433C116.207 33.4293 116.24 33.4018 116.267 33.3612L116.496 33.0286L115.827 30.9434H116.627L117.025 32.2759L117.909 30.9434H118.709L116.892 33.6128C116.836 33.6939 116.771 33.7634 116.698 33.8218C116.625 33.8802 116.547 33.9285 116.465 33.9657C116.383 34.0034 116.299 34.0309 116.21 34.0492C116.122 34.0671 116.035 34.0758 115.951 34.0758C115.893 34.0758 115.84 34.0729 115.791 34.0671C115.743 34.0608 115.701 34.0536 115.666 34.0444L115.898 33.4559Z" fill="white"/>
<path fill-rule="evenodd" clip-rule="evenodd" d="M119.738 32.6626L119.607 33.3863H120.12C120.181 33.3863 120.241 33.3767 120.298 33.3578C120.355 33.3395 120.406 33.312 120.45 33.2753C120.493 33.2381 120.53 33.1937 120.556 33.1411C120.583 33.0889 120.596 33.0291 120.596 32.9615C120.596 32.9122 120.587 32.8688 120.568 32.8326C120.55 32.7959 120.525 32.7645 120.494 32.7394C120.464 32.7133 120.428 32.6945 120.386 32.6819C120.344 32.6689 120.299 32.6626 120.251 32.6626H119.738ZM120.39 32.0514C120.542 32.0514 120.678 32.0726 120.797 32.1146C120.915 32.1566 121.014 32.2146 121.093 32.2889C121.172 32.3628 121.233 32.4502 121.274 32.5506C121.314 32.6506 121.334 32.7587 121.334 32.8741C121.334 32.9876 121.318 33.0947 121.285 33.1942C121.253 33.2936 121.207 33.3854 121.147 33.4684C121.088 33.5515 121.018 33.6263 120.936 33.692C120.853 33.7581 120.764 33.8136 120.667 33.8595C120.571 33.9049 120.468 33.9401 120.36 33.9638C120.25 33.9879 120.139 34 120.026 34H118.768L119.319 30.9434H121.448L121.337 31.5551H119.938L119.848 32.0514H120.39Z" fill="white"/>
</g>
<defs>
<filter id="filter0_b_776_3313" x="-4" y="-4" width="197" height="84" filterUnits="userSpaceOnUse" color-interpolation-filters="sRGB">
<feFlood flood-opacity="0" result="BackgroundImageFix"/>
<feGaussianBlur in="BackgroundImageFix" stdDeviation="2"/>
<feComposite in2="SourceAlpha" operator="in" result="effect1_backgroundBlur_776_3313"/>
<feBlend mode="normal" in="SourceGraphic" in2="effect1_backgroundBlur_776_3313" result="shape"/>
</filter>
</defs>
</svg>
