<svg width="138" height="76" viewBox="0 0 138 76" fill="none" xmlns="http://www.w3.org/2000/svg">
<g filter="url(#filter0_b_776_3295)">
<path d="M31.7193 37.2L33.1535 39.4235L36.046 34.9331V44.8764H38.5342V30.4139H35.993L31.7193 37.2ZM24.7359 30.4139H22.2188V44.8764H24.7166V34.9331L30.3813 43.7598L31.8251 41.5074L24.7359 30.4139ZM53.4972 40.3909L55.8026 44.8764H58.801L51.2737 30.4139H48.5689L48.5641 30.4187L52.3374 38.0855H47.3272L48.6315 35.5877L47.2695 32.8684L40.9262 44.8764H43.732L46.1048 40.3957L53.4972 40.3909ZM75.4196 30.4139H72.9218V37.4358L75.4196 39.8807V30.4139ZM63.3731 30.4139H60.8368V44.8764H63.3346V34.0668L73.5619 44.8764H75.4196V43.1197L63.3731 30.4139ZM92.8565 34.4278C91.6677 33.2246 89.834 32.4545 87.7789 32.4545C84.4966 32.4545 81.787 34.4182 81.3538 36.9641H78.6057C78.9667 33.008 83.1153 30.0963 87.8126 30.0963C90.6041 30.0963 93.1164 31.1118 94.8057 32.7433L92.8565 34.4278ZM87.5479 42.855C84.8094 42.855 82.4752 41.4064 81.6089 39.385H78.8078C79.7367 42.8743 83.38 45.1989 87.7067 45.1989C88.7126 45.1989 89.8677 45.1026 90.8255 44.8716C92.9912 44.347 95.3591 42.9754 95.3591 40.8096V36.9641H87.5239L87.519 39.385H92.8565V40.4823C92.8565 41.6951 90.9939 42.3978 89.8581 42.6433C89.2468 42.778 88.4575 42.855 87.8271 42.855H87.5479ZM115.992 37.6572C115.992 33.3449 111.973 30 107.04 30C102.261 30 98.0639 33.1909 98.0639 37.4262C98.0639 41.4208 101.361 44.6213 105.798 45.1267V42.7106C102.891 42.2438 100.697 40.131 100.697 37.585C100.697 34.6973 103.522 32.3583 107.001 32.3583C110.486 32.3583 113.306 34.7021 113.306 37.585C113.306 40.1117 111.145 42.2101 108.272 42.701V45.1219C112.541 44.6165 115.992 41.5363 115.992 37.6572Z" fill="white"/>
</g>
<defs>
<filter id="filter0_b_776_3295" x="-4" y="-4" width="146" height="84" filterUnits="userSpaceOnUse" color-interpolation-filters="sRGB">
<feFlood flood-opacity="0" result="BackgroundImageFix"/>
<feGaussianBlur in="BackgroundImageFix" stdDeviation="2"/>
<feComposite in2="SourceAlpha" operator="in" result="effect1_backgroundBlur_776_3295"/>
<feBlend mode="normal" in="SourceGraphic" in2="effect1_backgroundBlur_776_3295" result="shape"/>
</filter>
</defs>
</svg>
