<svg width="177" height="76" viewBox="0 0 177 76" fill="none" xmlns="http://www.w3.org/2000/svg">
<g filter="url(#filter0_b_776_3296)">
<path d="M39.1546 30V46.032H36.2324V30H39.1546Z" fill="white"/>
<path d="M102.162 30V43.414H109.267V46.032H99.2402V30H102.162Z" fill="white"/>
<path d="M155.278 30V32.6095H147.58V36.481H154.619V39.0905H147.58V43.414H155.278V46.032H144.658V30H155.278Z" fill="white"/>
<path d="M126.396 46.032L120.769 30H117.062L111.443 46.032H114.399C114.833 44.7273 115.175 43.7296 115.459 42.8939H122.364C122.639 43.6955 122.973 44.6932 123.424 46.032H126.396ZM116.369 40.2844C116.962 38.5788 117.538 36.8904 118.916 32.5839C120.502 37.4958 120.953 38.8432 121.462 40.2844H116.369Z" fill="white"/>
<path d="M32.5481 30V32.6095H24.5999V36.8221H31.9553V39.4316H24.5999V46.032H21.6777V30H32.5481Z" fill="white"/>
<path d="M96.0012 30V32.6095H88.053V36.8221H95.4085V39.4316H88.053V46.032H85.1309V30H96.0012Z" fill="white"/>
<path d="M47.0978 30L54.4366 41.393V30H57.3587V46.032H54.2863L46.9475 34.6391V46.032H44.0254V30H47.0978Z" fill="white"/>
<path d="M65.3205 30L72.6592 41.393V30H75.5814V46.032H72.5089L65.1702 34.6391V46.032H62.248V30H65.3205Z" fill="white"/>
<path d="M138.223 46.032H141.396L137.196 39.6107C137.739 39.4828 138.265 39.2952 138.766 39.0223C139.083 38.8517 139.367 38.6471 139.617 38.4254C139.868 38.2036 140.093 37.9563 140.285 37.692C140.477 37.4276 140.636 37.1377 140.769 36.8221C141.028 36.1911 141.17 35.6794 141.17 34.8864C141.17 34.0933 141.037 33.6413 140.769 33.0103C140.636 32.7033 140.477 32.4133 140.285 32.1404C140.093 31.8761 139.876 31.6288 139.617 31.4071C139.367 31.1853 139.083 30.9807 138.766 30.8101C137.655 30.1961 136.386 30 135.142 30H129.131V46.032H132.053V39.8324H134.174L138.223 46.032ZM132.053 32.6095H135.434C136.561 32.6095 137.714 33.0359 138.148 34.17C138.34 34.6732 138.331 35.1763 138.139 35.6794C137.705 36.8051 136.561 37.2229 135.434 37.2229H132.053V32.6095Z" fill="white"/>
</g>
<defs>
<filter id="filter0_b_776_3296" x="-4" y="-4" width="185" height="84" filterUnits="userSpaceOnUse" color-interpolation-filters="sRGB">
<feFlood flood-opacity="0" result="BackgroundImageFix"/>
<feGaussianBlur in="BackgroundImageFix" stdDeviation="2"/>
<feComposite in2="SourceAlpha" operator="in" result="effect1_backgroundBlur_776_3296"/>
<feBlend mode="normal" in="SourceGraphic" in2="effect1_backgroundBlur_776_3296" result="shape"/>
</filter>
</defs>
</svg>
