<svg width="143" height="76" viewBox="0 0 143 76" fill="none" xmlns="http://www.w3.org/2000/svg">
<g filter="url(#filter0_b_776_3297)">
<path d="M53.7405 23.0292H51.5047V45.3393H53.7405V23.0292ZM59.3425 23.0292H57.1061V45.3393H59.3425V23.0292ZM118.137 33.302V40.7098C118.137 41.489 117.833 42.2375 117.29 42.7919C116.751 43.3453 116.014 43.6619 115.241 43.6723C114.855 43.6719 114.473 43.595 114.117 43.4461C113.761 43.2972 113.438 43.0792 113.167 42.8047C112.616 42.2466 112.308 41.4939 112.309 40.7098V33.3013H110.11V40.709C110.11 42.0839 110.65 43.4026 111.613 44.3751C112.087 44.8557 112.652 45.2374 113.275 45.4981C113.897 45.7588 114.566 45.8933 115.241 45.8938C115.913 45.8884 116.578 45.7503 117.196 45.4875C117.815 45.2247 118.375 44.8423 118.846 44.3623C119.802 43.3868 120.337 42.075 120.336 40.709V33.3013H118.137V33.302ZM28.3622 33.0885C26.8751 33.0811 25.4344 33.6065 24.3013 34.5698V23H22.1016V45.3109H24.3006V44.3106C25.4336 45.2739 26.8743 45.7994 28.3615 45.7919C29.191 45.79 30.0118 45.6232 30.7763 45.3011C31.5429 44.978 32.238 44.5064 32.8217 43.9135C33.4071 43.3185 33.8701 42.6144 34.1846 41.8411C34.5002 41.0658 34.6615 40.2364 34.6596 39.3994C34.6454 37.725 33.9759 36.1229 32.7947 34.9361C32.2135 34.3521 31.5229 33.8883 30.7623 33.5712C30.0018 33.2542 29.1862 33.0902 28.3622 33.0885ZM28.3622 43.6221C27.8232 43.6207 27.2898 43.5126 26.7928 43.304C26.2958 43.0954 25.845 42.7905 25.4664 42.4068C24.6968 41.6274 24.2648 40.5764 24.2639 39.481C24.2649 38.3857 24.6969 37.3347 25.4664 36.5552C25.845 36.1717 26.2959 35.8669 26.7929 35.6585C27.2899 35.45 27.8233 35.342 28.3622 35.3407C28.901 35.3421 29.4343 35.4502 29.9311 35.6586C30.428 35.8671 30.8787 36.1718 31.2573 36.5552C32.0268 37.3347 32.4588 38.3857 32.4598 39.481C32.457 40.5756 32.0246 41.6254 31.2558 42.4046C30.8774 42.788 30.427 43.0929 29.9304 43.3019C29.4339 43.5108 28.9009 43.6196 28.3622 43.6221ZM101.911 33.117C101.083 33.1196 100.263 33.286 99.4999 33.6066C98.7365 33.9272 98.044 34.3956 97.4624 34.9848C96.2798 36.1825 95.6156 37.7972 95.6132 39.4803C95.6138 41.1638 96.2773 42.7793 97.4601 43.9772C98.042 44.5666 98.7349 45.035 99.4988 45.3552C100.263 45.6754 101.082 45.8411 101.911 45.8428C102.739 45.8412 103.559 45.6755 104.322 45.3552C105.086 45.035 105.779 44.5667 106.361 43.9772C107.544 42.7792 108.207 41.1637 108.208 39.4803C108.207 37.7966 107.544 36.1808 106.361 34.9826C105.779 34.3931 105.086 33.9248 104.322 33.6046C103.559 33.2844 102.739 33.1186 101.911 33.117ZM101.911 43.6213C101.372 43.6198 100.838 43.5115 100.341 43.3028C99.8446 43.0941 99.394 42.7891 99.0155 42.4053C98.2458 41.6263 97.8138 40.5755 97.813 39.4803C97.8136 38.3848 98.2456 37.3337 99.0155 36.5545C99.394 36.1709 99.8447 35.866 100.342 35.6574C100.838 35.4489 101.372 35.3407 101.911 35.3392C102.449 35.3392 102.982 35.4464 103.479 35.6539C103.977 35.8627 104.429 36.168 104.809 36.5523C105.382 37.135 105.772 37.8732 105.93 38.6754C106.087 39.4775 106.006 40.3084 105.697 41.0649C105.491 41.5661 105.189 42.0222 104.809 42.4076C104.429 42.7915 103.977 43.0966 103.479 43.3052C102.982 43.5133 102.449 43.6212 101.911 43.6213ZM67.8449 33.0878C67.0166 33.0894 66.1969 33.2551 65.433 33.5753C64.6692 33.8956 63.9763 34.3639 63.3944 34.9534C62.2116 36.1513 61.5481 37.7668 61.5475 39.4503C61.5482 41.1338 62.2117 42.7493 63.3944 43.9472C63.9763 44.5367 64.6692 45.0051 65.433 45.3253C66.1969 45.6455 67.0166 45.8112 67.8449 45.8129C68.9257 45.81 69.9874 45.5274 70.9265 44.9924C71.8697 44.4549 72.6591 43.6843 73.2192 42.7545L71.0779 42.0127C70.696 42.5093 70.2058 42.9121 69.6446 43.1905C69.0851 43.4676 68.4693 43.6121 67.8449 43.6131C66.9198 43.6094 66.0232 43.2919 65.302 42.7125C64.5766 42.1292 64.0677 41.3196 63.8567 40.4131H74.1198C74.1468 39.9201 74.1468 39.4256 74.1198 38.9318C73.9943 37.3426 73.2786 35.8578 72.1133 34.7698C70.955 33.6886 69.4294 33.0874 67.8449 33.0878ZM63.9444 38.1916C64.2079 37.358 64.7282 36.6289 65.4309 36.1087C66.1298 35.5919 66.9756 35.312 67.8449 35.31C68.7074 35.3156 69.5463 35.5927 70.2425 36.102C70.942 36.6141 71.4647 37.3314 71.738 38.1541L63.9444 38.1916ZM42.9656 33.0878C42.1374 33.0895 41.3177 33.2553 40.5538 33.5755C39.79 33.8957 39.0971 34.364 38.5152 34.9534C37.3324 36.1514 36.669 37.7669 36.6683 39.4503C36.669 41.1338 37.3324 42.7493 38.5152 43.9472C39.0971 44.5367 39.7899 45.005 40.5538 45.3252C41.3177 45.6454 42.1374 45.8112 42.9656 45.8129C44.0465 45.81 45.1081 45.5273 46.0473 44.9924C46.9905 44.455 47.7799 43.6844 48.3399 42.7545L46.1986 42.0127C45.8168 42.5093 45.3265 42.9122 44.7653 43.1905C44.2058 43.4676 43.59 43.6121 42.9656 43.6131C42.0409 43.6104 41.1446 43.2931 40.4242 42.7133C39.7003 42.1295 39.1937 41.3194 38.9857 40.4131H49.248C49.2787 39.9201 49.2787 39.4256 49.248 38.9318C49.1209 37.3419 48.4035 35.857 47.2371 34.7691C46.0776 33.6883 44.5507 33.0875 42.9656 33.0878ZM39.0733 38.1691C39.3368 37.3358 39.8568 36.6071 40.5591 36.087C41.258 35.57 42.1038 35.2899 42.9731 35.2875C43.8367 35.2888 44.6776 35.5642 45.3745 36.0742C46.0745 36.5871 46.596 37.3067 46.8654 38.1316L39.0733 38.1691ZM93.4382 33.302L89.3031 42.0652L85.0594 33.302H82.6102L88.0931 44.6283L83.8637 53.5765H86.2972L95.8717 33.3013H93.4382V33.302Z" fill="white"/>
</g>
<defs>
<filter id="filter0_b_776_3297" x="-4" y="-4" width="151" height="84" filterUnits="userSpaceOnUse" color-interpolation-filters="sRGB">
<feFlood flood-opacity="0" result="BackgroundImageFix"/>
<feGaussianBlur in="BackgroundImageFix" stdDeviation="2"/>
<feComposite in2="SourceAlpha" operator="in" result="effect1_backgroundBlur_776_3297"/>
<feBlend mode="normal" in="SourceGraphic" in2="effect1_backgroundBlur_776_3297" result="shape"/>
</filter>
</defs>
</svg>
