<svg width="131" height="76" viewBox="0 0 131 76" fill="none" xmlns="http://www.w3.org/2000/svg">
<g filter="url(#filter0_b_776_3298)">
<path d="M37.0266 47.7965C37.2547 47.7965 37.4395 47.9833 37.4395 48.2142V51.0664C37.4395 51.2973 37.2547 51.4841 37.0266 51.4841H30.8347C30.6065 51.4841 30.4219 51.2973 30.4219 51.0664V25.4177C30.4219 25.1869 30.6065 25 30.8347 25H37.0212C37.2494 25 37.434 25.1869 37.434 25.4177V28.3249C37.434 28.5558 37.2494 28.7426 37.0212 28.7426H34.3869C34.1588 28.7426 33.9741 28.9295 33.9741 29.1603V47.3788C33.9741 47.6096 34.1588 47.7965 34.3869 47.7965H37.0266Z" fill="white"/>
<path d="M108.887 51.4841C109.115 51.4841 109.3 51.2973 109.3 51.0664V25.4177C109.3 25.1869 109.115 25 108.887 25H105.069C104.841 25 104.656 25.1869 104.656 25.4177V51.0664C104.656 51.2973 104.841 51.4841 105.069 51.4841H108.887Z" fill="white"/>
<path d="M36.7239 32.3157C36.6586 32.0959 36.789 31.9145 37.0117 31.92H38.9616C39.1897 31.92 39.4233 32.1014 39.4885 32.3212L41.7372 40.2627C41.7969 40.4825 41.9055 40.4825 41.9707 40.2627L44.3281 32.3322C44.3932 32.1124 44.6322 31.931 44.8603 31.931H46.5387C46.7668 31.931 47.0058 32.1124 47.071 32.3322L49.45 40.2901C49.5152 40.51 49.6238 40.51 49.6835 40.2901L51.9213 32.3267C51.9811 32.1069 52.2201 31.9255 52.4428 31.9255H54.2026C54.4307 31.9255 54.5611 32.1069 54.4959 32.3267L50.9491 44.2086C50.8839 44.4284 50.6449 44.6098 50.4168 44.6098L48.7222 44.6043C48.494 44.6043 48.2551 44.4229 48.1899 44.2031L45.8271 36.2672C45.762 36.0473 45.6533 36.0473 45.5882 36.2672L43.2091 44.1976C43.1439 44.4174 42.905 44.5988 42.6768 44.5988H40.8844C40.6563 44.5988 40.4173 44.4174 40.3521 44.1976L36.7239 32.3157Z" fill="white"/>
<path d="M64.5577 44.5976C64.7858 44.5976 64.9705 44.4107 64.9705 44.1799V32.32C64.9705 32.0892 64.7858 31.9023 64.5577 31.9023H62.9011C62.6729 31.9023 62.4883 32.0892 62.4883 32.32V44.1799C62.4883 44.4107 62.6729 44.5976 62.9011 44.5976H64.5577Z" fill="white"/>
<path d="M82.8241 37.3265C82.8241 37.3265 83.4596 35.8481 85.2684 35.6997C85.5834 35.6997 85.5617 35.9306 85.5617 35.9306V37.8211C85.5617 37.8211 85.5508 38.0684 85.2792 38.0684C84.5839 38.052 82.8241 38.2388 82.8241 40.558V40.9867L82.8187 44.1797C82.8187 44.4105 82.634 44.5974 82.4059 44.5974L80.8308 44.6029C80.6026 44.6029 80.418 44.416 80.418 44.1852V36.0954C80.418 35.8646 80.6026 35.6777 80.8308 35.6777H82.4114C82.6395 35.6777 82.8241 35.8646 82.8241 36.0954V37.3265Z" fill="white"/>
<path d="M89.5332 42.9488C88.2513 42.9488 87.6104 41.7013 87.6104 40.1625C87.6104 38.6237 88.2513 37.3761 89.5332 37.3761C90.815 37.3761 91.4559 38.6237 91.4559 40.1625C91.4559 41.7013 90.815 42.9488 89.5332 42.9488ZM93.6015 31.9023H91.9448C91.7167 31.9023 91.532 32.0892 91.532 32.32V36.5902C91.255 36.0132 90.7227 35.6395 89.6907 35.535C86.7087 35.2218 85.3672 37.6674 85.3672 40.168C85.3672 42.6741 86.7034 45.0647 89.6907 44.8009C90.7227 44.7075 91.255 44.3283 91.532 43.7073V44.1854C91.532 44.4162 91.7167 44.6031 91.9448 44.6031H93.6015C93.8295 44.6031 94.0143 44.4162 94.0143 44.1854V32.32C94.0143 32.0892 93.8295 31.9023 93.6015 31.9023Z" fill="white"/>
<path d="M57.4437 37.3885C55.9772 37.3885 55.3145 38.636 55.3145 40.1748C55.3145 41.7136 55.9772 42.9612 57.4437 42.9612C58.845 42.9612 59.5729 41.7136 59.5729 40.1748C59.5729 38.636 58.845 37.3885 57.4437 37.3885ZM53.1094 40.1583C53.1094 37.6028 54.7116 35.5254 57.4383 35.5254C60.1595 35.5254 61.7618 37.5973 61.7618 40.1583C61.7618 42.7138 60.1541 44.7913 57.4383 44.7913C54.7171 44.7913 53.1094 42.7194 53.1094 40.1583Z" fill="white"/>
<path d="M75.4954 43.0306C74.0288 43.0306 73.3662 41.783 73.3662 40.2442C73.3662 38.7053 74.0288 37.4579 75.4954 37.4579C76.8967 37.4579 77.6246 38.7053 77.6246 40.2442C77.6246 41.783 76.8967 43.0306 75.4954 43.0306ZM75.4899 35.6003C75.1803 35.6003 74.8816 35.6332 74.5991 35.6827H69.4501C69.3088 33.6878 70.3408 33.8801 70.3408 33.8801C70.3408 33.8801 70.6776 33.8746 70.759 33.8746H70.8242C71.0523 33.8746 71.2371 33.7152 71.2371 33.4844V32.3248C71.2371 32.094 71.0523 31.9071 70.8242 31.9071L70.4494 31.8906H69.4338C66.5821 31.8906 67.0004 35.6882 67.0004 35.6882V35.6992L66.5931 35.7102H66.1042C65.8761 35.7102 65.6914 35.8971 65.6914 36.1278V37.2875C65.6914 37.5183 65.8761 37.7052 66.1042 37.7052H66.6365L67.0384 37.7162L67.0493 38.1228V44.1792C67.0493 44.41 67.234 44.5968 67.4621 44.5968H69.0481C69.2762 44.5968 69.4609 44.41 69.4609 44.1792L69.4555 38.0954L69.4446 37.6777H69.8628L71.7856 37.6887C71.3783 38.4196 71.161 39.288 71.161 40.2277C71.161 42.7832 72.7633 44.8607 75.4899 44.8607C78.2112 44.8607 79.8134 42.7887 79.8134 40.2277C79.8134 37.6722 78.2112 35.6003 75.4899 35.6003Z" fill="white"/>
<path d="M94.2136 47.7965C93.9854 47.7965 93.8008 47.9833 93.8008 48.2142V51.0664C93.8008 51.2973 93.9854 51.4841 94.2136 51.4841H100.4C100.628 51.4841 100.813 51.2973 100.813 51.0664V25.4177C100.813 25.1869 100.628 25 100.4 25H94.2136C93.9854 25 93.8008 25.1869 93.8008 25.4177V28.3249C93.8008 28.5558 93.9854 28.7426 94.2136 28.7426H96.8479C97.076 28.7426 97.2607 28.9295 97.2607 29.1603V47.3788C97.2607 47.6096 97.076 47.7965 96.8479 47.7965H94.2136Z" fill="white"/>
<path d="M49.5915 28.6987C49.8197 28.6987 50.0043 28.5118 50.0043 28.281V25.4177C50.0043 25.1869 49.8197 25 49.5915 25H43.405C43.1768 25 42.9922 25.1869 42.9922 25.4177V28.281C42.9922 28.5118 43.1768 28.6987 43.405 28.6987H49.5915Z" fill="white"/>
<path d="M62.2908 28.6987C62.5188 28.6987 62.7035 28.5118 62.7035 28.281V25.4177C62.7035 25.1869 62.5188 25 62.2908 25H56.1042C55.8761 25 55.6914 25.1869 55.6914 25.4177V28.281C55.6914 28.5118 55.8761 28.6987 56.1042 28.6987H62.2908Z" fill="white"/>
<path d="M75.0853 28.6987C75.3133 28.6987 75.4981 28.5118 75.4981 28.281V25.4177C75.4981 25.1869 75.3133 25 75.0853 25H68.8933C68.6651 25 68.4805 25.1869 68.4805 25.4177V28.281C68.4805 28.5118 68.6651 28.6987 68.8933 28.6987H75.0853Z" fill="white"/>
<path d="M87.8259 28.6987C88.0541 28.6987 88.2387 28.5118 88.2387 28.281V25.4177C88.2387 25.1869 88.0541 25 87.8259 25H81.6394C81.4112 25 81.2266 25.1869 81.2266 25.4177V28.281C81.2266 28.5118 81.4112 28.6987 81.6394 28.6987H87.8259Z" fill="white"/>
<path d="M49.5915 51.4994C49.8197 51.4994 50.0043 51.3126 50.0043 51.0817V48.2184C50.0043 47.9876 49.8197 47.8008 49.5915 47.8008H43.405C43.1768 47.8008 42.9922 47.9876 42.9922 48.2184V51.0817C42.9922 51.3126 43.1768 51.4994 43.405 51.4994H49.5915Z" fill="white"/>
<path d="M62.2908 51.4994C62.5188 51.4994 62.7035 51.3126 62.7035 51.0817V48.2184C62.7035 47.9876 62.5188 47.8008 62.2908 47.8008H56.1042C55.8761 47.8008 55.6914 47.9876 55.6914 48.2184V51.0817C55.6914 51.3126 55.8761 51.4994 56.1042 51.4994H62.2908Z" fill="white"/>
<path d="M75.0853 51.4994C75.3133 51.4994 75.4981 51.3126 75.4981 51.0817V48.2184C75.4981 47.9876 75.3133 47.8008 75.0853 47.8008H68.8933C68.6651 47.8008 68.4805 47.9876 68.4805 48.2184V51.0817C68.4805 51.3126 68.6651 51.4994 68.8933 51.4994H75.0853Z" fill="white"/>
<path d="M87.8259 51.4994C88.0541 51.4994 88.2387 51.3126 88.2387 51.0817V48.2184C88.2387 47.9876 88.0541 47.8008 87.8259 47.8008H81.6394C81.4112 47.8008 81.2266 47.9876 81.2266 48.2184V51.0817C81.2266 51.3126 81.4112 51.4994 81.6394 51.4994H87.8259Z" fill="white"/>
<path d="M22.4128 51.4841C22.1847 51.4841 22 51.2973 22 51.0664V25.4177C22 25.1869 22.1847 25 22.4128 25H26.2312C26.4539 25 26.644 25.1869 26.644 25.4177V51.0664C26.644 51.2973 26.4593 51.4841 26.2312 51.4841H22.4128Z" fill="white"/>
</g>
<defs>
<filter id="filter0_b_776_3298" x="-4" y="-4" width="139" height="84" filterUnits="userSpaceOnUse" color-interpolation-filters="sRGB">
<feFlood flood-opacity="0" result="BackgroundImageFix"/>
<feGaussianBlur in="BackgroundImageFix" stdDeviation="2"/>
<feComposite in2="SourceAlpha" operator="in" result="effect1_backgroundBlur_776_3298"/>
<feBlend mode="normal" in="SourceGraphic" in2="effect1_backgroundBlur_776_3298" result="shape"/>
</filter>
</defs>
</svg>
