<svg width="116" height="76" viewBox="0 0 116 76" fill="none" xmlns="http://www.w3.org/2000/svg">
<g filter="url(#filter0_b_776_3299)">
<path d="M26.3174 45.2861C25.9049 44.8651 25.8138 43.4062 25.8138 40.0514L25.8047 35.9888C25.8047 32.4246 25.8047 31.7896 25.8502 31.059C25.8958 30.2601 26.0781 29.8732 26.7413 29.7594C26.9908 29.719 27.2428 29.6962 27.4956 29.6911C27.5867 29.6911 27.6779 29.6456 27.6779 29.5546C27.6779 29.4157 27.5639 29.3702 27.3132 29.3702C26.8273 29.3702 25.8482 29.4045 25.2782 29.4245L25.2744 29.4246L25.2712 29.4247C25.0405 29.4328 24.8782 29.4385 24.8453 29.4385C24.817 29.4385 24.7068 29.4343 24.5414 29.4279L24.5387 29.4279C24.0374 29.4086 23.0341 29.3702 22.2634 29.3702C22.0127 29.3702 21.8965 29.4157 21.8965 29.5546C21.8965 29.6456 21.9899 29.6911 22.0811 29.6911C22.3416 29.6904 22.6017 29.7132 22.8581 29.7594C23.6124 29.921 23.7947 30.2829 23.8403 31.059C23.8859 31.7896 23.8859 32.4291 23.8859 35.9888V40.0127C23.8859 42.2022 23.8859 44.0047 23.772 44.9629C23.6808 45.6252 23.5646 46.1282 23.1088 46.2193C22.8844 46.2718 22.6555 46.3023 22.4252 46.3103C22.2884 46.3103 22.2429 46.3786 22.2429 46.4469C22.2429 46.5834 22.3568 46.6289 22.6075 46.6289C23.0485 46.6289 23.4462 46.6104 23.8263 46.5926L23.8285 46.5925C24.1762 46.5763 24.5093 46.5607 24.8476 46.5607C25.9883 46.5607 27.0571 46.5969 28.0939 46.632C29.0702 46.6651 30.0181 46.6972 30.9708 46.6972C32.1831 46.6972 32.2515 46.6062 32.411 46.0827C32.5846 45.3342 32.6989 44.5732 32.7528 43.8067C32.7528 43.5564 32.7528 43.4653 32.6161 43.4653C32.4793 43.4653 32.4338 43.5792 32.411 43.7612C32.3235 44.257 32.1197 44.7249 31.8162 45.1268C31.267 45.7869 30.262 45.8096 29.052 45.8096C27.2768 45.8096 26.682 45.6503 26.3174 45.2861Z" fill="white"/>
<path d="M37.9462 39.1842C37.9462 42.4707 38.6778 43.8841 39.6599 44.8195C40.7811 45.871 41.8089 46.0759 43.1123 46.0759C43.7921 46.0721 44.4633 45.9243 45.0817 45.6422C45.7 45.3601 46.2513 44.9502 46.6992 44.4395C47.7497 43.1376 48.0232 41.1985 48.0232 38.8474V35.9888C48.0232 32.4291 48.0232 31.7896 47.9776 31.059C47.9321 30.2829 47.7497 29.921 46.9955 29.7594C46.739 29.7131 46.4789 29.6903 46.2184 29.6911C46.1272 29.6911 46.0361 29.6456 46.0361 29.5546C46.0361 29.4157 46.15 29.3702 46.4007 29.3702C47.1505 29.3702 48.0161 29.4064 48.4871 29.4261C48.5661 29.4294 48.6344 29.4323 48.6887 29.4344C48.7553 29.437 48.8016 29.4385 48.8231 29.4385C48.8681 29.4385 49.0062 29.4318 49.1958 29.4226L49.1985 29.4224L49.2019 29.4223C49.6174 29.4021 50.2752 29.3702 50.7418 29.3702C50.9948 29.3702 51.1087 29.4157 51.1087 29.5546C51.1087 29.6456 51.0176 29.6911 50.9264 29.6911C50.7342 29.6976 50.5428 29.7205 50.3544 29.7594C49.7369 29.896 49.5546 30.2601 49.509 31.059C49.4634 31.7895 49.4634 32.4245 49.4634 35.9879V38.4309C49.4634 40.8958 49.19 43.6338 47.3601 45.2588C45.717 46.7154 44.0034 46.943 42.6611 46.943C41.8841 46.943 39.5756 46.852 37.9531 45.3225C36.8342 44.2505 35.9659 42.6528 35.9659 39.3208V35.9888C35.9659 32.4291 35.9659 31.7896 35.9204 31.059C35.8748 30.2829 35.6925 29.921 34.9382 29.7594C34.6818 29.7131 34.4217 29.6903 34.1611 29.6911C34.07 29.6911 33.9788 29.6456 33.9788 29.5546C33.9788 29.4157 34.0928 29.3702 34.3434 29.3702C35.0521 29.3702 35.9352 29.4027 36.4825 29.4228L36.4856 29.423L36.4876 29.423C36.7314 29.432 36.9077 29.4385 36.9709 29.4385C37.0434 29.4385 37.2617 29.43 37.544 29.419C38.0602 29.3988 38.7903 29.3702 39.2338 29.3702C39.4845 29.3702 39.5984 29.4157 39.5984 29.5546C39.5984 29.6456 39.5072 29.6911 39.4161 29.6911C39.2246 29.6978 39.034 29.7206 38.8464 29.7594C38.2288 29.8505 38.0465 30.2601 38.0009 31.059C37.9531 31.7896 37.9531 32.4246 37.9531 35.9888L37.9462 39.1842Z" fill="white"/>
<path d="M53.9641 45.4591C53.9641 46.0759 53.9892 46.1669 54.3082 46.3262C55.2704 46.7651 56.3205 46.9777 57.3778 46.9476C58.6129 46.9476 59.8458 46.6722 60.828 45.9894C61.4258 45.5532 61.913 44.9833 62.2505 44.3252C62.5881 43.6672 62.7666 42.9393 62.7718 42.1999C62.7718 40.3746 62.1314 38.9589 59.4356 36.8377L58.7952 36.3347C56.603 34.6232 56.0083 33.8016 56.0083 32.502C56.0083 30.836 57.2411 29.855 58.818 29.855C60.9214 29.855 61.5367 30.8132 61.6734 31.0635C61.8291 31.4259 61.9297 31.8095 61.9719 32.2015C61.9947 32.3836 62.0403 32.4974 62.1542 32.4974C62.2682 32.4974 62.3138 32.3381 62.3138 31.9717C62.3138 30.7549 62.3699 30.0305 62.3941 29.7191C62.4007 29.6339 62.4049 29.5795 62.4049 29.5546C62.4049 29.4385 62.3593 29.393 62.177 29.393C61.9071 29.3839 61.6389 29.3457 61.3772 29.2792C60.6809 29.1183 59.9678 29.0419 59.2533 29.0516C56.3455 29.0516 54.5225 30.7176 54.5225 33.1597C54.5225 34.7119 55.0625 36.1253 57.4849 38.11L58.5127 38.9544C60.477 40.5749 61.1402 41.4875 61.1402 43.0625C61.1402 44.5237 60.0668 46.0986 57.8723 46.0986C56.341 46.0986 54.8347 45.4591 54.4906 43.7703C54.4381 43.492 54.4152 43.209 54.4222 42.9259C54.4222 42.7439 54.3766 42.6756 54.2627 42.6756C54.1487 42.6756 54.1031 42.7894 54.0804 43.0397C54.0757 43.1162 54.068 43.2157 54.0587 43.3353C54.023 43.7959 53.9641 44.5558 53.9641 45.4591Z" fill="white"/>
<path d="M68.4119 35.9888C68.4119 32.4291 68.4119 31.7896 68.3663 31.059C68.3207 30.2829 68.0906 29.896 67.5892 29.7822C67.3574 29.7239 67.1195 29.6934 66.8805 29.6911C66.7893 29.6911 66.6982 29.6456 66.6982 29.5546C66.6982 29.4157 66.8121 29.3702 67.0628 29.3702C67.606 29.3702 68.5048 29.4056 69.008 29.4255C69.2036 29.4332 69.3393 29.4385 69.3712 29.4385C69.4043 29.4385 69.5488 29.4328 69.754 29.4246C70.2567 29.4047 71.1238 29.3702 71.6091 29.3702C71.862 29.3702 71.9759 29.4157 71.9759 29.5546C71.9759 29.6456 71.8848 29.6911 71.7936 29.6911C71.6014 29.6976 71.41 29.7205 71.2216 29.7594C70.6041 29.8732 70.4218 30.2601 70.3762 31.059C70.3306 31.7895 70.3306 32.4244 70.3306 35.9871V40.0059C70.3306 42.1954 70.3306 43.9979 70.4446 44.9561C70.5129 45.6184 70.6497 46.1214 71.3356 46.2124C71.6546 46.258 72.1355 46.3035 72.2722 46.3035C72.4773 46.3035 72.5456 46.3718 72.5456 46.44C72.5456 46.5538 72.4545 46.6221 72.2038 46.6221C71.2389 46.6221 70.1514 46.5818 69.648 46.5631C69.4963 46.5575 69.3976 46.5538 69.3712 46.5538C69.3382 46.5538 69.1941 46.5596 68.9892 46.5677C68.4864 46.5876 67.6183 46.6221 67.1312 46.6221C66.8805 46.6221 66.7665 46.5766 66.7665 46.44C66.7665 46.3718 66.8121 46.3035 67.0172 46.3035C67.2172 46.2994 67.4163 46.2765 67.612 46.2352C68.0678 46.1442 68.2045 45.6184 68.2956 44.9561C68.4119 43.9979 68.4119 42.1954 68.4119 40.0059V35.9888Z" fill="white"/>
<path fill-rule="evenodd" clip-rule="evenodd" d="M84.5164 29.0516C78.2086 29.0516 75.5127 34.2772 75.5127 37.9734C75.5127 42.0815 78.1174 46.943 84.3796 46.9408C89.8853 46.9408 93.4949 42.7211 93.4949 37.6093C93.4949 32.2926 89.6551 29.0516 84.5164 29.0516ZM84.3546 29.8277C87.9642 29.8277 91.3004 32.7705 91.3004 38.2488C91.3004 44.8947 87.0504 46.0759 84.9949 46.0782C80.8748 46.0782 77.6844 42.6551 77.6844 37.3384C77.6844 32.3313 80.5398 29.8277 84.3546 29.8277Z" fill="white"/>
</g>
<defs>
<filter id="filter0_b_776_3299" x="-4" y="-4" width="124" height="84" filterUnits="userSpaceOnUse" color-interpolation-filters="sRGB">
<feFlood flood-opacity="0" result="BackgroundImageFix"/>
<feGaussianBlur in="BackgroundImageFix" stdDeviation="2"/>
<feComposite in2="SourceAlpha" operator="in" result="effect1_backgroundBlur_776_3299"/>
<feBlend mode="normal" in="SourceGraphic" in2="effect1_backgroundBlur_776_3299" result="shape"/>
</filter>
</defs>
</svg>
