<svg width="179" height="76" fill="none" xmlns="http://www.w3.org/2000/svg">
<g filter="url(#filter0_b_776_3300)">
<path d="M95.102 39.6733C95.102 40.616 94.2863 41.3821 93.2848 41.3821C92.2832 41.3821 91.4684 40.616 91.4684 39.6733V33.2646H87.9727V39.6733C87.9727 42.5434 90.3558 44.877 93.2848 44.877C94.5978 44.8808 95.8664 44.4019 96.8495 43.5315C97.8322 44.4019 99.1005 44.8808 100.413 44.877C103.342 44.877 105.725 42.5434 105.725 39.6733V33.2646H102.231V39.6733C102.231 40.616 101.416 41.3821 100.413 41.3821C99.4109 41.3821 98.5969 40.616 98.5969 39.6733V33.2646H95.102V39.6733V39.6733Z" fill="white"/>
<path d="M25.432 33.2617H30.9704C33.853 33.2617 36.1975 35.877 36.1975 39.0918C36.1975 42.3067 33.8514 44.922 30.9704 44.922H21.832V41.4271H30.9704C31.9097 41.4271 32.7027 40.3574 32.7027 39.0918C32.7027 37.8262 31.9097 36.7566 30.9704 36.7566H21.832V25.0518H25.432V33.2617V33.2617Z" fill="white"/>
<path d="M42.9811 36.7595C42.0426 36.7595 41.2496 37.8292 41.2496 39.0948C41.2496 40.3604 42.0426 41.43 42.9811 41.43H48.6447C49.5832 41.43 50.3762 40.3604 50.3762 39.0948C50.3762 37.8292 49.5832 36.7595 48.6447 36.7595H42.9811ZM48.6447 44.9249H42.9811C40.0993 44.9249 37.7539 42.3096 37.7539 39.0948C37.7539 35.8799 40.0993 33.2646 42.9811 33.2646H48.6447C51.5266 33.2646 53.8719 35.8799 53.8719 39.0948C53.8719 42.3096 51.5266 44.9249 48.6447 44.9249Z" fill="white"/>
<path d="M60.6588 36.7595C59.7195 36.7595 58.9265 37.8292 58.9265 39.0948C58.9265 40.3604 59.7195 41.43 60.6588 41.43H66.3225C67.2609 41.43 68.0539 40.3604 68.0539 39.0948C68.0539 37.8292 67.2609 36.7595 66.3225 36.7595H60.6588ZM66.3199 44.9249H60.6588C57.7761 44.9249 55.4316 42.3096 55.4316 39.0948C55.4316 35.8799 57.7761 33.2646 60.6588 33.2646H66.3225C69.2043 33.2646 71.5488 35.8799 71.5488 39.0948C71.5488 42.3096 69.2018 44.9249 66.3199 44.9249Z" fill="white"/>
<path d="M112.51 36.7595C111.572 36.7595 110.779 37.8292 110.779 39.0948C110.779 40.3604 111.572 41.43 112.51 41.43H118.174C119.112 41.43 119.906 40.3604 119.906 39.0948C119.906 37.8292 119.112 36.7595 118.174 36.7595H112.51ZM118.174 44.9249H112.51C109.629 44.9249 107.283 42.3096 107.283 39.0948C107.283 35.8799 109.629 33.2646 112.51 33.2646H118.174C121.056 33.2646 123.401 35.8799 123.401 39.0948C123.401 42.3096 121.058 44.9249 118.174 44.9249Z" fill="white"/>
<path d="M130.184 36.7595C129.246 36.7595 128.452 37.8292 128.452 39.0948C128.452 40.3604 129.246 41.43 130.184 41.43H135.848C136.786 41.43 137.579 40.3604 137.579 39.0948C137.579 37.8292 136.786 36.7595 135.848 36.7595H130.184ZM135.848 44.9249H130.184C127.302 44.9249 124.957 42.3096 124.957 39.0948C124.957 35.8799 127.302 33.2646 130.184 33.2646H135.848C138.73 33.2646 141.075 35.8799 141.075 39.0948C141.075 42.3096 138.73 44.9249 135.848 44.9249Z" fill="white"/>
<path d="M153.4 25H157V36.704H147.862C146.923 36.704 146.13 37.7736 146.13 39.0392C146.13 40.3048 146.923 41.3745 147.862 41.3745H156.999V44.8694H147.862C144.979 44.8694 142.635 42.2541 142.635 39.0392C142.635 35.8244 144.979 33.2091 147.862 33.2091H153.399L153.4 25Z" fill="white"/>
<path d="M81.8127 36.4997H86.4243V33.2646H73.1016V36.4997H77.9621V44.9249H81.8127V36.4997Z" fill="white"/>
</g>
<defs>
<filter id="filter0_b_776_3300" x="-4" y="-4" width="187" height="84" filterUnits="userSpaceOnUse" color-interpolation-filters="sRGB">
<feFlood flood-opacity="0" result="BackgroundImageFix"/>
<feGaussianBlur in="BackgroundImageFix" stdDeviation="2"/>
<feComposite in2="SourceAlpha" operator="in" result="effect1_backgroundBlur_776_3300"/>
<feBlend mode="normal" in="SourceGraphic" in2="effect1_backgroundBlur_776_3300" result="shape"/>
</filter>
</defs>
</svg>
