<svg width="114" height="76" viewBox="0 0 114 76" fill="none" xmlns="http://www.w3.org/2000/svg">
<g filter="url(#filter0_b_776_3301)">
<path fill-rule="evenodd" clip-rule="evenodd" d="M22.0137 36.7739V44.8515H26.9359H31.8582V43.379V41.9065H28.5346H25.211V35.3014V28.6963H23.6124H22.0137V36.7739ZM35.0556 31.866C34.56 31.9014 33.3712 32.059 33.1835 32.1141C33.0503 32.1533 33.0362 32.3023 33.0362 33.677V35.1967L33.3903 35.1401C34.3938 34.9796 35.5025 34.9267 36.2464 35.0039C37.563 35.1404 38.1742 35.4307 38.9974 36.3108C39.4654 36.8111 39.6438 37.1242 40.7819 39.4422C41.4774 40.8588 42.2479 42.324 42.4942 42.6984C43.5678 44.3299 44.5947 44.9206 46.1993 44.8294C46.6186 44.8056 47.0279 44.7589 47.1089 44.7256C47.2411 44.6713 47.2561 44.5167 47.2561 43.2087V41.7522L46.8222 41.6591C46.2682 41.5403 45.6287 41.1925 45.322 40.8432C44.9317 40.3986 44.5059 39.6115 43.6666 37.7836C43.2311 36.8349 42.7238 35.8046 42.5395 35.4942C41.7223 34.1182 40.7653 33.1928 39.5572 32.6103C38.6721 32.1836 38.0029 32.0063 36.8549 31.8948C36.0383 31.8153 35.8144 31.8117 35.0556 31.866ZM52.5285 31.8969C50.245 32.0975 48.73 32.8869 48.1292 34.1889C47.9041 34.6769 47.8877 34.7838 47.8874 35.7657C47.8872 36.7868 47.8956 36.8361 48.1642 37.3819C48.5837 38.2345 49.2262 38.7204 50.4535 39.1133C50.7543 39.2095 51.8856 39.5199 52.9675 39.803C55.2276 40.3945 55.527 40.5007 55.756 40.7917C56.1157 41.249 55.897 41.7221 55.233 41.9231C54.5524 42.1291 50.572 42.0359 48.6234 41.7683L48.2658 41.7191V43.192C48.2658 44.889 48.1264 44.6755 49.3596 44.8668C49.8387 44.9411 50.9499 44.9777 52.7253 44.9777C55.1899 44.9777 55.4273 44.9645 56.1107 44.7903C57.532 44.4278 58.4103 43.8158 58.8806 42.8606C59.1099 42.3949 59.1514 42.2071 59.1865 41.4791C59.2373 40.4249 59.0687 39.723 58.622 39.1286C57.8845 38.1471 57.1578 37.804 54.0885 36.9887C52.7855 36.6426 51.6055 36.3005 51.4662 36.2285C51.1903 36.0858 51.0777 35.8021 51.1627 35.4635C51.201 35.311 51.3342 35.1929 51.6135 35.0639C51.9902 34.8899 52.1194 34.8811 54.1978 34.8884C55.7748 34.8941 56.6421 34.9351 57.3046 35.0357C57.8101 35.1124 58.2749 35.1752 58.3374 35.1752C58.4292 35.1752 58.4465 34.8976 58.4279 33.726L58.4049 32.2768L58.0262 32.211C56.357 31.9208 53.8714 31.7788 52.5285 31.8969ZM65.0941 31.9007C62.2686 32.14 60.7772 33.0933 60.3926 34.9058C60.1272 36.1567 60.4206 37.3795 61.1658 38.1284C61.7373 38.7028 62.6154 39.0577 65.0072 39.6812C68.1229 40.4933 68.3756 40.609 68.3756 41.2236C68.3756 41.5939 68.2354 41.748 67.7446 41.9169C67.1205 42.1317 63.2749 42.0452 61.1184 41.7679L60.7187 41.7165V43.1889V44.6613L61.2026 44.7528C62.3728 44.974 63.4772 45.0345 65.697 44.9992C67.7143 44.9671 68.0781 44.9405 68.6568 44.7823C70.507 44.2767 71.4294 43.3666 71.6695 41.8099C71.8479 40.6536 71.4902 39.4011 70.7886 38.7252C70.4407 38.39 69.6403 37.9122 69.0679 37.6981C68.8183 37.6047 67.6044 37.2616 66.3703 36.9356C65.1362 36.6095 64.0396 36.2864 63.9334 36.2174C63.5264 35.9529 63.5293 35.4064 63.9393 35.1377C64.2941 34.9053 65.4424 34.8115 67.2397 34.8683C68.1653 34.8975 69.1876 34.9588 69.5115 35.0044C69.8355 35.05 70.2993 35.1122 70.5423 35.1428L70.984 35.1983V33.762C70.984 32.4676 70.9694 32.3212 70.8368 32.2801C70.4884 32.1723 68.9094 31.9772 67.7436 31.8979C66.3514 31.8032 66.2446 31.8033 65.0941 31.9007ZM84.672 31.9014C83.7849 31.9951 82.8529 32.2589 82.0907 32.6321C81.1465 33.0944 80.1231 34.1337 79.6695 35.091C79.2046 36.072 79.0577 36.714 79.0051 37.9939C78.9681 38.8946 78.9906 39.2343 79.1323 39.9178C79.7006 42.6576 81.6184 44.3355 84.8153 44.8901C86.1592 45.1232 89.1071 45.057 90.5679 44.7608L91.0097 44.6712V43.2047C91.0097 42.3981 91.0002 41.7382 90.9886 41.7382C90.977 41.7382 90.7025 41.7938 90.3786 41.8617C89.3354 42.0805 87.5237 42.1806 86.4373 42.0796C84.3396 41.8844 83.0874 41.1858 82.3939 39.824L82.2547 39.5505H87.0911H91.9276L91.984 39.2496C92.0151 39.0841 92.0231 38.4309 92.0016 37.7981C91.9677 36.7929 91.9304 36.5546 91.7063 35.9105C91.369 34.9414 91.0033 34.3399 90.3365 33.6584C89.3788 32.6795 88.1081 32.0831 86.5922 31.901C85.7565 31.8005 85.6266 31.8006 84.672 31.9014ZM73.7607 38.5006V44.8552L75.3383 44.8323L76.916 44.8094L76.9375 38.4777L76.9591 32.1461H75.3599H73.7607V38.5006ZM84.2784 34.997C83.6369 35.204 83.361 35.3611 82.9966 35.7266C82.701 36.0232 82.4292 36.4915 82.3031 36.9211L82.2476 37.1104H85.5729H88.8981L88.7783 36.7126C88.531 35.8907 87.8389 35.2304 86.9472 34.9656C86.3423 34.7859 84.879 34.8031 84.2784 34.997ZM35.3501 38.3177C33.7472 38.8477 32.8581 40.2042 32.9765 41.9389C33.0612 43.179 33.7731 44.2293 34.8873 44.7581C35.3095 44.9584 35.4425 44.9777 36.4019 44.9777C37.3612 44.9777 37.4943 44.9584 37.9164 44.7581C39.284 44.109 40.0322 42.6275 39.7883 41.0515C39.6069 39.8799 38.9628 38.9993 37.9333 38.5157C37.436 38.282 37.2703 38.2481 36.5281 38.2286C35.9977 38.2146 35.5622 38.2475 35.3501 38.3177Z" fill="white"/>
</g>
<defs>
<filter id="filter0_b_776_3301" x="-4" y="-4" width="122" height="84" filterUnits="userSpaceOnUse" color-interpolation-filters="sRGB">
<feFlood flood-opacity="0" result="BackgroundImageFix"/>
<feGaussianBlur in="BackgroundImageFix" stdDeviation="2"/>
<feComposite in2="SourceAlpha" operator="in" result="effect1_backgroundBlur_776_3301"/>
<feBlend mode="normal" in="SourceGraphic" in2="effect1_backgroundBlur_776_3301" result="shape"/>
</filter>
</defs>
</svg>
