<svg width="58" height="18" viewBox="0 0 58 18" fill="none" xmlns="http://www.w3.org/2000/svg">
<path d="M35.6602 2.92461H40.3645V5.44853C40.7625 4.48023 41.2958 3.78973 41.9644 3.37701C42.6331 2.94842 43.437 2.74206 44.3763 2.75793V5.70024V7.13909C44.1594 7.12591 43.9511 7.11973 43.7514 7.12056C42.7489 7.12475 41.9622 7.30553 41.3913 7.66293C40.7068 8.07564 40.3645 8.73441 40.3645 9.63921V15.3776H35.6602V2.92461Z" fill="#615E71"/>
<path fill-rule="evenodd" clip-rule="evenodd" d="M49.4981 15.6415L56.9801 11.5577L57.0698 11.51C57.3173 10.8119 57.4411 10.0388 57.4411 9.19052V9.00004C57.4411 7.99999 57.258 7.10312 56.8918 6.30943C56.5416 5.51574 56.056 4.84905 55.4352 4.30934C54.8143 3.75376 54.082 3.3331 53.2382 3.04737C52.3944 2.74577 51.487 2.59497 50.5159 2.59497C49.5289 2.59497 48.6055 2.74577 47.7458 3.04737C46.9021 3.34897 46.1698 3.7855 45.5489 4.35696C44.928 4.91254 44.4345 5.59511 44.0683 6.40468C43.7181 7.19836 43.543 8.10317 43.543 9.11909V9.30957C43.543 10.3414 43.7181 11.2541 44.0683 12.0478C44.4345 12.8256 44.928 13.4923 45.5489 14.0479C46.1857 14.5876 46.926 15.0003 47.7697 15.286C48.3189 15.4617 48.895 15.5802 49.4981 15.6415ZM50.5159 12.2383C51.9487 12.2383 52.6651 11.2303 52.6651 9.21433V9.04766C52.6651 8.06348 52.49 7.31742 52.1397 6.80946C51.7895 6.3015 51.2482 6.04751 50.5159 6.04751C49.7995 6.04751 49.2503 6.29356 48.8682 6.78565C48.4861 7.26186 48.2951 7.99205 48.2951 8.97623V9.16671C48.2951 11.2144 49.0353 12.2383 50.5159 12.2383Z" fill="#615E71"/>
<path d="M18.5481 2.92637H13.8438V15.3793H18.5481V8.49806C18.5481 7.75199 18.7073 7.20435 19.0257 6.85512C19.36 6.5059 19.8217 6.33129 20.4107 6.33129C20.9679 6.33129 21.3659 6.49003 21.6047 6.8075C21.8594 7.12498 21.9868 7.60119 21.9868 8.23614V15.3509L26.6911 12.7831V7.18847C26.6911 6.41066 26.5876 5.73602 26.3807 5.16457C26.1896 4.59311 25.919 4.1169 25.5688 3.73593C25.2185 3.35496 24.7967 3.06923 24.3031 2.87874C23.8096 2.68826 23.2683 2.59302 22.6793 2.59302C21.6286 2.59302 20.761 2.81525 20.0764 3.25972C19.4078 3.70418 18.8983 4.25976 18.5481 4.92646V2.92637Z" fill="#615E71"/>
<path fill-rule="evenodd" clip-rule="evenodd" d="M5.77125 6.14869C5.98948 5.93732 6.33137 5.83164 6.79692 5.83164C7.11532 5.83164 7.37004 5.87926 7.56108 5.9745C7.75212 6.05387 7.89539 6.18086 7.99091 6.35547C8.10235 6.51421 8.17399 6.7047 8.20583 6.92693C8.23767 7.14916 8.25359 7.38727 8.25359 7.64125V7.85555H7.179C5.01389 7.85555 3.35026 8.17302 2.1881 8.80797C1.04187 9.42705 0.46875 10.4668 0.46875 11.9272C0.46875 12.5939 0.580189 13.1653 0.803068 13.6415C1.04187 14.1177 1.35231 14.5067 1.73438 14.8083C2.13238 15.1099 2.5861 15.3321 3.09554 15.475C3.62089 15.6178 4.16217 15.6892 4.71937 15.6892C5.22881 15.6892 5.67456 15.6337 6.05664 15.5226C6.45464 15.4273 6.80488 15.3003 7.10736 15.1416C7.40984 14.9829 7.66455 14.8003 7.87151 14.594C8.07847 14.3876 8.24563 14.1733 8.37299 13.9511V15.3797H12.9102V7.33171C12.9102 5.69671 12.3928 4.49824 11.358 3.7363C10.3232 2.95849 8.89835 2.56958 7.08348 2.56958C6.19196 2.56958 5.37209 2.66482 4.62385 2.85531C4.40092 2.9133 4.18685 2.98084 3.98162 3.05795L5.77125 6.14869ZM7.72823 12.1415C7.39392 12.4113 6.95612 12.5462 6.41484 12.5462C5.985 12.5462 5.65865 12.4589 5.43577 12.2843C5.21289 12.1097 5.10145 11.8716 5.10145 11.57C5.10145 11.1255 5.26065 10.816 5.57905 10.6414C5.89744 10.4668 6.45464 10.3795 7.25064 10.3795H8.25359V11.0224C8.25359 11.4827 8.07847 11.8557 7.72823 12.1415Z" fill="#615E71"/>
<path d="M32.2377 15.6881C30.7572 15.6881 29.6189 15.3388 28.8229 14.6404C28.0269 13.9419 27.6289 12.807 27.6289 11.2355V0.401611H32.3332V2.94935H34.7212V7.21525H32.3332V10.7831C32.3332 11.2116 32.4367 11.5212 32.6437 11.7117C32.8666 11.9022 33.169 11.9974 33.5511 11.9974C33.965 11.9974 34.3551 11.9339 34.7212 11.8069V15.3309C34.4347 15.4103 34.0765 15.4896 33.6466 15.569C33.2168 15.6484 32.7472 15.6881 32.2377 15.6881Z" fill="#615E71"/>
</svg>
