<svg width="208" height="34" viewBox="0 0 208 34" fill="none" xmlns="http://www.w3.org/2000/svg">
<path fill-rule="evenodd" clip-rule="evenodd" d="M14.9875 2C20.047 2 24.5207 4.50779 27.2346 8.34722H23.9748V10.1944H28.3501C28.6835 10.8486 28.9701 11.5306 29.2058 12.2357H19.9488V14.083H29.6933C29.8091 14.6727 29.8904 15.2748 29.935 15.8871H15.9228V17.7343H29.9564C29.9219 18.4357 29.8383 19.124 29.7106 19.7966H11.8053V21.6438H29.2369C29.0144 22.3254 28.7435 22.9852 28.4299 23.6203H5.83539V25.4675H27.3459C24.6444 29.3976 20.117 31.9751 14.9875 31.9751C6.71031 31.9751 0 25.2644 0 16.9876C0 8.71069 6.71031 2 14.9875 2Z" fill="#0A0620"/>
<path fill-rule="evenodd" clip-rule="evenodd" d="M42.9226 13.9571H40.3802V19.7263H37.877V6.03674H40.3802V11.7668H43.0008L46.9317 6.03674H49.6305L44.9564 12.6664L49.8065 19.7263H46.9317L42.9226 13.9571ZM61.3059 9.2831V19.7263H58.9786V18.3769C58.5745 18.8724 58.0757 19.244 57.4825 19.4917C56.8892 19.7394 56.2341 19.8632 55.517 19.8632C54.5001 19.8632 53.5908 19.6417 52.7889 19.1983C51.9871 18.7551 51.3613 18.1292 50.9115 17.3209C50.4617 16.5126 50.2368 15.5738 50.2368 14.5047C50.2368 13.4356 50.4617 12.5001 50.9115 11.6984C51.3613 10.8965 51.9871 10.274 52.7889 9.83074C53.5908 9.38742 54.5001 9.16575 55.517 9.16575C56.195 9.16575 56.8176 9.2831 57.3848 9.51779C57.9519 9.75245 58.4441 10.098 58.8613 10.5543V9.2831H61.3059ZM55.7909 17.7707C56.6905 17.7707 57.4337 17.4708 58.0203 16.8711C58.607 16.2714 58.9004 15.4826 58.9004 14.5047C58.9004 13.5269 58.607 12.7381 58.0203 12.1383C57.4337 11.5386 56.6905 11.2388 55.7909 11.2388C54.8913 11.2388 54.1513 11.5386 53.5712 12.1383C52.991 12.7381 52.7009 13.5269 52.7009 14.5047C52.7009 15.4826 52.991 16.2714 53.5712 16.8711C54.1513 17.4708 54.8913 17.7707 55.7909 17.7707ZM69.7152 9.16575C70.7974 9.16575 71.7459 9.38742 72.5607 9.83074C73.3755 10.274 74.0079 10.8999 74.4577 11.7081C74.9075 12.5165 75.1324 13.4553 75.1324 14.5242C75.1324 15.5803 74.9173 16.5126 74.487 17.3209C74.0568 18.1292 73.4537 18.7551 72.678 19.1983C71.9023 19.6417 71.0059 19.8632 69.989 19.8632C68.5418 19.8632 67.4076 19.4005 66.5862 18.4747V23.5203H64.122V14.5439C64.122 13.4878 64.3567 12.5523 64.826 11.7375C65.2954 10.9226 65.9505 10.2903 66.7915 9.84052C67.6324 9.39069 68.607 9.16575 69.7152 9.16575ZM69.6174 17.7902C70.53 17.7902 71.2732 17.4871 71.8468 16.8808C72.4205 16.2746 72.7074 15.4891 72.7074 14.5242C72.7074 13.5595 72.4205 12.7707 71.8468 12.158C71.2732 11.5452 70.53 11.2388 69.6174 11.2388C68.6917 11.2388 67.9486 11.5386 67.3879 12.1383C66.8274 12.7381 66.547 13.5269 66.547 14.5047C66.547 15.4826 66.8306 16.2746 67.3978 16.8808C67.9649 17.4871 68.7047 17.7902 69.6174 17.7902ZM82.1336 20.0002C80.5821 20.0002 79.3957 19.6318 78.5743 18.8952C77.753 18.1586 77.3423 17.1058 77.3423 15.7368V9.2831H79.7673V13.0379C80.1063 12.7642 80.5528 12.549 81.1069 12.3926C81.661 12.2362 82.264 12.158 82.9159 12.158C84.2196 12.158 85.2366 12.4839 85.9668 13.1357C86.6968 13.7877 87.0619 14.7134 87.0619 15.9128C87.0619 17.2036 86.6251 18.2074 85.7516 18.9246C84.878 19.6417 83.6721 20.0002 82.1336 20.0002ZM82.1532 18.2009C82.8964 18.2009 83.4831 17.9989 83.9133 17.5947C84.3435 17.1905 84.5587 16.6494 84.5587 15.9715C84.5587 15.3196 84.3534 14.8078 83.9427 14.4363C83.532 14.0647 82.955 13.879 82.2119 13.879C81.6512 13.879 81.1591 13.9832 80.7354 14.1918C80.3116 14.4004 79.9889 14.6938 79.7673 15.0719V15.952C79.7673 16.6429 79.9824 17.1905 80.4126 17.5947C80.8429 17.9989 81.423 18.2009 82.1532 18.2009ZM94.1805 17.7902C95.3148 17.7902 96.26 17.4122 97.0162 16.6559L98.3069 18.1618C97.8506 18.7224 97.2639 19.1462 96.5468 19.433C95.8297 19.7199 95.0214 19.8632 94.1219 19.8632C92.9745 19.8632 91.964 19.6351 91.0906 19.1788C90.217 18.7224 89.5423 18.0868 89.0665 17.272C88.5906 16.4571 88.3527 15.5347 88.3527 14.5047C88.3527 13.4878 88.584 12.5719 89.0469 11.757C89.5097 10.9422 90.1486 10.3066 90.9634 9.85029C91.7783 9.39392 92.7007 9.16575 93.7307 9.16575C94.7085 9.16575 95.5983 9.37766 96.4002 9.80139C97.202 10.2251 97.8376 10.8313 98.3069 11.6202C98.7763 12.4089 99.011 13.3313 99.011 14.3874L91.0123 15.952C91.26 16.5517 91.6577 17.0079 92.2052 17.3209C92.7529 17.6338 93.4113 17.7902 94.1805 17.7902ZM93.7307 11.1214C92.8311 11.1214 92.1042 11.4148 91.5501 12.0015C90.996 12.5882 90.7189 13.377 90.7189 14.3678V14.3874L96.6251 13.2531C96.4556 12.6142 96.1133 12.0993 95.5983 11.7081C95.0834 11.317 94.4608 11.1214 93.7307 11.1214ZM106.56 9.16575C107.642 9.16575 108.59 9.38742 109.405 9.83074C110.22 10.274 110.852 10.8999 111.302 11.7081C111.752 12.5165 111.977 13.4553 111.977 14.5242C111.977 15.5803 111.762 16.5126 111.332 17.3209C110.901 18.1292 110.298 18.7551 109.523 19.1983C108.747 19.6417 107.851 19.8632 106.834 19.8632C105.386 19.8632 104.252 19.4005 103.431 18.4747V23.5203H100.967V14.5439C100.967 13.4878 101.201 12.5523 101.671 11.7375C102.14 10.9226 102.795 10.2903 103.636 9.84052C104.477 9.39069 105.452 9.16575 106.56 9.16575ZM106.462 17.7902C107.375 17.7902 108.118 17.4871 108.691 16.8808C109.265 16.2746 109.552 15.4891 109.552 14.5242C109.552 13.5595 109.265 12.7707 108.691 12.158C108.118 11.5452 107.375 11.2388 106.462 11.2388C105.536 11.2388 104.793 11.5386 104.233 12.1383C103.672 12.7381 103.392 13.5269 103.392 14.5047C103.392 15.4826 103.675 16.2746 104.242 16.8808C104.809 17.4871 105.549 17.7902 106.462 17.7902ZM124.591 9.2831V19.7263H122.264V18.3769C121.86 18.8724 121.361 19.244 120.768 19.4917C120.174 19.7394 119.519 19.8632 118.802 19.8632C117.785 19.8632 116.876 19.6417 116.074 19.1983C115.272 18.7551 114.646 18.1292 114.197 17.3209C113.747 16.5126 113.522 15.5738 113.522 14.5047C113.522 13.4356 113.747 12.5001 114.197 11.6984C114.646 10.8965 115.272 10.274 116.074 9.83074C116.876 9.38742 117.785 9.16575 118.802 9.16575C119.48 9.16575 120.103 9.2831 120.67 9.51779C121.237 9.75245 121.729 10.098 122.146 10.5543V9.2831H124.591ZM119.076 17.7707C119.976 17.7707 120.719 17.4708 121.305 16.8711C121.892 16.2714 122.185 15.4826 122.185 14.5047C122.185 13.5269 121.892 12.7381 121.305 12.1383C120.719 11.5386 119.976 11.2388 119.076 11.2388C118.176 11.2388 117.436 11.5386 116.856 12.1383C116.276 12.7381 115.986 13.5269 115.986 14.5047C115.986 15.4826 116.276 16.2714 116.856 16.8711C117.436 17.4708 118.176 17.7707 119.076 17.7707ZM128.581 19.8632C128.137 19.8632 127.759 19.7101 127.446 19.4037C127.133 19.0973 126.977 18.7094 126.977 18.24C126.977 17.7577 127.13 17.3665 127.437 17.0666C127.743 16.7668 128.124 16.6169 128.581 16.6169C129.037 16.6169 129.418 16.7668 129.725 17.0666C130.031 17.3665 130.184 17.7577 130.184 18.24C130.184 18.7094 130.028 19.0973 129.715 19.4037C129.402 19.7101 129.024 19.8632 128.581 19.8632Z" fill="#0A0620"/>
<path fill-rule="evenodd" clip-rule="evenodd" d="M137.068 19.8621C136.012 19.8621 135.06 19.6339 134.212 19.1776C133.365 18.7213 132.703 18.0856 132.227 17.2709C131.752 16.456 131.514 15.5335 131.514 14.5036C131.514 13.4736 131.752 12.5544 132.227 11.7461C132.703 10.9377 133.365 10.3055 134.212 9.84912C135.06 9.39275 136.012 9.16458 137.068 9.16458C138.137 9.16458 139.095 9.39275 139.942 9.84912C140.79 10.3055 141.452 10.9377 141.928 11.7461C142.403 12.5544 142.641 13.4736 142.641 14.5036C142.641 15.5335 142.403 16.456 141.928 17.2709C141.452 18.0856 140.79 18.7213 139.942 19.1776C139.095 19.6339 138.137 19.8621 137.068 19.8621ZM137.068 17.7695C137.967 17.7695 138.71 17.4696 139.297 16.8699C139.884 16.2702 140.177 15.4814 140.177 14.5036C140.177 13.5258 139.884 12.7369 139.297 12.1372C138.71 11.5375 137.967 11.2376 137.068 11.2376C136.168 11.2376 135.428 11.5375 134.848 12.1372C134.268 12.7369 133.978 13.5258 133.978 14.5036C133.978 15.4814 134.268 16.2702 134.848 16.8699C135.428 17.4696 136.168 17.7695 137.068 17.7695ZM145.047 9.28193H147.491V13.5258H152.752V9.28193H155.197V19.7252H152.752V15.5988H147.491V19.7252H145.047V9.28193ZM167.948 9.28193V19.7252H165.503V11.3549H161.592L161.494 13.4279C161.429 14.8099 161.302 15.9671 161.113 16.8992C160.924 17.8314 160.604 18.5681 160.154 19.1092C159.705 19.6502 159.088 19.9207 158.306 19.9207C157.941 19.9207 157.491 19.849 156.957 19.7057L157.074 17.6522C157.257 17.6913 157.413 17.7108 157.544 17.7108C158.039 17.7108 158.41 17.5121 158.658 17.1144C158.906 16.7167 159.066 16.2408 159.137 15.6867C159.209 15.1327 159.271 14.3406 159.323 13.3106L159.499 9.28193H167.948ZM181.403 9.28193V19.7252H179.075V18.3758C178.671 18.8713 178.172 19.2428 177.579 19.4905C176.986 19.7382 176.331 19.8621 175.614 19.8621C174.597 19.8621 173.688 19.6405 172.886 19.1971C172.084 18.7539 171.458 18.1281 171.008 17.3198C170.558 16.5114 170.334 15.5726 170.334 14.5036C170.334 13.4345 170.558 12.499 171.008 11.6972C171.458 10.8953 172.084 10.2728 172.886 9.82957C173.688 9.38626 174.597 9.16458 175.614 9.16458C176.292 9.16458 176.914 9.28193 177.482 9.51662C178.049 9.75128 178.541 10.0968 178.958 10.5532V9.28193H181.403ZM175.888 17.7695C176.787 17.7695 177.53 17.4696 178.117 16.8699C178.704 16.2702 178.997 15.4814 178.997 14.5036C178.997 13.5258 178.704 12.7369 178.117 12.1372C177.53 11.5375 176.787 11.2376 175.888 11.2376C174.988 11.2376 174.248 11.5375 173.668 12.1372C173.088 12.7369 172.798 13.5258 172.798 14.5036C172.798 15.4814 173.088 16.2702 173.668 16.8699C174.248 17.4696 174.988 17.7695 175.888 17.7695ZM194.545 9.28193V19.7252H192.217V18.3954C191.826 18.8647 191.341 19.2265 190.76 19.4807C190.18 19.7349 189.551 19.8621 188.873 19.8621C187.478 19.8621 186.377 19.4742 185.568 18.6985C184.76 17.9228 184.356 16.7721 184.356 15.2468V9.28193H186.8V14.9143C186.8 15.853 187.012 16.5538 187.436 17.0166C187.86 17.4794 188.469 17.7108 189.264 17.7108C190.125 17.7108 190.813 17.4403 191.328 16.8992C191.843 16.3582 192.1 15.5792 192.1 14.5622V9.28193H194.545ZM189.421 8.04993C188.365 8.04993 187.56 7.80538 187.006 7.31651C186.452 6.82762 186.168 6.11377 186.155 5.17505H187.778C187.791 5.64443 187.938 6.01597 188.218 6.28982C188.498 6.56364 188.893 6.70048 189.401 6.70048C189.897 6.70048 190.291 6.56364 190.584 6.28982C190.878 6.01597 191.031 5.64443 191.044 5.17505H192.706C192.693 6.11377 192.406 6.82762 191.846 7.31651C191.285 7.80538 190.477 8.04993 189.421 8.04993ZM197.85 9.28193H200.294V13.5258H205.555V9.28193H208V19.7252H205.555V15.5988H200.294V19.7252H197.85V9.28193Z" fill="#0A0620"/>
<path fill-rule="evenodd" clip-rule="evenodd" d="M39.7464 28.3666H38.7062V30.3949H38.0908V25.8358H38.7062V27.838H39.755L41.3586 25.8358H42.0259L40.2318 28.0459L42.1559 30.3949H41.4279L39.7464 28.3666ZM47.1051 25.8358V30.3949H46.5157V29.4934C46.3308 29.7997 46.0867 30.0337 45.7833 30.1955C45.4799 30.3573 45.1376 30.4382 44.7562 30.4382C44.3286 30.4382 43.9415 30.34 43.5947 30.1435C43.2481 29.947 42.9764 29.6726 42.78 29.3201C42.5835 28.9676 42.4853 28.5661 42.4853 28.1153C42.4853 27.6646 42.5835 27.263 42.78 26.9105C42.9764 26.558 43.2481 26.285 43.5947 26.0914C43.9415 25.8979 44.3286 25.801 44.7562 25.801C45.1261 25.801 45.4597 25.8776 45.7573 26.0308C46.0549 26.1839 46.299 26.4078 46.4898 26.7025V25.8358H47.1051ZM44.8083 29.8922C45.1261 29.8922 45.4135 29.8185 45.6707 29.6711C45.9278 29.5238 46.1301 29.3144 46.2774 29.0427C46.4247 28.7712 46.4984 28.462 46.4984 28.1153C46.4984 27.7686 46.4247 27.4595 46.2774 27.1878C46.1301 26.9163 45.9278 26.7069 45.6707 26.5595C45.4135 26.4121 45.1261 26.3385 44.8083 26.3385C44.4846 26.3385 44.1943 26.4121 43.9372 26.5595C43.68 26.7069 43.4777 26.9163 43.3304 27.1878C43.1831 27.4595 43.1093 27.7686 43.1093 28.1153C43.1093 28.462 43.1831 28.7712 43.3304 29.0427C43.4777 29.3144 43.68 29.5238 43.9372 29.6711C44.1943 29.8185 44.4846 29.8922 44.8083 29.8922ZM53.0511 25.8358V29.8402C53.0511 30.6144 52.8618 31.188 52.4833 31.5606C52.1048 31.9334 51.5342 32.1197 50.7715 32.1197C50.3497 32.1197 49.9495 32.0576 49.5711 31.9334C49.1926 31.8091 48.8849 31.6373 48.6479 31.4176L48.96 30.9496C49.1795 31.1461 49.4468 31.2992 49.7617 31.409C50.0767 31.5188 50.4074 31.5737 50.7542 31.5737C51.332 31.5737 51.7567 31.4393 52.0283 31.1706C52.2999 30.9019 52.4357 30.4844 52.4357 29.9181V29.3374C52.245 29.6263 51.9951 29.8459 51.686 29.9961C51.3768 30.1464 51.0344 30.2215 50.6588 30.2215C50.2313 30.2215 49.8426 30.1276 49.4931 29.9398C49.1434 29.752 48.869 29.4891 48.6696 29.1511C48.4702 28.813 48.3706 28.4302 48.3706 28.0027C48.3706 27.5751 48.4702 27.1936 48.6696 26.8585C48.869 26.5234 49.142 26.2634 49.4887 26.0785C49.8354 25.8935 50.2254 25.801 50.6588 25.801C51.0459 25.801 51.3956 25.8791 51.7076 26.0351C52.0196 26.1912 52.271 26.4165 52.4617 26.7112V25.8358H53.0511ZM50.7195 29.6754C51.0489 29.6754 51.3464 29.6047 51.6122 29.4631C51.8781 29.3215 52.0846 29.1236 52.232 28.8693C52.3794 28.6151 52.453 28.3263 52.453 28.0027C52.453 27.679 52.3794 27.3916 52.232 27.1402C52.0846 26.8889 51.8795 26.6924 51.6165 26.5508C51.3537 26.4092 51.0547 26.3385 50.7195 26.3385C50.3901 26.3385 50.094 26.4078 49.8311 26.5465C49.5682 26.6851 49.3631 26.8817 49.2157 27.1359C49.0683 27.3902 48.9947 27.679 48.9947 28.0027C48.9947 28.3263 49.0683 28.6151 49.2157 28.8693C49.3631 29.1236 49.5682 29.3215 49.8311 29.4631C50.094 29.6047 50.3901 29.6754 50.7195 29.6754ZM56.8994 25.801C57.3443 25.801 57.7402 25.8993 58.0869 26.0958C58.4336 26.2922 58.7037 26.5667 58.8973 26.9192C59.0909 27.2717 59.1877 27.6732 59.1877 28.124C59.1877 28.5747 59.0923 28.9748 58.9016 29.3245C58.7109 29.674 58.4466 29.947 58.1086 30.1435C57.7705 30.34 57.3848 30.4382 56.9514 30.4382C56.5701 30.4382 56.2305 30.3616 55.933 30.2085C55.6354 30.0554 55.3942 29.8344 55.2092 29.5454V32.0764H54.5938V28.1327C54.5938 27.6761 54.6907 27.2717 54.8842 26.9192C55.0778 26.5667 55.3493 26.2922 55.699 26.0958C56.0485 25.8993 56.4487 25.801 56.8994 25.801ZM56.8821 29.9008C57.2057 29.9008 57.4975 29.8257 57.7575 29.6754C58.0175 29.5252 58.2198 29.3144 58.3643 29.0427C58.5087 28.7712 58.5809 28.4649 58.5809 28.124C58.5809 27.7831 58.5087 27.4768 58.3643 27.2052C58.2198 26.9336 58.0175 26.7213 57.7575 26.5681C57.4975 26.415 57.2057 26.3385 56.8821 26.3385C56.5585 26.3385 56.2681 26.4136 56.011 26.5638C55.7539 26.7141 55.5546 26.9235 55.4129 27.1922C55.2714 27.4609 55.2006 27.7686 55.2006 28.1153C55.2006 28.462 55.2714 28.7712 55.4129 29.0427C55.5546 29.3144 55.7539 29.5252 56.011 29.6754C56.2681 29.8257 56.5585 29.9008 56.8821 29.9008ZM62.3947 30.4382C61.9555 30.4382 61.5597 30.3386 61.2072 30.1392C60.8547 29.9398 60.5774 29.6639 60.3752 29.3114C60.1728 28.959 60.0718 28.5602 60.0718 28.1153C60.0718 27.6704 60.1728 27.2717 60.3752 26.9192C60.5774 26.5667 60.8547 26.2922 61.2072 26.0958C61.5597 25.8993 61.9555 25.801 62.3947 25.801C62.8338 25.801 63.2296 25.8993 63.5821 26.0958C63.9346 26.2922 64.2105 26.5667 64.4099 26.9192C64.6092 27.2717 64.7089 27.6704 64.7089 28.1153C64.7089 28.5602 64.6092 28.959 64.4099 29.3114C64.2105 29.6639 63.9346 29.9398 63.5821 30.1392C63.2296 30.3386 62.8338 30.4382 62.3947 30.4382ZM62.3947 29.8922C62.7182 29.8922 63.0086 29.8185 63.2658 29.6711C63.5229 29.5238 63.7237 29.3144 63.8681 29.0427C64.0126 28.7712 64.0848 28.462 64.0848 28.1153C64.0848 27.7686 64.0126 27.4595 63.8681 27.1878C63.7237 26.9163 63.5229 26.7069 63.2658 26.5595C63.0086 26.4121 62.7182 26.3385 62.3947 26.3385C62.0711 26.3385 61.7807 26.4121 61.5236 26.5595C61.2665 26.7069 61.0642 26.9163 60.9168 27.1878C60.7695 27.4595 60.6959 27.7686 60.6959 28.1153C60.6959 28.462 60.7695 28.7712 60.9168 29.0427C61.0642 29.3144 61.2665 29.5238 61.5236 29.6711C61.7807 29.8185 62.0711 29.8922 62.3947 29.8922ZM68.93 28.0373C69.5483 28.1817 69.8575 28.5544 69.8575 29.1554C69.8575 29.5541 69.7101 29.8604 69.4154 30.0742C69.1207 30.288 68.6815 30.3949 68.098 30.3949H66.0264V25.8358H68.0373C68.5574 25.8358 68.9647 25.9368 69.2595 26.1391C69.5541 26.3414 69.7015 26.6302 69.7015 27.0058C69.7015 27.2543 69.6335 27.4667 69.4978 27.643C69.362 27.8192 69.1727 27.9507 68.93 28.0373ZM66.6244 27.8639H67.9939C68.3464 27.8639 68.6165 27.7975 68.8043 27.6646C68.9921 27.5317 69.0861 27.3381 69.0861 27.0839C69.0861 26.8296 68.9921 26.639 68.8043 26.5118C68.6165 26.3847 68.3464 26.3212 67.9939 26.3212H66.6244V27.8639ZM68.072 29.9095C68.4649 29.9095 68.7595 29.8459 68.9561 29.7188C69.1525 29.5917 69.2507 29.3924 69.2507 29.1207C69.2507 28.8492 69.1612 28.6484 68.982 28.5184C68.8029 28.3884 68.5198 28.3234 68.1327 28.3234H66.6244V29.9095H68.072ZM73.1077 30.4902C72.4837 30.4902 72.0056 30.3357 71.6733 30.0265C71.341 29.7174 71.1749 29.2797 71.1749 28.7134V25.8358H71.7903V27.7339C71.929 27.5664 72.1226 27.4277 72.371 27.3179C72.6195 27.2081 72.9084 27.1532 73.2378 27.1532C73.7925 27.1532 74.2244 27.2962 74.5336 27.5823C74.8427 27.8682 74.9973 28.2569 74.9973 28.748C74.9973 29.089 74.9207 29.3909 74.7676 29.6538C74.6144 29.9167 74.3949 30.1218 74.1088 30.2692C73.8228 30.4165 73.4891 30.4902 73.1077 30.4902ZM75.7427 25.8358H76.3581V30.3949H75.7427V25.8358ZM73.1251 30.0135C73.5181 30.0135 73.8243 29.8965 74.0438 29.6625C74.2635 29.4284 74.3732 29.1294 74.3732 28.7654C74.3732 28.4244 74.2606 28.1485 74.0352 27.9376C73.8098 27.7267 73.492 27.6213 73.0818 27.6213C72.7813 27.6213 72.5198 27.6848 72.2973 27.8119C72.0749 27.939 71.9059 28.1153 71.7903 28.3407V28.7568C71.7903 29.1497 71.9044 29.4574 72.1327 29.6798C72.3609 29.9023 72.6918 30.0135 73.1251 30.0135ZM82.122 25.8358V30.3949H81.5326V29.5628C81.3708 29.8402 81.1484 30.0554 80.8652 30.2085C80.5821 30.3616 80.2584 30.4382 79.8945 30.4382C79.2935 30.4382 78.8211 30.2721 78.4773 29.9398C78.1335 29.6076 77.9616 29.1207 77.9616 28.4793V25.8358H78.577V28.4187C78.577 28.8983 78.6955 29.2623 78.9323 29.5108C79.1693 29.7593 79.5102 29.8835 79.9552 29.8835C80.4347 29.8835 80.8132 29.7376 81.0906 29.4458C81.3679 29.154 81.5066 28.748 81.5066 28.228V25.8358H82.122ZM80.0418 25.1856C79.6489 25.1856 79.3369 25.0875 79.1057 24.891C78.8745 24.6945 78.7562 24.4171 78.7503 24.0588H79.1924C79.1982 24.2842 79.2791 24.4648 79.435 24.6006C79.5911 24.7364 79.7933 24.8043 80.0418 24.8043C80.2903 24.8043 80.4939 24.7364 80.6529 24.6006C80.8117 24.4648 80.8941 24.2842 80.8999 24.0588H81.342C81.3362 24.4171 81.2163 24.6945 80.9822 24.891C80.7482 25.0875 80.4347 25.1856 80.0418 25.1856ZM88.2413 25.801C88.6862 25.801 89.0821 25.8993 89.4288 26.0958C89.7755 26.2922 90.0456 26.5667 90.2392 26.9192C90.4328 27.2717 90.5296 27.6732 90.5296 28.124C90.5296 28.5747 90.4342 28.9748 90.2435 29.3245C90.0528 29.674 89.7885 29.947 89.4504 30.1435C89.1124 30.34 88.7267 30.4382 88.2933 30.4382C87.912 30.4382 87.5724 30.3616 87.2749 30.2085C86.9773 30.0554 86.7361 29.8344 86.5511 29.5454V32.0764H85.9357V28.1327C85.9357 27.6761 86.0326 27.2717 86.2261 26.9192C86.4197 26.5667 86.6912 26.2922 87.0409 26.0958C87.3905 25.8993 87.7906 25.801 88.2413 25.801ZM88.224 29.9008C88.5476 29.9008 88.8394 29.8257 89.0994 29.6754C89.3594 29.5252 89.5617 29.3144 89.7061 29.0427C89.8506 28.7712 89.9228 28.4649 89.9228 28.124C89.9228 27.7831 89.8506 27.4768 89.7061 27.2052C89.5617 26.9336 89.3594 26.7213 89.0994 26.5681C88.8394 26.415 88.5476 26.3385 88.224 26.3385C87.9004 26.3385 87.61 26.4136 87.3529 26.5638C87.0958 26.7141 86.8964 26.9235 86.7548 27.1922C86.6133 27.4609 86.5425 27.7686 86.5425 28.1153C86.5425 28.462 86.6133 28.7712 86.7548 29.0427C86.8964 29.3144 87.0958 29.5252 87.3529 29.6754C87.61 29.8257 87.9004 29.9008 88.224 29.9008ZM93.7886 29.8922C94.0717 29.8922 94.3331 29.8416 94.573 29.7404C94.8128 29.6394 95.0164 29.4905 95.184 29.2941L95.5308 29.6928C95.3285 29.9355 95.0771 30.1204 94.7767 30.2476C94.4762 30.3747 94.1439 30.4382 93.7799 30.4382C93.3118 30.4382 92.8958 30.3386 92.5318 30.1392C92.1678 29.9398 91.8846 29.6639 91.6823 29.3114C91.4801 28.959 91.379 28.5602 91.379 28.1153C91.379 27.6704 91.4758 27.2717 91.6694 26.9192C91.8629 26.5667 92.1302 26.2922 92.4711 26.0958C92.812 25.8993 93.1991 25.801 93.6325 25.801C94.0371 25.801 94.4026 25.8935 94.729 26.0785C95.0555 26.2634 95.3155 26.5205 95.5091 26.8498C95.7026 27.1792 95.8052 27.5548 95.8168 27.9766L92.0724 28.7047C92.1879 29.0746 92.3974 29.3649 92.7008 29.5758C93.0041 29.7867 93.3668 29.8922 93.7886 29.8922ZM93.6325 26.3298C93.3147 26.3298 93.0302 26.4035 92.7788 26.5508C92.5275 26.6982 92.3309 26.9033 92.1894 27.1662C92.0478 27.4291 91.9771 27.731 91.9771 28.072C91.9771 28.1586 91.9799 28.2222 91.9857 28.2627L95.2014 27.6386C95.132 27.2573 94.9558 26.9437 94.6727 26.6982C94.3895 26.4526 94.0428 26.3298 93.6325 26.3298ZM99.1798 28.02C99.5033 28.0951 99.7533 28.2251 99.9295 28.41C100.106 28.5949 100.194 28.8203 100.194 29.0861C100.194 29.3519 100.103 29.5888 99.9209 29.7968C99.7388 30.0049 99.4918 30.1652 99.1798 30.2779C98.8677 30.3906 98.5239 30.4469 98.1484 30.4469C97.8189 30.4469 97.4954 30.3992 97.1776 30.3038C96.8598 30.2085 96.5823 30.0683 96.3455 29.8835L96.5535 29.4241C96.7615 29.5802 97.0042 29.7015 97.2816 29.7881C97.5589 29.8748 97.8392 29.9181 98.1223 29.9181C98.5442 29.9181 98.8894 29.8387 99.1581 29.6798C99.4268 29.5209 99.5611 29.3056 99.5611 29.0341C99.5611 28.7914 99.4513 28.6021 99.2318 28.4664C99.0122 28.3306 98.7117 28.2627 98.3303 28.2627H97.5503V27.8119H98.2957C98.6366 27.8119 98.9111 27.7469 99.1191 27.6169C99.3271 27.4869 99.4311 27.3122 99.4311 27.0925C99.4311 26.8498 99.3141 26.6592 99.0801 26.5205C98.8461 26.3818 98.5413 26.3125 98.1657 26.3125C97.6745 26.3125 97.1891 26.4366 96.7095 26.6851L96.5362 26.2085C97.0793 25.9253 97.6427 25.7837 98.2264 25.7837C98.573 25.7837 98.8865 25.8343 99.1668 25.9355C99.447 26.0365 99.6666 26.1795 99.8255 26.3644C99.9844 26.5493 100.064 26.7632 100.064 27.0058C100.064 27.237 99.9844 27.4421 99.8255 27.6213C99.6666 27.8004 99.4513 27.9332 99.1798 28.02ZM103.522 29.8922C103.805 29.8922 104.067 29.8416 104.307 29.7404C104.546 29.6394 104.75 29.4905 104.918 29.2941L105.264 29.6928C105.062 29.9355 104.811 30.1204 104.51 30.2476C104.21 30.3747 103.878 30.4382 103.514 30.4382C103.045 30.4382 102.63 30.3386 102.265 30.1392C101.901 29.9398 101.618 29.6639 101.416 29.3114C101.214 28.959 101.113 28.5602 101.113 28.1153C101.113 27.6704 101.209 27.2717 101.403 26.9192C101.597 26.5667 101.864 26.2922 102.205 26.0958C102.546 25.8993 102.933 25.801 103.366 25.801C103.771 25.801 104.136 25.8935 104.463 26.0785C104.789 26.2634 105.049 26.5205 105.243 26.8498C105.436 27.1792 105.539 27.5548 105.55 27.9766L101.806 28.7047C101.922 29.0746 102.131 29.3649 102.434 29.5758C102.738 29.7867 103.1 29.8922 103.522 29.8922ZM103.366 26.3298C103.048 26.3298 102.764 26.4035 102.512 26.5508C102.261 26.6982 102.065 26.9033 101.923 27.1662C101.781 27.4291 101.711 27.731 101.711 28.072C101.711 28.1586 101.714 28.2222 101.719 28.2627L104.935 27.6386C104.866 27.2573 104.689 26.9437 104.406 26.6982C104.123 26.4526 103.776 26.3298 103.366 26.3298ZM108.922 25.801C109.367 25.801 109.763 25.8993 110.11 26.0958C110.456 26.2922 110.726 26.5667 110.92 26.9192C111.114 27.2717 111.21 27.6732 111.21 28.124C111.21 28.5747 111.115 28.9748 110.924 29.3245C110.734 29.674 110.469 29.947 110.131 30.1435C109.793 30.34 109.407 30.4382 108.974 30.4382C108.593 30.4382 108.253 30.3616 107.956 30.2085C107.658 30.0554 107.417 29.8344 107.232 29.5454V32.0764H106.617V28.1327C106.617 27.6761 106.713 27.2717 106.907 26.9192C107.1 26.5667 107.372 26.2922 107.722 26.0958C108.071 25.8993 108.471 25.801 108.922 25.801ZM108.905 29.9008C109.228 29.9008 109.52 29.8257 109.78 29.6754C110.04 29.5252 110.242 29.3144 110.387 29.0427C110.531 28.7712 110.604 28.4649 110.604 28.124C110.604 27.7831 110.531 27.4768 110.387 27.2052C110.242 26.9336 110.04 26.7213 109.78 26.5681C109.52 26.415 109.228 26.3385 108.905 26.3385C108.581 26.3385 108.291 26.4136 108.034 26.5638C107.777 26.7141 107.577 26.9235 107.436 27.1922C107.294 27.4609 107.223 27.7686 107.223 28.1153C107.223 28.462 107.294 28.7712 107.436 29.0427C107.577 29.3144 107.777 29.5252 108.034 29.6754C108.291 29.8257 108.581 29.9008 108.905 29.9008ZM115.44 28.0373C116.058 28.1817 116.368 28.5544 116.368 29.1554C116.368 29.5541 116.22 29.8604 115.925 30.0742C115.631 30.288 115.192 30.3949 114.608 30.3949H112.536V25.8358H114.547C115.067 25.8358 115.475 25.9368 115.77 26.1391C116.064 26.3414 116.212 26.6302 116.212 27.0058C116.212 27.2543 116.144 27.4667 116.008 27.643C115.872 27.8192 115.683 27.9507 115.44 28.0373ZM113.135 27.8639H114.504C114.856 27.8639 115.127 27.7975 115.314 27.6646C115.502 27.5317 115.596 27.3381 115.596 27.0839C115.596 26.8296 115.502 26.639 115.314 26.5118C115.127 26.3847 114.856 26.3212 114.504 26.3212H113.135V27.8639ZM114.582 29.9095C114.975 29.9095 115.27 29.8459 115.466 29.7188C115.663 29.5917 115.761 29.3924 115.761 29.1207C115.761 28.8492 115.671 28.6484 115.492 28.5184C115.313 28.3884 115.03 28.3234 114.643 28.3234H113.135V29.9095H114.582ZM122.981 28.0373C123.599 28.1817 123.908 28.5544 123.908 29.1554C123.908 29.5541 123.761 29.8604 123.466 30.0742C123.172 30.288 122.732 30.3949 122.149 30.3949H120.077V25.8358H122.088C122.608 25.8358 123.016 25.9368 123.31 26.1391C123.605 26.3414 123.752 26.6302 123.752 27.0058C123.752 27.2543 123.684 27.4667 123.549 27.643C123.413 27.8192 123.224 27.9507 122.981 28.0373ZM120.675 27.8639H122.045C122.397 27.8639 122.667 27.7975 122.855 27.6646C123.043 27.5317 123.137 27.3381 123.137 27.0839C123.137 26.8296 123.043 26.639 122.855 26.5118C122.667 26.3847 122.397 26.3212 122.045 26.3212H120.675V27.8639ZM122.123 29.9095C122.516 29.9095 122.81 29.8459 123.007 29.7188C123.203 29.5917 123.302 29.3924 123.302 29.1207C123.302 28.8492 123.212 28.6484 123.033 28.5184C122.854 28.3884 122.571 28.3234 122.183 28.3234H120.675V29.9095H122.123ZM127.28 29.8922C127.563 29.8922 127.824 29.8416 128.064 29.7404C128.304 29.6394 128.508 29.4905 128.675 29.2941L129.022 29.6928C128.82 29.9355 128.568 30.1204 128.268 30.2476C127.968 30.3747 127.635 30.4382 127.271 30.4382C126.803 30.4382 126.387 30.3386 126.023 30.1392C125.659 29.9398 125.376 29.6639 125.174 29.3114C124.971 28.959 124.87 28.5602 124.87 28.1153C124.87 27.6704 124.967 27.2717 125.161 26.9192C125.354 26.5667 125.622 26.2922 125.962 26.0958C126.303 25.8993 126.69 25.801 127.124 25.801C127.528 25.801 127.894 25.8935 128.22 26.0785C128.547 26.2634 128.807 26.5205 129 26.8498C129.194 27.1792 129.297 27.5548 129.308 27.9766L125.564 28.7047C125.679 29.0746 125.889 29.3649 126.192 29.5758C126.495 29.7867 126.858 29.8922 127.28 29.8922ZM127.124 26.3298C126.806 26.3298 126.522 26.4035 126.27 26.5508C126.019 26.6982 125.822 26.9033 125.681 27.1662C125.539 27.4291 125.468 27.731 125.468 28.072C125.468 28.1586 125.471 28.2222 125.477 28.2627L128.693 27.6386C128.623 27.2573 128.447 26.9437 128.164 26.6982C127.881 26.4526 127.534 26.3298 127.124 26.3298ZM134.795 25.8358V29.8402C134.795 30.6144 134.605 31.188 134.227 31.5606C133.848 31.9334 133.278 32.1197 132.515 32.1197C132.093 32.1197 131.693 32.0576 131.315 31.9334C130.936 31.8091 130.628 31.6373 130.392 31.4176L130.704 30.9496C130.923 31.1461 131.19 31.2992 131.505 31.409C131.82 31.5188 132.151 31.5737 132.498 31.5737C133.076 31.5737 133.5 31.4393 133.772 31.1706C134.043 30.9019 134.179 30.4844 134.179 29.9181V29.3374C133.989 29.6263 133.739 29.8459 133.43 29.9961C133.12 30.1464 132.778 30.2215 132.402 30.2215C131.975 30.2215 131.586 30.1276 131.237 29.9398C130.887 29.752 130.613 29.4891 130.413 29.1511C130.214 28.813 130.114 28.4302 130.114 28.0027C130.114 27.5751 130.214 27.1936 130.413 26.8585C130.613 26.5234 130.886 26.2634 131.232 26.0785C131.579 25.8935 131.969 25.801 132.402 25.801C132.79 25.801 133.139 25.8791 133.451 26.0351C133.763 26.1912 134.015 26.4165 134.205 26.7112V25.8358H134.795ZM132.463 29.6754C132.792 29.6754 133.09 29.6047 133.356 29.4631C133.622 29.3215 133.828 29.1236 133.976 28.8693C134.123 28.6151 134.197 28.3263 134.197 28.0027C134.197 27.679 134.123 27.3916 133.976 27.1402C133.828 26.8889 133.623 26.6924 133.36 26.5508C133.097 26.4092 132.798 26.3385 132.463 26.3385C132.134 26.3385 131.838 26.4078 131.575 26.5465C131.312 26.6851 131.107 26.8817 130.959 27.1359C130.812 27.3902 130.738 27.679 130.738 28.0027C130.738 28.3263 130.812 28.6151 130.959 28.8693C131.107 29.1236 131.312 29.3215 131.575 29.4631C131.838 29.6047 132.134 29.6754 132.463 29.6754ZM140.637 25.8358V29.8402C140.637 30.6144 140.46 31.188 140.108 31.5606C139.755 31.9334 139.224 32.1197 138.513 32.1197C138.114 32.1197 137.737 32.0576 137.382 31.9334C137.027 31.8091 136.739 31.6373 136.52 31.4176L136.832 30.9496C137.028 31.1461 137.271 31.2992 137.56 31.409C137.849 31.5188 138.158 31.5737 138.487 31.5737C139.013 31.5737 139.4 31.4393 139.648 31.1706C139.897 30.9019 140.021 30.4844 140.021 29.9181V29.3895C139.859 29.6553 139.638 29.8604 139.358 30.0049C139.078 30.1493 138.762 30.2215 138.409 30.2215C137.814 30.2215 137.344 30.0554 137 29.7231C136.657 29.3909 136.485 28.9041 136.485 28.2627V25.8358H137.1V28.202C137.1 28.6816 137.219 29.0456 137.456 29.2941C137.692 29.5426 138.031 29.6668 138.47 29.6668C138.949 29.6668 139.328 29.5209 139.605 29.2291C139.883 28.9373 140.021 28.5314 140.021 28.0113V25.8358H140.637ZM148.671 25.8358V30.3949H142.379V25.8358H142.994V29.8575H145.23V25.8358H145.846V29.8575H148.056V25.8358H148.671ZM149.373 29.8575V31.3917H148.793V30.3949H148.021V29.8575H149.373ZM154.444 25.8358V30.3949H153.855V29.5628C153.693 29.8402 153.47 30.0554 153.187 30.2085C152.904 30.3616 152.58 30.4382 152.216 30.4382C151.615 30.4382 151.143 30.2721 150.799 29.9398C150.455 29.6076 150.284 29.1207 150.284 28.4793V25.8358H150.899V28.4187C150.899 28.8983 151.017 29.2623 151.254 29.5108C151.491 29.7593 151.832 29.8835 152.277 29.8835C152.757 29.8835 153.135 29.7376 153.413 29.4458C153.69 29.154 153.829 28.748 153.829 28.228V25.8358H154.444ZM159.046 30.3949L157.599 28.488L156.143 30.3949H155.449L157.252 28.0546L155.536 25.8358H156.229L157.599 27.6213L158.968 25.8358H159.644L157.928 28.0546L159.748 30.3949H159.046ZM164.68 28.3666H163.64V30.3949H163.025V25.8358H163.64V27.838H164.689L166.293 25.8358H166.96L165.166 28.0459L167.09 30.3949H166.362L164.68 28.3666ZM169.777 30.4382C169.338 30.4382 168.942 30.3386 168.589 30.1392C168.237 29.9398 167.96 29.6639 167.757 29.3114C167.555 28.959 167.454 28.5602 167.454 28.1153C167.454 27.6704 167.555 27.2717 167.757 26.9192C167.96 26.5667 168.237 26.2922 168.589 26.0958C168.942 25.8993 169.338 25.801 169.777 25.801C170.216 25.801 170.612 25.8993 170.964 26.0958C171.317 26.2922 171.593 26.5667 171.792 26.9192C171.991 27.2717 172.091 27.6704 172.091 28.1153C172.091 28.5602 171.991 28.959 171.792 29.3114C171.593 29.6639 171.317 29.9398 170.964 30.1392C170.612 30.3386 170.216 30.4382 169.777 30.4382ZM169.777 29.8922C170.1 29.8922 170.391 29.8185 170.648 29.6711C170.905 29.5238 171.106 29.3144 171.25 29.0427C171.395 28.7712 171.467 28.462 171.467 28.1153C171.467 27.7686 171.395 27.4595 171.25 27.1878C171.106 26.9163 170.905 26.7069 170.648 26.5595C170.391 26.4121 170.1 26.3385 169.777 26.3385C169.453 26.3385 169.163 26.4121 168.906 26.5595C168.649 26.7069 168.446 26.9163 168.299 27.1878C168.152 27.4595 168.078 27.7686 168.078 28.1153C168.078 28.462 168.152 28.7712 168.299 29.0427C168.446 29.3144 168.649 29.5238 168.906 29.6711C169.163 29.8185 169.453 29.8922 169.777 29.8922ZM178.505 25.8358V30.3949H177.942V26.7892L176.096 29.8402H175.818L173.972 26.7805V30.3949H173.409V25.8358H174.033L175.966 29.1207L177.933 25.8358H178.505ZM184.347 25.8358V30.3949H183.732V26.3818H180.871V30.3949H180.256V25.8358H184.347ZM190.241 25.8358V30.3949H189.652V29.4934C189.467 29.7997 189.223 30.0337 188.919 30.1955C188.616 30.3573 188.273 30.4382 187.892 30.4382C187.464 30.4382 187.077 30.34 186.731 30.1435C186.384 29.947 186.112 29.6726 185.916 29.3201C185.719 28.9676 185.621 28.5661 185.621 28.1153C185.621 27.6646 185.719 27.263 185.916 26.9105C186.112 26.558 186.384 26.285 186.731 26.0914C187.077 25.8979 187.464 25.801 187.892 25.801C188.262 25.801 188.596 25.8776 188.893 26.0308C189.191 26.1839 189.435 26.4078 189.626 26.7025V25.8358H190.241ZM187.944 29.8922C188.262 29.8922 188.549 29.8185 188.807 29.6711C189.064 29.5238 189.266 29.3144 189.413 29.0427C189.561 28.7712 189.634 28.462 189.634 28.1153C189.634 27.7686 189.561 27.4595 189.413 27.1878C189.266 26.9163 189.064 26.7069 188.807 26.5595C188.549 26.4121 188.262 26.3385 187.944 26.3385C187.62 26.3385 187.33 26.4121 187.073 26.5595C186.816 26.7069 186.614 26.9163 186.466 27.1878C186.319 27.4595 186.245 27.7686 186.245 28.1153C186.245 28.462 186.319 28.7712 186.466 29.0427C186.614 29.3144 186.816 29.5238 187.073 29.6711C187.33 29.8185 187.62 29.8922 187.944 29.8922ZM191.974 25.8358H192.59V27.8553H195.459V25.8358H196.074V30.3949H195.459V28.384H192.59V30.3949H191.974V25.8358ZM201.838 25.8358V30.3949H201.249V29.5628C201.087 29.8402 200.865 30.0554 200.581 30.2085C200.298 30.3616 199.975 30.4382 199.611 30.4382C199.01 30.4382 198.537 30.2721 198.193 29.9398C197.85 29.6076 197.678 29.1207 197.678 28.4793V25.8358H198.293V28.4187C198.293 28.8983 198.412 29.2623 198.648 29.5108C198.885 29.7593 199.226 29.8835 199.671 29.8835C200.151 29.8835 200.529 29.7376 200.807 29.4458C201.084 29.154 201.223 28.748 201.223 28.228V25.8358H201.838ZM207.602 25.8358V30.3949H207.013V29.5628C206.851 29.8402 206.628 30.0554 206.345 30.2085C206.062 30.3616 205.739 30.4382 205.375 30.4382C204.774 30.4382 204.301 30.2721 203.957 29.9398C203.613 29.6076 203.442 29.1207 203.442 28.4793V25.8358H204.057V28.4187C204.057 28.8983 204.175 29.2623 204.412 29.5108C204.649 29.7593 204.99 29.8835 205.435 29.8835C205.915 29.8835 206.293 29.7376 206.571 29.4458C206.848 29.154 206.987 28.748 206.987 28.228V25.8358H207.602ZM205.522 25.1856C205.129 25.1856 204.817 25.0875 204.586 24.891C204.355 24.6945 204.236 24.4171 204.23 24.0588H204.672C204.678 24.2842 204.759 24.4648 204.915 24.6006C205.071 24.7364 205.273 24.8043 205.522 24.8043C205.77 24.8043 205.974 24.7364 206.133 24.6006C206.292 24.4648 206.374 24.2842 206.38 24.0588H206.822C206.816 24.4171 206.696 24.6945 206.462 24.891C206.228 25.0875 205.915 25.1856 205.522 25.1856Z" fill="#0A0620"/>
</svg>
