<svg width="96" height="37" viewBox="0 0 96 37" fill="none" xmlns="http://www.w3.org/2000/svg">
<g clip-path="url(#clip0_1119_897)">
<path fill-rule="evenodd" clip-rule="evenodd" d="M4.87373 0.0767239C3.03622 -0.325671 1.08517 0.881565 0.295814 3.06875C-0.495253 5.25425 0.355156 7.35298 2.19256 7.75539C4.02996 8.15954 6.16066 6.71298 6.95002 4.52574C7.74107 2.34031 6.71113 0.479172 4.87373 0.0767239Z" fill="white"/>
<path fill-rule="evenodd" clip-rule="evenodd" d="M64.9439 0.0767239C66.7815 -0.325671 68.7325 0.881565 69.5218 3.06875C70.3129 5.25425 69.4625 7.35298 67.6251 7.75539C65.7877 8.15954 63.657 6.71298 62.8659 4.52574C62.0765 2.34031 63.1065 0.479172 64.9439 0.0767239Z" fill="white"/>
<path fill-rule="evenodd" clip-rule="evenodd" d="M0.195312 11.3729V35.741C0.19562 36.0044 0.295255 36.2568 0.472317 36.4428C0.64938 36.6288 0.889378 36.7333 1.13956 36.7331H5.89872C6.02251 36.7332 6.14509 36.7076 6.25946 36.6577C6.37383 36.6078 6.47774 36.5348 6.56527 36.4426C6.6528 36.3505 6.72223 36.2411 6.76958 36.1207C6.81694 36.0003 6.8413 35.8713 6.84126 35.741V11.3729C6.84129 11.2427 6.81693 11.1136 6.76957 10.9932C6.72222 10.8729 6.65279 10.7635 6.56526 10.6714C6.47774 10.5793 6.37382 10.5061 6.25945 10.4563C6.14509 10.4065 6.02251 10.3808 5.89872 10.3809H1.13956C0.88938 10.3807 0.649386 10.4851 0.472326 10.6711C0.295266 10.8572 0.195629 11.1096 0.195312 11.3729Z" fill="white"/>
<path fill-rule="evenodd" clip-rule="evenodd" d="M62.6016 11.3729V35.741C62.6018 36.0041 62.7011 36.2563 62.8779 36.4423C63.0546 36.6283 63.2942 36.7329 63.5441 36.7331H68.3033C68.4272 36.7334 68.5499 36.7078 68.6645 36.6581C68.779 36.6083 68.8832 36.5352 68.9708 36.4431C69.0585 36.351 69.1281 36.2415 69.1756 36.121C69.2231 36.0006 69.2475 35.8715 69.2475 35.741V11.3729C69.2475 11.2425 69.2231 11.1134 69.1756 10.9929C69.1281 10.8724 69.0585 10.763 68.9708 10.6708C68.8832 10.5787 68.779 10.5056 68.6645 10.4559C68.5499 10.4061 68.4272 10.3806 68.3033 10.3809H63.5441C63.2942 10.381 63.0546 10.4857 62.8779 10.6717C62.7012 10.8577 62.6018 11.1099 62.6016 11.3729Z" fill="white"/>
<path fill-rule="evenodd" clip-rule="evenodd" d="M83.3185 20.6417C80.7344 19.3599 78.7009 18.4457 78.7009 16.0851C78.7009 12.3958 81.6507 12.1097 82.5307 12.1097C83.3633 12.1329 84.1821 12.3407 84.9334 12.7193C85.6847 13.098 86.3518 13.6391 86.891 14.3073C87.3228 14.8727 87.9078 14.9941 88.384 14.6125C88.8306 14.2552 88.7811 13.577 88.4483 13.1521C87.9514 12.5121 87.347 11.9735 86.6652 11.5633C85.2137 10.6762 83.5597 10.2222 81.8815 10.2502C78.2873 10.2502 73.2183 11.6396 73.2183 17.6305C73.2183 20.7146 74.6619 22.6606 79.805 25.3249C84.9153 27.9717 85.0882 29.5449 85.0882 31.0955C85.0882 33.2845 83.6513 35.0588 80.6966 35.0588C77.7485 35.0588 75.8632 33.2689 74.7262 32.3149C74.3438 31.994 73.8396 31.7182 73.3749 32.1207C73.2743 32.2159 73.1936 32.3322 73.1378 32.462C73.082 32.5918 73.0524 32.7324 73.0508 32.8748C73.0494 33.0173 73.0759 33.1585 73.1288 33.2896C73.1818 33.4208 73.2599 33.5389 73.3585 33.6366C74.3889 34.7222 75.6158 35.5793 76.9665 36.157C78.3173 36.7347 79.7643 37.0212 81.2223 36.9998C84.6894 36.9998 90.8971 35.7961 90.8971 29.1061C90.8971 26.2059 88.9065 23.4152 83.3185 20.6417Z" fill="white"/>
<path fill-rule="evenodd" clip-rule="evenodd" d="M37.1836 11.5431V35.6632C37.1838 35.9606 37.2962 36.2457 37.4962 36.4558C37.6961 36.6659 37.9671 36.7839 38.2497 36.7837H47.4699C51.7824 36.7837 58.8124 34.7629 58.8124 23.1435C58.8124 11.7357 50.4822 10.4209 46.2487 10.4209H38.2497C37.967 10.4211 37.696 10.5394 37.496 10.7498C37.2961 10.9603 37.1838 11.2456 37.1836 11.5431ZM43.8263 12.2126H46.0146C48.7864 12.2126 50.0438 12.6567 51.372 15.1475C52.4102 17.0416 52.9293 20.4897 52.9293 23.3898C52.9293 26.3767 52.4431 29.8058 51.4363 31.7849C50.1246 34.4126 48.8672 34.9589 46.0146 34.9589H43.8263V12.2126Z" fill="white"/>
<path fill-rule="evenodd" clip-rule="evenodd" d="M11.6406 11.3301V35.5577C11.6407 35.6979 11.667 35.8368 11.7182 35.9663C11.7693 36.0958 11.8441 36.2133 11.9383 36.3124C12.0326 36.4115 12.1445 36.49 12.2676 36.5436C12.3907 36.5971 12.5226 36.6246 12.6558 36.6244H21.9369C26.2494 36.6244 33.2777 34.6037 33.2777 22.9843C33.2777 11.5764 24.9492 10.2617 20.7174 10.2617H12.6558C12.5225 10.2616 12.3904 10.2892 12.2673 10.3428C12.144 10.3965 12.0321 10.4752 11.9379 10.5744C11.8435 10.6736 11.7688 10.7915 11.7178 10.9212C11.6668 11.0508 11.6405 11.1898 11.6406 11.3301ZM18.2933 12.0534H20.4801C23.2535 12.0534 24.5092 12.4974 25.8391 14.9882C26.8773 16.8823 27.3964 20.3288 27.3964 23.2306C27.3964 26.2174 26.9102 29.6465 25.9034 31.6256C24.5916 34.2533 23.3342 34.7997 20.4801 34.7997H18.2933V12.0534Z" fill="white"/>
<path d="M93.2368 6.97245C92.691 6.97229 92.1571 6.80173 91.7036 6.48234C91.2493 6.16295 90.8955 5.70907 90.6866 5.17807C90.4777 4.64708 90.4231 4.06283 90.5296 3.49916C90.6362 2.9355 90.8992 2.41775 91.2853 2.01136C91.6716 1.60498 92.1635 1.32821 92.6983 1.21605C93.2341 1.10388 93.7891 1.16135 94.2937 1.38119C94.7984 1.60105 95.23 1.9734 95.5326 2.45118C95.8361 2.92896 95.9989 3.49072 95.9989 4.06542C95.998 4.83614 95.7063 5.57504 95.1888 6.12003C94.6713 6.66501 93.9692 6.97157 93.2368 6.97245ZM93.2368 1.84352C92.819 1.84332 92.4103 1.97355 92.0629 2.21771C91.7155 2.46187 91.4448 2.80901 91.285 3.2152C91.1251 3.6214 91.0831 4.0684 91.1646 4.49967C91.2461 4.93094 91.4476 5.32709 91.7429 5.63802C92.0382 5.94894 92.414 6.16067 92.8245 6.24642C93.2341 6.33216 93.6583 6.28808 94.0441 6.11974C94.43 5.9514 94.76 5.66636 94.9923 5.30069C95.2245 4.93502 95.3479 4.50514 95.3479 4.06543C95.347 3.47643 95.1239 2.91179 94.7289 2.49528C94.3331 2.07878 93.7964 1.8444 93.2368 1.84352Z" fill="white"/>
<path d="M92.1602 2.66826H92.77V5.35673H92.1602V2.66826ZM93.4237 4.38022H92.6712V3.88064H93.3231C93.3771 3.88153 93.4301 3.87393 93.4813 3.85809C93.5252 3.84482 93.5654 3.82174 93.6002 3.79044C93.6322 3.76012 93.6578 3.72204 93.6724 3.67944C93.6916 3.63097 93.6998 3.57905 93.6989 3.52684C93.7007 3.47289 93.6916 3.41921 93.6724 3.36899C93.6568 3.32769 93.6322 3.29043 93.602 3.25968C93.5682 3.22911 93.5288 3.20558 93.4868 3.19034C93.4338 3.17365 93.3789 3.16545 93.3231 3.16603H92.6712V2.66825H93.4319C93.5563 2.66535 93.6797 2.68469 93.7976 2.72547C93.8991 2.75974 93.9915 2.81721 94.0683 2.89369C94.1442 2.96847 94.2027 3.06041 94.2392 3.16254C94.2822 3.27861 94.3032 3.40237 94.3005 3.52682C94.3051 3.67808 94.2676 3.82747 94.1935 3.95695C94.124 4.07878 94.0198 4.17508 93.8964 4.23274C93.751 4.3022 93.5919 4.33544 93.4319 4.32987L93.4237 4.38022ZM93.5462 4.13387L94.4029 5.35498H93.7026L92.9693 4.2761L93.5462 4.13387Z" fill="white"/>
</g>
<defs>
<clipPath id="clip0_1119_897">
<rect width="96" height="37" fill="white"/>
</clipPath>
</defs>
</svg>
