<svg width="159" height="12" viewBox="0 0 159 12" fill="none" xmlns="http://www.w3.org/2000/svg">
<path fill-rule="evenodd" clip-rule="evenodd" d="M157.823 1.84864C156.908 0.778132 155.779 0.298595 154.554 0.298595C154.281 0.298595 154.103 0.288675 153.739 0.392614C152.651 0.724095 151.948 1.25081 151.264 2.17056C150.539 3.15221 150.292 4.32297 150.243 5.3096C150.186 6.42739 150.203 7.53817 150.572 8.53334C150.965 9.6607 151.638 10.5641 152.404 11.0986C152.939 11.4724 154.037 11.6782 154.698 11.6782C155.202 11.6782 156.011 11.6782 156.659 11.351C157.144 11.1062 157.622 10.6544 157.974 10.183C158.261 9.7583 158.754 8.88278 158.794 7.78394C158.802 7.5951 158.739 7.44769 158.604 7.31955C158.867 7.03202 158.998 6.68723 158.998 6.28968C158.998 6.08064 158.949 5.77756 158.855 5.37395L158.851 5.36009C158.77 4.96701 158.71 4.67563 158.71 4.48983C158.71 4.31696 158.828 4.16991 158.794 4.03951C158.578 3.18363 158.2 2.28974 157.823 1.84864ZM157.053 8.71216C157.465 7.99708 157.549 6.69615 157.549 5.8843C157.549 5.07087 157.409 4.41385 157.029 4.34838C157.16 4.2748 157.269 4.12619 157.283 4.00753C157.293 3.89796 157.307 3.7231 157.26 3.55246C157.171 3.23058 157.109 3.16119 156.826 2.90287C156.497 2.60332 156.285 2.64188 156.064 2.21003C156.064 2.21003 155.69 1.53672 154.507 1.67176C152.666 1.97553 151.693 3.84093 151.944 6.39614C152.194 6.50216 152.244 6.67207 152.244 6.88012C152.244 6.96108 152.197 7.12649 152.126 7.31895C152.053 7.51151 152.071 7.7881 152.079 7.87962C152.132 8.06709 152.159 8.35971 152.401 8.47285C152.835 8.6756 153.093 9.09324 153.141 9.30447C153.201 9.57334 153.522 9.92125 153.788 10.0042C153.901 10.054 154.308 10.0407 154.752 10.0468C155.116 10.073 155.316 10.0692 155.497 10.3536C155.56 10.0774 156.387 9.86711 157.053 8.71216Z" fill="#0A0620"/>
<path d="M134.452 8.11067C134.499 9.9096 133.273 10.7989 132.725 11.0865C132.177 11.3742 131.572 11.6463 130.933 11.6463C130.458 11.6463 129.884 11.5587 129.363 11.3455C127.117 10.4279 126.726 7.71744 126.695 7.40758C126.668 7.1259 126.555 6.2072 126.555 5.9409C126.555 5.38602 126.661 3.89797 127.169 2.8253C127.677 1.75264 129.195 0.426431 130.332 0.339881C131.468 0.253359 131.494 0.357233 131.711 0.58565C132.083 0.30957 132.781 0.905856 133.05 0.905856C133.325 0.905856 133.589 0.844524 133.846 0.710828C134.252 1.48082 134.452 2.25051 134.452 3.32506C134.452 3.93075 134.382 4.62415 134.252 5.1162C133.92 5.12117 133.36 5.04681 133.134 4.70246C132.836 4.26923 132.951 3.97302 132.745 3.88207C133.004 3.74434 132.957 3.42281 132.957 3.25392C132.957 3.15843 132.97 3.08163 132.757 2.81978C132.541 2.5539 132.785 2.33706 132.807 2.17115C132.361 2.13897 132.257 1.82968 131.708 1.91439C131.158 1.99911 131.057 1.72683 130.76 1.6348C130.477 1.97881 130.43 1.66971 129.736 2.12238C129.042 2.57507 128.526 3.35243 128.445 3.92122C128.323 4.76576 128.085 5.12167 128.085 5.12167C128.085 5.12167 128.26 5.33806 128.203 5.81742C128.135 6.39916 128.189 6.88139 128.476 7.04516C128.333 7.09596 128.323 7.52663 128.35 7.71323C128.39 7.99545 128.466 8.15928 128.675 8.60883L128.696 8.6559C128.865 9.09112 129.355 9.64757 129.862 9.87484C130.335 10.0861 131.189 10.261 132.256 9.54302C132.529 9.3596 132.853 8.97431 132.871 8.68338C132.886 8.44456 133.078 8.56083 132.997 8.4311C132.906 8.304 133.029 7.93294 133.201 7.75532C133.402 7.54809 133.654 7.41809 133.973 7.52778C134.292 7.63742 134.452 7.88554 134.452 8.11067Z" fill="#0A0620"/>
<path d="M110.932 10.4723C110.932 11.1581 110.57 11.6277 108.854 11.5716C106.332 11.489 103.901 11.089 103.545 11.587C103.097 11.2841 102.59 11.5696 102.381 11.6457C102.016 11.5949 101.738 11.5846 101.738 11.2364C101.738 11.0268 101.794 10.8071 101.902 10.5679C102.012 10.3583 102.42 10.1406 103.074 9.93104C103.654 9.73 103.895 9.6208 103.924 8.93155C103.941 8.5352 103.936 2.56153 103.924 2.17052C103.913 1.77949 103.614 1.61697 103.329 1.63715C102.795 1.97453 101.94 1.78045 101.958 1.12585C101.924 0.659045 102.218 0.392552 102.749 0.298533L106.373 0.29834C107.42 0.29834 107.878 0.661477 107.878 0.661477C107.878 0.661477 107.396 1.39144 106.602 1.58544C106.003 1.7317 105.453 2.26794 105.453 2.64996C105.453 2.86306 105.414 3.73539 105.427 3.72434C105.608 3.90374 105.751 4.25083 105.594 4.55962C105.326 5.29099 105.323 6.11682 105.594 6.47742C105.811 6.89693 105.436 7.38753 105.436 7.38753C105.445 7.43078 105.722 8.19851 105.515 8.68775C105.375 9.01984 105.601 9.51362 105.924 9.80915C106.206 10.0916 108.235 10.0333 108.649 10.0042C109.115 9.94385 109.216 9.64001 109.312 9.29172C109.097 9.17108 109.2 8.60242 109.2 8.41144C109.2 8.31089 109.318 7.97223 109.318 7.85154C109.318 7.70632 109.315 7.41944 109.201 7.31326C109.139 7.25502 109.148 7.14587 109.212 7.0896C109.613 6.73797 110.436 6.70365 110.666 6.9833C110.932 7.30625 110.823 8.15139 110.73 8.52168C110.59 9.08197 111.012 9.09406 110.618 9.67909C110.722 9.90838 110.932 9.78665 110.932 10.4723Z" fill="#0A0620"/>
<path d="M85.0592 11.2725C85.0592 11.2725 84.7057 10.9505 84.3347 11.175C83.9563 11.4037 83.5482 11.326 83.3266 11.0775C83.2005 11.5722 79.0268 11.3571 78.6171 11.3571C78.0616 11.3571 77.7855 10.9198 77.9604 10.2808C78.0463 9.96825 78.3113 9.70852 78.6234 9.68772C79.1688 9.65132 79.3638 9.81181 79.4237 9.92583C79.6023 9.84093 79.6092 9.74475 80.0051 9.69511C80.2982 9.65827 80.7434 9.71224 80.9639 9.50096C81.1844 9.28967 81.1452 8.45483 81.1452 7.79793C81.0344 7.51823 80.9406 7.18909 81.116 6.4456C80.9761 6.26267 80.9994 6.0677 81.1017 5.89309C81.2952 5.56295 81.1097 5.32506 81.1049 5.10488C81.1028 5.00186 80.8219 2.77247 81.2793 2.23616C80.9167 1.84609 80.6947 1.89249 80.1451 1.81358C79.6808 1.76383 79.2207 1.78172 78.7687 1.72748C78.2826 1.63742 78.3966 0.805949 78.3966 0.805949C78.3966 0.805949 79.8244 0.429199 81.1176 0.429199L81.5957 0.429207L84.9771 0.429199C85.374 0.429089 85.5993 0.603782 85.5966 0.924258C85.5945 1.24475 85.3226 1.5812 84.7645 1.68574C84.2764 1.72095 83.7676 1.76113 83.2578 1.78976C82.7113 1.87168 82.6016 2.37489 82.6016 2.67496C82.6016 2.91366 82.6493 3.21131 82.8645 3.34836C82.6334 3.53635 82.6774 4.26009 82.6774 4.78883C82.6774 4.9926 82.6164 6.28084 82.6885 7.10376C82.9843 8.42018 82.8385 9.1109 82.6806 9.48475C82.8698 9.69598 84.6204 9.74629 85.1308 9.79002C85.6544 9.83929 85.8314 10.0751 85.8314 10.3249C85.8314 10.5461 85.0592 11.2725 85.0592 11.2725Z" fill="#0A0620"/>
<path d="M58.6203 11.8579C59.445 11.3574 61.4977 11.6289 61.6418 11.5478C61.9323 11.3841 62.1066 10.4358 61.4489 10.2687C61.4489 10.2687 60.0513 10.3656 59.9803 9.86181C59.9744 9.77259 59.9739 8.58464 59.9744 7.60211C59.9755 6.78549 60.0545 5.10767 60.0539 4.7092C60.0524 4.16417 59.8494 3.84782 60.038 3.409C59.8806 3.31147 60.0783 2.01497 60.1859 1.79701C60.3709 1.42257 60.8012 1.41689 61.0991 1.29377C61.3943 1.15857 61.7033 0.885961 61.3789 0.618869C61.0578 0.354965 60.8627 0.741192 60.47 0.445539C60.2352 0.459696 59.6029 0.627444 58.7205 0.546172C58.0776 0.48694 58.0171 1.04012 57.8518 1.31655C57.6721 1.58548 57.5863 2.06353 57.5863 2.18766C57.5863 2.29071 57.617 2.39223 57.6499 2.52896C57.4098 2.73071 57.3234 3.10328 57.1453 3.42285C56.9163 3.83343 56.6513 4.28256 56.4685 4.64178C56.3344 4.90397 56.2973 5.06142 56.1531 5.05215C56.0397 5.04485 55.7413 4.71516 55.5076 4.17045C55.2209 3.5026 54.4683 1.3913 54.4683 1.3913C54.4683 1.3913 54.296 0.749122 53.9012 0.627444C53.4989 0.502809 52.7358 0.204854 51.4126 0.676194C50.9932 0.825596 50.2267 0.666082 50.214 0.984969C50.1974 1.40405 51.1448 1.73259 51.4126 1.60258C51.4912 2.22018 51.8719 2.15247 51.9244 2.44769C51.9769 2.74292 51.9511 2.81103 51.8323 2.95273C52.0144 3.24628 51.8128 5.88398 51.8287 6.11573C51.8457 6.37267 52.0196 6.5504 52.0196 6.5504C52.0196 6.69463 51.9511 6.77049 51.8323 6.87959C51.9511 7.05748 51.9264 9.40443 51.8061 9.76132C51.7258 10.0427 51.5895 10.343 51.3917 10.3463C50.6723 10.3585 49.8479 10.5171 49.8524 10.9477C49.8348 11.1987 50.0865 11.8501 50.0896 11.8579L52.1472 11.657C52.1472 11.657 53.2143 11.6573 53.8376 11.657C54.4619 11.6565 54.791 10.7811 54.791 10.7811C54.791 10.7811 53.5159 10.6037 53.3834 10.2489C53.2418 9.89553 53.4485 9.615 53.1825 9.2798C53.3123 9.01164 53.3542 8.85575 53.3362 8.51189C53.3182 8.16804 53.2259 7.92106 53.1692 7.73753C53.4305 7.05524 53.2763 5.9784 53.2185 5.27775C53.1873 4.89909 53.2768 3.30139 53.6961 3.19532C53.7157 3.42855 54.0151 4.96217 54.348 5.32404C54.6691 5.68489 54.5467 6.42144 54.8128 6.7012C54.8928 6.78281 55.1493 6.93339 55.1493 7.11621C55.1493 7.37326 55.4318 7.7811 55.9051 7.81099C56.124 7.82478 56.2475 7.89627 56.5194 7.14062C56.7483 6.50327 57.3345 6.08382 57.3345 5.71441C57.3345 5.28781 57.8263 4.58672 58.0065 4.25748C58.1867 3.92826 58.3134 3.88603 58.4093 3.88603C58.7205 3.88603 58.244 5.54378 58.6251 5.77839C58.386 6.6354 58.4215 8.53017 58.6351 8.90611C58.7099 9.08718 58.6288 9.34449 58.4735 9.41182C58.6288 9.60931 58.6351 9.68014 58.6351 9.80379C58.6351 10.0109 58.385 10.1827 57.8767 10.3159C57.3637 10.4517 57.043 10.6466 57.043 10.9396C57.043 11.0562 56.9646 11.3784 57.2248 11.5478C57.3562 11.6334 58.059 11.3574 58.6203 11.8579Z" fill="#0A0620"/>
<path fill-rule="evenodd" clip-rule="evenodd" d="M34.4973 10.5171C34.4501 10.1879 34.2132 10.3396 33.9008 10.1676C33.4283 9.90759 33.2688 10.066 33.1448 9.96851C33.0208 9.87097 32.9429 9.50543 32.8436 9.38343C32.7443 9.26142 32.6014 9.23312 32.5116 8.9371C32.3519 8.41097 31.5214 5.29718 31.4595 4.88557V4.6825C31.4595 4.45733 31.4479 3.9682 31.2234 3.56911C31.0105 3.17157 31.0213 2.75625 31.0213 2.59585C31.0213 2.3999 31.0225 2.25878 31.0815 2.15516C30.804 2.05156 30.6918 1.4272 30.6721 1.32628C30.5717 0.789968 30.5343 0.42907 30.5343 0.42907C30.5343 0.42907 30.1172 0.294922 29.6249 0.294922C29.5745 0.294922 29.5233 0.29633 29.4717 0.299434C28.916 0.332858 28.649 0.844091 28.6679 1.13127C28.6802 1.31774 28.7499 1.55149 28.8557 1.63994C28.6199 1.71532 28.5252 1.91332 28.4877 2.17516C28.4789 2.38682 28.4634 2.6079 28.4391 2.83561C28.3952 3.04825 26.6898 8.7499 26.4474 9.28911C26.205 9.82838 25.9726 9.82794 25.4962 9.94601C24.9492 10.0787 24.8248 10.053 24.7049 10.2428C24.4391 10.6633 24.6555 11.263 24.9933 11.1305C25.1628 11.064 25.5024 11.1304 25.5993 11.2628C25.6655 11.3533 25.7762 11.3871 25.8854 11.3751C26.4168 11.3165 27.3406 11.3646 28.6797 11.1631C28.9097 11.1284 28.8793 10.6224 28.8416 10.4256C28.8039 10.2288 28.6333 10.0954 28.3844 10.0538C27.9775 9.98482 27.6816 9.9563 27.6225 9.81612C27.5634 9.676 27.9411 9.19677 27.6578 8.90306C27.7977 8.85319 28.036 8.04872 28.036 8.04872C28.036 8.04872 29.634 8.09317 29.7251 8.09136C30.3276 8.07916 30.4098 8.02409 30.4752 7.89229C30.7474 7.94938 30.7791 7.96733 30.9241 8.11977C31.0435 8.24545 31.1918 8.46111 31.3001 8.9873C31.392 9.43411 31.4873 9.95012 31.5068 10.1514C31.4882 9.9586 30.9184 9.83599 30.6299 9.8425C30.1432 9.85362 29.9989 10.3528 29.9989 10.3528C29.9989 10.3528 30.2767 11.401 31.1918 11.2403C32.6723 10.9803 33.261 11.2758 33.9366 11.1144C34.4976 10.9803 34.507 10.5847 34.4973 10.5171ZM29.8963 6.83614C30.3987 6.83986 30.5244 6.87577 30.6248 6.72212C30.6713 6.61166 30.3902 5.44599 30.1523 4.41425C29.9685 3.6167 29.6654 2.25777 29.6654 2.25777C29.432 2.34217 29.3963 2.55298 29.3963 2.95154C29.3963 3.03996 29.2861 3.69849 29.2861 3.78041C29.2861 4.05782 29.0819 4.24544 28.8911 4.35051C29.0819 4.53241 28.8392 6.00091 28.5911 6.40312C28.4134 6.69136 28.3844 6.81627 28.3844 6.81627C28.3844 6.81627 29.1713 6.83072 29.8963 6.83614Z" fill="#0A0620"/>
<path d="M8.87056 1.2248C8.91995 0.971242 8.80182 0.735588 8.62008 0.615752C8.48228 0.524874 8.39621 0.482488 7.94004 0.482488C7.72698 0.482488 7.58865 0.543801 7.50411 0.686055C7.23434 0.543801 6.92207 0.482488 6.56649 0.482488C6.42795 0.482488 3.74368 0.451578 3.23427 0.482488C2.83265 0.506858 2.52944 0.904266 2.72634 1.17958C3.69101 2.52853 3.1822 1.69713 3.74374 1.69174C4.30526 1.68636 4.68251 1.77913 4.89587 1.86514C5.10922 1.95114 5.41459 2.25265 5.41459 2.49344C5.41459 2.49344 5.34717 2.72007 5.2022 3.20915C5.12068 3.4976 5.18837 3.73783 5.41459 3.92032C5.2022 4.05097 5.15576 4.26764 5.28484 4.56414C5.41459 4.85769 5.3803 5.06522 5.2022 5.18987C5.34717 5.36831 5.41459 5.5664 5.41459 5.78954C5.41459 5.84931 5.35666 6.16898 5.23801 6.75499C5.15576 7.12496 5.23647 7.50362 5.29025 7.87189C5.30731 7.97518 5.24359 8.16917 5.14787 8.26157C5.3159 8.45457 5.08342 9.15848 4.78584 9.38515C4.46778 9.64854 4.27608 9.88824 4.22226 10.0782C4.13218 9.9456 4.03468 9.87493 3.90616 9.86661C3.77763 9.8584 3.71913 9.93602 3.39644 10.0465C3.05708 10.1448 2.31663 9.69173 2.0992 9.36703C2.38973 9.37864 2.65939 9.05169 2.72239 8.91868C2.78539 8.78567 2.82965 8.59207 2.74453 8.22719C2.52748 7.68146 2.15934 7.26207 1.4442 7.26601C0.783192 7.26207 0.3489 7.64638 0.194542 8.03293C0.0521853 8.34334 0 8.62786 0 8.88113C0 9.37037 0.194756 9.74313 0.310401 9.96114C0.398155 10.1266 0.731723 10.6102 1.24978 10.9828C1.76784 11.3552 2.48837 11.629 2.99533 11.6658C3.50228 11.7024 4.07688 11.6978 4.94538 11.3734C6.10724 10.8585 6.84219 9.26358 6.84219 7.49886C6.84219 7.11138 6.80202 6.48864 6.72793 5.63472C6.65267 4.78425 6.61477 4.14048 6.61477 3.71124C6.61477 3.19912 6.66247 2.73264 6.72793 2.31102C6.85046 1.92298 7.11403 1.73401 7.55059 1.73401C7.60836 1.73401 7.69459 1.7415 7.82466 1.75158C7.94004 1.76363 8.05059 1.77017 8.12294 1.77017C8.4685 1.77017 8.82545 1.66198 8.87056 1.2248Z" fill="#0A0620"/>
</svg>
