<svg width="155" height="18" viewBox="0 0 155 18" fill="none" xmlns="http://www.w3.org/2000/svg">
<path d="M10.6889 3.31697C10.7538 3.01384 10.6023 2.75401 10.3858 2.60245C10.2125 2.49419 10.1259 2.45089 9.56299 2.45089C9.30317 2.45089 9.12995 2.51584 9.04334 2.68906C8.71857 2.51584 8.35048 2.45089 7.91745 2.45089C7.74423 2.45089 4.5181 2.40758 3.8902 2.45089C3.41385 2.47254 3.04577 2.94888 3.28394 3.27366C4.45314 4.85426 3.82524 3.87992 4.5181 3.87992C5.18931 3.87992 5.644 3.98818 5.90382 4.07479C6.16364 4.18305 6.53173 4.52948 6.53173 4.81095C6.53173 4.81095 6.44512 5.07078 6.2719 5.65538C6.16364 6.00181 6.25025 6.28329 6.53173 6.47816C6.2719 6.62972 6.2286 6.88954 6.38016 7.23598C6.53173 7.58241 6.48842 7.82058 6.2719 7.97214C6.44512 8.18866 6.53173 8.40518 6.53173 8.665C6.53173 8.72996 6.46677 9.1197 6.31521 9.79091C6.20695 10.224 6.31521 10.657 6.38016 11.09C6.40181 11.2199 6.31521 11.4365 6.20695 11.5447C6.40181 11.7612 6.12034 12.584 5.77391 12.8655C5.38418 13.1686 5.16766 13.4501 5.1027 13.6666C4.99444 13.5151 4.88618 13.4284 4.71297 13.4284C4.53975 13.4284 4.49645 13.515 4.10671 13.645C3.69533 13.7532 2.8076 13.2336 2.54778 12.8438C2.89421 12.8655 3.21899 12.4758 3.30559 12.3242C3.3922 12.1726 3.43551 11.9345 3.32725 11.5231C3.06742 10.8952 2.61273 10.3972 1.74666 10.3972C0.945538 10.3972 0.425893 10.8519 0.231026 11.2849C-0.266967 12.3458 0.16607 13.147 0.360937 13.5367C0.469197 13.7316 0.858931 14.2945 1.48684 14.7276C2.11474 15.1606 2.98082 15.4854 3.58707 15.5287C4.19332 15.572 4.88618 15.572 5.94712 15.1823C7.3545 14.576 8.24222 12.7139 8.24222 10.657C8.24222 10.2023 8.19892 9.46613 8.11231 8.47014C8.02571 7.47415 7.9824 6.71633 7.9824 6.21833C7.9824 5.61208 8.04736 5.07078 8.11231 4.57278C8.26388 4.11809 8.58865 3.90157 9.1083 3.90157C9.17326 3.90157 9.28152 3.90157 9.43308 3.92322C9.56299 3.94487 9.71455 3.94488 9.80116 3.94488C10.1909 3.94488 10.6239 3.81496 10.6889 3.31697Z" fill="#615E71"/>
<path d="M31.7112 10.0709C31.5813 10.2657 31.4297 10.2224 30.8018 10.2008C29.8924 10.2008 28.8965 10.1791 28.8965 10.1791C28.8965 10.1791 28.9398 10.0276 29.1563 9.68113C29.4594 9.18313 29.7842 7.40767 29.5244 7.16949C29.7625 7.03958 30.0224 6.80141 30.0224 6.47663C30.0224 6.36837 30.1523 5.56725 30.1523 5.45899C30.1523 4.98265 30.1956 4.72282 30.4987 4.61456C30.4987 4.61456 30.8884 6.28176 31.105 7.2561C31.4297 8.51192 31.7762 9.94095 31.7112 10.0709ZM36.6045 14.7044C36.5396 14.293 36.2364 14.4879 35.8467 14.2713C35.2621 13.9466 35.0456 14.1414 34.894 14.0332C34.7425 13.9249 34.6342 13.4702 34.5043 13.3187C34.3744 13.1671 34.2012 13.1454 34.0929 12.7774C33.898 12.1278 32.8371 8.3387 32.7721 7.84071C32.7721 7.77575 32.7721 7.68914 32.7721 7.60253C32.7721 7.32106 32.7505 6.73645 32.469 6.23846C32.2092 5.76211 32.2092 5.24247 32.2092 5.0476C32.2092 4.80943 32.2092 4.63621 32.2958 4.5063C31.9494 4.37639 31.7978 3.61857 31.7762 3.48866C31.6462 2.8391 31.6029 2.3844 31.6029 2.3844C31.6029 2.3844 30.975 2.18954 30.2605 2.23284C29.546 2.27615 29.2212 2.90405 29.2429 3.25048C29.2645 3.48866 29.3511 3.77013 29.4811 3.87839C29.1779 3.965 29.0697 4.20317 29.0264 4.52795C29.0047 4.78778 29.0047 5.0476 28.9614 5.32908C28.8965 5.5889 26.7529 12.5608 26.4498 13.2104C26.1467 13.86 25.8435 13.86 25.2589 14.0115C24.5661 14.1631 24.4145 14.1414 24.263 14.3796C23.9382 14.8993 24.198 15.6354 24.631 15.4622C24.8476 15.3756 25.2806 15.4622 25.3889 15.6138C25.4755 15.722 25.6054 15.7653 25.7569 15.7437C26.4281 15.6787 27.5973 15.722 29.2862 15.4839C29.5677 15.4405 29.546 14.8343 29.4811 14.5745C29.4378 14.3363 29.2212 14.1631 28.8965 14.1198C28.3768 14.0332 28.0087 14.0115 27.9438 13.8383C27.8788 13.6651 28.3552 13.0805 27.9871 12.7341C28.1603 12.6691 28.4634 11.6948 28.4634 11.6948C28.4634 11.6948 30.477 11.7597 30.5853 11.7381C31.3431 11.7164 31.4514 11.6515 31.538 11.4999C31.8844 11.5648 31.9277 11.5865 32.1009 11.7814C32.2525 11.9329 32.4474 12.1928 32.5773 12.8423C32.6855 13.3836 32.8154 14.0115 32.8371 14.2713C32.8154 14.0332 32.1009 13.8816 31.7329 13.9033C31.1266 13.9249 30.9317 14.5312 30.9317 14.5312C30.9317 14.5312 31.2782 15.8086 32.4257 15.6138C34.2878 15.289 35.0239 15.6571 35.89 15.4622C36.6045 15.2673 36.6045 14.791 36.6045 14.7044Z" fill="#615E71"/>
<path d="M63.041 15.3983C62.8678 15.4849 60.3778 15.1818 59.3818 15.7664C58.7106 15.1818 57.8662 15.5066 57.693 15.3983C57.3682 15.2034 57.4765 14.8137 57.4765 14.6838C57.4765 14.3374 57.8662 14.1208 58.4725 13.9476C59.0787 13.7961 59.3818 13.6012 59.3818 13.3414C59.3818 13.1898 59.3818 13.1032 59.187 12.8867C59.3818 12.8001 59.4685 12.4969 59.3818 12.3021C59.122 11.869 59.0787 9.63887 59.3602 8.64288C58.9055 8.36141 59.4685 6.43438 59.1004 6.43438C58.9921 6.43438 58.8406 6.47768 58.624 6.86742C58.4075 7.25716 57.8229 8.07993 57.8229 8.57793C57.8229 9.01096 57.1084 9.50896 56.8486 10.2451C56.5238 11.1329 56.3722 11.0463 56.1124 11.0246C55.5495 10.9813 55.203 10.505 55.203 10.2018C55.203 9.9853 54.8999 9.81209 54.7916 9.72548C54.4669 9.4007 54.6184 8.53462 54.2287 8.12323C53.8173 7.69019 53.4709 5.91473 53.4492 5.63326C52.9512 5.76317 52.843 7.62524 52.8646 8.07993C52.9296 8.9027 53.1245 10.1585 52.7997 10.9596C52.8646 11.1762 52.9729 11.4576 52.9945 11.869C53.0162 12.2804 52.9729 12.4536 52.7997 12.7784C53.1245 13.1681 52.8646 13.4929 53.0378 13.9043C53.1894 14.3157 54.7483 14.5322 54.7483 14.5322C54.7483 14.5322 54.3586 15.5499 53.6008 15.5499C52.843 15.5499 51.5655 15.5499 51.5655 15.5499L49.0756 15.788C49.0756 15.788 48.7724 15.0086 48.7941 14.7271C48.7941 14.2291 49.7901 14.0342 50.6561 14.0342C50.8943 14.0342 51.0675 13.6878 51.1541 13.3414C51.3057 12.93 51.3273 10.1802 51.1758 9.96365C51.3273 9.83374 51.3923 9.74713 51.3923 9.57392C51.3923 9.57392 51.1758 9.3574 51.1541 9.07592C51.1325 8.79445 51.3706 5.71986 51.1541 5.37343C51.3057 5.20022 51.3273 5.13526 51.2624 4.78883C51.1974 4.4424 50.7427 4.529 50.6345 3.79284C50.3097 3.9444 49.1622 3.55467 49.1838 3.07832C49.2055 2.71024 50.1148 2.88345 50.6345 2.71024C52.2367 2.16894 53.1461 2.51537 53.6441 2.64528C54.1204 2.79685 54.337 3.53301 54.337 3.53301C54.337 3.53301 55.2463 6.00134 55.5928 6.78081C55.8742 7.40872 56.2423 7.79845 56.3722 7.82011C56.5455 7.84176 56.5888 7.64689 56.762 7.34376C56.9785 6.93238 57.3033 6.39107 57.5847 5.91473C57.8013 5.54665 57.9095 5.11361 58.191 4.87544C58.1477 4.72387 58.1044 4.59396 58.1044 4.4857C58.1044 4.33414 58.2126 3.77118 58.4292 3.46806C58.624 3.14328 58.7106 2.49372 59.4685 2.55867C60.5294 2.64528 61.2872 2.45041 61.5903 2.45041C62.0667 2.79685 62.3049 2.34216 62.6946 2.64528C63.0843 2.94841 62.7162 3.27319 62.3482 3.42475C61.9801 3.57632 61.4604 3.57632 61.2439 4.00936C61.114 4.26918 60.8758 5.78482 61.0707 5.89308C60.8325 6.41273 61.0923 6.78081 61.0923 7.40872C61.0923 7.88506 61.0057 9.83374 61.0057 10.7864C61.0057 11.934 61.0057 13.3197 61.0057 13.428C61.0923 14.0126 62.7812 13.9043 62.7812 13.9043C63.604 14.0775 63.4091 15.2034 63.041 15.3983Z" fill="#615E71"/>
<path d="M84.3509 15.3763C84.3509 15.3763 83.9178 14.9866 83.4631 15.268C82.9868 15.5495 82.4888 15.4412 82.2073 15.1598C82.0557 15.7444 76.8809 15.4845 76.383 15.4845C75.6901 15.4845 75.3437 14.9649 75.5602 14.1854C75.6684 13.8173 75.9932 13.4926 76.383 13.4709C77.0542 13.4276 77.2923 13.6225 77.3789 13.7524C77.5955 13.6441 77.6171 13.5359 78.0935 13.4709C78.4615 13.4276 79.0028 13.4926 79.2843 13.2327C79.5658 12.9729 79.5008 11.9769 79.5008 11.1975C79.3709 10.8727 79.241 10.4613 79.4575 9.57356C79.2843 9.35704 79.306 9.11887 79.4359 8.90235C79.674 8.51261 79.4359 8.23114 79.4359 7.94966C79.4359 7.81975 79.0894 5.15655 79.6524 4.50699C79.1977 4.03065 78.9379 4.09561 78.245 4.009C77.6604 3.94404 77.0975 3.96569 76.5345 3.90074C75.9283 3.79248 76.0798 2.79649 76.0798 2.79649C76.0798 2.79649 77.8553 2.3418 79.4575 2.3418C79.8256 2.3418 83.7446 2.3418 84.2426 2.3418C84.7406 2.3418 85.0221 2.55832 85.0004 2.9264C85.0004 3.31614 84.654 3.70587 83.9611 3.83579C83.3549 3.87909 82.727 3.92239 82.0991 3.9657C81.4278 4.07396 81.2979 4.65856 81.2979 5.02664C81.2979 5.30812 81.3629 5.6762 81.6227 5.82777C81.3412 6.04429 81.3845 6.93202 81.3845 7.55993C81.3845 7.7981 81.3196 9.35704 81.4062 10.3314C81.7743 11.912 81.6011 12.7347 81.4062 13.1894C81.6444 13.4493 83.8096 13.4926 84.4375 13.5575C85.087 13.6225 85.3035 13.904 85.3035 14.2071C85.3035 14.5102 84.3509 15.3763 84.3509 15.3763Z" fill="#615E71"/>
<path d="M110.244 14.1215C110.244 14.9226 109.811 15.4639 107.733 15.3989C104.68 15.3123 101.757 14.836 101.324 15.4206C100.782 15.0742 100.176 15.3989 99.9162 15.4856C99.4832 15.4206 99.1367 15.4206 99.1367 15.0092C99.1367 14.771 99.2017 14.5112 99.3316 14.2297C99.4615 13.9916 99.9595 13.7317 100.739 13.4936C101.432 13.2554 101.735 13.1255 101.757 12.3244C101.778 11.8697 101.778 4.87608 101.757 4.42139C101.735 3.9667 101.389 3.77183 101.042 3.79348C100.393 4.18322 99.3749 3.9667 99.3965 3.18723C99.3532 2.64593 99.7213 2.32115 100.349 2.21289C100.349 2.21289 103.467 2.21289 104.723 2.21289C105.979 2.21289 106.542 2.64593 106.542 2.64593C106.542 2.64593 105.957 3.49036 105.004 3.72853C104.29 3.90174 103.619 4.52965 103.619 4.98434C103.619 5.24416 103.575 6.26181 103.597 6.24016C103.814 6.45668 103.987 6.84641 103.792 7.2145C103.467 8.08057 103.467 9.03326 103.792 9.4663C104.052 9.9643 103.597 10.5272 103.597 10.5272C103.597 10.5706 103.943 11.4799 103.684 12.0429C103.51 12.4326 103.792 13.0172 104.182 13.3637C104.528 13.6884 106.975 13.6235 107.473 13.6018C108.036 13.5369 108.166 13.1688 108.274 12.7574C108.014 12.6058 108.144 11.9563 108.144 11.7181C108.144 11.6098 108.295 11.1985 108.295 11.0685C108.295 10.8953 108.295 10.5706 108.144 10.4406C108.079 10.3757 108.079 10.2458 108.166 10.1808C108.642 9.76943 109.638 9.72613 109.919 10.0509C110.244 10.419 110.114 11.415 110.006 11.848C109.833 12.4976 110.352 12.5192 109.876 13.2121C109.984 13.4719 110.244 13.3204 110.244 14.1215Z" fill="#615E71"/>
<path d="M131.615 11.3711C131.68 13.4713 130.186 14.5106 129.536 14.857C128.865 15.2035 128.151 15.5066 127.371 15.5066C126.808 15.5066 126.115 15.3983 125.466 15.1602C122.759 14.0776 122.283 10.9164 122.24 10.5483C122.196 10.2235 122.066 9.14092 122.066 8.83779C122.066 8.18823 122.196 6.45607 122.803 5.20026C123.409 3.94444 125.249 2.3855 126.613 2.29889C127.977 2.21229 128.021 2.32055 128.28 2.58037C128.735 2.25559 129.58 2.94845 129.904 2.94845C130.229 2.94845 130.554 2.8835 130.857 2.71028C131.355 3.61966 131.593 4.5074 131.593 5.76321C131.593 6.47773 131.507 7.27885 131.355 7.86345C130.965 7.86345 130.272 7.77684 130.013 7.38711C129.645 6.88911 129.796 6.54268 129.536 6.43442C129.839 6.28286 129.796 5.89312 129.796 5.69825C129.796 5.58999 129.818 5.50339 129.558 5.20026C129.298 4.89713 129.601 4.63731 129.623 4.44244C129.082 4.39914 128.952 4.0527 128.302 4.13931C127.653 4.22592 127.523 3.92279 127.155 3.81453C126.808 4.22592 126.765 3.85784 125.92 4.37749C125.076 4.89713 124.47 5.80652 124.362 6.47773C124.21 7.47372 123.928 7.88511 123.928 7.88511C123.928 7.88511 124.145 8.14493 124.08 8.70788C123.993 9.37909 124.058 9.96369 124.405 10.1369C124.232 10.2019 124.21 10.6999 124.253 10.9164C124.297 11.2628 124.405 11.4577 124.665 12.0206C124.859 12.5403 125.466 13.1898 126.072 13.4497C126.635 13.6878 127.674 13.9044 128.952 13.0599C129.276 12.8434 129.666 12.3887 129.688 12.0639C129.71 11.7825 129.948 11.9124 129.839 11.7608C129.731 11.6092 129.883 11.1762 130.078 10.9597C130.316 10.7215 130.619 10.57 131.009 10.6999C131.42 10.8081 131.615 11.1112 131.615 11.3711Z" fill="#615E71"/>
<path d="M153.269 8.75119C153.269 9.70388 153.161 11.2195 152.663 12.0639C151.862 13.4064 150.866 13.6662 150.779 13.991C150.563 13.6662 150.325 13.6662 149.87 13.6229C149.329 13.6229 148.852 13.6229 148.701 13.5796C148.376 13.493 147.986 13.0816 147.921 12.7568C147.856 12.5186 147.553 12.0206 147.034 11.7825C146.731 11.6526 146.709 11.3061 146.644 11.0896C146.644 10.9813 146.622 10.6566 146.709 10.44C146.796 10.2235 146.86 10.0287 146.86 9.92039C146.86 9.68222 146.796 9.48736 146.492 9.35744C146.189 6.36947 147.358 4.18262 149.589 3.83619C151.018 3.68463 151.472 4.4641 151.472 4.4641C151.732 4.96209 151.992 4.91879 152.382 5.26522C152.728 5.56835 152.793 5.65495 152.901 6.02304C152.966 6.21791 152.945 6.43442 152.923 6.56434C152.901 6.69425 152.771 6.86747 152.62 6.95407C153.096 7.04068 153.269 7.7985 153.269 8.75119ZM153.594 4.03106C152.49 2.77524 151.126 2.21229 149.654 2.21229C149.329 2.21229 149.112 2.19064 148.679 2.32055C147.358 2.71029 146.514 3.31654 145.691 4.39914C144.825 5.54669 144.522 6.91077 144.457 8.07998C144.392 9.37909 144.414 10.6782 144.847 11.8474C145.323 13.1682 146.124 14.2291 147.055 14.857C147.705 15.2901 149.026 15.5283 149.827 15.5283C150.433 15.5283 151.407 15.5283 152.187 15.1385C152.771 14.857 153.356 14.3157 153.767 13.7744C154.114 13.2765 154.698 12.2588 154.763 10.9597C154.763 10.7432 154.698 10.57 154.525 10.4184C154.85 10.072 155.002 9.68222 155.002 9.20588C155.002 8.96771 154.937 8.59962 154.828 8.14493C154.72 7.66859 154.655 7.32216 154.655 7.10564C154.655 6.91077 154.807 6.73755 154.763 6.58599C154.504 5.59 154.049 4.5507 153.594 4.03106Z" fill="#615E71"/>
</svg>
