<svg width="65" height="26" viewBox="0 0 65 26" fill="none" xmlns="http://www.w3.org/2000/svg">
<path d="M4.23104 19.5419C3.8607 19.1638 3.77886 17.8539 3.77886 14.8418L3.77068 11.1942C3.77068 7.99414 3.77068 7.42401 3.8116 6.76805C3.85252 6.05078 4.0162 5.70339 4.6116 5.60121C4.83562 5.56492 5.06193 5.54443 5.28884 5.53991C5.37068 5.53991 5.45252 5.49905 5.45252 5.4173C5.45252 5.29265 5.35022 5.25178 5.12516 5.25178C4.68881 5.25178 3.80979 5.28257 3.29803 5.3005L3.29462 5.30062L3.29171 5.30073C3.08453 5.30797 2.93882 5.31309 2.9093 5.31309C2.88388 5.31309 2.78495 5.30932 2.63646 5.3036L2.63406 5.30353C2.18394 5.28627 1.28317 5.25178 0.591131 5.25178C0.366067 5.25178 0.261719 5.29265 0.261719 5.4173C0.261719 5.49905 0.345606 5.53991 0.427448 5.53991C0.661393 5.53921 0.894918 5.55973 1.12515 5.60121C1.80239 5.74631 1.96607 6.07122 2.00699 6.76805C2.04791 7.42401 2.04791 7.99822 2.04791 11.1942V14.8071C2.04791 16.7729 2.04791 18.3914 1.94561 19.2517C1.86377 19.8463 1.75942 20.2979 1.35021 20.3797C1.14876 20.4268 0.943178 20.4542 0.736398 20.4614C0.613636 20.4614 0.572715 20.5227 0.572715 20.584C0.572715 20.7066 0.675017 20.7475 0.900081 20.7475C1.29609 20.7475 1.65312 20.7308 1.9944 20.7149L1.99641 20.7148C2.30859 20.7002 2.60764 20.6862 2.91134 20.6862C3.93556 20.6862 4.89521 20.7187 5.82605 20.7503C6.70264 20.78 7.55368 20.8088 8.40905 20.8088C9.49755 20.8088 9.55893 20.7271 9.70215 20.2571C9.85802 19.585 9.96063 18.9017 10.0091 18.2136C10.0091 17.9888 10.0091 17.9071 9.88629 17.9071C9.76353 17.9071 9.72261 18.0093 9.70215 18.1727C9.62361 18.6178 9.44061 19.038 9.16813 19.3988C8.67504 19.9914 7.77273 20.0119 6.68629 20.0119C5.09242 20.0119 4.5584 19.8688 4.23104 19.5419Z" fill="#0A0620"/>
<path d="M14.672 14.0633C14.672 17.0141 15.3288 18.2831 16.2106 19.1229C17.2173 20.067 18.14 20.2509 19.3104 20.2509C19.9207 20.2476 20.5233 20.1148 21.0785 19.8616C21.6337 19.6083 22.1287 19.2402 22.5308 18.7817C23.4741 17.6128 23.7196 15.8718 23.7196 13.7608V11.1942C23.7196 7.99822 23.7196 7.42401 23.6787 6.76805C23.6377 6.07122 23.4741 5.74631 22.7968 5.60121C22.5666 5.55964 22.3331 5.53913 22.0991 5.53991C22.0173 5.53991 21.9354 5.49905 21.9354 5.4173C21.9354 5.29265 22.0377 5.25178 22.2628 5.25178C22.936 5.25178 23.7132 5.28427 24.1361 5.30196C24.207 5.30493 24.2683 5.30748 24.3171 5.30939C24.3769 5.31172 24.4184 5.31309 24.4377 5.31309C24.4782 5.31309 24.6022 5.30706 24.7724 5.2988L24.7748 5.29865L24.7779 5.2985C25.151 5.28041 25.7416 5.25178 26.1605 5.25178C26.3876 5.25178 26.4899 5.29265 26.4899 5.4173C26.4899 5.49905 26.4081 5.53991 26.3262 5.53991C26.1536 5.54574 25.9818 5.56624 25.8127 5.60121C25.2582 5.72382 25.0945 6.05078 25.0536 6.76805C25.0127 7.42396 25.0127 7.99407 25.0127 11.1935V13.3869C25.0127 15.6 24.7672 18.0583 23.1242 19.5173C21.649 20.8252 20.1104 21.0295 18.9052 21.0295C18.2075 21.0295 16.1349 20.9478 14.6781 19.5746C13.6735 18.6121 12.894 17.1776 12.894 14.1859V11.1942C12.894 7.99822 12.894 7.42401 12.8531 6.76805C12.8121 6.07122 12.6485 5.74631 11.9712 5.60121C11.741 5.55964 11.5075 5.53913 11.2735 5.53991C11.1917 5.53991 11.1098 5.49905 11.1098 5.4173C11.1098 5.29265 11.2121 5.25178 11.4372 5.25178C12.0735 5.25178 12.8664 5.28095 13.3577 5.29901L13.3605 5.29912L13.3624 5.29919C13.5812 5.30726 13.7395 5.31309 13.7963 5.31309C13.8614 5.31309 14.0574 5.30544 14.3108 5.29553C14.7743 5.27741 15.4299 5.25178 15.828 5.25178C16.0531 5.25178 16.1554 5.29265 16.1554 5.4173C16.1554 5.49905 16.0735 5.53991 15.9917 5.53991C15.8198 5.54586 15.6486 5.56638 15.4802 5.60121C14.9257 5.68296 14.762 6.05078 14.7211 6.76805C14.6781 7.42401 14.6781 7.99414 14.6781 11.1942L14.672 14.0633Z" fill="#0A0620"/>
<path d="M29.0537 19.6972C29.0537 20.2509 29.0762 20.3327 29.3626 20.4757C30.2265 20.8698 31.1693 21.0606 32.1186 21.0336C33.2276 21.0336 34.3345 20.7863 35.2163 20.1733C35.7531 19.7817 36.1905 19.27 36.4936 18.6791C36.7966 18.0883 36.9569 17.4347 36.9616 16.7709C36.9616 15.132 36.3867 13.861 33.9662 11.9564L33.3913 11.5048C31.423 9.96814 30.889 9.23045 30.889 8.06361C30.889 6.56778 31.9959 5.68704 33.4117 5.68704C35.3002 5.68704 35.8526 6.54733 35.9754 6.77213C36.1152 7.09747 36.2056 7.44186 36.2434 7.79387C36.2639 7.95735 36.3048 8.05954 36.4071 8.05954C36.5094 8.05954 36.5503 7.91648 36.5503 7.58748C36.5503 6.495 36.6008 5.84457 36.6225 5.56501C36.6284 5.48852 36.6322 5.43969 36.6322 5.4173C36.6322 5.31308 36.5913 5.27222 36.4276 5.27222C36.1852 5.26403 35.9444 5.22976 35.7094 5.17005C35.0843 5.0256 34.4441 4.957 33.8025 4.9657C31.1918 4.9657 29.5549 6.46153 29.5549 8.65418C29.5549 10.0478 30.0398 11.3168 32.2148 13.0988L33.1375 13.8569C34.9012 15.3119 35.4966 16.1313 35.4966 17.5454C35.4966 18.8573 34.533 20.2714 32.5626 20.2714C31.1877 20.2714 29.8352 19.6972 29.5263 18.1809C29.4792 17.931 29.4586 17.6769 29.4649 17.4228C29.4649 17.2593 29.424 17.198 29.3217 17.198C29.2194 17.198 29.1785 17.3001 29.158 17.5249C29.1538 17.5936 29.1469 17.6829 29.1385 17.7903C29.1065 18.2038 29.0537 18.8861 29.0537 19.6972Z" fill="#0A0620"/>
<path d="M42.0255 11.1942C42.0255 7.99822 42.0255 7.42401 41.9846 6.76805C41.9437 6.07122 41.737 5.72382 41.2869 5.62165C41.0788 5.56936 40.8652 5.54193 40.6506 5.53991C40.5687 5.53991 40.4869 5.49905 40.4869 5.4173C40.4869 5.29265 40.5892 5.25178 40.8143 5.25178C41.302 5.25178 42.109 5.28357 42.5608 5.30137C42.7364 5.30829 42.8583 5.31309 42.8869 5.31309C42.9166 5.31309 43.0463 5.30794 43.2305 5.30062C43.6819 5.28271 44.4604 5.25178 44.8961 5.25178C45.1232 5.25178 45.2255 5.29265 45.2255 5.4173C45.2255 5.49905 45.1437 5.53991 45.0618 5.53991C44.8892 5.54574 44.7174 5.56624 44.5483 5.60121C43.9938 5.70339 43.8301 6.05078 43.7892 6.76805C43.7483 7.42391 43.7483 7.99396 43.7483 11.1928V14.801C43.7483 16.7668 43.7483 18.3852 43.8506 19.2456C43.912 19.8402 44.0347 20.2918 44.6506 20.3736C44.937 20.4144 45.3688 20.4553 45.4915 20.4553C45.6757 20.4553 45.737 20.5166 45.737 20.5779C45.737 20.6801 45.6552 20.7414 45.4301 20.7414C44.5638 20.7414 43.5874 20.7052 43.1354 20.6884C42.9992 20.6834 42.9106 20.6801 42.8869 20.6801C42.8573 20.6801 42.7278 20.6852 42.5439 20.6925C42.0924 20.7104 41.313 20.7414 40.8756 20.7414C40.6506 20.7414 40.5483 20.7005 40.5483 20.5779C40.5483 20.5166 40.5892 20.4553 40.7733 20.4553C40.9529 20.4516 41.1317 20.4311 41.3074 20.394C41.7166 20.3123 41.8393 19.8402 41.9212 19.2456C42.0255 18.3852 42.0255 16.7668 42.0255 14.801V11.1942Z" fill="#0A0620"/>
<path fill-rule="evenodd" clip-rule="evenodd" d="M56.4849 4.9657C50.8215 4.9657 48.401 9.65754 48.401 12.9761C48.401 16.6646 50.7397 21.0295 56.3622 21.0275C61.3054 21.0275 64.5463 17.2389 64.5463 12.6492C64.5463 7.87561 61.0988 4.9657 56.4849 4.9657ZM56.3397 5.66252C59.5806 5.66252 62.576 8.30474 62.576 13.2234C62.576 19.1904 58.7601 20.2509 56.9146 20.253C53.2154 20.253 50.3509 17.1796 50.3509 12.406C50.3509 7.91035 52.9146 5.66252 56.3397 5.66252Z" fill="#0A0620"/>
</svg>
