<svg width="85" height="26" viewBox="0 0 85 26" fill="none" xmlns="http://www.w3.org/2000/svg">
<path d="M8.72631 12.2818L10.014 14.2781L12.6111 10.2465V19.174H14.8451V6.18888H12.5635L8.72631 12.2818ZM2.45627 6.18888H0.196289V19.174H2.43898V10.2465L7.52502 18.1715L8.82137 16.1492L2.45627 6.18888ZM28.2797 15.1467L30.3495 19.174H33.0416L26.2833 6.18888H23.8548L23.8505 6.1932L27.2383 13.0769H22.7399L23.9109 10.8342L22.6881 8.39269L16.9927 19.174H19.512L21.6423 15.151L28.2797 15.1467ZM47.9627 6.18888H45.72V12.4935L47.9627 14.6887V6.18888ZM37.1467 6.18888H34.8695V19.174H37.1122V9.46866L46.2947 19.174H47.9627V17.5968L37.1467 6.18888ZM63.6183 9.79275C62.551 8.71245 60.9046 8.02107 59.0595 8.02107C56.1124 8.02107 53.6796 9.78411 53.2907 12.07H50.8233C51.1474 8.518 54.8722 5.90368 59.0897 5.90368C61.596 5.90368 63.8517 6.81545 65.3684 8.28034L63.6183 9.79275ZM58.852 17.3591C56.3933 17.3591 54.2975 16.0585 53.5197 14.2436H51.0048C51.8388 17.3764 55.1099 19.4636 58.9946 19.4636C59.8978 19.4636 60.9349 19.3771 61.7948 19.1697C63.7393 18.6987 65.8653 17.4672 65.8653 15.5226V12.07H58.8304L58.8261 14.2436H63.6183V15.2288C63.6183 16.3177 61.946 16.9486 60.9262 17.169C60.3774 17.29 59.6688 17.3591 59.1027 17.3591H58.852ZM84.3903 12.6923C84.3903 8.82048 80.7821 5.81726 76.3528 5.81726C72.0619 5.81726 68.2938 8.68221 68.2938 12.4848C68.2938 16.0714 71.2539 18.945 75.238 19.3987V17.2295C72.628 16.8104 70.6575 14.9134 70.6575 12.6274C70.6575 10.0347 73.1941 7.93464 76.3183 7.93464C79.4468 7.93464 81.979 10.0391 81.979 12.6274C81.979 14.8961 80.0388 16.7801 77.4591 17.2209V19.3944C81.292 18.9407 84.3903 16.1751 84.3903 12.6923Z" fill="#0A0620"/>
</svg>
