<svg width="73" height="12" viewBox="0 0 73 12" fill="none" xmlns="http://www.w3.org/2000/svg">
<path d="M8.15012 5.55629L9.24072 7.2431L11.4402 3.83662V11.3798H13.3323V0.408233H11.4L8.15012 5.55629ZM2.83983 0.408233H0.925781V11.3798H2.82519V3.83662L7.13271 10.5327L8.23063 8.82402L2.83983 0.408233ZM24.7105 7.97697L26.4635 11.3798H28.7435L23.0197 0.408233H20.9629L20.9592 0.411884L23.8285 6.22809H20.0187L21.0105 4.33317L19.9748 2.2703L15.1512 11.3798H17.2848L19.0891 7.98062L24.7105 7.97697ZM41.3806 0.408233H39.4812V5.73519L41.3806 7.58995V0.408233ZM32.2203 0.408233H30.2916V11.3798H32.191V3.17942L39.9679 11.3798H41.3806V10.0471L32.2203 0.408233ZM54.6399 3.45325C53.7359 2.54048 52.3416 1.9563 50.7788 1.9563C48.2829 1.9563 46.2225 3.44595 45.8931 5.37738H43.8034C44.0778 2.37618 47.2325 0.16726 50.8045 0.16726C52.9271 0.16726 54.8375 0.937643 56.1221 2.17537L54.6399 3.45325ZM50.6032 9.84633C48.5208 9.84633 46.7458 8.74735 46.087 7.21389H43.9571C44.6634 9.86094 47.4338 11.6244 50.7239 11.6244C51.4888 11.6244 52.3672 11.5514 53.0955 11.3761C54.7423 10.9782 56.5429 9.93761 56.5429 8.29461V5.37738H50.5849L50.5812 7.21389H54.6399V8.04634C54.6399 8.96642 53.2235 9.49948 52.3598 9.68568C51.8951 9.78791 51.2949 9.84633 50.8154 9.84633H50.6032ZM72.2323 5.90314C72.2323 2.63175 69.1764 0.0942383 65.4251 0.0942383C61.791 0.0942383 58.5997 2.51492 58.5997 5.72789C58.5997 8.7583 61.1066 11.1863 64.4809 11.5697V9.7368C62.2704 9.38264 60.6016 7.77981 60.6016 5.84838C60.6016 3.65771 62.7499 1.88328 65.3959 1.88328C68.0455 1.88328 70.1901 3.66136 70.1901 5.84838C70.1901 7.7652 68.5469 9.35708 66.362 9.7295V11.566C69.6082 11.1826 72.2323 8.84593 72.2323 5.90314Z" fill="#0A0620"/>
</svg>
