<svg width="208" height="50" viewBox="0 0 208 50" fill="none" xmlns="http://www.w3.org/2000/svg">
<path fill-rule="evenodd" clip-rule="evenodd" d="M14.9875 10C20.047 10 24.5207 12.5078 27.2346 16.3472H23.9748V18.1944H28.3501C28.6835 18.8486 28.9701 19.5306 29.2058 20.2357H19.9488V22.083H29.6933C29.8091 22.6727 29.8904 23.2748 29.935 23.8871H15.9228V25.7343H29.9564C29.9219 26.4357 29.8383 27.124 29.7106 27.7966H11.8053V29.6438H29.2369C29.0144 30.3254 28.7435 30.9852 28.4299 31.6203H5.83539V33.4675H27.3459C24.6444 37.3976 20.117 39.9751 14.9875 39.9751C6.71031 39.9751 0 33.2644 0 24.9876C0 16.7107 6.71031 10 14.9875 10Z" fill="#0A0620"/>
<path fill-rule="evenodd" clip-rule="evenodd" d="M42.9226 21.9571H40.3802V27.7263H37.877V14.0367H40.3802V19.7668H43.0008L46.9317 14.0367H49.6305L44.9564 20.6664L49.8065 27.7263H46.9317L42.9226 21.9571ZM61.3059 17.2831V27.7263H58.9786V26.3769C58.5745 26.8724 58.0757 27.244 57.4825 27.4917C56.8892 27.7394 56.2341 27.8632 55.517 27.8632C54.5001 27.8632 53.5908 27.6417 52.7889 27.1983C51.9871 26.7551 51.3613 26.1292 50.9115 25.3209C50.4617 24.5126 50.2368 23.5738 50.2368 22.5047C50.2368 21.4356 50.4617 20.5001 50.9115 19.6984C51.3613 18.8965 51.9871 18.274 52.7889 17.8307C53.5908 17.3874 54.5001 17.1657 55.517 17.1657C56.195 17.1657 56.8176 17.2831 57.3848 17.5178C57.9519 17.7525 58.4441 18.098 58.8613 18.5543V17.2831H61.3059ZM55.7909 25.7707C56.6905 25.7707 57.4337 25.4708 58.0203 24.8711C58.607 24.2714 58.9004 23.4826 58.9004 22.5047C58.9004 21.5269 58.607 20.7381 58.0203 20.1383C57.4337 19.5386 56.6905 19.2388 55.7909 19.2388C54.8913 19.2388 54.1513 19.5386 53.5712 20.1383C52.991 20.7381 52.7009 21.5269 52.7009 22.5047C52.7009 23.4826 52.991 24.2714 53.5712 24.8711C54.1513 25.4708 54.8913 25.7707 55.7909 25.7707ZM69.7152 17.1657C70.7974 17.1657 71.7459 17.3874 72.5607 17.8307C73.3755 18.274 74.0079 18.8999 74.4577 19.7081C74.9075 20.5165 75.1324 21.4553 75.1324 22.5242C75.1324 23.5803 74.9173 24.5126 74.487 25.3209C74.0568 26.1292 73.4537 26.7551 72.678 27.1983C71.9023 27.6417 71.0059 27.8632 69.989 27.8632C68.5418 27.8632 67.4076 27.4005 66.5862 26.4747V31.5203H64.122V22.5439C64.122 21.4878 64.3567 20.5523 64.826 19.7375C65.2954 18.9226 65.9505 18.2903 66.7915 17.8405C67.6324 17.3907 68.607 17.1657 69.7152 17.1657ZM69.6174 25.7902C70.53 25.7902 71.2732 25.4871 71.8468 24.8808C72.4205 24.2746 72.7074 23.4891 72.7074 22.5242C72.7074 21.5595 72.4205 20.7707 71.8468 20.158C71.2732 19.5452 70.53 19.2388 69.6174 19.2388C68.6917 19.2388 67.9486 19.5386 67.3879 20.1383C66.8274 20.7381 66.547 21.5269 66.547 22.5047C66.547 23.4826 66.8306 24.2746 67.3978 24.8808C67.9649 25.4871 68.7047 25.7902 69.6174 25.7902ZM82.1336 28.0002C80.5821 28.0002 79.3957 27.6318 78.5743 26.8952C77.753 26.1586 77.3423 25.1058 77.3423 23.7368V17.2831H79.7673V21.0379C80.1063 20.7642 80.5528 20.549 81.1069 20.3926C81.661 20.2362 82.264 20.158 82.9159 20.158C84.2196 20.158 85.2366 20.4839 85.9668 21.1357C86.6968 21.7877 87.0619 22.7134 87.0619 23.9128C87.0619 25.2036 86.6251 26.2074 85.7516 26.9246C84.878 27.6417 83.6721 28.0002 82.1336 28.0002ZM82.1532 26.2009C82.8964 26.2009 83.4831 25.9989 83.9133 25.5947C84.3435 25.1905 84.5587 24.6494 84.5587 23.9715C84.5587 23.3196 84.3534 22.8078 83.9427 22.4363C83.532 22.0647 82.955 21.879 82.2119 21.879C81.6512 21.879 81.1591 21.9832 80.7354 22.1918C80.3116 22.4004 79.9889 22.6938 79.7673 23.0719V23.952C79.7673 24.6429 79.9824 25.1905 80.4126 25.5947C80.8429 25.9989 81.423 26.2009 82.1532 26.2009ZM94.1805 25.7902C95.3148 25.7902 96.26 25.4122 97.0162 24.6559L98.3069 26.1618C97.8506 26.7224 97.2639 27.1462 96.5468 27.433C95.8297 27.7199 95.0214 27.8632 94.1219 27.8632C92.9745 27.8632 91.964 27.6351 91.0906 27.1788C90.217 26.7224 89.5423 26.0868 89.0665 25.272C88.5906 24.4571 88.3527 23.5347 88.3527 22.5047C88.3527 21.4878 88.584 20.5719 89.0469 19.757C89.5097 18.9422 90.1486 18.3066 90.9634 17.8503C91.7783 17.3939 92.7007 17.1657 93.7307 17.1657C94.7085 17.1657 95.5983 17.3777 96.4002 17.8014C97.202 18.2251 97.8376 18.8313 98.3069 19.6202C98.7763 20.4089 99.011 21.3313 99.011 22.3874L91.0123 23.952C91.26 24.5517 91.6577 25.0079 92.2052 25.3209C92.7529 25.6338 93.4113 25.7902 94.1805 25.7902ZM93.7307 19.1214C92.8311 19.1214 92.1042 19.4148 91.5501 20.0015C90.996 20.5882 90.7189 21.377 90.7189 22.3678V22.3874L96.6251 21.2531C96.4556 20.6142 96.1133 20.0993 95.5983 19.7081C95.0834 19.317 94.4608 19.1214 93.7307 19.1214ZM106.56 17.1657C107.642 17.1657 108.59 17.3874 109.405 17.8307C110.22 18.274 110.852 18.8999 111.302 19.7081C111.752 20.5165 111.977 21.4553 111.977 22.5242C111.977 23.5803 111.762 24.5126 111.332 25.3209C110.901 26.1292 110.298 26.7551 109.523 27.1983C108.747 27.6417 107.851 27.8632 106.834 27.8632C105.386 27.8632 104.252 27.4005 103.431 26.4747V31.5203H100.967V22.5439C100.967 21.4878 101.201 20.5523 101.671 19.7375C102.14 18.9226 102.795 18.2903 103.636 17.8405C104.477 17.3907 105.452 17.1657 106.56 17.1657ZM106.462 25.7902C107.375 25.7902 108.118 25.4871 108.691 24.8808C109.265 24.2746 109.552 23.4891 109.552 22.5242C109.552 21.5595 109.265 20.7707 108.691 20.158C108.118 19.5452 107.375 19.2388 106.462 19.2388C105.536 19.2388 104.793 19.5386 104.233 20.1383C103.672 20.7381 103.392 21.5269 103.392 22.5047C103.392 23.4826 103.675 24.2746 104.242 24.8808C104.809 25.4871 105.549 25.7902 106.462 25.7902ZM124.591 17.2831V27.7263H122.264V26.3769C121.86 26.8724 121.361 27.244 120.768 27.4917C120.174 27.7394 119.519 27.8632 118.802 27.8632C117.785 27.8632 116.876 27.6417 116.074 27.1983C115.272 26.7551 114.646 26.1292 114.197 25.3209C113.747 24.5126 113.522 23.5738 113.522 22.5047C113.522 21.4356 113.747 20.5001 114.197 19.6984C114.646 18.8965 115.272 18.274 116.074 17.8307C116.876 17.3874 117.785 17.1657 118.802 17.1657C119.48 17.1657 120.103 17.2831 120.67 17.5178C121.237 17.7525 121.729 18.098 122.146 18.5543V17.2831H124.591ZM119.076 25.7707C119.976 25.7707 120.719 25.4708 121.305 24.8711C121.892 24.2714 122.185 23.4826 122.185 22.5047C122.185 21.5269 121.892 20.7381 121.305 20.1383C120.719 19.5386 119.976 19.2388 119.076 19.2388C118.176 19.2388 117.436 19.5386 116.856 20.1383C116.276 20.7381 115.986 21.5269 115.986 22.5047C115.986 23.4826 116.276 24.2714 116.856 24.8711C117.436 25.4708 118.176 25.7707 119.076 25.7707ZM128.581 27.8632C128.137 27.8632 127.759 27.7101 127.446 27.4037C127.133 27.0973 126.977 26.7094 126.977 26.24C126.977 25.7577 127.13 25.3665 127.437 25.0666C127.743 24.7668 128.124 24.6169 128.581 24.6169C129.037 24.6169 129.418 24.7668 129.725 25.0666C130.031 25.3665 130.184 25.7577 130.184 26.24C130.184 26.7094 130.028 27.0973 129.715 27.4037C129.402 27.7101 129.024 27.8632 128.581 27.8632Z" fill="#0A0620"/>
<path fill-rule="evenodd" clip-rule="evenodd" d="M137.068 27.8621C136.012 27.8621 135.06 27.6339 134.212 27.1776C133.365 26.7213 132.703 26.0856 132.227 25.2709C131.752 24.456 131.514 23.5335 131.514 22.5036C131.514 21.4736 131.752 20.5544 132.227 19.7461C132.703 18.9377 133.365 18.3055 134.212 17.8491C135.06 17.3927 136.012 17.1646 137.068 17.1646C138.137 17.1646 139.095 17.3927 139.942 17.8491C140.79 18.3055 141.452 18.9377 141.928 19.7461C142.403 20.5544 142.641 21.4736 142.641 22.5036C142.641 23.5335 142.403 24.456 141.928 25.2709C141.452 26.0856 140.79 26.7213 139.942 27.1776C139.095 27.6339 138.137 27.8621 137.068 27.8621ZM137.068 25.7695C137.967 25.7695 138.71 25.4696 139.297 24.8699C139.884 24.2702 140.177 23.4814 140.177 22.5036C140.177 21.5258 139.884 20.7369 139.297 20.1372C138.71 19.5375 137.967 19.2376 137.068 19.2376C136.168 19.2376 135.428 19.5375 134.848 20.1372C134.268 20.7369 133.978 21.5258 133.978 22.5036C133.978 23.4814 134.268 24.2702 134.848 24.8699C135.428 25.4696 136.168 25.7695 137.068 25.7695ZM145.047 17.2819H147.491V21.5258H152.752V17.2819H155.197V27.7252H152.752V23.5988H147.491V27.7252H145.047V17.2819ZM167.948 17.2819V27.7252H165.503V19.3549H161.592L161.494 21.4279C161.429 22.8099 161.302 23.9671 161.113 24.8992C160.924 25.8314 160.604 26.5681 160.154 27.1092C159.705 27.6502 159.088 27.9207 158.306 27.9207C157.941 27.9207 157.491 27.849 156.957 27.7057L157.074 25.6522C157.257 25.6913 157.413 25.7108 157.544 25.7108C158.039 25.7108 158.41 25.5121 158.658 25.1144C158.906 24.7167 159.066 24.2408 159.137 23.6867C159.209 23.1327 159.271 22.3406 159.323 21.3106L159.499 17.2819H167.948ZM181.403 17.2819V27.7252H179.075V26.3758C178.671 26.8713 178.172 27.2428 177.579 27.4905C176.986 27.7382 176.331 27.8621 175.614 27.8621C174.597 27.8621 173.688 27.6405 172.886 27.1971C172.084 26.7539 171.458 26.1281 171.008 25.3198C170.558 24.5114 170.334 23.5726 170.334 22.5036C170.334 21.4345 170.558 20.499 171.008 19.6972C171.458 18.8953 172.084 18.2728 172.886 17.8296C173.688 17.3863 174.597 17.1646 175.614 17.1646C176.292 17.1646 176.914 17.2819 177.482 17.5166C178.049 17.7513 178.541 18.0968 178.958 18.5532V17.2819H181.403ZM175.888 25.7695C176.787 25.7695 177.53 25.4696 178.117 24.8699C178.704 24.2702 178.997 23.4814 178.997 22.5036C178.997 21.5258 178.704 20.7369 178.117 20.1372C177.53 19.5375 176.787 19.2376 175.888 19.2376C174.988 19.2376 174.248 19.5375 173.668 20.1372C173.088 20.7369 172.798 21.5258 172.798 22.5036C172.798 23.4814 173.088 24.2702 173.668 24.8699C174.248 25.4696 174.988 25.7695 175.888 25.7695ZM194.545 17.2819V27.7252H192.217V26.3954C191.826 26.8647 191.341 27.2265 190.76 27.4807C190.18 27.7349 189.551 27.8621 188.873 27.8621C187.478 27.8621 186.377 27.4742 185.568 26.6985C184.76 25.9228 184.356 24.7721 184.356 23.2468V17.2819H186.8V22.9143C186.8 23.853 187.012 24.5538 187.436 25.0166C187.86 25.4794 188.469 25.7108 189.264 25.7108C190.125 25.7108 190.813 25.4403 191.328 24.8992C191.843 24.3582 192.1 23.5792 192.1 22.5622V17.2819H194.545ZM189.421 16.0499C188.365 16.0499 187.56 15.8054 187.006 15.3165C186.452 14.8276 186.168 14.1138 186.155 13.175H187.778C187.791 13.6444 187.938 14.016 188.218 14.2898C188.498 14.5636 188.893 14.7005 189.401 14.7005C189.897 14.7005 190.291 14.5636 190.584 14.2898C190.878 14.016 191.031 13.6444 191.044 13.175H192.706C192.693 14.1138 192.406 14.8276 191.846 15.3165C191.285 15.8054 190.477 16.0499 189.421 16.0499ZM197.85 17.2819H200.294V21.5258H205.555V17.2819H208V27.7252H205.555V23.5988H200.294V27.7252H197.85V17.2819Z" fill="#0A0620"/>
<path fill-rule="evenodd" clip-rule="evenodd" d="M39.7464 36.3666H38.7062V38.3949H38.0908V33.8358H38.7062V35.838H39.755L41.3586 33.8358H42.0259L40.2318 36.0459L42.1559 38.3949H41.4279L39.7464 36.3666ZM47.1051 33.8358V38.3949H46.5157V37.4934C46.3308 37.7997 46.0867 38.0337 45.7833 38.1955C45.4799 38.3573 45.1376 38.4382 44.7562 38.4382C44.3286 38.4382 43.9415 38.34 43.5947 38.1435C43.2481 37.947 42.9764 37.6726 42.78 37.3201C42.5835 36.9676 42.4853 36.5661 42.4853 36.1153C42.4853 35.6646 42.5835 35.263 42.78 34.9105C42.9764 34.558 43.2481 34.285 43.5947 34.0914C43.9415 33.8979 44.3286 33.801 44.7562 33.801C45.1261 33.801 45.4597 33.8776 45.7573 34.0308C46.0549 34.1839 46.299 34.4078 46.4898 34.7025V33.8358H47.1051ZM44.8083 37.8922C45.1261 37.8922 45.4135 37.8185 45.6707 37.6711C45.9278 37.5238 46.1301 37.3144 46.2774 37.0427C46.4247 36.7712 46.4984 36.462 46.4984 36.1153C46.4984 35.7686 46.4247 35.4595 46.2774 35.1878C46.1301 34.9163 45.9278 34.7069 45.6707 34.5595C45.4135 34.4121 45.1261 34.3385 44.8083 34.3385C44.4846 34.3385 44.1943 34.4121 43.9372 34.5595C43.68 34.7069 43.4777 34.9163 43.3304 35.1878C43.1831 35.4595 43.1093 35.7686 43.1093 36.1153C43.1093 36.462 43.1831 36.7712 43.3304 37.0427C43.4777 37.3144 43.68 37.5238 43.9372 37.6711C44.1943 37.8185 44.4846 37.8922 44.8083 37.8922ZM53.0511 33.8358V37.8402C53.0511 38.6144 52.8618 39.188 52.4833 39.5606C52.1048 39.9334 51.5342 40.1197 50.7715 40.1197C50.3497 40.1197 49.9495 40.0576 49.5711 39.9334C49.1926 39.8091 48.8849 39.6373 48.6479 39.4176L48.96 38.9496C49.1795 39.1461 49.4468 39.2992 49.7617 39.409C50.0767 39.5188 50.4074 39.5737 50.7542 39.5737C51.332 39.5737 51.7567 39.4393 52.0283 39.1706C52.2999 38.9019 52.4357 38.4844 52.4357 37.9181V37.3374C52.245 37.6263 51.9951 37.8459 51.686 37.9961C51.3768 38.1464 51.0344 38.2215 50.6588 38.2215C50.2313 38.2215 49.8426 38.1276 49.4931 37.9398C49.1434 37.752 48.869 37.4891 48.6696 37.1511C48.4702 36.813 48.3706 36.4302 48.3706 36.0027C48.3706 35.5751 48.4702 35.1936 48.6696 34.8585C48.869 34.5234 49.142 34.2634 49.4887 34.0785C49.8354 33.8935 50.2254 33.801 50.6588 33.801C51.0459 33.801 51.3956 33.8791 51.7076 34.0351C52.0196 34.1912 52.271 34.4165 52.4617 34.7112V33.8358H53.0511ZM50.7195 37.6754C51.0489 37.6754 51.3464 37.6047 51.6122 37.4631C51.8781 37.3215 52.0846 37.1236 52.232 36.8693C52.3794 36.6151 52.453 36.3263 52.453 36.0027C52.453 35.679 52.3794 35.3916 52.232 35.1402C52.0846 34.8889 51.8795 34.6924 51.6165 34.5508C51.3537 34.4092 51.0547 34.3385 50.7195 34.3385C50.3901 34.3385 50.094 34.4078 49.8311 34.5465C49.5682 34.6851 49.3631 34.8817 49.2157 35.1359C49.0683 35.3902 48.9947 35.679 48.9947 36.0027C48.9947 36.3263 49.0683 36.6151 49.2157 36.8693C49.3631 37.1236 49.5682 37.3215 49.8311 37.4631C50.094 37.6047 50.3901 37.6754 50.7195 37.6754ZM56.8994 33.801C57.3443 33.801 57.7402 33.8993 58.0869 34.0958C58.4336 34.2922 58.7037 34.5667 58.8973 34.9192C59.0909 35.2717 59.1877 35.6732 59.1877 36.124C59.1877 36.5747 59.0923 36.9748 58.9016 37.3245C58.7109 37.674 58.4466 37.947 58.1086 38.1435C57.7705 38.34 57.3848 38.4382 56.9514 38.4382C56.5701 38.4382 56.2305 38.3616 55.933 38.2085C55.6354 38.0554 55.3942 37.8344 55.2092 37.5454V40.0764H54.5938V36.1327C54.5938 35.6761 54.6907 35.2717 54.8842 34.9192C55.0778 34.5667 55.3493 34.2922 55.699 34.0958C56.0485 33.8993 56.4487 33.801 56.8994 33.801ZM56.8821 37.9008C57.2057 37.9008 57.4975 37.8257 57.7575 37.6754C58.0175 37.5252 58.2198 37.3144 58.3643 37.0427C58.5087 36.7712 58.5809 36.4649 58.5809 36.124C58.5809 35.7831 58.5087 35.4768 58.3643 35.2052C58.2198 34.9336 58.0175 34.7213 57.7575 34.5681C57.4975 34.415 57.2057 34.3385 56.8821 34.3385C56.5585 34.3385 56.2681 34.4136 56.011 34.5638C55.7539 34.7141 55.5546 34.9235 55.4129 35.1922C55.2714 35.4609 55.2006 35.7686 55.2006 36.1153C55.2006 36.462 55.2714 36.7712 55.4129 37.0427C55.5546 37.3144 55.7539 37.5252 56.011 37.6754C56.2681 37.8257 56.5585 37.9008 56.8821 37.9008ZM62.3947 38.4382C61.9555 38.4382 61.5597 38.3386 61.2072 38.1392C60.8547 37.9398 60.5774 37.6639 60.3752 37.3114C60.1728 36.959 60.0718 36.5602 60.0718 36.1153C60.0718 35.6704 60.1728 35.2717 60.3752 34.9192C60.5774 34.5667 60.8547 34.2922 61.2072 34.0958C61.5597 33.8993 61.9555 33.801 62.3947 33.801C62.8338 33.801 63.2296 33.8993 63.5821 34.0958C63.9346 34.2922 64.2105 34.5667 64.4099 34.9192C64.6092 35.2717 64.7089 35.6704 64.7089 36.1153C64.7089 36.5602 64.6092 36.959 64.4099 37.3114C64.2105 37.6639 63.9346 37.9398 63.5821 38.1392C63.2296 38.3386 62.8338 38.4382 62.3947 38.4382ZM62.3947 37.8922C62.7182 37.8922 63.0086 37.8185 63.2658 37.6711C63.5229 37.5238 63.7237 37.3144 63.8681 37.0427C64.0126 36.7712 64.0848 36.462 64.0848 36.1153C64.0848 35.7686 64.0126 35.4595 63.8681 35.1878C63.7237 34.9163 63.5229 34.7069 63.2658 34.5595C63.0086 34.4121 62.7182 34.3385 62.3947 34.3385C62.0711 34.3385 61.7807 34.4121 61.5236 34.5595C61.2665 34.7069 61.0642 34.9163 60.9168 35.1878C60.7695 35.4595 60.6959 35.7686 60.6959 36.1153C60.6959 36.462 60.7695 36.7712 60.9168 37.0427C61.0642 37.3144 61.2665 37.5238 61.5236 37.6711C61.7807 37.8185 62.0711 37.8922 62.3947 37.8922ZM68.93 36.0373C69.5483 36.1817 69.8575 36.5544 69.8575 37.1554C69.8575 37.5541 69.7101 37.8604 69.4154 38.0742C69.1207 38.288 68.6815 38.3949 68.098 38.3949H66.0264V33.8358H68.0373C68.5574 33.8358 68.9647 33.9368 69.2595 34.1391C69.5541 34.3414 69.7015 34.6302 69.7015 35.0058C69.7015 35.2543 69.6335 35.4667 69.4978 35.643C69.362 35.8192 69.1727 35.9507 68.93 36.0373ZM66.6244 35.8639H67.9939C68.3464 35.8639 68.6165 35.7975 68.8043 35.6646C68.9921 35.5317 69.0861 35.3381 69.0861 35.0839C69.0861 34.8296 68.9921 34.639 68.8043 34.5118C68.6165 34.3847 68.3464 34.3212 67.9939 34.3212H66.6244V35.8639ZM68.072 37.9095C68.4649 37.9095 68.7595 37.8459 68.9561 37.7188C69.1525 37.5917 69.2507 37.3924 69.2507 37.1207C69.2507 36.8492 69.1612 36.6484 68.982 36.5184C68.8029 36.3884 68.5198 36.3234 68.1327 36.3234H66.6244V37.9095H68.072ZM73.1077 38.4902C72.4837 38.4902 72.0056 38.3357 71.6733 38.0265C71.341 37.7174 71.1749 37.2797 71.1749 36.7134V33.8358H71.7903V35.7339C71.929 35.5664 72.1226 35.4277 72.371 35.3179C72.6195 35.2081 72.9084 35.1532 73.2378 35.1532C73.7925 35.1532 74.2244 35.2962 74.5336 35.5823C74.8427 35.8682 74.9973 36.2569 74.9973 36.748C74.9973 37.089 74.9207 37.3909 74.7676 37.6538C74.6144 37.9167 74.3949 38.1218 74.1088 38.2692C73.8228 38.4165 73.4891 38.4902 73.1077 38.4902ZM75.7427 33.8358H76.3581V38.3949H75.7427V33.8358ZM73.1251 38.0135C73.5181 38.0135 73.8243 37.8965 74.0438 37.6625C74.2635 37.4284 74.3732 37.1294 74.3732 36.7654C74.3732 36.4244 74.2606 36.1485 74.0352 35.9376C73.8098 35.7267 73.492 35.6213 73.0818 35.6213C72.7813 35.6213 72.5198 35.6848 72.2973 35.8119C72.0749 35.939 71.9059 36.1153 71.7903 36.3407V36.7568C71.7903 37.1497 71.9044 37.4574 72.1327 37.6798C72.3609 37.9023 72.6918 38.0135 73.1251 38.0135ZM82.122 33.8358V38.3949H81.5326V37.5628C81.3708 37.8402 81.1484 38.0554 80.8652 38.2085C80.5821 38.3616 80.2584 38.4382 79.8945 38.4382C79.2935 38.4382 78.8211 38.2721 78.4773 37.9398C78.1335 37.6076 77.9616 37.1207 77.9616 36.4793V33.8358H78.577V36.4187C78.577 36.8983 78.6955 37.2623 78.9323 37.5108C79.1693 37.7593 79.5102 37.8835 79.9552 37.8835C80.4347 37.8835 80.8132 37.7376 81.0906 37.4458C81.3679 37.154 81.5066 36.748 81.5066 36.228V33.8358H82.122ZM80.0418 33.1856C79.6489 33.1856 79.3369 33.0875 79.1057 32.891C78.8745 32.6945 78.7562 32.4171 78.7503 32.0588H79.1924C79.1982 32.2842 79.2791 32.4648 79.435 32.6006C79.5911 32.7364 79.7933 32.8043 80.0418 32.8043C80.2903 32.8043 80.4939 32.7364 80.6529 32.6006C80.8117 32.4648 80.8941 32.2842 80.8999 32.0588H81.342C81.3362 32.4171 81.2163 32.6945 80.9822 32.891C80.7482 33.0875 80.4347 33.1856 80.0418 33.1856ZM88.2413 33.801C88.6862 33.801 89.0821 33.8993 89.4288 34.0958C89.7755 34.2922 90.0456 34.5667 90.2392 34.9192C90.4328 35.2717 90.5296 35.6732 90.5296 36.124C90.5296 36.5747 90.4342 36.9748 90.2435 37.3245C90.0528 37.674 89.7885 37.947 89.4504 38.1435C89.1124 38.34 88.7267 38.4382 88.2933 38.4382C87.912 38.4382 87.5724 38.3616 87.2749 38.2085C86.9773 38.0554 86.7361 37.8344 86.5511 37.5454V40.0764H85.9357V36.1327C85.9357 35.6761 86.0326 35.2717 86.2261 34.9192C86.4197 34.5667 86.6912 34.2922 87.0409 34.0958C87.3905 33.8993 87.7906 33.801 88.2413 33.801ZM88.224 37.9008C88.5476 37.9008 88.8394 37.8257 89.0994 37.6754C89.3594 37.5252 89.5617 37.3144 89.7061 37.0427C89.8506 36.7712 89.9228 36.4649 89.9228 36.124C89.9228 35.7831 89.8506 35.4768 89.7061 35.2052C89.5617 34.9336 89.3594 34.7213 89.0994 34.5681C88.8394 34.415 88.5476 34.3385 88.224 34.3385C87.9004 34.3385 87.61 34.4136 87.3529 34.5638C87.0958 34.7141 86.8964 34.9235 86.7548 35.1922C86.6133 35.4609 86.5425 35.7686 86.5425 36.1153C86.5425 36.462 86.6133 36.7712 86.7548 37.0427C86.8964 37.3144 87.0958 37.5252 87.3529 37.6754C87.61 37.8257 87.9004 37.9008 88.224 37.9008ZM93.7886 37.8922C94.0717 37.8922 94.3331 37.8416 94.573 37.7404C94.8128 37.6394 95.0164 37.4905 95.184 37.2941L95.5308 37.6928C95.3285 37.9355 95.0771 38.1204 94.7767 38.2476C94.4762 38.3747 94.1439 38.4382 93.7799 38.4382C93.3118 38.4382 92.8958 38.3386 92.5318 38.1392C92.1678 37.9398 91.8846 37.6639 91.6823 37.3114C91.4801 36.959 91.379 36.5602 91.379 36.1153C91.379 35.6704 91.4758 35.2717 91.6694 34.9192C91.8629 34.5667 92.1302 34.2922 92.4711 34.0958C92.812 33.8993 93.1991 33.801 93.6325 33.801C94.0371 33.801 94.4026 33.8935 94.729 34.0785C95.0555 34.2634 95.3155 34.5205 95.5091 34.8498C95.7026 35.1792 95.8052 35.5548 95.8168 35.9766L92.0724 36.7047C92.1879 37.0746 92.3974 37.3649 92.7008 37.5758C93.0041 37.7867 93.3668 37.8922 93.7886 37.8922ZM93.6325 34.3298C93.3147 34.3298 93.0302 34.4035 92.7788 34.5508C92.5275 34.6982 92.3309 34.9033 92.1894 35.1662C92.0478 35.4291 91.9771 35.731 91.9771 36.072C91.9771 36.1586 91.9799 36.2222 91.9857 36.2627L95.2014 35.6386C95.132 35.2573 94.9558 34.9437 94.6727 34.6982C94.3895 34.4526 94.0428 34.3298 93.6325 34.3298ZM99.1798 36.02C99.5033 36.0951 99.7533 36.2251 99.9295 36.41C100.106 36.5949 100.194 36.8203 100.194 37.0861C100.194 37.3519 100.103 37.5888 99.9209 37.7968C99.7388 38.0049 99.4918 38.1652 99.1798 38.2779C98.8677 38.3906 98.5239 38.4469 98.1484 38.4469C97.8189 38.4469 97.4954 38.3992 97.1776 38.3038C96.8598 38.2085 96.5823 38.0683 96.3455 37.8835L96.5535 37.4241C96.7615 37.5802 97.0042 37.7015 97.2816 37.7881C97.5589 37.8748 97.8392 37.9181 98.1223 37.9181C98.5442 37.9181 98.8894 37.8387 99.1581 37.6798C99.4268 37.5209 99.5611 37.3056 99.5611 37.0341C99.5611 36.7914 99.4513 36.6021 99.2318 36.4664C99.0122 36.3306 98.7117 36.2627 98.3303 36.2627H97.5503V35.8119H98.2957C98.6366 35.8119 98.9111 35.7469 99.1191 35.6169C99.3271 35.4869 99.4311 35.3122 99.4311 35.0925C99.4311 34.8498 99.3141 34.6592 99.0801 34.5205C98.8461 34.3818 98.5413 34.3125 98.1657 34.3125C97.6745 34.3125 97.1891 34.4366 96.7095 34.6851L96.5362 34.2085C97.0793 33.9253 97.6427 33.7837 98.2264 33.7837C98.573 33.7837 98.8865 33.8343 99.1668 33.9355C99.447 34.0365 99.6666 34.1795 99.8255 34.3644C99.9844 34.5493 100.064 34.7632 100.064 35.0058C100.064 35.237 99.9844 35.4421 99.8255 35.6213C99.6666 35.8004 99.4513 35.9332 99.1798 36.02ZM103.522 37.8922C103.805 37.8922 104.067 37.8416 104.307 37.7404C104.546 37.6394 104.75 37.4905 104.918 37.2941L105.264 37.6928C105.062 37.9355 104.811 38.1204 104.51 38.2476C104.21 38.3747 103.878 38.4382 103.514 38.4382C103.045 38.4382 102.63 38.3386 102.265 38.1392C101.901 37.9398 101.618 37.6639 101.416 37.3114C101.214 36.959 101.113 36.5602 101.113 36.1153C101.113 35.6704 101.209 35.2717 101.403 34.9192C101.597 34.5667 101.864 34.2922 102.205 34.0958C102.546 33.8993 102.933 33.801 103.366 33.801C103.771 33.801 104.136 33.8935 104.463 34.0785C104.789 34.2634 105.049 34.5205 105.243 34.8498C105.436 35.1792 105.539 35.5548 105.55 35.9766L101.806 36.7047C101.922 37.0746 102.131 37.3649 102.434 37.5758C102.738 37.7867 103.1 37.8922 103.522 37.8922ZM103.366 34.3298C103.048 34.3298 102.764 34.4035 102.512 34.5508C102.261 34.6982 102.065 34.9033 101.923 35.1662C101.781 35.4291 101.711 35.731 101.711 36.072C101.711 36.1586 101.714 36.2222 101.719 36.2627L104.935 35.6386C104.866 35.2573 104.689 34.9437 104.406 34.6982C104.123 34.4526 103.776 34.3298 103.366 34.3298ZM108.922 33.801C109.367 33.801 109.763 33.8993 110.11 34.0958C110.456 34.2922 110.726 34.5667 110.92 34.9192C111.114 35.2717 111.21 35.6732 111.21 36.124C111.21 36.5747 111.115 36.9748 110.924 37.3245C110.734 37.674 110.469 37.947 110.131 38.1435C109.793 38.34 109.407 38.4382 108.974 38.4382C108.593 38.4382 108.253 38.3616 107.956 38.2085C107.658 38.0554 107.417 37.8344 107.232 37.5454V40.0764H106.617V36.1327C106.617 35.6761 106.713 35.2717 106.907 34.9192C107.1 34.5667 107.372 34.2922 107.722 34.0958C108.071 33.8993 108.471 33.801 108.922 33.801ZM108.905 37.9008C109.228 37.9008 109.52 37.8257 109.78 37.6754C110.04 37.5252 110.242 37.3144 110.387 37.0427C110.531 36.7712 110.604 36.4649 110.604 36.124C110.604 35.7831 110.531 35.4768 110.387 35.2052C110.242 34.9336 110.04 34.7213 109.78 34.5681C109.52 34.415 109.228 34.3385 108.905 34.3385C108.581 34.3385 108.291 34.4136 108.034 34.5638C107.777 34.7141 107.577 34.9235 107.436 35.1922C107.294 35.4609 107.223 35.7686 107.223 36.1153C107.223 36.462 107.294 36.7712 107.436 37.0427C107.577 37.3144 107.777 37.5252 108.034 37.6754C108.291 37.8257 108.581 37.9008 108.905 37.9008ZM115.44 36.0373C116.058 36.1817 116.368 36.5544 116.368 37.1554C116.368 37.5541 116.22 37.8604 115.925 38.0742C115.631 38.288 115.192 38.3949 114.608 38.3949H112.536V33.8358H114.547C115.067 33.8358 115.475 33.9368 115.77 34.1391C116.064 34.3414 116.212 34.6302 116.212 35.0058C116.212 35.2543 116.144 35.4667 116.008 35.643C115.872 35.8192 115.683 35.9507 115.44 36.0373ZM113.135 35.8639H114.504C114.856 35.8639 115.127 35.7975 115.314 35.6646C115.502 35.5317 115.596 35.3381 115.596 35.0839C115.596 34.8296 115.502 34.639 115.314 34.5118C115.127 34.3847 114.856 34.3212 114.504 34.3212H113.135V35.8639ZM114.582 37.9095C114.975 37.9095 115.27 37.8459 115.466 37.7188C115.663 37.5917 115.761 37.3924 115.761 37.1207C115.761 36.8492 115.671 36.6484 115.492 36.5184C115.313 36.3884 115.03 36.3234 114.643 36.3234H113.135V37.9095H114.582ZM122.981 36.0373C123.599 36.1817 123.908 36.5544 123.908 37.1554C123.908 37.5541 123.761 37.8604 123.466 38.0742C123.172 38.288 122.732 38.3949 122.149 38.3949H120.077V33.8358H122.088C122.608 33.8358 123.016 33.9368 123.31 34.1391C123.605 34.3414 123.752 34.6302 123.752 35.0058C123.752 35.2543 123.684 35.4667 123.549 35.643C123.413 35.8192 123.224 35.9507 122.981 36.0373ZM120.675 35.8639H122.045C122.397 35.8639 122.667 35.7975 122.855 35.6646C123.043 35.5317 123.137 35.3381 123.137 35.0839C123.137 34.8296 123.043 34.639 122.855 34.5118C122.667 34.3847 122.397 34.3212 122.045 34.3212H120.675V35.8639ZM122.123 37.9095C122.516 37.9095 122.81 37.8459 123.007 37.7188C123.203 37.5917 123.302 37.3924 123.302 37.1207C123.302 36.8492 123.212 36.6484 123.033 36.5184C122.854 36.3884 122.571 36.3234 122.183 36.3234H120.675V37.9095H122.123ZM127.28 37.8922C127.563 37.8922 127.824 37.8416 128.064 37.7404C128.304 37.6394 128.508 37.4905 128.675 37.2941L129.022 37.6928C128.82 37.9355 128.568 38.1204 128.268 38.2476C127.968 38.3747 127.635 38.4382 127.271 38.4382C126.803 38.4382 126.387 38.3386 126.023 38.1392C125.659 37.9398 125.376 37.6639 125.174 37.3114C124.971 36.959 124.87 36.5602 124.87 36.1153C124.87 35.6704 124.967 35.2717 125.161 34.9192C125.354 34.5667 125.622 34.2922 125.962 34.0958C126.303 33.8993 126.69 33.801 127.124 33.801C127.528 33.801 127.894 33.8935 128.22 34.0785C128.547 34.2634 128.807 34.5205 129 34.8498C129.194 35.1792 129.297 35.5548 129.308 35.9766L125.564 36.7047C125.679 37.0746 125.889 37.3649 126.192 37.5758C126.495 37.7867 126.858 37.8922 127.28 37.8922ZM127.124 34.3298C126.806 34.3298 126.522 34.4035 126.27 34.5508C126.019 34.6982 125.822 34.9033 125.681 35.1662C125.539 35.4291 125.468 35.731 125.468 36.072C125.468 36.1586 125.471 36.2222 125.477 36.2627L128.693 35.6386C128.623 35.2573 128.447 34.9437 128.164 34.6982C127.881 34.4526 127.534 34.3298 127.124 34.3298ZM134.795 33.8358V37.8402C134.795 38.6144 134.605 39.188 134.227 39.5606C133.848 39.9334 133.278 40.1197 132.515 40.1197C132.093 40.1197 131.693 40.0576 131.315 39.9334C130.936 39.8091 130.628 39.6373 130.392 39.4176L130.704 38.9496C130.923 39.1461 131.19 39.2992 131.505 39.409C131.82 39.5188 132.151 39.5737 132.498 39.5737C133.076 39.5737 133.5 39.4393 133.772 39.1706C134.043 38.9019 134.179 38.4844 134.179 37.9181V37.3374C133.989 37.6263 133.739 37.8459 133.43 37.9961C133.12 38.1464 132.778 38.2215 132.402 38.2215C131.975 38.2215 131.586 38.1276 131.237 37.9398C130.887 37.752 130.613 37.4891 130.413 37.1511C130.214 36.813 130.114 36.4302 130.114 36.0027C130.114 35.5751 130.214 35.1936 130.413 34.8585C130.613 34.5234 130.886 34.2634 131.232 34.0785C131.579 33.8935 131.969 33.801 132.402 33.801C132.79 33.801 133.139 33.8791 133.451 34.0351C133.763 34.1912 134.015 34.4165 134.205 34.7112V33.8358H134.795ZM132.463 37.6754C132.792 37.6754 133.09 37.6047 133.356 37.4631C133.622 37.3215 133.828 37.1236 133.976 36.8693C134.123 36.6151 134.197 36.3263 134.197 36.0027C134.197 35.679 134.123 35.3916 133.976 35.1402C133.828 34.8889 133.623 34.6924 133.36 34.5508C133.097 34.4092 132.798 34.3385 132.463 34.3385C132.134 34.3385 131.838 34.4078 131.575 34.5465C131.312 34.6851 131.107 34.8817 130.959 35.1359C130.812 35.3902 130.738 35.679 130.738 36.0027C130.738 36.3263 130.812 36.6151 130.959 36.8693C131.107 37.1236 131.312 37.3215 131.575 37.4631C131.838 37.6047 132.134 37.6754 132.463 37.6754ZM140.637 33.8358V37.8402C140.637 38.6144 140.46 39.188 140.108 39.5606C139.755 39.9334 139.224 40.1197 138.513 40.1197C138.114 40.1197 137.737 40.0576 137.382 39.9334C137.027 39.8091 136.739 39.6373 136.52 39.4176L136.832 38.9496C137.028 39.1461 137.271 39.2992 137.56 39.409C137.849 39.5188 138.158 39.5737 138.487 39.5737C139.013 39.5737 139.4 39.4393 139.648 39.1706C139.897 38.9019 140.021 38.4844 140.021 37.9181V37.3895C139.859 37.6553 139.638 37.8604 139.358 38.0049C139.078 38.1493 138.762 38.2215 138.409 38.2215C137.814 38.2215 137.344 38.0554 137 37.7231C136.657 37.3909 136.485 36.9041 136.485 36.2627V33.8358H137.1V36.202C137.1 36.6816 137.219 37.0456 137.456 37.2941C137.692 37.5426 138.031 37.6668 138.47 37.6668C138.949 37.6668 139.328 37.5209 139.605 37.2291C139.883 36.9373 140.021 36.5314 140.021 36.0113V33.8358H140.637ZM148.671 33.8358V38.3949H142.379V33.8358H142.994V37.8575H145.23V33.8358H145.846V37.8575H148.056V33.8358H148.671ZM149.373 37.8575V39.3917H148.793V38.3949H148.021V37.8575H149.373ZM154.444 33.8358V38.3949H153.855V37.5628C153.693 37.8402 153.47 38.0554 153.187 38.2085C152.904 38.3616 152.58 38.4382 152.216 38.4382C151.615 38.4382 151.143 38.2721 150.799 37.9398C150.455 37.6076 150.284 37.1207 150.284 36.4793V33.8358H150.899V36.4187C150.899 36.8983 151.017 37.2623 151.254 37.5108C151.491 37.7593 151.832 37.8835 152.277 37.8835C152.757 37.8835 153.135 37.7376 153.413 37.4458C153.69 37.154 153.829 36.748 153.829 36.228V33.8358H154.444ZM159.046 38.3949L157.599 36.488L156.143 38.3949H155.449L157.252 36.0546L155.536 33.8358H156.229L157.599 35.6213L158.968 33.8358H159.644L157.928 36.0546L159.748 38.3949H159.046ZM164.68 36.3666H163.64V38.3949H163.025V33.8358H163.64V35.838H164.689L166.293 33.8358H166.96L165.166 36.0459L167.09 38.3949H166.362L164.68 36.3666ZM169.777 38.4382C169.338 38.4382 168.942 38.3386 168.589 38.1392C168.237 37.9398 167.96 37.6639 167.757 37.3114C167.555 36.959 167.454 36.5602 167.454 36.1153C167.454 35.6704 167.555 35.2717 167.757 34.9192C167.96 34.5667 168.237 34.2922 168.589 34.0958C168.942 33.8993 169.338 33.801 169.777 33.801C170.216 33.801 170.612 33.8993 170.964 34.0958C171.317 34.2922 171.593 34.5667 171.792 34.9192C171.991 35.2717 172.091 35.6704 172.091 36.1153C172.091 36.5602 171.991 36.959 171.792 37.3114C171.593 37.6639 171.317 37.9398 170.964 38.1392C170.612 38.3386 170.216 38.4382 169.777 38.4382ZM169.777 37.8922C170.1 37.8922 170.391 37.8185 170.648 37.6711C170.905 37.5238 171.106 37.3144 171.25 37.0427C171.395 36.7712 171.467 36.462 171.467 36.1153C171.467 35.7686 171.395 35.4595 171.25 35.1878C171.106 34.9163 170.905 34.7069 170.648 34.5595C170.391 34.4121 170.1 34.3385 169.777 34.3385C169.453 34.3385 169.163 34.4121 168.906 34.5595C168.649 34.7069 168.446 34.9163 168.299 35.1878C168.152 35.4595 168.078 35.7686 168.078 36.1153C168.078 36.462 168.152 36.7712 168.299 37.0427C168.446 37.3144 168.649 37.5238 168.906 37.6711C169.163 37.8185 169.453 37.8922 169.777 37.8922ZM178.505 33.8358V38.3949H177.942V34.7892L176.096 37.8402H175.818L173.972 34.7805V38.3949H173.409V33.8358H174.033L175.966 37.1207L177.933 33.8358H178.505ZM184.347 33.8358V38.3949H183.732V34.3818H180.871V38.3949H180.256V33.8358H184.347ZM190.241 33.8358V38.3949H189.652V37.4934C189.467 37.7997 189.223 38.0337 188.919 38.1955C188.616 38.3573 188.273 38.4382 187.892 38.4382C187.464 38.4382 187.077 38.34 186.731 38.1435C186.384 37.947 186.112 37.6726 185.916 37.3201C185.719 36.9676 185.621 36.5661 185.621 36.1153C185.621 35.6646 185.719 35.263 185.916 34.9105C186.112 34.558 186.384 34.285 186.731 34.0914C187.077 33.8979 187.464 33.801 187.892 33.801C188.262 33.801 188.596 33.8776 188.893 34.0308C189.191 34.1839 189.435 34.4078 189.626 34.7025V33.8358H190.241ZM187.944 37.8922C188.262 37.8922 188.549 37.8185 188.807 37.6711C189.064 37.5238 189.266 37.3144 189.413 37.0427C189.561 36.7712 189.634 36.462 189.634 36.1153C189.634 35.7686 189.561 35.4595 189.413 35.1878C189.266 34.9163 189.064 34.7069 188.807 34.5595C188.549 34.4121 188.262 34.3385 187.944 34.3385C187.62 34.3385 187.33 34.4121 187.073 34.5595C186.816 34.7069 186.614 34.9163 186.466 35.1878C186.319 35.4595 186.245 35.7686 186.245 36.1153C186.245 36.462 186.319 36.7712 186.466 37.0427C186.614 37.3144 186.816 37.5238 187.073 37.6711C187.33 37.8185 187.62 37.8922 187.944 37.8922ZM191.974 33.8358H192.59V35.8553H195.459V33.8358H196.074V38.3949H195.459V36.384H192.59V38.3949H191.974V33.8358ZM201.838 33.8358V38.3949H201.249V37.5628C201.087 37.8402 200.865 38.0554 200.581 38.2085C200.298 38.3616 199.975 38.4382 199.611 38.4382C199.01 38.4382 198.537 38.2721 198.193 37.9398C197.85 37.6076 197.678 37.1207 197.678 36.4793V33.8358H198.293V36.4187C198.293 36.8983 198.412 37.2623 198.648 37.5108C198.885 37.7593 199.226 37.8835 199.671 37.8835C200.151 37.8835 200.529 37.7376 200.807 37.4458C201.084 37.154 201.223 36.748 201.223 36.228V33.8358H201.838ZM207.602 33.8358V38.3949H207.013V37.5628C206.851 37.8402 206.628 38.0554 206.345 38.2085C206.062 38.3616 205.739 38.4382 205.375 38.4382C204.774 38.4382 204.301 38.2721 203.957 37.9398C203.613 37.6076 203.442 37.1207 203.442 36.4793V33.8358H204.057V36.4187C204.057 36.8983 204.175 37.2623 204.412 37.5108C204.649 37.7593 204.99 37.8835 205.435 37.8835C205.915 37.8835 206.293 37.7376 206.571 37.4458C206.848 37.154 206.987 36.748 206.987 36.228V33.8358H207.602ZM205.522 33.1856C205.129 33.1856 204.817 33.0875 204.586 32.891C204.355 32.6945 204.236 32.4171 204.23 32.0588H204.672C204.678 32.2842 204.759 32.4648 204.915 32.6006C205.071 32.7364 205.273 32.8043 205.522 32.8043C205.77 32.8043 205.974 32.7364 206.133 32.6006C206.292 32.4648 206.374 32.2842 206.38 32.0588H206.822C206.816 32.4171 206.696 32.6945 206.462 32.891C206.228 33.0875 205.915 33.1856 205.522 33.1856Z" fill="#0A0620"/>
</svg>
