<svg width="148" height="50" viewBox="0 0 148 50" fill="none" xmlns="http://www.w3.org/2000/svg">
<path d="M30.4365 26.6089H36.3558C37.1965 26.5743 38.0385 26.6014 38.8753 26.69C40.7364 26.9439 42.6216 27.7794 42.6216 30.0745C42.6216 31.9959 41.5091 32.8949 40.1645 33.1875V33.3039C42.1088 33.6564 43.2246 34.7141 43.2246 36.7976C43.2246 40.2173 40.0155 41.1621 37.4128 41.2891C36.7786 41.2891 35.9642 41.2891 35.4166 41.2891H30.4365V26.6089ZM34.5953 38.5145H36.283C37.7109 38.5145 39.1144 38.0774 39.1144 36.6813C39.1144 35.3698 38.054 34.9185 36.0785 34.9185H34.5848L34.5953 38.5145ZM34.6819 32.3132H35.9365C37.6693 32.3132 38.6812 31.9607 38.6812 30.829C38.6812 29.93 38.054 29.4188 36.3627 29.4188H34.6715L34.6819 32.3132Z" fill="#0A0620"/>
<path d="M9.91517 41.5954C3.6528 41.5954 0.246094 37.0123 0.246094 31.2305C0.246094 25.4099 4.25235 20.6364 10.8335 20.6364C12.5663 20.6364 14.0913 20.8691 15.4117 21.5671V25.3217C14.0852 24.4837 12.5508 24.0494 10.9895 24.0702C6.5258 24.0702 4.7826 27.4159 4.7826 30.9414C4.7826 34.8688 6.959 37.9924 10.5875 37.9924C12.1557 37.9944 13.6963 37.5721 15.0512 36.769L16.1395 39.7375C14.3006 40.98 12.1363 41.6298 9.92907 41.6024L9.91517 41.5954ZM80.5897 41.5954C75.9561 41.5954 73.5821 38.1299 73.5821 33.998C73.5821 29.369 76.7289 26.3124 80.9362 26.3124C82.7937 26.3124 83.771 26.6897 84.54 27.155V30.476C83.6888 29.7881 82.6262 29.4275 81.5392 29.4571C79.1653 29.4571 77.7062 31.2199 77.7062 33.7935C77.7062 36.0922 78.8187 38.3344 81.4768 38.3344C82.4631 38.2702 83.4225 37.981 84.2838 37.4882L85.2542 40.1958C83.8463 41.0702 82.2386 41.5563 80.5897 41.606V41.5954ZM93.4122 29.9225V41.3028H89.2922V29.9225H85.2852V26.605H97.9315L96.8917 29.9225H93.4122ZM113.225 28.329C113.225 33.4516 113.024 36.1274 112.109 37.3507C111.636 37.9639 110.95 38.37 110.193 38.486L111.336 41.6024C112.606 41.5444 113.813 41.0267 114.74 40.1429C116.057 38.835 116.49 37.1779 116.687 35.4293C116.871 33.8449 116.968 32.2512 116.975 30.6558V29.9225H120.195V41.3028H124.315V26.605H113.225V28.329ZM19.7887 35.1015C19.8754 37.0827 21.7087 38.3026 23.6251 38.3026C25.0114 38.3026 26.0823 38.0417 27.7181 37.245L28.633 39.8961C26.9341 41.0043 24.9572 41.5906 22.9389 41.5848C17.7856 41.5848 15.6612 37.8584 15.6612 33.9874C15.6612 29.8555 18.0871 26.3018 22.4122 26.3018C26.3631 26.3018 29.1113 29.2703 29.1113 33.8111V35.0908L19.7887 35.1015ZM22.3083 29.3866C20.6482 29.3866 19.7021 30.899 19.7021 32.2387H24.9005C24.8139 30.8286 24.0411 29.3866 22.2979 29.3866H22.3083ZM48.1722 35.1191C48.2589 37.1004 50.0921 38.3202 52.0086 38.3202C53.3948 38.3202 54.4693 38.0593 56.1015 37.2626L57.0165 39.9137C55.3179 41.0226 53.3407 41.6091 51.3225 41.6024C46.1725 41.6024 44.0447 37.876 44.0447 34.0051C44.0447 29.8732 46.4705 26.3194 50.7957 26.3194C54.743 26.3194 57.4912 29.2879 57.4912 33.8287V35.1085L48.1722 35.1191ZM50.6917 29.3866C49.0316 29.3866 48.0717 30.8815 48.0717 32.2071H53.2701C53.1834 30.7968 52.4072 29.3549 50.664 29.3549L50.6917 29.3866ZM105.83 40.0124C105.306 40.5368 104.684 40.9486 104 41.2236C103.317 41.4985 102.586 41.6309 101.851 41.613C99.1062 41.613 97.0441 39.7481 97.0441 36.836C97.0441 33.723 99.5089 32.1224 103.168 32.0061L105.594 31.918V31.6289C105.594 30.0847 104.367 29.4748 102.94 29.4748C101.649 29.4686 100.381 29.8209 99.2728 30.4936L98.0144 27.9306C99.9903 26.6226 101.876 26.3301 103.851 26.3301C107.663 26.3301 109.69 27.8707 109.69 31.7452V41.3028H106.485L105.83 40.0124ZM103.75 34.7242C101.976 34.7841 101.152 35.3941 101.152 36.487C101.152 37.5798 101.921 38.3202 103.321 38.3202C104.119 38.3584 104.906 38.1225 105.556 37.6504V34.6749L103.75 34.7242ZM62.9392 40.982V47.1833L58.8151 48.4631V26.605H62.2807L62.7382 27.9412C63.7952 27.0986 65.029 26.3124 66.6301 26.3124C69.9501 26.3124 72.5528 28.8719 72.5528 33.5326C72.5528 37.8972 69.9779 41.5954 65.7152 41.5954C64.7559 41.6214 63.8047 41.4109 62.9427 40.982H62.9392ZM62.9392 31.026V37.9853C63.4568 38.3554 64.074 38.5537 64.7067 38.5529C67.5104 38.5529 68.4253 35.9617 68.4253 33.4586C68.4322 30.4443 67.4791 29.3866 65.7983 29.3866C64.7136 29.3866 63.4279 30.2892 62.9392 31.0436V31.026Z" fill="#0A0620"/>
<path d="M130.145 31.3876V25.9724L126.024 27.2698V41.326H131.289C135.122 41.326 138.698 40.2683 138.698 36.2316C138.698 32.7978 135.812 31.4017 132.263 31.4017L130.145 31.3876ZM130.145 38.4033V34.2996H131.532C132.994 34.2996 134.595 34.5323 134.595 36.2774C134.595 38.0225 133.209 38.3928 131.59 38.3928L130.145 38.4033Z" fill="#0A0620"/>
<path d="M144.942 16.9999C145.212 16.9055 145.466 16.7713 145.697 16.6016C146.106 15.524 146.453 14.4234 146.737 13.3052C147.108 11.8735 147.367 10.414 147.51 8.94068C147.623 7.7683 147.623 6.58758 147.51 5.41519C147.399 4.32934 147.122 3.22586 146.471 2.5948C145.819 1.96374 144.759 1.67817 143.719 1.58298C142.564 1.50183 141.403 1.52897 140.253 1.66407C140.507 1.78067 140.74 1.93646 140.946 2.12591C141.584 2.71819 141.879 3.73 142.007 4.72067C142.108 5.50824 142.144 6.30313 142.114 7.09686C142.047 8.72199 141.804 10.3347 141.39 11.9056C141.077 13.1582 140.664 14.3821 140.152 15.5651C140.805 15.9776 141.489 16.3371 142.198 16.6404C143.116 17.0211 144.124 17.2643 144.942 16.9999Z" fill="#0A0620"/>
<path d="M129.915 14.0009C129.858 14.2874 129.846 14.5812 129.877 14.8717C130.59 15.7583 131.351 16.6034 132.157 17.403C133.197 18.4515 134.318 19.4135 135.509 20.2798C136.451 20.9581 137.452 21.548 138.499 22.0425C139.473 22.4973 140.554 22.7899 141.414 22.5502C142.274 22.3105 143.043 21.4926 143.656 20.5865C144.313 19.6135 144.874 18.5766 145.33 17.4912C145.097 17.6682 144.837 17.8063 144.561 17.9001C143.743 18.168 142.734 17.9212 141.827 17.5476C141.105 17.2398 140.41 16.8732 139.747 16.4511C138.401 15.5774 137.152 14.5572 136.021 13.4086C135.111 12.5071 134.276 11.5308 133.523 10.4895C132.847 10.8612 132.202 11.2868 131.592 11.7622C130.813 12.3792 130.099 13.1478 129.915 14.0009Z" fill="#0A0620"/>
<path d="M139.971 2.24328C139.764 2.06078 139.53 1.91104 139.278 1.79907C138.15 1.97669 137.033 2.22274 135.934 2.5359C134.533 2.91592 133.163 3.40748 131.838 4.00603C130.786 4.49418 129.783 5.0845 128.843 5.76877C127.966 6.41041 127.152 7.21775 126.93 8.10265C126.709 8.98755 127.03 10.0875 127.492 11.0852C127.991 12.1415 128.59 13.1462 129.28 14.0854C129.246 13.7915 129.26 13.4939 129.318 13.204C129.502 12.3473 130.216 11.5787 130.992 10.9689C131.618 10.4864 132.282 10.0572 132.978 9.6856C134.395 8.93264 135.89 8.34147 137.435 7.92285C138.648 7.57162 139.888 7.32282 141.143 7.17897C141.171 6.39346 141.135 5.60693 141.035 4.82747C140.907 3.8368 140.602 2.82499 139.971 2.24328Z" fill="#0A0620"/>
</svg>
