<svg width="86" height="32" viewBox="0 0 86 32" fill="none" xmlns="http://www.w3.org/2000/svg">
<mask id="mask0_6428_6847" style="mask-type:luminance" maskUnits="userSpaceOnUse" x="0" y="4" width="86" height="23">
<path d="M86 4.3916H0V26.6083H86V4.3916Z" fill="white"/>
</mask>
<g mask="url(#mask0_6428_6847)">
<path d="M32.8727 4.91406L25.4531 24.6027H29.4404L30.9802 20.4906H38.8577L40.3902 24.6027H44.3472L36.9552 4.91406H32.8727ZM32.3313 16.8772L34.9272 9.94901L37.5085 16.8772H32.3313Z" fill="#0A0620"/>
<path d="M78.942 10.522C77.5466 10.522 76.1829 10.9421 75.023 11.7293C73.8631 12.5164 72.9594 13.6352 72.4258 14.9441C71.8916 16.2531 71.7523 17.6935 72.024 19.083C72.2962 20.4726 72.968 21.7491 73.9547 22.7509C74.9407 23.7528 76.1973 24.435 77.5656 24.7115C78.9339 24.9878 80.3523 24.846 81.6411 24.3038C82.9294 23.7616 84.0312 22.8435 84.806 21.6654C85.5813 20.4874 85.9947 19.1023 85.9947 17.6856C85.9947 15.7856 85.2515 13.9636 83.9293 12.6202C82.6065 11.2767 80.8122 10.522 78.942 10.522ZM78.942 21.1762C78.2621 21.1762 77.5979 20.9715 77.0332 20.5881C76.4679 20.2046 76.0275 19.6596 75.7673 19.0219C75.5071 18.3843 75.4392 17.6826 75.5722 17.0057C75.7046 16.3288 76.0315 15.7069 76.5122 15.2189C76.9929 14.7309 77.6048 14.3985 78.2713 14.2638C78.9379 14.1292 79.6287 14.1983 80.2567 14.4624C80.8842 14.7265 81.4212 15.1739 81.7988 15.7477C82.1759 16.3216 82.3774 16.9963 82.3774 17.6865C82.3785 18.1449 82.2899 18.5991 82.1177 19.0228C81.9451 19.4465 81.6924 19.8315 81.3729 20.1556C81.054 20.4799 80.6746 20.7369 80.2573 20.912C79.8405 21.0871 79.3933 21.1769 78.942 21.1762Z" fill="#0A0620"/>
<path d="M49.098 19.5249L45.8774 10.7705H42.0742L47.2578 24.6027H51.0308L56.1218 10.7705H52.3186L49.098 19.5249Z" fill="#0A0620"/>
<path d="M68.0827 7.09448H64.4637V10.7702H62.3477V14.0729H64.4637V19.961C64.4637 23.2943 66.2735 24.727 68.819 24.727C69.6824 24.7397 70.539 24.5699 71.3345 24.2284V20.802C70.9016 20.9641 70.4451 21.0499 69.984 21.056C68.8852 21.056 68.0827 20.6196 68.0827 19.1246V14.0729H71.3345V10.7702H68.0827V7.09448Z" fill="#0A0620"/>
<path d="M59.0952 9.77399C60.5521 9.77399 61.7333 8.5744 61.7333 7.09463C61.7333 5.61487 60.5521 4.41528 59.0952 4.41528C57.6382 4.41528 56.457 5.61487 56.457 7.09463C56.457 8.5744 57.6382 9.77399 59.0952 9.77399Z" fill="#0A0620"/>
<path d="M60.906 10.7705H57.2871V24.6027H60.906V10.7705Z" fill="#0A0620"/>
<path d="M7.07641 26.5654C10.9727 26.5654 14.1313 23.3573 14.1313 19.4C14.1313 15.4426 10.9727 12.2346 7.07641 12.2346C3.18009 12.2346 0.0214844 15.4426 0.0214844 19.4C0.0214844 23.3573 3.18009 26.5654 7.07641 26.5654Z" fill="#0A0620"/>
<path d="M19.3138 25.6615C21.6682 25.6615 23.5768 23.723 23.5768 21.3317C23.5768 18.9404 21.6682 17.002 19.3138 17.002C16.9594 17.002 15.0508 18.9404 15.0508 21.3317C15.0508 23.723 16.9594 25.6615 19.3138 25.6615Z" fill="#0A0620"/>
<path d="M8.42513 11.3006C9.88213 11.3006 11.0632 10.101 11.0632 8.62125C11.0632 7.14148 9.88213 5.94189 8.42513 5.94189C6.9682 5.94189 5.78711 7.14148 5.78711 8.62125C5.78711 10.101 6.9682 11.3006 8.42513 11.3006Z" fill="#0A0620"/>
<path d="M17.6598 16.0668C20.8276 16.0668 23.3957 13.4585 23.3957 10.241C23.3957 7.02355 20.8276 4.41528 17.6598 4.41528C14.4919 4.41528 11.9238 7.02355 11.9238 10.241C11.9238 13.4585 14.4919 16.0668 17.6598 16.0668Z" fill="#0A0620"/>
</g>
</svg>
