<svg width="99" height="31" viewBox="0 0 99 31" fill="none" xmlns="http://www.w3.org/2000/svg">
<path d="M31.7405 0.0292204H29.5047V22.3393H31.7405V0.0292204ZM37.3425 0.0292204H35.1061V22.3393H37.3425V0.0292204ZM96.1369 10.302V17.7098C96.1369 18.489 95.8327 19.2375 95.2903 19.7919C94.7508 20.3453 94.0138 20.6619 93.2411 20.6723C92.8552 20.6719 92.4732 20.595 92.1173 20.4461C91.7613 20.2972 91.4384 20.0792 91.1672 19.8047C90.6164 19.2466 90.3078 18.4939 90.3086 17.7098V10.3013H88.1095V17.709C88.1095 19.0839 88.6497 20.4026 89.6125 21.3751C90.0868 21.8557 90.6517 22.2374 91.2746 22.4981C91.8975 22.7588 92.5659 22.8933 93.2411 22.8938C93.9131 22.8884 94.5775 22.7503 95.1961 22.4875C95.8147 22.2247 96.3753 21.8423 96.8457 21.3623C97.8019 20.3868 98.337 19.075 98.3359 17.709V10.3013H96.1369V10.302ZM6.36221 10.0885C4.87506 10.0811 3.43442 10.6065 2.30133 11.5698V0H0.101562V22.3109H2.30058V21.3106C3.43364 22.2739 4.8743 22.7994 6.36146 22.7919C7.19097 22.79 8.01182 22.6232 8.77626 22.3011C9.5429 21.978 10.238 21.5064 10.8217 20.9135C11.4071 20.3185 11.8701 19.6144 12.1846 18.8411C12.5002 18.0658 12.6615 17.2364 12.6596 16.3994C12.6454 14.725 11.9759 13.1229 10.7947 11.9361C10.2135 11.3521 9.52288 10.8883 8.76232 10.5712C8.00177 10.2542 7.18619 10.0902 6.36221 10.0885ZM6.36221 20.6221C5.82321 20.6207 5.28982 20.5126 4.7928 20.304C4.29579 20.0954 3.84499 19.7905 3.4664 19.4068C2.69681 18.6274 2.26484 17.5764 2.26387 16.481C2.26492 15.3857 2.69688 14.3347 3.4664 13.5552C3.84505 13.1717 4.29588 12.8669 4.79289 12.6585C5.2899 12.45 5.82326 12.342 6.36221 12.3407C6.90104 12.3421 7.43425 12.4502 7.93113 12.6586C8.42801 12.8671 8.87871 13.1718 9.25728 13.5552C10.0268 14.3347 10.4588 15.3857 10.4598 16.481C10.457 17.5756 10.0246 18.6254 9.25578 19.4046C8.87737 19.788 8.42696 20.0929 7.93041 20.3019C7.43385 20.5108 6.90093 20.6196 6.36221 20.6221ZM79.9106 10.117C79.0826 10.1196 78.2633 10.286 77.4999 10.6066C76.7365 10.9272 76.044 11.3956 75.4624 11.9848C74.2798 13.1825 73.6156 14.7972 73.6132 16.4803C73.6138 18.1638 74.2773 19.7793 75.4601 20.9772C76.042 21.5666 76.7349 22.035 77.4987 22.3552C78.2626 22.6754 79.0823 22.8411 79.9106 22.8428C80.7389 22.8412 81.5586 22.6755 82.3225 22.3552C83.0863 22.035 83.7792 21.5667 84.3611 20.9772C85.5438 19.7792 86.2073 18.1637 86.208 16.4803C86.2075 14.7966 85.544 13.1808 84.3611 11.9826C83.7792 11.3931 83.0863 10.9248 82.3225 10.6046C81.5586 10.2844 80.7389 10.1186 79.9106 10.117ZM79.9106 20.6213C79.3717 20.6198 78.8384 20.5115 78.3415 20.3028C77.8446 20.0941 77.394 19.7891 77.0155 19.4053C76.2458 18.6263 75.8138 17.5755 75.813 16.4803C75.8136 15.3848 76.2456 14.3337 77.0155 13.5545C77.394 13.1709 77.8447 12.866 78.3416 12.6574C78.8385 12.4489 79.3717 12.3407 79.9106 12.3392C80.4486 12.3392 80.982 12.4464 81.4788 12.6539C81.977 12.8627 82.429 13.168 82.8087 13.5523C83.382 14.135 83.7718 14.8732 83.9296 15.6754C84.0874 16.4775 84.0064 17.3084 83.6965 18.0649C83.4909 18.5661 83.1893 19.0222 82.8087 19.4076C82.4289 19.7915 81.9769 20.0966 81.4788 20.3052C80.9821 20.5133 80.4491 20.6212 79.9106 20.6213ZM45.8449 10.0878C45.0166 10.0894 44.1969 10.2551 43.433 10.5753C42.6692 10.8956 41.9763 11.3639 41.3944 11.9534C40.2116 13.1513 39.5481 14.7668 39.5475 16.4503C39.5482 18.1338 40.2117 19.7493 41.3944 20.9473C41.9763 21.5367 42.6692 22.0051 43.433 22.3253C44.1969 22.6455 45.0166 22.8112 45.8449 22.8129C46.9257 22.81 47.9874 22.5274 48.9265 21.9924C49.8697 21.4549 50.6591 20.6843 51.2192 19.7545L49.0779 19.0127C48.696 19.5093 48.2058 19.9121 47.6446 20.1905C47.0851 20.4676 46.4693 20.6121 45.8449 20.6131C44.9198 20.6094 44.0232 20.2919 43.302 19.7125C42.5766 19.1292 42.0677 18.3196 41.8567 17.4131H52.1198C52.1468 16.9201 52.1468 16.4256 52.1198 15.9318C51.9944 14.3426 51.2786 12.8578 50.1133 11.7698C48.955 10.6886 47.4294 10.0874 45.8449 10.0878ZM41.9444 15.1916C42.2079 14.358 42.7282 13.6289 43.4309 13.1087C44.1298 12.5919 44.9756 12.312 45.8449 12.31C46.7074 12.3156 47.5463 12.5927 48.2425 13.102C48.942 13.6141 49.4647 14.3314 49.738 15.1541L41.9444 15.1916ZM20.9656 10.0878C20.1374 10.0895 19.3177 10.2553 18.5538 10.5755C17.79 10.8957 17.0971 11.364 16.5152 11.9534C15.3324 13.1514 14.669 14.7669 14.6683 16.4503C14.669 18.1338 15.3324 19.7493 16.5152 20.9473C17.0971 21.5367 17.7899 22.005 18.5538 22.3252C19.3177 22.6454 20.1374 22.8112 20.9656 22.8129C22.0465 22.81 23.1081 22.5273 24.0473 21.9924C24.9905 21.455 25.7799 20.6844 26.3399 19.7545L24.1986 19.0127C23.8168 19.5093 23.3265 19.9122 22.7653 20.1905C22.2058 20.4676 21.59 20.6121 20.9656 20.6131C20.0409 20.6104 19.1446 20.2931 18.4242 19.7133C17.7003 19.1295 17.1937 18.3194 16.9857 17.4131H27.248C27.2787 16.9201 27.2787 16.4256 27.248 15.9318C27.1209 14.3419 26.4035 12.857 25.2371 11.7691C24.0776 10.6883 22.5507 10.0875 20.9656 10.0878ZM17.0733 15.1691C17.3368 14.3358 17.8568 13.6071 18.5591 13.087C19.258 12.57 20.1038 12.2899 20.9731 12.2875C21.8367 12.2888 22.6776 12.5642 23.3745 13.0742C24.0745 13.5871 24.596 14.3067 24.8654 15.1316L17.0733 15.1691ZM71.4382 10.302L67.3031 19.0652L63.0594 10.302H60.6102L66.0931 21.6283L61.8637 30.5765H64.2972L73.8717 10.3013H71.4382V10.302Z" fill="#0A0620"/>
</svg>
