<svg width="136" height="30" viewBox="0 0 136 30" fill="none" xmlns="http://www.w3.org/2000/svg">
<path d="M73.602 16.6733C73.602 17.616 72.7863 18.3821 71.7848 18.3821C70.7832 18.3821 69.9684 17.616 69.9684 16.6733V10.2646H66.4727V16.6733C66.4727 19.5434 68.8558 21.877 71.7848 21.877C73.0978 21.8808 74.3664 21.4019 75.3495 20.5315C76.3322 21.4019 77.6005 21.8808 78.9133 21.877C81.8422 21.877 84.2254 19.5434 84.2254 16.6733V10.2646H80.7305V16.6733C80.7305 17.616 79.9157 18.3821 78.9133 18.3821C77.9109 18.3821 77.0969 17.616 77.0969 16.6733V10.2646H73.602V16.6733Z" fill="#0A0620"/>
<path d="M3.93203 10.2615H9.47036C12.353 10.2615 14.6975 12.8767 14.6975 16.0916C14.6975 19.3064 12.3514 21.9217 9.47036 21.9217H0.332031V18.4268H9.47036C10.4097 18.4268 11.2027 17.3572 11.2027 16.0916C11.2027 14.826 10.4097 13.7563 9.47036 13.7563H0.332031V2.05151H3.93203V10.2615Z" fill="#0A0620"/>
<path d="M21.4811 13.7595C20.5426 13.7595 19.7496 14.8292 19.7496 16.0948C19.7496 17.3604 20.5426 18.43 21.4811 18.43H27.1447C28.0832 18.43 28.8762 17.3604 28.8762 16.0948C28.8762 14.8292 28.0832 13.7595 27.1447 13.7595H21.4811ZM27.1447 21.9249H21.4811C18.5993 21.9249 16.2539 19.3096 16.2539 16.0948C16.2539 12.8799 18.5993 10.2646 21.4811 10.2646H27.1447C30.0266 10.2646 32.3719 12.8799 32.3719 16.0948C32.3719 19.3096 30.0266 21.9249 27.1447 21.9249Z" fill="#0A0620"/>
<path d="M39.1569 13.7595C38.2176 13.7595 37.4246 14.8292 37.4246 16.0948C37.4246 17.3604 38.2176 18.43 39.1569 18.43H44.8205C45.759 18.43 46.552 17.3604 46.552 16.0948C46.552 14.8292 45.759 13.7595 44.8205 13.7595H39.1569ZM44.818 21.9249H39.1569C36.2742 21.9249 33.9297 19.3096 33.9297 16.0948C33.9297 12.8799 36.2742 10.2646 39.1569 10.2646H44.8205C47.7024 10.2646 50.0468 12.8799 50.0468 16.0948C50.0468 19.3096 47.6998 21.9249 44.818 21.9249Z" fill="#0A0620"/>
<path d="M91.0084 13.7595C90.07 13.7595 89.277 14.8292 89.277 16.0948C89.277 17.3604 90.07 18.43 91.0084 18.43H96.6721C97.6105 18.43 98.4044 17.3604 98.4044 16.0948C98.4044 14.8292 97.6105 13.7595 96.6721 13.7595H91.0084ZM96.6721 21.9249H91.0084C88.1266 21.9249 85.7812 19.3096 85.7812 16.0948C85.7812 12.8799 88.1266 10.2646 91.0084 10.2646H96.6721C99.5539 10.2646 101.899 12.8799 101.899 16.0948C101.899 19.3096 99.5564 21.9249 96.6721 21.9249Z" fill="#0A0620"/>
<path d="M108.684 13.7595C107.746 13.7595 106.952 14.8292 106.952 16.0948C106.952 17.3604 107.746 18.43 108.684 18.43H114.348C115.286 18.43 116.079 17.3604 116.079 16.0948C116.079 14.8292 115.286 13.7595 114.348 13.7595H108.684ZM114.348 21.9249H108.684C105.802 21.9249 103.457 19.3096 103.457 16.0948C103.457 12.8799 105.802 10.2646 108.684 10.2646H114.348C117.23 10.2646 119.575 12.8799 119.575 16.0948C119.575 19.3096 117.23 21.9249 114.348 21.9249Z" fill="#0A0620"/>
<path d="M131.898 2H135.498V13.704H126.36C125.421 13.704 124.628 14.7736 124.628 16.0392C124.628 17.3048 125.421 18.3745 126.36 18.3745H135.497V21.8694H126.36C123.477 21.8694 121.133 19.2541 121.133 16.0392C121.133 12.8244 123.477 10.2091 126.36 10.2091H131.897L131.898 2Z" fill="#0A0620"/>
<path d="M60.3127 13.4997H64.9243V10.2646H51.6016V13.4997H56.4621V21.9249H60.3127V13.4997Z" fill="#0A0620"/>
</svg>
