<svg width="150" height="30" viewBox="0 0 150 30" fill="none" xmlns="http://www.w3.org/2000/svg">
<path d="M5.52616 8.34883V22.3268H3.79415V8.34883H0V6.70825H9.32031V8.34883H5.52616Z" fill="black"/>
<path d="M14.8044 6.70825V19.33C14.8044 20.9706 14.6622 22.4639 13.2807 23.3832C12.6762 23.7794 12.0413 23.9419 11.3607 23.9419C10.7258 23.9419 9.72016 23.7997 8.57227 22.794L9.53223 21.4379C10.0706 21.9306 10.5836 22.3064 11.3353 22.3064C12.016 22.3064 12.4121 21.9763 12.6001 21.7223C12.9962 21.2296 13.0673 20.4119 13.0673 19.3351V6.70825H14.8044Z" fill="black"/>
<path d="M36.2335 10.1571C35.7408 9.66439 34.9891 9.08029 34.1968 8.70443C33.379 8.32857 32.4191 8.09492 31.5048 8.09492C27.8986 8.09492 25.2269 10.9951 25.2269 14.6014C25.2269 18.8425 28.6706 20.9707 31.5251 20.9707C32.5816 20.9707 33.6076 20.6659 34.4304 20.2443C35.3193 19.7974 35.9542 19.2133 36.2335 18.9339V21.0875C34.5015 22.3268 32.6984 22.6112 31.5251 22.6112C26.8929 22.6112 23.4492 19.1015 23.4492 14.581C23.4492 9.92343 26.9386 6.45435 31.6216 6.45435C32.5562 6.45435 34.3593 6.57117 36.2335 7.99842V10.1571Z" fill="black"/>
<path d="M38.5859 14.5353C38.5859 9.87772 42.2176 6.45435 46.7126 6.45435C51.2077 6.45435 54.8393 9.87264 54.8393 14.5353C54.8393 19.1726 51.2331 22.6112 46.7126 22.6112C42.1922 22.6112 38.5859 19.1676 38.5859 14.5353ZM40.3687 14.5353C40.3687 18.1162 43.2029 20.9757 46.7126 20.9757C50.2274 20.9757 53.0565 18.1212 53.0565 14.5353C53.0565 10.9494 50.2274 8.09492 46.7126 8.09492C43.1978 8.09492 40.3687 10.9494 40.3687 14.5353Z" fill="black"/>
<path d="M59.7683 6.70825V20.6862H64.0755V22.3268H58.0312V6.70825H59.7683Z" fill="black"/>
<path d="M68.15 6.70825V20.6862H72.4571V22.3268H66.418V6.70825H68.15Z" fill="black"/>
<path d="M82.9099 8.34883H76.5406V12.9861H82.722V14.6216H76.5406V20.6862H82.9099V22.3268H74.8086V6.70825H82.9099V8.34883Z" fill="black"/>
<path d="M98.0331 10.1571C97.5405 9.66439 96.7938 9.08029 95.9964 8.70443C95.1786 8.32857 94.2187 8.09492 93.3044 8.09492C89.6982 8.09492 87.0316 10.9951 87.0316 14.6014C87.0316 18.8425 90.4753 20.9707 93.3298 20.9707C94.3863 20.9707 95.4123 20.6659 96.2351 20.2443C97.124 19.7974 97.7589 19.2133 98.0382 18.9339V21.0875C96.3062 22.3268 94.5031 22.6112 93.3349 22.6112C88.6976 22.6112 85.2539 19.1015 85.2539 14.581C85.2539 9.92343 88.7433 6.45435 93.4263 6.45435C94.3609 6.45435 96.164 6.57117 98.0382 7.99842V10.1571H98.0331Z" fill="black"/>
<path d="M105.066 8.34883V22.3268H103.329V8.34883H99.5352V6.70825H108.855V8.34883H105.066Z" fill="black"/>
<path d="M112.939 6.70825V22.3268H111.207V6.70825H112.939Z" fill="black"/>
<path d="M116.125 14.5353C116.125 9.87772 119.757 6.45435 124.252 6.45435C128.752 6.45435 132.373 9.87264 132.373 14.5353C132.373 19.1726 128.767 22.6112 124.252 22.6112C119.736 22.6112 116.125 19.1676 116.125 14.5353ZM117.908 14.5353C117.908 18.1162 120.742 20.9757 124.252 20.9757C127.766 20.9757 130.596 18.1212 130.596 14.5353C130.596 10.9494 127.761 8.09492 124.252 8.09492C120.742 8.09492 117.908 10.9494 117.908 14.5353Z" fill="black"/>
<path d="M135.57 22.3318V6.05811L147.75 18.817V6.70824H149.482V23.0277L137.307 10.2688V22.3267H135.57V22.3318Z" fill="black"/>
</svg>
