<svg width="182" height="30" viewBox="0 0 182 30" fill="none" xmlns="http://www.w3.org/2000/svg">
<g style="mix-blend-mode:luminosity">
<path d="M69.4248 20.7448C69.4248 20.9635 69.3523 21.1454 69.2073 21.2905C69.0627 21.4363 68.8815 21.5091 68.6637 21.5087H67.378C67.1606 21.5087 66.9795 21.436 66.8349 21.2905C66.7633 21.2189 66.7071 21.1336 66.6697 21.0398C66.6323 20.946 66.6146 20.8456 66.6175 20.7448V17.4356C66.6175 17.2172 66.69 17.0353 66.8349 16.8898C66.9795 16.744 67.1606 16.6713 67.378 16.6716H67.7766C67.9484 16.4446 68.1023 16.1624 68.2383 15.8442C68.3743 15.5172 68.4825 15.1714 68.5823 14.7803C68.6732 14.3986 68.7546 13.9987 68.8176 13.5894C68.8812 13.1801 68.9174 12.7714 68.9447 12.3709L69.0261 11.18C69.03 11.077 69.0545 10.9758 69.098 10.8823C69.1416 10.7887 69.2033 10.7046 69.2798 10.6348C69.3525 10.5637 69.4388 10.5078 69.5336 10.4702C69.6283 10.4327 69.7297 10.4143 69.8318 10.4161H75.4826C75.7 10.4161 75.8812 10.489 76.0262 10.6348C76.1708 10.7799 76.2431 10.9616 76.2431 11.18V16.6716H76.9857C77.2032 16.6716 77.3844 16.7445 77.5293 16.8903C77.6739 17.0355 77.7463 17.2172 77.7463 17.4356V20.7448C77.7463 20.9635 77.6739 21.1454 77.5293 21.2905C77.3844 21.4363 77.2032 21.5091 76.9857 21.5087H75.7C75.4826 21.5087 75.3014 21.436 75.1564 21.2905C75.0849 21.2189 75.0288 21.1336 74.9915 21.0397C74.9542 20.9459 74.9365 20.8456 74.9395 20.7448V19.4898H69.4248V20.7448ZM73.2273 13.2348H71.8791L71.8423 13.5993C71.752 14.3627 71.6249 14.999 71.4621 15.4995C71.2993 15.9999 71.127 16.3899 70.9369 16.6722H73.2278L73.2273 13.2348ZM81.6764 15.953C81.8214 16.3806 82.0929 16.6992 82.4732 16.8992C82.854 17.0992 83.2978 17.1991 83.7957 17.1991C84.1307 17.1991 84.4296 17.1809 84.6833 17.1356C84.9374 17.0965 85.1863 17.0294 85.4254 16.9357C85.5704 16.881 85.7242 16.8534 85.8692 16.8534C86.1948 16.8534 86.4217 16.9992 86.5756 17.2809L86.9013 17.9266C86.9559 18.036 86.9832 18.1536 86.9832 18.2901C86.9832 18.59 86.865 18.8082 86.6208 18.954C86.041 19.281 85.5157 19.481 85.0268 19.581C84.5472 19.6721 84.031 19.7268 83.4784 19.7268C82.7274 19.7268 82.0478 19.6086 81.4501 19.381C80.8729 19.1695 80.3482 18.8378 79.9112 18.4083C79.4852 17.9901 79.1591 17.4902 78.9238 16.8898C78.688 16.2988 78.5703 15.6442 78.5703 14.935C78.5703 14.2712 78.6881 13.653 78.9238 13.0801C79.1494 12.5121 79.4849 11.9933 79.9112 11.5528C80.3459 11.1073 80.8702 10.7573 81.4501 10.5254C82.0567 10.2802 82.7269 10.1526 83.4784 10.1526C84.0583 10.1526 84.6106 10.2526 85.1355 10.4525C85.6607 10.6525 86.1318 10.9436 86.5304 11.3253C86.9386 11.7106 87.2675 12.1708 87.4989 12.6802C87.7437 13.2077 87.8613 13.7894 87.8613 14.4351C87.8613 14.7986 87.8435 15.099 87.7983 15.3443C87.771 15.4901 87.6891 15.626 87.5446 15.7624C87.3997 15.89 87.2636 15.9535 87.1098 15.9535L81.6764 15.953ZM84.8366 13.9352C84.8366 13.6259 84.7101 13.3348 84.4653 13.0801C84.2211 12.8167 83.8498 12.6896 83.3697 12.6896C82.8627 12.6896 82.4734 12.7986 82.2016 13.0166C81.9299 13.2353 81.7216 13.5445 81.5766 13.944H84.8366V13.9352Z" fill="#0A0620"/>
<path fill-rule="evenodd" clip-rule="evenodd" d="M92.0331 19.4902C91.816 19.4902 91.635 19.4173 91.49 19.2715C91.4185 19.2 91.3624 19.1148 91.325 19.0212C91.2876 18.9276 91.2698 18.8274 91.2726 18.7268V13.4346H89.4254C89.208 13.4346 89.0268 13.3619 88.8818 13.2164C88.8102 13.1448 88.7541 13.0596 88.7167 12.9659C88.6793 12.8722 88.6615 12.7719 88.6644 12.6712V11.1798C88.6644 10.9615 88.7368 10.7797 88.8818 10.6346C89.0268 10.4888 89.208 10.4159 89.4254 10.4159H96.1445C96.3615 10.4159 96.5426 10.4888 96.6875 10.6346C96.8325 10.7797 96.905 10.9615 96.905 11.1798V12.6712C96.905 12.8896 96.8325 13.0713 96.6875 13.2164C96.5429 13.3622 96.3619 13.4351 96.1445 13.4351H94.2973V18.7263C94.2973 18.9446 94.2248 19.1265 94.0798 19.272C93.9352 19.4178 93.754 19.4905 93.5362 19.4902H92.0331ZM104.231 13.3528C103.751 13.1076 103.289 12.9894 102.845 12.9894C102.601 12.9894 102.366 13.0258 102.139 13.1076C101.91 13.1927 101.698 13.3191 101.514 13.4804C101.323 13.6544 101.169 13.8646 101.062 14.0985C100.944 14.3438 100.889 14.626 100.889 14.9442C100.889 15.253 100.953 15.5258 101.07 15.7716C101.188 16.0169 101.342 16.2169 101.533 16.3897C101.723 16.5626 101.931 16.6897 102.166 16.7714C102.402 16.8626 102.637 16.899 102.881 16.899C103.352 16.899 103.824 16.7532 104.294 16.4533C104.466 16.3351 104.657 16.271 104.856 16.271C105.109 16.271 105.317 16.3804 105.481 16.5991L106.106 17.426C106.214 17.5718 106.268 17.7353 106.268 17.9082C106.268 18.1811 106.16 18.3899 105.942 18.5539C105.336 19.0356 104.765 19.3538 104.231 19.499C103.696 19.6448 103.18 19.7177 102.701 19.7177C101.94 19.7177 101.243 19.599 100.618 19.372C100.025 19.1602 99.482 18.829 99.0242 18.3992C98.5819 17.9715 98.2388 17.4533 98.0189 16.8808C97.7836 16.2898 97.6655 15.6352 97.6655 14.926C97.6618 14.2917 97.7787 13.6625 98.01 13.0711C98.2285 12.5017 98.5612 11.9821 98.988 11.5438C99.4194 11.1026 99.9369 10.753 100.509 10.5164C101.097 10.2706 101.75 10.1436 102.456 10.1436C103.063 10.1436 103.606 10.1981 104.086 10.3071C104.566 10.4164 105.082 10.6435 105.616 10.9981C105.916 11.1892 106.06 11.4251 106.06 11.7073C106.06 11.8437 106.024 11.9708 105.942 12.089L105.363 13.0617C105.2 13.3346 104.973 13.4622 104.675 13.4622C104.519 13.4728 104.364 13.4346 104.231 13.3528ZM110.986 15.153V18.7263C110.986 18.9446 110.914 19.1265 110.769 19.272C110.624 19.4178 110.443 19.4905 110.225 19.4902H108.741C108.524 19.4902 108.343 19.4173 108.198 19.2715C108.126 19.1999 108.07 19.1147 108.032 19.021C107.995 18.9273 107.977 18.827 107.98 18.7263V11.1704C107.98 10.9524 108.053 10.7707 108.198 10.6252C108.342 10.4794 108.523 10.4067 108.741 10.407H110.226C110.443 10.407 110.625 10.4798 110.77 10.6252C110.914 10.771 110.986 10.9529 110.986 11.171V14.362L113.323 10.9069C113.433 10.7566 113.575 10.6325 113.74 10.5435C113.911 10.4523 114.084 10.3977 114.274 10.3977H115.687C115.912 10.3977 116.103 10.4799 116.248 10.6435C116.393 10.8066 116.465 10.9885 116.465 11.1892C116.465 11.3523 116.411 11.5068 116.303 11.6526L114.174 14.4802L115.161 15.8352C115.533 16.3351 115.895 16.626 116.248 16.7079C116.556 16.7714 116.764 16.8808 116.864 17.0079C116.963 17.1443 117.017 17.3625 117.017 17.6718V18.908C117.017 19.072 116.954 19.2173 116.836 19.3538C116.718 19.4902 116.574 19.5719 116.411 19.599C116.302 19.6084 116.203 19.6266 116.112 19.6266C116.013 19.6343 115.913 19.6372 115.813 19.6355C115.569 19.6355 115.325 19.6084 115.062 19.5537C114.8 19.499 114.537 19.3991 114.274 19.2626C114.012 19.1173 113.749 18.9262 113.486 18.6627C113.224 18.4081 112.961 18.0811 112.689 17.6718L110.986 15.153ZM125.71 19.4902C125.493 19.4902 125.312 19.4173 125.167 19.2715C125.095 19.1999 125.039 19.1146 125.002 19.0209C124.965 18.9272 124.947 18.827 124.95 18.7263V14.7447L122.07 18.9908C121.968 19.1316 121.842 19.2544 121.699 19.3543C121.554 19.4454 121.391 19.5001 121.21 19.5001H119.48C119.263 19.5001 119.082 19.4272 118.937 19.2814C118.865 19.2098 118.809 19.1245 118.772 19.0308C118.735 18.9371 118.717 18.8369 118.72 18.7362V11.1798C118.72 10.9615 118.792 10.7797 118.937 10.6346C119.082 10.4888 119.263 10.4159 119.48 10.4159H120.965C121.183 10.4159 121.364 10.4888 121.509 10.6346C121.654 10.7797 121.726 10.9615 121.726 11.1798V15.1624L124.606 10.9163C124.714 10.7705 124.832 10.6435 124.968 10.5523C125.104 10.4617 125.267 10.407 125.448 10.407H127.196C127.413 10.407 127.594 10.4798 127.739 10.6252C127.884 10.771 127.956 10.9529 127.956 11.171V18.7268C127.956 18.9445 127.884 19.1262 127.739 19.272C127.594 19.4178 127.413 19.4905 127.196 19.4902H125.71Z" fill="#0A0620"/>
<path d="M137.187 19.4903C136.969 19.4903 136.788 19.4174 136.643 19.2716C136.572 19.2 136.516 19.1147 136.478 19.021C136.441 18.9273 136.423 18.827 136.426 18.7263V14.7448L133.546 18.9909C133.444 19.1317 133.318 19.2545 133.175 19.3544C133.03 19.4455 132.867 19.5002 132.686 19.5002H130.957C130.739 19.5002 130.558 19.4273 130.413 19.2814C130.341 19.2099 130.285 19.1247 130.248 19.031C130.211 18.9372 130.193 18.837 130.196 18.7362V11.1799C130.196 10.9615 130.268 10.7798 130.413 10.6347C130.558 10.4889 130.739 10.416 130.957 10.416H132.441C132.659 10.416 132.84 10.4889 132.985 10.6347C133.13 10.7798 133.202 10.9615 133.202 11.1799V15.1625L136.082 10.9164C136.19 10.7706 136.308 10.6435 136.444 10.5524C136.58 10.4613 136.743 10.4071 136.924 10.4071H138.672C138.889 10.4071 139.07 10.4799 139.215 10.6253C139.36 10.7711 139.433 10.953 139.433 11.171V18.7269C139.433 18.9445 139.36 19.1263 139.215 19.2721C139.07 19.4179 138.889 19.4906 138.672 19.4903H137.187ZM136.743 6.42508C137.142 6.42508 137.449 6.54277 137.657 6.77033C137.866 6.99737 137.966 7.29783 137.966 7.6613C137.966 8.1888 137.703 8.63403 137.187 8.99802C136.67 9.36149 135.901 9.54323 134.886 9.54323C133.764 9.54323 132.948 9.36149 132.46 8.99802C131.971 8.6342 131.726 8.18863 131.726 7.6613C131.726 7.29783 131.826 6.99737 132.025 6.77033C132.225 6.54329 132.532 6.42456 132.93 6.42456C133.275 6.42456 133.538 6.49746 133.691 6.64327C133.854 6.78855 133.963 6.97029 134.035 7.18848C134.098 7.37073 134.198 7.52487 134.316 7.64307C134.434 7.76128 134.624 7.81596 134.878 7.81596C135.104 7.81596 135.276 7.76128 135.385 7.64307C135.493 7.52487 135.575 7.37021 135.647 7.18848C135.705 6.97686 135.825 6.78695 135.991 6.64275C136.154 6.49746 136.408 6.42508 136.743 6.42508Z" fill="#0A0620"/>
<path fill-rule="evenodd" clip-rule="evenodd" d="M148.695 18.7262C148.695 18.9446 148.622 19.1265 148.477 19.2719C148.333 19.4177 148.151 19.4905 147.934 19.4901H146.449C146.231 19.4901 146.05 19.4172 145.905 19.2714C145.834 19.1999 145.777 19.1146 145.74 19.0209C145.703 18.9272 145.685 18.8269 145.688 18.7262V11.1704C145.688 10.9524 145.76 10.7706 145.905 10.6252C146.05 10.4794 146.231 10.4066 146.449 10.407H147.88C148.224 10.407 148.54 10.5616 148.803 10.8704L151.112 13.4986L153.24 10.8887C153.352 10.7497 153.487 10.63 153.638 10.5346C153.783 10.4434 153.956 10.407 154.146 10.407H155.495C155.712 10.407 155.893 10.4797 156.038 10.6252C156.183 10.771 156.256 10.9529 156.256 11.1709V18.7267C156.256 18.9444 156.183 19.1261 156.038 19.2719C155.894 19.4177 155.713 19.4905 155.495 19.4901H154.01C153.793 19.4901 153.612 19.4172 153.467 19.2714C153.395 19.1999 153.339 19.1146 153.302 19.0209C153.264 18.9272 153.246 18.8269 153.249 18.7262V15.0259L151.529 16.9713C151.384 17.1354 151.203 17.2171 151.003 17.2171C150.804 17.2171 150.632 17.1442 150.478 16.9984L148.685 15.0441V18.7262H148.695ZM165.465 19.4901C165.248 19.4901 165.067 19.4172 164.922 19.2714C164.85 19.1999 164.794 19.1146 164.757 19.0209C164.719 18.9272 164.701 18.8269 164.704 18.7262V14.7447L161.825 18.9907C161.722 19.1315 161.597 19.2544 161.454 19.3542C161.309 19.4453 161.145 19.5 160.965 19.5H159.235C159.017 19.5 158.836 19.4271 158.692 19.2813C158.62 19.2097 158.564 19.1245 158.526 19.0308C158.489 18.9371 158.471 18.8368 158.474 18.7361V11.1798C158.474 10.9614 158.547 10.7797 158.692 10.6345C158.836 10.4887 159.017 10.4158 159.235 10.4158H160.72C160.937 10.4158 161.119 10.4887 161.264 10.6345C161.408 10.7797 161.48 10.9614 161.48 11.1798V15.1623L164.36 10.9163C164.469 10.7705 164.587 10.6434 164.723 10.5523C164.859 10.4611 165.021 10.407 165.203 10.407H166.95C167.167 10.407 167.349 10.4797 167.494 10.6252C167.639 10.771 167.711 10.9529 167.711 11.1709V18.7267C167.711 18.9444 167.638 19.1261 167.494 19.2719C167.349 19.4177 167.167 19.4905 166.95 19.4901H165.465Z" fill="#0A0620"/>
<path d="M172.956 22.7636C172.956 22.9816 172.883 23.1633 172.738 23.3088C172.594 23.4546 172.413 23.5275 172.195 23.5275H170.71C170.493 23.5275 170.312 23.4546 170.167 23.3088C170.095 23.2372 170.039 23.152 170.002 23.0583C169.964 22.9646 169.947 22.8643 169.95 22.7636V11.171C169.95 10.9523 170.022 10.7704 170.167 10.6253C170.312 10.4795 170.493 10.4068 170.71 10.4071H172.304C172.392 10.4048 172.479 10.4206 172.56 10.4535C172.641 10.4864 172.714 10.5357 172.775 10.5982C172.902 10.7253 172.965 10.8794 172.965 11.0711C173.218 10.8253 173.562 10.6165 173.988 10.4342C174.414 10.2525 174.912 10.1619 175.473 10.1619C176.08 10.1619 176.632 10.2801 177.131 10.5071C177.627 10.7276 178.064 11.0608 178.407 11.4798C178.752 11.8982 179.023 12.3892 179.222 12.953C179.412 13.5164 179.512 14.1351 179.512 14.8078C179.512 15.4989 179.394 16.1352 179.159 16.7351C178.937 17.3156 178.601 17.8471 178.172 18.2994C177.746 18.7446 177.239 19.0903 176.641 19.3538C176.044 19.6085 175.374 19.7355 174.64 19.7355C174.332 19.7355 174.025 19.7085 173.726 19.6626C173.459 19.6248 173.197 19.5547 172.947 19.4538V22.7636H172.956ZM172.956 16.5627C173.182 16.6991 173.4 16.7898 173.59 16.8351C173.78 16.8804 174.043 16.908 174.369 16.908C175.03 16.908 175.509 16.708 175.827 16.3081C176.143 15.9076 176.297 15.426 176.297 14.8625C176.297 14.335 176.143 13.8893 175.845 13.5258C175.546 13.1623 175.102 12.9801 174.523 12.9801C173.961 12.9801 173.436 13.2529 172.956 13.7893V16.5627Z" fill="#0A0620"/>
<path fill-rule="evenodd" clip-rule="evenodd" d="M58.227 17.1373C57.6734 18.6412 57.1109 19.7394 56.676 20.4752C56.228 21.2313 55.354 21.6281 54.4964 21.4615C53.6755 21.3027 52.4969 21.01 50.9827 20.4732C49.4701 19.9368 48.374 19.4213 47.6397 19.0297C47.2643 18.8276 46.9624 18.5137 46.7768 18.1322C46.5911 17.7508 46.531 17.3212 46.605 16.9041C46.7495 16.0636 47.032 14.8675 47.5856 13.3631C48.1397 11.8582 48.7017 10.761 49.1371 10.0252C49.5846 9.2696 50.4585 8.8728 51.3167 9.03891C52.1366 9.19774 53.3146 9.49039 54.8278 10.0262C56.342 10.5641 57.4381 11.0781 58.1734 11.4713C58.5485 11.6735 58.8501 11.9874 59.0356 12.3687C59.221 12.75 59.281 13.1794 59.207 13.5964C59.0631 14.4363 58.7805 15.6335 58.227 17.1373Z" fill="#0A0620"/>
<path fill-rule="evenodd" clip-rule="evenodd" d="M43.5223 13.3411C44.0822 14.8398 44.37 16.0343 44.5182 16.8717C44.5944 17.2878 44.5367 17.7171 44.3531 18.0989C44.1696 18.4807 43.8696 18.7955 43.4956 18.9989C42.7634 19.3946 41.671 19.9133 40.1615 20.4569C38.6541 20.9995 37.4787 21.2963 36.661 21.4593C35.8049 21.6296 34.9304 21.238 34.4797 20.4856C34.0407 19.7519 33.475 18.6583 32.9146 17.1596C32.3553 15.6594 32.0674 14.4664 31.9193 13.6291C31.8433 13.2128 31.9011 12.7834 32.0846 12.4015C32.2681 12.0196 32.568 11.7045 32.9419 11.5008C33.673 11.1061 34.7655 10.5875 36.2728 10.0438C37.7828 9.50123 38.9582 9.20389 39.7776 9.04038C40.6331 8.87062 41.5082 9.26325 41.9577 10.0152C42.3968 10.7479 42.963 11.8419 43.5223 13.3411Z" fill="#0A0620"/>
<path fill-rule="evenodd" clip-rule="evenodd" d="M28.852 17.1373C28.2989 18.6412 27.7364 19.7394 27.301 20.4752C26.8535 21.2313 25.979 21.6281 25.1214 21.4615C24.3005 21.3027 23.1224 21.01 21.6077 20.4732C20.0951 19.9368 18.999 19.4213 18.2647 19.0297C17.8893 18.8276 17.5874 18.5137 17.4018 18.1322C17.2161 17.7508 17.156 17.3212 17.23 16.9041C17.3745 16.0636 17.6576 14.8675 18.2106 13.3631C18.7652 11.8582 19.3267 10.761 19.7621 10.0252C20.2101 9.2696 21.0835 8.8728 21.9417 9.03891C22.7621 9.19774 23.9396 9.49039 25.4533 10.0262C26.967 10.5641 28.0636 11.0781 28.7989 11.4713C29.174 11.6735 29.4756 11.9874 29.6611 12.3687C29.8465 12.75 29.9065 13.1794 29.8325 13.5964C29.6886 14.4363 29.4061 15.6335 28.852 17.1373Z" fill="#0A0620"/>
<path fill-rule="evenodd" clip-rule="evenodd" d="M14.1468 13.3411C14.7067 14.8398 14.9945 16.0343 15.1432 16.8717C15.2193 17.2878 15.1615 17.7172 14.9779 18.099C14.7943 18.4808 14.4942 18.7956 14.12 18.9989C13.3884 19.3946 12.2954 19.9133 10.7865 20.4569C9.27861 20.9995 8.10319 21.2963 7.28543 21.4593C6.86499 21.5408 6.42943 21.4908 6.03883 21.3164C5.64823 21.142 5.32186 20.8517 5.10474 20.4856C4.66566 19.7519 4.09948 18.6583 3.5396 17.1596C2.98025 15.6594 2.69191 14.4664 2.54432 13.6291C2.46826 13.2128 2.52606 12.7834 2.70956 12.4015C2.89306 12.0196 3.19297 11.7045 3.56692 11.5008C4.29801 11.1061 5.38993 10.5875 6.89782 10.0438C8.40781 9.50123 9.58219 9.20389 10.4015 9.04038C11.2566 8.87062 12.1321 9.26325 12.5812 10.0152C13.0202 10.7479 13.5875 11.8419 14.1468 13.3411Z" fill="#0A0620"/>
</g>
</svg>
