<svg width="129" height="30" viewBox="0 0 129 30" fill="none" xmlns="http://www.w3.org/2000/svg">
<g clip-path="url(#clip0_6500_8045)">
<path d="M117.651 7.34934V9.39301C116.514 7.86837 114.791 7 112.66 7C108.51 7 105.344 10.4535 105.344 15.0225C105.344 19.5914 108.51 23 112.66 23C114.791 23 116.514 22.1316 117.651 20.6095V22.6507H119.999V7.34934H117.651ZM112.723 20.6819C109.851 20.6819 107.794 18.3212 107.794 15.02C107.794 11.7186 109.87 9.31566 112.723 9.31566C115.576 9.31566 117.735 11.7211 117.735 15.02C117.735 18.3188 115.616 20.6819 112.723 20.6819Z" fill="black"/>
<path d="M102.91 7.34937H99.786L93.4769 14.5309V7.34937H91.0234V22.6507H93.4769V15.2945L99.9352 22.6507H103.226L96.2939 14.8079L102.91 7.34937Z" fill="black"/>
<path d="M84.5023 7.34937H82.0488V22.6507H84.5023V7.34937Z" fill="black"/>
<path d="M73.1793 18.5883L65.3595 7.34937H62.8223V22.6507H65.2326V11.2945L73.0549 22.6507H75.592V7.34937H73.1793V18.5883Z" fill="black"/>
<path d="M50.1156 7C45.7975 7 42.4824 10.4535 42.4824 15C42.4824 19.5465 45.7952 23 50.1156 23C54.436 23 57.7487 19.5465 57.7487 15C57.7487 10.4535 54.4336 7 50.1156 7ZM50.1156 20.6844C47.1379 20.6844 44.9359 18.2788 44.9359 15C44.9359 11.7211 47.1379 9.31566 50.1156 9.31566C53.0932 9.31566 55.2953 11.7211 55.2953 15C55.2953 18.2788 53.0932 20.6844 50.1156 20.6844Z" fill="black"/>
<path d="M40.0745 7.34937H36.9508L30.639 14.5309V7.34937H28.1855V22.6507H30.639V15.2945L37.0969 22.6507H40.388L33.4587 14.8079L40.0745 7.34937Z" fill="black"/>
<path d="M16.6116 7C12.3127 7 9 10.476 9 15C9 19.524 12.3127 22.9576 16.6116 22.9576C18.6868 22.9576 20.47 22.2788 21.686 21.0786V17.8446C20.6592 19.5939 18.7921 20.6644 16.7791 20.6644C14.0768 20.6644 12.0016 18.8154 11.5324 16.1628H21.686V9.12102C20.5107 7.74361 18.6246 7 16.6116 7ZM11.5276 13.8197C11.9728 11.1372 13.9308 9.27324 16.4847 9.27324C19.0386 9.27324 20.8243 11.2171 21.0349 13.8197H11.5276Z" fill="black"/>
</g>
<defs>
<clipPath id="clip0_6500_8045">
<rect width="111" height="16" fill="white" transform="translate(9 7)"/>
</clipPath>
</defs>
</svg>
