<svg width="120" height="30" viewBox="0 0 120 30" fill="none" xmlns="http://www.w3.org/2000/svg">
<mask id="mask0_6428_6887" style="mask-type:luminance" maskUnits="userSpaceOnUse" x="19" y="3" width="82" height="24">
<path d="M101 3.3833H19V26.6166H101V3.3833Z" fill="white"/>
</mask>
<g mask="url(#mask0_6428_6887)">
<path d="M37.2406 4.30981L36.9742 4.30992L36.9732 4.43783C36.9471 8.09755 36.9506 11.8185 36.9545 15.4172C36.9572 18.2266 36.9599 21.1269 36.9486 23.9883C32.9561 17.9003 28.7654 11.4954 24.1475 4.4232L24.1094 4.36502L24.04 4.3649C23.6782 4.36387 23.315 4.36387 22.9531 4.3649L22.8246 4.36537L22.8245 11.7947C22.8242 16.6619 22.824 21.5296 22.8246 26.3976V26.5266L24.1527 26.5236V26.3952C24.1535 23.8762 24.1533 21.357 24.1527 18.8376C24.152 14.8281 24.1512 10.819 24.1558 6.80997C28.7118 13.7843 32.9235 20.2173 37.0254 26.466L37.0634 26.5238L37.1327 26.5241C37.4717 26.5253 37.8119 26.5253 38.1522 26.5253H38.2811V26.3965C38.283 23.6325 38.282 20.8686 38.2807 18.1043C38.279 13.566 38.2771 9.02712 38.2883 4.48916L38.2885 4.38067L38.1814 4.36215C37.8664 4.30729 37.5484 4.30752 37.2406 4.30981Z" fill="black"/>
<path d="M99.3729 4.31379L99.336 4.37974C99.2827 4.47622 93.9937 13.9671 91.2877 18.8924C89.9921 16.5343 88.6869 14.1814 87.3818 11.8285C86.0035 9.34475 84.6254 6.86093 83.2594 4.37117L83.2226 4.30396L81.6523 4.30818L85.0363 10.3934C86.7632 13.4995 88.4901 16.6051 90.2162 19.703C90.2565 19.7869 90.3044 19.87 90.3522 19.9531C90.4827 20.1815 90.6071 20.3974 90.5839 20.6506C90.5811 21.8531 90.5811 23.0558 90.5818 24.2588V26.4656H91.9936V24.2588C91.9943 23.0558 91.9943 21.8531 91.9908 20.6391C91.9683 20.3971 92.0927 20.1813 92.2239 19.9526C92.2717 19.8694 92.3188 19.7867 92.3557 19.7095C94.0859 16.6051 95.812 13.4995 97.5388 10.3934L100.924 4.3067L99.3729 4.31379Z" fill="black"/>
<path d="M80.1369 4.34384L79.1892 4.34155C75.7835 4.34635 72.3756 4.34635 68.9688 4.34155L68.0208 4.34384L68.0195 5.69612L68.1458 5.69886C69.1957 5.72081 70.2688 5.71246 71.2148 5.70514C71.8461 5.70765 72.4787 5.70663 73.1049 5.70091C73.2077 5.70491 73.3104 5.71725 73.409 5.73178C73.4124 5.94896 73.4131 6.16569 73.4139 6.38242C73.4146 6.59401 73.4155 6.8056 73.4185 7.0141C73.4172 7.17504 73.4172 7.33576 73.4185 7.49831L73.42 7.61353L73.4183 9.30794C73.4164 9.55748 73.416 9.80655 73.4175 10.0545L73.4146 12.6719C73.4139 12.7863 73.4137 12.9013 73.4142 13.0155C73.4114 17.0733 73.413 21.1313 73.4218 25.188L73.4231 26.5806L73.5554 26.5773C73.7306 26.5731 73.9056 26.571 74.0778 26.5693C74.2522 26.571 74.4274 26.5731 74.6028 26.5773L74.7515 26.563L74.7364 25.1862C74.7453 21.1296 74.7464 17.0725 74.7437 13.0161L74.7409 10.0556C74.742 9.80701 74.7415 9.55828 74.7398 9.31057L74.7379 7.61525L74.7395 7.49682C74.7409 7.33576 74.7409 7.17504 74.7395 7.01707C74.7429 6.80263 74.7435 6.58829 74.7443 6.37374C74.745 6.15998 74.7457 5.94611 74.7491 5.73178C74.8475 5.71725 74.949 5.70491 75.0469 5.70091C75.6786 5.7072 76.3107 5.70799 76.9416 5.70514C77.8888 5.71246 78.9613 5.72081 80.0124 5.69886L80.1387 5.69612V5.57014C80.1387 5.20412 80.1387 4.83811 80.1374 4.47221L80.1369 4.34384Z" fill="black"/>
<path d="M19.1286 4.3394L19 4.33962V26.4998H20.3159V4.33962L20.1871 4.3394C19.834 4.33837 19.4818 4.33837 19.1286 4.3394Z" fill="black"/>
<path d="M65.2808 4.33859L65.1523 4.33905V26.4991H66.4756V4.33905L66.3472 4.33859C65.9914 4.33733 65.6354 4.33733 65.2808 4.33859Z" fill="black"/>
<path d="M61.8914 17.178C61.2871 19.8335 59.6795 22.0973 57.3649 23.5525C55.0502 25.0075 52.3104 25.4762 49.6512 24.8731C46.9917 24.2696 44.7243 22.6643 43.2669 20.3531C41.8096 18.0424 41.3401 15.3071 41.9444 12.6513C43.1942 7.16064 48.685 3.70897 54.1842 4.95609L54.4224 5.01061L54.7146 3.72703L54.4765 3.67319C51.4754 2.99168 48.3822 3.52104 45.7689 5.16378C43.1566 6.80629 41.3418 9.36178 40.6595 12.36C39.2487 18.5584 43.1515 24.7474 49.3593 26.156C50.2004 26.3471 51.0617 26.4441 51.9192 26.4441C57.2586 26.4441 61.9927 22.6696 63.1761 17.4693L63.2301 17.2317L61.9454 16.9398L61.8914 17.178Z" fill="black"/>
</g>
</svg>
