<svg width="73" height="30" viewBox="0 0 73 30" fill="none" xmlns="http://www.w3.org/2000/svg">
<path d="M4.81936 22.2861C4.40689 21.8651 4.31574 20.4062 4.31574 17.0514L4.30662 12.9888C4.30662 9.42459 4.30662 8.7896 4.35219 8.059C4.39777 7.26013 4.58008 6.87321 5.24321 6.75942C5.49273 6.71899 5.74478 6.69617 5.99751 6.69114C6.08866 6.69114 6.17981 6.64563 6.17981 6.55458C6.17981 6.41575 6.06587 6.37023 5.8152 6.37023C5.32921 6.37023 4.35018 6.40452 3.7802 6.4245L3.7764 6.42463L3.77316 6.42474C3.5424 6.43282 3.38012 6.43851 3.34724 6.43851C3.31893 6.43851 3.20875 6.43431 3.04336 6.42795L3.04069 6.42786C2.53936 6.40864 1.5361 6.37023 0.765328 6.37023C0.514657 6.37023 0.398438 6.41575 0.398438 6.55458C0.398438 6.64563 0.491869 6.69114 0.583022 6.69114C0.843583 6.69036 1.10368 6.71321 1.3601 6.75942C2.11439 6.92102 2.2967 7.2829 2.34227 8.059C2.38785 8.7896 2.38785 9.42913 2.38785 12.9888V17.0127C2.38785 19.2022 2.38785 21.0047 2.27391 21.9629C2.18275 22.6252 2.06654 23.1282 1.61077 23.2193C1.3864 23.2718 1.15743 23.3022 0.927122 23.3103C0.790393 23.3103 0.744817 23.3786 0.744817 23.4469C0.744817 23.5834 0.858758 23.6289 1.10943 23.6289C1.55049 23.6289 1.94814 23.6104 2.32825 23.5926L2.33049 23.5925C2.67819 23.5763 3.01125 23.5607 3.34951 23.5607C4.49026 23.5607 5.55909 23.5969 6.59584 23.632C7.57215 23.6651 8.52002 23.6972 9.47271 23.6972C10.6851 23.6972 10.7534 23.6062 10.9129 23.0827C11.0865 22.3342 11.2008 21.5732 11.2548 20.8067C11.2548 20.5564 11.2548 20.4653 11.118 20.4653C10.9813 20.4653 10.9357 20.5792 10.9129 20.7612C10.8255 21.257 10.6216 21.7249 10.3182 22.1268C9.76896 22.7868 8.764 22.8096 7.55394 22.8096C5.77874 22.8096 5.18397 22.6503 4.81936 22.2861Z" fill="#0A0620"/>
<path d="M16.4482 16.1842C16.4482 19.4707 17.1797 20.8841 18.1619 21.8195C19.2831 22.871 20.3108 23.0759 21.6143 23.0759C22.2941 23.0721 22.9653 22.9243 23.5836 22.6422C24.2019 22.3601 24.7533 21.9502 25.2012 21.4395C26.2517 20.1376 26.5252 18.1985 26.5252 15.8474V12.9888C26.5252 9.42913 26.5252 8.7896 26.4796 8.059C26.434 7.2829 26.2517 6.92102 25.4974 6.75942C25.241 6.71312 24.9809 6.69027 24.7203 6.69114C24.6292 6.69114 24.538 6.64563 24.538 6.55458C24.538 6.41575 24.652 6.37023 24.9026 6.37023C25.6524 6.37023 26.5181 6.40641 26.989 6.42612C27.068 6.42943 27.1364 6.43226 27.1907 6.43439C27.2573 6.43698 27.3035 6.43851 27.325 6.43851C27.37 6.43851 27.5082 6.43179 27.6977 6.4226L27.7005 6.42243L27.7039 6.42227C28.1194 6.40211 28.7772 6.37023 29.2438 6.37023C29.4967 6.37023 29.6107 6.41575 29.6107 6.55458C29.6107 6.64563 29.5195 6.69114 29.4284 6.69114C29.2361 6.69763 29.0448 6.72046 28.8564 6.75942C28.2388 6.89597 28.0565 7.26013 28.0109 8.059C27.9654 8.78954 27.9654 9.42451 27.9654 12.9879V15.4309C27.9654 17.8958 27.6919 20.6338 25.862 22.2588C24.219 23.7154 22.5053 23.943 21.1631 23.943C20.386 23.943 18.0776 23.852 16.455 22.3225C15.3361 21.2505 14.4679 19.6528 14.4679 16.3208V12.9888C14.4679 9.42913 14.4679 8.7896 14.4223 8.059C14.3767 7.2829 14.1944 6.92102 13.4402 6.75942C13.1837 6.71312 12.9236 6.69027 12.6631 6.69114C12.5719 6.69114 12.4808 6.64563 12.4808 6.55458C12.4808 6.41575 12.5947 6.37023 12.8454 6.37023C13.554 6.37023 14.4371 6.40272 14.9844 6.42283L14.9875 6.42295L14.9896 6.42304C15.2333 6.43202 15.4096 6.43851 15.4729 6.43851C15.5454 6.43851 15.7637 6.42999 16.0459 6.41896C16.5622 6.39877 17.2923 6.37023 17.7357 6.37023C17.9864 6.37023 18.1003 6.41575 18.1003 6.55458C18.1003 6.64563 18.0092 6.69114 17.918 6.69114C17.7265 6.69777 17.536 6.72062 17.3483 6.75942C16.7308 6.85046 16.5485 7.26013 16.5029 8.059C16.455 8.7896 16.455 9.42459 16.455 12.9888L16.4482 16.1842Z" fill="#0A0620"/>
<path d="M32.4661 22.4591C32.4661 23.0759 32.4912 23.1669 32.8102 23.3262C33.7723 23.7651 34.8225 23.9777 35.8798 23.9476C37.1149 23.9476 38.3477 23.6722 39.3299 22.9894C39.9277 22.5532 40.4149 21.9833 40.7525 21.3252C41.09 20.6672 41.2686 19.9393 41.2738 19.1999C41.2738 17.3746 40.6334 15.9589 37.9375 13.8377L37.2972 13.3347C35.105 11.6232 34.5102 10.8016 34.5102 9.50197C34.5102 7.83596 35.743 6.855 37.32 6.855C39.4233 6.855 40.0386 7.81318 40.1754 8.06355C40.3311 8.4259 40.4317 8.80948 40.4739 9.20154C40.4967 9.38361 40.5423 9.49743 40.6562 9.49743C40.7701 9.49743 40.8157 9.33809 40.8157 8.97167C40.8157 7.75489 40.8719 7.03046 40.896 6.71909C40.9027 6.6339 40.9069 6.57952 40.9069 6.55458C40.9069 6.4385 40.8613 6.393 40.679 6.393C40.409 6.38387 40.1409 6.34571 39.8791 6.27919C39.1829 6.11832 38.4698 6.0419 37.7552 6.0516C34.8475 6.0516 33.0244 7.71761 33.0244 10.1597C33.0244 11.7119 33.5645 13.1253 35.9869 15.11L37.0146 15.9544C38.979 17.5749 39.6421 18.4875 39.6421 20.0625C39.6421 21.5237 38.5688 23.0986 36.3743 23.0986C34.8429 23.0986 33.3366 22.4591 32.9925 20.7703C32.9401 20.492 32.9171 20.209 32.9241 19.9259C32.9241 19.7439 32.8786 19.6756 32.7646 19.6756C32.6507 19.6756 32.6051 19.7894 32.5823 20.0397C32.5776 20.1162 32.5699 20.2157 32.5606 20.3353C32.525 20.7959 32.4661 21.5558 32.4661 22.4591Z" fill="#0A0620"/>
<path d="M46.9138 12.9888C46.9138 9.42913 46.9138 8.7896 46.8682 8.059C46.8227 7.2829 46.5925 6.89597 46.0912 6.78217C45.8594 6.72394 45.6214 6.69339 45.3824 6.69114C45.2913 6.69114 45.2001 6.64563 45.2001 6.55458C45.2001 6.41575 45.3141 6.37023 45.5648 6.37023C46.1079 6.37023 47.0068 6.40563 47.51 6.42546C47.7055 6.43317 47.8413 6.43851 47.8732 6.43851C47.9062 6.43851 48.0507 6.43278 48.2559 6.42463C48.7587 6.40468 49.6257 6.37023 50.111 6.37023C50.364 6.37023 50.4779 6.41575 50.4779 6.55458C50.4779 6.64563 50.3867 6.69114 50.2956 6.69114C50.1033 6.69763 49.912 6.72046 49.7236 6.75942C49.106 6.87321 48.9237 7.26013 48.8782 8.059C48.8326 8.78949 48.8326 9.4244 48.8326 12.9871V17.0059C48.8326 19.1954 48.8326 20.9979 48.9465 21.9561C49.0149 22.6184 49.1516 23.1214 49.8375 23.2124C50.1566 23.258 50.6374 23.3035 50.7741 23.3035C50.9792 23.3035 51.0476 23.3718 51.0476 23.44C51.0476 23.5538 50.9565 23.6221 50.7058 23.6221C49.7408 23.6221 48.6534 23.5818 48.1499 23.5631C47.9982 23.5575 47.8996 23.5538 47.8732 23.5538C47.8402 23.5538 47.696 23.5596 47.4911 23.5677C46.9883 23.5876 46.1202 23.6221 45.6331 23.6221C45.3824 23.6221 45.2685 23.5766 45.2685 23.44C45.2685 23.3718 45.3141 23.3035 45.5192 23.3035C45.7191 23.2994 45.9183 23.2765 46.1139 23.2352C46.5697 23.1442 46.7064 22.6184 46.7976 21.9561C46.9138 20.9979 46.9138 19.1954 46.9138 17.0059V12.9888Z" fill="#0A0620"/>
<path fill-rule="evenodd" clip-rule="evenodd" d="M63.0183 6.0516C56.7105 6.0516 54.0147 11.2772 54.0147 14.9734C54.0147 19.0815 56.6194 23.943 62.8816 23.9408C68.3872 23.9408 71.9969 19.7211 71.9969 14.6093C71.9969 9.29258 68.1571 6.0516 63.0183 6.0516ZM62.8565 6.8277C66.4662 6.8277 69.8024 9.77053 69.8024 15.2488C69.8024 21.8947 65.5524 23.0759 63.4969 23.0782C59.3767 23.0782 56.1864 19.6551 56.1864 14.3384C56.1864 9.33127 59.0418 6.8277 62.8565 6.8277Z" fill="#0A0620"/>
</svg>
