<svg width="161" height="30" viewBox="0 0 161 30" fill="none" xmlns="http://www.w3.org/2000/svg">
<g clip-path="url(#clip0_6428_6950)">
<path d="M12.8579 19.9017H10.9781L10.9797 12.0221L6.25677 18.5488L1.50464 11.8842V19.9017H-0.328125V10.3264H2.4233L6.25511 15.7415L10.0986 10.3264H12.8579V19.9017Z" fill="black"/>
<path d="M27.1748 19.9017H25.1554L24.0753 17.8469H17.7595L16.6806 19.9017H14.6602L19.7805 10.3264H22.0561L27.1748 19.9017ZM23.1596 16.1659L20.9261 11.9242L18.6783 16.1659H23.1596Z" fill="black"/>
<path d="M40.044 19.9017H37.943L35.4825 16.3838H30.8149V19.9017H28.9805V10.3264H36.5763C37.5733 10.3264 38.3681 10.6007 38.9594 11.1513C39.5488 11.7016 39.8443 12.439 39.8443 13.3617C39.8443 14.951 39.0656 15.9224 37.5076 16.274L40.044 19.9017ZM36.3009 14.7015C37.4118 14.7015 37.9665 14.2666 37.9665 13.3943C37.9665 12.47 37.3751 12.0075 36.1931 12.0075H30.8149V14.7015H36.3007H36.3009Z" fill="black"/>
<path d="M53.9939 19.9017H51.6279L47.1469 15.0501L44.4738 17.0058V19.9017H42.6406V10.3264H44.4738V15.0132L50.8756 10.3264H53.5993L48.5631 13.9938L53.9939 19.9017Z" fill="black"/>
<path d="M69.9598 12.0069H62.0298V14.0798H67.5458V15.7609H62.0298V19.9017H60.1953V10.3264H69.9598V12.0069Z" fill="black"/>
<path d="M83.7446 15.0917C83.7446 16.66 83.0881 17.9376 81.7732 18.9214C80.6523 19.7636 79.2533 20.1839 77.5715 20.1839C75.8902 20.1839 74.4849 19.7638 73.3555 18.9214C72.0393 17.9465 71.3828 16.6706 71.3828 15.0917C71.3828 13.534 72.0452 12.2673 73.3699 11.2924C74.5303 10.4302 75.9323 10 77.5715 10C79.2021 10 80.5969 10.4302 81.7575 11.2924C83.0824 12.2772 83.7446 13.5458 83.7446 15.0917ZM81.8347 15.0829C81.8347 14.0949 81.4373 13.2804 80.6409 12.6423C79.8443 12.0031 78.8195 11.6809 77.563 11.6809C76.2992 11.6809 75.2654 12.0044 74.4635 12.6499C73.6641 13.295 73.264 14.105 73.264 15.0829C73.264 16.1036 73.6554 16.9286 74.4417 17.5578C75.2263 18.1866 76.2671 18.5011 77.563 18.5011C78.8502 18.5011 79.8836 18.1866 80.6639 17.5578C81.4443 16.9288 81.8347 16.1036 81.8347 15.0829Z" fill="black"/>
<path d="M97.4484 19.9017H95.3474L92.8869 16.3838H88.221V19.9017H86.3867V10.3264H93.9807C94.9777 10.3264 95.7742 10.6007 96.3639 11.1513C96.9549 11.7016 97.2503 12.439 97.2503 13.3617C97.2503 14.951 96.47 15.9224 94.9126 16.274L97.4484 19.9017ZM93.7053 14.7015C94.8162 14.7015 95.3709 14.2666 95.3709 13.3943C95.3709 12.47 94.7799 12.0075 93.5992 12.0075H88.221V14.7015H93.7053Z" fill="black"/>
<path d="M113.234 19.9017H111.355V12.0221L106.635 18.5488L101.881 11.896V19.9017H100.047V10.3264H102.8L106.633 15.7415L110.475 10.3264H113.234V19.9017Z" fill="black"/>
<path d="M126.557 19.9017H116.441V10.3264H126.206V12.0075H118.276V14.08H123.791V15.7609H118.276V18.2209H126.557V19.9017Z" fill="black"/>
<path d="M138.018 19.9017H128.926V10.3264H130.76V18.2209H138.018V19.9017Z" fill="black"/>
<path d="M149.099 19.9017H140.008V10.3264H141.841V18.2209H149.099V19.9017Z" fill="black"/>
<path d="M161.198 19.9017H151.082V10.3264H160.847V12.0075H152.915V14.08H158.432V15.7609H152.915V18.2209H161.198V19.9017Z" fill="black"/>
</g>
<defs>
<clipPath id="clip0_6428_6950">
<rect width="161" height="30" fill="white"/>
</clipPath>
</defs>
</svg>
