<svg width="103" height="30" viewBox="0 0 103 30" fill="none" xmlns="http://www.w3.org/2000/svg">
<path fill-rule="evenodd" clip-rule="evenodd" d="M42.7872 10.1263V12.812H35.9565V16.0565H42.7872V18.7437H33.082V4.2771H42.7875V6.96424H35.9569V10.1263H42.7872ZM46.0849 18.7437V4.2771H48.9594V16.0565H55.5196V18.7437H46.0849Z" fill="#0A0620"/>
<path fill-rule="evenodd" clip-rule="evenodd" d="M73.4056 11.5113C73.4056 15.5217 69.7022 18.7437 65.142 18.7437C60.5823 18.7437 56.9023 15.5217 56.9023 11.5113C56.9023 7.51876 60.5823 4.2771 65.142 4.2771C69.7022 4.2771 73.4056 7.51876 73.4056 11.5113Z" fill="#0A0620"/>
<path fill-rule="evenodd" clip-rule="evenodd" d="M22.2304 11.5085L18.9726 8.27552L18.9704 8.2777L14.957 4.29571V18.7256H17.8315V11.2016L22.2363 15.5719L22.5606 15.2497L26.6289 11.2136V18.7256H29.5206V4.29571L22.2304 11.5085ZM85.5689 4.28625H85.1064V12.5222L75.8887 4.28589V18.7143H78.2988V18.7136H78.7804V10.5165L87.9981 18.7347V4.28625H85.5689ZM17.0183 23.7461V24.2049H15.447V25.5623H14.957V22.4156H17.0183V22.8741H15.447V23.7461H17.0183ZM27.2028 22.4188C27.6425 22.4188 28.0731 22.6214 28.3612 22.9297L28.0504 23.2163C27.8283 23.0003 27.478 22.8639 27.2028 22.8639H27.1625C26.892 22.8639 26.5326 22.9915 26.5326 23.309C26.5326 23.5464 26.7587 23.6391 27.1225 23.6875L27.4157 23.7228C28.0416 23.798 28.4638 24.0355 28.4638 24.6344C28.4638 25.2074 27.9438 25.5594 27.2874 25.5641H27.2647C26.6432 25.5641 26.1951 25.2776 25.9774 24.9165L26.2889 24.63C26.4303 24.886 26.7678 25.1191 27.2647 25.1191H27.2871C27.6909 25.1151 27.9837 24.934 27.9837 24.6344C27.9837 24.3264 27.7356 24.2118 27.3538 24.1631L27.0606 24.1282C26.4523 24.0573 26.0529 23.8239 26.0529 23.3221C26.0529 22.7672 26.5549 22.4236 27.1625 22.4188H27.2028ZM33.9034 25.5623V24.2049H32.4449V25.5623H31.9557V22.4156H32.4449V23.7464H33.9034V22.4156H34.3922V25.5623H33.9034ZM38.967 25.1038V25.5627H38.4789V25.1038L38.4786 22.4156H38.9674V22.8745L38.967 25.1038ZM45.9377 23.9937C45.938 24.1998 45.8972 24.4039 45.8178 24.5944C45.7385 24.7849 45.622 24.9579 45.4751 25.1037C45.3282 25.2494 45.1538 25.365 44.9619 25.4437C44.7699 25.5225 44.5642 25.5629 44.3565 25.5627C44.149 25.5627 43.9437 25.5222 43.7521 25.4433C43.5605 25.3644 43.3865 25.2487 43.2401 25.1029C43.0936 24.9572 42.9776 24.7841 42.8988 24.5938C42.8199 24.4034 42.7796 24.1995 42.7804 23.9937C42.78 23.788 42.8204 23.5842 42.8994 23.394C42.9784 23.2039 43.0944 23.031 43.2407 22.8853C43.387 22.7396 43.5608 22.6239 43.7522 22.5449C43.9436 22.4658 44.1488 22.425 44.3561 22.4247C44.7755 22.4249 45.1776 22.5902 45.4741 22.8844C45.7707 23.1786 45.9374 23.5776 45.9377 23.9937ZM43.2582 23.9937C43.2582 24.6482 43.7416 25.1136 44.3565 25.1136C44.9721 25.1136 45.4595 24.6482 45.4595 23.9937C45.4595 23.3435 44.9721 22.873 44.3565 22.873C43.7416 22.873 43.2582 23.3435 43.2582 23.9937ZM67.0352 22.4156C67.8824 22.4156 68.4039 22.8923 68.4039 23.5755C68.4039 24.0744 68.1136 24.4206 67.6563 24.578C67.8146 24.6544 67.9597 24.8118 68.1547 25.1129L68.4486 25.5623H67.9007L67.6651 25.2027C67.4111 24.8118 67.2986 24.7445 66.9718 24.7351H66.4734V25.5623H65.9845V22.4156H67.0352ZM66.4734 24.2809H67.0758C67.5522 24.2809 67.9414 24.07 67.9414 23.5755C67.9414 23.0992 67.5519 22.8741 67.0758 22.8741H66.4734V24.2813V24.2809ZM75.2983 23.99C75.2985 24.1962 75.2576 24.4004 75.1782 24.5909C75.0987 24.7814 74.9822 24.9544 74.8353 25.1002C74.6883 25.246 74.5139 25.3616 74.3219 25.4404C74.1299 25.5192 73.9241 25.5596 73.7163 25.5594C73.5088 25.5596 73.3033 25.5191 73.1115 25.4403C72.9198 25.3614 72.7456 25.2458 72.5991 25.0999C72.4525 24.9541 72.3365 24.781 72.2575 24.5905C72.1786 24.4 72.1384 24.196 72.1391 23.99C72.1387 23.7842 72.1792 23.5803 72.2583 23.39C72.3374 23.1997 72.4535 23.0268 72.6 22.881C72.7464 22.7353 72.9204 22.6196 73.112 22.5406C73.3035 22.4616 73.5089 22.4209 73.7163 22.4207C74.1358 22.4209 74.5379 22.5864 74.8345 22.8806C75.1311 23.1749 75.2979 23.5739 75.2983 23.99ZM72.6177 23.99C72.6177 24.6446 73.1007 25.1114 73.7163 25.1114C74.332 25.1114 74.8201 24.6449 74.8201 23.99C74.8201 23.3392 74.3324 22.8686 73.7163 22.8686C73.1007 22.8686 72.6177 23.3392 72.6177 23.99ZM81.4947 24.206C81.4947 25.0776 80.9259 25.5576 80.2183 25.5576C79.5155 25.5576 78.9467 25.0776 78.9467 24.2064V22.4159H79.4305V24.1933C79.4305 24.8242 79.7749 25.1045 80.2183 25.1045C80.6665 25.1045 81.0113 24.8242 81.0113 24.1933V22.4159H81.4943V24.2064L81.4947 24.206ZM86.5367 22.4159C87.3836 22.4159 87.9322 22.8923 87.9322 23.5984C87.9322 24.3086 87.3836 24.7802 86.5367 24.7802H86.0017V25.562H85.5128V22.4159H86.5367ZM86.5682 24.3264C87.0439 24.3264 87.4697 24.1151 87.4697 23.5984C87.4697 23.0992 87.0439 22.8741 86.5682 22.8741H86.0017V24.3264H86.5682ZM22.5562 25.5616H23.0714L21.4865 22.4236L19.9009 25.5616H20.4168L20.7155 24.9707H22.2575L22.5562 25.5616ZM20.946 24.5144L21.4861 23.4461L22.0263 24.5144H20.946ZM51.5866 22.4188H51.4858V24.4886L49.1442 22.417V25.5631H49.6334V23.5006L51.9747 25.5634V22.4178L51.5866 22.4188ZM60.708 23.7442V24.2293H61.7912C61.6871 24.7536 61.2489 25.1078 60.7124 25.1078C60.0967 25.1078 59.6138 24.6416 59.6138 23.9864C59.6138 23.3355 60.0971 22.8654 60.7124 22.8654C61.0968 22.8654 61.4303 23.0486 61.6278 23.3439L62.0155 23.0992C61.8705 22.889 61.6761 22.717 61.4492 22.5981C61.2222 22.4792 60.9694 22.4169 60.7127 22.4167C60.5053 22.4169 60.2999 22.4577 60.1083 22.5367C59.9167 22.6157 59.7427 22.7315 59.5962 22.8772C59.4497 23.023 59.3336 23.196 59.2545 23.3863C59.1754 23.5766 59.1348 23.7805 59.1352 23.9864C59.1344 24.1924 59.1746 24.3965 59.2536 24.587C59.3326 24.7775 59.4487 24.9506 59.5953 25.0964C59.7419 25.2422 59.916 25.3579 60.1078 25.4367C60.2996 25.5156 60.5052 25.556 60.7127 25.5558C60.9205 25.556 61.1263 25.5155 61.3182 25.4367C61.5102 25.3579 61.6846 25.2423 61.8315 25.0965C61.9785 24.9508 62.0949 24.7777 62.1744 24.5872C62.2538 24.3967 62.2946 24.1926 62.2944 23.9864C62.2944 23.9031 62.2797 23.8239 62.2669 23.7442H60.708Z" fill="#0A0620"/>
</svg>
