<svg width="128" height="30" viewBox="0 0 128 30" fill="none" xmlns="http://www.w3.org/2000/svg">
<path d="M122.209 23.05C120.478 23.05 119.07 22.522 117.985 21.466C116.914 20.41 116.379 18.9874 116.379 17.198V17.022C116.379 15.262 116.914 13.832 117.985 12.732C119.07 11.632 120.442 11.082 122.099 11.082C123.654 11.082 124.944 11.566 125.971 12.534C127.012 13.502 127.533 14.954 127.533 16.89V17.66H119.107C119.151 18.76 119.437 19.6034 119.965 20.19C120.508 20.7767 121.278 21.07 122.275 21.07C123.83 21.07 124.71 20.4834 124.915 19.31H127.489C127.298 20.5274 126.741 21.4587 125.817 22.104C124.908 22.7347 123.705 23.05 122.209 23.05ZM124.893 15.878C124.746 13.9714 123.815 13.018 122.099 13.018C121.307 13.018 120.647 13.2747 120.119 13.788C119.606 14.2867 119.283 14.9834 119.151 15.878H124.893Z" fill="#0A0620"/>
<path d="M110.109 23.05C108.422 23.05 107.029 22.5294 105.929 21.488C104.843 20.432 104.301 19.0094 104.301 17.22V17.044C104.301 15.2694 104.851 13.832 105.951 12.732C107.065 11.632 108.451 11.082 110.109 11.082C111.517 11.082 112.712 11.434 113.695 12.138C114.677 12.8274 115.235 13.9127 115.367 15.394H112.793C112.573 13.942 111.693 13.216 110.153 13.216C109.229 13.216 108.473 13.5534 107.887 14.228C107.315 14.9027 107.029 15.8267 107.029 17V17.176C107.029 18.4227 107.307 19.376 107.865 20.036C108.437 20.6814 109.221 21.004 110.219 21.004C110.952 21.004 111.575 20.7914 112.089 20.366C112.602 19.9407 112.903 19.332 112.991 18.54H115.433C115.345 19.8747 114.817 20.96 113.849 21.796C112.881 22.632 111.634 23.05 110.109 23.05Z" fill="#0A0620"/>
<path d="M92.2617 11.324H94.9237V13.15C95.2171 12.5487 95.6791 12.0574 96.3097 11.676C96.9551 11.28 97.7324 11.082 98.6417 11.082C99.859 11.082 100.82 11.456 101.524 12.204C102.228 12.9374 102.58 14.0667 102.58 15.592V22.83H99.9177V15.834C99.9177 14.954 99.7344 14.316 99.3677 13.92C99.0011 13.5094 98.4217 13.304 97.6297 13.304C96.8377 13.304 96.1851 13.546 95.6717 14.03C95.1731 14.4994 94.9237 15.174 94.9237 16.054V22.83H92.2617V11.324Z" fill="#0A0620"/>
<path d="M83.643 23.05C82.5136 23.05 81.5896 22.7714 80.871 22.214C80.1523 21.642 79.793 20.784 79.793 19.64C79.793 18.3787 80.3283 17.4547 81.399 16.868C82.4843 16.2814 83.9143 15.988 85.689 15.988H87.119V15.394C87.119 14.5874 86.965 14.0007 86.657 13.634C86.349 13.2674 85.8063 13.084 85.029 13.084C83.7236 13.084 82.9903 13.6854 82.829 14.888H80.255C80.3723 13.612 80.8783 12.6587 81.773 12.028C82.6676 11.3974 83.8043 11.082 85.183 11.082C88.2483 11.082 89.781 12.4827 89.781 15.284V22.83H87.163V21.422C86.3123 22.5074 85.139 23.05 83.643 23.05ZM84.281 21.136C85.1316 21.136 85.8136 20.9307 86.327 20.52C86.855 20.1094 87.119 19.5374 87.119 18.804V17.66H85.755C83.5403 17.66 82.433 18.2834 82.433 19.53C82.433 20.6007 83.049 21.136 84.281 21.136Z" fill="#0A0620"/>
<path d="M75.2969 6H77.9589V22.83H75.2969V6Z" fill="#0A0620"/>
<path d="M66.6156 23.05C65.4863 23.05 64.5623 22.7714 63.8436 22.214C63.125 21.642 62.7656 20.784 62.7656 19.64C62.7656 18.3787 63.301 17.4547 64.3716 16.868C65.457 16.2814 66.887 15.988 68.6616 15.988H70.0916V15.394C70.0916 14.5874 69.9376 14.0007 69.6296 13.634C69.3216 13.2674 68.779 13.084 68.0016 13.084C66.6963 13.084 65.963 13.6854 65.8016 14.888H63.2276C63.345 13.612 63.851 12.6587 64.7456 12.028C65.6403 11.3974 66.777 11.082 68.1556 11.082C71.221 11.082 72.7536 12.4827 72.7536 15.284V22.83H70.1356V21.422C69.285 22.5074 68.1116 23.05 66.6156 23.05ZM67.2536 21.136C68.1043 21.136 68.7863 20.9307 69.2996 20.52C69.8276 20.1094 70.0916 19.5374 70.0916 18.804V17.66H68.7276C66.513 17.66 65.4056 18.2834 65.4056 19.53C65.4056 20.6007 66.0216 21.136 67.2536 21.136Z" fill="#0A0620"/>
<path d="M50.1953 7.09961H55.8273C59.2593 7.09961 60.9753 8.46361 60.9753 11.1916V11.2796C60.9753 12.9956 60.1466 14.1103 58.4893 14.6236C59.56 14.8583 60.352 15.2763 60.8653 15.8776C61.3786 16.4643 61.6353 17.2856 61.6353 18.3416V18.4296C61.6353 19.8816 61.1733 20.9816 60.2493 21.7296C59.3253 22.4629 57.9906 22.8296 56.2453 22.8296H50.1953V7.09961ZM55.8933 20.7396C57.8 20.7396 58.7533 19.9036 58.7533 18.2316V18.1436C58.7533 17.3076 58.5113 16.6916 58.0273 16.2956C57.5433 15.8996 56.766 15.7016 55.6953 15.7016H53.0553V20.7396H55.8933ZM55.4753 13.7216C56.4286 13.7216 57.1106 13.5383 57.5213 13.1716C57.9466 12.8049 58.1593 12.2183 58.1593 11.4116V11.3236C58.1593 10.5756 57.9393 10.0329 57.4993 9.69561C57.0593 9.35828 56.37 9.18961 55.4313 9.18961H53.0553V13.7216H55.4753Z" fill="#0A0620"/>
<path d="M26.8203 11.3242H29.6583L31.9463 19.6402L34.3883 11.3242H36.6103L38.8543 19.6402L41.2523 11.3242H43.8483L40.2403 22.8302H37.5343L35.4003 15.0862L33.0683 22.8302H30.3403L26.8203 11.3242Z" fill="#0A0620"/>
<path d="M21.0527 23.05C19.322 23.05 17.914 22.522 16.8287 21.466C15.758 20.41 15.2227 18.9874 15.2227 17.198V17.022C15.2227 15.262 15.758 13.832 16.8287 12.732C17.914 11.632 19.2853 11.082 20.9427 11.082C22.4973 11.082 23.788 11.566 24.8147 12.534C25.856 13.502 26.3767 14.954 26.3767 16.89V17.66H17.9507C17.9947 18.76 18.2807 19.6034 18.8087 20.19C19.3513 20.7767 20.1213 21.07 21.1187 21.07C22.6733 21.07 23.5533 20.4834 23.7587 19.31H26.3327C26.142 20.5274 25.5847 21.4587 24.6607 22.104C23.7513 22.7347 22.5487 23.05 21.0527 23.05ZM23.7367 15.878C23.59 13.9714 22.6587 13.018 20.9427 13.018C20.1507 13.018 19.4907 13.2747 18.9627 13.788C18.4493 14.2867 18.1267 14.9834 17.9947 15.878H23.7367Z" fill="#0A0620"/>
<path d="M0.5 7.09961H3.998L10.62 18.4736V7.09961H13.282V22.8296H10.246L3.162 10.7736V22.8296H0.5V7.09961Z" fill="#0A0620"/>
</svg>
