<svg width="123" height="30" viewBox="0 0 123 30" fill="none" xmlns="http://www.w3.org/2000/svg">
<path d="M38.3034 12.9662C38.9928 12.9676 39.6665 12.7588 40.2401 12.3675C40.8158 11.9739 41.2629 11.4178 41.5253 10.7693C41.7898 10.1167 41.8593 9.40072 41.7253 8.70902C41.5921 8.01956 41.2605 7.38466 40.7717 6.88323C40.2874 6.38579 39.6662 6.04562 38.988 5.90652C38.3119 5.76879 37.6103 5.83939 36.9747 6.10907C36.3355 6.38099 35.7912 6.8381 35.411 7.42223C35.0275 8.01088 34.8235 8.69956 34.8242 9.4034C34.8242 9.87095 34.9139 10.3343 35.0883 10.7665C35.2624 11.1976 35.5186 11.5902 35.8426 11.9222C36.1644 12.2523 36.548 12.5149 36.9713 12.695C37.3929 12.8738 37.8458 12.966 38.3034 12.9662Z" fill="#0A0620"/>
<path d="M29.1757 21.1517C28.148 22.2049 26.786 22.8627 25.3264 23.0107C23.8695 23.1559 22.4082 22.7809 21.1984 21.9515C19.9784 21.1132 19.0832 19.8771 18.6639 18.4518C18.2402 17.0199 18.3143 15.4855 18.8742 14.1017C19.4279 12.7257 20.4379 11.585 21.7328 10.8733C23.0183 10.1691 24.5094 9.94312 25.9441 10.2351C27.3835 10.5304 28.6751 11.3225 29.5956 12.4743C30.5249 13.6363 31.031 15.0833 31.0298 16.5747C31.0308 17.4237 30.8676 18.2649 30.5492 19.0512C30.2323 19.8341 29.7657 20.5469 29.1757 21.1489V21.151V21.1517ZM24.7079 7.65247C22.9792 7.65223 21.2904 8.17502 19.8608 9.15292C18.4205 10.1396 17.3022 11.5326 16.6464 13.1569C15.985 14.7902 15.8115 16.5821 16.1472 18.3131C16.4802 20.0389 17.3097 21.6283 18.5329 22.8838C19.7456 24.1287 21.301 24.9798 22.9987 25.3277C24.6906 25.6724 26.4447 25.4955 28.0388 24.8206C29.639 24.1401 31.0017 22.996 31.9537 21.5339C32.9141 20.0608 33.4253 18.3372 33.4244 16.5754C33.4259 14.218 32.5088 11.9539 30.8698 10.2691C30.0667 9.44314 29.1083 8.78625 28.0504 8.33667C26.9925 7.88709 25.8563 7.6538 24.7079 7.65039M84.6593 8.04094H83.4368C83.4368 8.04094 82.8052 8.04094 82.8052 8.68676V24.4557C82.8052 25.1015 83.4354 25.1015 83.4354 25.1015H84.6593C84.6593 25.1015 85.2895 25.1015 85.2895 24.4557V8.68676C85.2895 8.04094 84.6593 8.04094 84.6593 8.04094ZM51.3241 25.5004C48.7465 25.5296 46.2341 24.6854 44.1913 23.1037C44.1341 23.0593 44.079 23.0177 44.03 22.9774C43.9665 22.9265 43.9141 22.8629 43.876 22.7907C43.838 22.7185 43.815 22.6392 43.8087 22.5578C43.802 22.4762 43.8118 22.3941 43.8374 22.3164C43.8629 22.2387 43.9038 22.1669 43.9576 22.1055C44.0693 21.9619 44.3782 21.6171 44.7222 21.2356C44.7588 21.1954 44.7981 21.1579 44.8408 21.1246C45.1897 20.7916 45.5924 21.0927 45.6744 21.1572C47.514 22.6368 49.197 23.2452 51.402 23.2452C53.6076 23.2452 55.1307 22.1825 55.1307 20.6668V20.6182C55.1307 19.2586 54.4412 18.4331 50.6697 17.6929C46.8893 16.9278 44.3692 15.7645 44.3692 12.5728V12.5242C44.3692 9.70648 46.9893 7.66149 50.5973 7.66149C52.756 7.58878 54.8805 8.21782 56.6558 9.45537L56.842 9.58994C56.9644 9.685 57.0463 9.82324 57.0712 9.97672C57.0962 10.1302 57.0623 10.2875 56.9765 10.4168C56.8572 10.5597 56.4469 11.064 56.2387 11.3096C55.9333 11.5961 55.8002 11.7744 55.0528 11.295L54.8253 11.1646C53.6228 10.4397 52.1108 9.89517 50.5505 9.90835C48.4613 9.90835 47.0017 10.9107 47.0017 12.3432V12.3911C47.0017 13.7618 47.7243 14.6012 51.6695 15.3892C55.9574 16.2591 57.7852 17.7616 57.7852 20.4136V20.4621C57.7852 23.4235 55.1252 25.4914 51.3241 25.4914M75.9656 8.04094H62.331C62.331 8.04094 61.7008 8.04094 61.7008 8.68676V9.95899C61.7008 10.6041 62.331 10.6041 62.331 10.6041H67.9317V24.4557C67.9317 24.4557 67.9317 25.1015 68.5619 25.1015H69.7871C70.4159 25.1015 70.418 24.4599 70.418 24.4564V10.6027H75.9718C75.9718 10.6027 76.6013 10.6027 76.6013 9.95829V8.68676C76.6013 8.04094 75.9718 8.04094 75.9718 8.04094M106.381 8.04094H105.133C104.503 8.04094 104.503 8.68746 104.503 8.68746V16.4332V16.4103V21.7309L94.8754 8.55357C94.7539 8.39913 94.6008 8.2728 94.4265 8.18314C94.2534 8.09404 94.063 8.04409 93.8687 8.03678H92.2036C92.2036 8.03678 91.572 8.03678 91.572 8.6826V24.4418C91.572 24.4418 91.572 25.0807 92.194 25.087H93.4888C94.119 25.087 94.119 24.4418 94.119 24.4418V11.4698L103.754 24.5695C103.875 24.7236 104.027 24.8496 104.201 24.9389C104.375 25.0282 104.566 25.0787 104.76 25.087H106.37C106.37 25.087 107.001 25.087 107.001 24.4418V8.6826C107.001 8.6826 107.001 8.04232 106.377 8.03678" fill="#0A0620"/>
</svg>
