<svg width="84" height="30" viewBox="0 0 84 30" fill="none" xmlns="http://www.w3.org/2000/svg">
<path d="M12.8662 19.2316C14.8344 18.9908 16.4244 17.4563 16.6755 15.5553C16.7632 14.9065 16.6953 14.2469 16.4769 13.6274C16.2586 13.0079 15.8957 12.4451 15.4163 11.9824C14.9369 11.5198 14.3537 11.1696 13.7118 10.9589C13.0699 10.7481 12.3864 10.6826 11.7141 10.7672C9.74429 11.0096 8.15431 12.544 7.90475 14.4435C7.81707 15.0923 7.88502 15.7519 8.10335 16.3714C8.32168 16.9909 8.68456 17.5537 9.16399 18.0164C9.64341 18.4791 10.2266 18.8293 10.8685 19.04C11.5104 19.2507 12.1939 19.3162 12.8662 19.2316ZM13.1346 7.0409C15.0295 7.23342 16.7986 8.0479 18.1459 9.34818C19.4932 10.6485 20.3372 12.3557 20.5367 14.1845C21.0562 19.2438 16.6865 23.4608 11.4426 22.9594C9.5479 22.7666 7.77923 21.952 6.43221 20.6517C5.08519 19.3515 4.24145 17.6444 4.04203 15.8159C3.5225 10.7566 7.89219 6.53952 13.1346 7.0409ZM24.9849 7.35748H37.1192C37.5807 7.35748 37.8412 7.86644 37.5634 8.22089L29.1678 18.9105H35.7459C36.945 18.9105 37.8883 19.9633 37.6403 21.1629C37.4583 22.043 36.6028 22.6429 35.6737 22.6429H22.4955C22.0388 22.6429 21.7798 22.1384 22.0545 21.7885L30.4564 11.0898H25.0571C24.1279 11.0898 23.2724 10.4885 23.0904 9.60992C22.8408 8.41024 23.7857 7.35748 24.9849 7.35748ZM77.6456 7.39989C78.8982 7.14542 80 8.06033 80 9.22366V22.1036C80 22.5535 79.4616 22.8034 79.0975 22.5247L68.63 14.5101V20.7797C68.63 21.943 67.5282 22.858 66.2756 22.6035C65.3778 22.4217 64.7626 21.6143 64.7626 20.7297V7.89522C64.7626 7.44534 65.3009 7.1954 65.6651 7.47412L76.1341 15.4887V9.27364C76.1341 8.38903 76.751 7.58318 77.6472 7.39989H77.6456ZM50.39 7C56.7986 7 61.9938 10.5809 61.9938 14.9979C61.9938 19.4149 56.7986 22.9958 50.39 22.9958C43.9814 22.9958 38.7861 19.4149 38.7861 14.9979C38.7861 10.5809 43.9814 7 50.39 7ZM50.39 10.7324C45.9622 10.7324 42.6536 12.9848 42.6536 14.9979C42.6536 17.011 45.9622 19.2634 50.39 19.2634C54.8178 19.2634 58.1264 17.0125 58.1264 14.9979C58.1264 12.9833 54.8178 10.7324 50.39 10.7324Z" fill="#0A0620"/>
</svg>
