<svg width="147" height="30" viewBox="0 0 147 30" fill="none" xmlns="http://www.w3.org/2000/svg">
<g clip-path="url(#clip0_6431_10344)">
<path d="M84.1768 11.852L79.3105 6L82.0705 19.3L92.0937 6L84.1768 11.852ZM19.2442 17.628L25.9263 9.724L18.4453 12.84L4.5 9.8L19.2442 17.628Z" fill="#0A0620"/>
<path d="M79.0185 9.4202L76.1133 20.2882H81.1975L79.0185 9.4202ZM90.7849 9.4202L82.9406 20.2882H87.8796L90.7849 9.4202ZM139.085 10.5602C138.257 10.5773 137.451 10.8409 136.761 11.3202C136.436 11.5861 136.143 11.8923 135.889 12.2322L136.18 10.7882H133.129L129.861 23.0242H133.274L134.364 19.2242C134.654 19.9842 135.308 20.4402 136.18 20.4402H136.761C137.632 20.2882 138.504 19.9082 139.375 19.3002C139.884 18.9202 140.392 18.3882 140.828 17.7802C141.191 17.1722 141.554 16.3362 141.772 15.5002C142.135 14.1322 142.135 12.9922 141.7 12.0042C141.264 11.0922 140.392 10.5602 139.085 10.5602ZM138.359 15.5002C138.141 16.1842 137.85 16.7162 137.487 17.0202C137.269 17.3242 137.051 17.4002 136.761 17.5522C136.568 17.5813 136.372 17.5813 136.18 17.5522C135.671 17.5522 135.453 17.4762 135.235 17.0202C135.09 16.6402 135.09 16.1082 135.235 15.5002C135.453 14.5882 135.816 14.1322 136.107 13.9042C136.252 13.6762 136.688 13.2962 137.269 13.2962C138.213 13.2962 138.722 14.0562 138.286 15.5762M64.0564 10.5602C63.2533 10.5914 62.474 10.8545 61.8049 11.3202C61.4545 11.5812 61.1372 11.8876 60.8606 12.2322L61.2238 10.7882H58.1006L54.8322 23.0242H58.2459L59.2627 19.2242C59.6259 19.9842 60.2796 20.4402 61.1512 20.4402H61.7322C62.6038 20.2882 63.4754 19.9082 64.347 19.3002C64.8554 18.9202 65.2912 18.3882 65.727 17.7802C66.0901 17.1722 66.4533 16.3362 66.7438 15.5002C67.107 14.1322 67.0343 12.9922 66.6712 12.0042C66.2354 11.0922 65.3638 10.5602 63.9838 10.5602M63.2575 15.5002C63.1122 16.1842 62.8217 16.7162 62.4585 17.0202C62.2406 17.3242 61.9501 17.4002 61.7322 17.5522C61.5158 17.5891 61.295 17.5891 61.0785 17.5522C60.5701 17.5522 60.3522 17.4762 60.207 17.0202C59.9891 16.6402 59.9891 16.1082 60.207 15.5002C60.4249 14.5882 60.788 14.1322 61.0785 13.9042C61.2238 13.6762 61.6596 13.2962 62.2406 13.2962C63.1849 13.2962 63.6933 14.0562 63.2575 15.5762M4.78906 24.4682L13.5049 20.8202L29.9196 24.6202L12.488 15.2722L4.78906 24.4682ZM17.5722 6.7602C17.2668 6.77954 16.968 6.86181 16.6931 7.00226C16.4181 7.14272 16.1723 7.33861 15.9699 7.57869C15.7674 7.81877 15.6123 8.09831 15.5133 8.40128C15.4144 8.70425 15.3736 9.02468 15.3933 9.3442C15.5385 10.6362 16.7006 11.6242 17.9354 11.6242C18.2474 11.6052 18.5526 11.5206 18.8327 11.3754C19.1128 11.2302 19.362 11.0273 19.5654 10.779C19.7688 10.5307 19.9223 10.242 20.0166 9.93013C20.1109 9.6183 20.1442 9.28977 20.1143 8.9642C20.0962 8.63767 20.0153 8.31833 19.8766 8.02526C19.7378 7.7322 19.5439 7.47144 19.3066 7.25858C19.0693 7.04573 18.7934 6.88515 18.4953 6.78646C18.1973 6.68776 17.8834 6.65298 17.5722 6.6842M126.737 17.5522C126.568 17.7882 126.349 17.9797 126.097 18.1116C125.845 18.2435 125.567 18.3122 125.285 18.3122C124.704 18.3122 124.413 18.1602 124.123 17.8562C123.905 17.4762 123.832 17.0962 123.977 16.4882H130.514C131.023 14.8162 131.023 13.3722 130.369 12.3082C129.788 11.2442 128.699 10.6362 127.028 10.6362L126.156 10.7122C124.874 10.9162 123.676 11.5062 122.709 12.4104C121.742 13.3146 121.047 14.4938 120.709 15.8042C120.346 17.3242 120.564 18.4642 121.217 19.3762C121.944 20.1362 122.961 20.5922 124.413 20.5922C125.482 20.6043 126.543 20.3978 127.536 19.9842C128.619 19.4922 129.513 18.6363 130.079 17.5522H126.737ZM126.156 12.9922H126.592C127.028 12.9922 127.319 13.1442 127.464 13.4482C127.682 13.7522 127.754 14.2082 127.682 14.6642H124.559C124.776 13.7522 125.285 13.1442 126.156 12.9922ZM99.5733 10.9402C98.9922 10.7882 98.1933 10.6362 97.1764 10.6362C96.469 10.6419 95.7637 10.7182 95.0701 10.8642C94.3438 11.0162 93.7627 11.2442 93.2543 11.4722C92.8271 11.7218 92.4524 12.0591 92.1529 12.464C91.8533 12.8688 91.635 13.3329 91.5112 13.8282H94.9249L95.0701 13.6002C95.1427 13.3722 95.4333 13.1442 95.6512 13.0682C95.8818 12.9697 96.1283 12.9181 96.3775 12.9162C96.668 12.9162 96.8859 12.9162 97.1038 13.0682C97.3217 13.0682 97.467 13.4482 97.3943 13.6762C97.2491 14.0562 96.8133 14.3602 96.1596 14.4362L92.7459 15.0442C92.3143 15.1656 91.8993 15.3444 91.5112 15.5762C91.2206 15.8042 90.8575 16.0322 90.567 16.4122C90.2764 16.7922 90.0585 17.1722 89.9133 17.7802C89.6954 18.6922 89.8406 19.3762 90.3491 19.9082C90.7849 20.3642 91.4385 20.5922 92.2375 20.5922C93.5607 20.6584 94.8586 20.1966 95.8691 19.3002L95.7238 20.2882H99.3554C99.3554 20.2882 99.0648 20.1362 99.2101 19.6802L100.59 14.5882L100.881 12.9922C100.881 12.5362 100.881 12.1562 100.663 11.7762C100.517 11.3962 100.154 11.1682 99.5733 11.0162M95.9417 17.8562C95.7069 18.135 95.4064 18.3446 95.0701 18.4642H94.4891C93.6901 18.4642 93.3996 18.2362 93.4722 17.7042C93.6175 17.4762 93.7627 17.1722 93.9806 17.0202L94.707 16.7162L95.6512 16.5642L96.668 16.2602C96.5954 16.8682 96.3775 17.4002 95.9417 17.8562ZM106.546 17.6282C106.402 17.7757 106.232 17.8919 106.045 17.9702C105.858 18.0485 105.658 18.0872 105.456 18.0842C104.948 18.0842 104.657 17.8562 104.512 17.4002C104.367 17.0202 104.367 16.2602 104.657 15.3482C104.73 15.1202 105.021 14.3602 105.311 14.0562C105.456 13.7522 105.674 13.5242 105.965 13.3722C106.183 13.2202 106.473 13.1442 106.764 13.1442C107.2 13.1442 107.417 13.2962 107.563 13.5242C107.781 13.7522 107.781 14.0562 107.708 14.5122H111.194C111.412 13.1442 111.122 12.0802 110.395 11.4722C109.669 10.9402 108.652 10.7122 107.49 10.7122C106.037 10.7122 104.73 11.0922 103.568 12.0042C102.391 12.928 101.547 14.24 101.171 15.7282C100.735 17.2482 100.881 18.4642 101.607 19.3762C102.333 20.1362 103.35 20.5922 104.803 20.5922C105.996 20.5923 107.17 20.2787 108.216 19.6802C108.765 19.3676 109.257 18.9559 109.669 18.4642C110.105 18.0082 110.395 17.4002 110.686 16.6402H107.2C107.054 17.0962 106.836 17.4002 106.546 17.6282ZM55.7764 12.0802C55.1954 11.1682 54.1059 10.5602 52.3627 10.5602C51.9234 10.569 51.4858 10.6198 51.0554 10.7122C49.9659 10.9402 48.9491 11.3962 48.1501 12.0802C47.0935 12.9795 46.3317 14.2018 45.9712 15.5762C45.6806 16.9442 45.7533 18.0842 46.2617 19.0722C46.8427 20.0602 47.9322 20.5922 49.6754 20.5922C50.1838 20.5922 50.6196 20.5922 51.128 20.4402C52.145 20.2396 53.0955 19.7685 53.888 19.0722C54.9447 18.1729 55.7065 16.9506 56.067 15.5762C56.4301 14.2082 56.3575 13.0682 55.7764 12.0802ZM52.7259 15.5762C52.508 16.3362 52.2175 16.9442 51.7817 17.4002C51.5638 17.7042 51.0554 18.1602 50.3291 18.1602C49.8206 18.1602 49.4575 17.9322 49.3122 17.4002C49.1338 16.8065 49.1338 16.1699 49.3122 15.5762C49.5301 14.8162 49.8206 14.2082 50.2564 13.6762C50.4399 13.468 50.6656 13.3053 50.917 13.2001C51.1683 13.0949 51.4389 13.0498 51.7091 13.0682C52.2175 13.0682 52.6533 13.2202 52.7985 13.6762C52.9438 14.2082 52.9438 14.8162 52.7259 15.5762ZM67.7606 13.5242H70.448L68.6322 20.2882H72.0459L73.8617 13.4482H76.3312L77.0575 10.7882H68.487L67.7606 13.5242ZM112.066 13.5242H114.753L113.01 20.2882H116.351L118.24 13.4482H120.709L121.435 10.7882H112.865L112.066 13.5242ZM36.9649 10.7882L34.4227 20.2882H37.8364L39.6522 13.4482H42.4122L40.5964 20.2882H44.0827L46.6249 10.7882H36.9649ZM30.5006 17.5522C30.3593 17.7033 30.1895 17.8219 30.0019 17.9004C29.8143 17.9789 29.6131 18.0156 29.4112 18.0082C28.9027 18.0082 28.6122 17.7802 28.467 17.3242C28.3217 16.9442 28.3217 16.2602 28.6122 15.2722C28.7854 14.8183 29.0045 14.3852 29.2659 13.9802C29.4112 13.6762 29.6291 13.4482 29.9196 13.2962C30.1375 13.1442 30.428 13.0682 30.7185 13.0682C31.1543 13.0682 31.3722 13.2202 31.5175 13.4482C31.7354 13.6762 31.7354 14.0562 31.6627 14.4362H35.0038C35.2217 13.0682 34.9312 12.0042 34.2049 11.3962C33.4785 10.8642 32.3891 10.6362 31.2996 10.6362C29.8573 10.5917 28.4439 11.0651 27.2943 11.9776C26.1448 12.8901 25.3283 14.1868 24.9806 15.6522C24.5449 17.1722 24.6901 18.3882 25.4164 19.3002C26.1427 20.0602 27.1596 20.5162 28.6122 20.5162C29.8234 20.5526 31.0234 20.2648 32.0985 19.6802C32.6458 19.365 33.1372 18.9537 33.5512 18.4642C33.9143 18.0082 34.2775 17.4002 34.568 16.6402H31.0817C30.9364 17.0962 30.7185 17.4002 30.428 17.6282" fill="#0A0620"/>
</g>
<defs>
<clipPath id="clip0_6431_10344">
<rect width="138" height="19" fill="white" transform="translate(4.5 6)"/>
</clipPath>
</defs>
</svg>
