<svg width="34" height="34" viewBox="0 0 34 34" fill="none" xmlns="http://www.w3.org/2000/svg">
<path d="M16.4271 3.88463C16.5389 3.23833 17.4619 3.23833 17.5737 3.88463L18.3287 8.25007C18.4186 8.76968 19.0928 8.91374 19.3852 8.4758L21.8412 4.7965C22.2049 4.25178 23.048 4.62916 22.8887 5.26529L21.8121 9.56204C21.684 10.0735 22.2417 10.4808 22.6859 10.2002L26.4183 7.84324C26.9709 7.49428 27.5885 8.18378 27.1855 8.69976L24.4636 12.1849C24.1396 12.5997 24.4842 13.1998 25.0036 13.1251L29.367 12.498C30.013 12.4052 30.2982 13.2876 29.7213 13.5942L25.8245 15.6651C25.3607 15.9115 25.4328 16.6007 25.9374 16.7448L30.1773 17.956C30.8051 18.1353 30.7086 19.0581 30.0575 19.1023L25.6597 19.4008C25.1363 19.4364 24.9233 20.0954 25.326 20.4334L28.7093 23.2735C29.2102 23.6939 28.7487 24.4974 28.136 24.2716L23.9977 22.7462C23.5051 22.5647 23.0439 23.0796 23.275 23.5531L25.2166 27.5309C25.5041 28.1199 24.7574 28.6652 24.2891 28.2084L21.1257 25.1228C20.7492 24.7556 20.1195 25.0374 20.139 25.5644L20.3033 29.9923C20.3277 30.6478 19.4249 30.8407 19.1819 30.2319L17.5404 26.1197C17.345 25.6302 16.6557 25.6302 16.4604 26.1197L14.8189 30.2319C14.5759 30.8407 13.6731 30.6478 13.6974 29.9923L13.8618 25.5644C13.8813 25.0374 13.2516 24.7556 12.8751 25.1228L9.71171 28.2084C9.24337 28.6652 8.49668 28.1199 8.78414 27.5309L10.7258 23.5531C10.9569 23.0796 10.4957 22.5647 10.0031 22.7462L5.86477 24.2716C5.25209 24.4974 4.79061 23.6939 5.2915 23.2735L8.67479 20.4334C9.07749 20.0954 8.86449 19.4364 8.34104 19.4008L3.94328 19.1023C3.2922 19.0581 3.19572 18.1353 3.82344 17.956L8.06334 16.7448C8.568 16.6007 8.64005 15.9115 8.17623 15.6651L4.27949 13.5942C3.70258 13.2876 3.98779 12.4052 4.63379 12.498L8.99719 13.1251C9.51655 13.1998 9.8612 12.5997 9.53721 12.1849L6.81525 8.69976C6.41227 8.18378 7.02985 7.49428 7.58244 7.84323L11.3149 10.2002C11.7591 10.4808 12.3168 10.0735 12.1886 9.56204L11.1121 5.26529C10.9527 4.62916 11.7959 4.25178 12.1595 4.7965L14.6156 8.4758C14.908 8.91374 15.5822 8.76968 15.6721 8.25007L16.4271 3.88463Z" fill="#0A0620"/>
</svg>
