<svg width="171" height="30" viewBox="0 0 171 30" fill="none" xmlns="http://www.w3.org/2000/svg">
<mask id="mask0_6430_10296" style="mask-type:luminance" maskUnits="userSpaceOnUse" x="3" y="6" width="165" height="18">
<path d="M167.5 6.8811H3.5V23.1187H167.5V6.8811Z" fill="white"/>
</mask>
<g mask="url(#mask0_6430_10296)">
<path d="M167.087 13.0319C167.087 10.7658 165.439 9.14721 163.174 9.14721H154.629V20.3697H157.204V16.8087H161.836L164.513 20.3697H167.498L164.718 16.5929H164.822C166.263 16.0533 167.087 14.7585 167.087 13.0319ZM164.513 12.924C164.513 13.8952 163.895 14.5427 162.866 14.5427H157.204V11.3054H162.763C163.895 11.4133 164.513 12.1687 164.513 12.924ZM151.747 14.7585C151.747 11.1975 148.967 8.82349 144.643 8.82349C141.349 8.82349 137.54 10.3342 137.54 14.7585C137.54 17.1325 138.775 18.4274 139.805 19.1827C141.04 20.1539 142.79 20.6935 144.541 20.6935C146.393 20.6935 148.144 20.1539 149.482 19.1827C151.026 18.1037 151.747 16.5929 151.747 14.7585ZM148.967 14.7585C148.967 17.1325 147.32 18.4274 144.643 18.4274C142.687 18.4274 140.32 17.4562 140.32 14.7585C140.32 12.2766 142.481 11.0896 144.643 11.0896C147.423 11.0896 148.967 12.4924 148.967 14.7585ZM125.598 20.3697H136.201V18.1037H128.172V9.14721H125.7L125.598 20.3697ZM118.906 20.3697H121.582V9.14721H118.906V20.3697ZM113.244 20.3697H116.023L110.155 9.14721H108.611H107.067L101.198 20.3697H103.875L105.213 17.7799H111.802L113.244 20.3697ZM110.773 15.5139H106.449L108.611 11.3054L110.773 15.5139ZM101.61 9.14721H87.7115V11.6291H93.3743V20.3697H95.8449V11.6291H101.507L101.61 9.14721ZM79.7846 20.3697H82.2554V9.14721H79.2699L75.0489 14.111L70.9309 9.14721H67.9452V20.3697H70.416V12.6003V12.3845L70.6219 12.6003L75.1518 17.9958L79.6816 12.6003L79.8875 12.3845V12.6003L79.7846 20.3697ZM65.0627 14.7585C65.0627 11.1975 62.283 8.82349 58.0621 8.82349C54.7676 8.82349 51.0614 10.3342 51.0614 14.7585C51.0614 17.1325 52.2968 18.4274 53.3264 19.1827C54.5617 20.1539 56.3119 20.6935 58.0621 20.6935C59.9152 20.6935 61.6653 20.1539 63.0036 19.1827C64.2391 18.1037 65.0627 16.5929 65.0627 14.7585ZM62.283 14.7585C62.283 17.1325 60.7387 18.4274 57.9591 18.4274C56.003 18.4274 53.6352 17.4562 53.6352 14.7585C53.6352 12.2766 55.7972 11.0896 57.9591 11.0896C60.6358 11.0896 62.283 12.4924 62.283 14.7585ZM43.4431 11.6291H49.1054V9.14721H35.207V11.6291H40.8693V20.3697H43.3401L43.4431 11.6291Z" fill="#0A0620"/>
<path fill-rule="evenodd" clip-rule="evenodd" d="M26.458 9.14719C24.0901 7.74438 20.6927 6.8811 17.0894 6.8811C13.3833 6.8811 10.0888 7.74438 7.61802 9.14719C5.04425 10.55 3.5 12.6003 3.5 14.9743C3.5 17.3483 5.04425 19.2906 7.61802 20.8014C10.0888 22.2041 13.3833 23.0674 17.0894 23.0674C20.7957 23.0674 24.0901 22.2041 26.5609 20.8014C29.1347 19.2906 30.6789 17.3483 30.6789 14.9743C30.576 12.6003 29.0317 10.55 26.458 9.14719ZM29.3406 14.9743C29.3406 16.7008 28.0022 18.3195 25.9432 19.6143C23.6783 20.9093 20.5898 21.6646 17.0894 21.6646C13.6921 21.6646 10.5006 20.9093 8.23572 19.6143C6.07376 18.4274 4.83835 16.8087 4.83835 14.9743C4.83835 13.1398 6.17671 11.5212 8.23572 10.3342C10.5006 9.03928 13.5892 8.28392 17.0894 8.28392C20.4868 8.28392 23.6783 9.03928 25.9432 10.3342C28.0022 11.5212 29.3406 13.1398 29.3406 14.9743Z" fill="#0A0620"/>
<path fill-rule="evenodd" clip-rule="evenodd" d="M14.2088 19.2907V14.0031C12.4586 14.3269 10.6055 14.8664 10.6055 14.8664V11.737C13.0763 11.0896 15.2382 10.8738 17.0913 10.8738C18.7386 10.8738 21.2094 11.0896 23.6802 11.737V14.7585C23.6802 14.7585 21.827 14.2189 20.0769 13.8952V19.0749C19.9739 19.2907 14.2088 19.2907 14.2088 19.2907Z" fill="#0A0620"/>
</g>
</svg>
