<svg width="88" height="30" viewBox="0 0 88 30" fill="none" xmlns="http://www.w3.org/2000/svg">
<path d="M15.5266 24.7965C15.7547 24.7965 15.9395 24.9833 15.9395 25.2142V28.0664C15.9395 28.2973 15.7547 28.4841 15.5266 28.4841H9.33466C9.10652 28.4841 8.92188 28.2973 8.92188 28.0664V2.41768C8.92188 2.18686 9.10652 2 9.33466 2H15.5212C15.7494 2 15.934 2.18686 15.934 2.41768V5.32494C15.934 5.55576 15.7494 5.74262 15.5212 5.74262H12.8869C12.6588 5.74262 12.4741 5.92947 12.4741 6.1603V24.3788C12.4741 24.6096 12.6588 24.7965 12.8869 24.7965H15.5266Z" fill="#0A0620"/>
<path d="M87.387 28.4841C87.6154 28.4841 87.8001 28.2973 87.8001 28.0664V2.41768C87.8001 2.18686 87.6154 2 87.387 2H83.5686C83.341 2 83.1562 2.18686 83.1562 2.41768V28.0664C83.1562 28.2973 83.341 28.4841 83.5686 28.4841H87.387Z" fill="#0A0620"/>
<path d="M15.2239 9.31574C15.1586 9.09591 15.289 8.91455 15.5117 8.92004H17.4616C17.6897 8.92004 17.9233 9.10141 17.9885 9.32124L20.2372 17.2627C20.2969 17.4825 20.4055 17.4825 20.4707 17.2627L22.8281 9.33223C22.8932 9.1124 23.1322 8.93103 23.3603 8.93103H25.0387C25.2668 8.93103 25.5058 9.1124 25.571 9.33223L27.95 17.2901C28.0152 17.51 28.1238 17.51 28.1835 17.2901L30.4213 9.32673C30.4811 9.1069 30.7201 8.92554 30.9428 8.92554H32.7026C32.9307 8.92554 33.0611 9.1069 32.9959 9.32673L29.4491 21.2086C29.3839 21.4284 29.1449 21.6098 28.9168 21.6098L27.2222 21.6043C26.994 21.6043 26.7551 21.4229 26.6899 21.2031L24.3271 13.2672C24.262 13.0473 24.1533 13.0473 24.0882 13.2672L21.7091 21.1976C21.6439 21.4174 21.405 21.5988 21.1768 21.5988H19.3844C19.1563 21.5988 18.9173 21.4174 18.8521 21.1976L15.2239 9.31574Z" fill="#0A0620"/>
<path d="M43.0577 21.5976C43.2858 21.5976 43.4705 21.4107 43.4705 21.1799V9.32002C43.4705 9.0892 43.2858 8.90234 43.0577 8.90234H41.4011C41.1729 8.90234 40.9883 9.0892 40.9883 9.32002V21.1799C40.9883 21.4107 41.1729 21.5976 41.4011 21.5976H43.0577Z" fill="#0A0620"/>
<path d="M61.3241 14.3265C61.3241 14.3265 61.9596 12.8481 63.7684 12.6997C64.0834 12.6997 64.0617 12.9306 64.0617 12.9306V14.8211C64.0617 14.8211 64.0508 15.0684 63.7792 15.0684C63.0839 15.052 61.3241 15.2388 61.3241 17.558V17.9867L61.3187 21.1797C61.3187 21.4105 61.134 21.5974 60.9059 21.5974L59.3308 21.6029C59.1026 21.6029 58.918 21.416 58.918 21.1852V13.0954C58.918 12.8646 59.1026 12.6777 59.3308 12.6777H60.9114C61.1395 12.6777 61.3241 12.8646 61.3241 13.0954V14.3265Z" fill="#0A0620"/>
<path d="M68.0332 19.9488C66.7513 19.9488 66.1104 18.7013 66.1104 17.1625C66.1104 15.6237 66.7513 14.3761 68.0332 14.3761C69.315 14.3761 69.9559 15.6237 69.9559 17.1625C69.9559 18.7013 69.315 19.9488 68.0332 19.9488ZM72.1015 8.90234H70.4448C70.2167 8.90234 70.032 9.0892 70.032 9.32002V13.5902C69.755 13.0132 69.2227 12.6395 68.1907 12.535C65.2087 12.2218 63.8672 14.6674 63.8672 17.168C63.8672 19.6741 65.2034 22.0647 68.1907 21.8009C69.2227 21.7075 69.755 21.3283 70.032 20.7073V21.1854C70.032 21.4162 70.2167 21.6031 70.4448 21.6031H72.1015C72.3295 21.6031 72.5143 21.4162 72.5143 21.1854V9.32002C72.5143 9.0892 72.3295 8.90234 72.1015 8.90234Z" fill="#0A0620"/>
<path d="M35.9437 14.3885C34.4772 14.3885 33.8145 15.636 33.8145 17.1748C33.8145 18.7136 34.4772 19.9612 35.9437 19.9612C37.345 19.9612 38.0729 18.7136 38.0729 17.1748C38.0729 15.636 37.345 14.3885 35.9437 14.3885ZM31.6094 17.1583C31.6094 14.6028 33.2116 12.5254 35.9383 12.5254C38.6595 12.5254 40.2618 14.5973 40.2618 17.1583C40.2618 19.7138 38.6541 21.7913 35.9383 21.7913C33.2171 21.7913 31.6094 19.7194 31.6094 17.1583Z" fill="#0A0620"/>
<path d="M53.9954 20.0306C52.5288 20.0306 51.8662 18.783 51.8662 17.2442C51.8662 15.7053 52.5288 14.4579 53.9954 14.4579C55.3967 14.4579 56.1246 15.7053 56.1246 17.2442C56.1246 18.783 55.3967 20.0306 53.9954 20.0306ZM53.9899 12.6003C53.6803 12.6003 53.3816 12.6332 53.0991 12.6827H47.9501C47.8088 10.6878 48.8408 10.8801 48.8408 10.8801C48.8408 10.8801 49.1776 10.8746 49.259 10.8746H49.3242C49.5523 10.8746 49.7371 10.7152 49.7371 10.4844V9.32479C49.7371 9.09397 49.5523 8.90711 49.3242 8.90711L48.9494 8.89062H47.9338C45.0821 8.89062 45.5004 12.6882 45.5004 12.6882V12.6992L45.0931 12.7102H44.6042C44.3761 12.7102 44.1914 12.8971 44.1914 13.1278V14.2875C44.1914 14.5183 44.3761 14.7052 44.6042 14.7052H45.1365L45.5384 14.7162L45.5493 15.1228V21.1792C45.5493 21.41 45.734 21.5968 45.9621 21.5968H47.5481C47.7762 21.5968 47.9609 21.41 47.9609 21.1792L47.9555 15.0954L47.9446 14.6777H48.3628L50.2856 14.6887C49.8783 15.4196 49.661 16.288 49.661 17.2277C49.661 19.7832 51.2633 21.8607 53.9899 21.8607C56.7112 21.8607 58.3134 19.7887 58.3134 17.2277C58.3134 14.6722 56.7112 12.6003 53.9899 12.6003Z" fill="#0A0620"/>
<path d="M72.7136 24.7965C72.4854 24.7965 72.3008 24.9833 72.3008 25.2142V28.0664C72.3008 28.2973 72.4854 28.4841 72.7136 28.4841H78.9001C79.1284 28.4841 79.3132 28.2973 79.3132 28.0664V2.41768C79.3132 2.18686 79.1284 2 78.9001 2H72.7136C72.4854 2 72.3008 2.18686 72.3008 2.41768V5.32494C72.3008 5.55576 72.4854 5.74262 72.7136 5.74262H75.3479C75.576 5.74262 75.7607 5.92947 75.7607 6.1603V24.3788C75.7607 24.6096 75.576 24.7965 75.3479 24.7965H72.7136Z" fill="#0A0620"/>
<path d="M28.0915 5.69865C28.3197 5.69865 28.5043 5.5118 28.5043 5.28098V2.41768C28.5043 2.18686 28.3197 2 28.0915 2H21.905C21.6768 2 21.4922 2.18686 21.4922 2.41768V5.28098C21.4922 5.5118 21.6768 5.69865 21.905 5.69865H28.0915Z" fill="#0A0620"/>
<path d="M40.7908 5.69865C41.0188 5.69865 41.2035 5.5118 41.2035 5.28098V2.41768C41.2035 2.18686 41.0188 2 40.7908 2H34.6042C34.3761 2 34.1914 2.18686 34.1914 2.41768V5.28098C34.1914 5.5118 34.3761 5.69865 34.6042 5.69865H40.7908Z" fill="#0A0620"/>
<path d="M53.5853 5.69865C53.8133 5.69865 53.9981 5.5118 53.9981 5.28098V2.41768C53.9981 2.18686 53.8133 2 53.5853 2H47.3933C47.1651 2 46.9805 2.18686 46.9805 2.41768V5.28098C46.9805 5.5118 47.1651 5.69865 47.3933 5.69865H53.5853Z" fill="#0A0620"/>
<path d="M66.3259 5.69865C66.5541 5.69865 66.7387 5.5118 66.7387 5.28098V2.41768C66.7387 2.18686 66.5541 2 66.3259 2H60.1394C59.9112 2 59.7266 2.18686 59.7266 2.41768V5.28098C59.7266 5.5118 59.9112 5.69865 60.1394 5.69865H66.3259Z" fill="#0A0620"/>
<path d="M28.0915 28.4994C28.3197 28.4994 28.5043 28.3126 28.5043 28.0817V25.2184C28.5043 24.9876 28.3197 24.8008 28.0915 24.8008H21.905C21.6768 24.8008 21.4922 24.9876 21.4922 25.2184V28.0817C21.4922 28.3126 21.6768 28.4994 21.905 28.4994H28.0915Z" fill="#0A0620"/>
<path d="M40.7908 28.4994C41.0188 28.4994 41.2035 28.3126 41.2035 28.0817V25.2184C41.2035 24.9876 41.0188 24.8008 40.7908 24.8008H34.6042C34.3761 24.8008 34.1914 24.9876 34.1914 25.2184V28.0817C34.1914 28.3126 34.3761 28.4994 34.6042 28.4994H40.7908Z" fill="#0A0620"/>
<path d="M53.5853 28.4994C53.8133 28.4994 53.9981 28.3126 53.9981 28.0817V25.2184C53.9981 24.9876 53.8133 24.8008 53.5853 24.8008H47.3933C47.1651 24.8008 46.9805 24.9876 46.9805 25.2184V28.0817C46.9805 28.3126 47.1651 28.4994 47.3933 28.4994H53.5853Z" fill="#0A0620"/>
<path d="M66.3259 28.4994C66.5541 28.4994 66.7387 28.3126 66.7387 28.0817V25.2184C66.7387 24.9876 66.5541 24.8008 66.3259 24.8008H60.1394C59.9112 24.8008 59.7266 24.9876 59.7266 25.2184V28.0817C59.7266 28.3126 59.9112 28.4994 60.1394 28.4994H66.3259Z" fill="#0A0620"/>
<path d="M0.912799 28.4841C0.684673 28.4841 0.5 28.2973 0.5 28.0664V2.41768C0.5 2.18686 0.684673 2 0.912799 2H4.73119C4.95389 2 5.14399 2.18686 5.14399 2.41768V28.0664C5.14399 28.2973 4.95931 28.4841 4.73119 28.4841H0.912799Z" fill="#0A0620"/>
</svg>
